<?xml version="1.0" encoding="UTF-8"?>
<svg xmlns="http://www.w3.org/2000/svg" xmlns:xlink="http://www.w3.org/1999/xlink" version="1.2" >
<font id="Brewery No 2 ExtraBold">
<font-face  font-family="Brewery No 2" units-per-em="1000" ascent="771" descent="-229" font-style="normal" font-weight="800" font-stretch="normal" cap-height="728" x-height="496" underline-position="-141" underline-thickness="31" />
<missing-glyph  horiz-adv-x="485" d="M210 174 L263 174 L263 111 L210 111 L210 174 Z M211 238 Q211 263 213.5 281 Q216 299 222.5 313.5 Q229 328 240 341 Q251 354 268 369 Q298 397 306 414.5 Q314 432 314 449 Q314 483 292.5 506 Q271 529 242 529 Q213 529 191.5 508.5 Q170 488 165 439 Q153 441 141 443 Q129 445 117 447 Q124 516 159 546.5 Q194 577 245 577 Q297 577 330 543.5 Q363 510 363 453 Q363 422 351 397.5 Q339 373 303 340 Q284 323 274.5 312 Q265 301 261 289.5 Q257 278 257 262.5 Q257 247 257 222 L211 222 L211 238 Z M438 47 L438 632 L47 632 L47 47 L438 47 Z M0 680 L485 680 L485 0 L0 0 L0 680 Z " />
<glyph glyph-name="space" unicode="&#x20;" horiz-adv-x="288" d="" />
<glyph glyph-name="exclam" unicode="&#x21;" horiz-adv-x="305" d="M83 728 L223 728 L212 220 L94 220 L83 728 Z M230 69 Q230 31 204 12 Q178 -7 148 -7 Q117 -7 95.5 10.5 Q74 28 74 59 Q74 78 81 92 Q88 106 100 115.5 Q112 125 127 130 Q142 135 157 135 Q188 135 209 118 Q230 101 230 69 Z " />
<glyph glyph-name="quotedbl" unicode="&#x22;" horiz-adv-x="449" d="M256 728 L375 728 L360 457 L271 457 L256 728 Z M79 728 L197 728 L182 457 L93 457 L79 728 Z " />
<glyph glyph-name="numbersign" unicode="&#x23;" horiz-adv-x="576" d="M95 224 L-7 224 L-7 308 L117 308 L147 419 L44 419 L44 504 L169 504 L229 728 L328 728 L268 504 L382 504 L442 728 L541 728 L482 504 L583 504 L583 419 L459 419 L430 309 L531 309 L531 224 L407 224 L347 0 L247 0 L308 224 L194 224 L133 0 L35 0 L95 224 Z M330 308 L359 419 L245 419 L216 308 L330 308 Z " />
<glyph glyph-name="dollar" unicode="&#x24;" horiz-adv-x="576" d="M367 14 Q347 2 327 -4 L327 -79 L252 -79 L252 -15 Q196 -15 143.5 0.5 Q91 16 46 49 L91 164 Q129 134 168 114.5 Q207 95 252 87 L252 317 Q247 319 242.5 320.5 Q238 322 233 324 Q200 335 168.5 349 Q137 363 112 384.5 Q87 406 71.5 437 Q56 468 56 514 Q56 574 84.5 616.5 Q113 659 152 681 L213 716 Q233 727 252 733 L252 807 L327 807 L327 743 Q427 740 510 683 L465 568 Q433 591 399 609.5 Q365 628 327 637 L327 428 Q335 424 349 421 Q382 410 414.5 396 Q447 382 472.5 360 Q498 338 514 305.5 Q530 273 530 225 Q530 170 503.5 123 Q477 76 428 48 L367 14 Z M392 183 Q392 223 374 247.5 Q356 272 327 288 L327 83 Q342 87 354.5 97 Q367 107 375 121 Q383 135 387.5 151.5 Q392 168 392 183 Z M193 556 Q193 518 209 495 Q225 472 252 457 L252 644 Q238 641 227 632 Q216 623 208.5 610.5 Q201 598 197 583.5 Q193 569 193 556 Z " />
<glyph glyph-name="percent" unicode="&#x25;" horiz-adv-x="825" d="M233 341 Q204 326 165 326 Q124 326 95.5 342.5 Q67 359 49 386.5 Q31 414 23 449 Q15 484 15 522 Q15 551 19.5 578.5 Q24 606 34 630 Q44 654 59.5 673 Q75 692 97 704 L143 728 Q157 735 173.5 739 Q190 743 210 743 Q252 743 280.5 726.5 Q309 710 327 682 Q345 654 353 618.5 Q361 583 361 546 Q361 517 356.5 489.5 Q352 462 342 438 Q332 414 316 395 Q300 376 277 364 L233 341 Z M259 522 Q259 550 255 578 Q251 606 240.5 627.5 Q230 649 213 662.5 Q196 676 170 676 Q162 676 156.5 670.5 Q151 665 146 659 Q130 638 124 607.5 Q118 577 118 546 Q118 517 122.5 489.5 Q127 462 137.5 440.5 Q148 419 165.5 406 Q183 393 209 393 Q216 393 221.5 398.5 Q227 404 232 411 Q247 431 253 461 Q259 491 259 522 Z M583 760 L657 760 L242 -32 L168 -32 L583 760 Z M682 7 Q653 -8 614 -8 Q573 -8 544.5 8.5 Q516 25 498 52.5 Q480 80 472 115 Q464 150 464 188 Q464 217 468.5 244.5 Q473 272 483 296 Q493 320 508.5 339 Q524 358 546 370 L592 394 Q606 401 622.5 405 Q639 409 659 409 Q701 409 729.5 392.5 Q758 376 776 348 Q794 320 802 284.5 Q810 249 810 212 Q810 183 805.5 155.5 Q801 128 791 104 Q781 80 765 61 Q749 42 726 30 L682 7 Z M708 188 Q708 216 704 244 Q700 272 689.5 293.5 Q679 315 662 328.5 Q645 342 619 342 Q611 342 605.5 336.5 Q600 331 595 325 Q579 304 573 273.5 Q567 243 567 212 Q567 183 571.5 155.5 Q576 128 586.5 106.5 Q597 85 614.5 72 Q632 59 658 59 Q665 59 670.5 64.5 Q676 70 681 77 Q696 97 702 127 Q708 157 708 188 Z " />
<glyph glyph-name="ampersand" unicode="&#x26;" horiz-adv-x="698" d="M559 -9 Q551 17 539.5 43 Q528 69 514 94 Q500 83 476 66.5 Q452 50 433 39 Q386 12 342 -1.5 Q298 -15 249 -15 Q204 -15 165 -2 Q126 11 97 34.5 Q68 58 51.5 90.5 Q35 123 35 162 Q35 203 50.5 236.5 Q66 270 91 297.5 Q116 325 146.5 347 Q177 369 206 388 Q162 425 132.5 465 Q103 505 103 555 Q103 594 124 628 Q145 662 177.5 687.5 Q210 713 249.5 728 Q289 743 327 743 Q360 743 389 732 Q418 721 440 701 Q462 681 475 653 Q488 625 488 591 Q488 564 478 540.5 Q468 517 451 496.5 Q434 476 412.5 458 Q391 440 368 423 Q418 386 473 343 Q528 300 573 245 Q586 259 601.5 277 Q617 295 628 308 L684 255 Q669 237 653.5 218.5 Q638 200 621 182 Q641 152 657 119.5 Q673 87 690 42 L559 -9 Z M311 466 Q330 484 348 506 Q366 528 366 557 Q366 577 359 594.5 Q352 612 340 625.5 Q328 639 312 647 Q296 655 278 655 Q270 655 264 652.5 Q258 650 253 646 Q242 635 236 618 Q230 601 230 584 Q230 553 254 524 Q278 495 311 466 Z M478 150 Q435 210 378 256 Q321 302 262 345 Q244 331 226.5 315.5 Q209 300 196 282 Q183 264 175 243.5 Q167 223 167 198 Q167 171 179 148.5 Q191 126 211 110.5 Q231 95 256.5 86 Q282 77 308 77 Q360 77 400.5 96 Q441 115 478 150 Z " />
<glyph glyph-name="quotesingle" unicode="&#x27;" horiz-adv-x="288" d="M84 728 L203 728 L188 474 L99 474 L84 728 Z " />
<glyph glyph-name="parenleft" unicode="&#x28;" horiz-adv-x="325" d="M317 697 Q246 609 209 498 Q172 387 172 273 Q172 160 208.5 48.5 Q245 -63 317 -152 Q285 -176 251 -200 Q208 -158 172 -106.5 Q136 -55 109.5 1.5 Q83 58 68.5 118.5 Q54 179 54 240 Q54 369 100.5 478.5 Q147 588 227 686 Q235 698 244 709.5 Q253 721 264 731 L317 697 Z " />
<glyph glyph-name="parenright" unicode="&#x29;" horiz-adv-x="325" d="M8 -166 Q79 -78 116 33 Q153 144 153 258 Q153 371 116.5 482.5 Q80 594 8 683 Q39 707 74 731 Q117 689 153 637.5 Q189 586 215 529.5 Q241 473 256 412.5 Q271 352 271 291 Q271 162 224.5 52 Q178 -58 98 -155 Q90 -167 81 -178.5 Q72 -190 61 -200 L8 -166 Z " />
<glyph glyph-name="asterisk" unicode="&#x2a;" horiz-adv-x="514" d="M95 376 L188 504 L31 558 L71 635 L214 588 L214 746 L301 746 L301 587 L450 637 L481 558 L327 504 L422 375 L351 331 L257 454 L166 330 L95 376 Z " />
<glyph glyph-name="plus" unicode="&#x2b;" horiz-adv-x="556" d="M231 204 L29 204 L29 296 L231 296 L231 500 L325 500 L325 296 L527 296 L527 204 L325 204 L325 0 L231 0 L231 204 Z " />
<glyph glyph-name="comma" unicode="&#x2c;" horiz-adv-x="288" d="M40 -130 Q63 -100 80.5 -67.5 Q98 -35 106 -1 Q67 19 67 61 Q67 95 90.5 115 Q114 135 147 135 Q181 135 201.5 112 Q222 89 222 56 Q222 24 212.5 -5.5 Q203 -35 186 -61.5 Q169 -88 146 -111 Q123 -134 96 -152 L40 -130 Z " />
<glyph glyph-name="hyphen" unicode="&#x2d;" horiz-adv-x="355" d="M30 303 L326 303 L326 209 L30 209 L30 303 Z " />
<glyph glyph-name="period" unicode="&#x2e;" horiz-adv-x="288" d="M222 69 Q222 31 196.5 12 Q171 -7 141 -7 Q109 -7 88 10.5 Q67 28 67 59 Q67 78 74 92 Q81 106 93 115.5 Q105 125 120 130 Q135 135 150 135 Q181 135 201.5 118 Q222 101 222 69 Z " />
<glyph glyph-name="slash" unicode="&#x2f;" horiz-adv-x="435" d="M370 743 L436 743 L64 -15 L0 -15 L370 743 Z " />
<glyph glyph-name="zero" unicode="0" horiz-adv-x="576" d="M365 12 Q342 -1 316 -8 Q290 -15 258 -15 Q191 -15 145 15.5 Q99 46 70 96.5 Q41 147 28 212 Q15 277 15 346 Q15 399 22.5 450 Q30 501 46 545.5 Q62 590 88 625 Q114 660 150 681 L210 716 Q255 743 318 743 Q385 743 431 712.5 Q477 682 506 631 Q535 580 548 515 Q561 450 561 381 Q561 328 553.5 277 Q546 226 529.5 181.5 Q513 137 487.5 102 Q462 67 425 46 L365 12 Z M423 346 Q423 401 415.5 454.5 Q408 508 389.5 550.5 Q371 593 340 619 Q309 645 263 645 Q249 645 237 636.5 Q225 628 215 618 Q198 598 186.5 571.5 Q175 545 167.5 514 Q160 483 157 449 Q154 415 154 381 Q154 324 162 270.5 Q170 217 189 175.5 Q208 134 239 108.5 Q270 83 316 83 Q330 83 342 92 Q354 101 364 112 Q397 150 410 213.5 Q423 277 423 346 Z " />
<glyph glyph-name="one" unicode="1" horiz-adv-x="576" d="M280 579 L105 472 L55 555 L346 728 L415 728 L415 0 L280 0 L280 579 Z " />
<glyph glyph-name="two" unicode="2" horiz-adv-x="576" d="M43 55 L283 309 Q329 358 358 405.5 Q387 453 387 510 Q387 541 376 566 Q365 591 345.5 608.5 Q326 626 300 635.5 Q274 645 244 645 Q194 645 155 624.5 Q116 604 74 574 L39 635 Q62 652 87 669 Q112 686 142 702 Q180 723 220 733 Q260 743 299 743 Q347 743 388.5 730 Q430 717 461 691 Q492 665 509.5 627 Q527 589 527 540 Q527 468 495 409.5 Q463 351 405 294 L211 100 L545 105 L506 0 L43 0 L43 55 Z " />
<glyph glyph-name="three" unicode="3" horiz-adv-x="576" d="M372 18 Q345 2 312.5 -6.5 Q280 -15 243 -15 Q186 -15 140 1 Q94 17 47 53 L94 170 Q147 122 195.5 99.5 Q244 77 294 77 Q310 78 322.5 80 Q335 82 346 90 Q369 108 380 134.5 Q391 161 391 190 Q391 220 379.5 245.5 Q368 271 348.5 289.5 Q329 308 303 319 Q277 330 247 330 L188 330 L214 424 L302 424 Q318 424 330.5 432 Q343 440 352 453 Q361 466 366 482.5 Q371 499 371 516 Q371 546 360 570 Q349 594 330.5 610.5 Q312 627 287.5 636 Q263 645 236 645 Q193 645 157 628.5 Q121 612 86 588 L58 652 Q78 666 101.5 680 Q125 694 155 709 Q194 727 229 735 Q264 743 305 743 Q348 743 385 729 Q422 715 448.5 690 Q475 665 490 631 Q505 597 505 557 Q505 500 478 461.5 Q451 423 406 397 Q460 375 494.5 327 Q529 279 529 217 Q529 163 503 120.5 Q477 78 432 52 L372 18 Z " />
<glyph glyph-name="four" unicode="4" horiz-adv-x="576" d="M359 155 L7 155 L7 210 L362 728 L492 728 L154 254 L154 253 L359 253 L359 427 L492 427 L492 253 L566 253 L566 156 L492 156 L492 0 L359 0 L359 155 Z " />
<glyph glyph-name="five" unicode="5" horiz-adv-x="576" d="M379 18 Q350 1 315 -7 Q280 -15 244 -15 Q185 -15 131.5 1.5 Q78 18 31 50 L90 164 Q144 122 196 102.5 Q248 83 302 83 Q316 83 331 85.5 Q346 88 356 95 Q382 117 396 148.5 Q410 180 410 217 Q410 251 398 281.5 Q386 312 365 335.5 Q344 359 315.5 372.5 Q287 386 254 386 Q219 386 186 375 Q153 364 123 345 L58 363 L113 728 L531 728 L492 623 L202 626 L174 439 Q243 472 313 472 Q363 472 406.5 455.5 Q450 439 481.5 409 Q513 379 531 338 Q549 297 549 248 Q549 185 519.5 133.5 Q490 82 439 53 L379 18 Z " />
<glyph glyph-name="six" unicode="6" horiz-adv-x="576" d="M383 12 Q358 -2 326.5 -8.5 Q295 -15 260 -15 Q209 -15 165.5 4 Q122 23 89.5 55.5 Q57 88 38.5 132 Q20 176 20 226 Q20 269 32 313 Q44 357 65 400 Q103 479 164.5 561 Q226 643 305 728 L444 728 Q382 659 327.5 588 Q273 517 228 445 Q249 457 275 464.5 Q301 472 327 472 Q377 472 419.5 454.5 Q462 437 492.5 406.5 Q523 376 540 335 Q557 294 557 248 Q557 216 548.5 186 Q540 156 525 129.5 Q510 103 489 81.5 Q468 60 443 46 L383 12 Z M160 250 Q160 215 172 185 Q184 155 206 132 Q228 109 257.5 96 Q287 83 323 83 Q337 83 349.5 85.5 Q362 88 372 95 Q398 116 413 148 Q428 180 428 216 Q428 251 416 281.5 Q404 312 382.5 334.5 Q361 357 330.5 370 Q300 383 263 383 Q250 383 236.5 380 Q223 377 212 372 Q187 350 173.5 318.5 Q160 287 160 250 Z " />
<glyph glyph-name="seven" unicode="7" horiz-adv-x="576" d="M408 628 L18 623 L58 728 L541 728 L541 672 L265 0 L131 0 L408 628 Z " />
<glyph glyph-name="eight" unicode="8" horiz-adv-x="576" d="M374 14 Q324 -15 258 -15 Q212 -15 172.5 0.5 Q133 16 103.5 43 Q74 70 57.5 106.5 Q41 143 41 185 Q41 237 66 278.5 Q91 320 133 345 Q143 351 151 355.5 Q159 360 164 363 Q116 381 86.5 423.5 Q57 466 57 521 Q57 572 82 614 Q107 656 150 680 L209 715 Q259 743 317 743 Q359 743 396 728.5 Q433 714 460.5 689 Q488 664 503.5 629.5 Q519 595 519 556 Q519 508 496.5 469.5 Q474 431 436 408 Q430 404 424 401 Q418 398 412 394 Q439 384 461.5 367 Q484 350 500.5 327.5 Q517 305 526 277.5 Q535 250 535 220 Q535 164 507.5 119.5 Q480 75 434 49 L374 14 Z M389 519 Q389 545 379 568.5 Q369 592 351.5 609.5 Q334 627 310 637.5 Q286 648 257 648 Q241 648 228 639 Q215 630 206 616.5 Q197 603 192.5 586 Q188 569 188 553 Q188 526 198 502.5 Q208 479 225.5 461.5 Q243 444 267 434 Q291 424 319 424 Q333 424 346 431.5 Q359 439 368.5 452 Q378 465 383.5 482.5 Q389 500 389 519 Z M396 188 Q396 217 385.5 242.5 Q375 268 356.5 287 Q338 306 312.5 317 Q287 328 258 328 Q247 328 236 322 Q225 316 217 309 Q200 293 190 271 Q180 249 180 223 Q180 195 190.5 169.5 Q201 144 219 125 Q237 106 262 94.5 Q287 83 317 83 Q330 83 340.5 89 Q351 95 359 102 Q376 118 386 140 Q396 162 396 188 Z " />
<glyph glyph-name="nine" unicode="9" horiz-adv-x="576" d="M132 0 Q194 69 248.5 140 Q303 211 348 283 Q327 271 301.5 263.5 Q276 256 250 256 Q200 256 157.5 273.5 Q115 291 84 321.5 Q53 352 36 392.5 Q19 433 19 480 Q19 511 27.5 541.5 Q36 572 51 598.5 Q66 625 87 646.5 Q108 668 134 682 L194 716 Q219 730 250.5 736.5 Q282 743 317 743 Q368 743 411.5 724 Q455 705 487.5 672.5 Q520 640 538.5 596 Q557 552 557 502 Q557 459 545 415 Q533 371 512 328 Q473 249 412 167 Q351 85 272 0 L132 0 Z M417 478 Q417 512 404.5 542.5 Q392 573 370.5 596 Q349 619 319 632 Q289 645 253 645 Q240 645 227.5 642.5 Q215 640 205 633 Q179 612 164 580 Q149 548 149 512 Q149 477 161 446.5 Q173 416 194.5 393.5 Q216 371 246.5 358 Q277 345 314 345 Q326 345 340 348 Q354 351 365 356 Q390 378 403.5 409.5 Q417 441 417 478 Z " />
<glyph glyph-name="colon" unicode="&#x3a;" horiz-adv-x="288" d="M222 69 Q222 31 196.5 12 Q171 -7 141 -7 Q109 -7 88 10.5 Q67 28 67 59 Q67 78 74 92 Q81 106 93 115.5 Q105 125 120 130 Q135 135 150 135 Q181 135 201.5 118 Q222 101 222 69 Z M222 411 Q222 373 196.5 353.5 Q171 334 141 334 Q109 334 88 352 Q67 370 67 400 Q67 419 74 433 Q81 447 93 457 Q105 467 120 472 Q135 477 150 477 Q181 477 201.5 459.5 Q222 442 222 411 Z " />
<glyph glyph-name="semicolon" unicode="&#x3b;" horiz-adv-x="288" d="M40 -130 Q63 -100 80.5 -67.5 Q98 -35 106 -1 Q67 19 67 61 Q67 95 90.5 115 Q114 135 147 135 Q181 135 201.5 112 Q222 89 222 56 Q222 24 212.5 -5.5 Q203 -35 186 -61.5 Q169 -88 146 -111 Q123 -134 96 -152 L40 -130 Z M222 411 Q222 373 196.5 353.5 Q171 334 141 334 Q109 334 88 352 Q67 370 67 400 Q67 419 74 433 Q81 447 93 457 Q105 467 120 472 Q135 477 150 477 Q181 477 201.5 459.5 Q222 442 222 411 Z " />
<glyph glyph-name="less" unicode="&#x3c;" horiz-adv-x="556" d="M31 203 L31 297 L525 510 L525 410 L145 250 L525 90 L525 -10 L31 203 Z " />
<glyph glyph-name="equal" unicode="&#x3d;" horiz-adv-x="556" d="M29 392 L527 392 L527 299 L29 299 L29 392 Z M29 201 L527 201 L527 108 L29 108 L29 201 Z " />
<glyph glyph-name="greater" unicode="&#x3e;" horiz-adv-x="556" d="M31 90 L411 250 L31 410 L31 510 L525 297 L525 203 L31 -10 L31 90 Z " />
<glyph glyph-name="question" unicode="&#x3f;" horiz-adv-x="506" d="M188 281 Q188 317 204 340.5 Q220 364 243 384 Q259 397 276 409.5 Q293 422 307 437 Q321 452 330 472 Q339 492 339 520 Q339 545 329 568 Q319 591 301.5 608 Q284 625 261 635 Q238 645 211 645 Q157 645 104 616 Q88 608 75.5 599.5 Q63 591 52 583 L31 650 Q48 662 66.5 674 Q85 686 108 700 Q145 720 186.5 731.5 Q228 743 273 743 Q315 743 352 729.5 Q389 716 416.5 691.5 Q444 667 460 633 Q476 599 476 559 Q476 525 465.5 499.5 Q455 474 438 453.5 Q421 433 400.5 417.5 Q380 402 361 387 Q340 370 325.5 350 Q311 330 311 303 L311 220 L188 220 L188 281 Z M327 69 Q327 31 301.5 12 Q276 -7 245 -7 Q214 -7 193 10.5 Q172 28 172 59 Q172 97 198 116 Q224 135 254 135 Q286 135 306.5 118 Q327 101 327 69 Z " />
<glyph glyph-name="at" unicode="&#x40;" horiz-adv-x="823" d="M764 129 Q701 63 613.5 24 Q526 -15 421 -15 Q337 -15 265.5 13 Q194 41 141.5 90.5 Q89 140 59 208.5 Q29 277 29 359 Q29 440 61.5 510 Q94 580 150 631.5 Q206 683 280 713 Q354 743 437 743 Q513 743 578.5 718.5 Q644 694 691.5 649.5 Q739 605 766 543.5 Q793 482 793 409 Q793 360 776.5 314 Q760 268 729.5 232 Q699 196 655.5 174 Q612 152 557 152 Q527 152 505.5 168.5 Q484 185 481 219 Q452 191 415.5 172.5 Q379 154 334 154 Q298 154 271 167 Q244 180 225.5 201.5 Q207 223 198 251.5 Q189 280 189 311 Q189 357 207 406 Q225 455 258.5 494.5 Q292 534 339 559.5 Q386 585 445 585 Q481 585 510 569.5 Q539 554 556 528 L568 570 L630 570 L563 328 Q560 316 556 302.5 Q552 289 549 276.5 Q546 264 543.5 253 Q541 242 541 236 Q541 219 548 212 Q555 205 570 205 Q609 205 639 221 Q669 237 689.5 264 Q710 291 720.5 326 Q731 361 731 399 Q731 464 708.5 517.5 Q686 571 645 609.5 Q604 648 547 669 Q490 690 421 690 Q350 690 289.5 665.5 Q229 641 185 597.5 Q141 554 116 495 Q91 436 91 368 Q91 299 117 238.5 Q143 178 189.5 133 Q236 88 299.5 62.5 Q363 37 437 37 Q527 37 596.5 71 Q666 105 726 167 L764 129 Z M344 205 Q370 205 394 215.5 Q418 226 438.5 245 Q459 264 475 289.5 Q491 315 501 345 Q509 370 517.5 401 Q526 432 533 461 Q525 492 501 514 Q477 536 438 536 Q397 536 364 514.5 Q331 493 307.5 460 Q284 427 271.5 388 Q259 349 259 313 Q259 265 281 235 Q303 205 344 205 Z " />
<glyph glyph-name="A" unicode="A" horiz-adv-x="713" d="M284 673 L259 728 L405 728 L727 0 L581 0 L492 201 L188 201 L123 55 L144 0 L-15 0 L284 673 Z M450 298 L339 548 L230 298 L450 298 Z " />
<glyph glyph-name="B" unicode="B" horiz-adv-x="578" d="M62 673 L29 728 L330 728 Q370 728 405 714.5 Q440 701 465.5 677 Q491 653 505.5 620 Q520 587 520 548 Q520 501 498 465 Q476 429 444 409 L429 400 Q424 397 418 396 Q472 379 509 335 Q546 291 547 227 Q547 174 520.5 131 Q494 88 451 62 L391 28 Q368 14 340.5 7 Q313 0 282 0 L62 0 L62 673 Z M337 97 Q347 97 355 99.5 Q363 102 371 106 Q409 141 409 196 Q409 224 398.5 248.5 Q388 273 370 291.5 Q352 310 328 320.5 Q304 331 277 331 L194 331 L194 97 L337 97 Z M317 423 Q336 423 350 433 Q365 445 374.5 464.5 Q384 484 385 507 Q385 533 376 555.5 Q367 578 351 595 Q335 612 313 621.5 Q291 631 266 631 L194 631 L194 423 L317 423 Z " />
<glyph glyph-name="C" unicode="C" horiz-adv-x="680" d="M660 69 Q640 56 623.5 46.5 Q607 37 587 27 Q544 5 495.5 -5 Q447 -15 391 -15 Q313 -15 245.5 13.5 Q178 42 128 91 Q78 140 49.5 205.5 Q21 271 21 346 Q21 396 34 442 Q47 488 70.5 528.5 Q94 569 127.5 602 Q161 635 202 658 L262 693 Q304 716 351 729.5 Q398 743 450 743 Q506 743 553.5 732 Q601 721 646 701 L600 581 Q556 609 504.5 627 Q453 645 391 645 Q363 645 333.5 640 Q304 635 279 619 Q222 582 190.5 518 Q159 454 159 381 Q159 319 182 265 Q205 211 245.5 170.5 Q286 130 339.5 106.5 Q393 83 455 83 Q513 83 556.5 96.5 Q600 110 647 136 L660 69 Z " />
<glyph glyph-name="D" unicode="D" horiz-adv-x="714" d="M62 673 L29 728 L339 728 Q414 728 478.5 701 Q543 674 590.5 626.5 Q638 579 665.5 516 Q693 453 693 381 Q693 333 680.5 289 Q668 245 645.5 206.5 Q623 168 591 136.5 Q559 105 520 82 L459 47 Q421 25 375.5 12.5 Q330 0 280 0 L62 0 L62 673 Z M332 99 Q362 99 392 103.5 Q422 108 443 122 Q497 157 526 217.5 Q555 278 555 346 Q555 404 533.5 456 Q512 508 474 546 Q436 584 384 606.5 Q332 629 272 629 L197 629 L197 99 L332 99 Z " />
<glyph glyph-name="E" unicode="E" horiz-adv-x="544" d="M62 673 L29 728 L516 728 L478 629 L197 629 L197 426 L506 426 L468 327 L197 327 L197 99 L526 99 L488 0 L62 0 L62 673 Z " />
<glyph glyph-name="F" unicode="F" horiz-adv-x="534" d="M62 673 L29 728 L509 728 L471 629 L197 629 L197 401 L489 401 L451 301 L197 301 L197 0 L62 0 L62 673 Z " />
<glyph glyph-name="G" unicode="G" horiz-adv-x="783" d="M640 51 Q586 19 524.5 2 Q463 -15 391 -15 Q313 -15 245.5 13.5 Q178 42 128 91 Q78 140 49.5 205.5 Q21 271 21 346 Q21 396 34 442 Q47 488 70.5 528.5 Q94 569 127.5 602 Q161 635 202 658 L262 693 Q304 716 351 729.5 Q398 743 450 743 Q525 743 586 724.5 Q647 706 701 670 L656 550 Q605 590 541 617.5 Q477 645 396 645 Q364 645 334 640 Q304 635 279 619 Q222 582 190.5 518 Q159 454 159 381 Q159 319 182 265 Q205 211 245 170.5 Q285 130 339 106.5 Q393 83 455 83 Q493 83 524.5 89.5 Q556 96 585 108 Q590 111 595.5 113.5 Q601 116 606 119 L606 279 L362 279 L400 378 L742 378 L742 112 L700 85 L640 51 Z " />
<glyph glyph-name="H" unicode="H" horiz-adv-x="696" d="M62 673 L29 728 L197 728 L197 428 L500 428 L500 673 L468 728 L635 728 L635 0 L500 0 L500 326 L197 326 L197 0 L62 0 L62 673 Z " />
<glyph glyph-name="I" unicode="I" horiz-adv-x="268" d="M67 673 L34 728 L202 728 L202 0 L67 0 L67 673 Z " />
<glyph glyph-name="J" unicode="J" horiz-adv-x="303" d="M-48 -54 L-1 -54 Q16 -54 32.5 -52 Q49 -50 65 -47 Q107 -8 107 53 L107 673 L75 728 L242 728 L242 109 Q242 40 220 -9 Q198 -58 145 -90 L85 -125 Q61 -139 32.5 -146.5 Q4 -154 -28 -154 L-48 -54 Z " />
<glyph glyph-name="K" unicode="K" horiz-adv-x="643" d="M62 673 L29 728 L197 728 L197 387 L210 403 L448 673 L431 728 L629 728 L344 404 Q433 314 515 213 Q597 112 657 0 L487 0 Q436 88 370 172 Q304 256 235 331 L197 300 L197 0 L62 0 L62 673 Z " />
<glyph glyph-name="L" unicode="L" horiz-adv-x="493" d="M62 673 L29 728 L197 728 L197 99 L492 99 L453 0 L62 0 L62 673 Z " />
<glyph glyph-name="M" unicode="M" horiz-adv-x="863" d="M62 665 L16 728 L181 728 L434 383 L687 728 L801 728 L801 0 L667 0 L667 519 L447 220 L386 220 L167 519 L167 0 L62 0 L62 665 Z " />
<glyph glyph-name="N" unicode="N" horiz-adv-x="726" d="M62 664 L16 728 L182 728 L558 214 L558 673 L526 728 L664 728 L664 0 L546 0 L168 516 L168 0 L62 0 L62 664 Z " />
<glyph glyph-name="O" unicode="O" horiz-adv-x="834" d="M574 33 Q533 10 486 -2.5 Q439 -15 387 -15 Q309 -15 242.5 13.5 Q176 42 126.5 90.5 Q77 139 49 205 Q21 271 21 346 Q21 447 70 529 Q119 611 201 659 L260 694 Q301 717 347.5 730 Q394 743 447 743 Q525 743 592 714.5 Q659 686 708 637 Q757 588 785 522 Q813 456 813 381 Q813 331 800 284.5 Q787 238 764 197.5 Q741 157 707.5 124 Q674 91 634 68 L574 33 Z M558 106 Q615 143 645 207 Q675 271 675 346 Q675 408 653 462.5 Q631 517 592.5 557.5 Q554 598 501.5 621.5 Q449 645 387 645 Q357 645 328 641 Q299 637 275 621 Q219 584 189 520 Q159 456 159 381 Q159 319 181 265 Q203 211 241.5 170.5 Q280 130 332.5 106.5 Q385 83 447 83 Q477 83 506 86.5 Q535 90 558 106 Z " />
<glyph glyph-name="P" unicode="P" horiz-adv-x="580" d="M62 673 L29 728 L333 728 Q381 728 422 711 Q463 694 493 664 Q523 634 540.5 594 Q558 554 558 509 Q558 449 529 401 Q500 353 451 325 L392 290 Q338 259 272 259 L197 259 L197 0 L62 0 L62 673 Z M327 356 Q353 356 373 368 Q397 386 410 414 Q423 442 423 475 Q423 507 410.5 535 Q398 563 376.5 584 Q355 605 326.5 617.5 Q298 630 265 630 L197 630 L197 356 L327 356 Z " />
<glyph glyph-name="Q" unicode="Q" horiz-adv-x="851" d="M795 -14 Q739 -14 694.5 6 Q650 26 612 55 L589 42 L574 33 Q532 10 485.5 -2.5 Q439 -15 387 -15 Q309 -15 242.5 13.5 Q176 42 126.5 90.5 Q77 139 49 205 Q21 271 21 346 Q21 447 70 529 Q119 611 201 659 L260 694 Q301 717 347.5 730 Q394 743 447 743 Q525 743 592 714.5 Q659 686 708 637 Q757 588 785 522 Q813 456 813 381 Q813 306 785.5 241 Q758 176 710 128 Q736 108 765.5 95.5 Q795 83 830 80 L795 -14 Z M553 111 Q527 133 501 155.5 Q475 178 446.5 196 Q418 214 385.5 225.5 Q353 237 314 237 Q277 237 230 223 L259 312 Q313 330 367 330 Q407 330 441.5 319 Q476 308 506.5 290 Q537 272 566 249 Q595 226 625 202 Q648 231 661.5 269 Q675 307 675 346 Q675 408 653 462.5 Q631 517 592.5 557.5 Q554 598 501.5 621.5 Q449 645 387 645 Q357 645 327 640 Q297 635 275 621 Q220 583 189.5 519.5 Q159 456 159 381 Q159 319 181 265 Q203 211 241.5 170.5 Q280 130 332.5 106.5 Q385 83 447 83 Q497 83 535 102 L553 111 Z " />
<glyph glyph-name="R" unicode="R" horiz-adv-x="602" d="M62 673 L29 728 L335 728 Q380 728 419.5 712 Q459 696 487.5 668 Q516 640 532.5 602 Q549 564 549 521 Q549 464 522.5 417.5 Q496 371 451 343 L430 330 Q409 316 382 315 L619 0 L451 0 L245 288 L197 288 L197 0 L62 0 L62 673 Z M329 378 Q348 377 367 387 Q387 404 399 428.5 Q411 453 413 483 Q413 514 402 540.5 Q391 567 371.5 587 Q352 607 326 618.5 Q300 630 269 630 L197 630 L197 378 L329 378 Z " />
<glyph glyph-name="S" unicode="S" horiz-adv-x="532" d="M347 14 Q295 -15 232 -15 Q177 -15 123.5 0.5 Q70 16 25 49 L70 164 Q121 125 173 103.5 Q225 82 291 82 Q310 82 324.5 91.5 Q339 101 349.5 115.5 Q360 130 365.5 148 Q371 166 371 183 Q371 217 357.5 239.5 Q344 262 322 277.5 Q300 293 271.5 303.5 Q243 314 213 324 Q180 335 148 349 Q116 363 91 384.5 Q66 406 50.5 437 Q35 468 35 514 Q35 574 63.5 616.5 Q92 659 131 681 L192 716 Q216 730 242 736.5 Q268 743 297 743 Q348 743 397.5 727.5 Q447 712 489 683 L444 568 Q399 602 348.5 623.5 Q298 645 241 645 Q225 645 212 636.5 Q199 628 190 615 Q181 602 176.5 586.5 Q172 571 172 556 Q172 522 185 500.5 Q198 479 219.5 464.5 Q241 450 269.5 440.5 Q298 431 328 421 Q361 410 393.5 396 Q426 382 451.5 360 Q477 338 493 305.5 Q509 273 509 225 Q509 170 482.5 123 Q456 76 407 48 L347 14 Z " />
<glyph glyph-name="T" unicode="T" horiz-adv-x="585" d="M225 628 L3 628 L41 728 L582 728 L544 628 L359 628 L359 0 L225 0 L225 628 Z " />
<glyph glyph-name="U" unicode="U" horiz-adv-x="683" d="M490 32 Q410 -15 306 -15 Q253 -15 208 3.5 Q163 22 130 53.5 Q97 85 78 128 Q59 171 59 221 L59 673 L26 728 L194 728 L194 260 Q194 224 207.5 192.5 Q221 161 244.5 137.5 Q268 114 299.5 100 Q331 86 367 86 Q413 86 448 102 Q458 106 467.5 111.5 Q477 117 487 122 L487 673 L455 728 L622 728 L622 113 Q606 102 585 88.5 Q564 75 550 67 L490 32 Z " />
<glyph glyph-name="V" unicode="V" horiz-adv-x="671" d="M-19 728 L128 728 L352 194 L554 673 L533 728 L691 728 L385 0 L287 0 L-19 728 Z " />
<glyph glyph-name="W" unicode="W" horiz-adv-x="993" d="M-19 728 L128 728 L352 194 L440 402 L303 728 L450 728 L674 194 L876 673 L855 728 L1013 728 L707 0 L609 0 L496 267 L385 0 L287 0 L-19 728 Z " />
<glyph glyph-name="X" unicode="X" horiz-adv-x="649" d="M244 376 L4 728 L166 728 L341 470 L479 673 L460 728 L644 728 L404 378 L663 0 L502 0 L308 284 L115 0 L-14 0 L244 376 Z " />
<glyph glyph-name="Y" unicode="Y" horiz-adv-x="638" d="M254 290 L-12 728 L148 728 L338 410 L495 673 L476 728 L652 728 L388 294 L388 0 L254 0 L254 290 Z " />
<glyph glyph-name="Z" unicode="Z" horiz-adv-x="589" d="M16 50 L381 628 L23 628 L61 728 L563 728 L563 678 L199 99 L582 99 L544 0 L16 0 L16 50 Z " />
<glyph glyph-name="bracketleft" unicode="&#x5b;" horiz-adv-x="340" d="M71 728 L317 728 L317 649 L189 649 L189 -99 L317 -99 L317 -179 L71 -179 L71 728 Z " />
<glyph glyph-name="backslash" unicode="&#x5c;" horiz-adv-x="435" d="M-1 743 L65 743 L436 -15 L371 -15 L-1 743 Z " />
<glyph glyph-name="bracketright" unicode="&#x5d;" horiz-adv-x="340" d="M22 -99 L151 -99 L151 649 L22 649 L22 728 L268 728 L268 -179 L22 -179 L22 -99 Z " />
<glyph glyph-name="asciicircum" unicode="&#x5e;" horiz-adv-x="556" d="M233 707 L323 707 L522 414 L419 414 L278 609 L137 414 L34 414 L233 707 Z " />
<glyph glyph-name="underscore" unicode="&#x5f;" horiz-adv-x="500" d="M0 -117 L500 -117 L500 -157 L0 -157 L0 -117 Z " />
<glyph glyph-name="grave" unicode="&#x60;" horiz-adv-x="500" d="M119 697 L211 731 L321 569 L260 543 L119 697 Z " />
<glyph glyph-name="a" unicode="a" horiz-adv-x="497" d="M423 -4 Q381 -4 355.5 10.5 Q330 25 319 59 Q307 49 290.5 38.5 Q274 28 261 20 L249 12 Q210 -11 166 -11 Q137 -11 110.5 -2 Q84 7 64.5 24 Q45 41 33.5 65.5 Q22 90 22 121 Q22 166 41 197 Q60 228 94 248 L151 280 Q180 297 219.5 306 Q259 315 305 318 Q305 324 305 330.5 Q305 337 304 345 Q299 383 271.5 399.5 Q244 416 207 416 Q174 416 142 406.5 Q110 397 82 383 L61 436 Q75 445 90 453 Q105 461 119 469 Q151 483 191.5 495.5 Q232 508 277 508 Q309 508 337 499.5 Q365 491 386 474 Q407 457 419.5 430.5 Q432 404 432 368 L432 148 Q432 113 446 98 Q460 83 496 83 L499 83 L465 -4 L423 -4 Z M307 247 Q269 246 234.5 243 Q200 240 171 226 Q159 214 152.5 198.5 Q146 183 146 162 Q146 122 175 99 Q204 76 246 76 Q260 76 278 87 Q296 98 307 114 L307 247 Z " />
<glyph glyph-name="b" unicode="b" horiz-adv-x="573" d="M56 652 L27 703 L183 745 L183 457 Q209 474 236 487.5 Q263 501 296 504 Q320 508 347 505 Q389 501 426.5 481.5 Q464 462 492.5 430.5 Q521 399 538 356.5 Q555 314 555 264 Q555 198 527 146 Q499 94 454 64 Q403 29 355.5 9 Q308 -11 266 -11 Q207 -11 156.5 12.5 Q106 36 56 71 L56 652 Z M183 130 Q203 110 229.5 97 Q256 84 287 82 Q298 80 308.5 80.5 Q319 81 330 82 Q354 86 372 100 Q390 114 402 135 Q414 156 420 181 Q426 206 426 231 Q426 271 412 305 Q398 339 374 363.5 Q350 388 318 402 Q286 416 250 416 Q230 416 214.5 410 Q199 404 183 390 L183 130 Z " />
<glyph glyph-name="c" unicode="c" horiz-adv-x="486" d="M463 49 Q419 22 372 5.5 Q325 -11 270 -11 Q217 -11 171 8 Q125 27 91 60 Q57 93 38 137 Q19 181 19 231 Q19 298 52 353 Q85 408 140 440 L197 473 Q226 490 258.5 499 Q291 508 326 508 Q364 508 395 500 Q426 492 456 478 L416 373 Q384 394 349 405 Q314 416 275 416 Q258 416 241.5 413 Q225 410 213 402 Q181 379 165 343 Q149 307 149 264 Q149 226 163 192.5 Q177 159 202 134 Q227 109 260 94.5 Q293 80 331 80 Q363 80 394 86.5 Q425 93 457 108 L463 49 Z " />
<glyph glyph-name="d" unicode="d" horiz-adv-x="574" d="M393 40 L366 23 L353 16 Q306 -11 250 -11 Q204 -11 162 7 Q120 25 88.5 57 Q57 89 38 133.5 Q19 178 19 231 Q19 303 51.5 358 Q84 413 137 443 L194 476 Q219 491 248 499.5 Q277 508 307 508 Q330 508 352 501.5 Q374 495 391 484 L391 652 L362 703 L517 745 L517 0 L393 0 L393 40 Z M391 362 Q367 388 334.5 402 Q302 416 266 416 Q252 416 237 413.5 Q222 411 211 403 Q181 380 165 344 Q149 308 149 264 Q149 224 163 190 Q177 156 201 131.5 Q225 107 256.5 93.5 Q288 80 323 80 Q341 80 359 85.5 Q377 91 391 104 L391 362 Z " />
<glyph glyph-name="e" unicode="e" horiz-adv-x="545" d="M518 85 Q501 71 475.5 54.5 Q450 38 418.5 23.5 Q387 9 349 -1 Q311 -11 268 -11 Q216 -11 170.5 7 Q125 25 91.5 57 Q58 89 38.5 133.5 Q19 178 19 231 Q19 303 52 358 Q85 413 136 444 L190 477 Q213 491 243.5 499.5 Q274 508 306 508 Q352 508 391.5 489.5 Q431 471 459 438 Q487 405 503 358.5 Q519 312 519 256 L519 227 L153 227 Q157 195 172.5 168 Q188 141 212 121 Q236 101 266.5 89.5 Q297 78 330 78 Q354 78 374 81 Q394 84 412 91 Q430 98 449 109.5 Q468 121 491 138 L518 85 Z M408 309 Q396 357 358 387.5 Q320 418 264 418 Q250 418 235 416 Q220 414 209 406 Q186 390 171.5 364.5 Q157 339 152 309 L408 309 Z " />
<glyph glyph-name="f" unicode="f" horiz-adv-x="346" d="M82 404 L-21 404 L13 496 L82 496 L82 555 Q82 583 88 605 Q94 627 106 644.5 Q118 662 136.5 677 Q155 692 180 706 L206 721 Q219 729 230.5 733.5 Q242 738 255 740.5 Q268 743 285 744 Q302 745 327 745 L339 653 Q311 653 284 652.5 Q257 652 229 647 Q216 635 212 619.5 Q208 604 208 582 L208 496 L335 496 L335 404 L208 404 L208 0 L82 0 L82 404 Z " />
<glyph glyph-name="g" unicode="g" horiz-adv-x="488" d="M359 -162 Q327 -180 291 -191.5 Q255 -203 203 -203 Q153 -203 117.5 -192 Q82 -181 58.5 -163 Q35 -145 24 -122 Q13 -99 13 -75 Q13 -48 21.5 -28.5 Q30 -9 49.5 8 Q69 25 101.5 41 Q134 57 182 78 Q171 92 171 109 Q171 132 201 157 Q198 156 192.5 156.5 Q187 157 180 157 Q119 168 79 203.5 Q39 239 34 299 Q32 315 34 332 Q39 377 63.5 406 Q88 435 126 458 L167 481 Q205 503 247 506 Q262 507 277 506 Q291 505 303.5 502.5 Q316 500 328 496 L475 496 L475 410 L408 410 Q422 396 429.5 379.5 Q437 363 437 345 Q437 303 417 271.5 Q397 240 365 218 Q350 206 335 196.5 Q320 187 308.5 179.5 Q297 172 290 166 Q283 160 283 154 Q283 142 295.5 133 Q308 124 327.5 116 Q347 108 370 98.5 Q393 89 414 76.5 Q435 64 450 45.5 Q465 27 469 1 Q472 -18 471 -34 Q463 -101 400 -138 L359 -162 Z M218 47 Q187 29 165.5 12.5 Q144 -4 139 -24 Q136 -33 138 -44 Q139 -58 146.5 -71 Q154 -84 167.5 -94.5 Q181 -105 202 -112 Q223 -119 252 -120 Q267 -122 282 -120 Q311 -118 325 -107 Q339 -96 344 -75 Q345 -68 345.5 -62.5 Q346 -57 345 -50 Q342 -25 329 -10.5 Q316 4 297.5 14 Q279 24 258 31 Q237 38 218 47 Z M320 310 Q320 354 294 386.5 Q268 419 227 426 Q204 429 183 423 Q172 416 164.5 398.5 Q157 381 154 363 Q153 356 153 350 Q153 344 153 337 Q156 298 181.5 269.5 Q207 241 244 236 Q264 232 289 237 Q301 245 310.5 267 Q320 289 320 310 Z " />
<glyph glyph-name="h" unicode="h" horiz-adv-x="554" d="M56 652 L27 703 L183 745 L183 441 Q194 450 209 459.5 Q224 469 235 475 L247 482 Q296 508 342 508 Q374 508 403 497.5 Q432 487 454.5 466.5 Q477 446 490 416.5 Q503 387 503 350 L503 0 L376 0 L376 310 Q376 362 344 389 Q312 416 267 416 Q254 416 241.5 413.5 Q229 411 217 404 Q208 399 199.5 392 Q191 385 183 376 L183 0 L56 0 L56 652 Z " />
<glyph glyph-name="i" unicode="i" horiz-adv-x="239" d="M103 559 Q76 559 57.5 575.5 Q39 592 39 620 Q39 636 47 649 Q55 662 68 670.5 Q81 679 96 683.5 Q111 688 126 688 Q153 688 171.5 671.5 Q190 655 190 626 Q190 609 181.5 596.5 Q173 584 160.5 576 Q148 568 132.5 563.5 Q117 559 103 559 Z M56 414 L27 465 L183 508 L183 0 L56 0 L56 414 Z " />
<glyph glyph-name="j" unicode="j" horiz-adv-x="248" d="M198 626 Q198 609 190 596.5 Q182 584 169 576 Q156 568 141 563.5 Q126 559 111 559 Q84 559 65.5 575.5 Q47 592 47 620 Q47 636 55 649 Q63 662 76 670.5 Q89 679 104 683.5 Q119 688 134 688 Q162 688 180 671.5 Q198 655 198 626 Z M-47 -110 Q-27 -110 -1.5 -108 Q24 -106 42 -101 Q55 -91 60 -74.5 Q65 -58 65 -42 L65 414 L35 465 L191 508 L191 -6 Q191 -51 176.5 -86 Q162 -121 124 -143 Q101 -156 83.5 -166.5 Q66 -177 49 -184.5 Q32 -192 12.5 -196 Q-7 -200 -32 -200 L-47 -110 Z " />
<glyph glyph-name="k" unicode="k" horiz-adv-x="509" d="M56 652 L27 703 L183 745 L183 269 L206 295 L340 447 L321 496 L497 496 L314 279 Q375 216 428 147 Q481 78 521 0 L362 0 Q331 57 293 110 Q255 163 211 212 L183 193 L183 0 L56 0 L56 652 Z " />
<glyph glyph-name="l" unicode="l" horiz-adv-x="239" d="M56 652 L27 703 L183 745 L183 0 L56 0 L56 652 Z " />
<glyph glyph-name="m" unicode="m" horiz-adv-x="784" d="M56 414 L27 465 L180 508 L180 444 Q197 461 224 479.5 Q251 498 282 499 Q310 508 337 505 Q369 501 396 483.5 Q423 466 437 437 Q468 465 507 486.5 Q546 508 591 508 Q619 508 644.5 498.5 Q670 489 689.5 470.5 Q709 452 721 426 Q733 400 733 367 L733 0 L607 0 L607 327 Q607 369 581 392.5 Q555 416 518 416 Q498 416 483 406 Q468 396 457 379 L457 0 L332 0 L332 327 Q332 369 306 392.5 Q280 416 242 416 Q222 416 207 406 Q192 396 181 379 L181 0 L56 0 L56 414 Z " />
<glyph glyph-name="n" unicode="n" horiz-adv-x="554" d="M56 414 L27 467 L180 508 L180 438 Q191 447 204.5 456 Q218 465 229 471 L241 479 Q266 493 291.5 500.5 Q317 508 342 508 Q374 508 403 497.5 Q432 487 454.5 466.5 Q477 446 490 416.5 Q503 387 503 350 L503 0 L376 0 L376 310 Q376 362 344 389 Q312 416 267 416 Q241 416 221.5 405.5 Q202 395 183 376 L183 0 L56 0 L56 414 Z " />
<glyph glyph-name="o" unicode="o" horiz-adv-x="585" d="M390 22 Q362 6 330 -2.5 Q298 -11 264 -11 Q215 -11 170.5 6.5 Q126 24 92.5 55.5 Q59 87 39 131.5 Q19 176 19 231 Q19 302 51.5 356 Q84 410 138 441 L194 474 Q253 508 321 508 Q370 508 414 490.5 Q458 473 492 441 Q526 409 546 364 Q566 319 566 264 Q566 192 533 138.5 Q500 85 448 54 L390 22 Z M374 90 Q403 116 419.5 152.5 Q436 189 436 231 Q436 269 423 303 Q410 337 387 362 Q364 387 332.5 401.5 Q301 416 264 416 Q249 416 235.5 414 Q222 412 211 404 Q180 381 164.5 344 Q149 307 149 264 Q149 226 162 192.5 Q175 159 197.5 134 Q220 109 251.5 94.5 Q283 80 321 80 Q335 80 348.5 82.5 Q362 85 374 90 Z " />
<glyph glyph-name="p" unicode="p" horiz-adv-x="573" d="M56 414 L27 465 L180 508 L180 455 Q203 473 234 486.5 Q265 500 295 504 Q307 506 319.5 506.5 Q332 507 344 506 Q387 502 425 482.5 Q463 463 492 431.5 Q521 400 538 357.5 Q555 315 555 264 Q555 192 522 136.5 Q489 81 436 52 L380 19 Q327 -11 266 -11 Q221 -11 183 13 L183 -195 L56 -195 L56 414 Z M183 132 Q225 88 287 82 Q308 80 330 82 Q354 86 372 100 Q390 114 402 135 Q414 156 420 181 Q426 206 426 231 Q426 271 412 305 Q398 339 374 363.5 Q350 388 318 402 Q286 416 250 416 Q230 416 214.5 410 Q199 404 183 390 L183 132 Z " />
<glyph glyph-name="q" unicode="q" horiz-adv-x="574" d="M391 37 Q368 20 337.5 7.5 Q307 -5 277 -8 Q265 -10 253 -10.5 Q241 -11 229 -9 Q186 -6 148 13 Q110 32 81.5 63.5 Q53 95 36 137.5 Q19 180 19 231 Q19 303 51.5 358 Q84 413 137 443 L194 476 Q219 491 248 499.5 Q277 508 307 508 Q342 508 374 496 Q406 484 430 467 L436 486 L517 508 L517 -195 L391 -195 L391 37 Z M391 362 Q371 384 344 397.5 Q317 411 286 413 Q275 415 264.5 415.5 Q254 416 243 414 Q235 412 226.5 410.5 Q218 409 212 404 Q182 381 165.5 344.5 Q149 308 149 264 Q149 228 160.5 197 Q172 166 192.5 142 Q213 118 240 103 Q267 88 299 84 Q325 81 347.5 86.5 Q370 92 391 104 L391 362 Z " />
<glyph glyph-name="r" unicode="r" horiz-adv-x="370" d="M56 414 L27 465 L180 508 L180 444 Q191 454 206 464.5 Q221 475 233 483 L246 490 Q263 500 281.5 504 Q300 508 321 508 Q352 508 372 495 L343 389 L303 401 Q289 406 274 408.5 Q259 411 245 411 Q229 411 211 403 Q203 397 195.5 389 Q188 381 183 371 L183 0 L56 0 L56 414 Z " />
<glyph glyph-name="s" unicode="s" horiz-adv-x="405" d="M255 10 Q217 -11 172 -11 Q93 -11 28 34 L68 137 Q98 116 137 97 Q176 78 214 78 Q233 78 244.5 91 Q256 104 256 122 Q256 146 246.5 161 Q237 176 221.5 185.5 Q206 195 185.5 201.5 Q165 208 144 215 Q123 222 103 231 Q83 240 67 254 Q51 268 41.5 289.5 Q32 311 32 342 Q32 377 49.5 407 Q67 437 98 454 L139 478 Q160 489 183 498.5 Q206 508 232 508 Q269 508 303 496.5 Q337 485 366 465 L328 367 Q304 385 269 401.5 Q234 418 201 418 Q190 418 178 413 Q169 408 163.5 397 Q158 386 158 375 Q159 355 168.5 342 Q178 329 192.5 320 Q207 311 225 305 Q243 299 263 293 Q286 286 307.5 276.5 Q329 267 345.5 252 Q362 237 372 215 Q382 193 382 161 Q382 113 357 82.5 Q332 52 297 33 L255 10 Z " />
<glyph glyph-name="t" unicode="t" horiz-adv-x="346" d="M262 -4 Q160 -4 119 37 Q78 78 78 156 L78 404 L-25 404 L9 496 L78 496 L78 616 L204 668 L204 496 L330 496 L330 404 L204 404 L204 178 Q204 139 231 112.5 Q258 86 315 86 L333 86 L299 -4 L262 -4 Z " />
<glyph glyph-name="u" unicode="u" horiz-adv-x="554" d="M374 56 Q363 48 350 39 Q337 30 326 24 L314 16 Q263 -11 213 -11 Q181 -11 152 -0.5 Q123 10 100.5 30 Q78 50 65 79 Q52 108 52 146 L52 414 L23 465 L179 508 L179 185 Q179 134 211 107 Q243 80 288 80 Q300 80 313 82.5 Q326 85 339 91 Q347 96 355 103 Q363 110 371 119 L371 414 L342 465 L497 508 L497 0 L374 0 L374 56 Z " />
<glyph glyph-name="v" unicode="v" horiz-adv-x="494" d="M-7 496 L129 496 L263 176 L376 447 L357 496 L501 496 L293 0 L201 0 L-7 496 Z " />
<glyph glyph-name="w" unicode="w" horiz-adv-x="741" d="M-7 496 L129 496 L263 176 L318 310 L240 496 L377 496 L510 176 L623 447 L605 496 L748 496 L540 0 L449 0 L371 185 L293 0 L201 0 L-7 496 Z " />
<glyph glyph-name="x" unicode="x" horiz-adv-x="506" d="M176 255 L3 496 L156 496 L268 342 L346 447 L329 496 L500 496 L327 257 L513 0 L359 0 L235 172 L111 0 L-8 0 L176 255 Z " />
<glyph glyph-name="y" unicode="y" horiz-adv-x="498" d="M197 15 L-7 496 L130 496 L265 176 L380 447 L361 496 L505 496 L213 -195 L102 -195 L197 15 Z " />
<glyph glyph-name="z" unicode="z" horiz-adv-x="458" d="M18 46 L263 404 L22 404 L57 496 L431 496 L431 449 L185 92 L449 92 L414 0 L18 0 L18 46 Z " />
<glyph glyph-name="braceleft" unicode="&#x7b;" horiz-adv-x="434" d="M346 -179 Q307 -179 272.5 -168.5 Q238 -158 212 -139 Q186 -120 171 -93 Q156 -66 156 -32 L156 116 Q156 141 154 158.5 Q152 176 145.5 189.5 Q139 203 125 213.5 Q111 224 87 235 L87 314 Q111 325 125 335.5 Q139 346 145.5 359.5 Q152 373 154 390.5 Q156 408 156 433 L156 581 Q156 614 171 641.5 Q186 669 212 688 Q238 707 272.5 717.5 Q307 728 346 728 L346 648 Q323 648 309 641 Q295 634 287 622 Q279 610 276 594 Q273 578 273 560 L273 429 Q273 372 249.5 337 Q226 302 180 276 L180 273 Q226 247 249.5 212 Q273 177 273 119 L273 -11 Q273 -29 276 -45 Q279 -61 287 -73 Q295 -85 309 -92 Q323 -99 346 -99 L346 -179 Z " />
<glyph glyph-name="bar" unicode="&#x7c;" horiz-adv-x="500" d="M196 800 L303 800 L303 -200 L196 -200 L196 800 Z " />
<glyph glyph-name="braceright" unicode="&#x7d;" horiz-adv-x="434" d="M87 -99 Q110 -99 124 -92 Q138 -85 146 -73 Q154 -61 157 -45 Q160 -29 160 -11 L160 119 Q160 177 183.5 212 Q207 247 253 273 L253 276 Q207 302 183.5 337 Q160 372 160 429 L160 560 Q160 578 157 594 Q154 610 146 622 Q138 634 124 641 Q110 648 87 648 L87 728 Q126 728 160.5 717.5 Q195 707 221.5 688 Q248 669 263 641.5 Q278 614 278 581 L278 433 Q278 408 279.5 390.5 Q281 373 288 359.5 Q295 346 308.5 335.5 Q322 325 346 314 L346 235 Q322 224 308.5 213.5 Q295 203 288 189.5 Q281 176 279.5 158.5 Q278 141 278 116 L278 -32 Q278 -66 263 -93 Q248 -120 221.5 -139 Q195 -158 160.5 -168.5 Q126 -179 87 -179 L87 -99 Z " />
<glyph glyph-name="asciitilde" unicode="&#x7e;" horiz-adv-x="556" d="M17 169 Q20 195 30 224 Q40 253 57 277 Q74 301 98 317 Q122 333 152 333 Q182 333 213.5 322 Q245 311 277 298.5 Q309 286 341.5 275 Q374 264 406 264 Q437 264 454 284.5 Q471 305 477 331 L539 331 Q535 305 525.5 276 Q516 247 499.5 223 Q483 199 459 183.5 Q435 168 404 168 Q376 168 344 179 Q312 190 278.5 202.5 Q245 215 212 226 Q179 237 149 237 Q120 237 102 216.5 Q84 196 78 169 L17 169 Z " />
<glyph glyph-name="uni00A0" unicode="&#xa0;" d="" />
<glyph glyph-name="exclamdown" unicode="&#xa1;" horiz-adv-x="305" d="M93 282 L211 282 L221 -227 L82 -227 L93 282 Z M230 443 Q230 405 204 385.5 Q178 366 148 366 Q117 366 95.5 384 Q74 402 74 432 Q74 451 81 465 Q88 479 100 489 Q112 499 127 504 Q142 509 157 509 Q188 509 209 491.5 Q230 474 230 443 Z " />
<glyph glyph-name="cent" unicode="&#xa2;" horiz-adv-x="576" d="M296 224 Q244 225 199.5 244.5 Q155 264 122 296.5 Q89 329 70.5 372.5 Q52 416 52 466 Q52 533 85 588 Q118 643 173 675 L231 708 Q245 716 261.5 723 Q278 730 296 735 L296 807 L370 807 L370 743 Q403 741 432 733.5 Q461 726 489 713 L449 608 Q410 633 370 643 L370 315 Q429 315 491 343 L497 284 Q467 265 436 251.5 Q405 238 370 230 L370 159 L296 159 L296 224 Z M182 499 Q182 441 213.5 395 Q245 349 296 328 L296 651 Q282 650 269.5 647 Q257 644 246 637 Q214 615 198 578.5 Q182 542 182 499 Z " />
<glyph glyph-name="sterling" unicode="&#xa3;" horiz-adv-x="576" d="M28 50 L54 65 Q66 73 70 74.5 Q74 76 81 82 Q143 130 143 214 Q143 234 139 252 Q135 270 127 289 L39 289 L39 360 L92 360 Q74 396 58 432 Q42 468 42 506 Q42 562 68.5 607 Q95 652 142 679 L202 714 Q225 728 252.5 735.5 Q280 743 312 743 Q376 743 427 723 Q478 703 523 672 L464 565 Q420 600 370.5 624.5 Q321 649 261 650 Q251 650 241 648.5 Q231 647 222 642 Q204 628 190.5 600 Q177 572 177 542 Q177 519 183.5 496.5 Q190 474 200.5 451.5 Q211 429 223 406 Q235 383 246 360 L440 360 L440 289 L265 289 Q268 274 270 259.5 Q272 245 270 231 Q265 191 247 159 Q229 127 202 104 Q223 110 253 108 Q271 108 287.5 104.5 Q304 101 319 96.5 Q334 92 349.5 88.5 Q365 85 382 85 Q422 85 454 107.5 Q486 130 516 159 L556 96 Q533 75 506.5 55 Q480 35 444 14 Q421 2 395.5 -6 Q370 -14 339 -14 Q316 -14 294 -9.5 Q272 -5 249.5 0.5 Q227 6 204.5 10.5 Q182 15 159 15 Q146 15 135.5 14 Q125 13 112.5 10.5 Q100 8 85 3.5 Q70 -1 48 -8 L28 50 Z " />
<glyph glyph-name="currency" unicode="&#xa4;" horiz-adv-x="576" d="M65 172 L118 226 Q101 250 91 280 Q81 310 81 342 Q81 375 91 405 Q101 435 118 459 L65 512 L118 566 L171 512 Q197 529 226 539 Q255 549 288 549 Q321 549 350.5 539 Q380 529 405 512 L460 566 L511 512 L458 459 Q475 434 485 404.5 Q495 375 495 342 Q495 310 485 280 Q475 250 458 226 L511 173 L460 119 L405 173 Q380 156 350.5 146 Q321 136 288 136 Q255 136 226 145.5 Q197 155 171 172 L118 119 L65 172 Z M421 342 Q421 370 410.5 394 Q400 418 382 436 Q364 454 340 464.5 Q316 475 288 475 Q261 475 236.5 464.5 Q212 454 194 436 Q176 418 165.5 394 Q155 370 155 342 Q155 315 165.5 291 Q176 267 194 249 Q212 231 236.5 220.5 Q261 210 288 210 Q316 210 340 220.5 Q364 231 382 249 Q400 267 410.5 291 Q421 315 421 342 Z " />
<glyph glyph-name="yen" unicode="&#xa5;" horiz-adv-x="576" d="M222 200 L42 200 L42 295 L222 295 L173 385 L42 385 L42 479 L124 479 L-12 728 L140 728 L306 426 L439 673 L419 728 L588 728 L454 479 L532 479 L532 385 L405 385 L357 295 L532 295 L532 200 L357 200 L357 0 L222 0 L222 200 Z " />
<glyph glyph-name="brokenbar" unicode="&#xa6;" horiz-adv-x="500" d="M196 743 L303 743 L303 409 L196 409 L196 743 Z M196 242 L303 242 L303 -91 L196 -91 L196 242 Z " />
<glyph glyph-name="section" unicode="&#xa7;" horiz-adv-x="576" d="M359 -98 Q335 -111 311 -120.5 Q287 -130 255 -130 Q207 -130 166 -114.5 Q125 -99 90 -74 L142 29 Q175 -1 218 -20 Q261 -39 306 -39 Q318 -39 327.5 -32.5 Q337 -26 344 -15.5 Q351 -5 355 7.5 Q359 20 359 32 Q359 56 351 72 Q343 88 328.5 99.5 Q314 111 294 118.5 Q274 126 251 133 Q213 145 177 158 Q141 171 113 189.5 Q85 208 68 235 Q51 262 51 301 Q51 324 59 344.5 Q67 365 80 383 Q93 401 109 416 Q125 431 141 443 Q117 463 105 490 Q93 517 93 546 Q93 589 113 626.5 Q133 664 173 687 L216 712 Q241 726 265 734.5 Q289 743 321 743 Q369 743 409.5 728 Q450 713 485 687 L435 586 Q421 598 400.5 610 Q380 622 357.5 631.5 Q335 641 311.5 647 Q288 653 269 653 Q258 653 248.5 646.5 Q239 640 231.5 630 Q224 620 220 607.5 Q216 595 216 582 Q216 557 226.5 539.5 Q237 522 254.5 510 Q272 498 295 489 Q318 480 343 472 Q376 461 408.5 449.5 Q441 438 467 420.5 Q493 403 509.5 377.5 Q526 352 526 313 Q526 267 498 230.5 Q470 194 434 171 Q455 155 469 130 Q483 105 483 68 Q483 28 462.5 -10.5 Q442 -49 402 -74 L359 -98 Z M402 280 Q402 311 382.5 329.5 Q363 348 334 359 Q305 370 271 378 Q237 386 208 398 Q194 387 184 370 Q174 353 174 334 Q174 303 194 285 Q214 267 243 255 Q272 243 306 234.5 Q340 226 367 214 Q380 225 391 241 Q402 257 402 280 Z " />
<glyph glyph-name="dieresis" unicode="&#xa8;" horiz-adv-x="500" d="M408 619 Q408 595 390.5 578 Q373 561 349 561 Q325 561 308 578 Q291 595 291 619 Q291 642 308.5 660 Q326 678 349 678 Q373 678 390.5 660.5 Q408 643 408 619 Z M209 619 Q209 595 192 578 Q175 561 151 561 Q127 561 109.5 578 Q92 595 92 619 Q92 642 110 660 Q128 678 151 678 Q174 678 191.5 660.5 Q209 643 209 619 Z " />
<glyph glyph-name="copyright" unicode="&#xa9;" horiz-adv-x="823" d="M593 36 Q548 11 503 -1.5 Q458 -14 405 -14 Q327 -14 258.5 15 Q190 44 139 95 Q88 146 58.5 214 Q29 282 29 360 Q29 412 42.5 460 Q56 508 80.5 550 Q105 592 139.5 626.5 Q174 661 216 685 L232 694 Q316 743 419 743 Q497 743 565 713.5 Q633 684 684 633.5 Q735 583 764 515 Q793 447 793 369 Q793 317 780 268.5 Q767 220 742.5 178 Q718 136 684 102 Q650 68 608 44 L593 36 Z M731 360 Q731 427 705.5 487 Q680 547 635.5 591 Q591 635 531.5 661 Q472 687 405 687 Q319 687 248 647 Q177 605 134.5 532.5 Q92 460 92 369 Q92 301 117.5 241.5 Q143 182 187.5 137.5 Q232 93 291.5 67 Q351 41 419 41 Q507 41 575 82 Q647 123 689 196 Q731 269 731 360 Z M595 206 Q581 197 569 191 Q557 185 542 178 Q492 156 426 156 Q380 156 340 171.5 Q300 187 270 213.5 Q240 240 223 275.5 Q206 311 206 352 Q206 406 235 451 Q264 496 312 522 L358 547 Q381 560 410 566 Q439 572 471 572 Q503 572 529.5 567.5 Q556 563 582 552 L552 467 Q526 483 495 493 Q464 503 426 503 Q412 503 397 501 Q382 499 371 492 Q340 474 324.5 442.5 Q309 411 309 376 Q309 345 322 317.5 Q335 290 357 270 Q379 250 409 238 Q439 226 474 226 Q509 226 533.5 233.5 Q558 241 587 255 L595 206 Z " />
<glyph glyph-name="ordfeminine" unicode="&#xaa;" horiz-adv-x="330" d="M271 424 Q245 424 227.5 432 Q210 440 202 459 Q194 454 184.5 448 Q175 442 167 437 L159 433 Q133 419 107 419 Q69 419 42.5 440 Q16 461 16 499 Q16 525 28 544 Q40 563 62 574 L105 599 Q122 608 144.5 613 Q167 618 193 621 L193 632 Q190 651 173 659 Q156 667 136 667 Q115 667 94.5 661 Q74 655 56 646 L40 685 Q51 692 62 698 Q73 704 84 709 Q104 719 131.5 726.5 Q159 734 188 734 Q229 734 258.5 713.5 Q288 693 288 648 L288 524 Q288 504 296.5 496 Q305 488 327 488 L328 488 L303 424 L271 424 Z M194 571 Q174 572 155 570 Q136 568 119 563 Q106 550 106 531 Q107 508 123.5 494 Q140 480 163 480 Q170 480 179 485.5 Q188 491 194 499 L194 571 Z M16 365 L317 365 L317 304 L16 304 L16 365 Z " />
<glyph glyph-name="guillemotleft" unicode="&#xab;" horiz-adv-x="416" d="M190 231 L348 450 L393 429 L305 264 L401 81 L344 48 L190 231 Z M16 231 L173 450 L218 429 L131 264 L226 81 L169 48 L16 231 Z " />
<glyph glyph-name="logicalnot" unicode="&#xac;" horiz-adv-x="556" d="M432 250 L29 250 L29 341 L527 341 L527 83 L432 83 L432 250 Z " />
<glyph glyph-name="uni00AD" unicode="&#xad;" horiz-adv-x="355" d="M30 303 L326 303 L326 209 L30 209 L30 303 Z " />
<glyph glyph-name="registered" unicode="&#xae;" horiz-adv-x="823" d="M593 36 Q548 11 503 -1.5 Q458 -14 405 -14 Q327 -14 258.5 15 Q190 44 139 95 Q88 146 58.5 214 Q29 282 29 360 Q29 412 42.5 460 Q56 508 80.5 550 Q105 592 139.5 626.5 Q174 661 216 685 L232 694 Q316 743 419 743 Q497 743 565 713.5 Q633 684 684 633.5 Q735 583 764 515 Q793 447 793 369 Q793 317 780 268.5 Q767 220 742.5 178 Q718 136 684 102 Q650 68 608 44 L593 36 Z M731 360 Q731 427 705.5 487 Q680 547 635.5 591 Q591 635 531.5 661 Q472 687 405 687 Q319 687 248 647 Q177 605 134.5 532.5 Q92 460 92 369 Q92 301 117.5 241.5 Q143 182 187.5 137.5 Q232 93 291.5 67 Q351 41 419 41 Q507 41 575 82 Q647 123 689 196 Q731 269 731 360 Z M265 526 L241 564 L441 564 Q469 564 493 555 Q517 546 535 531 Q553 516 563 495 Q573 474 573 450 Q573 420 557.5 393.5 Q542 367 516 352 Q506 346 498.5 344 Q491 342 483 340 L612 164 L497 164 L389 318 L364 318 L364 164 L265 164 L265 526 Z M429 381 Q439 380 450 385 Q460 392 465 402.5 Q470 413 471 425 Q471 454 450.5 475 Q430 496 399 496 L364 496 L364 381 L429 381 Z " />
<glyph glyph-name="overscore" unicode="&#xaf;" horiz-adv-x="500" d="M98 642 L402 642 L402 573 L98 573 L98 642 Z " />
<glyph glyph-name="degree" unicode="&#xb0;" horiz-adv-x="430" d="M264 419 Q247 409 227.5 404.5 Q208 400 188 400 Q157 400 129.5 411.5 Q102 423 81.5 443.5 Q61 464 49 491 Q37 518 37 550 Q37 592 57 626.5 Q77 661 112 681 L168 713 Q185 723 204.5 728.5 Q224 734 245 734 Q276 734 303.5 722.5 Q331 711 351.5 690.5 Q372 670 384 642.5 Q396 615 396 584 Q396 541 376 506.5 Q356 472 321 452 L264 419 Z M240 479 Q262 479 277 501.5 Q292 524 292 550 Q292 568 285 586.5 Q278 605 265 620 Q252 635 233.5 644.5 Q215 654 192 654 Q167 654 153.5 631 Q140 608 140 584 Q140 566 147 547 Q154 528 167 513 Q180 498 198.5 488.5 Q217 479 240 479 Z " />
<glyph glyph-name="plusminus" unicode="&#xb1;" horiz-adv-x="556" d="M231 275 L29 275 L29 367 L231 367 L231 522 L325 522 L325 367 L527 367 L527 275 L325 275 L325 123 L231 123 L231 275 Z M29 71 L527 71 L527 -22 L29 -22 L29 71 Z " />
<glyph glyph-name="uni00B2" unicode="&#xb2;" horiz-adv-x="376" d="M31 486 L173 617 Q202 643 219.5 668 Q237 693 237 725 Q237 754 213 772 Q189 790 157 790 Q126 790 103 779 Q80 768 54 752 L28 794 Q43 805 59.5 814.5 Q76 824 96 833 Q120 845 146 851 Q172 857 197 857 Q227 857 253.5 849.5 Q280 842 299.5 828 Q319 814 330 792.5 Q341 771 341 744 Q341 702 321.5 670 Q302 638 264 607 L156 517 L355 519 L326 448 L31 448 L31 486 Z " />
<glyph glyph-name="uni00B3" unicode="&#xb3;" horiz-adv-x="376" d="M238 458 Q221 450 200.5 445 Q180 440 156 440 Q120 440 91.5 448.5 Q63 457 33 476 L68 556 Q102 528 133 515.5 Q164 503 195 503 Q209 503 220 509 Q231 517 235.5 529 Q240 541 240 554 Q240 583 216.5 603 Q193 623 158 623 L121 623 Q128 646 129 650.5 Q130 655 130.5 655.5 Q131 656 132 660 Q133 664 140 687 L191 687 Q206 687 216.5 700 Q227 713 227 726 Q227 756 205 773 Q183 790 151 790 Q125 790 103.5 781.5 Q82 773 60 761 L41 806 Q55 814 70.5 822 Q86 830 105 838 Q131 848 153 852.5 Q175 857 202 857 Q257 857 292 827.5 Q327 798 327 753 Q327 724 311.5 704 Q296 684 270 669 Q302 656 322.5 630 Q343 604 343 572 Q343 543 327 519 Q311 495 283 481 L238 458 Z " />
<glyph glyph-name="acute" unicode="&#xb4;" horiz-adv-x="500" d="M179 569 L289 731 L381 697 L240 543 L179 569 Z " />
<glyph glyph-name="mu" unicode="&#xb5;" horiz-adv-x="554" d="M55 414 L25 465 L181 508 L181 185 Q181 134 212.5 107 Q244 80 290 80 Q302 80 314.5 82.5 Q327 85 340 91 Q359 102 373 119 L373 414 L344 465 L500 508 L500 0 L376 0 L376 56 Q365 48 350.5 38 Q336 28 316 16 Q295 5 272 -2 Q249 -9 234 -9 Q219 -9 205.5 -5 Q192 -1 181 6 L181 -195 L55 -195 L55 414 Z " />
<glyph glyph-name="paragraph" unicode="&#xb6;" horiz-adv-x="587" d="M195 310 Q156 314 123 330.5 Q90 347 66 373 Q42 399 28.5 433 Q15 467 15 506 Q15 559 40 606.5 Q65 654 108 678 L166 708 Q185 719 214 723.5 Q243 728 267 728 L574 728 L549 644 L504 644 L504 -109 L397 -109 L397 644 L302 644 L302 -109 L195 -109 L195 310 Z M195 636 Q181 634 168.5 629 Q156 624 147 617 Q129 603 119.5 580.5 Q110 558 110 531 Q110 487 131.5 454.5 Q153 422 195 413 L195 636 Z " />
<glyph glyph-name="middot" unicode="&#xb7;" horiz-adv-x="288" d="M222 270 Q222 232 196.5 213 Q171 194 141 194 Q109 194 88 211.5 Q67 229 67 260 Q67 279 74 293 Q81 307 93 316.5 Q105 326 120 331 Q135 336 150 336 Q181 336 201.5 319 Q222 302 222 270 Z " />
<glyph glyph-name="cedilla" unicode="&#xb8;" horiz-adv-x="500" d="M141 -141 Q161 -147 182.5 -151.5 Q204 -156 226 -157 Q247 -157 266 -149 Q285 -141 285 -115 Q285 -101 278 -93.5 Q271 -86 260.5 -82.5 Q250 -79 238 -78.5 Q226 -78 216 -77 L223 1 L264 1 L260 -37 Q281 -39 299.5 -44.5 Q318 -50 332 -60 Q346 -70 354 -85 Q362 -100 362 -119 Q362 -144 353 -161 Q344 -178 328.5 -189 Q313 -200 292.5 -205 Q272 -210 250 -210 Q221 -210 192.5 -202 Q164 -194 138 -183 L141 -141 Z " />
<glyph glyph-name="uni00B9" unicode="&#xb9;" horiz-adv-x="376" d="M174 747 L74 693 L38 750 L223 849 L274 849 L274 448 L174 448 L174 747 Z " />
<glyph glyph-name="ordmasculine" unicode="&#xba;" horiz-adv-x="382" d="M249 439 Q212 419 169 419 Q139 419 111 429 Q83 439 62 458 Q41 477 28 504 Q15 531 15 564 Q15 607 36 639 Q57 671 89 690 L132 714 Q169 734 212 734 Q242 734 270 723.5 Q298 713 319.5 694.5 Q341 676 353.5 649 Q366 622 366 589 Q366 545 345.5 513 Q325 481 293 463 L249 439 Z M212 486 Q234 486 250.5 509 Q267 532 267 564 Q267 585 260 603.5 Q253 622 240 636.5 Q227 651 209 659 Q191 667 169 667 Q157 667 147 660 Q137 653 129.5 642 Q122 631 118 617 Q114 603 114 589 Q114 568 121 549.5 Q128 531 141 516.5 Q154 502 172 494 Q190 486 212 486 Z M35 365 L346 365 L346 304 L35 304 L35 365 Z " />
<glyph glyph-name="guillemotright" unicode="&#xbb;" horiz-adv-x="416" d="M198 66 L286 231 L190 415 L247 447 L401 265 L243 45 L198 66 Z M24 66 L112 231 L16 415 L73 447 L226 265 L68 45 L24 66 Z " />
<glyph glyph-name="onequarter" unicode="&#xbc;" horiz-adv-x="825" d="M174 633 L74 579 L38 636 L223 735 L274 735 L274 334 L174 334 L174 633 Z M583 760 L657 760 L242 -32 L168 -32 L583 760 Z M670 82 L459 82 L459 119 L672 401 L769 401 L567 149 L670 149 L670 221 L769 235 L769 149 L813 149 L813 82 L769 82 L769 0 L670 0 L670 82 Z " />
<glyph glyph-name="onehalf" unicode="&#xbd;" horiz-adv-x="825" d="M174 633 L74 579 L38 636 L223 735 L274 735 L274 334 L174 334 L174 633 Z M583 760 L657 760 L242 -32 L168 -32 L583 760 Z M480 38 L622 169 Q651 195 668.5 220 Q686 245 686 277 Q686 306 662 324 Q638 342 606 342 Q575 342 552 331 Q529 320 503 304 L477 346 Q492 357 508.5 366.5 Q525 376 545 385 Q569 397 595 403 Q621 409 646 409 Q676 409 702.5 401.5 Q729 394 748.5 380 Q768 366 779 344.5 Q790 323 790 296 Q790 254 770.5 222 Q751 190 713 159 L605 69 L804 71 L775 0 L480 0 L480 38 Z " />
<glyph glyph-name="threequarters" unicode="&#xbe;" horiz-adv-x="825" d="M238 344 Q221 336 200.5 331 Q180 326 156 326 Q120 326 91.5 334.5 Q63 343 33 362 L68 442 Q102 414 133 401.5 Q164 389 195 389 Q209 389 220 395 Q231 403 235.5 415 Q240 427 240 440 Q240 469 216.5 489 Q193 509 158 509 L121 509 L140 573 L191 573 Q206 573 216.5 586 Q227 599 227 612 Q227 642 205 659 Q183 676 151 676 Q125 676 103.5 667.5 Q82 659 60 647 L41 692 Q55 700 70.5 708 Q86 716 105 724 Q131 734 153 738.5 Q175 743 202 743 Q257 743 292 713.5 Q327 684 327 639 Q327 610 311.5 590 Q296 570 270 555 Q302 542 322.5 516 Q343 490 343 458 Q343 429 327 405 Q311 381 283 367 L238 344 Z M583 760 L657 760 L242 -32 L168 -32 L583 760 Z M670 82 L459 82 L459 119 L672 401 L769 401 L567 149 L670 149 L670 221 L769 235 L769 149 L813 149 L813 82 L769 82 L769 0 L670 0 L670 82 Z " />
<glyph glyph-name="questiondown" unicode="&#xbf;" horiz-adv-x="506" d="M476 -148 Q459 -161 440.5 -172.5 Q422 -184 399 -198 Q362 -219 320 -230.5 Q278 -242 233 -242 Q191 -242 154 -228.5 Q117 -215 89.5 -190.5 Q62 -166 46.5 -132 Q31 -98 31 -58 Q31 -24 41.5 1.5 Q52 27 68.5 47.5 Q85 68 105.5 84 Q126 100 146 115 Q166 131 180.5 151 Q195 171 195 198 L195 282 L318 282 L318 221 Q318 185 302 161 Q286 137 263 117 Q247 104 230.5 91.5 Q214 79 200 64 Q186 49 177 29.5 Q168 10 168 -18 Q168 -44 178 -66.5 Q188 -89 205 -106 Q222 -123 245 -133 Q268 -143 295 -143 Q352 -143 402 -115 Q418 -106 431 -97.5 Q444 -89 454 -81 L476 -148 Z M179 432 Q179 470 204.5 489.5 Q230 509 261 509 Q292 509 313.5 491 Q335 473 335 443 Q335 424 327.5 409.5 Q320 395 308.5 385.5 Q297 376 282 371 Q267 366 252 366 Q221 366 200 383 Q179 400 179 432 Z " />
<glyph glyph-name="Agrave" unicode="&#xc0;" horiz-adv-x="713" d="M284 673 L259 728 L405 728 L727 0 L581 0 L492 201 L188 201 L123 55 L144 0 L-15 0 L284 673 Z M450 298 L339 548 L230 298 L450 298 Z M225 924 L317 958 L427 795 L366 770 L225 924 Z " />
<glyph glyph-name="Aacute" unicode="&#xc1;" horiz-adv-x="713" d="M284 673 L259 728 L405 728 L727 0 L581 0 L492 201 L188 201 L123 55 L144 0 L-15 0 L284 673 Z M450 298 L339 548 L230 298 L450 298 Z M285 795 L395 958 L487 924 L346 770 L285 795 Z " />
<glyph glyph-name="Acircumflex" unicode="&#xc2;" horiz-adv-x="713" d="M284 673 L259 728 L405 728 L727 0 L581 0 L492 201 L188 201 L123 55 L144 0 L-15 0 L284 673 Z M450 298 L339 548 L230 298 L450 298 Z M199 813 L337 948 L376 948 L513 812 L467 773 L357 862 L244 774 L199 813 Z " />
<glyph glyph-name="Atilde" unicode="&#xc3;" horiz-adv-x="713" d="M284 673 L259 728 L405 728 L727 0 L581 0 L492 201 L188 201 L123 55 L144 0 L-15 0 L284 673 Z M450 298 L339 548 L230 298 L450 298 Z M193 810 Q206 845 231.5 871.5 Q257 898 297 898 Q313 898 327.5 892.5 Q342 887 356.5 881 Q371 875 386 869.5 Q401 864 416 864 Q435 864 446.5 877 Q458 890 463 905 L518 884 Q513 867 503.5 850.5 Q494 834 481.5 821 Q469 808 452.5 800 Q436 792 416 792 Q400 792 384.5 797.5 Q369 803 354 809.5 Q339 816 323.5 821.5 Q308 827 293 827 Q275 827 264 814.5 Q253 802 247 787 L193 810 Z " />
<glyph glyph-name="Adieresis" unicode="&#xc4;" horiz-adv-x="713" d="M284 673 L259 728 L405 728 L727 0 L581 0 L492 201 L188 201 L123 55 L144 0 L-15 0 L284 673 Z M450 298 L339 548 L230 298 L450 298 Z M514 846 Q514 821 496.5 804.5 Q479 788 455 788 Q431 788 414 804.5 Q397 821 397 846 Q397 869 414.5 886.5 Q432 904 455 904 Q479 904 496.5 886.5 Q514 869 514 846 Z M315 846 Q315 821 298 804.5 Q281 788 257 788 Q233 788 215.5 805 Q198 822 198 846 Q198 869 216 886.5 Q234 904 257 904 Q280 904 297.5 886.5 Q315 869 315 846 Z " />
<glyph glyph-name="Aring" unicode="&#xc5;" horiz-adv-x="713" d="M284 673 L259 728 L405 728 L727 0 L581 0 L492 201 L188 201 L123 55 L144 0 L-15 0 L284 673 Z M450 298 L339 548 L230 298 L450 298 Z M479 870 Q479 844 468.5 824 Q458 804 441 790.5 Q424 777 402 770 Q380 763 356 763 Q332 763 310 770 Q288 777 270.5 790.5 Q253 804 243 824 Q233 844 233 870 Q233 895 243 915.5 Q253 936 270.5 949.5 Q288 963 310 970.5 Q332 978 356 978 Q380 978 402 970.5 Q424 963 441.5 949.5 Q459 936 469 915.5 Q479 895 479 870 Z M416 870 Q416 895 397.5 909.5 Q379 924 356 924 Q333 924 314.5 909.5 Q296 895 296 870 Q296 845 314.5 830.5 Q333 816 356 816 Q379 816 397.5 830.5 Q416 845 416 870 Z " />
<glyph glyph-name="AE" unicode="&#xc6;" horiz-adv-x="995" d="M483 728 L967 728 L930 629 L648 629 L648 426 L957 426 L920 327 L648 327 L648 99 L977 99 L940 0 L513 0 L513 201 L243 201 L144 58 L144 0 L-24 0 L483 728 Z M513 298 L513 592 L310 298 L513 298 Z " />
<glyph glyph-name="Ccedilla" unicode="&#xc7;" horiz-adv-x="680" d="M300 -141 Q321 -147 342 -151.5 Q363 -156 386 -157 Q407 -157 426 -149 Q445 -141 445 -115 Q445 -102 438 -95 Q431 -88 420.5 -84 Q410 -80 398 -79 Q386 -78 376 -77 L381 -15 Q305 -13 239 16.5 Q173 46 124.5 94.5 Q76 143 48.5 208 Q21 273 21 346 Q21 396 34 442 Q47 488 70.5 528.5 Q94 569 127.5 602 Q161 635 202 658 L262 693 Q304 716 351 729.5 Q398 743 450 743 Q506 743 553.5 732 Q601 721 646 701 L600 581 Q556 609 504.5 627 Q453 645 391 645 Q363 645 333.5 640 Q304 635 279 619 Q222 582 190.5 518 Q159 454 159 381 Q159 319 182 265 Q205 211 245.5 170.5 Q286 130 339.5 106.5 Q393 83 455 83 Q513 83 556.5 96.5 Q600 110 647 136 L660 69 Q640 56 623.5 46.5 Q607 37 587 27 Q550 7 509 -2.5 Q468 -12 422 -14 L420 -37 Q441 -39 459.5 -44.5 Q478 -50 492 -60 Q506 -70 514 -85 Q522 -100 522 -119 Q522 -144 513 -161 Q504 -178 488.5 -189 Q473 -200 452.5 -205 Q432 -210 410 -210 Q381 -210 352.5 -202 Q324 -194 297 -183 L300 -141 Z " />
<glyph glyph-name="Egrave" unicode="&#xc8;" horiz-adv-x="544" d="M62 673 L29 728 L516 728 L478 629 L197 629 L197 426 L506 426 L468 327 L197 327 L197 99 L526 99 L488 0 L62 0 L62 673 Z M151 924 L243 958 L353 795 L292 770 L151 924 Z " />
<glyph glyph-name="Eacute" unicode="&#xc9;" horiz-adv-x="544" d="M62 673 L29 728 L516 728 L478 629 L197 629 L197 426 L506 426 L468 327 L197 327 L197 99 L526 99 L488 0 L62 0 L62 673 Z M211 795 L321 958 L413 924 L272 770 L211 795 Z " />
<glyph glyph-name="Ecircumflex" unicode="&#xca;" horiz-adv-x="544" d="M62 673 L29 728 L516 728 L478 629 L197 629 L197 426 L506 426 L468 327 L197 327 L197 99 L526 99 L488 0 L62 0 L62 673 Z M125 813 L263 948 L302 948 L439 812 L393 773 L283 862 L170 774 L125 813 Z " />
<glyph glyph-name="Edieresis" unicode="&#xcb;" horiz-adv-x="544" d="M62 673 L29 728 L516 728 L478 629 L197 629 L197 426 L506 426 L468 327 L197 327 L197 99 L526 99 L488 0 L62 0 L62 673 Z M440 846 Q440 821 422.5 804.5 Q405 788 381 788 Q357 788 340 804.5 Q323 821 323 846 Q323 869 340.5 886.5 Q358 904 381 904 Q405 904 422.5 886.5 Q440 869 440 846 Z M241 846 Q241 821 224 804.5 Q207 788 183 788 Q159 788 141.5 805 Q124 822 124 846 Q124 869 142 886.5 Q160 904 183 904 Q206 904 223.5 886.5 Q241 869 241 846 Z " />
<glyph glyph-name="Igrave" unicode="&#xcc;" horiz-adv-x="268" d="M67 673 L34 728 L202 728 L202 0 L67 0 L67 673 Z M3 924 L95 958 L205 795 L144 770 L3 924 Z " />
<glyph glyph-name="Iacute" unicode="&#xcd;" horiz-adv-x="268" d="M67 673 L34 728 L202 728 L202 0 L67 0 L67 673 Z M63 795 L173 958 L265 924 L124 770 L63 795 Z " />
<glyph glyph-name="Icircumflex" unicode="&#xce;" horiz-adv-x="268" d="M67 673 L34 728 L202 728 L202 0 L67 0 L67 673 Z M-23 813 L115 948 L154 948 L291 812 L245 773 L135 862 L22 774 L-23 813 Z " />
<glyph glyph-name="Idieresis" unicode="&#xcf;" horiz-adv-x="268" d="M67 673 L34 728 L202 728 L202 0 L67 0 L67 673 Z M292 846 Q292 821 274.5 804.5 Q257 788 233 788 Q209 788 192 804.5 Q175 821 175 846 Q175 869 192.5 886.5 Q210 904 233 904 Q257 904 274.5 886.5 Q292 869 292 846 Z M93 846 Q93 821 76 804.5 Q59 788 35 788 Q11 788 -6.5 805 Q-24 822 -24 846 Q-24 869 -6 886.5 Q12 904 35 904 Q58 904 75.5 886.5 Q93 869 93 846 Z " />
<glyph glyph-name="Eth" unicode="&#xd0;" horiz-adv-x="724" d="M72 331 L-15 331 L1 415 L72 415 L72 673 L40 728 L350 728 Q424 728 488.5 701 Q553 674 600.5 626.5 Q648 579 675.5 516 Q703 453 703 381 Q703 333 690.5 289 Q678 245 655.5 206.5 Q633 168 601 136.5 Q569 105 530 82 L470 47 Q432 25 386 12.5 Q340 0 290 0 L72 0 L72 331 Z M343 99 Q372 99 401 103 Q430 107 454 122 Q508 157 537 217 Q566 277 566 346 Q566 404 544.5 456 Q523 508 484.5 546 Q446 584 394.5 606.5 Q343 629 283 629 L207 629 L207 415 L388 415 L374 331 L207 331 L207 99 L343 99 Z " />
<glyph glyph-name="Ntilde" unicode="&#xd1;" horiz-adv-x="726" d="M62 664 L16 728 L182 728 L558 214 L558 673 L526 728 L664 728 L664 0 L546 0 L168 516 L168 0 L62 0 L62 664 Z M200 810 Q213 845 238.5 871.5 Q264 898 304 898 Q320 898 334.5 892.5 Q349 887 363.5 881 Q378 875 393 869.5 Q408 864 423 864 Q442 864 453.5 877 Q465 890 470 905 L525 884 Q520 867 510.5 850.5 Q501 834 488.5 821 Q476 808 459.5 800 Q443 792 423 792 Q407 792 391.5 797.5 Q376 803 361 809.5 Q346 816 330.5 821.5 Q315 827 300 827 Q282 827 271 814.5 Q260 802 254 787 L200 810 Z " />
<glyph glyph-name="Ograve" unicode="&#xd2;" horiz-adv-x="834" d="M574 33 Q533 10 486 -2.5 Q439 -15 387 -15 Q309 -15 242.5 13.5 Q176 42 126.5 90.5 Q77 139 49 205 Q21 271 21 346 Q21 447 70 529 Q119 611 201 659 L260 694 Q301 717 347.5 730 Q394 743 447 743 Q525 743 592 714.5 Q659 686 708 637 Q757 588 785 522 Q813 456 813 381 Q813 331 800 284.5 Q787 238 764 197.5 Q741 157 707.5 124 Q674 91 634 68 L574 33 Z M558 106 Q615 143 645 207 Q675 271 675 346 Q675 408 653 462.5 Q631 517 592.5 557.5 Q554 598 501.5 621.5 Q449 645 387 645 Q357 645 328 641 Q299 637 275 621 Q219 584 189 520 Q159 456 159 381 Q159 319 181 265 Q203 211 241.5 170.5 Q280 130 332.5 106.5 Q385 83 447 83 Q477 83 506 86.5 Q535 90 558 106 Z M285 924 L377 958 L487 795 L426 770 L285 924 Z " />
<glyph glyph-name="Oacute" unicode="&#xd3;" horiz-adv-x="834" d="M574 33 Q533 10 486 -2.5 Q439 -15 387 -15 Q309 -15 242.5 13.5 Q176 42 126.5 90.5 Q77 139 49 205 Q21 271 21 346 Q21 447 70 529 Q119 611 201 659 L260 694 Q301 717 347.5 730 Q394 743 447 743 Q525 743 592 714.5 Q659 686 708 637 Q757 588 785 522 Q813 456 813 381 Q813 331 800 284.5 Q787 238 764 197.5 Q741 157 707.5 124 Q674 91 634 68 L574 33 Z M558 106 Q615 143 645 207 Q675 271 675 346 Q675 408 653 462.5 Q631 517 592.5 557.5 Q554 598 501.5 621.5 Q449 645 387 645 Q357 645 328 641 Q299 637 275 621 Q219 584 189 520 Q159 456 159 381 Q159 319 181 265 Q203 211 241.5 170.5 Q280 130 332.5 106.5 Q385 83 447 83 Q477 83 506 86.5 Q535 90 558 106 Z M345 795 L455 958 L547 924 L406 770 L345 795 Z " />
<glyph glyph-name="Ocircumflex" unicode="&#xd4;" horiz-adv-x="834" d="M574 33 Q533 10 486 -2.5 Q439 -15 387 -15 Q309 -15 242.5 13.5 Q176 42 126.5 90.5 Q77 139 49 205 Q21 271 21 346 Q21 447 70 529 Q119 611 201 659 L260 694 Q301 717 347.5 730 Q394 743 447 743 Q525 743 592 714.5 Q659 686 708 637 Q757 588 785 522 Q813 456 813 381 Q813 331 800 284.5 Q787 238 764 197.5 Q741 157 707.5 124 Q674 91 634 68 L574 33 Z M558 106 Q615 143 645 207 Q675 271 675 346 Q675 408 653 462.5 Q631 517 592.5 557.5 Q554 598 501.5 621.5 Q449 645 387 645 Q357 645 328 641 Q299 637 275 621 Q219 584 189 520 Q159 456 159 381 Q159 319 181 265 Q203 211 241.5 170.5 Q280 130 332.5 106.5 Q385 83 447 83 Q477 83 506 86.5 Q535 90 558 106 Z M259 813 L397 948 L436 948 L573 812 L527 773 L417 862 L304 774 L259 813 Z " />
<glyph glyph-name="Otilde" unicode="&#xd5;" horiz-adv-x="834" d="M574 33 Q533 10 486 -2.5 Q439 -15 387 -15 Q309 -15 242.5 13.5 Q176 42 126.5 90.5 Q77 139 49 205 Q21 271 21 346 Q21 447 70 529 Q119 611 201 659 L260 694 Q301 717 347.5 730 Q394 743 447 743 Q525 743 592 714.5 Q659 686 708 637 Q757 588 785 522 Q813 456 813 381 Q813 331 800 284.5 Q787 238 764 197.5 Q741 157 707.5 124 Q674 91 634 68 L574 33 Z M558 106 Q615 143 645 207 Q675 271 675 346 Q675 408 653 462.5 Q631 517 592.5 557.5 Q554 598 501.5 621.5 Q449 645 387 645 Q357 645 328 641 Q299 637 275 621 Q219 584 189 520 Q159 456 159 381 Q159 319 181 265 Q203 211 241.5 170.5 Q280 130 332.5 106.5 Q385 83 447 83 Q477 83 506 86.5 Q535 90 558 106 Z M253 810 Q266 845 291.5 871.5 Q317 898 357 898 Q373 898 387.5 892.5 Q402 887 416.5 881 Q431 875 446 869.5 Q461 864 476 864 Q495 864 506.5 877 Q518 890 523 905 L578 884 Q573 867 563.5 850.5 Q554 834 541.5 821 Q529 808 512.5 800 Q496 792 476 792 Q460 792 444.5 797.5 Q429 803 414 809.5 Q399 816 383.5 821.5 Q368 827 353 827 Q335 827 324 814.5 Q313 802 307 787 L253 810 Z " />
<glyph glyph-name="Odieresis" unicode="&#xd6;" horiz-adv-x="834" d="M574 33 Q533 10 486 -2.5 Q439 -15 387 -15 Q309 -15 242.5 13.5 Q176 42 126.5 90.5 Q77 139 49 205 Q21 271 21 346 Q21 447 70 529 Q119 611 201 659 L260 694 Q301 717 347.5 730 Q394 743 447 743 Q525 743 592 714.5 Q659 686 708 637 Q757 588 785 522 Q813 456 813 381 Q813 331 800 284.5 Q787 238 764 197.5 Q741 157 707.5 124 Q674 91 634 68 L574 33 Z M558 106 Q615 143 645 207 Q675 271 675 346 Q675 408 653 462.5 Q631 517 592.5 557.5 Q554 598 501.5 621.5 Q449 645 387 645 Q357 645 328 641 Q299 637 275 621 Q219 584 189 520 Q159 456 159 381 Q159 319 181 265 Q203 211 241.5 170.5 Q280 130 332.5 106.5 Q385 83 447 83 Q477 83 506 86.5 Q535 90 558 106 Z M574 846 Q574 821 556.5 804.5 Q539 788 515 788 Q491 788 474 804.5 Q457 821 457 846 Q457 869 474.5 886.5 Q492 904 515 904 Q539 904 556.5 886.5 Q574 869 574 846 Z M375 846 Q375 821 358 804.5 Q341 788 317 788 Q293 788 275.5 805 Q258 822 258 846 Q258 869 276 886.5 Q294 904 317 904 Q340 904 357.5 886.5 Q375 869 375 846 Z " />
<glyph glyph-name="multiply" unicode="&#xd7;" horiz-adv-x="556" d="M42 77 L215 250 L42 422 L105 486 L278 313 L451 486 L514 423 L341 250 L514 77 L451 14 L278 187 L105 14 L42 77 Z " />
<glyph glyph-name="Oslash" unicode="&#xd8;" horiz-adv-x="834" d="M69 -23 L145 74 Q88 124 55.5 194 Q23 264 23 346 Q23 396 36 442.5 Q49 489 72 529 Q95 569 128 602 Q161 635 201 659 L262 694 Q302 717 349 730 Q396 743 448 743 Q543 743 620 697 L680 774 L689 786 L759 738 L692 653 Q749 602 781.5 533 Q814 464 814 381 Q814 331 801 284.5 Q788 238 765 198 Q742 158 708.5 125 Q675 92 635 68 L575 33 Q534 10 487 -2.5 Q440 -15 388 -15 Q341 -15 298 -3.5 Q255 8 218 30 L137 -72 L69 -23 Z M290 132 Q323 109 363 96 Q403 83 448 83 Q478 83 507 86.5 Q536 90 560 106 Q617 143 646.5 207 Q676 271 676 346 Q676 402 658.5 450 Q641 498 609 536 L290 132 Z M547 595 Q514 619 474 632 Q434 645 388 645 Q358 645 329 641 Q300 637 277 621 Q220 584 190 520 Q160 456 160 381 Q160 326 178 277.5 Q196 229 228 191 L547 595 Z " />
<glyph glyph-name="Ugrave" unicode="&#xd9;" horiz-adv-x="683" d="M490 32 Q410 -15 306 -15 Q253 -15 208 3.5 Q163 22 130 53.5 Q97 85 78 128 Q59 171 59 221 L59 673 L26 728 L194 728 L194 260 Q194 224 207.5 192.5 Q221 161 244.5 137.5 Q268 114 299.5 100 Q331 86 367 86 Q413 86 448 102 Q458 106 467.5 111.5 Q477 117 487 122 L487 673 L455 728 L622 728 L622 113 Q606 102 585 88.5 Q564 75 550 67 L490 32 Z M210 924 L302 958 L412 795 L351 770 L210 924 Z " />
<glyph glyph-name="Uacute" unicode="&#xda;" horiz-adv-x="683" d="M490 32 Q410 -15 306 -15 Q253 -15 208 3.5 Q163 22 130 53.5 Q97 85 78 128 Q59 171 59 221 L59 673 L26 728 L194 728 L194 260 Q194 224 207.5 192.5 Q221 161 244.5 137.5 Q268 114 299.5 100 Q331 86 367 86 Q413 86 448 102 Q458 106 467.5 111.5 Q477 117 487 122 L487 673 L455 728 L622 728 L622 113 Q606 102 585 88.5 Q564 75 550 67 L490 32 Z M270 795 L380 958 L472 924 L331 770 L270 795 Z " />
<glyph glyph-name="Ucircumflex" unicode="&#xdb;" horiz-adv-x="683" d="M490 32 Q410 -15 306 -15 Q253 -15 208 3.5 Q163 22 130 53.5 Q97 85 78 128 Q59 171 59 221 L59 673 L26 728 L194 728 L194 260 Q194 224 207.5 192.5 Q221 161 244.5 137.5 Q268 114 299.5 100 Q331 86 367 86 Q413 86 448 102 Q458 106 467.5 111.5 Q477 117 487 122 L487 673 L455 728 L622 728 L622 113 Q606 102 585 88.5 Q564 75 550 67 L490 32 Z M184 813 L322 948 L361 948 L498 812 L452 773 L342 862 L229 774 L184 813 Z " />
<glyph glyph-name="Udieresis" unicode="&#xdc;" horiz-adv-x="683" d="M490 32 Q410 -15 306 -15 Q253 -15 208 3.5 Q163 22 130 53.5 Q97 85 78 128 Q59 171 59 221 L59 673 L26 728 L194 728 L194 260 Q194 224 207.5 192.5 Q221 161 244.5 137.5 Q268 114 299.5 100 Q331 86 367 86 Q413 86 448 102 Q458 106 467.5 111.5 Q477 117 487 122 L487 673 L455 728 L622 728 L622 113 Q606 102 585 88.5 Q564 75 550 67 L490 32 Z M499 846 Q499 821 481.5 804.5 Q464 788 440 788 Q416 788 399 804.5 Q382 821 382 846 Q382 869 399.5 886.5 Q417 904 440 904 Q464 904 481.5 886.5 Q499 869 499 846 Z M300 846 Q300 821 283 804.5 Q266 788 242 788 Q218 788 200.5 805 Q183 822 183 846 Q183 869 201 886.5 Q219 904 242 904 Q265 904 282.5 886.5 Q300 869 300 846 Z " />
<glyph glyph-name="Yacute" unicode="&#xdd;" horiz-adv-x="638" d="M254 290 L-12 728 L148 728 L338 410 L495 673 L476 728 L652 728 L388 294 L388 0 L254 0 L254 290 Z M248 795 L358 958 L450 924 L309 770 L248 795 Z " />
<glyph glyph-name="Thorn" unicode="&#xde;" horiz-adv-x="580" d="M62 673 L29 728 L197 728 L197 613 L333 613 Q381 613 422 596 Q463 579 493 549 Q523 519 540.5 479 Q558 439 558 394 Q558 334 529 286 Q500 238 451 210 L392 175 Q338 144 272 144 L197 144 L197 0 L62 0 L62 673 Z M327 241 Q353 241 373 253 Q397 271 410 299 Q423 327 423 360 Q423 391 410.5 419.5 Q398 448 376.5 469 Q355 490 326.5 502.5 Q298 515 265 515 L197 515 L197 241 L327 241 Z " />
<glyph glyph-name="germandbls" unicode="&#xdf;" horiz-adv-x="563" d="M56 404 L-21 404 L13 496 L56 496 L56 538 Q56 595 77.5 633 Q99 671 147 697 L188 721 Q221 740 259 743 Q284 745 304 742 Q339 739 366.5 725 Q394 711 413.5 690.5 Q433 670 443.5 645 Q454 620 454 595 Q454 556 442 531 Q430 506 415 486.5 Q400 467 388 448 Q376 429 376 404 Q376 382 388 367 Q400 352 418.5 339.5 Q437 327 458 315 Q479 303 497.5 285.5 Q516 268 528 243 Q540 218 540 180 Q540 135 518.5 100.5 Q497 66 462 46 L405 14 Q372 -7 328 -10 Q307 -12 288 -9 Q268 -7 245 1 Q222 9 205 25 L255 117 Q278 98 302.5 89 Q327 80 353 80 Q378 83 394.5 100 Q411 117 411 146 Q411 177 399.5 197.5 Q388 218 371.5 233 Q355 248 335 260 Q315 272 298.5 286 Q282 300 270.5 318.5 Q259 337 259 365 Q259 396 271.5 416 Q284 436 298.5 454.5 Q313 473 325.5 495.5 Q338 518 338 555 Q338 575 329 592.5 Q320 610 305 623 Q290 636 270 644 Q250 652 229 653 Q218 653 209 644.5 Q200 636 193.5 622.5 Q187 609 183.5 593 Q180 577 180 562 L180 0 L56 0 L56 404 Z " />
<glyph glyph-name="agrave" unicode="&#xe0;" horiz-adv-x="497" d="M423 -4 Q381 -4 355.5 10.5 Q330 25 319 59 Q307 49 290.5 38.5 Q274 28 261 20 L249 12 Q210 -11 166 -11 Q137 -11 110.5 -2 Q84 7 64.5 24 Q45 41 33.5 65.5 Q22 90 22 121 Q22 166 41 197 Q60 228 94 248 L151 280 Q180 297 219.5 306 Q259 315 305 318 Q305 324 305 330.5 Q305 337 304 345 Q299 383 271.5 399.5 Q244 416 207 416 Q174 416 142 406.5 Q110 397 82 383 L61 436 Q75 445 90 453 Q105 461 119 469 Q151 483 191.5 495.5 Q232 508 277 508 Q309 508 337 499.5 Q365 491 386 474 Q407 457 419.5 430.5 Q432 404 432 368 L432 148 Q432 113 446 98 Q460 83 496 83 L499 83 L465 -4 L423 -4 Z M307 247 Q269 246 234.5 243 Q200 240 171 226 Q159 214 152.5 198.5 Q146 183 146 162 Q146 122 175 99 Q204 76 246 76 Q260 76 278 87 Q296 98 307 114 L307 247 Z M117 697 L209 731 L319 569 L258 543 L117 697 Z " />
<glyph glyph-name="aacute" unicode="&#xe1;" horiz-adv-x="497" d="M423 -4 Q381 -4 355.5 10.5 Q330 25 319 59 Q307 49 290.5 38.5 Q274 28 261 20 L249 12 Q210 -11 166 -11 Q137 -11 110.5 -2 Q84 7 64.5 24 Q45 41 33.5 65.5 Q22 90 22 121 Q22 166 41 197 Q60 228 94 248 L151 280 Q180 297 219.5 306 Q259 315 305 318 Q305 324 305 330.5 Q305 337 304 345 Q299 383 271.5 399.5 Q244 416 207 416 Q174 416 142 406.5 Q110 397 82 383 L61 436 Q75 445 90 453 Q105 461 119 469 Q151 483 191.5 495.5 Q232 508 277 508 Q309 508 337 499.5 Q365 491 386 474 Q407 457 419.5 430.5 Q432 404 432 368 L432 148 Q432 113 446 98 Q460 83 496 83 L499 83 L465 -4 L423 -4 Z M307 247 Q269 246 234.5 243 Q200 240 171 226 Q159 214 152.5 198.5 Q146 183 146 162 Q146 122 175 99 Q204 76 246 76 Q260 76 278 87 Q296 98 307 114 L307 247 Z M177 569 L287 731 L379 697 L238 543 L177 569 Z " />
<glyph glyph-name="acircumflex" unicode="&#xe2;" horiz-adv-x="497" d="M423 -4 Q381 -4 355.5 10.5 Q330 25 319 59 Q307 49 290.5 38.5 Q274 28 261 20 L249 12 Q210 -11 166 -11 Q137 -11 110.5 -2 Q84 7 64.5 24 Q45 41 33.5 65.5 Q22 90 22 121 Q22 166 41 197 Q60 228 94 248 L151 280 Q180 297 219.5 306 Q259 315 305 318 Q305 324 305 330.5 Q305 337 304 345 Q299 383 271.5 399.5 Q244 416 207 416 Q174 416 142 406.5 Q110 397 82 383 L61 436 Q75 445 90 453 Q105 461 119 469 Q151 483 191.5 495.5 Q232 508 277 508 Q309 508 337 499.5 Q365 491 386 474 Q407 457 419.5 430.5 Q432 404 432 368 L432 148 Q432 113 446 98 Q460 83 496 83 L499 83 L465 -4 L423 -4 Z M307 247 Q269 246 234.5 243 Q200 240 171 226 Q159 214 152.5 198.5 Q146 183 146 162 Q146 122 175 99 Q204 76 246 76 Q260 76 278 87 Q296 98 307 114 L307 247 Z M91 586 L229 721 L268 721 L405 585 L359 547 L249 635 L136 548 L91 586 Z " />
<glyph glyph-name="atilde" unicode="&#xe3;" horiz-adv-x="497" d="M423 -4 Q381 -4 355.5 10.5 Q330 25 319 59 Q307 49 290.5 38.5 Q274 28 261 20 L249 12 Q210 -11 166 -11 Q137 -11 110.5 -2 Q84 7 64.5 24 Q45 41 33.5 65.5 Q22 90 22 121 Q22 166 41 197 Q60 228 94 248 L151 280 Q180 297 219.5 306 Q259 315 305 318 Q305 324 305 330.5 Q305 337 304 345 Q299 383 271.5 399.5 Q244 416 207 416 Q174 416 142 406.5 Q110 397 82 383 L61 436 Q75 445 90 453 Q105 461 119 469 Q151 483 191.5 495.5 Q232 508 277 508 Q309 508 337 499.5 Q365 491 386 474 Q407 457 419.5 430.5 Q432 404 432 368 L432 148 Q432 113 446 98 Q460 83 496 83 L499 83 L465 -4 L423 -4 Z M307 247 Q269 246 234.5 243 Q200 240 171 226 Q159 214 152.5 198.5 Q146 183 146 162 Q146 122 175 99 Q204 76 246 76 Q260 76 278 87 Q296 98 307 114 L307 247 Z M85 583 Q98 618 123.5 645 Q149 672 189 672 Q205 672 219.5 666.5 Q234 661 248.5 655 Q263 649 278 643.5 Q293 638 308 638 Q327 638 338.5 650.5 Q350 663 355 679 L410 658 Q405 640 395.5 623.5 Q386 607 373.5 594 Q361 581 344.5 573 Q328 565 308 565 Q292 565 276.5 570.5 Q261 576 246 582.5 Q231 589 215.5 594.5 Q200 600 185 600 Q167 600 156 588 Q145 576 139 561 L85 583 Z " />
<glyph glyph-name="adieresis" unicode="&#xe4;" horiz-adv-x="497" d="M423 -4 Q381 -4 355.5 10.5 Q330 25 319 59 Q307 49 290.5 38.5 Q274 28 261 20 L249 12 Q210 -11 166 -11 Q137 -11 110.5 -2 Q84 7 64.5 24 Q45 41 33.5 65.5 Q22 90 22 121 Q22 166 41 197 Q60 228 94 248 L151 280 Q180 297 219.5 306 Q259 315 305 318 Q305 324 305 330.5 Q305 337 304 345 Q299 383 271.5 399.5 Q244 416 207 416 Q174 416 142 406.5 Q110 397 82 383 L61 436 Q75 445 90 453 Q105 461 119 469 Q151 483 191.5 495.5 Q232 508 277 508 Q309 508 337 499.5 Q365 491 386 474 Q407 457 419.5 430.5 Q432 404 432 368 L432 148 Q432 113 446 98 Q460 83 496 83 L499 83 L465 -4 L423 -4 Z M307 247 Q269 246 234.5 243 Q200 240 171 226 Q159 214 152.5 198.5 Q146 183 146 162 Q146 122 175 99 Q204 76 246 76 Q260 76 278 87 Q296 98 307 114 L307 247 Z M406 619 Q406 595 388.5 578 Q371 561 347 561 Q323 561 306 578 Q289 595 289 619 Q289 642 306.5 660 Q324 678 347 678 Q371 678 388.5 660.5 Q406 643 406 619 Z M207 619 Q207 595 190 578 Q173 561 149 561 Q125 561 107.5 578 Q90 595 90 619 Q90 642 108 660 Q126 678 149 678 Q172 678 189.5 660.5 Q207 643 207 619 Z " />
<glyph glyph-name="aring" unicode="&#xe5;" horiz-adv-x="497" d="M423 -4 Q381 -4 355.5 10.5 Q330 25 319 59 Q307 49 290.5 38.5 Q274 28 261 20 L249 12 Q210 -11 166 -11 Q137 -11 110.5 -2 Q84 7 64.5 24 Q45 41 33.5 65.5 Q22 90 22 121 Q22 166 41 197 Q60 228 94 248 L151 280 Q180 297 219.5 306 Q259 315 305 318 Q305 324 305 330.5 Q305 337 304 345 Q299 383 271.5 399.5 Q244 416 207 416 Q174 416 142 406.5 Q110 397 82 383 L61 436 Q75 445 90 453 Q105 461 119 469 Q151 483 191.5 495.5 Q232 508 277 508 Q309 508 337 499.5 Q365 491 386 474 Q407 457 419.5 430.5 Q432 404 432 368 L432 148 Q432 113 446 98 Q460 83 496 83 L499 83 L465 -4 L423 -4 Z M307 247 Q269 246 234.5 243 Q200 240 171 226 Q159 214 152.5 198.5 Q146 183 146 162 Q146 122 175 99 Q204 76 246 76 Q260 76 278 87 Q296 98 307 114 L307 247 Z M371 643 Q371 617 360.5 597.5 Q350 578 333 564 Q316 550 294 543 Q272 536 248 536 Q224 536 202 543 Q180 550 162.5 563.5 Q145 577 135 597 Q125 617 125 643 Q125 668 135 688.5 Q145 709 162.5 722.5 Q180 736 202 743.5 Q224 751 248 751 Q272 751 294 743.5 Q316 736 333.5 722.5 Q351 709 361 688.5 Q371 668 371 643 Z M308 644 Q308 669 289.5 683.5 Q271 698 248 698 Q225 698 206.5 683.5 Q188 669 188 644 Q188 619 206.5 604.5 Q225 590 248 590 Q271 590 289.5 604.5 Q308 619 308 644 Z " />
<glyph glyph-name="ae" unicode="&#xe6;" horiz-adv-x="826" d="M259 13 Q239 2 216 -4.5 Q193 -11 169 -11 Q139 -11 112 -2 Q85 7 65 24 Q45 41 33.5 65.5 Q22 90 22 121 Q22 164 40 192.5 Q58 221 90 238 L111 250 Q155 276 202.5 288 Q250 300 316 304 Q316 361 292.5 388.5 Q269 416 211 416 Q174 416 140 406.5 Q106 397 82 383 L60 434 Q113 466 166 487 Q219 508 282 508 Q336 508 372.5 483.5 Q409 459 417 416 Q426 430 439.5 443.5 Q453 457 470 467 L487 477 Q537 508 597 508 Q637 508 671.5 493 Q706 478 732.5 451.5 Q759 425 775 388.5 Q791 352 796 310 Q798 293 799 270.5 Q800 248 800 228 L446 228 Q450 196 464.5 169 Q479 142 502 121.5 Q525 101 554.5 89.5 Q584 78 617 78 Q639 78 658 81 Q677 84 695 91 Q713 98 731.5 109 Q750 120 773 137 L799 85 Q776 65 748 48 Q720 31 688.5 17.5 Q657 4 623.5 -3.5 Q590 -11 557 -11 Q494 -11 443.5 15.5 Q393 42 362 88 Q344 71 325 55.5 Q306 40 285 27 L259 13 Z M332 141 Q324 160 320 185.5 Q316 211 316 238 Q275 236 236.5 234 Q198 232 169 220 Q146 197 146 163 Q146 123 175.5 99.5 Q205 76 248 76 Q272 76 294 97 Q316 118 332 141 Z M692 309 Q679 358 642 388 Q605 418 554 418 Q529 418 501 407 Q479 390 464 365 Q449 340 444 309 L692 309 Z " />
<glyph glyph-name="ccedilla" unicode="&#xe7;" horiz-adv-x="486" d="M175 -141 Q196 -147 217 -151.5 Q238 -156 261 -157 Q282 -157 301 -149 Q320 -141 320 -115 Q320 -101 313 -93.5 Q306 -86 295.5 -82.5 Q285 -79 273 -78.5 Q261 -78 251 -77 L256 -11 Q205 -8 162 11.5 Q119 31 87 63.5 Q55 96 37 139 Q19 182 19 231 Q19 298 52 353 Q85 408 140 440 L197 473 Q226 490 258.5 499 Q291 508 326 508 Q364 508 395 500 Q426 492 456 478 L416 373 Q384 394 349 405 Q314 416 275 416 Q258 416 241.5 413 Q225 410 213 402 Q181 379 165 343 Q149 307 149 264 Q149 226 163 192.5 Q177 159 202 134 Q227 109 260 94.5 Q293 80 331 80 Q363 80 394 86.5 Q425 93 457 108 L463 49 Q425 26 386 10.5 Q347 -5 298 -10 L295 -37 Q316 -39 334.5 -44.5 Q353 -50 367 -60 Q381 -70 389 -85 Q397 -100 397 -119 Q397 -144 388 -161 Q379 -178 363.5 -189 Q348 -200 327.5 -205 Q307 -210 285 -210 Q256 -210 227.5 -202 Q199 -194 172 -183 L175 -141 Z " />
<glyph glyph-name="egrave" unicode="&#xe8;" horiz-adv-x="545" d="M518 85 Q501 71 475.5 54.5 Q450 38 418.5 23.5 Q387 9 349 -1 Q311 -11 268 -11 Q216 -11 170.5 7 Q125 25 91.5 57 Q58 89 38.5 133.5 Q19 178 19 231 Q19 303 52 358 Q85 413 136 444 L190 477 Q213 491 243.5 499.5 Q274 508 306 508 Q352 508 391.5 489.5 Q431 471 459 438 Q487 405 503 358.5 Q519 312 519 256 L519 227 L153 227 Q157 195 172.5 168 Q188 141 212 121 Q236 101 266.5 89.5 Q297 78 330 78 Q354 78 374 81 Q394 84 412 91 Q430 98 449 109.5 Q468 121 491 138 L518 85 Z M408 309 Q396 357 358 387.5 Q320 418 264 418 Q250 418 235 416 Q220 414 209 406 Q186 390 171.5 364.5 Q157 339 152 309 L408 309 Z M148 697 L240 731 L350 569 L289 543 L148 697 Z " />
<glyph glyph-name="eacute" unicode="&#xe9;" horiz-adv-x="545" d="M518 85 Q501 71 475.5 54.5 Q450 38 418.5 23.5 Q387 9 349 -1 Q311 -11 268 -11 Q216 -11 170.5 7 Q125 25 91.5 57 Q58 89 38.5 133.5 Q19 178 19 231 Q19 303 52 358 Q85 413 136 444 L190 477 Q213 491 243.5 499.5 Q274 508 306 508 Q352 508 391.5 489.5 Q431 471 459 438 Q487 405 503 358.5 Q519 312 519 256 L519 227 L153 227 Q157 195 172.5 168 Q188 141 212 121 Q236 101 266.5 89.5 Q297 78 330 78 Q354 78 374 81 Q394 84 412 91 Q430 98 449 109.5 Q468 121 491 138 L518 85 Z M408 309 Q396 357 358 387.5 Q320 418 264 418 Q250 418 235 416 Q220 414 209 406 Q186 390 171.5 364.5 Q157 339 152 309 L408 309 Z M208 569 L318 731 L410 697 L269 543 L208 569 Z " />
<glyph glyph-name="ecircumflex" unicode="&#xea;" horiz-adv-x="545" d="M518 85 Q501 71 475.5 54.5 Q450 38 418.5 23.5 Q387 9 349 -1 Q311 -11 268 -11 Q216 -11 170.5 7 Q125 25 91.5 57 Q58 89 38.5 133.5 Q19 178 19 231 Q19 303 52 358 Q85 413 136 444 L190 477 Q213 491 243.5 499.5 Q274 508 306 508 Q352 508 391.5 489.5 Q431 471 459 438 Q487 405 503 358.5 Q519 312 519 256 L519 227 L153 227 Q157 195 172.5 168 Q188 141 212 121 Q236 101 266.5 89.5 Q297 78 330 78 Q354 78 374 81 Q394 84 412 91 Q430 98 449 109.5 Q468 121 491 138 L518 85 Z M408 309 Q396 357 358 387.5 Q320 418 264 418 Q250 418 235 416 Q220 414 209 406 Q186 390 171.5 364.5 Q157 339 152 309 L408 309 Z M122 586 L260 721 L299 721 L436 585 L390 547 L280 635 L167 548 L122 586 Z " />
<glyph glyph-name="edieresis" unicode="&#xeb;" horiz-adv-x="545" d="M518 85 Q501 71 475.5 54.5 Q450 38 418.5 23.5 Q387 9 349 -1 Q311 -11 268 -11 Q216 -11 170.5 7 Q125 25 91.5 57 Q58 89 38.5 133.5 Q19 178 19 231 Q19 303 52 358 Q85 413 136 444 L190 477 Q213 491 243.5 499.5 Q274 508 306 508 Q352 508 391.5 489.5 Q431 471 459 438 Q487 405 503 358.5 Q519 312 519 256 L519 227 L153 227 Q157 195 172.5 168 Q188 141 212 121 Q236 101 266.5 89.5 Q297 78 330 78 Q354 78 374 81 Q394 84 412 91 Q430 98 449 109.5 Q468 121 491 138 L518 85 Z M408 309 Q396 357 358 387.5 Q320 418 264 418 Q250 418 235 416 Q220 414 209 406 Q186 390 171.5 364.5 Q157 339 152 309 L408 309 Z M437 619 Q437 595 419.5 578 Q402 561 378 561 Q354 561 337 578 Q320 595 320 619 Q320 642 337.5 660 Q355 678 378 678 Q402 678 419.5 660.5 Q437 643 437 619 Z M238 619 Q238 595 221 578 Q204 561 180 561 Q156 561 138.5 578 Q121 595 121 619 Q121 642 139 660 Q157 678 180 678 Q203 678 220.5 660.5 Q238 643 238 619 Z " />
<glyph glyph-name="igrave" unicode="&#xec;" horiz-adv-x="239" d="M56 414 L27 465 L183 508 L183 0 L56 0 L56 414 Z M-12 697 L80 731 L190 569 L129 543 L-12 697 Z " />
<glyph glyph-name="iacute" unicode="&#xed;" horiz-adv-x="239" d="M56 414 L27 465 L183 508 L183 0 L56 0 L56 414 Z M48 569 L158 731 L250 697 L109 543 L48 569 Z " />
<glyph glyph-name="icircumflex" unicode="&#xee;" horiz-adv-x="239" d="M56 414 L27 465 L183 508 L183 0 L56 0 L56 414 Z M-38 586 L100 721 L139 721 L276 585 L230 547 L120 635 L7 548 L-38 586 Z " />
<glyph glyph-name="idieresis" unicode="&#xef;" horiz-adv-x="239" d="M56 414 L27 465 L183 508 L183 0 L56 0 L56 414 Z M277 619 Q277 595 259.5 578 Q242 561 218 561 Q194 561 177 578 Q160 595 160 619 Q160 642 177.5 660 Q195 678 218 678 Q242 678 259.5 660.5 Q277 643 277 619 Z M78 619 Q78 595 61 578 Q44 561 20 561 Q-4 561 -21.5 578 Q-39 595 -39 619 Q-39 642 -21 660 Q-3 678 20 678 Q43 678 60.5 660.5 Q78 643 78 619 Z " />
<glyph glyph-name="eth" unicode="&#xf0;" horiz-adv-x="561" d="M374 22 Q348 6 317 -2.5 Q286 -11 253 -11 Q207 -11 164.5 6.5 Q122 24 90 55.5 Q58 87 38.5 132 Q19 177 19 231 Q19 296 49 349.5 Q79 403 129 433 L178 463 Q197 474 219.5 480.5 Q242 487 261 487 Q279 488 297 482.5 Q315 477 330 467 Q312 493 288 516.5 Q264 540 240 560 L132 486 L95 529 L194 598 Q170 617 146 634 Q122 651 96 667 L197 733 Q223 717 247 700 Q271 683 295 664 L395 733 L433 690 L340 626 Q378 593 414 553 Q450 513 478.5 467 Q507 421 524.5 370 Q542 319 542 264 Q542 193 510.5 139 Q479 85 429 54 L374 22 Z M356 90 Q384 116 399.5 152.5 Q415 189 415 231 Q415 271 403 304.5 Q391 338 369.5 363 Q348 388 318.5 402 Q289 416 255 416 Q242 416 228.5 413.5 Q215 411 204 403 Q177 379 162.5 343 Q148 307 148 264 Q148 226 160 192.5 Q172 159 193 134 Q214 109 243 94.5 Q272 80 307 80 Q321 80 333 82.5 Q345 85 356 90 Z " />
<glyph glyph-name="ntilde" unicode="&#xf1;" horiz-adv-x="554" d="M56 414 L27 467 L180 508 L180 438 Q191 447 204.5 456 Q218 465 229 471 L241 479 Q266 493 291.5 500.5 Q317 508 342 508 Q374 508 403 497.5 Q432 487 454.5 466.5 Q477 446 490 416.5 Q503 387 503 350 L503 0 L376 0 L376 310 Q376 362 344 389 Q312 416 267 416 Q241 416 221.5 405.5 Q202 395 183 376 L183 0 L56 0 L56 414 Z M113 583 Q126 618 151.5 645 Q177 672 217 672 Q233 672 247.5 666.5 Q262 661 276.5 655 Q291 649 306 643.5 Q321 638 336 638 Q355 638 366.5 650.5 Q378 663 383 679 L438 658 Q433 640 423.5 623.5 Q414 607 401.5 594 Q389 581 372.5 573 Q356 565 336 565 Q320 565 304.5 570.5 Q289 576 274 582.5 Q259 589 243.5 594.5 Q228 600 213 600 Q195 600 184 588 Q173 576 167 561 L113 583 Z " />
<glyph glyph-name="ograve" unicode="&#xf2;" horiz-adv-x="585" d="M390 22 Q362 6 330 -2.5 Q298 -11 264 -11 Q215 -11 170.5 6.5 Q126 24 92.5 55.5 Q59 87 39 131.5 Q19 176 19 231 Q19 302 51.5 356 Q84 410 138 441 L194 474 Q253 508 321 508 Q370 508 414 490.5 Q458 473 492 441 Q526 409 546 364 Q566 319 566 264 Q566 192 533 138.5 Q500 85 448 54 L390 22 Z M374 90 Q403 116 419.5 152.5 Q436 189 436 231 Q436 269 423 303 Q410 337 387 362 Q364 387 332.5 401.5 Q301 416 264 416 Q249 416 235.5 414 Q222 412 211 404 Q180 381 164.5 344 Q149 307 149 264 Q149 226 162 192.5 Q175 159 197.5 134 Q220 109 251.5 94.5 Q283 80 321 80 Q335 80 348.5 82.5 Q362 85 374 90 Z M161 697 L253 731 L363 569 L302 543 L161 697 Z " />
<glyph glyph-name="oacute" unicode="&#xf3;" horiz-adv-x="585" d="M390 22 Q362 6 330 -2.5 Q298 -11 264 -11 Q215 -11 170.5 6.5 Q126 24 92.5 55.5 Q59 87 39 131.5 Q19 176 19 231 Q19 302 51.5 356 Q84 410 138 441 L194 474 Q253 508 321 508 Q370 508 414 490.5 Q458 473 492 441 Q526 409 546 364 Q566 319 566 264 Q566 192 533 138.5 Q500 85 448 54 L390 22 Z M374 90 Q403 116 419.5 152.5 Q436 189 436 231 Q436 269 423 303 Q410 337 387 362 Q364 387 332.5 401.5 Q301 416 264 416 Q249 416 235.5 414 Q222 412 211 404 Q180 381 164.5 344 Q149 307 149 264 Q149 226 162 192.5 Q175 159 197.5 134 Q220 109 251.5 94.5 Q283 80 321 80 Q335 80 348.5 82.5 Q362 85 374 90 Z M221 569 L331 731 L423 697 L282 543 L221 569 Z " />
<glyph glyph-name="ocircumflex" unicode="&#xf4;" horiz-adv-x="585" d="M390 22 Q362 6 330 -2.5 Q298 -11 264 -11 Q215 -11 170.5 6.5 Q126 24 92.5 55.5 Q59 87 39 131.5 Q19 176 19 231 Q19 302 51.5 356 Q84 410 138 441 L194 474 Q253 508 321 508 Q370 508 414 490.5 Q458 473 492 441 Q526 409 546 364 Q566 319 566 264 Q566 192 533 138.5 Q500 85 448 54 L390 22 Z M374 90 Q403 116 419.5 152.5 Q436 189 436 231 Q436 269 423 303 Q410 337 387 362 Q364 387 332.5 401.5 Q301 416 264 416 Q249 416 235.5 414 Q222 412 211 404 Q180 381 164.5 344 Q149 307 149 264 Q149 226 162 192.5 Q175 159 197.5 134 Q220 109 251.5 94.5 Q283 80 321 80 Q335 80 348.5 82.5 Q362 85 374 90 Z M135 586 L273 721 L312 721 L449 585 L403 547 L293 635 L180 548 L135 586 Z " />
<glyph glyph-name="otilde" unicode="&#xf5;" horiz-adv-x="585" d="M390 22 Q362 6 330 -2.5 Q298 -11 264 -11 Q215 -11 170.5 6.5 Q126 24 92.5 55.5 Q59 87 39 131.5 Q19 176 19 231 Q19 302 51.5 356 Q84 410 138 441 L194 474 Q253 508 321 508 Q370 508 414 490.5 Q458 473 492 441 Q526 409 546 364 Q566 319 566 264 Q566 192 533 138.5 Q500 85 448 54 L390 22 Z M374 90 Q403 116 419.5 152.5 Q436 189 436 231 Q436 269 423 303 Q410 337 387 362 Q364 387 332.5 401.5 Q301 416 264 416 Q249 416 235.5 414 Q222 412 211 404 Q180 381 164.5 344 Q149 307 149 264 Q149 226 162 192.5 Q175 159 197.5 134 Q220 109 251.5 94.5 Q283 80 321 80 Q335 80 348.5 82.5 Q362 85 374 90 Z M129 583 Q142 618 167.5 645 Q193 672 233 672 Q249 672 263.5 666.5 Q278 661 292.5 655 Q307 649 322 643.5 Q337 638 352 638 Q371 638 382.5 650.5 Q394 663 399 679 L454 658 Q449 640 439.5 623.5 Q430 607 417.5 594 Q405 581 388.5 573 Q372 565 352 565 Q336 565 320.5 570.5 Q305 576 290 582.5 Q275 589 259.5 594.5 Q244 600 229 600 Q211 600 200 588 Q189 576 183 561 L129 583 Z " />
<glyph glyph-name="odieresis" unicode="&#xf6;" horiz-adv-x="585" d="M390 22 Q362 6 330 -2.5 Q298 -11 264 -11 Q215 -11 170.5 6.5 Q126 24 92.5 55.5 Q59 87 39 131.5 Q19 176 19 231 Q19 302 51.5 356 Q84 410 138 441 L194 474 Q253 508 321 508 Q370 508 414 490.5 Q458 473 492 441 Q526 409 546 364 Q566 319 566 264 Q566 192 533 138.5 Q500 85 448 54 L390 22 Z M374 90 Q403 116 419.5 152.5 Q436 189 436 231 Q436 269 423 303 Q410 337 387 362 Q364 387 332.5 401.5 Q301 416 264 416 Q249 416 235.5 414 Q222 412 211 404 Q180 381 164.5 344 Q149 307 149 264 Q149 226 162 192.5 Q175 159 197.5 134 Q220 109 251.5 94.5 Q283 80 321 80 Q335 80 348.5 82.5 Q362 85 374 90 Z M450 619 Q450 595 432.5 578 Q415 561 391 561 Q367 561 350 578 Q333 595 333 619 Q333 642 350.5 660 Q368 678 391 678 Q415 678 432.5 660.5 Q450 643 450 619 Z M251 619 Q251 595 234 578 Q217 561 193 561 Q169 561 151.5 578 Q134 595 134 619 Q134 642 152 660 Q170 678 193 678 Q216 678 233.5 660.5 Q251 643 251 619 Z " />
<glyph glyph-name="divide" unicode="&#xf7;" horiz-adv-x="556" d="M340 429 Q340 403 322 385 Q304 367 278 367 Q252 367 234 385 Q216 403 216 429 Q216 455 234 472.5 Q252 490 278 490 Q303 490 321.5 472.5 Q340 455 340 429 Z M29 290 L527 290 L527 210 L29 210 L29 290 Z M340 71 Q340 45 322 27 Q304 9 278 9 Q252 9 234 27 Q216 45 216 71 Q216 97 234 115 Q252 133 278 133 Q304 133 322 115 Q340 97 340 71 Z " />
<glyph glyph-name="oslash" unicode="&#xf8;" horiz-adv-x="586" d="M40 -29 L101 49 Q64 81 41.5 127.5 Q19 174 19 231 Q19 302 51.5 356 Q84 410 138 441 L194 474 Q253 508 321 508 Q350 508 378 500.5 Q406 493 429 479 L494 563 L548 528 L485 446 Q521 414 543.5 367.5 Q566 321 566 264 Q566 192 533 138.5 Q500 85 448 54 L390 22 Q362 6 330 -2.5 Q298 -11 264 -11 Q235 -11 207.5 -3.5 Q180 4 156 17 L94 -65 L40 -29 Z M361 385 Q341 400 316.5 408.5 Q292 417 264 417 Q230 417 209 403 Q180 380 164.5 343.5 Q149 307 149 264 Q149 235 157.5 208.5 Q166 182 183 162 L361 385 Z M225 111 Q265 80 321 80 Q349 80 374 91 Q403 116 419.5 152.5 Q436 189 436 231 Q436 260 427.5 286.5 Q419 313 404 334 L225 111 Z " />
<glyph glyph-name="ugrave" unicode="&#xf9;" horiz-adv-x="554" d="M374 56 Q363 48 350 39 Q337 30 326 24 L314 16 Q263 -11 213 -11 Q181 -11 152 -0.5 Q123 10 100.5 30 Q78 50 65 79 Q52 108 52 146 L52 414 L23 465 L179 508 L179 185 Q179 134 211 107 Q243 80 288 80 Q300 80 313 82.5 Q326 85 339 91 Q347 96 355 103 Q363 110 371 119 L371 414 L342 465 L497 508 L497 0 L374 0 L374 56 Z M145 697 L237 731 L347 569 L286 543 L145 697 Z " />
<glyph glyph-name="uacute" unicode="&#xfa;" horiz-adv-x="554" d="M374 56 Q363 48 350 39 Q337 30 326 24 L314 16 Q263 -11 213 -11 Q181 -11 152 -0.5 Q123 10 100.5 30 Q78 50 65 79 Q52 108 52 146 L52 414 L23 465 L179 508 L179 185 Q179 134 211 107 Q243 80 288 80 Q300 80 313 82.5 Q326 85 339 91 Q347 96 355 103 Q363 110 371 119 L371 414 L342 465 L497 508 L497 0 L374 0 L374 56 Z M205 569 L315 731 L407 697 L266 543 L205 569 Z " />
<glyph glyph-name="ucircumflex" unicode="&#xfb;" horiz-adv-x="554" d="M374 56 Q363 48 350 39 Q337 30 326 24 L314 16 Q263 -11 213 -11 Q181 -11 152 -0.5 Q123 10 100.5 30 Q78 50 65 79 Q52 108 52 146 L52 414 L23 465 L179 508 L179 185 Q179 134 211 107 Q243 80 288 80 Q300 80 313 82.5 Q326 85 339 91 Q347 96 355 103 Q363 110 371 119 L371 414 L342 465 L497 508 L497 0 L374 0 L374 56 Z M119 586 L257 721 L296 721 L433 585 L387 547 L277 635 L164 548 L119 586 Z " />
<glyph glyph-name="udieresis" unicode="&#xfc;" horiz-adv-x="554" d="M374 56 Q363 48 350 39 Q337 30 326 24 L314 16 Q263 -11 213 -11 Q181 -11 152 -0.5 Q123 10 100.5 30 Q78 50 65 79 Q52 108 52 146 L52 414 L23 465 L179 508 L179 185 Q179 134 211 107 Q243 80 288 80 Q300 80 313 82.5 Q326 85 339 91 Q347 96 355 103 Q363 110 371 119 L371 414 L342 465 L497 508 L497 0 L374 0 L374 56 Z M434 619 Q434 595 416.5 578 Q399 561 375 561 Q351 561 334 578 Q317 595 317 619 Q317 642 334.5 660 Q352 678 375 678 Q399 678 416.5 660.5 Q434 643 434 619 Z M235 619 Q235 595 218 578 Q201 561 177 561 Q153 561 135.5 578 Q118 595 118 619 Q118 642 136 660 Q154 678 177 678 Q200 678 217.5 660.5 Q235 643 235 619 Z " />
<glyph glyph-name="yacute" unicode="&#xfd;" horiz-adv-x="498" d="M197 15 L-7 496 L130 496 L265 176 L380 447 L361 496 L505 496 L213 -195 L102 -195 L197 15 Z M177 569 L287 731 L379 697 L238 543 L177 569 Z " />
<glyph glyph-name="thorn" unicode="&#xfe;" horiz-adv-x="573" d="M56 647 L27 698 L183 740 L183 457 Q201 472 225 481.5 Q249 491 272 494 Q289 500 308 503.5 Q327 507 347 505 Q389 501 426.5 481.5 Q464 462 492.5 430.5 Q521 399 538 356.5 Q555 314 555 264 Q555 192 522 136.5 Q489 81 436 52 L380 19 Q327 -11 266 -11 Q221 -11 183 13 L183 -195 L56 -195 L56 647 Z M183 132 Q207 107 239 93.5 Q271 80 308 80 Q322 80 336.5 81.5 Q351 83 362 91 Q392 113 409 150 Q426 187 426 231 Q426 271 412 305 Q398 339 374 363.5 Q350 388 318 402 Q286 416 250 416 Q230 416 214.5 410 Q199 404 183 390 L183 132 Z " />
<glyph glyph-name="ydieresis" unicode="&#xff;" horiz-adv-x="498" d="M197 15 L-7 496 L130 496 L265 176 L380 447 L361 496 L505 496 L213 -195 L102 -195 L197 15 Z M406 619 Q406 595 388.5 578 Q371 561 347 561 Q323 561 306 578 Q289 595 289 619 Q289 642 306.5 660 Q324 678 347 678 Q371 678 388.5 660.5 Q406 643 406 619 Z M207 619 Q207 595 190 578 Q173 561 149 561 Q125 561 107.5 578 Q90 595 90 619 Q90 642 108 660 Q126 678 149 678 Q172 678 189.5 660.5 Q207 643 207 619 Z " />
<glyph glyph-name="OE" unicode="&#x152;" horiz-adv-x="1020" d="M538 16 Q467 -15 387 -15 Q309 -15 242.5 13.5 Q176 42 126.5 90.5 Q77 139 49 205 Q21 271 21 346 Q21 447 70 529 Q119 611 201 659 L260 694 Q301 717 347.5 730 Q394 743 447 743 Q478 743 507.5 739 Q537 735 565 728 L992 728 L955 629 L673 629 L673 426 L982 426 L945 327 L673 327 L673 99 L1002 99 L965 0 L538 0 L538 16 Z M538 611 Q506 627 468 636 Q430 645 387 645 Q357 645 327.5 640 Q298 635 275 621 Q220 583 189.5 519.5 Q159 456 159 381 Q159 319 181 265 Q203 211 241.5 170.5 Q280 130 332.5 106.5 Q385 83 447 83 Q471 83 494.5 86.5 Q518 90 538 99 L538 611 Z " />
<glyph glyph-name="oe" unicode="&#x153;" horiz-adv-x="826" d="M799 85 Q755 44 692.5 16 Q630 -12 555 -11 Q519 -11 480 1.5 Q441 14 406 39 Q372 18 336.5 3.5 Q301 -11 257 -11 Q210 -11 167 6.5 Q124 24 91 55.5 Q58 87 38.5 131.5 Q19 176 19 231 Q19 310 55 364 Q91 418 148 449 L189 474 Q213 488 245 498 Q277 508 313 508 Q348 508 385.5 495.5 Q423 483 458 458 Q462 461 466.5 464 Q471 467 475 469 L486 476 Q512 492 538 500 Q564 508 596 508 Q639 508 676.5 491.5 Q714 475 741.5 444.5 Q769 414 785 371 Q801 328 801 276 L801 227 L445 227 L447 218 Q452 188 467.5 162.5 Q483 137 505.5 118.5 Q528 100 556.5 89 Q585 78 617 78 Q663 78 698.5 93.5 Q734 109 772 138 L799 85 Z M358 102 Q339 129 327 162 Q315 195 315 230 Q315 268 325.5 305.5 Q336 343 361 377 Q342 394 315 405 Q288 416 256 416 Q229 416 208 402 Q187 388 173 366 Q159 344 152 317 Q145 290 145 264 Q145 228 156.5 194.5 Q168 161 189 135.5 Q210 110 239 95 Q268 80 302 80 Q333 80 358 102 Z M691 309 Q680 357 643.5 387.5 Q607 418 553 418 Q502 418 476 386 Q450 354 443 309 L691 309 Z " />
<glyph glyph-name="Scaron" unicode="&#x160;" horiz-adv-x="532" d="M347 14 Q295 -15 232 -15 Q177 -15 123.5 0.5 Q70 16 25 49 L70 164 Q121 125 173 103.5 Q225 82 291 82 Q310 82 324.5 91.5 Q339 101 349.5 115.5 Q360 130 365.5 148 Q371 166 371 183 Q371 217 357.5 239.5 Q344 262 322 277.5 Q300 293 271.5 303.5 Q243 314 213 324 Q180 335 148 349 Q116 363 91 384.5 Q66 406 50.5 437 Q35 468 35 514 Q35 574 63.5 616.5 Q92 659 131 681 L192 716 Q216 730 242 736.5 Q268 743 297 743 Q348 743 397.5 727.5 Q447 712 489 683 L444 568 Q399 602 348.5 623.5 Q298 645 241 645 Q225 645 212 636.5 Q199 628 190 615 Q181 602 176.5 586.5 Q172 571 172 556 Q172 522 185 500.5 Q198 479 219.5 464.5 Q241 450 269.5 440.5 Q298 431 328 421 Q361 410 393.5 396 Q426 382 451.5 360 Q477 338 493 305.5 Q509 273 509 225 Q509 170 482.5 123 Q456 76 407 48 L347 14 Z M109 908 L155 947 L266 859 L378 947 L423 908 L286 773 L246 773 L109 908 Z " />
<glyph glyph-name="scaron" unicode="&#x161;" horiz-adv-x="405" d="M255 10 Q217 -11 172 -11 Q93 -11 28 34 L68 137 Q98 116 137 97 Q176 78 214 78 Q233 78 244.5 91 Q256 104 256 122 Q256 146 246.5 161 Q237 176 221.5 185.5 Q206 195 185.5 201.5 Q165 208 144 215 Q123 222 103 231 Q83 240 67 254 Q51 268 41.5 289.5 Q32 311 32 342 Q32 377 49.5 407 Q67 437 98 454 L139 478 Q160 489 183 498.5 Q206 508 232 508 Q269 508 303 496.5 Q337 485 366 465 L328 367 Q304 385 269 401.5 Q234 418 201 418 Q190 418 178 413 Q169 408 163.5 397 Q158 386 158 375 Q159 355 168.5 342 Q178 329 192.5 320 Q207 311 225 305 Q243 299 263 293 Q286 286 307.5 276.5 Q329 267 345.5 252 Q362 237 372 215 Q382 193 382 161 Q382 113 357 82.5 Q332 52 297 33 L255 10 Z M45 682 L91 720 L202 632 L314 720 L359 682 L222 547 L182 547 L45 682 Z " />
<glyph glyph-name="Ydieresis" unicode="&#x178;" horiz-adv-x="638" d="M254 290 L-12 728 L148 728 L338 410 L495 673 L476 728 L652 728 L388 294 L388 0 L254 0 L254 290 Z M477 846 Q477 821 459.5 804.5 Q442 788 418 788 Q394 788 377 804.5 Q360 821 360 846 Q360 869 377.5 886.5 Q395 904 418 904 Q442 904 459.5 886.5 Q477 869 477 846 Z M278 846 Q278 821 261 804.5 Q244 788 220 788 Q196 788 178.5 805 Q161 822 161 846 Q161 869 179 886.5 Q197 904 220 904 Q243 904 260.5 886.5 Q278 869 278 846 Z " />
<glyph glyph-name="Zcaron" unicode="&#x17d;" horiz-adv-x="589" d="M16 50 L381 628 L23 628 L61 728 L563 728 L563 678 L199 99 L582 99 L544 0 L16 0 L16 50 Z M137 908 L183 947 L294 859 L406 947 L451 908 L314 773 L274 773 L137 908 Z " />
<glyph glyph-name="zcaron" unicode="&#x17e;" horiz-adv-x="458" d="M18 46 L263 404 L22 404 L57 496 L431 496 L431 449 L185 92 L449 92 L414 0 L18 0 L18 46 Z M72 682 L118 720 L229 632 L341 720 L386 682 L249 547 L209 547 L72 682 Z " />
<glyph glyph-name="florin" unicode="&#x192;" horiz-adv-x="576" d="M2 -70 Q18 -72 38.5 -75 Q59 -78 77 -78 Q94 -78 112.5 -75.5 Q131 -73 145 -67 Q166 -47 175 -17 Q184 13 191 50 L254 404 L144 404 L144 496 L273 496 L288 567 Q297 610 318.5 639 Q340 668 365 683 L386 695 Q398 702 416 708.5 Q434 715 453.5 720 Q473 725 491.5 728.5 Q510 732 525 732 Q549 732 572 727 L572 638 Q567 638 552.5 639 Q538 640 525 640 Q516 640 503.5 640 Q491 640 477.5 639 Q464 638 451.5 637 Q439 636 431 635 Q419 621 411.5 601 Q404 581 399 556 L387 496 L530 496 L530 404 L372 404 L314 71 Q303 7 278.5 -43 Q254 -93 209 -119 L152 -152 Q132 -163 108 -169.5 Q84 -176 52 -176 Q31 -176 2 -168 L2 -70 Z " />
<glyph glyph-name="circumflex" unicode="&#x2c6;" horiz-adv-x="500" d="M93 586 L231 721 L270 721 L407 585 L361 547 L251 635 L138 548 L93 586 Z " />
<glyph glyph-name="tilde" unicode="&#x2dc;" horiz-adv-x="500" d="M87 583 Q100 618 125.5 645 Q151 672 191 672 Q207 672 221.5 666.5 Q236 661 250.5 655 Q265 649 280 643.5 Q295 638 310 638 Q329 638 340.5 650.5 Q352 663 357 679 L412 658 Q407 640 397.5 623.5 Q388 607 375.5 594 Q363 581 346.5 573 Q330 565 310 565 Q294 565 278.5 570.5 Q263 576 248 582.5 Q233 589 217.5 594.5 Q202 600 187 600 Q169 600 158 588 Q147 576 141 561 L87 583 Z " />
<glyph glyph-name="endash" unicode="&#x2013;" horiz-adv-x="500" d="M0 303 L500 303 L500 209 L0 209 L0 303 Z " />
<glyph glyph-name="emdash" unicode="&#x2014;" horiz-adv-x="1000" d="M0 303 L1000 303 L1000 209 L0 209 L0 303 Z " />
<glyph glyph-name="quoteleft" unicode="&#x2018;" horiz-adv-x="179" d="M176 740 Q157 714 142.5 687 Q128 660 121 631 Q133 623 141.5 610 Q150 597 150 580 Q150 553 133.5 536.5 Q117 520 90 520 Q62 520 45.5 539 Q29 558 29 586 Q29 638 60 682 Q91 726 135 758 L176 740 Z " />
<glyph glyph-name="quoteright" unicode="&#x2019;" horiz-adv-x="179" d="M4 538 Q23 564 37.5 591.5 Q52 619 59 648 Q47 656 38 668.5 Q29 681 29 698 Q29 725 46 741.5 Q63 758 89 758 Q118 758 134 739 Q150 720 150 693 Q150 640 119.5 596 Q89 552 45 520 L4 538 Z " />
<glyph glyph-name="quotesinglbase" unicode="&#x201a;" horiz-adv-x="179" d="M4 -110 Q23 -84 37.5 -57 Q52 -30 59 -1 Q47 7 38 20 Q29 33 29 50 Q29 77 46 93.5 Q63 110 89 110 Q118 110 134 91 Q150 72 150 44 Q150 -8 119.5 -52.5 Q89 -97 45 -128 L4 -110 Z " />
<glyph glyph-name="quotedblleft" unicode="&#x201c;" horiz-adv-x="339" d="M176 740 Q157 714 142.5 687 Q128 660 121 631 Q133 623 141.5 610 Q150 597 150 580 Q150 553 133.5 536.5 Q117 520 90 520 Q62 520 45.5 539 Q29 558 29 586 Q29 638 60 682 Q91 726 135 758 L176 740 Z M335 740 Q316 714 301.5 687 Q287 660 280 631 Q292 623 301 610 Q310 597 310 580 Q310 553 293 536.5 Q276 520 250 520 Q222 520 205.5 539 Q189 558 189 586 Q189 638 219.5 682 Q250 726 294 758 L335 740 Z " />
<glyph glyph-name="quotedblright" unicode="&#x201d;" horiz-adv-x="339" d="M163 538 Q182 564 196.5 591.5 Q211 619 218 648 Q206 656 197.5 668.5 Q189 681 189 698 Q189 725 206 741.5 Q223 758 249 758 Q277 758 293.5 739 Q310 720 310 693 Q310 640 279.5 596 Q249 552 204 520 L163 538 Z M4 538 Q23 564 37.5 591.5 Q52 619 59 648 Q47 656 38 668.5 Q29 681 29 698 Q29 725 46 741.5 Q63 758 89 758 Q118 758 134 739 Q150 720 150 693 Q150 640 119.5 596 Q89 552 45 520 L4 538 Z " />
<glyph glyph-name="quotedblbase" unicode="&#x201e;" horiz-adv-x="339" d="M163 -110 Q182 -84 196.5 -57 Q211 -30 218 -1 Q206 7 197.5 20 Q189 33 189 50 Q189 77 206 93.5 Q223 110 249 110 Q277 110 293.5 91 Q310 72 310 44 Q310 -8 279.5 -52.5 Q249 -97 204 -128 L163 -110 Z M4 -110 Q23 -84 37.5 -57 Q52 -30 59 -1 Q47 7 38 20 Q29 33 29 50 Q29 77 46 93.5 Q63 110 89 110 Q118 110 134 91 Q150 72 150 44 Q150 -8 119.5 -52.5 Q89 -97 45 -128 L4 -110 Z " />
<glyph glyph-name="dagger" unicode="&#x2020;" horiz-adv-x="576" d="M235 427 L62 427 L62 520 L235 520 L235 728 L341 728 L341 520 L514 520 L514 427 L341 427 L341 -184 L235 -184 L235 427 Z " />
<glyph glyph-name="daggerdbl" unicode="&#x2021;" horiz-adv-x="576" d="M235 24 L62 24 L62 117 L235 117 L235 427 L62 427 L62 520 L235 520 L235 728 L341 728 L341 520 L514 520 L514 427 L341 427 L341 117 L514 117 L514 24 L341 24 L341 -184 L235 -184 L235 24 Z " />
<glyph glyph-name="bullet" unicode="&#x2022;" horiz-adv-x="576" d="M433 337 Q433 307 421.5 280.5 Q410 254 390.5 234.5 Q371 215 344.5 203.5 Q318 192 288 192 Q258 192 231.5 203.5 Q205 215 185.5 234.5 Q166 254 154.5 280.5 Q143 307 143 337 Q143 367 154.5 393.5 Q166 420 185.5 439.5 Q205 459 231.5 470.5 Q258 482 288 482 Q318 482 344.5 470.5 Q371 459 390.5 439.5 Q410 420 421.5 393.5 Q433 367 433 337 Z " />
<glyph glyph-name="ellipsis" unicode="&#x2026;" horiz-adv-x="1000" d="M911 69 Q911 31 885.5 12 Q860 -7 829 -7 Q798 -7 777 10.5 Q756 28 756 59 Q756 97 782 116 Q808 135 838 135 Q869 135 890 118 Q911 101 911 69 Z M578 69 Q578 31 552.5 12 Q527 -7 496 -7 Q465 -7 444 10.5 Q423 28 423 59 Q423 97 449 116 Q475 135 505 135 Q536 135 557 118 Q578 101 578 69 Z M245 69 Q245 31 219.5 12 Q194 -7 163 -7 Q132 -7 111 10.5 Q90 28 90 59 Q90 97 116 116 Q142 135 172 135 Q203 135 224 118 Q245 101 245 69 Z " />
<glyph glyph-name="perthousand" unicode="&#x2030;" horiz-adv-x="1201" d="M233 341 Q204 326 165 326 Q124 326 95.5 342.5 Q67 359 49 386.5 Q31 414 23 449 Q15 484 15 522 Q15 551 19.5 578.5 Q24 606 34 630 Q44 654 59.5 673 Q75 692 97 704 L143 728 Q157 735 173.5 739 Q190 743 210 743 Q252 743 280.5 726.5 Q309 710 327 682 Q345 654 353 618.5 Q361 583 361 546 Q361 517 356.5 489.5 Q352 462 342 438 Q332 414 316 395 Q300 376 277 364 L233 341 Z M259 522 Q259 550 255 578 Q251 606 240.5 627.5 Q230 649 213 662.5 Q196 676 170 676 Q162 676 156.5 670.5 Q151 665 146 659 Q130 638 124 607.5 Q118 577 118 546 Q118 517 122.5 489.5 Q127 462 137.5 440.5 Q148 419 165.5 406 Q183 393 209 393 Q216 393 221.5 398.5 Q227 404 232 411 Q247 431 253 461 Q259 491 259 522 Z M583 760 L657 760 L242 -32 L168 -32 L583 760 Z M682 7 Q653 -8 614 -8 Q573 -8 544.5 8.5 Q516 25 498 52.5 Q480 80 472 115 Q464 150 464 188 Q464 217 468.5 244.5 Q473 272 483 296 Q493 320 508.5 339 Q524 358 546 370 L592 394 Q606 401 622.5 405 Q639 409 659 409 Q701 409 729.5 392.5 Q758 376 776 348 Q794 320 802 284.5 Q810 249 810 212 Q810 183 805.5 155.5 Q801 128 791 104 Q781 80 765 61 Q749 42 726 30 L682 7 Z M708 188 Q708 216 704 244 Q700 272 689.5 293.5 Q679 315 662 328.5 Q645 342 619 342 Q611 342 605.5 336.5 Q600 331 595 325 Q579 304 573 273.5 Q567 243 567 212 Q567 183 571.5 155.5 Q576 128 586.5 106.5 Q597 85 614.5 72 Q632 59 658 59 Q665 59 670.5 64.5 Q676 70 681 77 Q696 97 702 127 Q708 157 708 188 Z M1058 7 Q1029 -8 990 -8 Q949 -8 920.5 8.5 Q892 25 874 52.5 Q856 80 848 115 Q840 150 840 188 Q840 217 844.5 244.5 Q849 272 859 296 Q869 320 884.5 339 Q900 358 922 370 L968 394 Q982 401 998.5 405 Q1015 409 1035 409 Q1077 409 1105.5 392.5 Q1134 376 1152 348 Q1170 320 1178 284.5 Q1186 249 1186 212 Q1186 183 1181.5 155.5 Q1177 128 1167 104 Q1157 80 1141 61 Q1125 42 1102 30 L1058 7 Z M1084 188 Q1084 216 1080 244 Q1076 272 1065.5 293.5 Q1055 315 1038 328.5 Q1021 342 995 342 Q987 342 981.5 336.5 Q976 331 971 325 Q955 304 949 273.5 Q943 243 943 212 Q943 183 947.5 155.5 Q952 128 962.5 106.5 Q973 85 990.5 72 Q1008 59 1034 59 Q1041 59 1046.5 64.5 Q1052 70 1057 77 Q1072 97 1078 127 Q1084 157 1084 188 Z " />
<glyph glyph-name="guilsinglleft" unicode="&#x2039;" horiz-adv-x="242" d="M16 231 L173 450 L218 429 L131 264 L226 81 L169 48 L16 231 Z " />
<glyph glyph-name="guilsinglright" unicode="&#x203a;" horiz-adv-x="242" d="M24 66 L112 231 L16 415 L73 447 L226 265 L68 45 L24 66 Z " />
<glyph glyph-name="Euro" unicode="&#x20ac;" horiz-adv-x="576" d="M568 50 Q544 34 521 22 Q498 10 473.5 1.5 Q449 -7 421 -11 Q393 -15 358 -15 Q295 -15 247 6.5 Q199 28 165 64.5 Q131 101 110 149 Q89 197 80 251 L-10 251 L-10 323 L72 323 L72 346 Q72 363 73 379 Q74 395 76 412 L-10 412 L-10 485 L91 485 Q105 543 135.5 593 Q166 643 217 675 Q230 683 248.5 694 Q267 705 279 711 Q310 727 340.5 735 Q371 743 406 743 Q487 743 557 711 L521 588 Q480 617 442 631 Q404 645 352 645 Q327 645 309 635 Q291 625 274 606 Q253 581 240.5 549.5 Q228 518 222 485 L462 485 L462 412 L212 412 Q211 404 210.5 396.5 Q210 389 210 381 Q210 354 213 323 L418 323 L418 251 L229 251 Q237 218 252 188 Q267 158 288.5 134.5 Q310 111 339.5 97 Q369 83 407 83 Q450 83 486.5 92.5 Q523 102 558 120 L568 50 Z " />
<glyph glyph-name="trademark" unicode="&#x2122;" horiz-adv-x="892" d="M129 658 L0 658 L29 728 L360 728 L332 658 L230 658 L230 328 L129 328 L129 658 Z M406 686 L374 728 L496 728 L634 555 L771 728 L857 728 L857 328 L758 328 L758 582 L643 438 L599 438 L484 582 L484 328 L406 328 L406 686 Z " />
</font>
</svg>
