<?xml version="1.0" encoding="UTF-8"?>
<svg xmlns="http://www.w3.org/2000/svg" xmlns:xlink="http://www.w3.org/1999/xlink" version="1.2" >
<font id="Brewery No 2 Medium Italic">
<font-face  font-family="Brewery No 2" units-per-em="1000" ascent="770" descent="-230" font-style="italic" font-weight="500" font-stretch="normal" cap-height="728" x-height="487" underline-position="-111" underline-thickness="31" />
<missing-glyph  horiz-adv-x="485" d="M210 174 L263 174 L263 111 L210 111 L210 174 Z M211 238 Q211 263 213.5 281 Q216 299 222.5 313.5 Q229 328 240 341 Q251 354 268 369 Q298 397 306 414.5 Q314 432 314 449 Q314 483 292.5 506 Q271 529 242 529 Q213 529 191.5 508.5 Q170 488 165 439 Q153 441 141 443 Q129 445 117 447 Q124 516 159 546.5 Q194 577 245 577 Q297 577 330 543.5 Q363 510 363 453 Q363 422 351 397.5 Q339 373 303 340 Q284 323 274.5 312 Q265 301 261 289.5 Q257 278 257 262.5 Q257 247 257 222 L211 222 L211 238 Z M438 47 L438 632 L47 632 L47 47 L438 47 Z M0 680 L485 680 L485 0 L0 0 L0 680 Z " />
<glyph glyph-name="space" unicode="&#x20;" horiz-adv-x="279" d="" />
<glyph glyph-name="exclam" unicode="&#x21;" horiz-adv-x="288" d="M157 728 L249 728 L169 201 L90 201 L157 728 Z M160 51 Q160 24 140 10 Q120 -4 99 -4 Q80 -4 66.5 8.5 Q53 21 53 42 Q53 68 73.5 82.5 Q94 97 115 97 Q135 97 147.5 85 Q160 73 160 51 Z " />
<glyph glyph-name="quotedbl" unicode="&#x22;" horiz-adv-x="413" d="M298 728 L378 728 L332 470 L272 470 L298 728 Z M156 728 L237 728 L189 470 L129 470 L156 728 Z " />
<glyph glyph-name="numbersign" unicode="&#x23;" horiz-adv-x="549" d="M115 236 L5 236 L5 293 L129 293 L166 434 L56 434 L56 492 L180 492 L241 728 L306 728 L246 492 L383 492 L443 728 L509 728 L448 492 L557 492 L557 434 L433 434 L397 294 L506 294 L506 236 L382 236 L322 0 L257 0 L317 236 L180 236 L118 0 L55 0 L115 236 Z M332 293 L368 434 L230 434 L194 293 L332 293 Z " />
<glyph glyph-name="dollar" unicode="&#x24;" horiz-adv-x="549" d="M194 -15 Q145 -12 99 8 Q53 28 16 66 L57 142 Q85 112 122 87.5 Q159 63 204 53 L244 343 L239 345 Q211 357 184 371 Q157 385 136 404.5 Q115 424 102 451.5 Q89 479 89 518 Q89 583 121.5 631 Q154 679 205 704 L247 723 Q260 729 273 733.5 Q286 738 300 740 L309 806 L365 806 L356 743 Q398 738 438 719 Q478 700 514 669 L473 591 Q450 616 417.5 639 Q385 662 346 673 L309 408 L310 408 Q340 395 369 380.5 Q398 366 421 345 Q444 324 458 294.5 Q472 265 472 223 Q472 154 437 103 Q402 52 348 26 L305 6 Q279 -6 251 -12 L242 -78 L186 -78 L194 -15 Z M376 196 Q376 245 353 272.5 Q330 300 297 318 L259 48 Q280 49 302 59 Q334 79 355 114.5 Q376 150 376 196 Z M183 546 Q183 502 204 475.5 Q225 449 257 432 L291 680 Q269 678 249 670 Q221 651 202 618.5 Q183 586 183 546 Z " />
<glyph glyph-name="percent" unicode="&#x25;" horiz-adv-x="802" d="M223 331 Q210 326 197 322.5 Q184 319 168 319 Q131 319 106.5 334 Q82 349 67 373.5 Q52 398 46 428 Q40 458 40 488 Q40 520 46 554 Q52 588 65.5 618 Q79 648 99.5 672.5 Q120 697 150 710 L183 725 Q208 736 237 736 Q274 736 298.5 721.5 Q323 707 337.5 683.5 Q352 660 358 631 Q364 602 366 573 Q366 540 360.5 505.5 Q355 471 341.5 440 Q328 409 307 384 Q286 359 255 346 L223 331 Z M293 558 Q293 574 290 596.5 Q287 619 278 639.5 Q269 660 252.5 674.5 Q236 689 209 689 Q201 689 193.5 685 Q186 681 180 676 Q162 661 149 638.5 Q136 616 128.5 591.5 Q121 567 117.5 542 Q114 517 114 497 Q114 482 116.5 459.5 Q119 437 128 416.5 Q137 396 153.5 381 Q170 366 198 366 Q207 366 214.5 370.5 Q222 375 227 380 Q243 392 255.5 411.5 Q268 431 276.5 455.5 Q285 480 289 506.5 Q293 533 293 558 Z M640 762 L693 762 L179 -34 L127 -34 L640 762 Z M617 3 Q604 -2 591 -5.5 Q578 -9 562 -9 Q525 -9 500.5 6 Q476 21 461 45.5 Q446 70 440 100 Q434 130 434 160 Q434 192 440 226 Q446 260 459.5 290 Q473 320 493.5 344.5 Q514 369 544 382 L577 397 Q602 408 631 408 Q668 408 692.5 393.5 Q717 379 731.5 355.5 Q746 332 752 303 Q758 274 760 245 Q760 212 754.5 177.5 Q749 143 735.5 112 Q722 81 701 56 Q680 31 649 18 L617 3 Z M687 230 Q687 246 684 268.5 Q681 291 672 311.5 Q663 332 646.5 346.5 Q630 361 603 361 Q595 361 587.5 357 Q580 353 574 348 Q556 333 543 310.5 Q530 288 522.5 263.5 Q515 239 511.5 214 Q508 189 508 169 Q508 154 510.5 131.5 Q513 109 522 88.5 Q531 68 547.5 53 Q564 38 592 38 Q601 38 608.5 42.5 Q616 47 621 52 Q637 64 649.5 83.5 Q662 103 670.5 127.5 Q679 152 683 178.5 Q687 205 687 230 Z " />
<glyph glyph-name="ampersand" unicode="&#x26;" horiz-adv-x="676" d="M525 -8 Q519 24 510.5 53 Q502 82 490 109 Q468 90 442 71.5 Q416 53 392 39 L379 32 Q338 9 296 -3.5 Q254 -16 208 -16 Q170 -16 137 -4.5 Q104 7 79.5 28 Q55 49 41 78.5 Q27 108 27 144 Q27 190 46.5 227 Q66 264 96.5 294.5 Q127 325 164.5 350 Q202 375 238 398 Q202 433 178 472 Q154 511 154 556 Q154 596 173 630 Q192 664 223 689.5 Q254 715 291.5 729.5 Q329 744 367 744 Q394 744 418 734 Q442 724 460 706.5 Q478 689 488.5 664.5 Q499 640 499 611 Q499 579 486.5 552.5 Q474 526 453 503 Q432 480 405 460.5 Q378 441 350 422 Q373 401 398.5 378.5 Q424 356 449.5 330.5 Q475 305 498.5 276 Q522 247 542 213 Q559 230 576.5 249.5 Q594 269 611 286 L644 250 Q626 230 607 210 Q588 190 568 169 Q583 140 594 106.5 Q605 73 617 27 L525 -8 Z M316 450 Q334 463 352 478.5 Q370 494 384 511.5 Q398 529 407 550 Q416 571 416 596 Q416 636 390 659.5 Q364 683 328 683 Q305 683 286 672 Q239 641 239 580 Q239 543 261.5 512 Q284 481 316 450 Z M470 149 Q451 185 427 215 Q403 245 377 272 Q351 299 324 323 Q297 347 272 370 Q243 349 215.5 328 Q188 307 166.5 283 Q145 259 132 231 Q119 203 119 169 Q119 141 130 118 Q141 95 160 79 Q179 63 203 54.5 Q227 46 254 46 Q314 46 367.5 74 Q421 102 470 149 Z " />
<glyph glyph-name="quotesingle" unicode="&#x27;" horiz-adv-x="279" d="M158 728 L240 728 L192 470 L132 470 L158 728 Z " />
<glyph glyph-name="parenleft" unicode="&#x28;" horiz-adv-x="309" d="M173 -202 Q115 -111 84.5 -8.5 Q54 94 54 199 Q54 336 107 450.5 Q160 565 257 670 Q287 704 317 733 L350 710 Q250 599 193 470.5 Q136 342 136 199 Q136 105 158.5 9 Q181 -87 226 -169 L173 -202 Z " />
<glyph glyph-name="parenright" unicode="&#x29;" horiz-adv-x="309" d="M-52 -179 Q48 -68 105 60.5 Q162 189 162 332 Q162 426 139 522 Q116 618 72 700 L124 733 Q183 642 213 539.5 Q243 437 243 332 Q243 195 190.5 80.5 Q138 -34 41 -139 Q26 -156 11 -171.5 Q-4 -187 -20 -202 L-52 -179 Z " />
<glyph glyph-name="asterisk" unicode="&#x2a;" horiz-adv-x="498" d="M120 383 L232 518 L84 574 L118 627 L258 575 L282 743 L341 743 L317 575 L476 628 L490 574 L327 518 L403 383 L354 352 L277 484 L165 352 L120 383 Z " />
<glyph glyph-name="plus" unicode="&#x2b;" horiz-adv-x="566" d="M250 217 L34 217 L34 283 L250 283 L250 500 L316 500 L316 283 L532 283 L532 217 L316 217 L316 0 L250 0 L250 217 Z " />
<glyph glyph-name="comma" unicode="&#x2c;" horiz-adv-x="279" d="M-4 -133 Q22 -104 42.5 -69.5 Q63 -35 73 1 Q62 8 55 18 Q48 28 48 42 Q48 68 66 82.5 Q84 97 105 97 Q126 97 141 83.5 Q156 70 156 42 Q156 18 146.5 -8 Q137 -34 119.5 -59 Q102 -84 79 -107 Q56 -130 29 -148 L-4 -133 Z " />
<glyph glyph-name="hyphen" unicode="&#x2d;" horiz-adv-x="338" d="M32 284 L301 284 L292 221 L24 221 L32 284 Z " />
<glyph glyph-name="period" unicode="&#x2e;" horiz-adv-x="279" d="M156 51 Q156 24 136 10 Q116 -4 95 -4 Q76 -4 62.5 8.5 Q49 21 49 42 Q49 68 69.5 82.5 Q90 97 111 97 Q131 97 143.5 85 Q156 73 156 51 Z " />
<glyph glyph-name="slash" unicode="&#x2f;" horiz-adv-x="398" d="M408 744 L457 744 L5 -16 L-41 -16 L408 744 Z " />
<glyph glyph-name="zero" unicode="0" horiz-adv-x="549" d="M305 5 Q285 -5 263.5 -10.5 Q242 -16 219 -16 Q160 -16 120.5 11 Q81 38 58 81 Q35 124 25.5 177 Q16 230 16 282 Q16 342 26.5 406 Q37 470 59.5 528 Q82 586 117 632 Q152 678 202 702 L244 722 Q283 743 330 743 Q391 743 429.5 716 Q468 689 490.5 646 Q513 603 521.5 550 Q530 497 532 445 Q532 384 521.5 320 Q511 256 488.5 198.5 Q466 141 431 95 Q396 49 346 24 L305 5 Z M439 430 Q439 451 437 478 Q435 505 429.5 532.5 Q424 560 414 586 Q404 612 387.5 632.5 Q371 653 348 665.5 Q325 678 294 678 Q280 678 266 672 Q252 666 240 658 Q204 631 179.5 588 Q155 545 140 495 Q125 445 118 393 Q111 341 111 296 Q111 265 116 222.5 Q121 180 136 141 Q151 102 180 75 Q209 48 257 48 Q272 48 286 54 Q300 60 312 69 Q345 92 369 132.5 Q393 173 408.5 222.5 Q424 272 431.5 326 Q439 380 439 430 Z " />
<glyph glyph-name="one" unicode="1" horiz-adv-x="549" d="M326 630 L121 524 L95 581 L384 728 L430 728 L328 0 L238 0 L326 630 Z " />
<glyph glyph-name="two" unicode="2" horiz-adv-x="549" d="M6 39 L291 304 Q350 359 386.5 413.5 Q423 468 423 533 Q423 565 412 592 Q401 619 381.5 638.5 Q362 658 333.5 669 Q305 680 271 680 Q228 680 190 662.5 Q152 645 111 617 L92 660 Q113 674 137 687.5 Q161 701 190 714 Q222 728 253 736 Q284 744 314 744 Q357 744 394 731 Q431 718 458.5 694 Q486 670 502 634.5 Q518 599 518 554 Q518 478 475.5 411.5 Q433 345 349 269 L126 67 L463 71 L427 0 L2 0 L6 39 Z " />
<glyph glyph-name="three" unicode="3" horiz-adv-x="549" d="M311 10 Q263 -15 205 -15 Q143 -15 99.5 8 Q56 31 16 73 L59 151 Q76 130 95 110.5 Q114 91 136.5 77 Q159 63 185.5 54.5 Q212 46 244 46 Q278 46 301 59 Q338 79 358 117 Q378 155 378 197 Q378 227 368 254.5 Q358 282 340 302.5 Q322 323 297.5 335 Q273 347 245 347 L190 347 L216 409 L290 409 Q314 409 335.5 420 Q357 431 373.5 449 Q390 467 399.5 491 Q409 515 409 542 Q409 569 400 593.5 Q391 618 373.5 637.5 Q356 657 330 668.5 Q304 680 270 680 Q231 680 196 665.5 Q161 651 125 626 L111 671 Q128 682 149 693.5 Q170 705 200 719 Q229 731 256.5 737.5 Q284 744 312 744 Q351 744 386 732 Q421 720 446.5 697.5 Q472 675 487 642 Q502 609 502 567 Q502 496 464.5 452.5 Q427 409 370 383 Q416 362 443.5 316.5 Q471 271 471 214 Q471 150 438.5 102.5 Q406 55 354 30 L311 10 Z " />
<glyph glyph-name="four" unicode="4" horiz-adv-x="549" d="M340 164 L-13 164 L-7 201 L420 728 L507 728 L96 231 L96 230 L349 230 L377 427 L465 427 L437 230 L512 230 L503 164 L428 164 L405 0 L317 0 L340 164 Z " />
<glyph glyph-name="five" unicode="5" horiz-adv-x="549" d="M319 10 Q268 -14 210 -14 Q153 -14 100 7 Q47 28 0 67 L50 144 Q85 105 136.5 77 Q188 49 251 49 Q267 49 282.5 51.5 Q298 54 312 62 Q353 86 378 131 Q403 176 403 228 Q403 261 392.5 293.5 Q382 326 361.5 351 Q341 376 310 391.5 Q279 407 238 407 Q205 407 171.5 397 Q138 387 107 370 L67 386 L165 728 L550 728 L514 657 L216 659 L151 431 Q223 464 287 464 Q333 464 371.5 447.5 Q410 431 438 402.5 Q466 374 482 334 Q498 294 498 248 Q498 211 488 178 Q478 145 459.5 117.5 Q441 90 416 68 Q391 46 361 31 L319 10 Z " />
<glyph glyph-name="six" unicode="6" horiz-adv-x="549" d="M321 6 Q298 -5 272 -10.5 Q246 -16 218 -16 Q172 -16 133.5 1.5 Q95 19 67 49.5 Q39 80 23.5 121 Q8 162 8 208 Q8 256 26.5 305.5 Q45 355 76 403 Q127 480 198.5 563 Q270 646 359 728 L454 728 Q382 659 316 584 Q250 509 193 431 Q218 445 245 453.5 Q272 462 301 462 Q345 462 382 445 Q419 428 446 398.5 Q473 369 488 330 Q503 291 503 247 Q503 211 492.5 177 Q482 143 463 114.5 Q444 86 418.5 63.5 Q393 41 363 26 L321 6 Z M103 225 Q103 194 113 162.5 Q123 131 143 105.5 Q163 80 193 64 Q223 48 263 48 Q279 48 293 50.5 Q307 53 320 61 Q361 86 387 129.5 Q413 173 413 228 Q413 259 403 290.5 Q393 322 373 347.5 Q353 373 323 388.5 Q293 404 254 404 Q238 404 222.5 401 Q207 398 193 391 Q154 366 128.5 321 Q103 276 103 225 Z " />
<glyph glyph-name="seven" unicode="7" horiz-adv-x="549" d="M459 661 L75 657 L110 728 L556 728 L551 690 L174 0 L84 0 L459 661 Z " />
<glyph glyph-name="eight" unicode="8" horiz-adv-x="549" d="M310 5 Q290 -5 266.5 -10.5 Q243 -16 219 -16 Q180 -16 145 -2 Q110 12 83.5 37.5 Q57 63 42 98.5 Q27 134 27 176 Q27 239 59 286 Q91 333 142 358 Q158 366 166 369.5 Q174 373 181 375 Q139 395 115.5 436 Q92 477 92 528 Q92 587 122.5 633.5 Q153 680 203 703 L246 723 Q266 732 287.5 738 Q309 744 332 744 Q369 744 401.5 730.5 Q434 717 458 693 Q482 669 495.5 636.5 Q509 604 509 565 Q509 508 479.5 463.5 Q450 419 403 396 Q390 389 373 382 Q419 362 446.5 316.5 Q474 271 474 214 Q474 150 440.5 101 Q407 52 353 26 L310 5 Z M419 545 Q419 569 411 593.5 Q403 618 387 637.5 Q371 657 347 669.5 Q323 682 291 682 Q267 682 247 669 Q227 656 212 635.5 Q197 615 189 590.5 Q181 566 181 543 Q181 520 188.5 496 Q196 472 211.5 452.5 Q227 433 250.5 420.5 Q274 408 306 408 Q328 408 348.5 419 Q369 430 384.5 448.5 Q400 467 409.5 492 Q419 517 419 545 Z M380 196 Q380 223 371.5 249.5 Q363 276 346 297.5 Q329 319 303 332.5 Q277 346 243 346 Q229 346 217 341.5 Q205 337 194 331 Q162 311 142.5 276 Q123 241 123 199 Q123 173 131.5 146 Q140 119 156.5 97.5 Q173 76 198 62 Q223 48 256 48 Q270 48 283.5 52.5 Q297 57 308 64 Q340 86 360 120 Q380 154 380 196 Z " />
<glyph glyph-name="nine" unicode="9" horiz-adv-x="549" d="M96 0 Q168 70 234 144.5 Q300 219 357 297 Q306 266 248 266 Q205 266 168 283 Q131 300 104 329 Q77 358 62 397.5 Q47 437 47 481 Q47 517 57.5 551 Q68 585 86.5 613.5 Q105 642 130.5 664.5 Q156 687 186 702 L229 722 Q276 744 331 744 Q376 744 414.5 726.5 Q453 709 481 678.5 Q509 648 525 607 Q541 566 541 520 Q541 472 523 422.5 Q505 373 474 325 Q424 248 353.5 166 Q283 84 192 0 L96 0 Z M447 503 Q447 534 437 565.5 Q427 597 406.5 622.5 Q386 648 356 664 Q326 680 286 680 Q271 680 257 677.5 Q243 675 229 667 Q188 642 162 598.5 Q136 555 136 500 Q136 468 146 437 Q156 406 176.5 380.5 Q197 355 226.5 339.5 Q256 324 295 324 Q311 324 327 327 Q343 330 357 337 Q396 362 421.5 406.5 Q447 451 447 503 Z " />
<glyph glyph-name="colon" unicode="&#x3a;" horiz-adv-x="280" d="M156 51 Q156 24 136 10 Q116 -4 95 -4 Q76 -4 62.5 8.5 Q49 21 49 42 Q49 68 69.5 82.5 Q90 97 111 97 Q131 97 143.5 85 Q156 73 156 51 Z M208 410 Q208 383 187.5 369 Q167 355 146 355 Q127 355 113.5 367.5 Q100 380 100 401 Q100 428 120.5 442 Q141 456 162 456 Q182 456 195 444 Q208 432 208 410 Z " />
<glyph glyph-name="semicolon" unicode="&#x3b;" horiz-adv-x="280" d="M-4 -133 Q22 -104 42.5 -69.5 Q63 -35 73 1 Q62 8 55 18 Q48 28 48 42 Q48 68 66 82.5 Q84 97 105 97 Q126 97 141 83.5 Q156 70 156 42 Q156 18 146.5 -8 Q137 -34 119.5 -59 Q102 -84 79 -107 Q56 -130 29 -148 L-4 -133 Z M208 410 Q208 383 187.5 369 Q167 355 146 355 Q127 355 113.5 367.5 Q100 380 100 401 Q100 428 120.5 442 Q141 456 162 456 Q182 456 195 444 Q208 432 208 410 Z " />
<glyph glyph-name="less" unicode="&#x3c;" horiz-adv-x="566" d="M35 216 L35 284 L531 507 L531 436 L115 250 L531 64 L531 -7 L35 216 Z " />
<glyph glyph-name="equal" unicode="&#x3d;" horiz-adv-x="566" d="M34 372 L532 372 L532 306 L34 306 L34 372 Z M34 194 L532 194 L532 128 L34 128 L34 194 Z " />
<glyph glyph-name="greater" unicode="&#x3e;" horiz-adv-x="566" d="M35 64 L451 250 L35 436 L35 507 L531 284 L531 216 L35 -7 L35 64 Z " />
<glyph glyph-name="question" unicode="&#x3f;" horiz-adv-x="486" d="M199 284 Q204 321 223.5 343.5 Q243 366 268 385 Q288 399 309.5 412 Q331 425 348.5 442.5 Q366 460 377.5 484.5 Q389 509 389 545 Q389 572 380 596 Q371 620 354 638 Q337 656 311.5 667 Q286 678 253 678 Q227 678 202.5 671.5 Q178 665 153 654 Q140 648 128 640.5 Q116 633 105 625 L93 669 Q108 680 127 691.5 Q146 703 169 714 Q199 728 232 736 Q265 744 300 744 Q338 744 371.5 731.5 Q405 719 430 696 Q455 673 469.5 640 Q484 607 484 567 Q484 525 471 496.5 Q458 468 437.5 447.5 Q417 427 392 411.5 Q367 396 344 380 Q321 364 304.5 343 Q288 322 283 293 L270 201 L188 201 L199 284 Z M260 51 Q260 24 240 10 Q220 -4 199 -4 Q179 -4 166 8.5 Q153 21 153 42 Q153 68 173 82.5 Q193 97 215 97 Q235 97 247.5 85 Q260 73 260 51 Z " />
<glyph glyph-name="at" unicode="&#x40;" horiz-adv-x="834" d="M766 129 Q705 63 617 24 Q529 -15 428 -15 Q346 -15 274.5 13.5 Q203 42 150.5 92 Q98 142 67.5 210.5 Q37 279 37 359 Q37 439 69.5 509 Q102 579 158 631 Q214 683 287.5 713 Q361 743 444 743 Q520 743 584.5 718.5 Q649 694 696 650 Q743 606 770 544.5 Q797 483 797 409 Q797 361 781 314.5 Q765 268 735.5 232 Q706 196 663.5 174 Q621 152 568 152 Q537 152 516.5 170.5 Q496 189 494 227 Q463 195 425 174.5 Q387 154 339 154 Q304 154 277.5 166.5 Q251 179 233.5 200 Q216 221 207 249 Q198 277 198 308 Q198 356 216 405.5 Q234 455 267.5 495 Q301 535 348 560.5 Q395 586 454 586 Q492 586 522 567.5 Q552 549 567 519 L582 570 L634 570 L567 329 Q560 305 552 276.5 Q544 248 544 233 Q544 197 579 197 Q620 197 651 214 Q682 231 703 259.5 Q724 288 734.5 324.5 Q745 361 745 400 Q745 466 721.5 521 Q698 576 656 615.5 Q614 655 555.5 677 Q497 699 428 699 Q356 699 294 673.5 Q232 648 186.5 603.5 Q141 559 115 498.5 Q89 438 89 368 Q89 297 116.5 235.5 Q144 174 192 127.5 Q240 81 304.5 54.5 Q369 28 444 28 Q537 28 606 63.5 Q675 99 734 162 L766 129 Z M350 197 Q377 197 402 208.5 Q427 220 449 239.5 Q471 259 487.5 286 Q504 313 514 343 Q522 369 530 397 Q538 425 546 454 Q542 490 517 517.5 Q492 545 446 545 Q404 545 369 522.5 Q334 500 309 465.5 Q284 431 270.5 390 Q257 349 257 311 Q257 261 280.5 229 Q304 197 350 197 Z " />
<glyph glyph-name="A" unicode="A" horiz-adv-x="678" d="M335 689 L322 728 L420 728 L640 0 L543 0 L472 240 L164 240 L55 39 L63 0 L-42 0 L335 689 Z M451 305 L362 607 L200 305 L451 305 Z " />
<glyph glyph-name="B" unicode="B" horiz-adv-x="549" d="M116 689 L98 728 L327 728 Q363 728 393.5 715.5 Q424 703 446 681.5 Q468 660 480.5 630 Q493 600 493 565 Q493 519 470.5 475 Q448 431 405 405 L390 396 Q383 392 377 391 Q429 376 462 332.5 Q495 289 495 228 Q495 174 467.5 127 Q440 80 391 49 L349 27 Q305 0 247 0 L19 0 L116 689 Z M295 409 Q323 407 343 420 Q369 437 386 467 Q403 497 403 531 Q403 559 394 583 Q385 607 368.5 625 Q352 643 330 653 Q308 663 282 663 L200 663 L164 409 L295 409 Z M289 65 Q316 65 340 78 Q368 100 385.5 133.5 Q403 167 403 206 Q403 235 393 261 Q383 287 365 306 Q347 325 322.5 336 Q298 347 270 347 L156 347 L116 65 L289 65 Z " />
<glyph glyph-name="C" unicode="C" horiz-adv-x="659" d="M581 40 Q537 14 484.5 -0.5 Q432 -15 376 -15 Q305 -15 242 10.5 Q179 36 131.5 82 Q84 128 56 192.5 Q28 257 28 335 Q28 393 44.5 446.5 Q61 500 91 545 Q121 590 162 625.5 Q203 661 252 684 L294 705 Q332 723 372.5 733 Q413 743 455 743 Q561 743 662 685 L621 608 Q577 642 524 661.5 Q471 681 410 681 Q381 681 352.5 675 Q324 669 298 655 Q259 634 227 602.5 Q195 571 171.5 532.5 Q148 494 135.5 449.5 Q123 405 123 357 Q123 298 144 242 Q165 186 203.5 143 Q242 100 296 74 Q350 48 416 48 Q462 48 501.5 58.5 Q541 69 579 87 L581 40 Z " />
<glyph glyph-name="D" unicode="D" horiz-adv-x="687" d="M116 689 L98 728 L338 728 Q406 728 464.5 701.5 Q523 675 566 629 Q609 583 633.5 522.5 Q658 462 658 394 Q658 293 607.5 209.5 Q557 126 467 69 L425 48 Q385 25 340.5 12.5 Q296 0 248 0 L19 0 L116 689 Z M288 66 Q323 66 356.5 73 Q390 80 418 97 Q489 142 527.5 215.5 Q566 289 566 374 Q566 433 545 485.5 Q524 538 488 577 Q452 616 403 638.5 Q354 661 297 661 L201 661 L118 66 L288 66 Z " />
<glyph glyph-name="E" unicode="E" horiz-adv-x="522" d="M116 689 L98 728 L272 728 L531 728 L497 661 L201 661 L166 410 L477 410 L442 344 L156 344 L118 67 L468 67 L439 0 L19 0 L116 689 Z " />
<glyph glyph-name="F" unicode="F" horiz-adv-x="509" d="M116 689 L98 728 L524 728 L490 661 L201 661 L163 383 L456 383 L422 317 L153 317 L108 0 L19 0 L116 689 Z " />
<glyph glyph-name="G" unicode="G" horiz-adv-x="757" d="M576 33 Q528 11 478.5 -1.5 Q429 -14 373 -14 Q302 -14 239.5 11.5 Q177 37 130 83 Q83 129 55.5 193.5 Q28 258 28 335 Q28 393 44.5 446.5 Q61 500 91 545.5 Q121 591 162 626.5 Q203 662 252 685 L295 706 Q333 724 373 734 Q413 744 456 744 Q525 744 590 720.5 Q655 697 712 648 L670 569 Q620 620 554 650 Q488 680 410 680 Q379 680 352 674.5 Q325 669 298 655 Q259 634 226.5 603 Q194 572 171 533.5 Q148 495 135.5 450.5 Q123 406 123 358 Q123 298 144.5 242 Q166 186 204.5 143 Q243 100 297.5 74 Q352 48 418 48 Q456 48 487 55.5 Q518 63 550 77 Q564 83 578 91 L607 294 L351 294 L385 360 L706 360 L667 81 Q655 73 643 66.5 Q631 60 618 55 L576 33 Z " />
<glyph glyph-name="H" unicode="H" horiz-adv-x="669" d="M116 689 L98 728 L210 728 L166 412 L516 412 L555 689 L538 728 L650 728 L548 0 L458 0 L506 343 L156 343 L108 0 L19 0 L116 689 Z " />
<glyph glyph-name="I" unicode="I" horiz-adv-x="239" d="M121 689 L103 728 L215 728 L113 0 L24 0 L121 689 Z " />
<glyph glyph-name="J" unicode="J" horiz-adv-x="273" d="M-103 -82 L-53 -82 Q-39 -82 -26 -79 Q-13 -76 -1 -71 Q28 -50 46.5 -19 Q65 12 70 49 L160 689 L142 728 L255 728 L163 70 Q155 14 124.5 -29 Q94 -72 48 -98 L5 -121 Q-45 -149 -101 -149 L-103 -82 Z " />
<glyph glyph-name="K" unicode="K" horiz-adv-x="596" d="M116 689 L98 728 L210 728 L160 367 L173 380 L495 689 L493 728 L626 728 L288 404 Q365 315 443.5 213.5 Q522 112 578 0 L468 0 Q418 95 348 184.5 Q278 274 210 351 L150 300 L108 0 L19 0 L116 689 Z " />
<glyph glyph-name="L" unicode="L" horiz-adv-x="469" d="M116 689 L98 728 L157 728 L210 728 L118 66 L438 66 L408 0 L19 0 L116 689 Z " />
<glyph glyph-name="M" unicode="M" horiz-adv-x="832" d="M119 683 L93 728 L202 728 L416 349 L735 728 L809 728 L718 0 L629 0 L703 588 L410 242 L368 242 L174 586 L83 0 L12 0 L119 683 Z " />
<glyph glyph-name="N" unicode="N" horiz-adv-x="704" d="M119 683 L93 728 L204 728 L538 145 L602 677 Q602 682 600.5 689.5 Q599 697 596.5 704.5 Q594 712 591 718.5 Q588 725 586 728 L680 728 L589 0 L512 0 L177 585 L83 0 L12 0 L119 683 Z " />
<glyph glyph-name="O" unicode="O" horiz-adv-x="811" d="M517 22 Q481 5 440.5 -5 Q400 -15 358 -15 Q288 -15 228 12 Q168 39 123.5 86 Q79 133 53.5 196.5 Q28 260 28 333 Q28 392 44.5 445 Q61 498 90.5 543 Q120 588 161 624 Q202 660 250 685 L292 705 Q368 743 450 743 Q522 743 582.5 716 Q643 689 687.5 641.5 Q732 594 757 530.5 Q782 467 782 394 Q782 335 765.5 281.5 Q749 228 719.5 182.5 Q690 137 649.5 101.5 Q609 66 561 42 L517 22 Z M517 73 Q555 94 586.5 125.5 Q618 157 640.5 196 Q663 235 675.5 280 Q688 325 688 373 Q688 430 669 485.5 Q650 541 613.5 584 Q577 627 525 653.5 Q473 680 407 680 Q378 680 348.5 674 Q319 668 293 654 Q255 633 223.5 601.5 Q192 570 169.5 531 Q147 492 134.5 447 Q122 402 122 354 Q122 297 141.5 241.5 Q161 186 197 143 Q233 100 285 73.5 Q337 47 403 47 Q432 47 461.5 53 Q491 59 517 73 Z " />
<glyph glyph-name="P" unicode="P" horiz-adv-x="547" d="M116 689 L98 728 L328 728 Q369 728 405 711.5 Q441 695 468 666.5 Q495 638 511 600 Q527 562 527 519 Q527 456 494.5 405 Q462 354 410 325 L369 302 Q343 288 314.5 280 Q286 272 254 272 L147 272 L108 0 L67 0 L19 0 L116 689 Z M297 337 Q314 337 330.5 340.5 Q347 344 361 354 Q397 379 416.5 417 Q436 455 436 497 Q436 528 424.5 557.5 Q413 587 392.5 610 Q372 633 344 647.5 Q316 662 283 662 L201 662 L156 337 L297 337 Z " />
<glyph glyph-name="Q" unicode="Q" horiz-adv-x="811" d="M718 -41 Q667 -36 628.5 -13.5 Q590 9 558 41 Q553 39 545.5 35.5 Q538 32 533 29 L518 21 Q441 -15 355 -15 Q285 -15 225.5 12.5 Q166 40 122 87.5 Q78 135 53 198.5 Q28 262 28 334 Q28 393 44.5 446 Q61 499 90.5 544 Q120 589 161 625 Q202 661 250 686 L292 706 Q330 724 370.5 734 Q411 744 453 744 Q524 744 584 716.5 Q644 689 688 642 Q732 595 757 531 Q782 467 782 395 Q782 299 740 220 Q698 141 629 87 Q655 61 685 43 Q715 25 750 20 L718 -41 Z M203 306 Q251 318 295 318 Q344 318 382.5 303 Q421 288 455 263 Q489 238 519.5 205.5 Q550 173 583 138 Q630 178 659 241.5 Q688 305 688 373 Q688 431 669 486.5 Q650 542 613.5 585 Q577 628 524 654 Q471 680 404 680 Q375 680 347.5 675 Q320 670 295 656 Q256 635 224.5 603 Q193 571 170.5 532 Q148 493 135.5 448 Q123 403 123 355 Q123 298 141.5 243 Q160 188 195 144.5 Q230 101 282 74.5 Q334 48 400 48 Q434 48 464 57 Q494 66 524 82 Q499 110 472.5 141 Q446 172 414.5 198 Q383 224 345 241 Q307 258 261 258 Q241 258 220 255.5 Q199 253 176 248 L203 306 Z " />
<glyph glyph-name="R" unicode="R" horiz-adv-x="560" d="M116 689 L98 728 L329 728 Q369 728 403.5 713 Q438 698 463.5 672.5 Q489 647 503 612 Q517 577 517 537 Q517 480 488.5 428.5 Q460 377 408 346 L389 334 Q358 314 317 314 L538 0 L425 0 L223 298 L150 298 L108 0 L19 0 L116 689 Z M299 359 Q327 359 353 371 Q385 393 405 430 Q425 467 425 508 Q425 541 414.5 569 Q404 597 385 617.5 Q366 638 339.5 650 Q313 662 282 662 L201 662 L159 359 L299 359 Z " />
<glyph glyph-name="S" unicode="S" horiz-adv-x="501" d="M280 6 Q259 -4 235.5 -10 Q212 -16 188 -16 Q134 -16 83 4.5 Q32 25 -9 66 L32 142 Q67 104 116 76 Q165 48 225 48 Q252 48 277 59 Q309 79 330 114.5 Q351 150 351 196 Q351 230 339 254 Q327 278 308 294.5 Q289 311 264 322.5 Q239 334 214 345 Q186 357 159 371 Q132 385 111 404.5 Q90 424 77 451.5 Q64 479 64 518 Q64 583 96 631 Q128 679 179 704 L222 723 Q264 744 311 744 Q359 744 404 724 Q449 704 489 669 L448 591 Q433 607 413.5 623 Q394 639 371 652 Q348 665 322.5 672.5 Q297 680 269 680 Q244 680 224 670 Q196 651 177 618.5 Q158 586 158 546 Q158 515 169 493 Q180 471 198 455.5 Q216 440 238.5 429 Q261 418 285 408 Q315 395 344 380.5 Q373 366 396 345 Q419 324 433 294.5 Q447 265 447 223 Q447 154 412 103 Q377 52 323 26 L280 6 Z " />
<glyph glyph-name="T" unicode="T" horiz-adv-x="552" d="M273 661 L53 661 L88 728 L593 728 L558 661 L363 661 L270 0 L180 0 L273 661 Z " />
<glyph glyph-name="U" unicode="U" horiz-adv-x="656" d="M423 17 Q357 -16 279 -16 Q232 -16 190 -0.5 Q148 15 116.5 44 Q85 73 66 114.5 Q47 156 47 207 Q47 215 47 222.5 Q47 230 49 240 L113 689 L95 728 L207 728 L142 259 Q140 251 140 244 Q140 237 140 230 Q140 194 152.5 161 Q165 128 188 103 Q211 78 245 63.5 Q279 49 322 49 Q361 49 392 61 Q423 73 459 94 L542 689 L526 728 L638 728 L547 83 Q527 71 505 58.5 Q483 46 466 38 L423 17 Z " />
<glyph glyph-name="V" unicode="V" horiz-adv-x="639" d="M41 728 L139 728 L304 130 L596 689 L589 728 L694 728 L311 0 L245 0 L41 728 Z " />
<glyph glyph-name="W" unicode="W" horiz-adv-x="946" d="M41 728 L139 728 L304 130 L440 390 L345 728 L443 728 L608 130 L900 689 L892 728 L997 728 L613 0 L549 0 L466 300 L311 0 L245 0 L41 728 Z " />
<glyph glyph-name="X" unicode="X" horiz-adv-x="605" d="M253 376 L63 728 L170 728 L324 440 L516 689 L512 728 L633 728 L359 379 L564 0 L456 0 L288 314 L43 0 L-42 0 L253 376 Z " />
<glyph glyph-name="Y" unicode="Y" horiz-adv-x="601" d="M251 291 L48 728 L155 728 L317 373 L537 689 L531 728 L646 728 L340 298 L299 0 L210 0 L251 291 Z " />
<glyph glyph-name="Z" unicode="Z" horiz-adv-x="561" d="M-18 34 L448 661 L71 661 L105 728 L578 728 L573 694 L108 66 L508 66 L474 0 L-22 0 L-18 34 Z " />
<glyph glyph-name="bracketleft" unicode="&#x5b;" horiz-adv-x="332" d="M160 728 L367 728 L359 674 L231 674 L117 -133 L246 -133 L238 -187 L31 -187 L160 728 Z " />
<glyph glyph-name="backslash" unicode="&#x5c;" horiz-adv-x="398" d="M65 744 L113 744 L349 -16 L302 -16 L65 744 Z " />
<glyph glyph-name="bracketright" unicode="&#x5d;" horiz-adv-x="332" d="M-37 -133 L91 -133 L204 674 L75 674 L83 728 L291 728 L162 -187 L-46 -187 L-37 -133 Z " />
<glyph glyph-name="asciicircum" unicode="&#x5e;" horiz-adv-x="566" d="M251 705 L315 705 L528 416 L454 416 L283 635 L112 416 L38 416 L251 705 Z " />
<glyph glyph-name="underscore" unicode="&#x5f;" horiz-adv-x="500" d="M-54 -112 L436 -112 L432 -145 L-58 -145 L-54 -112 Z " />
<glyph glyph-name="grave" unicode="&#x60;" horiz-adv-x="500" d="M200 694 L267 718 L349 560 L304 542 L200 694 Z " />
<glyph glyph-name="a" unicode="a" horiz-adv-x="549" d="M373 34 Q368 30 359.5 26 Q351 22 344 17 L330 11 Q286 -12 235 -12 Q189 -12 150.5 6.5 Q112 25 84.5 56.5 Q57 88 41.5 129.5 Q26 171 26 218 Q26 301 67.5 362 Q109 423 172 454 L213 475 Q261 498 314 498 Q349 498 383 486.5 Q417 475 445 449 Q447 447 448 446 Q449 445 451 443 L462 486 L521 498 L452 0 L369 0 L373 34 Z M418 366 Q397 395 362 417 Q327 439 279 439 Q263 439 247 436 Q231 433 217 425 Q170 397 142.5 346.5 Q115 296 115 239 Q115 204 126.5 170 Q138 136 159.5 109 Q181 82 213 65 Q245 48 286 48 Q336 48 378 81 L418 366 Z " />
<glyph glyph-name="b" unicode="b" horiz-adv-x="549" d="M124 679 L108 717 L218 740 L178 453 Q185 456 192.5 461 Q200 466 206 468 L220 476 Q264 499 314 499 Q359 499 397.5 480.5 Q436 462 463.5 430.5 Q491 399 507 357 Q523 315 523 269 Q523 187 481.5 125.5 Q440 64 376 33 Q335 12 301 0.5 Q267 -11 234 -11 Q177 -11 130.5 16 Q84 43 40 81 L124 679 Z M131 119 Q154 87 190.5 68 Q227 49 271 49 Q288 49 303.5 52 Q319 55 333 63 Q381 92 407.5 141 Q434 190 434 247 Q434 284 422 318.5 Q410 353 387.5 379.5 Q365 406 332.5 422 Q300 438 260 438 Q230 438 203 426 Q195 421 187 415 Q179 409 171 402 L131 119 Z " />
<glyph glyph-name="c" unicode="c" horiz-adv-x="470" d="M406 32 Q383 19 359 9 Q305 -11 252 -11 Q204 -11 162.5 6.5 Q121 24 90 55 Q59 86 41.5 128.5 Q24 171 24 221 Q24 260 35 295 Q46 330 65.5 360 Q85 390 112.5 414 Q140 438 172 454 L214 473 Q240 485 267 492 Q294 499 323 499 Q396 499 459 460 L424 395 Q395 414 361 426 Q327 438 284 438 Q266 438 249 435 Q232 432 217 424 Q171 399 142.5 349.5 Q114 300 114 243 Q114 205 126.5 170 Q139 135 163 108 Q187 81 221.5 64.5 Q256 48 300 48 Q326 48 353.5 54.5 Q381 61 406 72 L406 32 Z " />
<glyph glyph-name="d" unicode="d" horiz-adv-x="549" d="M372 34 Q365 30 357 26 Q349 22 342 18 L328 11 Q281 -11 235 -11 Q189 -11 150.5 7.5 Q112 26 84 57 Q56 88 40.5 129.5 Q25 171 25 218 Q25 301 66.5 362.5 Q108 424 171 455 L212 475 Q235 487 261 493 Q287 499 313 499 Q344 499 374 488 Q404 477 430 454 L462 679 L447 717 L555 740 L451 0 L368 0 L372 34 Z M417 366 Q394 399 357.5 419 Q321 439 278 439 Q262 439 246 435.5 Q230 432 217 424 Q193 409 174 388.5 Q155 368 142 343.5 Q129 319 122 292.5 Q115 266 115 240 Q115 205 126.5 171 Q138 137 159.5 110 Q181 83 212.5 66 Q244 49 285 49 Q309 49 332.5 56 Q356 63 378 81 L417 366 Z " />
<glyph glyph-name="e" unicode="e" horiz-adv-x="506" d="M453 57 Q407 27 356 7 Q305 -13 242 -12 Q195 -12 155.5 4.5 Q116 21 86.5 50.5 Q57 80 40.5 121 Q24 162 24 211 Q24 252 36.5 289.5 Q49 327 70 358 Q91 389 117 413 Q143 437 170 452 L202 470 Q229 484 257 491.5 Q285 499 317 499 Q386 499 431 467.5 Q476 436 476 376 Q476 338 457 309.5 Q438 281 406 261 L376 243 Q335 218 269 206 Q203 194 119 192 Q127 129 172.5 88.5 Q218 48 290 48 Q332 48 367 61 Q402 74 439 96 L453 57 Z M292 439 Q253 439 221 422 Q189 405 165.5 377.5 Q142 350 128.5 314.5 Q115 279 115 242 Q193 243 254 249.5 Q315 256 353 280 Q372 292 383 313.5 Q394 335 394 359 Q394 398 367 418.5 Q340 439 292 439 Z " />
<glyph glyph-name="f" unicode="f" horiz-adv-x="317" d="M53 487 L132 487 L146 581 Q151 617 171.5 648 Q192 679 224 696 L267 718 Q284 727 302 733 Q320 739 339 739 Q344 739 355.5 739.5 Q367 740 374 740 L376 678 Q350 678 324.5 677.5 Q299 677 273 669 Q257 657 246.5 639 Q236 621 233 598 L217 487 L344 487 L335 426 L208 426 L155 48 Q146 -17 125.5 -68 Q105 -119 59 -146 L20 -169 Q1 -180 -22.5 -186.5 Q-46 -193 -71 -193 Q-83 -193 -97 -191.5 Q-111 -190 -123 -186 L-125 -120 Q-111 -123 -96 -125.5 Q-81 -128 -66 -128 Q-29 -128 -6 -119.5 Q17 -111 31.5 -92.5 Q46 -74 54 -44 Q62 -14 68 30 L124 426 L22 426 L53 487 Z " />
<glyph glyph-name="g" unicode="g" horiz-adv-x="461" d="M267 -178 Q221 -201 157 -201 Q129 -201 97 -194.5 Q65 -188 37.5 -173 Q10 -158 -8 -133.5 Q-26 -109 -26 -73 Q-26 -41 -8 -12.5 Q10 16 54 37 Q58 39 66 42 Q74 45 85 49 Q88 50 96.5 53.5 Q105 57 116.5 61.5 Q128 66 140 71 Q152 76 162 79 Q152 91 152 106 Q152 125 163.5 137.5 Q175 150 195 163 Q189 162 178 163.5 Q167 165 154 170 Q137 175 120.5 182.5 Q104 190 93 199 Q70 219 58 248.5 Q46 278 46 311 Q46 363 72.5 401.5 Q99 440 141 461 L182 480 Q220 499 260 499 Q277 499 291 495.5 Q305 492 319 487 L459 487 L452 429 L375 429 Q392 413 401 389.5 Q410 366 410 340 Q410 298 388 264.5 Q366 231 331 208 Q311 193 293 183 Q275 173 261 165 Q247 157 239 150 Q231 143 231 135 Q231 122 243 112 Q255 102 272.5 92.5 Q290 83 311 72.5 Q332 62 349.5 47.5 Q367 33 379 13 Q391 -7 391 -35 Q391 -75 368.5 -107 Q346 -139 308 -159 L267 -178 Z M329 325 Q329 347 322 368.5 Q315 390 301 407 Q287 424 267 435 Q247 446 220 446 Q211 446 201.5 443 Q192 440 184 435 Q161 419 145 392 Q129 365 129 332 Q129 308 136.5 287 Q144 266 158 249.5 Q172 233 190.5 222.5 Q209 212 232 210 Q251 209 273 222 Q296 237 312.5 264.5 Q329 292 329 325 Z M187 55 Q138 36 104 16 Q78 2 68.5 -14.5 Q59 -31 59 -51 Q59 -76 71.5 -94 Q84 -112 104.5 -124 Q125 -136 150 -141.5 Q175 -147 200 -147 Q233 -147 260 -136 Q304 -108 304 -60 Q304 -33 292.5 -15.5 Q281 2 263.5 14 Q246 26 225.5 35 Q205 44 187 55 Z " />
<glyph glyph-name="h" unicode="h" horiz-adv-x="527" d="M124 679 L109 717 L218 740 L173 423 Q187 434 203 445 Q219 456 232 463 L247 471 Q299 499 349 499 Q380 499 406.5 488.5 Q433 478 451 458 Q469 438 477.5 408.5 Q486 379 481 342 L433 0 L348 0 L392 316 Q400 376 370 407 Q340 438 290 438 Q274 438 256.5 434 Q239 430 221 420 Q207 412 194 400.5 Q181 389 167 375 L114 0 L29 0 L124 679 Z " />
<glyph glyph-name="i" unicode="i" horiz-adv-x="213" d="M208 620 Q208 607 201.5 597 Q195 587 185.5 580 Q176 573 164 569.5 Q152 566 141 566 Q123 566 112 576.5 Q101 587 101 604 Q101 617 107 627.5 Q113 638 123 645 Q133 652 145 656 Q157 660 168 660 Q185 660 196.5 649 Q208 638 208 620 Z M91 438 L75 476 L184 499 L114 0 L29 0 L91 438 Z " />
<glyph glyph-name="j" unicode="j" horiz-adv-x="222" d="M216 620 Q216 607 210 597 Q204 587 194 580 Q184 573 172.5 569.5 Q161 566 150 566 Q132 566 120.5 576.5 Q109 587 109 605 Q109 618 115.5 628 Q122 638 131.5 645 Q141 652 153 656 Q165 660 176 660 Q194 660 205 649 Q216 638 216 620 Z M-92 -138 Q-84 -138 -73 -137.5 Q-62 -137 -50.5 -136 Q-39 -135 -29 -133.5 Q-19 -132 -13 -129 Q9 -113 18.5 -92.5 Q28 -72 31 -47 L100 438 L85 476 L193 499 L118 -39 Q112 -76 91 -107.5 Q70 -139 37 -156 L-5 -178 Q-22 -188 -41 -193.5 Q-60 -199 -80 -199 L-90 -199 L-92 -138 Z " />
<glyph glyph-name="k" unicode="k" horiz-adv-x="468" d="M124 679 L109 717 L218 740 L150 255 L169 272 L358 453 L352 487 L476 487 L256 276 Q310 215 360.5 146 Q411 77 449 0 L348 0 Q316 61 273.5 119.5 Q231 178 186 229 L141 196 L114 0 L29 0 L124 679 Z " />
<glyph glyph-name="l" unicode="l" horiz-adv-x="213" d="M124 679 L109 717 L218 740 L114 0 L29 0 L124 679 Z " />
<glyph glyph-name="m" unicode="m" horiz-adv-x="757" d="M90 435 L75 473 L183 499 L173 428 Q185 440 201.5 451.5 Q218 463 230 470 L245 479 Q265 490 286 494.5 Q307 499 325 499 Q363 499 393 478.5 Q423 458 431 421 Q446 435 465.5 448.5 Q485 462 499 470 L515 478 Q535 489 555.5 494 Q576 499 596 499 Q622 499 645 489.5 Q668 480 684 462.5 Q700 445 707.5 420 Q715 395 711 363 L659 0 L575 0 L622 336 Q629 384 604.5 411 Q580 438 539 438 Q528 438 515 435 Q502 432 491 425 Q477 417 464 405 Q451 393 440 376 L387 0 L302 0 L350 336 Q356 384 331.5 411 Q307 438 266 438 Q241 438 218 425 Q189 407 166 376 L113 0 L29 0 L90 435 Z " />
<glyph glyph-name="n" unicode="n" horiz-adv-x="527" d="M90 435 L75 475 L183 499 L172 422 Q185 433 200 443 Q215 453 228 461 L243 470 Q298 499 349 499 Q380 499 406.5 488.5 Q433 478 451 458 Q469 438 477.5 408.5 Q486 379 481 342 L433 0 L348 0 L392 316 Q400 376 370 407 Q340 438 290 438 Q274 438 256 434 Q238 430 220 420 Q207 412 194 400.5 Q181 389 167 375 L114 0 L29 0 L90 435 Z " />
<glyph glyph-name="o" unicode="o" horiz-adv-x="565" d="M367 20 Q338 6 307 -3 Q276 -12 243 -12 Q198 -12 158 5 Q118 22 88.5 52 Q59 82 41.5 123.5 Q24 165 24 214 Q24 283 58.5 345.5 Q93 408 157 445 L196 467 Q254 499 320 499 Q365 499 405 482 Q445 465 474.5 434.5 Q504 404 521 362 Q538 320 538 271 Q538 202 504.5 141 Q471 80 408 42 L367 20 Z M360 67 Q401 99 426 146.5 Q451 194 451 248 Q451 288 438 322.5 Q425 357 401.5 382.5 Q378 408 346 423 Q314 438 276 438 Q256 438 238.5 434 Q221 430 204 419 Q161 391 137.5 341 Q114 291 114 238 Q114 199 127 164.5 Q140 130 162.5 104.5 Q185 79 216.5 64.5 Q248 50 286 50 Q324 50 360 67 Z " />
<glyph glyph-name="p" unicode="p" horiz-adv-x="549" d="M91 438 L75 476 L183 499 L175 453 Q207 471 241.5 485 Q276 499 314 499 Q360 499 398.5 480.5 Q437 462 465 430.5 Q493 399 508 357 Q523 315 523 268 Q523 193 484.5 129 Q446 65 376 31 L336 13 Q311 1 286.5 -5.5 Q262 -12 236 -12 Q173 -12 119 34 L86 -197 L1 -197 L91 438 Z M131 119 Q155 87 190.5 67.5 Q226 48 268 48 Q279 48 289 50 Q299 52 309 54 Q336 62 359.5 81.5 Q383 101 399.5 127 Q416 153 425.5 184 Q435 215 435 247 Q435 284 423 319 Q411 354 388.5 380.5 Q366 407 334 423 Q302 439 262 439 Q236 439 213.5 430 Q191 421 171 404 L131 119 Z " />
<glyph glyph-name="q" unicode="q" horiz-adv-x="549" d="M371 32 Q366 29 358.5 25.5 Q351 22 344 17 L330 11 Q286 -12 235 -12 Q189 -12 150.5 6.5 Q112 25 84.5 56.5 Q57 88 41.5 129.5 Q26 171 26 218 Q26 301 67.5 362 Q109 423 172 454 L213 475 Q261 498 314 498 Q349 498 383 486.5 Q417 475 445 449 Q447 447 448 446 Q449 445 451 443 L462 486 L521 498 L424 -197 L339 -197 L371 32 Z M418 366 Q397 395 362 417 Q327 439 279 439 Q263 439 247 436 Q231 433 217 425 Q170 397 142.5 346.5 Q115 296 115 239 Q115 204 126.5 170 Q138 136 159.5 109 Q181 82 213 65 Q245 48 286 48 Q336 48 378 81 L418 366 Z " />
<glyph glyph-name="r" unicode="r" horiz-adv-x="343" d="M91 438 L75 476 L184 499 L174 428 Q185 440 200.5 451.5 Q216 463 230 470 L245 479 Q281 499 325 499 Q354 499 374 487 L344 412 L322 422 Q308 429 294.5 431.5 Q281 434 267 435 Q242 435 216 422 Q187 404 166 372 L114 0 L29 0 L91 438 Z " />
<glyph glyph-name="s" unicode="s" horiz-adv-x="380" d="M208 3 Q175 -11 144 -11 Q108 -11 74 2.5 Q40 16 11 43 L47 111 Q70 88 103.5 68 Q137 48 176 48 Q207 49 226.5 71.5 Q246 94 246 129 Q246 152 237.5 167 Q229 182 215.5 192.5 Q202 203 184.5 210.5 Q167 218 148 226 Q130 233 113.5 242.5 Q97 252 84 265 Q71 278 63 296.5 Q55 315 55 341 Q55 383 76 415 Q97 447 132 465 L165 480 Q182 487 200 492.5 Q218 498 238 498 Q270 498 300 484.5 Q330 471 356 449 L321 384 Q301 404 270.5 421.5 Q240 439 206 439 Q192 439 179 434 Q161 426 151 405.5 Q141 385 141 362 Q141 343 148.5 329.5 Q156 316 169 306 Q182 296 198 289 Q214 282 231 275 Q250 267 268.5 257 Q287 247 301 233 Q315 219 323.5 200 Q332 181 332 154 Q332 104 306 70.5 Q280 37 241 19 L208 3 Z " />
<glyph glyph-name="t" unicode="t" horiz-adv-x="317" d="M203 -4 Q143 -4 108.5 28.5 Q74 61 74 113 Q74 119 74.5 124.5 Q75 130 76 136 L118 426 L18 426 L49 487 L126 487 L145 623 L235 658 L211 487 L338 487 L329 426 L202 426 L165 159 Q164 154 164 150 Q164 146 164 142 Q164 106 188.5 81.5 Q213 57 260 57 L279 57 L248 -4 L203 -4 Z " />
<glyph glyph-name="u" unicode="u" horiz-adv-x="525" d="M353 65 Q340 54 324.5 43.5 Q309 33 297 25 L283 17 Q228 -12 176 -12 Q115 -12 79.5 25 Q44 62 44 125 Q44 131 44.5 137.5 Q45 144 46 151 L87 438 L71 476 L180 499 L134 174 Q133 169 133 163.5 Q133 158 133 152 Q133 104 160.5 77 Q188 50 235 50 Q271 50 301.5 67.5 Q332 85 358 111 L404 438 L388 476 L497 499 L427 0 L344 0 L353 65 Z " />
<glyph glyph-name="v" unicode="v" horiz-adv-x="468" d="M29 487 L121 487 L222 121 L394 452 L386 487 L484 487 L228 0 L167 0 L29 487 Z " />
<glyph glyph-name="w" unicode="w" horiz-adv-x="686" d="M29 487 L121 487 L222 121 L305 280 L247 487 L339 487 L440 121 L612 452 L604 487 L701 487 L444 0 L384 0 L330 195 L228 0 L167 0 L29 487 Z " />
<glyph glyph-name="x" unicode="x" horiz-adv-x="453" d="M174 251 L36 487 L138 487 L239 310 L356 452 L351 487 L467 487 L273 254 L421 0 L319 0 L208 195 L47 0 L-34 0 L174 251 Z " />
<glyph glyph-name="y" unicode="y" horiz-adv-x="468" d="M164 12 L29 487 L121 487 L222 121 L394 452 L386 487 L484 487 L126 -197 L49 -197 L164 12 Z " />
<glyph glyph-name="z" unicode="z" horiz-adv-x="430" d="M-6 31 L307 426 L49 426 L81 487 L428 487 L424 455 L113 62 L388 62 L357 0 L-10 0 L-6 31 Z " />
<glyph glyph-name="braceleft" unicode="&#x7b;" horiz-adv-x="388" d="M240 -187 Q206 -187 178.5 -177.5 Q151 -168 132 -150.5 Q113 -133 104.5 -107.5 Q96 -82 101 -50 L123 107 Q126 133 126.5 153 Q127 173 122 188.5 Q117 204 104 217.5 Q91 231 69 244 L77 297 Q103 310 119.5 323 Q136 336 145.5 352 Q155 368 160 387.5 Q165 407 168 433 L191 590 Q195 622 210.5 647.5 Q226 673 250 691 Q274 709 304 718.5 Q334 728 368 728 L361 673 Q315 673 293.5 645 Q272 617 267 575 L246 427 Q238 368 212.5 333.5 Q187 299 138 272 L138 269 Q179 241 194.5 207 Q210 173 202 113 L181 -35 Q178 -55 179.5 -73 Q181 -91 188.5 -104.5 Q196 -118 210 -125.5 Q224 -133 247 -133 L240 -187 Z " />
<glyph glyph-name="bar" unicode="&#x7c;" horiz-adv-x="490" d="M279 800 L350 800 L210 -200 L138 -200 L279 800 Z " />
<glyph glyph-name="braceright" unicode="&#x7d;" horiz-adv-x="388" d="M16 -133 Q62 -133 83.5 -104.5 Q105 -76 110 -35 L131 113 Q135 143 143 166 Q151 189 164 207 Q177 225 195.5 240 Q214 255 239 269 L239 272 Q198 299 182.5 333.5 Q167 368 175 427 L196 575 Q202 616 189 644.5 Q176 673 130 673 L137 728 Q171 728 199 718.5 Q227 709 245.5 691 Q264 673 272.5 647.5 Q281 622 277 590 L255 433 Q251 407 250.5 387.5 Q250 368 255 352 Q260 336 272.5 323 Q285 310 308 297 L300 244 Q274 231 258 217.5 Q242 204 232 188.5 Q222 173 217.5 153 Q213 133 209 107 L187 -50 Q182 -82 166.5 -107.5 Q151 -133 127.5 -150.5 Q104 -168 73.5 -177.5 Q43 -187 9 -187 L16 -133 Z " />
<glyph glyph-name="asciitilde" unicode="&#x7e;" horiz-adv-x="566" d="M26 179 Q30 203 40 228 Q50 253 66 273.5 Q82 294 104 307 Q126 320 153 320 Q183 320 215 308.5 Q247 297 280.5 283.5 Q314 270 348 259 Q382 248 415 248 Q447 248 466.5 270.5 Q486 293 494 321 L540 321 Q535 297 525.5 272 Q516 247 500 226.5 Q484 206 462.5 193 Q441 180 413 180 Q385 180 352.5 191 Q320 202 285.5 215.5 Q251 229 216.5 240.5 Q182 252 150 252 Q119 252 99 230 Q79 208 72 179 L26 179 Z " />
<glyph glyph-name="uni00A0" unicode="&#xa0;" horiz-adv-x="279" d="" />
<glyph glyph-name="exclamdown" unicode="&#xa1;" horiz-adv-x="288" d="M103 295 L182 295 L115 -232 L23 -232 L103 295 Z M112 445 Q112 472 132 486 Q152 500 173 500 Q192 500 205.5 487.5 Q219 475 219 454 Q219 428 198.5 413.5 Q178 399 157 399 Q137 399 124.5 411.5 Q112 424 112 445 Z " />
<glyph glyph-name="cent" unicode="&#xa2;" horiz-adv-x="549" d="M276 234 Q233 239 197 258.5 Q161 278 134.5 308.5 Q108 339 93 378.5 Q78 418 78 465 Q78 504 89 539 Q100 574 119.5 604 Q139 634 166.5 658 Q194 682 226 698 L268 717 Q303 735 346 741 L355 806 L412 806 L403 742 Q461 736 513 704 L478 639 Q459 651 438 661 Q417 671 394 677 L340 292 L354 292 Q380 292 408 298.5 Q436 305 460 316 L460 276 Q449 270 437.5 264.5 Q426 259 413 254 Q371 237 332 234 L323 169 L267 169 L276 234 Z M168 487 Q168 428 198 377 Q228 326 285 304 L338 683 Q320 683 303 680 Q286 677 271 669 Q248 656 229 637 Q210 618 196.5 594 Q183 570 175.5 542.5 Q168 515 168 487 Z " />
<glyph glyph-name="sterling" unicode="&#xa3;" horiz-adv-x="549" d="M-11 31 L11 42 Q18 47 23.5 49.5 Q29 52 35 57 Q78 86 103.5 131 Q129 176 129 229 Q129 245 127.5 262 Q126 279 123 293 L43 293 L49 344 L107 344 Q94 386 81.5 429.5 Q69 473 69 511 Q69 574 103 624 Q137 674 192 701 L234 721 Q255 732 278 738 Q301 744 326 744 Q384 744 434.5 718.5 Q485 693 529 651 L478 585 Q460 603 439.5 620.5 Q419 638 395.5 651.5 Q372 665 346 673.5 Q320 682 291 682 Q277 682 264 680 Q251 678 239 672 Q225 664 211.5 649.5 Q198 635 187 616 Q176 597 169 575.5 Q162 554 162 532 Q162 488 178 438.5 Q194 389 207 344 L412 344 L404 293 L214 293 Q216 275 217 257 Q218 239 215 221 Q206 174 180.5 136 Q155 98 120 72 Q132 74 144.5 76 Q157 78 171 78 Q191 78 208 74 Q225 70 241.5 64.5 Q258 59 275 55 Q292 51 312 51 Q356 51 391 71.5 Q426 92 461 123 L484 80 Q461 60 435 41.5 Q409 23 370 3 Q352 -5 332.5 -10.5 Q313 -16 291 -16 Q268 -16 245.5 -11 Q223 -6 200 -0.5 Q177 5 154 10 Q131 15 106 15 Q93 15 81.5 13.5 Q70 12 58 9.5 Q46 7 31.5 2.5 Q17 -2 -2 -8 L-11 31 Z " />
<glyph glyph-name="currency" unicode="&#xa4;" horiz-adv-x="549" d="M40 162 L99 218 Q87 238 79.5 264 Q72 290 71 317 Q69 361 84.5 398.5 Q100 436 128 467 L80 522 L124 562 L174 507 Q202 527 234.5 538 Q267 549 302 549 Q374 549 422 507 L484 562 L519 522 L458 467 Q472 447 478.5 421 Q485 395 487 367 Q489 325 473.5 287 Q458 249 430 218 L479 162 L435 123 L385 178 Q357 158 324 146.5 Q291 135 256 135 Q221 135 190.5 146.5 Q160 158 137 178 L75 123 L40 162 Z M426 361 Q426 389 416 413.5 Q406 438 389.5 456.5 Q373 475 349.5 485.5 Q326 496 299 496 Q266 496 235.5 482 Q205 468 181.5 444.5 Q158 421 144.5 389.5 Q131 358 132 323 Q132 295 142 270.5 Q152 246 169 228 Q186 210 209.5 199.5 Q233 189 260 189 Q293 189 323.5 202.5 Q354 216 377 239.5 Q400 263 413.5 294.5 Q427 326 426 361 Z " />
<glyph glyph-name="yen" unicode="&#xa5;" horiz-adv-x="549" d="M214 234 L32 234 L41 298 L223 298 L182 401 L55 401 L64 466 L157 466 L53 728 L155 728 L291 386 L494 689 L488 728 L600 728 L423 466 L515 466 L505 401 L381 401 L313 298 L491 298 L482 234 L303 234 L270 0 L181 0 L214 234 Z " />
<glyph glyph-name="brokenbar" unicode="&#xa6;" horiz-adv-x="490" d="M271 753 L344 753 L297 419 L225 419 L271 753 Z M201 252 L274 252 L227 -81 L154 -81 L201 252 Z " />
<glyph glyph-name="section" unicode="&#xa7;" horiz-adv-x="549" d="M282 -106 Q261 -117 239 -124.5 Q217 -132 192 -132 Q144 -132 107.5 -115.5 Q71 -99 45 -73 L92 -4 Q119 -36 156.5 -53.5 Q194 -71 236 -71 Q254 -71 270.5 -61.5 Q287 -52 300 -36.5 Q313 -21 320.5 -0.5 Q328 20 328 41 Q328 64 320.5 80 Q313 96 299.5 107.5 Q286 119 267.5 127.5 Q249 136 227 143 Q197 153 167.5 164.5 Q138 176 114.5 192.5 Q91 209 76.5 232.5 Q62 256 62 290 Q62 317 71.5 341 Q81 365 96.5 385.5 Q112 406 132 423 Q152 440 172 452 Q154 471 144.5 495.5 Q135 520 135 546 Q135 592 160.5 633 Q186 674 231 700 L267 719 Q290 730 311 736.5 Q332 743 358 744 Q406 744 441.5 727.5 Q477 711 504 685 L458 618 Q446 631 429.5 643 Q413 655 394 664 Q375 673 354.5 677.5 Q334 682 314 682 Q296 682 279 673 Q262 664 249.5 649 Q237 634 229.5 614 Q222 594 222 573 Q222 548 231 531 Q240 514 255 501.5 Q270 489 289.5 480 Q309 471 330 464 Q357 455 385.5 444.5 Q414 434 437 418.5 Q460 403 474.5 380 Q489 357 489 323 Q489 296 480 272 Q471 248 455.5 227.5 Q440 207 419.5 189.5 Q399 172 376 159 Q414 130 414 67 Q414 25 389.5 -17.5 Q365 -60 317 -88 L282 -106 Z M401 295 Q401 329 381 348.5 Q361 368 332.5 380 Q304 392 271.5 400.5 Q239 409 214 423 Q188 404 168 377 Q148 350 148 317 Q148 283 168 263.5 Q188 244 217.5 231.5 Q247 219 279 210 Q311 201 335 188 Q360 204 380.5 230.5 Q401 257 401 295 Z " />
<glyph glyph-name="dieresis" unicode="&#xa8;" horiz-adv-x="500" d="M433 612 Q433 592 418 577.5 Q403 563 383 563 Q366 563 354.5 574 Q343 585 343 602 Q343 622 359 637 Q375 652 395 652 Q412 652 422.5 640 Q433 628 433 612 Z M257 612 Q257 592 241.5 577.5 Q226 563 206 563 Q189 563 178 574 Q167 585 167 602 Q167 622 183 637 Q199 652 218 652 Q235 652 246 640 Q257 628 257 612 Z " />
<glyph glyph-name="copyright" unicode="&#xa9;" horiz-adv-x="838" d="M601 36 Q557 11 511 -1.5 Q465 -14 413 -14 Q335 -14 266.5 15 Q198 44 147 94.5 Q96 145 66.5 213 Q37 281 37 359 Q37 411 50.5 459.5 Q64 508 88.5 550 Q113 592 147.5 626.5 Q182 661 224 685 L240 694 Q282 717 329 730.5 Q376 744 427 744 Q505 744 573.5 714.5 Q642 685 692.5 634 Q743 583 772.5 514.5 Q802 446 802 368 Q802 316 788.5 268 Q775 220 751 178 Q727 136 692.5 102 Q658 68 616 44 L601 36 Z M750 359 Q750 429 723.5 491 Q697 553 651 599 Q605 645 544 671.5 Q483 698 413 698 Q368 698 327 687 Q286 676 250 656 Q177 613 133 537.5 Q89 462 89 368 Q89 298 115.5 236.5 Q142 175 188 129.5 Q234 84 295.5 57.5 Q357 31 427 31 Q516 31 589 72 Q662 115 706 190.5 Q750 266 750 359 Z M594 199 Q584 193 575.5 188.5 Q567 184 557 179 Q531 166 501.5 160.5 Q472 155 439 155 Q392 155 351.5 171 Q311 187 281 214 Q251 241 233.5 277.5 Q216 314 216 355 Q216 410 246 456 Q276 502 325 528 L357 546 Q382 559 410 566 Q438 573 470 573 Q504 573 531.5 567.5 Q559 562 585 551 L563 489 Q537 504 506.5 513 Q476 522 439 522 Q420 522 401 519 Q382 516 366 507 Q329 487 309 450.5 Q289 414 289 373 Q289 338 303.5 308 Q318 278 342.5 255 Q367 232 400.5 219 Q434 206 473 206 Q508 206 534.5 213.5 Q561 221 589 235 L594 199 Z " />
<glyph glyph-name="ordfeminine" unicode="&#xaa;" horiz-adv-x="374" d="M42 371 L331 371 L324 326 L36 326 L42 371 Z M263 450 Q260 448 255 445.5 Q250 443 246 441 L237 437 Q208 424 180 424 Q151 424 127.5 435 Q104 446 86.5 465 Q69 484 59.5 509 Q50 534 50 562 Q50 612 75 649.5 Q100 687 139 705 L172 720 Q186 728 202.5 730.5 Q219 733 235 733 Q255 733 276 726.5 Q297 720 316 703 L323 724 L370 733 L327 431 L261 431 L263 450 Z M289 647 Q277 662 256 674.5 Q235 687 208 687 Q200 687 191.5 685.5 Q183 684 177 679 Q151 664 136 637 Q121 610 121 581 Q121 560 127.5 540 Q134 520 146.5 505 Q159 490 176.5 480.5 Q194 471 216 471 Q244 471 267 488 L289 647 Z " />
<glyph glyph-name="guillemotleft" unicode="&#xab;" horiz-adv-x="379" d="M164 232 L336 440 L365 425 L251 255 L320 73 L278 51 L164 232 Z M16 232 L186 440 L216 425 L103 255 L171 73 L129 51 L16 232 Z " />
<glyph glyph-name="logicalnot" unicode="&#xac;" horiz-adv-x="566" d="M465 250 L34 250 L34 315 L532 315 L532 79 L465 79 L465 250 Z " />
<glyph glyph-name="uni00AD" unicode="&#xad;" horiz-adv-x="338" d="M32 284 L301 284 L292 221 L24 221 L32 284 Z " />
<glyph glyph-name="registered" unicode="&#xae;" horiz-adv-x="838" d="M601 36 Q557 11 511 -1.5 Q465 -14 413 -14 Q335 -14 266.5 15 Q198 44 147 94.5 Q96 145 66.5 213 Q37 281 37 359 Q37 411 50.5 459.5 Q64 508 88.5 550 Q113 592 147.5 626.5 Q182 661 224 685 L240 694 Q282 717 329 730.5 Q376 744 427 744 Q505 744 573.5 714.5 Q642 685 692.5 634 Q743 583 772.5 514.5 Q802 446 802 368 Q802 316 788.5 268 Q775 220 751 178 Q727 136 692.5 102 Q658 68 616 44 L601 36 Z M750 359 Q750 429 723.5 491 Q697 553 651 599 Q605 645 544 671.5 Q483 698 413 698 Q368 698 327 687 Q286 676 250 656 Q177 613 133 537.5 Q89 462 89 368 Q89 298 115.5 236.5 Q142 175 188 129.5 Q234 84 295.5 57.5 Q357 31 427 31 Q516 31 589 72 Q662 115 706 190.5 Q750 266 750 359 Z M285 536 L267 564 L441 564 Q468 564 491.5 555 Q515 546 532.5 531 Q550 516 560 495 Q570 474 570 450 Q570 420 554 394 Q538 368 511 353 Q496 345 485.5 342 Q475 339 463 338 L606 164 L522 164 L393 324 L356 324 L356 164 L285 164 L285 536 Z M434 370 Q451 369 464 376 Q478 384 487 398.5 Q496 413 497 431 Q497 466 472 490.5 Q447 515 409 515 L356 515 L356 370 L434 370 Z " />
<glyph glyph-name="overscore" unicode="&#xaf;" horiz-adv-x="500" d="M165 625 L441 625 L434 573 L157 573 L165 625 Z " />
<glyph glyph-name="degree" unicode="&#xb0;" horiz-adv-x="406" d="M285 435 Q268 426 247.5 422.5 Q227 419 208 419 Q181 419 157.5 430 Q134 441 116.5 459.5 Q99 478 89 502.5 Q79 527 79 554 Q79 601 99.5 637.5 Q120 674 159 695 L201 717 Q218 727 238 731 Q258 735 278 735 Q305 735 328 724 Q351 713 368.5 694.5 Q386 676 396 651.5 Q406 627 406 600 Q406 552 386 516 Q366 480 326 457 L285 435 Z M248 473 Q265 473 280.5 481 Q296 489 307.5 502.5 Q319 516 325.5 534.5 Q332 553 332 573 Q332 591 325.5 610 Q319 629 307 644.5 Q295 660 277 670 Q259 680 236 680 Q217 680 202 671 Q187 662 176 648 Q165 634 159 615.5 Q153 597 153 579 Q153 561 159.5 542.5 Q166 524 178 508.5 Q190 493 207.5 483 Q225 473 248 473 Z " />
<glyph glyph-name="plusminus" unicode="&#xb1;" horiz-adv-x="566" d="M250 278 L34 278 L34 344 L250 344 L250 515 L316 515 L316 344 L532 344 L532 278 L316 278 L316 109 L250 109 L250 278 Z M34 51 L532 51 L532 -15 L34 -15 L34 51 Z " />
<glyph glyph-name="uni00B2" unicode="&#xb2;" horiz-adv-x="364" d="M53 470 L219 609 Q254 638 276.5 666.5 Q299 695 299 729 Q299 762 275 783 Q251 804 210 804 Q184 804 161 794.5 Q138 785 113 770 L99 802 Q113 810 128 818 Q143 826 162 834 Q204 851 242 851 Q269 851 293 844 Q317 837 334.5 823.5 Q352 810 362.5 789.5 Q373 769 373 743 Q373 701 347.5 665.5 Q322 630 271 589 L147 491 L347 494 L319 442 L49 442 L53 470 Z " />
<glyph glyph-name="uni00B3" unicode="&#xb3;" horiz-adv-x="364" d="M244 448 Q213 434 177 434 Q139 434 111.5 446 Q84 458 58 481 L90 537 Q112 514 139.5 496 Q167 478 205 478 Q222 478 236 486 Q254 496 264 513 Q274 530 274 550 Q274 581 252 604 Q230 627 197 627 L162 627 L181 673 L226 673 Q252 673 270.5 691.5 Q289 710 289 734 Q289 761 268.5 782.5 Q248 804 208 804 Q185 804 164 796.5 Q143 789 121 777 L111 810 Q123 817 136.5 823.5 Q150 830 169 837 Q189 844 206 847.5 Q223 851 242 851 Q266 851 287.5 844.5 Q309 838 325.5 825.5 Q342 813 352 794.5 Q362 776 362 752 Q362 715 340.5 691.5 Q319 668 287 654 Q314 643 331 617.5 Q348 592 348 562 Q348 527 328.5 502 Q309 477 277 463 L244 448 Z " />
<glyph glyph-name="acute" unicode="&#xb4;" horiz-adv-x="500" d="M239 560 L365 718 L426 694 L279 542 L239 560 Z " />
<glyph glyph-name="uni00B5" unicode="&#xb5;" horiz-adv-x="525" d="M89 432 L73 469 L183 499 L137 170 Q133 141 139 118.5 Q145 96 159 81 Q173 66 193 58 Q213 50 238 50 Q254 50 271 54 Q288 58 307 68 Q336 84 361 112 L406 432 L390 469 L501 499 L431 0 L347 0 L356 65 Q331 43 285 17 Q232 -11 188 -11 Q166 -11 147.5 -4 Q129 3 115 14 L86 -197 L0 -197 L89 432 Z " />
<glyph glyph-name="paragraph" unicode="&#xb6;" horiz-adv-x="554" d="M202 321 Q169 325 142 340 Q115 355 95.5 378 Q76 401 65.5 431 Q55 461 55 495 Q55 526 63.5 555.5 Q72 585 87 610.5 Q102 636 123 656.5 Q144 677 169 690 L207 707 Q228 718 253.5 723 Q279 728 305 728 L581 728 L555 670 L504 670 L394 -112 L322 -112 L431 670 L324 670 L214 -112 L141 -112 L202 321 Z M250 663 Q221 662 195 647 Q163 624 145 588.5 Q127 553 127 511 Q127 466 148.5 432 Q170 398 212 393 L250 663 Z " />
<glyph glyph-name="middot" unicode="&#xb7;" horiz-adv-x="280" d="M186 257 Q186 231 166 217 Q146 203 124 203 Q105 203 92 215.5 Q79 228 79 249 Q79 275 99 289.5 Q119 304 140 304 Q160 304 173 291.5 Q186 279 186 257 Z " />
<glyph glyph-name="cedilla" unicode="&#xb8;" horiz-adv-x="500" d="M82 -148 Q102 -155 122 -160 Q142 -165 163 -165 Q189 -165 210 -154 Q231 -143 231 -112 Q231 -99 224.5 -91 Q218 -83 208 -79 Q198 -75 186 -73.5 Q174 -72 163 -71 L180 1 L211 1 L201 -41 Q236 -45 261.5 -61 Q287 -77 287 -110 Q287 -135 277.5 -153 Q268 -171 252 -183 Q236 -195 215.5 -200.5 Q195 -206 173 -206 Q147 -206 123 -198.5 Q99 -191 76 -180 L82 -148 Z " />
<glyph glyph-name="uni00B9" unicode="&#xb9;" horiz-adv-x="364" d="M239 771 L121 717 L101 759 L283 842 L318 842 L262 442 L192 442 L239 771 Z " />
<glyph glyph-name="ordmasculine" unicode="&#xba;" horiz-adv-x="374" d="M42 371 L331 371 L324 326 L36 326 L42 371 Z M267 442 Q249 434 228.5 429 Q208 424 188 424 Q160 424 134.5 434 Q109 444 90 462 Q71 480 60 505.5 Q49 531 49 561 Q49 601 69.5 639.5 Q90 678 130 699 L162 716 Q179 725 199.5 729.5 Q220 734 240 734 Q269 734 294.5 723.5 Q320 713 338.5 695 Q357 677 368 651.5 Q379 626 379 596 Q379 554 358.5 518 Q338 482 299 459 L267 442 Z M219 473 Q237 473 253.5 481.5 Q270 490 282 504 Q294 518 301 537.5 Q308 557 308 578 Q308 623 280.5 654.5 Q253 686 208 686 Q190 686 174 677.5 Q158 669 146 654 Q134 639 127.5 619.5 Q121 600 121 579 Q121 534 148.5 503.5 Q176 473 219 473 Z " />
<glyph glyph-name="guillemotright" unicode="&#xbb;" horiz-adv-x="379" d="M146 61 L259 232 L190 414 L232 436 L346 256 L174 47 L146 61 Z M-3 61 L110 232 L42 414 L83 436 L197 256 L25 47 L-3 61 Z " />
<glyph glyph-name="onequarter" unicode="&#xbc;" horiz-adv-x="802" d="M223 657 L105 603 L85 645 L267 728 L302 728 L246 328 L176 328 L223 657 Z M640 762 L693 762 L179 -34 L127 -34 L640 762 Z M630 87 L417 87 L421 114 L675 400 L743 400 L502 138 L502 136 L637 136 L650 227 L720 232 L706 136 L750 136 L745 87 L699 87 L687 0 L618 0 L630 87 Z " />
<glyph glyph-name="onehalf" unicode="&#xbd;" horiz-adv-x="802" d="M223 657 L105 603 L85 645 L267 728 L302 728 L246 328 L176 328 L223 657 Z M640 762 L693 762 L179 -34 L127 -34 L640 762 Z M431 28 L597 167 Q632 196 654.5 224.5 Q677 253 677 287 Q677 320 653 341 Q629 362 588 362 Q562 362 539 352.5 Q516 343 491 328 L477 360 Q491 368 506 376 Q521 384 540 392 Q582 409 620 409 Q647 409 671 402 Q695 395 712.5 381.5 Q730 368 740.5 347.5 Q751 327 751 301 Q751 259 725.5 223.5 Q700 188 649 147 L525 49 L725 52 L697 0 L427 0 L431 28 Z " />
<glyph glyph-name="threequarters" unicode="&#xbe;" horiz-adv-x="802" d="M228 334 Q197 320 161 320 Q123 320 95.5 332 Q68 344 42 367 L74 423 Q96 400 123.5 382 Q151 364 189 364 Q206 364 220 372 Q238 382 248 399 Q258 416 258 436 Q258 467 236 490 Q214 513 181 513 L146 513 L165 559 L210 559 Q236 559 254.5 577.5 Q273 596 273 620 Q273 647 252.5 668.5 Q232 690 192 690 Q169 690 148 682.5 Q127 675 105 663 L95 696 Q107 703 120.5 709.5 Q134 716 153 723 Q173 730 190 733.5 Q207 737 226 737 Q250 737 271.5 730.5 Q293 724 309.5 711.5 Q326 699 336 680.5 Q346 662 346 638 Q346 601 324.5 577.5 Q303 554 271 540 Q298 529 315 503.5 Q332 478 332 448 Q332 413 312.5 388 Q293 363 261 349 L228 334 Z M640 762 L693 762 L179 -34 L127 -34 L640 762 Z M630 87 L417 87 L421 114 L675 400 L743 400 L502 138 L502 136 L637 136 L650 227 L720 232 L706 136 L750 136 L745 87 L699 87 L687 0 L618 0 L630 87 Z " />
<glyph glyph-name="questiondown" unicode="&#xbf;" horiz-adv-x="485" d="M377 -173 Q363 -184 344 -195.5 Q325 -207 301 -218 Q241 -247 171 -247 Q133 -247 99.5 -234.5 Q66 -222 41 -199.5 Q16 -177 1.5 -144.5 Q-13 -112 -13 -71 Q-13 -29 0 -0.5 Q13 28 33.5 48.5 Q54 69 79 84.5 Q104 100 127 116 Q150 133 166.5 153.5 Q183 174 187 204 L201 295 L283 295 L271 212 Q266 175 247 152.5 Q228 130 203 111 Q183 97 161.5 84 Q140 71 122 53.5 Q104 36 92.5 12 Q81 -12 81 -48 Q81 -75 90 -99.5 Q99 -124 116.5 -142 Q134 -160 159.5 -171 Q185 -182 218 -182 Q244 -182 268.5 -175.5 Q293 -169 317 -158 Q344 -145 366 -128 L377 -173 Z M211 445 Q211 472 231 486 Q251 500 272 500 Q291 500 304.5 487.5 Q318 475 318 454 Q318 428 297.5 413.5 Q277 399 256 399 Q236 399 223.5 411.5 Q211 424 211 445 Z " />
<glyph glyph-name="Agrave" unicode="&#xc0;" horiz-adv-x="678" d="M335 689 L322 728 L420 728 L640 0 L543 0 L472 240 L164 240 L55 39 L63 0 L-42 0 L335 689 Z M451 305 L362 607 L200 305 L451 305 Z M295 928 L363 952 L444 793 L399 775 L295 928 Z " />
<glyph glyph-name="Aacute" unicode="&#xc1;" horiz-adv-x="678" d="M335 689 L322 728 L420 728 L640 0 L543 0 L472 240 L164 240 L55 39 L63 0 L-42 0 L335 689 Z M451 305 L362 607 L200 305 L451 305 Z M334 793 L460 952 L521 928 L374 775 L334 793 Z " />
<glyph glyph-name="Acircumflex" unicode="&#xc2;" horiz-adv-x="678" d="M335 689 L322 728 L420 728 L640 0 L543 0 L472 240 L164 240 L55 39 L63 0 L-42 0 L335 689 Z M451 305 L362 607 L200 305 L451 305 Z M254 804 L395 937 L424 937 L526 803 L487 779 L401 875 L286 780 L254 804 Z " />
<glyph glyph-name="Atilde" unicode="&#xc3;" horiz-adv-x="678" d="M335 689 L322 728 L420 728 L640 0 L543 0 L472 240 L164 240 L55 39 L63 0 L-42 0 L335 689 Z M451 305 L362 607 L200 305 L451 305 Z M248 810 Q262 840 287 862.5 Q312 885 344 885 Q359 885 372.5 879.5 Q386 874 399.5 868 Q413 862 426 856.5 Q439 851 454 851 Q471 851 484 863 Q497 875 505 890 L542 876 Q529 845 503.5 822 Q478 799 445 799 Q431 799 418 804.5 Q405 810 391.5 816 Q378 822 364 827.5 Q350 833 335 833 Q318 833 306 822 Q294 811 286 796 L248 810 Z " />
<glyph glyph-name="Adieresis" unicode="&#xc4;" horiz-adv-x="678" d="M335 689 L322 728 L420 728 L640 0 L543 0 L472 240 L164 240 L55 39 L63 0 L-42 0 L335 689 Z M451 305 L362 607 L200 305 L451 305 Z M528 846 Q528 825 513 811 Q498 797 478 797 Q461 797 449.5 808 Q438 819 438 836 Q438 855 454.5 870.5 Q471 886 490 886 Q507 886 517.5 874 Q528 862 528 846 Z M352 846 Q352 826 336.5 811.5 Q321 797 301 797 Q284 797 273 808 Q262 819 262 836 Q262 855 278 870.5 Q294 886 313 886 Q330 886 341 874 Q352 862 352 846 Z " />
<glyph glyph-name="Aring" unicode="&#xc5;" horiz-adv-x="678" d="M335 689 L322 728 L420 728 L640 0 L543 0 L472 240 L164 240 L55 39 L63 0 L-42 0 L335 689 Z M451 305 L362 607 L200 305 L451 305 Z M504 879 Q504 854 494 834 Q484 814 467.5 799.5 Q451 785 429.5 777.5 Q408 770 385 770 Q347 770 320.5 792.5 Q294 815 294 856 Q294 881 304 901 Q314 921 331 935.5 Q348 950 369.5 958 Q391 966 414 966 Q451 966 477.5 942.5 Q504 919 504 879 Z M459 874 Q459 897 444.5 911.5 Q430 926 407 926 Q381 926 360 907.5 Q339 889 339 861 Q339 838 354 824 Q369 810 392 810 Q417 810 438 828 Q459 846 459 874 Z " />
<glyph glyph-name="AE" unicode="&#xc6;" horiz-adv-x="954" d="M531 728 L962 728 L928 661 L632 661 L597 410 L914 410 L880 344 L588 344 L548 67 L899 67 L869 0 L449 0 L483 240 L218 240 L59 41 L54 0 L-61 0 L531 728 Z M492 305 L539 638 L271 305 L492 305 Z " />
<glyph glyph-name="Ccedilla" unicode="&#xc7;" horiz-adv-x="659" d="M226 -148 Q246 -155 266 -160 Q286 -165 307 -165 Q333 -165 354 -154 Q375 -143 375 -112 Q375 -99 368.5 -91 Q362 -83 352 -79 Q342 -75 330 -73.5 Q318 -72 307 -71 L321 -10 Q259 0 205.5 28.5 Q152 57 112.5 102 Q73 147 50.5 206 Q28 265 28 335 Q28 393 44.5 446.5 Q61 500 91 545 Q121 590 162 625.5 Q203 661 252 684 L294 705 Q332 723 372.5 733 Q413 743 455 743 Q561 743 662 685 L621 608 Q577 642 524 661.5 Q471 681 410 681 Q381 681 352.5 675 Q324 669 298 655 Q259 634 227 602.5 Q195 571 171.5 532.5 Q148 494 135.5 449.5 Q123 405 123 357 Q123 298 144 242 Q165 186 203.5 143 Q242 100 296 74 Q350 48 416 48 Q462 48 501.5 58.5 Q541 69 579 87 L581 40 Q539 15 486 0 Q433 -15 382 -15 Q374 -15 366.5 -14.5 Q359 -14 351 -13 L345 -41 Q380 -45 405.5 -61 Q431 -77 431 -110 Q431 -135 421.5 -153 Q412 -171 396 -183 Q380 -195 359.5 -200.5 Q339 -206 317 -206 Q291 -206 266.5 -198.5 Q242 -191 219 -180 L226 -148 Z " />
<glyph glyph-name="Egrave" unicode="&#xc8;" horiz-adv-x="522" d="M116 689 L98 728 L272 728 L531 728 L497 661 L201 661 L166 410 L477 410 L442 344 L156 344 L118 67 L468 67 L439 0 L19 0 L116 689 Z M238 928 L306 952 L387 793 L342 775 L238 928 Z " />
<glyph glyph-name="Eacute" unicode="&#xc9;" horiz-adv-x="522" d="M116 689 L98 728 L272 728 L531 728 L497 661 L201 661 L166 410 L477 410 L442 344 L156 344 L118 67 L468 67 L439 0 L19 0 L116 689 Z M277 793 L403 952 L464 928 L317 775 L277 793 Z " />
<glyph glyph-name="Ecircumflex" unicode="&#xca;" horiz-adv-x="522" d="M116 689 L98 728 L272 728 L531 728 L497 661 L201 661 L166 410 L477 410 L442 344 L156 344 L118 67 L468 67 L439 0 L19 0 L116 689 Z M197 804 L338 937 L367 937 L469 803 L430 779 L344 875 L229 780 L197 804 Z " />
<glyph glyph-name="Edieresis" unicode="&#xcb;" horiz-adv-x="522" d="M116 689 L98 728 L272 728 L531 728 L497 661 L201 661 L166 410 L477 410 L442 344 L156 344 L118 67 L468 67 L439 0 L19 0 L116 689 Z M471 846 Q471 825 456 811 Q441 797 421 797 Q404 797 392.5 808 Q381 819 381 836 Q381 855 397.5 870.5 Q414 886 433 886 Q450 886 460.5 874 Q471 862 471 846 Z M295 846 Q295 826 279.5 811.5 Q264 797 244 797 Q227 797 216 808 Q205 819 205 836 Q205 855 221 870.5 Q237 886 256 886 Q273 886 284 874 Q295 862 295 846 Z " />
<glyph glyph-name="Igrave" unicode="&#xcc;" horiz-adv-x="239" d="M121 689 L103 728 L215 728 L113 0 L24 0 L121 689 Z M87 928 L155 952 L236 793 L191 775 L87 928 Z " />
<glyph glyph-name="Iacute" unicode="&#xcd;" horiz-adv-x="239" d="M121 689 L103 728 L215 728 L113 0 L24 0 L121 689 Z M126 793 L252 952 L313 928 L166 775 L126 793 Z " />
<glyph glyph-name="Icircumflex" unicode="&#xce;" horiz-adv-x="239" d="M121 689 L103 728 L215 728 L113 0 L24 0 L121 689 Z M46 804 L187 937 L216 937 L318 803 L279 779 L193 875 L78 780 L46 804 Z " />
<glyph glyph-name="Idieresis" unicode="&#xcf;" horiz-adv-x="239" d="M121 689 L103 728 L215 728 L113 0 L24 0 L121 689 Z M320 846 Q320 825 305 811 Q290 797 270 797 Q253 797 241.5 808 Q230 819 230 836 Q230 855 246.5 870.5 Q263 886 282 886 Q299 886 309.5 874 Q320 862 320 846 Z M144 846 Q144 826 128.5 811.5 Q113 797 93 797 Q76 797 65 808 Q54 819 54 836 Q54 855 70 870.5 Q86 886 105 886 Q122 886 133 874 Q144 862 144 846 Z " />
<glyph glyph-name="Eth" unicode="&#xd0;" horiz-adv-x="696" d="M76 347 L-7 347 L12 403 L84 403 L124 689 L107 728 L346 728 Q414 728 473 701.5 Q532 675 575 629 Q618 583 642.5 522.5 Q667 462 667 394 Q667 293 616 209.5 Q565 126 476 69 L434 48 Q394 25 349.5 12.5 Q305 0 257 0 L27 0 L76 347 Z M297 66 Q332 66 365.5 73 Q399 80 427 97 Q498 142 536 215.5 Q574 289 574 374 Q574 433 553.5 485.5 Q533 538 497 577 Q461 616 412 638.5 Q363 661 305 661 L210 661 L173 403 L360 403 L342 347 L165 347 L126 66 L297 66 Z " />
<glyph glyph-name="Ntilde" unicode="&#xd1;" horiz-adv-x="704" d="M119 683 L93 728 L204 728 L538 145 L602 677 Q602 682 600.5 689.5 Q599 697 596.5 704.5 Q594 712 591 718.5 Q588 725 586 728 L680 728 L589 0 L512 0 L177 585 L83 0 L12 0 L119 683 Z M271 810 Q285 840 310 862.5 Q335 885 367 885 Q382 885 395.5 879.5 Q409 874 422.5 868 Q436 862 449 856.5 Q462 851 477 851 Q494 851 507 863 Q520 875 528 890 L565 876 Q552 845 526.5 822 Q501 799 468 799 Q454 799 441 804.5 Q428 810 414.5 816 Q401 822 387 827.5 Q373 833 358 833 Q341 833 329 822 Q317 811 309 796 L271 810 Z " />
<glyph glyph-name="Ograve" unicode="&#xd2;" horiz-adv-x="811" d="M517 22 Q481 5 440.5 -5 Q400 -15 358 -15 Q288 -15 228 12 Q168 39 123.5 86 Q79 133 53.5 196.5 Q28 260 28 333 Q28 392 44.5 445 Q61 498 90.5 543 Q120 588 161 624 Q202 660 250 685 L292 705 Q368 743 450 743 Q522 743 582.5 716 Q643 689 687.5 641.5 Q732 594 757 530.5 Q782 467 782 394 Q782 335 765.5 281.5 Q749 228 719.5 182.5 Q690 137 649.5 101.5 Q609 66 561 42 L517 22 Z M517 73 Q555 94 586.5 125.5 Q618 157 640.5 196 Q663 235 675.5 280 Q688 325 688 373 Q688 430 669 485.5 Q650 541 613.5 584 Q577 627 525 653.5 Q473 680 407 680 Q378 680 348.5 674 Q319 668 293 654 Q255 633 223.5 601.5 Q192 570 169.5 531 Q147 492 134.5 447 Q122 402 122 354 Q122 297 141.5 241.5 Q161 186 197 143 Q233 100 285 73.5 Q337 47 403 47 Q432 47 461.5 53 Q491 59 517 73 Z M372 928 L440 952 L521 793 L476 775 L372 928 Z " />
<glyph glyph-name="Oacute" unicode="&#xd3;" horiz-adv-x="811" d="M517 22 Q481 5 440.5 -5 Q400 -15 358 -15 Q288 -15 228 12 Q168 39 123.5 86 Q79 133 53.5 196.5 Q28 260 28 333 Q28 392 44.5 445 Q61 498 90.5 543 Q120 588 161 624 Q202 660 250 685 L292 705 Q368 743 450 743 Q522 743 582.5 716 Q643 689 687.5 641.5 Q732 594 757 530.5 Q782 467 782 394 Q782 335 765.5 281.5 Q749 228 719.5 182.5 Q690 137 649.5 101.5 Q609 66 561 42 L517 22 Z M517 73 Q555 94 586.5 125.5 Q618 157 640.5 196 Q663 235 675.5 280 Q688 325 688 373 Q688 430 669 485.5 Q650 541 613.5 584 Q577 627 525 653.5 Q473 680 407 680 Q378 680 348.5 674 Q319 668 293 654 Q255 633 223.5 601.5 Q192 570 169.5 531 Q147 492 134.5 447 Q122 402 122 354 Q122 297 141.5 241.5 Q161 186 197 143 Q233 100 285 73.5 Q337 47 403 47 Q432 47 461.5 53 Q491 59 517 73 Z M411 793 L537 952 L598 928 L451 775 L411 793 Z " />
<glyph glyph-name="Ocircumflex" unicode="&#xd4;" horiz-adv-x="811" d="M517 22 Q481 5 440.5 -5 Q400 -15 358 -15 Q288 -15 228 12 Q168 39 123.5 86 Q79 133 53.5 196.5 Q28 260 28 333 Q28 392 44.5 445 Q61 498 90.5 543 Q120 588 161 624 Q202 660 250 685 L292 705 Q368 743 450 743 Q522 743 582.5 716 Q643 689 687.5 641.5 Q732 594 757 530.5 Q782 467 782 394 Q782 335 765.5 281.5 Q749 228 719.5 182.5 Q690 137 649.5 101.5 Q609 66 561 42 L517 22 Z M517 73 Q555 94 586.5 125.5 Q618 157 640.5 196 Q663 235 675.5 280 Q688 325 688 373 Q688 430 669 485.5 Q650 541 613.5 584 Q577 627 525 653.5 Q473 680 407 680 Q378 680 348.5 674 Q319 668 293 654 Q255 633 223.5 601.5 Q192 570 169.5 531 Q147 492 134.5 447 Q122 402 122 354 Q122 297 141.5 241.5 Q161 186 197 143 Q233 100 285 73.5 Q337 47 403 47 Q432 47 461.5 53 Q491 59 517 73 Z M331 804 L472 937 L501 937 L603 803 L564 779 L478 875 L363 780 L331 804 Z " />
<glyph glyph-name="Otilde" unicode="&#xd5;" horiz-adv-x="811" d="M517 22 Q481 5 440.5 -5 Q400 -15 358 -15 Q288 -15 228 12 Q168 39 123.5 86 Q79 133 53.5 196.5 Q28 260 28 333 Q28 392 44.5 445 Q61 498 90.5 543 Q120 588 161 624 Q202 660 250 685 L292 705 Q368 743 450 743 Q522 743 582.5 716 Q643 689 687.5 641.5 Q732 594 757 530.5 Q782 467 782 394 Q782 335 765.5 281.5 Q749 228 719.5 182.5 Q690 137 649.5 101.5 Q609 66 561 42 L517 22 Z M517 73 Q555 94 586.5 125.5 Q618 157 640.5 196 Q663 235 675.5 280 Q688 325 688 373 Q688 430 669 485.5 Q650 541 613.5 584 Q577 627 525 653.5 Q473 680 407 680 Q378 680 348.5 674 Q319 668 293 654 Q255 633 223.5 601.5 Q192 570 169.5 531 Q147 492 134.5 447 Q122 402 122 354 Q122 297 141.5 241.5 Q161 186 197 143 Q233 100 285 73.5 Q337 47 403 47 Q432 47 461.5 53 Q491 59 517 73 Z M325 810 Q339 840 364 862.5 Q389 885 421 885 Q436 885 449.5 879.5 Q463 874 476.5 868 Q490 862 503 856.5 Q516 851 531 851 Q548 851 561 863 Q574 875 582 890 L619 876 Q606 845 580.5 822 Q555 799 522 799 Q508 799 495 804.5 Q482 810 468.5 816 Q455 822 441 827.5 Q427 833 412 833 Q395 833 383 822 Q371 811 363 796 L325 810 Z " />
<glyph glyph-name="Odieresis" unicode="&#xd6;" horiz-adv-x="811" d="M517 22 Q481 5 440.5 -5 Q400 -15 358 -15 Q288 -15 228 12 Q168 39 123.5 86 Q79 133 53.5 196.5 Q28 260 28 333 Q28 392 44.5 445 Q61 498 90.5 543 Q120 588 161 624 Q202 660 250 685 L292 705 Q368 743 450 743 Q522 743 582.5 716 Q643 689 687.5 641.5 Q732 594 757 530.5 Q782 467 782 394 Q782 335 765.5 281.5 Q749 228 719.5 182.5 Q690 137 649.5 101.5 Q609 66 561 42 L517 22 Z M517 73 Q555 94 586.5 125.5 Q618 157 640.5 196 Q663 235 675.5 280 Q688 325 688 373 Q688 430 669 485.5 Q650 541 613.5 584 Q577 627 525 653.5 Q473 680 407 680 Q378 680 348.5 674 Q319 668 293 654 Q255 633 223.5 601.5 Q192 570 169.5 531 Q147 492 134.5 447 Q122 402 122 354 Q122 297 141.5 241.5 Q161 186 197 143 Q233 100 285 73.5 Q337 47 403 47 Q432 47 461.5 53 Q491 59 517 73 Z M605 846 Q605 825 590 811 Q575 797 555 797 Q538 797 526.5 808 Q515 819 515 836 Q515 855 531.5 870.5 Q548 886 567 886 Q584 886 594.5 874 Q605 862 605 846 Z M429 846 Q429 826 413.5 811.5 Q398 797 378 797 Q361 797 350 808 Q339 819 339 836 Q339 855 355 870.5 Q371 886 390 886 Q407 886 418 874 Q429 862 429 846 Z " />
<glyph glyph-name="multiply" unicode="&#xd7;" horiz-adv-x="566" d="M56 68 L238 250 L56 431 L101 477 L283 295 L465 477 L510 432 L328 250 L510 68 L465 23 L283 205 L101 23 L56 68 Z " />
<glyph glyph-name="Oslash" unicode="&#xd8;" horiz-adv-x="811" d="M35 -29 L129 80 Q81 128 54.5 193 Q28 258 28 333 Q28 392 44.5 445 Q61 498 90.5 543 Q120 588 161 624 Q202 660 250 685 L292 705 Q368 743 450 743 Q504 743 552 726.5 Q600 710 638 681 L721 778 L767 745 L682 647 Q730 599 756 534 Q782 469 782 394 Q782 335 765.5 281.5 Q749 228 719.5 182.5 Q690 137 649.5 101.5 Q609 66 561 42 L517 22 Q481 5 440.5 -5 Q400 -15 358 -15 Q305 -15 258.5 1 Q212 17 173 46 L79 -64 L35 -29 Z M227 113 Q261 82 305 64.5 Q349 47 403 47 Q432 47 461.5 53 Q491 59 517 73 Q555 94 586.5 125.5 Q618 157 640.5 196 Q663 235 675.5 280 Q688 325 688 373 Q688 427 670.5 477.5 Q653 528 621 570 L227 113 Z M584 613 Q549 644 505 662 Q461 680 407 680 Q378 680 348.5 674 Q319 668 293 654 Q255 633 223.5 601.5 Q192 570 169.5 531 Q147 492 134.5 447 Q122 402 122 354 Q122 300 139.5 249 Q157 198 189 156 L584 613 Z " />
<glyph glyph-name="Ugrave" unicode="&#xd9;" horiz-adv-x="656" d="M423 17 Q357 -16 279 -16 Q232 -16 190 -0.5 Q148 15 116.5 44 Q85 73 66 114.5 Q47 156 47 207 Q47 215 47 222.5 Q47 230 49 240 L113 689 L95 728 L207 728 L142 259 Q140 251 140 244 Q140 237 140 230 Q140 194 152.5 161 Q165 128 188 103 Q211 78 245 63.5 Q279 49 322 49 Q361 49 392 61 Q423 73 459 94 L542 689 L526 728 L638 728 L547 83 Q527 71 505 58.5 Q483 46 466 38 L423 17 Z M294 928 L362 952 L443 793 L398 775 L294 928 Z " />
<glyph glyph-name="Uacute" unicode="&#xda;" horiz-adv-x="656" d="M423 17 Q357 -16 279 -16 Q232 -16 190 -0.5 Q148 15 116.5 44 Q85 73 66 114.5 Q47 156 47 207 Q47 215 47 222.5 Q47 230 49 240 L113 689 L95 728 L207 728 L142 259 Q140 251 140 244 Q140 237 140 230 Q140 194 152.5 161 Q165 128 188 103 Q211 78 245 63.5 Q279 49 322 49 Q361 49 392 61 Q423 73 459 94 L542 689 L526 728 L638 728 L547 83 Q527 71 505 58.5 Q483 46 466 38 L423 17 Z M333 793 L459 952 L520 928 L373 775 L333 793 Z " />
<glyph glyph-name="Ucircumflex" unicode="&#xdb;" horiz-adv-x="656" d="M423 17 Q357 -16 279 -16 Q232 -16 190 -0.5 Q148 15 116.5 44 Q85 73 66 114.5 Q47 156 47 207 Q47 215 47 222.5 Q47 230 49 240 L113 689 L95 728 L207 728 L142 259 Q140 251 140 244 Q140 237 140 230 Q140 194 152.5 161 Q165 128 188 103 Q211 78 245 63.5 Q279 49 322 49 Q361 49 392 61 Q423 73 459 94 L542 689 L526 728 L638 728 L547 83 Q527 71 505 58.5 Q483 46 466 38 L423 17 Z M253 804 L394 937 L423 937 L525 803 L486 779 L400 875 L285 780 L253 804 Z " />
<glyph glyph-name="Udieresis" unicode="&#xdc;" horiz-adv-x="656" d="M423 17 Q357 -16 279 -16 Q232 -16 190 -0.5 Q148 15 116.5 44 Q85 73 66 114.5 Q47 156 47 207 Q47 215 47 222.5 Q47 230 49 240 L113 689 L95 728 L207 728 L142 259 Q140 251 140 244 Q140 237 140 230 Q140 194 152.5 161 Q165 128 188 103 Q211 78 245 63.5 Q279 49 322 49 Q361 49 392 61 Q423 73 459 94 L542 689 L526 728 L638 728 L547 83 Q527 71 505 58.5 Q483 46 466 38 L423 17 Z M527 846 Q527 825 512 811 Q497 797 477 797 Q460 797 448.5 808 Q437 819 437 836 Q437 855 453.5 870.5 Q470 886 489 886 Q506 886 516.5 874 Q527 862 527 846 Z M351 846 Q351 826 335.5 811.5 Q320 797 300 797 Q283 797 272 808 Q261 819 261 836 Q261 855 277 870.5 Q293 886 312 886 Q329 886 340 874 Q351 862 351 846 Z " />
<glyph glyph-name="Yacute" unicode="&#xdd;" horiz-adv-x="601" d="M251 291 L48 728 L155 728 L317 373 L537 689 L531 728 L646 728 L340 298 L299 0 L210 0 L251 291 Z M306 793 L432 952 L493 928 L346 775 L306 793 Z " />
<glyph glyph-name="Thorn" unicode="&#xde;" horiz-adv-x="547" d="M116 689 L98 728 L210 728 L193 607 L311 607 Q352 607 388 590.5 Q424 574 451 545.5 Q478 517 494 479 Q510 441 510 398 Q510 335 477.5 284 Q445 233 393 204 L364 188 Q333 171 302.5 160.5 Q272 150 231 150 L130 150 L108 0 L19 0 L116 689 Z M273 215 Q310 215 341 231 Q379 251 399 293 Q419 335 419 376 Q419 407 407.5 436.5 Q396 466 375.5 489 Q355 512 326.5 526.5 Q298 541 265 541 L184 541 L139 215 L273 215 Z " />
<glyph glyph-name="germandbls" unicode="&#xdf;" horiz-adv-x="542" d="M114 426 L42 426 L74 487 L122 487 L134 568 Q140 609 164 642.5 Q188 676 223 696 L265 718 Q306 740 352 740 Q384 740 409.5 729 Q435 718 453 700 Q471 682 480.5 658.5 Q490 635 490 609 Q490 561 470.5 530.5 Q451 500 427.5 477 Q404 454 384.5 434.5 Q365 415 365 391 Q365 371 376 357.5 Q387 344 403.5 332.5 Q420 321 439 310 Q458 299 474.5 283.5 Q491 268 502 245.5 Q513 223 513 190 Q513 136 487 96.5 Q461 57 420 34 L379 13 Q335 -12 283 -12 Q256 -12 228 -2.5 Q200 7 180 30 L221 94 Q243 71 269 60.5 Q295 50 322 50 Q349 50 374 63 Q396 79 409.5 103.5 Q423 128 423 163 Q423 193 412.5 213 Q402 233 386 247 Q370 261 351 272 Q332 283 316 295 Q300 307 289.5 322.5 Q279 338 279 362 Q279 394 298.5 416 Q318 438 341.5 459.5 Q365 481 384.5 508 Q404 535 404 578 Q404 620 375.5 648 Q347 676 306 678 Q295 678 285.5 674.5 Q276 671 268 666 Q249 653 236 632 Q223 611 219 587 L137 0 L54 0 L114 426 Z " />
<glyph glyph-name="agrave" unicode="&#xe0;" horiz-adv-x="549" d="M373 34 Q368 30 359.5 26 Q351 22 344 17 L330 11 Q286 -12 235 -12 Q189 -12 150.5 6.5 Q112 25 84.5 56.5 Q57 88 41.5 129.5 Q26 171 26 218 Q26 301 67.5 362 Q109 423 172 454 L213 475 Q261 498 314 498 Q349 498 383 486.5 Q417 475 445 449 Q447 447 448 446 Q449 445 451 443 L462 486 L521 498 L452 0 L369 0 L373 34 Z M418 366 Q397 395 362 417 Q327 439 279 439 Q263 439 247 436 Q231 433 217 425 Q170 397 142.5 346.5 Q115 296 115 239 Q115 204 126.5 170 Q138 136 159.5 109 Q181 82 213 65 Q245 48 286 48 Q336 48 378 81 L418 366 Z M225 694 L292 718 L374 560 L329 542 L225 694 Z " />
<glyph glyph-name="aacute" unicode="&#xe1;" horiz-adv-x="549" d="M373 34 Q368 30 359.5 26 Q351 22 344 17 L330 11 Q286 -12 235 -12 Q189 -12 150.5 6.5 Q112 25 84.5 56.5 Q57 88 41.5 129.5 Q26 171 26 218 Q26 301 67.5 362 Q109 423 172 454 L213 475 Q261 498 314 498 Q349 498 383 486.5 Q417 475 445 449 Q447 447 448 446 Q449 445 451 443 L462 486 L521 498 L452 0 L369 0 L373 34 Z M418 366 Q397 395 362 417 Q327 439 279 439 Q263 439 247 436 Q231 433 217 425 Q170 397 142.5 346.5 Q115 296 115 239 Q115 204 126.5 170 Q138 136 159.5 109 Q181 82 213 65 Q245 48 286 48 Q336 48 378 81 L418 366 Z M264 560 L390 718 L451 694 L304 542 L264 560 Z " />
<glyph glyph-name="acircumflex" unicode="&#xe2;" horiz-adv-x="549" d="M373 34 Q368 30 359.5 26 Q351 22 344 17 L330 11 Q286 -12 235 -12 Q189 -12 150.5 6.5 Q112 25 84.5 56.5 Q57 88 41.5 129.5 Q26 171 26 218 Q26 301 67.5 362 Q109 423 172 454 L213 475 Q261 498 314 498 Q349 498 383 486.5 Q417 475 445 449 Q447 447 448 446 Q449 445 451 443 L462 486 L521 498 L452 0 L369 0 L373 34 Z M418 366 Q397 395 362 417 Q327 439 279 439 Q263 439 247 436 Q231 433 217 425 Q170 397 142.5 346.5 Q115 296 115 239 Q115 204 126.5 170 Q138 136 159.5 109 Q181 82 213 65 Q245 48 286 48 Q336 48 378 81 L418 366 Z M184 571 L325 704 L354 704 L456 570 L416 546 L331 642 L216 546 L184 571 Z " />
<glyph glyph-name="atilde" unicode="&#xe3;" horiz-adv-x="549" d="M373 34 Q368 30 359.5 26 Q351 22 344 17 L330 11 Q286 -12 235 -12 Q189 -12 150.5 6.5 Q112 25 84.5 56.5 Q57 88 41.5 129.5 Q26 171 26 218 Q26 301 67.5 362 Q109 423 172 454 L213 475 Q261 498 314 498 Q349 498 383 486.5 Q417 475 445 449 Q447 447 448 446 Q449 445 451 443 L462 486 L521 498 L452 0 L369 0 L373 34 Z M418 366 Q397 395 362 417 Q327 439 279 439 Q263 439 247 436 Q231 433 217 425 Q170 397 142.5 346.5 Q115 296 115 239 Q115 204 126.5 170 Q138 136 159.5 109 Q181 82 213 65 Q245 48 286 48 Q336 48 378 81 L418 366 Z M178 576 Q192 606 216.5 628.5 Q241 651 274 651 Q289 651 302.5 646 Q316 641 329 634.5 Q342 628 355.5 623 Q369 618 383 618 Q401 618 413.5 629.5 Q426 641 434 657 L472 642 Q459 611 433.5 588.5 Q408 566 375 566 Q361 566 348 571 Q335 576 321.5 582.5 Q308 589 294 594 Q280 599 265 599 Q248 599 236 588 Q224 577 216 562 L178 576 Z " />
<glyph glyph-name="adieresis" unicode="&#xe4;" horiz-adv-x="549" d="M373 34 Q368 30 359.5 26 Q351 22 344 17 L330 11 Q286 -12 235 -12 Q189 -12 150.5 6.5 Q112 25 84.5 56.5 Q57 88 41.5 129.5 Q26 171 26 218 Q26 301 67.5 362 Q109 423 172 454 L213 475 Q261 498 314 498 Q349 498 383 486.5 Q417 475 445 449 Q447 447 448 446 Q449 445 451 443 L462 486 L521 498 L452 0 L369 0 L373 34 Z M418 366 Q397 395 362 417 Q327 439 279 439 Q263 439 247 436 Q231 433 217 425 Q170 397 142.5 346.5 Q115 296 115 239 Q115 204 126.5 170 Q138 136 159.5 109 Q181 82 213 65 Q245 48 286 48 Q336 48 378 81 L418 366 Z M458 612 Q458 592 443 577.5 Q428 563 408 563 Q391 563 379.5 574 Q368 585 368 602 Q368 622 384 637 Q400 652 420 652 Q437 652 447.5 640 Q458 628 458 612 Z M282 612 Q282 592 266.5 577.5 Q251 563 231 563 Q214 563 203 574 Q192 585 192 602 Q192 622 208 637 Q224 652 243 652 Q260 652 271 640 Q282 628 282 612 Z " />
<glyph glyph-name="aring" unicode="&#xe5;" horiz-adv-x="549" d="M373 34 Q368 30 359.5 26 Q351 22 344 17 L330 11 Q286 -12 235 -12 Q189 -12 150.5 6.5 Q112 25 84.5 56.5 Q57 88 41.5 129.5 Q26 171 26 218 Q26 301 67.5 362 Q109 423 172 454 L213 475 Q261 498 314 498 Q349 498 383 486.5 Q417 475 445 449 Q447 447 448 446 Q449 445 451 443 L462 486 L521 498 L452 0 L369 0 L373 34 Z M418 366 Q397 395 362 417 Q327 439 279 439 Q263 439 247 436 Q231 433 217 425 Q170 397 142.5 346.5 Q115 296 115 239 Q115 204 126.5 170 Q138 136 159.5 109 Q181 82 213 65 Q245 48 286 48 Q336 48 378 81 L418 366 Z M434 646 Q434 621 424 600.5 Q414 580 397 566 Q380 552 358.5 544 Q337 536 315 536 Q277 536 250 559 Q223 582 223 622 Q223 647 233.5 667 Q244 687 260.5 701.5 Q277 716 298.5 724 Q320 732 343 732 Q381 732 407.5 708.5 Q434 685 434 646 Z M389 641 Q389 664 374 678 Q359 692 337 692 Q311 692 290 674 Q269 656 269 628 Q269 605 284 590.5 Q299 576 322 576 Q347 576 368 594.5 Q389 613 389 641 Z " />
<glyph glyph-name="ae" unicode="&#xe6;" horiz-adv-x="801" d="M373 34 L344 17 L330 11 Q286 -12 235 -12 Q189 -12 150.5 6.5 Q112 25 84.5 56.5 Q57 88 41.5 129.5 Q26 171 26 218 Q26 301 67.5 362 Q109 423 172 454 L213 475 Q261 498 314 498 Q349 498 383 486.5 Q417 475 445 449 Q449 446 451 443 L462 486 L521 499 L518 476 Q543 487 565 493 Q587 499 612 499 Q646 499 675.5 491 Q705 483 726.5 467 Q748 451 759.5 428.5 Q771 406 771 376 Q771 338 752 309.5 Q733 281 701 261 L671 243 Q630 218 564.5 206 Q499 194 415 192 Q423 129 468 88.5 Q513 48 586 48 Q628 48 663 61 Q698 74 734 96 L748 57 Q702 27 651.5 7 Q601 -13 538 -12 Q484 -11 439 11 L437 0 L369 0 L373 34 Z M320 211 Q320 263 340.5 309 Q361 355 396 393 Q370 415 340.5 426.5 Q311 438 276 438 Q241 438 211 421 Q181 404 159 376 Q137 348 125 312 Q113 276 113 238 Q113 199 125.5 165 Q138 131 160 105.5 Q182 80 212.5 65 Q243 50 279 50 Q326 50 364 76 Q343 103 331.5 137.5 Q320 172 320 211 Z M587 439 Q549 439 516.5 422 Q484 405 460.5 377.5 Q437 350 423.5 314.5 Q410 279 410 242 Q488 243 549 249.5 Q610 256 648 280 Q667 292 678.5 313.5 Q690 335 690 359 Q690 398 662.5 418.5 Q635 439 587 439 Z " />
<glyph glyph-name="ccedilla" unicode="&#xe7;" horiz-adv-x="470" d="M120 -148 Q140 -155 160 -160 Q180 -165 201 -165 Q227 -165 248 -154 Q269 -143 269 -112 Q269 -99 262.5 -91 Q256 -83 246 -79 Q236 -75 224 -73.5 Q212 -72 201 -71 L215 -8 Q173 -1 138 19 Q103 39 77.5 69 Q52 99 38 137.5 Q24 176 24 221 Q24 260 35 295 Q46 330 65.5 360 Q85 390 112.5 414 Q140 438 172 454 L214 473 Q240 485 267 492 Q294 499 323 499 Q396 499 459 460 L424 395 Q395 414 361 426 Q327 438 284 438 Q266 438 249 435 Q232 432 217 424 Q171 399 142.5 349.5 Q114 300 114 243 Q114 205 126.5 170 Q139 135 163 108 Q187 81 221.5 64.5 Q256 48 300 48 Q349 48 395 67 Q402 69 406 72 L406 32 Q395 26 383 20 Q371 14 359 9 Q305 -11 259 -11 Q256 -11 252.5 -11 Q249 -11 245 -10 L239 -41 Q274 -45 299.5 -61 Q325 -77 325 -110 Q325 -135 315.5 -153 Q306 -171 290 -183 Q274 -195 253.5 -200.5 Q233 -206 211 -206 Q185 -206 160.5 -198.5 Q136 -191 113 -180 L120 -148 Z " />
<glyph glyph-name="egrave" unicode="&#xe8;" horiz-adv-x="516" d="M453 57 Q407 27 356 7 Q305 -13 242 -12 Q195 -12 155.5 4.5 Q116 21 86.5 50.5 Q57 80 40.5 121 Q24 162 24 211 Q24 252 36.5 289.5 Q49 327 70 358 Q91 389 117 413 Q143 437 170 452 L202 470 Q229 484 257 491.5 Q285 499 317 499 Q386 499 431 467.5 Q476 436 476 376 Q476 338 457 309.5 Q438 281 406 261 L376 243 Q335 218 269 206 Q203 194 119 192 Q127 129 172.5 88.5 Q218 48 290 48 Q332 48 367 61 Q402 74 439 96 L453 57 Z M292 439 Q253 439 221 422 Q189 405 165.5 377.5 Q142 350 128.5 314.5 Q115 279 115 242 Q193 243 254 249.5 Q315 256 353 280 Q372 292 383 313.5 Q394 335 394 359 Q394 398 367 418.5 Q340 439 292 439 Z M216 694 L283 718 L365 560 L320 542 L216 694 Z " />
<glyph glyph-name="eacute" unicode="&#xe9;" horiz-adv-x="516" d="M453 57 Q407 27 356 7 Q305 -13 242 -12 Q195 -12 155.5 4.5 Q116 21 86.5 50.5 Q57 80 40.5 121 Q24 162 24 211 Q24 252 36.5 289.5 Q49 327 70 358 Q91 389 117 413 Q143 437 170 452 L202 470 Q229 484 257 491.5 Q285 499 317 499 Q386 499 431 467.5 Q476 436 476 376 Q476 338 457 309.5 Q438 281 406 261 L376 243 Q335 218 269 206 Q203 194 119 192 Q127 129 172.5 88.5 Q218 48 290 48 Q332 48 367 61 Q402 74 439 96 L453 57 Z M292 439 Q253 439 221 422 Q189 405 165.5 377.5 Q142 350 128.5 314.5 Q115 279 115 242 Q193 243 254 249.5 Q315 256 353 280 Q372 292 383 313.5 Q394 335 394 359 Q394 398 367 418.5 Q340 439 292 439 Z M255 560 L381 718 L442 694 L295 542 L255 560 Z " />
<glyph glyph-name="ecircumflex" unicode="&#xea;" horiz-adv-x="516" d="M453 57 Q407 27 356 7 Q305 -13 242 -12 Q195 -12 155.5 4.5 Q116 21 86.5 50.5 Q57 80 40.5 121 Q24 162 24 211 Q24 252 36.5 289.5 Q49 327 70 358 Q91 389 117 413 Q143 437 170 452 L202 470 Q229 484 257 491.5 Q285 499 317 499 Q386 499 431 467.5 Q476 436 476 376 Q476 338 457 309.5 Q438 281 406 261 L376 243 Q335 218 269 206 Q203 194 119 192 Q127 129 172.5 88.5 Q218 48 290 48 Q332 48 367 61 Q402 74 439 96 L453 57 Z M292 439 Q253 439 221 422 Q189 405 165.5 377.5 Q142 350 128.5 314.5 Q115 279 115 242 Q193 243 254 249.5 Q315 256 353 280 Q372 292 383 313.5 Q394 335 394 359 Q394 398 367 418.5 Q340 439 292 439 Z M175 571 L316 704 L345 704 L447 570 L407 546 L322 642 L207 546 L175 571 Z " />
<glyph glyph-name="edieresis" unicode="&#xeb;" horiz-adv-x="516" d="M453 57 Q407 27 356 7 Q305 -13 242 -12 Q195 -12 155.5 4.5 Q116 21 86.5 50.5 Q57 80 40.5 121 Q24 162 24 211 Q24 252 36.5 289.5 Q49 327 70 358 Q91 389 117 413 Q143 437 170 452 L202 470 Q229 484 257 491.5 Q285 499 317 499 Q386 499 431 467.5 Q476 436 476 376 Q476 338 457 309.5 Q438 281 406 261 L376 243 Q335 218 269 206 Q203 194 119 192 Q127 129 172.5 88.5 Q218 48 290 48 Q332 48 367 61 Q402 74 439 96 L453 57 Z M292 439 Q253 439 221 422 Q189 405 165.5 377.5 Q142 350 128.5 314.5 Q115 279 115 242 Q193 243 254 249.5 Q315 256 353 280 Q372 292 383 313.5 Q394 335 394 359 Q394 398 367 418.5 Q340 439 292 439 Z M449 612 Q449 592 434 577.5 Q419 563 399 563 Q382 563 370.5 574 Q359 585 359 602 Q359 622 375 637 Q391 652 411 652 Q428 652 438.5 640 Q449 628 449 612 Z M273 612 Q273 592 257.5 577.5 Q242 563 222 563 Q205 563 194 574 Q183 585 183 602 Q183 622 199 637 Q215 652 234 652 Q251 652 262 640 Q273 628 273 612 Z " />
<glyph glyph-name="igrave" unicode="&#xec;" horiz-adv-x="213" d="M90 432 L74 469 L184 499 L114 0 L29 0 L90 432 Z M57 694 L124 718 L206 560 L161 542 L57 694 Z " />
<glyph glyph-name="iacute" unicode="&#xed;" horiz-adv-x="213" d="M90 432 L74 469 L184 499 L114 0 L29 0 L90 432 Z M96 560 L222 718 L283 694 L136 542 L96 560 Z " />
<glyph glyph-name="icircumflex" unicode="&#xee;" horiz-adv-x="213" d="M90 432 L74 469 L184 499 L114 0 L29 0 L90 432 Z M16 571 L157 704 L186 704 L288 570 L248 546 L163 642 L48 546 L16 571 Z " />
<glyph glyph-name="idieresis" unicode="&#xef;" horiz-adv-x="213" d="M90 432 L74 469 L184 499 L114 0 L29 0 L90 432 Z M290 612 Q290 592 275 577.5 Q260 563 240 563 Q223 563 211.5 574 Q200 585 200 602 Q200 622 216 637 Q232 652 252 652 Q269 652 279.5 640 Q290 628 290 612 Z M114 612 Q114 592 98.5 577.5 Q83 563 63 563 Q46 563 35 574 Q24 585 24 602 Q24 622 40 637 Q56 652 75 652 Q92 652 103 640 Q114 628 114 612 Z " />
<glyph glyph-name="eth" unicode="&#xf0;" horiz-adv-x="565" d="M352 14 Q326 2 299.5 -5 Q273 -12 244 -12 Q198 -12 158 5.5 Q118 23 88.5 54 Q59 85 42 127 Q25 169 25 217 Q25 255 36 290 Q47 325 66 354 Q85 383 111.5 406.5 Q138 430 169 445 L207 463 Q250 483 294 483 Q323 483 349 473.5 Q375 464 400 443 Q381 481 356 516 Q331 551 302 581 L177 508 L153 541 L272 611 Q226 656 177 694 L251 735 Q277 715 300.5 694.5 Q324 674 347 651 L463 720 L488 685 L376 620 Q407 587 436.5 547 Q466 507 488.5 462 Q511 417 524.5 368.5 Q538 320 538 270 Q538 228 527 191 Q516 154 496.5 124 Q477 94 450 70.5 Q423 47 392 32 L352 14 Z M348 59 Q393 88 421.5 136 Q450 184 450 244 Q450 281 437.5 315.5 Q425 350 402.5 376.5 Q380 403 347.5 419 Q315 435 276 435 Q260 435 246 432.5 Q232 430 218 422 Q195 409 176 389 Q157 369 143.5 345 Q130 321 123 293.5 Q116 266 116 238 Q116 205 126.5 171 Q137 137 158 109.5 Q179 82 210.5 65 Q242 48 284 48 Q301 48 317 50.5 Q333 53 348 59 Z " />
<glyph glyph-name="ntilde" unicode="&#xf1;" horiz-adv-x="527" d="M90 435 L75 475 L183 499 L172 422 Q185 433 200 443 Q215 453 228 461 L243 470 Q298 499 349 499 Q380 499 406.5 488.5 Q433 478 451 458 Q469 438 477.5 408.5 Q486 379 481 342 L433 0 L348 0 L392 316 Q400 376 370 407 Q340 438 290 438 Q274 438 256 434 Q238 430 220 420 Q207 412 194 400.5 Q181 389 167 375 L114 0 L29 0 L90 435 Z M166 576 Q180 606 204.5 628.5 Q229 651 262 651 Q277 651 290.5 646 Q304 641 317 634.5 Q330 628 343.5 623 Q357 618 371 618 Q389 618 401.5 629.5 Q414 641 422 657 L460 642 Q447 611 421.5 588.5 Q396 566 363 566 Q349 566 336 571 Q323 576 309.5 582.5 Q296 589 282 594 Q268 599 253 599 Q236 599 224 588 Q212 577 204 562 L166 576 Z " />
<glyph glyph-name="ograve" unicode="&#xf2;" horiz-adv-x="565" d="M367 20 Q338 6 307 -3 Q276 -12 243 -12 Q198 -12 158 5 Q118 22 88.5 52 Q59 82 41.5 123.5 Q24 165 24 214 Q24 283 58.5 345.5 Q93 408 157 445 L196 467 Q254 499 320 499 Q365 499 405 482 Q445 465 474.5 434.5 Q504 404 521 362 Q538 320 538 271 Q538 202 504.5 141 Q471 80 408 42 L367 20 Z M360 67 Q401 99 426 146.5 Q451 194 451 248 Q451 288 438 322.5 Q425 357 401.5 382.5 Q378 408 346 423 Q314 438 276 438 Q256 438 238.5 434 Q221 430 204 419 Q161 391 137.5 341 Q114 291 114 238 Q114 199 127 164.5 Q140 130 162.5 104.5 Q185 79 216.5 64.5 Q248 50 286 50 Q324 50 360 67 Z M232 694 L299 718 L381 560 L336 542 L232 694 Z " />
<glyph glyph-name="oacute" unicode="&#xf3;" horiz-adv-x="565" d="M367 20 Q338 6 307 -3 Q276 -12 243 -12 Q198 -12 158 5 Q118 22 88.5 52 Q59 82 41.5 123.5 Q24 165 24 214 Q24 283 58.5 345.5 Q93 408 157 445 L196 467 Q254 499 320 499 Q365 499 405 482 Q445 465 474.5 434.5 Q504 404 521 362 Q538 320 538 271 Q538 202 504.5 141 Q471 80 408 42 L367 20 Z M360 67 Q401 99 426 146.5 Q451 194 451 248 Q451 288 438 322.5 Q425 357 401.5 382.5 Q378 408 346 423 Q314 438 276 438 Q256 438 238.5 434 Q221 430 204 419 Q161 391 137.5 341 Q114 291 114 238 Q114 199 127 164.5 Q140 130 162.5 104.5 Q185 79 216.5 64.5 Q248 50 286 50 Q324 50 360 67 Z M271 560 L397 718 L458 694 L311 542 L271 560 Z " />
<glyph glyph-name="ocircumflex" unicode="&#xf4;" horiz-adv-x="565" d="M367 20 Q338 6 307 -3 Q276 -12 243 -12 Q198 -12 158 5 Q118 22 88.5 52 Q59 82 41.5 123.5 Q24 165 24 214 Q24 283 58.5 345.5 Q93 408 157 445 L196 467 Q254 499 320 499 Q365 499 405 482 Q445 465 474.5 434.5 Q504 404 521 362 Q538 320 538 271 Q538 202 504.5 141 Q471 80 408 42 L367 20 Z M360 67 Q401 99 426 146.5 Q451 194 451 248 Q451 288 438 322.5 Q425 357 401.5 382.5 Q378 408 346 423 Q314 438 276 438 Q256 438 238.5 434 Q221 430 204 419 Q161 391 137.5 341 Q114 291 114 238 Q114 199 127 164.5 Q140 130 162.5 104.5 Q185 79 216.5 64.5 Q248 50 286 50 Q324 50 360 67 Z M191 571 L332 704 L361 704 L463 570 L423 546 L338 642 L223 546 L191 571 Z " />
<glyph glyph-name="otilde" unicode="&#xf5;" horiz-adv-x="565" d="M367 20 Q338 6 307 -3 Q276 -12 243 -12 Q198 -12 158 5 Q118 22 88.5 52 Q59 82 41.5 123.5 Q24 165 24 214 Q24 283 58.5 345.5 Q93 408 157 445 L196 467 Q254 499 320 499 Q365 499 405 482 Q445 465 474.5 434.5 Q504 404 521 362 Q538 320 538 271 Q538 202 504.5 141 Q471 80 408 42 L367 20 Z M360 67 Q401 99 426 146.5 Q451 194 451 248 Q451 288 438 322.5 Q425 357 401.5 382.5 Q378 408 346 423 Q314 438 276 438 Q256 438 238.5 434 Q221 430 204 419 Q161 391 137.5 341 Q114 291 114 238 Q114 199 127 164.5 Q140 130 162.5 104.5 Q185 79 216.5 64.5 Q248 50 286 50 Q324 50 360 67 Z M185 576 Q199 606 223.5 628.5 Q248 651 281 651 Q296 651 309.5 646 Q323 641 336 634.5 Q349 628 362.5 623 Q376 618 390 618 Q408 618 420.5 629.5 Q433 641 441 657 L479 642 Q466 611 440.5 588.5 Q415 566 382 566 Q368 566 355 571 Q342 576 328.5 582.5 Q315 589 301 594 Q287 599 272 599 Q255 599 243 588 Q231 577 223 562 L185 576 Z " />
<glyph glyph-name="odieresis" unicode="&#xf6;" horiz-adv-x="565" d="M367 20 Q338 6 307 -3 Q276 -12 243 -12 Q198 -12 158 5 Q118 22 88.5 52 Q59 82 41.5 123.5 Q24 165 24 214 Q24 283 58.5 345.5 Q93 408 157 445 L196 467 Q254 499 320 499 Q365 499 405 482 Q445 465 474.5 434.5 Q504 404 521 362 Q538 320 538 271 Q538 202 504.5 141 Q471 80 408 42 L367 20 Z M360 67 Q401 99 426 146.5 Q451 194 451 248 Q451 288 438 322.5 Q425 357 401.5 382.5 Q378 408 346 423 Q314 438 276 438 Q256 438 238.5 434 Q221 430 204 419 Q161 391 137.5 341 Q114 291 114 238 Q114 199 127 164.5 Q140 130 162.5 104.5 Q185 79 216.5 64.5 Q248 50 286 50 Q324 50 360 67 Z M465 612 Q465 592 450 577.5 Q435 563 415 563 Q398 563 386.5 574 Q375 585 375 602 Q375 622 391 637 Q407 652 427 652 Q444 652 454.5 640 Q465 628 465 612 Z M289 612 Q289 592 273.5 577.5 Q258 563 238 563 Q221 563 210 574 Q199 585 199 602 Q199 622 215 637 Q231 652 250 652 Q267 652 278 640 Q289 628 289 612 Z " />
<glyph glyph-name="divide" unicode="&#xf7;" horiz-adv-x="566" d="M332 428 Q332 408 317.5 393 Q303 378 283 378 Q262 378 248 392.5 Q234 407 234 428 Q234 448 248.5 462.5 Q263 477 283 477 Q303 477 317.5 462.5 Q332 448 332 428 Z M34 279 L532 279 L532 221 L34 221 L34 279 Z M332 72 Q332 52 317.5 37.5 Q303 23 283 23 Q262 23 248 37.5 Q234 52 234 72 Q234 93 248.5 107.5 Q263 122 283 122 Q303 122 317.5 107.5 Q332 93 332 72 Z " />
<glyph glyph-name="oslash" unicode="&#xf8;" horiz-adv-x="564" d="M21 -30 L90 51 Q59 81 41.5 122 Q24 163 24 214 Q24 283 58.5 345.5 Q93 408 157 445 L196 467 Q254 499 320 499 Q353 499 383 489 Q413 479 438 461 L513 548 L550 522 L474 435 Q504 404 521 362.5 Q538 321 538 271 Q538 202 504.5 141 Q471 80 408 42 L367 20 Q338 6 307 -3 Q276 -12 243 -12 Q178 -12 125 24 L55 -57 L21 -30 Z M178 89 Q200 71 227 60.5 Q254 50 286 50 Q324 50 360 67 Q401 99 426 146.5 Q451 194 451 248 Q451 280 441 308.5 Q431 337 414 360 L178 89 Z M386 397 Q364 416 336 427 Q308 438 276 438 Q256 438 238.5 434 Q221 430 204 419 Q161 391 137.5 341 Q114 291 114 238 Q114 173 150 126 L386 397 Z " />
<glyph glyph-name="ugrave" unicode="&#xf9;" horiz-adv-x="525" d="M353 65 Q340 54 324.5 43.5 Q309 33 297 25 L283 17 Q228 -12 176 -12 Q115 -12 79.5 25 Q44 62 44 125 Q44 131 44.5 137.5 Q45 144 46 151 L87 438 L71 476 L180 499 L134 174 Q133 169 133 163.5 Q133 158 133 152 Q133 104 160.5 77 Q188 50 235 50 Q271 50 301.5 67.5 Q332 85 358 111 L404 438 L388 476 L497 499 L427 0 L344 0 L353 65 Z M212 694 L279 718 L361 560 L316 542 L212 694 Z " />
<glyph glyph-name="uacute" unicode="&#xfa;" horiz-adv-x="525" d="M353 65 Q340 54 324.5 43.5 Q309 33 297 25 L283 17 Q228 -12 176 -12 Q115 -12 79.5 25 Q44 62 44 125 Q44 131 44.5 137.5 Q45 144 46 151 L87 438 L71 476 L180 499 L134 174 Q133 169 133 163.5 Q133 158 133 152 Q133 104 160.5 77 Q188 50 235 50 Q271 50 301.5 67.5 Q332 85 358 111 L404 438 L388 476 L497 499 L427 0 L344 0 L353 65 Z M251 560 L377 718 L438 694 L291 542 L251 560 Z " />
<glyph glyph-name="ucircumflex" unicode="&#xfb;" horiz-adv-x="525" d="M353 65 Q340 54 324.5 43.5 Q309 33 297 25 L283 17 Q228 -12 176 -12 Q115 -12 79.5 25 Q44 62 44 125 Q44 131 44.5 137.5 Q45 144 46 151 L87 438 L71 476 L180 499 L134 174 Q133 169 133 163.5 Q133 158 133 152 Q133 104 160.5 77 Q188 50 235 50 Q271 50 301.5 67.5 Q332 85 358 111 L404 438 L388 476 L497 499 L427 0 L344 0 L353 65 Z M171 571 L312 704 L341 704 L443 570 L403 546 L318 642 L203 546 L171 571 Z " />
<glyph glyph-name="udieresis" unicode="&#xfc;" horiz-adv-x="525" d="M353 65 Q340 54 324.5 43.5 Q309 33 297 25 L283 17 Q228 -12 176 -12 Q115 -12 79.5 25 Q44 62 44 125 Q44 131 44.5 137.5 Q45 144 46 151 L87 438 L71 476 L180 499 L134 174 Q133 169 133 163.5 Q133 158 133 152 Q133 104 160.5 77 Q188 50 235 50 Q271 50 301.5 67.5 Q332 85 358 111 L404 438 L388 476 L497 499 L427 0 L344 0 L353 65 Z M445 612 Q445 592 430 577.5 Q415 563 395 563 Q378 563 366.5 574 Q355 585 355 602 Q355 622 371 637 Q387 652 407 652 Q424 652 434.5 640 Q445 628 445 612 Z M269 612 Q269 592 253.5 577.5 Q238 563 218 563 Q201 563 190 574 Q179 585 179 602 Q179 622 195 637 Q211 652 230 652 Q247 652 258 640 Q269 628 269 612 Z " />
<glyph glyph-name="yacute" unicode="&#xfd;" horiz-adv-x="468" d="M163 12 L28 487 L120 487 L221 121 L393 452 L385 487 L483 487 L125 -197 L48 -197 L163 12 Z M224 560 L350 718 L411 694 L264 542 L224 560 Z " />
<glyph glyph-name="thorn" unicode="&#xfe;" horiz-adv-x="549" d="M124 679 L108 717 L218 740 L177 453 Q209 471 242.5 485 Q276 499 314 499 Q360 499 398.5 480.5 Q437 462 465 430.5 Q493 399 508 357 Q523 315 523 268 Q523 193 484.5 129 Q446 65 376 31 L336 13 Q311 1 286.5 -5.5 Q262 -12 236 -12 Q173 -12 119 34 L86 -197 L1 -197 L124 679 Z M131 119 Q155 87 190.5 67.5 Q226 48 268 48 Q279 48 289 50 Q299 52 309 54 Q336 62 359.5 81.5 Q383 101 399.5 127 Q416 153 425.5 184 Q435 215 435 247 Q435 284 423 319 Q411 354 388.5 380.5 Q366 407 333.5 423 Q301 439 261 439 Q236 439 213.5 430 Q191 421 171 404 L131 119 Z " />
<glyph glyph-name="ydieresis" unicode="&#xff;" horiz-adv-x="468" d="M163 12 L28 487 L120 487 L221 121 L393 452 L385 487 L483 487 L125 -197 L48 -197 L163 12 Z M418 612 Q418 592 403 577.5 Q388 563 368 563 Q351 563 339.5 574 Q328 585 328 602 Q328 622 344 637 Q360 652 380 652 Q397 652 407.5 640 Q418 628 418 612 Z M242 612 Q242 592 226.5 577.5 Q211 563 191 563 Q174 563 163 574 Q152 585 152 602 Q152 622 168 637 Q184 652 203 652 Q220 652 231 640 Q242 628 242 612 Z " />
<glyph glyph-name="Amacron" unicode="&#x100;" horiz-adv-x="678" d="M335 689 L322 728 L420 728 L640 0 L543 0 L472 240 L164 240 L55 39 L63 0 L-42 0 L335 689 Z M451 305 L362 607 L200 305 L451 305 Z M260 858 L536 858 L529 806 L252 806 L260 858 Z " />
<glyph glyph-name="amacron" unicode="&#x101;" horiz-adv-x="549" d="M373 34 Q368 30 359.5 26 Q351 22 344 17 L330 11 Q286 -12 235 -12 Q189 -12 150.5 6.5 Q112 25 84.5 56.5 Q57 88 41.5 129.5 Q26 171 26 218 Q26 301 67.5 362 Q109 423 172 454 L213 475 Q261 498 314 498 Q349 498 383 486.5 Q417 475 445 449 Q447 447 448 446 Q449 445 451 443 L462 486 L521 498 L452 0 L369 0 L373 34 Z M418 366 Q397 395 362 417 Q327 439 279 439 Q263 439 247 436 Q231 433 217 425 Q170 397 142.5 346.5 Q115 296 115 239 Q115 204 126.5 170 Q138 136 159.5 109 Q181 82 213 65 Q245 48 286 48 Q336 48 378 81 L418 366 Z M190 625 L466 625 L459 573 L182 573 L190 625 Z " />
<glyph glyph-name="Abreve" unicode="&#x102;" horiz-adv-x="678" d="M335 689 L322 728 L420 728 L640 0 L543 0 L472 240 L164 240 L55 39 L63 0 L-42 0 L335 689 Z M451 305 L362 607 L200 305 L451 305 Z M311 904 Q315 869 339.5 855 Q364 841 396 841 Q428 841 456 854.5 Q484 868 498 904 L537 904 Q522 847 482 818.5 Q442 790 388 790 Q334 790 302.5 819 Q271 848 272 904 L311 904 Z " />
<glyph glyph-name="abreve" unicode="&#x103;" horiz-adv-x="549" d="M373 34 Q368 30 359.5 26 Q351 22 344 17 L330 11 Q286 -12 235 -12 Q189 -12 150.5 6.5 Q112 25 84.5 56.5 Q57 88 41.5 129.5 Q26 171 26 218 Q26 301 67.5 362 Q109 423 172 454 L213 475 Q261 498 314 498 Q349 498 383 486.5 Q417 475 445 449 Q447 447 448 446 Q449 445 451 443 L462 486 L521 498 L452 0 L369 0 L373 34 Z M418 366 Q397 395 362 417 Q327 439 279 439 Q263 439 247 436 Q231 433 217 425 Q170 397 142.5 346.5 Q115 296 115 239 Q115 204 126.5 170 Q138 136 159.5 109 Q181 82 213 65 Q245 48 286 48 Q336 48 378 81 L418 366 Z M241 670 Q245 635 269 621.5 Q293 608 325 608 Q358 608 386 621.5 Q414 635 428 670 L467 670 Q451 614 411.5 585.5 Q372 557 318 557 Q264 557 232.5 586 Q201 615 202 670 L241 670 Z " />
<glyph glyph-name="Aogonek" unicode="&#x104;" horiz-adv-x="678" d="M619 -189 Q602 -197 583 -201.5 Q564 -206 543 -206 Q508 -206 486 -186 Q464 -166 464 -131 Q464 -109 472.5 -90 Q481 -71 495 -55 Q509 -39 527 -25.5 Q545 -12 563 0 L535 0 L468 239 L159 239 L48 39 L55 0 L-51 0 L340 689 L327 728 L424 728 L632 0 L605 0 Q591 -10 575.5 -21.5 Q560 -33 547.5 -47.5 Q535 -62 526.5 -78.5 Q518 -95 518 -114 Q518 -135 530.5 -147.5 Q543 -160 566 -160 Q579 -160 591 -157 Q603 -154 614 -149 L619 -189 Z M449 305 L365 603 L197 305 L449 305 Z " />
<glyph glyph-name="aogonek" unicode="&#x105;" horiz-adv-x="549" d="M373 34 Q368 30 359.5 26 Q351 22 344 17 L330 11 Q286 -12 235 -12 Q189 -12 150.5 6.5 Q112 25 84.5 56.5 Q57 88 41.5 129.5 Q26 171 26 218 Q26 301 67.5 362 Q109 423 172 454 L213 475 Q261 498 314 498 Q349 498 383 486.5 Q417 475 445 449 Q447 447 448 446 Q449 445 451 443 L462 486 L521 498 L452 0 L435 0 Q421 -10 405.5 -21.5 Q390 -33 377.5 -47.5 Q365 -62 356.5 -78.5 Q348 -95 348 -114 Q348 -135 360.5 -147.5 Q373 -160 396 -160 Q409 -160 421 -157 Q433 -154 444 -149 L449 -189 Q418 -202 383 -205 Q366 -206 350 -201.5 Q334 -197 321.5 -188 Q309 -179 301.5 -165 Q294 -151 294 -131 Q294 -109 302.5 -90 Q311 -71 325 -55 Q339 -39 357 -25.5 Q375 -12 393 0 L369 0 L373 34 Z M418 366 Q397 395 362 417 Q327 439 279 439 Q263 439 247 436 Q231 433 217 425 Q170 397 142.5 346.5 Q115 296 115 239 Q115 204 126.5 170 Q138 136 159.5 109 Q181 82 213 65 Q245 48 286 48 Q336 48 378 81 L418 366 Z " />
<glyph glyph-name="Cacute" unicode="&#x106;" horiz-adv-x="659" d="M581 40 Q537 14 484.5 -0.5 Q432 -15 376 -15 Q305 -15 242 10.5 Q179 36 131.5 82 Q84 128 56 192.5 Q28 257 28 335 Q28 393 44.5 446.5 Q61 500 91 545 Q121 590 162 625.5 Q203 661 252 684 L294 705 Q332 723 372.5 733 Q413 743 455 743 Q561 743 662 685 L621 608 Q577 642 524 661.5 Q471 681 410 681 Q381 681 352.5 675 Q324 669 298 655 Q259 634 227 602.5 Q195 571 171.5 532.5 Q148 494 135.5 449.5 Q123 405 123 357 Q123 298 144 242 Q165 186 203.5 143 Q242 100 296 74 Q350 48 416 48 Q462 48 501.5 58.5 Q541 69 579 87 L581 40 Z M405 793 L531 952 L592 928 L445 775 L405 793 Z " />
<glyph glyph-name="cacute" unicode="&#x107;" horiz-adv-x="470" d="M406 32 Q383 19 359 9 Q305 -11 252 -11 Q204 -11 162.5 6.5 Q121 24 90 55 Q59 86 41.5 128.5 Q24 171 24 221 Q24 260 35 295 Q46 330 65.5 360 Q85 390 112.5 414 Q140 438 172 454 L214 473 Q240 485 267 492 Q294 499 323 499 Q396 499 459 460 L424 395 Q395 414 361 426 Q327 438 284 438 Q266 438 249 435 Q232 432 217 424 Q171 399 142.5 349.5 Q114 300 114 243 Q114 205 126.5 170 Q139 135 163 108 Q187 81 221.5 64.5 Q256 48 300 48 Q326 48 353.5 54.5 Q381 61 406 72 L406 32 Z M264 560 L390 718 L451 694 L304 542 L264 560 Z " />
<glyph glyph-name="Ccircumflex" unicode="&#x108;" horiz-adv-x="659" d="M581 40 Q537 14 484.5 -0.5 Q432 -15 376 -15 Q305 -15 242 10.5 Q179 36 131.5 82 Q84 128 56 192.5 Q28 257 28 335 Q28 393 44.5 446.5 Q61 500 91 545 Q121 590 162 625.5 Q203 661 252 684 L294 705 Q332 723 372.5 733 Q413 743 455 743 Q561 743 662 685 L621 608 Q577 642 524 661.5 Q471 681 410 681 Q381 681 352.5 675 Q324 669 298 655 Q259 634 227 602.5 Q195 571 171.5 532.5 Q148 494 135.5 449.5 Q123 405 123 357 Q123 298 144 242 Q165 186 203.5 143 Q242 100 296 74 Q350 48 416 48 Q462 48 501.5 58.5 Q541 69 579 87 L581 40 Z M325 804 L466 937 L495 937 L597 803 L558 779 L472 875 L357 780 L325 804 Z " />
<glyph glyph-name="ccircumflex" unicode="&#x109;" horiz-adv-x="470" d="M406 32 Q383 19 359 9 Q305 -11 252 -11 Q204 -11 162.5 6.5 Q121 24 90 55 Q59 86 41.5 128.5 Q24 171 24 221 Q24 260 35 295 Q46 330 65.5 360 Q85 390 112.5 414 Q140 438 172 454 L214 473 Q240 485 267 492 Q294 499 323 499 Q396 499 459 460 L424 395 Q395 414 361 426 Q327 438 284 438 Q266 438 249 435 Q232 432 217 424 Q171 399 142.5 349.5 Q114 300 114 243 Q114 205 126.5 170 Q139 135 163 108 Q187 81 221.5 64.5 Q256 48 300 48 Q326 48 353.5 54.5 Q381 61 406 72 L406 32 Z M184 571 L325 704 L354 704 L456 570 L416 546 L331 642 L216 546 L184 571 Z " />
<glyph glyph-name="Cdotaccent" unicode="&#x10a;" horiz-adv-x="659" d="M581 40 Q537 14 484.5 -0.5 Q432 -15 376 -15 Q305 -15 242 10.5 Q179 36 131.5 82 Q84 128 56 192.5 Q28 257 28 335 Q28 393 44.5 446.5 Q61 500 91 545 Q121 590 162 625.5 Q203 661 252 684 L294 705 Q332 723 372.5 733 Q413 743 455 743 Q561 743 662 685 L621 608 Q577 642 524 661.5 Q471 681 410 681 Q381 681 352.5 675 Q324 669 298 655 Q259 634 227 602.5 Q195 571 171.5 532.5 Q148 494 135.5 449.5 Q123 405 123 357 Q123 298 144 242 Q165 186 203.5 143 Q242 100 296 74 Q350 48 416 48 Q462 48 501.5 58.5 Q541 69 579 87 L581 40 Z M512 846 Q512 825 496 810.5 Q480 796 460 796 Q443 796 431.5 807.5 Q420 819 420 836 Q420 856 436.5 871.5 Q453 887 473 887 Q490 887 501 875 Q512 863 512 846 Z " />
<glyph glyph-name="cdotaccent" unicode="&#x10b;" horiz-adv-x="470" d="M406 32 Q383 19 359 9 Q305 -11 252 -11 Q204 -11 162.5 6.5 Q121 24 90 55 Q59 86 41.5 128.5 Q24 171 24 221 Q24 260 35 295 Q46 330 65.5 360 Q85 390 112.5 414 Q140 438 172 454 L214 473 Q240 485 267 492 Q294 499 323 499 Q396 499 459 460 L424 395 Q395 414 361 426 Q327 438 284 438 Q266 438 249 435 Q232 432 217 424 Q171 399 142.5 349.5 Q114 300 114 243 Q114 205 126.5 170 Q139 135 163 108 Q187 81 221.5 64.5 Q256 48 300 48 Q326 48 353.5 54.5 Q381 61 406 72 L406 32 Z M371 612 Q371 592 355 577 Q339 562 319 562 Q302 562 290.5 573.5 Q279 585 279 602 Q279 622 295 638 Q311 654 331 654 Q349 654 360 641.5 Q371 629 371 612 Z " />
<glyph glyph-name="Ccaron" unicode="&#x10c;" horiz-adv-x="659" d="M581 40 Q537 14 484.5 -0.5 Q432 -15 376 -15 Q305 -15 242 10.5 Q179 36 131.5 82 Q84 128 56 192.5 Q28 257 28 335 Q28 393 44.5 446.5 Q61 500 91 545 Q121 590 162 625.5 Q203 661 252 684 L294 705 Q332 723 372.5 733 Q413 743 455 743 Q561 743 662 685 L621 608 Q577 642 524 661.5 Q471 681 410 681 Q381 681 352.5 675 Q324 669 298 655 Q259 634 227 602.5 Q195 571 171.5 532.5 Q148 494 135.5 449.5 Q123 405 123 357 Q123 298 144 242 Q165 186 203.5 143 Q242 100 296 74 Q350 48 416 48 Q462 48 501.5 58.5 Q541 69 579 87 L581 40 Z M340 912 L380 936 L466 840 L581 936 L613 912 L473 779 L443 779 L340 912 Z " />
<glyph glyph-name="ccaron" unicode="&#x10d;" horiz-adv-x="470" d="M406 32 Q383 19 359 9 Q305 -11 252 -11 Q204 -11 162.5 6.5 Q121 24 90 55 Q59 86 41.5 128.5 Q24 171 24 221 Q24 260 35 295 Q46 330 65.5 360 Q85 390 112.5 414 Q140 438 172 454 L214 473 Q240 485 267 492 Q294 499 323 499 Q396 499 459 460 L424 395 Q395 414 361 426 Q327 438 284 438 Q266 438 249 435 Q232 432 217 424 Q171 399 142.5 349.5 Q114 300 114 243 Q114 205 126.5 170 Q139 135 163 108 Q187 81 221.5 64.5 Q256 48 300 48 Q326 48 353.5 54.5 Q381 61 406 72 L406 32 Z M199 679 L239 703 L325 607 L440 703 L471 679 L332 546 L302 546 L199 679 Z " />
<glyph glyph-name="Dcaron" unicode="&#x10e;" horiz-adv-x="687" d="M116 689 L98 728 L338 728 Q406 728 464.5 701.5 Q523 675 566 629 Q609 583 633.5 522.5 Q658 462 658 394 Q658 293 607.5 209.5 Q557 126 467 69 L425 48 Q385 25 340.5 12.5 Q296 0 248 0 L19 0 L116 689 Z M288 66 Q323 66 356.5 73 Q390 80 418 97 Q489 142 527.5 215.5 Q566 289 566 374 Q566 433 545 485.5 Q524 538 488 577 Q452 616 403 638.5 Q354 661 297 661 L201 661 L118 66 L288 66 Z M265 912 L305 936 L391 840 L506 936 L538 912 L398 779 L368 779 L265 912 Z " />
<glyph glyph-name="dcaron" unicode="&#x10f;" horiz-adv-x="580" d="M372 34 Q365 30 357 26 Q349 22 342 18 L328 11 Q281 -11 235 -11 Q189 -11 150.5 7.5 Q112 26 84 57 Q56 88 40.5 129.5 Q25 171 25 218 Q25 301 66.5 362.5 Q108 424 171 455 L212 475 Q235 487 261 493 Q287 499 313 499 Q344 499 374 488 Q404 477 430 454 L462 679 L447 717 L555 740 L451 0 L368 0 L372 34 Z M417 366 Q394 399 357.5 419 Q321 439 278 439 Q262 439 246 435.5 Q230 432 217 424 Q193 409 174 388.5 Q155 368 142 343.5 Q129 319 122 292.5 Q115 266 115 240 Q115 205 126.5 171 Q138 137 159.5 110 Q181 83 212.5 66 Q244 49 285 49 Q309 49 332.5 56 Q356 63 378 81 L417 366 Z M567 562 Q585 587 598.5 611 Q612 635 621 664 Q611 668 606 676.5 Q601 685 601 696 Q601 719 615.5 730 Q630 741 644 741 Q662 741 671 729.5 Q680 718 680 701 Q680 671 660.5 628.5 Q641 586 601 547 L567 562 Z " />
<glyph glyph-name="Dcroat" unicode="&#x110;" horiz-adv-x="696" d="M76 347 L-7 347 L12 403 L84 403 L124 689 L107 728 L346 728 Q414 728 473 701.5 Q532 675 575 629 Q618 583 642.5 522.5 Q667 462 667 394 Q667 293 616 209.5 Q565 126 476 69 L434 48 Q394 25 349.5 12.5 Q305 0 257 0 L27 0 L76 347 Z M297 66 Q332 66 365.5 73 Q399 80 427 97 Q498 142 536 215.5 Q574 289 574 374 Q574 433 553.5 485.5 Q533 538 497 577 Q461 616 412 638.5 Q363 661 305 661 L210 661 L173 403 L360 403 L342 347 L165 347 L126 66 L297 66 Z " />
<glyph glyph-name="dslash" unicode="&#x111;" horiz-adv-x="549" d="M374 44 L344 26 L329 18 Q278 -12 219 -12 Q177 -12 141 4 Q105 20 78.5 48.5 Q52 77 37.5 116 Q23 155 23 201 Q23 241 34 278 Q45 315 65 346 Q85 377 111.5 402 Q138 427 170 445 L211 467 Q267 499 329 499 Q391 499 431 462 L446 569 L319 569 L334 615 L453 615 L461 676 L445 710 L555 740 L537 615 L608 615 L593 569 L531 569 L451 0 L368 0 L374 44 Z M419 375 Q397 404 364.5 421 Q332 438 292 438 Q272 438 252.5 434 Q233 430 216 419 Q192 403 173 381 Q154 359 141 334 Q128 309 121 282 Q114 255 114 228 Q114 190 126 157.5 Q138 125 159.5 101 Q181 77 211 63.5 Q241 50 276 50 Q302 50 328.5 59.5 Q355 69 379 91 L419 375 Z " />
<glyph glyph-name="Emacron" unicode="&#x112;" horiz-adv-x="522" d="M116 689 L98 728 L272 728 L531 728 L497 661 L201 661 L166 410 L477 410 L442 344 L156 344 L118 67 L468 67 L439 0 L19 0 L116 689 Z M203 858 L479 858 L472 806 L195 806 L203 858 Z " />
<glyph glyph-name="emacron" unicode="&#x113;" horiz-adv-x="516" d="M453 57 Q407 27 356 7 Q305 -13 242 -12 Q195 -12 155.5 4.5 Q116 21 86.5 50.5 Q57 80 40.5 121 Q24 162 24 211 Q24 252 36.5 289.5 Q49 327 70 358 Q91 389 117 413 Q143 437 170 452 L202 470 Q229 484 257 491.5 Q285 499 317 499 Q386 499 431 467.5 Q476 436 476 376 Q476 338 457 309.5 Q438 281 406 261 L376 243 Q335 218 269 206 Q203 194 119 192 Q127 129 172.5 88.5 Q218 48 290 48 Q332 48 367 61 Q402 74 439 96 L453 57 Z M292 439 Q253 439 221 422 Q189 405 165.5 377.5 Q142 350 128.5 314.5 Q115 279 115 242 Q193 243 254 249.5 Q315 256 353 280 Q372 292 383 313.5 Q394 335 394 359 Q394 398 367 418.5 Q340 439 292 439 Z M181 625 L457 625 L450 573 L173 573 L181 625 Z " />
<glyph glyph-name="Ebreve" unicode="&#x114;" horiz-adv-x="522" d="M116 689 L98 728 L272 728 L531 728 L497 661 L201 661 L166 410 L477 410 L442 344 L156 344 L118 67 L468 67 L439 0 L19 0 L116 689 Z M254 904 Q258 869 282.5 855 Q307 841 339 841 Q371 841 399 854.5 Q427 868 441 904 L480 904 Q465 847 425 818.5 Q385 790 331 790 Q277 790 245.5 819 Q214 848 215 904 L254 904 Z " />
<glyph glyph-name="ebreve" unicode="&#x115;" horiz-adv-x="516" d="M453 57 Q407 27 356 7 Q305 -13 242 -12 Q195 -12 155.5 4.5 Q116 21 86.5 50.5 Q57 80 40.5 121 Q24 162 24 211 Q24 252 36.5 289.5 Q49 327 70 358 Q91 389 117 413 Q143 437 170 452 L202 470 Q229 484 257 491.5 Q285 499 317 499 Q386 499 431 467.5 Q476 436 476 376 Q476 338 457 309.5 Q438 281 406 261 L376 243 Q335 218 269 206 Q203 194 119 192 Q127 129 172.5 88.5 Q218 48 290 48 Q332 48 367 61 Q402 74 439 96 L453 57 Z M292 439 Q253 439 221 422 Q189 405 165.5 377.5 Q142 350 128.5 314.5 Q115 279 115 242 Q193 243 254 249.5 Q315 256 353 280 Q372 292 383 313.5 Q394 335 394 359 Q394 398 367 418.5 Q340 439 292 439 Z M232 670 Q236 635 260 621.5 Q284 608 316 608 Q349 608 377 621.5 Q405 635 419 670 L458 670 Q442 614 402.5 585.5 Q363 557 309 557 Q255 557 223.5 586 Q192 615 193 670 L232 670 Z " />
<glyph glyph-name="Edotaccent" unicode="&#x116;" horiz-adv-x="522" d="M116 689 L98 728 L272 728 L531 728 L497 661 L201 661 L166 410 L477 410 L442 344 L156 344 L118 67 L468 67 L439 0 L19 0 L116 689 Z M384 846 Q384 825 368 810.5 Q352 796 332 796 Q315 796 303.5 807.5 Q292 819 292 836 Q292 856 308.5 871.5 Q325 887 345 887 Q362 887 373 875 Q384 863 384 846 Z " />
<glyph glyph-name="edotaccent" unicode="&#x117;" horiz-adv-x="516" d="M453 57 Q407 27 356 7 Q305 -13 242 -12 Q195 -12 155.5 4.5 Q116 21 86.5 50.5 Q57 80 40.5 121 Q24 162 24 211 Q24 252 36.5 289.5 Q49 327 70 358 Q91 389 117 413 Q143 437 170 452 L202 470 Q229 484 257 491.5 Q285 499 317 499 Q386 499 431 467.5 Q476 436 476 376 Q476 338 457 309.5 Q438 281 406 261 L376 243 Q335 218 269 206 Q203 194 119 192 Q127 129 172.5 88.5 Q218 48 290 48 Q332 48 367 61 Q402 74 439 96 L453 57 Z M292 439 Q253 439 221 422 Q189 405 165.5 377.5 Q142 350 128.5 314.5 Q115 279 115 242 Q193 243 254 249.5 Q315 256 353 280 Q372 292 383 313.5 Q394 335 394 359 Q394 398 367 418.5 Q340 439 292 439 Z M362 612 Q362 592 346 577 Q330 562 310 562 Q293 562 281.5 573.5 Q270 585 270 602 Q270 622 286 638 Q302 654 322 654 Q340 654 351 641.5 Q362 629 362 612 Z " />
<glyph glyph-name="Eogonek" unicode="&#x118;" horiz-adv-x="522" d="M411 -189 Q394 -197 375 -201.5 Q356 -206 335 -206 Q300 -206 278 -186 Q256 -166 256 -131 Q256 -109 264.5 -90 Q273 -71 287 -55 Q301 -39 319 -25.5 Q337 -12 355 0 L19 0 L116 689 L98 728 L531 728 L497 661 L201 661 L166 410 L477 410 L442 344 L156 344 L118 67 L448 67 L414 0 L397 0 Q383 -10 367.5 -21.5 Q352 -33 339.5 -47.5 Q327 -62 318.5 -78.5 Q310 -95 310 -114 Q310 -135 322.5 -147.5 Q335 -160 358 -160 Q371 -160 383 -157 Q395 -154 406 -149 L411 -189 Z " />
<glyph glyph-name="eogonek" unicode="&#x119;" horiz-adv-x="506" d="M356 -189 Q339 -197 320 -201.5 Q301 -206 280 -206 Q245 -206 223 -186 Q201 -166 201 -131 Q201 -91 226 -61.5 Q251 -32 283 -9 Q263 -12 242 -12 Q195 -12 155.5 4.5 Q116 21 86.5 50.5 Q57 80 40.5 121 Q24 162 24 211 Q24 252 36.5 289.5 Q49 327 70 358 Q91 389 117 413 Q143 437 170 452 L202 470 Q229 484 257 491.5 Q285 499 317 499 Q386 499 431 467.5 Q476 436 476 376 Q476 338 457 309.5 Q438 281 406 261 L383 247 Q341 221 274 207.5 Q207 194 119 192 Q127 129 172.5 88.5 Q218 48 290 48 Q332 48 367 61 Q402 74 439 96 L453 57 Q427 39 399.5 25 Q372 11 341 2 Q327 -8 311.5 -20.5 Q296 -33 283 -47.5 Q270 -62 262 -79 Q254 -96 254 -114 Q254 -135 266.5 -147.5 Q279 -160 302 -160 Q316 -160 328 -157 Q340 -154 351 -149 L356 -189 Z M292 439 Q253 439 221 422 Q189 405 165.5 377.5 Q142 350 128.5 314.5 Q115 279 115 242 Q193 243 254 249.5 Q315 256 353 280 Q372 292 383 313.5 Q394 335 394 359 Q394 398 367 418.5 Q340 439 292 439 Z " />
<glyph glyph-name="Ecaron" unicode="&#x11a;" horiz-adv-x="522" d="M116 689 L98 728 L272 728 L531 728 L497 661 L201 661 L166 410 L477 410 L442 344 L156 344 L118 67 L468 67 L439 0 L19 0 L116 689 Z M212 912 L252 936 L338 840 L453 936 L485 912 L345 779 L315 779 L212 912 Z " />
<glyph glyph-name="ecaron" unicode="&#x11b;" horiz-adv-x="516" d="M453 57 Q407 27 356 7 Q305 -13 242 -12 Q195 -12 155.5 4.5 Q116 21 86.5 50.5 Q57 80 40.5 121 Q24 162 24 211 Q24 252 36.5 289.5 Q49 327 70 358 Q91 389 117 413 Q143 437 170 452 L202 470 Q229 484 257 491.5 Q285 499 317 499 Q386 499 431 467.5 Q476 436 476 376 Q476 338 457 309.5 Q438 281 406 261 L376 243 Q335 218 269 206 Q203 194 119 192 Q127 129 172.5 88.5 Q218 48 290 48 Q332 48 367 61 Q402 74 439 96 L453 57 Z M292 439 Q253 439 221 422 Q189 405 165.5 377.5 Q142 350 128.5 314.5 Q115 279 115 242 Q193 243 254 249.5 Q315 256 353 280 Q372 292 383 313.5 Q394 335 394 359 Q394 398 367 418.5 Q340 439 292 439 Z M190 679 L230 703 L316 607 L431 703 L462 679 L323 546 L293 546 L190 679 Z " />
<glyph glyph-name="Gcircumflex" unicode="&#x11c;" horiz-adv-x="757" d="M576 33 Q528 11 478.5 -1.5 Q429 -14 373 -14 Q302 -14 239.5 11.5 Q177 37 130 83 Q83 129 55.5 193.5 Q28 258 28 335 Q28 393 44.5 446.5 Q61 500 91 545.5 Q121 591 162 626.5 Q203 662 252 685 L295 706 Q333 724 373 734 Q413 744 456 744 Q525 744 590 720.5 Q655 697 712 648 L670 569 Q620 620 554 650 Q488 680 410 680 Q379 680 352 674.5 Q325 669 298 655 Q259 634 226.5 603 Q194 572 171 533.5 Q148 495 135.5 450.5 Q123 406 123 358 Q123 298 144.5 242 Q166 186 204.5 143 Q243 100 297.5 74 Q352 48 418 48 Q456 48 487 55.5 Q518 63 550 77 Q564 83 578 91 L607 294 L351 294 L385 360 L706 360 L667 81 Q655 73 643 66.5 Q631 60 618 55 L576 33 Z M333 804 L474 937 L503 937 L605 803 L566 779 L480 875 L365 780 L333 804 Z " />
<glyph glyph-name="gcircumflex" unicode="&#x11d;" horiz-adv-x="461" d="M267 -178 Q221 -201 157 -201 Q129 -201 97 -194.5 Q65 -188 37.5 -173 Q10 -158 -8 -133.5 Q-26 -109 -26 -73 Q-26 -41 -8 -12.5 Q10 16 54 37 Q58 39 66 42 Q74 45 85 49 Q88 50 96.5 53.5 Q105 57 116.5 61.5 Q128 66 140 71 Q152 76 162 79 Q152 91 152 106 Q152 125 163.5 137.5 Q175 150 195 163 Q189 162 178 163.5 Q167 165 154 170 Q137 175 120.5 182.5 Q104 190 93 199 Q70 219 58 248.5 Q46 278 46 311 Q46 363 72.5 401.5 Q99 440 141 461 L182 480 Q220 499 260 499 Q277 499 291 495.5 Q305 492 319 487 L459 487 L452 429 L375 429 Q392 413 401 389.5 Q410 366 410 340 Q410 298 388 264.5 Q366 231 331 208 Q311 193 293 183 Q275 173 261 165 Q247 157 239 150 Q231 143 231 135 Q231 122 243 112 Q255 102 272.5 92.5 Q290 83 311 72.5 Q332 62 349.5 47.5 Q367 33 379 13 Q391 -7 391 -35 Q391 -75 368.5 -107 Q346 -139 308 -159 L267 -178 Z M329 325 Q329 347 322 368.5 Q315 390 301 407 Q287 424 267 435 Q247 446 220 446 Q211 446 201.5 443 Q192 440 184 435 Q161 419 145 392 Q129 365 129 332 Q129 308 136.5 287 Q144 266 158 249.5 Q172 233 190.5 222.5 Q209 212 232 210 Q251 209 273 222 Q296 237 312.5 264.5 Q329 292 329 325 Z M187 55 Q138 36 104 16 Q78 2 68.5 -14.5 Q59 -31 59 -51 Q59 -76 71.5 -94 Q84 -112 104.5 -124 Q125 -136 150 -141.5 Q175 -147 200 -147 Q233 -147 260 -136 Q304 -108 304 -60 Q304 -33 292.5 -15.5 Q281 2 263.5 14 Q246 26 225.5 35 Q205 44 187 55 Z M140 571 L281 704 L310 704 L412 570 L372 546 L287 642 L172 546 L140 571 Z " />
<glyph glyph-name="Gbreve" unicode="&#x11e;" horiz-adv-x="757" d="M576 33 Q528 11 478.5 -1.5 Q429 -14 373 -14 Q302 -14 239.5 11.5 Q177 37 130 83 Q83 129 55.5 193.5 Q28 258 28 335 Q28 393 44.5 446.5 Q61 500 91 545.5 Q121 591 162 626.5 Q203 662 252 685 L295 706 Q333 724 373 734 Q413 744 456 744 Q525 744 590 720.5 Q655 697 712 648 L670 569 Q620 620 554 650 Q488 680 410 680 Q379 680 352 674.5 Q325 669 298 655 Q259 634 226.5 603 Q194 572 171 533.5 Q148 495 135.5 450.5 Q123 406 123 358 Q123 298 144.5 242 Q166 186 204.5 143 Q243 100 297.5 74 Q352 48 418 48 Q456 48 487 55.5 Q518 63 550 77 Q564 83 578 91 L607 294 L351 294 L385 360 L706 360 L667 81 Q655 73 643 66.5 Q631 60 618 55 L576 33 Z M390 904 Q394 869 418.5 855 Q443 841 475 841 Q507 841 535 854.5 Q563 868 577 904 L616 904 Q601 847 561 818.5 Q521 790 467 790 Q413 790 381.5 819 Q350 848 351 904 L390 904 Z " />
<glyph glyph-name="gbreve" unicode="&#x11f;" horiz-adv-x="461" d="M267 -178 Q221 -201 157 -201 Q129 -201 97 -194.5 Q65 -188 37.5 -173 Q10 -158 -8 -133.5 Q-26 -109 -26 -73 Q-26 -41 -8 -12.5 Q10 16 54 37 Q58 39 66 42 Q74 45 85 49 Q88 50 96.5 53.5 Q105 57 116.5 61.5 Q128 66 140 71 Q152 76 162 79 Q152 91 152 106 Q152 125 163.5 137.5 Q175 150 195 163 Q189 162 178 163.5 Q167 165 154 170 Q137 175 120.5 182.5 Q104 190 93 199 Q70 219 58 248.5 Q46 278 46 311 Q46 363 72.5 401.5 Q99 440 141 461 L182 480 Q220 499 260 499 Q277 499 291 495.5 Q305 492 319 487 L459 487 L452 429 L375 429 Q392 413 401 389.5 Q410 366 410 340 Q410 298 388 264.5 Q366 231 331 208 Q311 193 293 183 Q275 173 261 165 Q247 157 239 150 Q231 143 231 135 Q231 122 243 112 Q255 102 272.5 92.5 Q290 83 311 72.5 Q332 62 349.5 47.5 Q367 33 379 13 Q391 -7 391 -35 Q391 -75 368.5 -107 Q346 -139 308 -159 L267 -178 Z M329 325 Q329 347 322 368.5 Q315 390 301 407 Q287 424 267 435 Q247 446 220 446 Q211 446 201.5 443 Q192 440 184 435 Q161 419 145 392 Q129 365 129 332 Q129 308 136.5 287 Q144 266 158 249.5 Q172 233 190.5 222.5 Q209 212 232 210 Q251 209 273 222 Q296 237 312.5 264.5 Q329 292 329 325 Z M187 55 Q138 36 104 16 Q78 2 68.5 -14.5 Q59 -31 59 -51 Q59 -76 71.5 -94 Q84 -112 104.5 -124 Q125 -136 150 -141.5 Q175 -147 200 -147 Q233 -147 260 -136 Q304 -108 304 -60 Q304 -33 292.5 -15.5 Q281 2 263.5 14 Q246 26 225.5 35 Q205 44 187 55 Z M197 670 Q201 635 225 621.5 Q249 608 281 608 Q314 608 342 621.5 Q370 635 384 670 L423 670 Q407 614 367.5 585.5 Q328 557 274 557 Q220 557 188.5 586 Q157 615 158 670 L197 670 Z " />
<glyph glyph-name="Gdotaccent" unicode="&#x120;" horiz-adv-x="757" d="M576 33 Q528 11 478.5 -1.5 Q429 -14 373 -14 Q302 -14 239.5 11.5 Q177 37 130 83 Q83 129 55.5 193.5 Q28 258 28 335 Q28 393 44.5 446.5 Q61 500 91 545.5 Q121 591 162 626.5 Q203 662 252 685 L295 706 Q333 724 373 734 Q413 744 456 744 Q525 744 590 720.5 Q655 697 712 648 L670 569 Q620 620 554 650 Q488 680 410 680 Q379 680 352 674.5 Q325 669 298 655 Q259 634 226.5 603 Q194 572 171 533.5 Q148 495 135.5 450.5 Q123 406 123 358 Q123 298 144.5 242 Q166 186 204.5 143 Q243 100 297.5 74 Q352 48 418 48 Q456 48 487 55.5 Q518 63 550 77 Q564 83 578 91 L607 294 L351 294 L385 360 L706 360 L667 81 Q655 73 643 66.5 Q631 60 618 55 L576 33 Z M520 846 Q520 825 504 810.5 Q488 796 468 796 Q451 796 439.5 807.5 Q428 819 428 836 Q428 856 444.5 871.5 Q461 887 481 887 Q498 887 509 875 Q520 863 520 846 Z " />
<glyph glyph-name="gdotaccent" unicode="&#x121;" horiz-adv-x="461" d="M267 -178 Q221 -201 157 -201 Q129 -201 97 -194.5 Q65 -188 37.5 -173 Q10 -158 -8 -133.5 Q-26 -109 -26 -73 Q-26 -41 -8 -12.5 Q10 16 54 37 Q58 39 66 42 Q74 45 85 49 Q88 50 96.5 53.5 Q105 57 116.5 61.5 Q128 66 140 71 Q152 76 162 79 Q152 91 152 106 Q152 125 163.5 137.5 Q175 150 195 163 Q189 162 178 163.5 Q167 165 154 170 Q137 175 120.5 182.5 Q104 190 93 199 Q70 219 58 248.5 Q46 278 46 311 Q46 363 72.5 401.5 Q99 440 141 461 L182 480 Q220 499 260 499 Q277 499 291 495.5 Q305 492 319 487 L459 487 L452 429 L375 429 Q392 413 401 389.5 Q410 366 410 340 Q410 298 388 264.5 Q366 231 331 208 Q311 193 293 183 Q275 173 261 165 Q247 157 239 150 Q231 143 231 135 Q231 122 243 112 Q255 102 272.5 92.5 Q290 83 311 72.5 Q332 62 349.5 47.5 Q367 33 379 13 Q391 -7 391 -35 Q391 -75 368.5 -107 Q346 -139 308 -159 L267 -178 Z M329 325 Q329 347 322 368.5 Q315 390 301 407 Q287 424 267 435 Q247 446 220 446 Q211 446 201.5 443 Q192 440 184 435 Q161 419 145 392 Q129 365 129 332 Q129 308 136.5 287 Q144 266 158 249.5 Q172 233 190.5 222.5 Q209 212 232 210 Q251 209 273 222 Q296 237 312.5 264.5 Q329 292 329 325 Z M187 55 Q138 36 104 16 Q78 2 68.5 -14.5 Q59 -31 59 -51 Q59 -76 71.5 -94 Q84 -112 104.5 -124 Q125 -136 150 -141.5 Q175 -147 200 -147 Q233 -147 260 -136 Q304 -108 304 -60 Q304 -33 292.5 -15.5 Q281 2 263.5 14 Q246 26 225.5 35 Q205 44 187 55 Z M327 612 Q327 592 311 577 Q295 562 275 562 Q258 562 246.5 573.5 Q235 585 235 602 Q235 622 251 638 Q267 654 287 654 Q305 654 316 641.5 Q327 629 327 612 Z " />
<glyph glyph-name="Gcommaaccent" unicode="&#x122;" horiz-adv-x="757" d="M576 33 Q528 11 478.5 -1.5 Q429 -14 373 -14 Q302 -14 239.5 11.5 Q177 37 130 83 Q83 129 55.5 193.5 Q28 258 28 335 Q28 393 44.5 446.5 Q61 500 91 545.5 Q121 591 162 626.5 Q203 662 252 685 L295 706 Q333 724 373 734 Q413 744 456 744 Q525 744 590 720.5 Q655 697 712 648 L670 569 Q620 620 554 650 Q488 680 410 680 Q379 680 352 674.5 Q325 669 298 655 Q259 634 226.5 603 Q194 572 171 533.5 Q148 495 135.5 450.5 Q123 406 123 358 Q123 298 144.5 242 Q166 186 204.5 143 Q243 100 297.5 74 Q352 48 418 48 Q456 48 487 55.5 Q518 63 550 77 Q564 83 578 91 L607 294 L351 294 L385 360 L706 360 L667 81 Q655 73 643 66.5 Q631 60 618 55 L576 33 Z M278 -223 Q298 -197 311.5 -173 Q325 -149 334 -120 Q313 -113 313 -88 Q313 -66 328 -54.5 Q343 -43 359 -43 Q379 -43 387.5 -55 Q396 -67 396 -84 Q396 -114 377 -156 Q358 -198 316 -237 L278 -223 Z " />
<glyph glyph-name="gcommaaccent" unicode="&#x123;" horiz-adv-x="461" d="M267 -178 Q221 -201 157 -201 Q129 -201 97 -194.5 Q65 -188 37.5 -173 Q10 -158 -8 -133.5 Q-26 -109 -26 -73 Q-26 -41 -8 -12.5 Q10 16 54 37 Q58 39 66 42 Q74 45 85 49 Q88 50 96.5 53.5 Q105 57 116.5 61.5 Q128 66 140 71 Q152 76 162 79 Q152 91 152 106 Q152 125 163.5 137.5 Q175 150 195 163 Q189 162 178 163.5 Q167 165 154 170 Q137 175 120.5 182.5 Q104 190 93 199 Q70 219 58 248.5 Q46 278 46 311 Q46 363 72.5 401.5 Q99 440 141 461 L182 480 Q220 499 260 499 Q277 499 291 495.5 Q305 492 319 487 L459 487 L452 429 L375 429 Q392 413 401 389.5 Q410 366 410 340 Q410 298 388 264.5 Q366 231 331 208 Q311 193 293 183 Q275 173 261 165 Q247 157 239 150 Q231 143 231 135 Q231 122 243 112 Q255 102 272.5 92.5 Q290 83 311 72.5 Q332 62 349.5 47.5 Q367 33 379 13 Q391 -7 391 -35 Q391 -75 368.5 -107 Q346 -139 308 -159 L267 -178 Z M329 325 Q329 347 322 368.5 Q315 390 301 407 Q287 424 267 435 Q247 446 220 446 Q211 446 201.5 443 Q192 440 184 435 Q161 419 145 392 Q129 365 129 332 Q129 308 136.5 287 Q144 266 158 249.5 Q172 233 190.5 222.5 Q209 212 232 210 Q251 209 273 222 Q296 237 312.5 264.5 Q329 292 329 325 Z M187 55 Q138 36 104 16 Q78 2 68.5 -14.5 Q59 -31 59 -51 Q59 -76 71.5 -94 Q84 -112 104.5 -124 Q125 -136 150 -141.5 Q175 -147 200 -147 Q233 -147 260 -136 Q304 -108 304 -60 Q304 -33 292.5 -15.5 Q281 2 263.5 14 Q246 26 225.5 35 Q205 44 187 55 Z M345 713 Q325 688 311 663.5 Q297 639 289 611 Q300 606 305 597.5 Q310 589 310 578 Q310 556 295 545 Q280 534 265 534 Q246 534 236.5 545.5 Q227 557 227 574 Q227 604 246.5 646 Q266 688 308 727 L345 713 Z " />
<glyph glyph-name="Hcircumflex" unicode="&#x124;" horiz-adv-x="669" d="M116 689 L98 728 L210 728 L166 412 L516 412 L555 689 L538 728 L650 728 L548 0 L458 0 L506 343 L156 343 L108 0 L19 0 L116 689 Z M260 804 L401 937 L430 937 L532 803 L493 779 L407 875 L292 780 L260 804 Z " />
<glyph glyph-name="hcircumflex" unicode="&#x125;" horiz-adv-x="527" d="M124 679 L109 717 L218 740 L173 423 Q187 434 203 445 Q219 456 232 463 L247 471 Q299 499 349 499 Q380 499 406.5 488.5 Q433 478 451 458 Q469 438 477.5 408.5 Q486 379 481 342 L433 0 L348 0 L392 316 Q400 376 370 407 Q340 438 290 438 Q274 438 256.5 434 Q239 430 221 420 Q207 412 194 400.5 Q181 389 167 375 L114 0 L29 0 L124 679 Z M189 804 L330 937 L359 937 L461 803 L422 779 L336 875 L221 780 L189 804 Z " />
<glyph glyph-name="Hbar" unicode="&#x126;" horiz-adv-x="669" d="M94 535 L50 535 L65 584 L101 584 L116 689 L98 728 L210 728 L191 584 L540 584 L555 689 L538 728 L650 728 L630 584 L674 584 L658 535 L623 535 L548 0 L458 0 L506 344 L156 344 L108 0 L19 0 L94 535 Z M515 411 L533 535 L183 535 L166 411 L515 411 Z " />
<glyph glyph-name="hbar" unicode="&#x127;" horiz-adv-x="527" d="M109 569 L38 569 L53 615 L116 615 L124 676 L108 710 L218 740 L201 615 L328 615 L313 569 L194 569 L173 423 Q187 434 202.5 444.5 Q218 455 232 463 L247 471 Q299 499 349 499 Q380 499 406.5 488.5 Q433 478 451 458 Q469 438 477.5 408.5 Q486 379 481 342 L433 0 L348 0 L392 316 Q400 376 370 407 Q340 438 290 438 Q274 438 256.5 434 Q239 430 221 420 Q207 412 194 400.5 Q181 389 167 375 L114 0 L29 0 L109 569 Z " />
<glyph glyph-name="Itilde" unicode="&#x128;" horiz-adv-x="239" d="M121 689 L103 728 L215 728 L113 0 L24 0 L121 689 Z M40 810 Q54 840 79 862.5 Q104 885 136 885 Q151 885 164.5 879.5 Q178 874 191.5 868 Q205 862 218 856.5 Q231 851 246 851 Q263 851 276 863 Q289 875 297 890 L334 876 Q321 845 295.5 822 Q270 799 237 799 Q223 799 210 804.5 Q197 810 183.5 816 Q170 822 156 827.5 Q142 833 127 833 Q110 833 98 822 Q86 811 78 796 L40 810 Z " />
<glyph glyph-name="itilde" unicode="&#x129;" horiz-adv-x="213" d="M90 432 L74 469 L184 499 L114 0 L29 0 L90 432 Z M10 576 Q24 606 48.5 628.5 Q73 651 106 651 Q121 651 134.5 646 Q148 641 161 634.5 Q174 628 187.5 623 Q201 618 215 618 Q233 618 245.5 629.5 Q258 641 266 657 L304 642 Q291 611 265.5 588.5 Q240 566 207 566 Q193 566 180 571 Q167 576 153.5 582.5 Q140 589 126 594 Q112 599 97 599 Q80 599 68 588 Q56 577 48 562 L10 576 Z " />
<glyph glyph-name="Imacron" unicode="&#x12a;" horiz-adv-x="239" d="M121 689 L103 728 L215 728 L113 0 L24 0 L121 689 Z M52 858 L328 858 L321 806 L44 806 L52 858 Z " />
<glyph glyph-name="imacron" unicode="&#x12b;" horiz-adv-x="213" d="M90 432 L74 469 L184 499 L114 0 L29 0 L90 432 Z M22 625 L298 625 L291 573 L14 573 L22 625 Z " />
<glyph glyph-name="Ibreve" unicode="&#x12c;" horiz-adv-x="239" d="M121 689 L103 728 L215 728 L113 0 L24 0 L121 689 Z M103 904 Q107 869 131.5 855 Q156 841 188 841 Q220 841 248 854.5 Q276 868 290 904 L329 904 Q314 847 274 818.5 Q234 790 180 790 Q126 790 94.5 819 Q63 848 64 904 L103 904 Z " />
<glyph glyph-name="ibreve" unicode="&#x12d;" horiz-adv-x="213" d="M90 432 L74 469 L184 499 L114 0 L29 0 L90 432 Z M73 670 Q77 635 101 621.5 Q125 608 157 608 Q190 608 218 621.5 Q246 635 260 670 L299 670 Q283 614 243.5 585.5 Q204 557 150 557 Q96 557 64.5 586 Q33 615 34 670 L73 670 Z " />
<glyph glyph-name="Iogonek" unicode="&#x12e;" horiz-adv-x="239" d="M112 -189 Q95 -197 76 -201.5 Q57 -206 36 -206 Q1 -206 -21 -186 Q-43 -166 -43 -131 Q-43 -109 -34.5 -90 Q-26 -71 -12 -55 Q2 -39 20 -25.5 Q38 -12 56 0 L24 0 L121 689 L103 728 L215 728 L113 0 L98 0 Q84 -10 68.5 -21.5 Q53 -33 40 -47.5 Q27 -62 18.5 -78.5 Q10 -95 10 -114 Q10 -135 22.5 -147.5 Q35 -160 58 -160 Q72 -160 84 -157 Q96 -154 107 -149 L112 -189 Z " />
<glyph glyph-name="iogonek" unicode="&#x12f;" horiz-adv-x="213" d="M116 -189 Q99 -197 80.5 -201.5 Q62 -206 40 -206 Q5 -206 -17 -186 Q-39 -166 -39 -131 Q-39 -109 -30.5 -90 Q-22 -71 -8 -55 Q6 -39 24 -25.5 Q42 -12 60 0 L29 0 L91 438 L75 476 L184 499 L114 0 L102 0 Q88 -10 73 -21.5 Q58 -33 45 -47.5 Q32 -62 23.5 -78.5 Q15 -95 15 -114 Q15 -135 27.5 -147.5 Q40 -160 63 -160 Q76 -160 88 -157 Q100 -154 112 -149 L116 -189 Z M208 620 Q208 607 201.5 597 Q195 587 185.5 580 Q176 573 164 569.5 Q152 566 141 566 Q124 566 112.5 576.5 Q101 587 101 604 Q101 617 107.5 627 Q114 637 123.5 644.5 Q133 652 144.5 656 Q156 660 167 660 Q185 660 196.5 648.5 Q208 637 208 620 Z " />
<glyph glyph-name="Idot" unicode="&#x130;" horiz-adv-x="239" d="M121 689 L103 728 L215 728 L113 0 L24 0 L121 689 Z M233 846 Q233 825 217 810.5 Q201 796 181 796 Q164 796 152.5 807.5 Q141 819 141 836 Q141 856 157.5 871.5 Q174 887 194 887 Q211 887 222 875 Q233 863 233 846 Z " />
<glyph glyph-name="dotlessi" unicode="&#x131;" horiz-adv-x="213" d="M90 432 L74 469 L184 499 L114 0 L29 0 L90 432 Z " />
<glyph glyph-name="IJ" unicode="&#x132;" horiz-adv-x="512" d="M121 689 L103 728 L215 728 L113 0 L24 0 L121 689 Z M136 -82 L186 -82 Q200 -82 213 -79 Q226 -76 238 -71 Q267 -50 285.5 -19 Q304 12 309 49 L399 689 L381 728 L494 728 L402 70 Q394 14 363.5 -29 Q333 -72 287 -98 L244 -121 Q194 -149 138 -149 L136 -82 Z " />
<glyph glyph-name="ij" unicode="&#x133;" horiz-adv-x="434" d="M208 620 Q208 607 201.5 597 Q195 587 185.5 580 Q176 573 164 569.5 Q152 566 141 566 Q123 566 112 576.5 Q101 587 101 604 Q101 617 107 627.5 Q113 638 123 645 Q133 652 145 656 Q157 660 168 660 Q185 660 196.5 649 Q208 638 208 620 Z M91 438 L75 476 L184 499 L114 0 L29 0 L91 438 Z M429 620 Q429 607 423 597 Q417 587 407 580 Q397 573 385.5 569.5 Q374 566 363 566 Q345 566 333.5 576.5 Q322 587 322 605 Q322 618 328.5 628 Q335 638 344.5 645 Q354 652 366 656 Q378 660 389 660 Q407 660 418 649 Q429 638 429 620 Z M121 -138 Q129 -138 140 -137.5 Q151 -137 162.5 -136 Q174 -135 184 -133.5 Q194 -132 200 -129 Q222 -113 231.5 -92.5 Q241 -72 244 -47 L313 438 L298 476 L406 499 L331 -39 Q325 -76 304 -107.5 Q283 -139 250 -156 L208 -178 Q191 -188 172 -193.5 Q153 -199 133 -199 L123 -199 L121 -138 Z " />
<glyph glyph-name="Jcircumflex" unicode="&#x134;" horiz-adv-x="273" d="M-103 -82 L-53 -82 Q-39 -82 -26 -79 Q-13 -76 -1 -71 Q28 -50 46.5 -19 Q65 12 70 49 L160 689 L142 728 L255 728 L163 70 Q155 14 124.5 -29 Q94 -72 48 -98 L5 -121 Q-45 -149 -101 -149 L-103 -82 Z M63 804 L204 937 L233 937 L335 803 L296 779 L210 875 L95 780 L63 804 Z " />
<glyph glyph-name="jcircumflex" unicode="&#x135;" horiz-adv-x="222" d="M-92 -138 Q-84 -138 -73 -137.5 Q-62 -137 -50.5 -136 Q-39 -135 -29 -133.5 Q-19 -132 -13 -129 Q9 -113 18.5 -92.5 Q28 -72 31 -47 L100 438 L85 476 L193 499 L118 -39 Q112 -76 91 -107.5 Q70 -139 37 -156 L-5 -178 Q-22 -188 -41 -193.5 Q-60 -199 -80 -199 L-90 -199 L-92 -138 Z M20 571 L161 704 L190 704 L292 570 L252 546 L167 642 L52 546 L20 571 Z " />
<glyph glyph-name="Kcommaaccent" unicode="&#x136;" horiz-adv-x="596" d="M116 689 L98 728 L210 728 L160 367 L173 380 L495 689 L493 728 L626 728 L288 404 Q365 315 443.5 213.5 Q522 112 578 0 L468 0 Q418 95 348 184.5 Q278 274 210 351 L150 300 L108 0 L19 0 L116 689 Z M173 -223 Q193 -197 206.5 -173 Q220 -149 229 -120 Q208 -113 208 -88 Q208 -66 223 -54.5 Q238 -43 254 -43 Q274 -43 282.5 -55 Q291 -67 291 -84 Q291 -114 272 -156 Q253 -198 211 -237 L173 -223 Z " />
<glyph glyph-name="kcommaaccent" unicode="&#x137;" horiz-adv-x="468" d="M124 679 L109 717 L218 740 L150 255 L169 272 L358 453 L352 487 L476 487 L256 276 Q310 215 360.5 146 Q411 77 449 0 L348 0 Q316 61 273.5 119.5 Q231 178 186 229 L141 196 L114 0 L29 0 L124 679 Z M109 -223 Q129 -197 142.5 -173 Q156 -149 165 -120 Q144 -113 144 -88 Q144 -66 159 -54.5 Q174 -43 190 -43 Q210 -43 218.5 -55 Q227 -67 227 -84 Q227 -114 208 -156 Q189 -198 147 -237 L109 -223 Z " />
<glyph glyph-name="kgreenlandic" unicode="&#x138;" horiz-adv-x="468" d="M91 438 L75 476 L184 499 L149 255 L169 272 L358 453 L352 487 L476 487 L256 276 Q310 215 360.5 146 Q411 77 449 0 L347 0 Q315 61 272.5 119.5 Q230 178 185 229 L141 196 L114 0 L29 0 L91 438 Z " />
<glyph glyph-name="Lacute" unicode="&#x139;" horiz-adv-x="469" d="M116 689 L98 728 L157 728 L210 728 L118 66 L438 66 L408 0 L19 0 L116 689 Z M122 793 L248 952 L309 928 L162 775 L122 793 Z " />
<glyph glyph-name="lacute" unicode="&#x13a;" horiz-adv-x="213" d="M124 679 L109 717 L218 740 L114 0 L29 0 L124 679 Z M113 793 L239 952 L300 928 L153 775 L113 793 Z " />
<glyph glyph-name="Lcommaaccent" unicode="&#x13b;" horiz-adv-x="469" d="M116 689 L98 728 L157 728 L210 728 L118 66 L438 66 L408 0 L19 0 L116 689 Z M126 -223 Q146 -197 159.5 -173 Q173 -149 182 -120 Q161 -113 161 -88 Q161 -66 176 -54.5 Q191 -43 207 -43 Q227 -43 235.5 -55 Q244 -67 244 -84 Q244 -114 225 -156 Q206 -198 164 -237 L126 -223 Z " />
<glyph glyph-name="lcommaaccent" unicode="&#x13c;" horiz-adv-x="213" d="M124 679 L109 717 L218 740 L114 0 L29 0 L124 679 Z M-22 -223 Q-2 -197 11.5 -173 Q25 -149 34 -120 Q13 -113 13 -88 Q13 -66 28 -54.5 Q43 -43 59 -43 Q79 -43 87.5 -55 Q96 -67 96 -84 Q96 -114 77 -156 Q58 -198 16 -237 L-22 -223 Z " />
<glyph glyph-name="Lcaron" unicode="&#x13d;" horiz-adv-x="469" d="M116 689 L98 728 L157 728 L210 728 L118 66 L438 66 L408 0 L19 0 L116 689 Z M250 562 Q268 587 281.5 611 Q295 635 304 664 Q294 668 289 676.5 Q284 685 284 696 Q284 719 298.5 730 Q313 741 327 741 Q345 741 354 729.5 Q363 718 363 701 Q363 671 343.5 628.5 Q324 586 284 547 L250 562 Z " />
<glyph glyph-name="lcaron" unicode="&#x13e;" horiz-adv-x="243" d="M124 679 L109 717 L218 740 L114 0 L29 0 L124 679 Z M231 562 Q249 587 262.5 611 Q276 635 285 664 Q275 668 270 676.5 Q265 685 265 696 Q265 719 279.5 730 Q294 741 308 741 Q326 741 335 729.5 Q344 718 344 701 Q344 671 324.5 628.5 Q305 586 265 547 L231 562 Z " />
<glyph glyph-name="Ldot" unicode="&#x13f;" horiz-adv-x="469" d="M116 689 L98 728 L157 728 L210 728 L118 66 L438 66 L408 0 L19 0 L116 689 Z M388 385 Q388 365 372 350 Q356 335 336 335 Q319 335 307.5 346.5 Q296 358 296 375 Q296 395 312 411 Q328 427 348 427 Q366 427 377 414.5 Q388 402 388 385 Z " />
<glyph glyph-name="ldot" unicode="&#x140;" horiz-adv-x="277" d="M124 679 L109 717 L218 740 L114 0 L29 0 L124 679 Z M298 298 Q298 278 282 263 Q266 248 246 248 Q229 248 217.5 259.5 Q206 271 206 288 Q206 308 222 324 Q238 340 258 340 Q276 340 287 327.5 Q298 315 298 298 Z " />
<glyph glyph-name="Lslash" unicode="&#x141;" horiz-adv-x="479" d="M71 309 L1 266 L-22 317 L81 378 L124 689 L108 728 L219 728 L178 434 L322 524 L344 473 L168 366 L126 66 L447 66 L417 0 L27 0 L71 309 Z " />
<glyph glyph-name="lslash" unicode="&#x142;" horiz-adv-x="231" d="M83 318 L16 277 L0 317 L91 373 L133 673 L117 710 L228 740 L184 426 L251 468 L268 428 L176 372 L124 0 L39 0 L83 318 Z " />
<glyph glyph-name="Nacute" unicode="&#x143;" horiz-adv-x="704" d="M119 683 L93 728 L204 728 L538 145 L602 677 Q602 682 600.5 689.5 Q599 697 596.5 704.5 Q594 712 591 718.5 Q588 725 586 728 L680 728 L589 0 L512 0 L177 585 L83 0 L12 0 L119 683 Z M357 793 L483 952 L544 928 L397 775 L357 793 Z " />
<glyph glyph-name="nacute" unicode="&#x144;" horiz-adv-x="527" d="M90 435 L75 475 L183 499 L172 422 Q185 433 200 443 Q215 453 228 461 L243 470 Q298 499 349 499 Q380 499 406.5 488.5 Q433 478 451 458 Q469 438 477.5 408.5 Q486 379 481 342 L433 0 L348 0 L392 316 Q400 376 370 407 Q340 438 290 438 Q274 438 256 434 Q238 430 220 420 Q207 412 194 400.5 Q181 389 167 375 L114 0 L29 0 L90 435 Z M252 560 L378 718 L439 694 L292 542 L252 560 Z " />
<glyph glyph-name="Ncommaaccent" unicode="&#x145;" horiz-adv-x="704" d="M119 683 L93 728 L204 728 L538 145 L602 677 Q602 682 600.5 689.5 Q599 697 596.5 704.5 Q594 712 591 718.5 Q588 725 586 728 L680 728 L589 0 L512 0 L177 585 L83 0 L12 0 L119 683 Z M222 -223 Q242 -197 255.5 -173 Q269 -149 278 -120 Q257 -113 257 -88 Q257 -66 272 -54.5 Q287 -43 303 -43 Q323 -43 331.5 -55 Q340 -67 340 -84 Q340 -114 321 -156 Q302 -198 260 -237 L222 -223 Z " />
<glyph glyph-name="ncommaaccent" unicode="&#x146;" horiz-adv-x="527" d="M90 435 L75 475 L183 499 L172 422 Q185 433 200 443 Q215 453 228 461 L243 470 Q298 499 349 499 Q380 499 406.5 488.5 Q433 478 451 458 Q469 438 477.5 408.5 Q486 379 481 342 L433 0 L348 0 L392 316 Q400 376 370 407 Q340 438 290 438 Q274 438 256 434 Q238 430 220 420 Q207 412 194 400.5 Q181 389 167 375 L114 0 L29 0 L90 435 Z M134 -223 Q154 -197 167.5 -173 Q181 -149 190 -120 Q169 -113 169 -88 Q169 -66 184 -54.5 Q199 -43 215 -43 Q235 -43 243.5 -55 Q252 -67 252 -84 Q252 -114 233 -156 Q214 -198 172 -237 L134 -223 Z " />
<glyph glyph-name="Ncaron" unicode="&#x147;" horiz-adv-x="704" d="M119 683 L93 728 L204 728 L538 145 L602 677 Q602 682 600.5 689.5 Q599 697 596.5 704.5 Q594 712 591 718.5 Q588 725 586 728 L680 728 L589 0 L512 0 L177 585 L83 0 L12 0 L119 683 Z M292 912 L332 936 L418 840 L533 936 L565 912 L425 779 L395 779 L292 912 Z " />
<glyph glyph-name="ncaron" unicode="&#x148;" horiz-adv-x="527" d="M90 435 L75 475 L183 499 L172 422 Q185 433 200 443 Q215 453 228 461 L243 470 Q298 499 349 499 Q380 499 406.5 488.5 Q433 478 451 458 Q469 438 477.5 408.5 Q486 379 481 342 L433 0 L348 0 L392 316 Q400 376 370 407 Q340 438 290 438 Q274 438 256 434 Q238 430 220 420 Q207 412 194 400.5 Q181 389 167 375 L114 0 L29 0 L90 435 Z M187 679 L227 703 L313 607 L428 703 L459 679 L320 546 L290 546 L187 679 Z " />
<glyph glyph-name="napostrophe" unicode="&#x149;" horiz-adv-x="527" d="M90 435 L75 475 L183 499 L172 422 Q185 433 200 443 Q215 453 228 461 L243 470 Q298 499 349 499 Q380 499 406.5 488.5 Q433 478 451 458 Q469 438 477.5 408.5 Q486 379 481 342 L433 0 L348 0 L392 316 Q400 376 370 407 Q340 438 290 438 Q274 438 256 434 Q238 430 220 420 Q207 412 194 400.5 Q181 389 167 375 L114 0 L29 0 L90 435 Z M66 562 Q84 587 97.5 611 Q111 635 120 664 Q110 668 105 676.5 Q100 685 100 696 Q100 719 114.5 730 Q129 741 143 741 Q161 741 170 729.5 Q179 718 179 701 Q179 671 159.5 628.5 Q140 586 100 547 L66 562 Z " />
<glyph glyph-name="Eng" unicode="&#x14a;" horiz-adv-x="704" d="M381 -116 L400 -115 Q414 -113 430 -111 Q446 -109 459 -104 Q472 -96 481.5 -83.5 Q491 -71 497.5 -57 Q504 -43 507 -28 Q510 -13 512 0 L177 585 L83 0 L12 0 L119 683 L93 728 L204 728 L538 145 L602 677 Q602 682 600.5 689.5 Q599 697 596.5 704.5 Q594 712 591 718.5 Q588 725 586 728 L680 728 L591 14 Q586 -33 568.5 -70.5 Q551 -108 510 -131 Q492 -141 477 -149 Q462 -157 447.5 -162.5 Q433 -168 417.5 -171 Q402 -174 383 -174 L381 -116 Z " />
<glyph glyph-name="eng" unicode="&#x14b;" horiz-adv-x="527" d="M221 -142 L237 -141 Q251 -140 267.5 -137 Q284 -134 297 -129 Q318 -117 328 -93.5 Q338 -70 341 -47 L392 316 Q400 372 370.5 405 Q341 438 290 438 Q254 438 224.5 421 Q195 404 166 374 L114 0 L29 0 L90 432 L74 471 L182 499 L171 422 Q188 436 209 450 Q230 464 253.5 475 Q277 486 301 492.5 Q325 499 348 499 Q381 499 408 488 Q435 477 453 456.5 Q471 436 478.5 407 Q486 378 481 343 L431 -11 Q424 -59 407 -96 Q390 -133 347 -156 Q329 -166 314 -174 Q299 -182 285 -187.5 Q271 -193 256.5 -196 Q242 -199 223 -199 L221 -142 Z " />
<glyph glyph-name="Omacron" unicode="&#x14c;" horiz-adv-x="811" d="M517 22 Q481 5 440.5 -5 Q400 -15 358 -15 Q288 -15 228 12 Q168 39 123.5 86 Q79 133 53.5 196.5 Q28 260 28 333 Q28 392 44.5 445 Q61 498 90.5 543 Q120 588 161 624 Q202 660 250 685 L292 705 Q368 743 450 743 Q522 743 582.5 716 Q643 689 687.5 641.5 Q732 594 757 530.5 Q782 467 782 394 Q782 335 765.5 281.5 Q749 228 719.5 182.5 Q690 137 649.5 101.5 Q609 66 561 42 L517 22 Z M517 73 Q555 94 586.5 125.5 Q618 157 640.5 196 Q663 235 675.5 280 Q688 325 688 373 Q688 430 669 485.5 Q650 541 613.5 584 Q577 627 525 653.5 Q473 680 407 680 Q378 680 348.5 674 Q319 668 293 654 Q255 633 223.5 601.5 Q192 570 169.5 531 Q147 492 134.5 447 Q122 402 122 354 Q122 297 141.5 241.5 Q161 186 197 143 Q233 100 285 73.5 Q337 47 403 47 Q432 47 461.5 53 Q491 59 517 73 Z M337 858 L613 858 L606 806 L329 806 L337 858 Z " />
<glyph glyph-name="omacron" unicode="&#x14d;" horiz-adv-x="565" d="M367 20 Q338 6 307 -3 Q276 -12 243 -12 Q198 -12 158 5 Q118 22 88.5 52 Q59 82 41.5 123.5 Q24 165 24 214 Q24 283 58.5 345.5 Q93 408 157 445 L196 467 Q254 499 320 499 Q365 499 405 482 Q445 465 474.5 434.5 Q504 404 521 362 Q538 320 538 271 Q538 202 504.5 141 Q471 80 408 42 L367 20 Z M360 67 Q401 99 426 146.5 Q451 194 451 248 Q451 288 438 322.5 Q425 357 401.5 382.5 Q378 408 346 423 Q314 438 276 438 Q256 438 238.5 434 Q221 430 204 419 Q161 391 137.5 341 Q114 291 114 238 Q114 199 127 164.5 Q140 130 162.5 104.5 Q185 79 216.5 64.5 Q248 50 286 50 Q324 50 360 67 Z M197 625 L473 625 L466 573 L189 573 L197 625 Z " />
<glyph glyph-name="Obreve" unicode="&#x14e;" horiz-adv-x="811" d="M517 22 Q481 5 440.5 -5 Q400 -15 358 -15 Q288 -15 228 12 Q168 39 123.5 86 Q79 133 53.5 196.5 Q28 260 28 333 Q28 392 44.5 445 Q61 498 90.5 543 Q120 588 161 624 Q202 660 250 685 L292 705 Q368 743 450 743 Q522 743 582.5 716 Q643 689 687.5 641.5 Q732 594 757 530.5 Q782 467 782 394 Q782 335 765.5 281.5 Q749 228 719.5 182.5 Q690 137 649.5 101.5 Q609 66 561 42 L517 22 Z M517 73 Q555 94 586.5 125.5 Q618 157 640.5 196 Q663 235 675.5 280 Q688 325 688 373 Q688 430 669 485.5 Q650 541 613.5 584 Q577 627 525 653.5 Q473 680 407 680 Q378 680 348.5 674 Q319 668 293 654 Q255 633 223.5 601.5 Q192 570 169.5 531 Q147 492 134.5 447 Q122 402 122 354 Q122 297 141.5 241.5 Q161 186 197 143 Q233 100 285 73.5 Q337 47 403 47 Q432 47 461.5 53 Q491 59 517 73 Z M388 904 Q392 869 416.5 855 Q441 841 473 841 Q505 841 533 854.5 Q561 868 575 904 L614 904 Q599 847 559 818.5 Q519 790 465 790 Q411 790 379.5 819 Q348 848 349 904 L388 904 Z " />
<glyph glyph-name="obreve" unicode="&#x14f;" horiz-adv-x="565" d="M367 20 Q338 6 307 -3 Q276 -12 243 -12 Q198 -12 158 5 Q118 22 88.5 52 Q59 82 41.5 123.5 Q24 165 24 214 Q24 283 58.5 345.5 Q93 408 157 445 L196 467 Q254 499 320 499 Q365 499 405 482 Q445 465 474.5 434.5 Q504 404 521 362 Q538 320 538 271 Q538 202 504.5 141 Q471 80 408 42 L367 20 Z M360 67 Q401 99 426 146.5 Q451 194 451 248 Q451 288 438 322.5 Q425 357 401.5 382.5 Q378 408 346 423 Q314 438 276 438 Q256 438 238.5 434 Q221 430 204 419 Q161 391 137.5 341 Q114 291 114 238 Q114 199 127 164.5 Q140 130 162.5 104.5 Q185 79 216.5 64.5 Q248 50 286 50 Q324 50 360 67 Z M248 670 Q252 635 276 621.5 Q300 608 332 608 Q365 608 393 621.5 Q421 635 435 670 L474 670 Q458 614 418.5 585.5 Q379 557 325 557 Q271 557 239.5 586 Q208 615 209 670 L248 670 Z " />
<glyph glyph-name="Ohungarumlaut" unicode="&#x150;" horiz-adv-x="811" d="M517 22 Q481 5 440.5 -5 Q400 -15 358 -15 Q288 -15 228 12 Q168 39 123.5 86 Q79 133 53.5 196.5 Q28 260 28 333 Q28 392 44.5 445 Q61 498 90.5 543 Q120 588 161 624 Q202 660 250 685 L292 705 Q368 743 450 743 Q522 743 582.5 716 Q643 689 687.5 641.5 Q732 594 757 530.5 Q782 467 782 394 Q782 335 765.5 281.5 Q749 228 719.5 182.5 Q690 137 649.5 101.5 Q609 66 561 42 L517 22 Z M517 73 Q555 94 586.5 125.5 Q618 157 640.5 196 Q663 235 675.5 280 Q688 325 688 373 Q688 430 669 485.5 Q650 541 613.5 584 Q577 627 525 653.5 Q473 680 407 680 Q378 680 348.5 674 Q319 668 293 654 Q255 633 223.5 601.5 Q192 570 169.5 531 Q147 492 134.5 447 Q122 402 122 354 Q122 297 141.5 241.5 Q161 186 197 143 Q233 100 285 73.5 Q337 47 403 47 Q432 47 461.5 53 Q491 59 517 73 Z M479 793 L605 952 L666 928 L518 775 L479 793 Z M342 793 L468 952 L529 928 L383 775 L342 793 Z " />
<glyph glyph-name="ohungarumlaut" unicode="&#x151;" horiz-adv-x="565" d="M367 20 Q338 6 307 -3 Q276 -12 243 -12 Q198 -12 158 5 Q118 22 88.5 52 Q59 82 41.5 123.5 Q24 165 24 214 Q24 283 58.5 345.5 Q93 408 157 445 L196 467 Q254 499 320 499 Q365 499 405 482 Q445 465 474.5 434.5 Q504 404 521 362 Q538 320 538 271 Q538 202 504.5 141 Q471 80 408 42 L367 20 Z M360 67 Q401 99 426 146.5 Q451 194 451 248 Q451 288 438 322.5 Q425 357 401.5 382.5 Q378 408 346 423 Q314 438 276 438 Q256 438 238.5 434 Q221 430 204 419 Q161 391 137.5 341 Q114 291 114 238 Q114 199 127 164.5 Q140 130 162.5 104.5 Q185 79 216.5 64.5 Q248 50 286 50 Q324 50 360 67 Z M338 560 L464 718 L526 694 L378 542 L338 560 Z M202 560 L328 718 L389 694 L243 542 L202 560 Z " />
<glyph glyph-name="OE" unicode="&#x152;" horiz-adv-x="993" d="M491 20 Q462 5 430 -5 Q398 -15 358 -15 Q287 -15 226.5 13 Q166 41 122 88.5 Q78 136 53 199 Q28 262 28 333 Q28 437 80 526 Q132 615 228 672 L268 693 Q311 717 357 730.5 Q403 744 454 744 Q492 744 527 740 Q562 736 598 728 L1001 728 L967 661 L671 661 L636 410 L946 410 L912 344 L627 344 L587 67 L938 67 L908 0 L488 0 L491 20 Z M579 645 Q564 652 543 658 Q522 664 499.5 668.5 Q477 673 453.5 675 Q430 677 410 677 Q373 677 339 669.5 Q305 662 277 645 Q241 623 212.5 591.5 Q184 560 164 522.5 Q144 485 133 442.5 Q122 400 122 355 Q122 292 143 236.5 Q164 181 201 139.5 Q238 98 289.5 74 Q341 50 403 50 Q428 50 452.5 56.5 Q477 63 498 74 L579 645 Z " />
<glyph glyph-name="oe" unicode="&#x153;" horiz-adv-x="801" d="M320 211 Q320 263 340.5 309 Q361 355 396 393 Q370 415 340.5 426.5 Q311 438 276 438 Q241 438 211 421 Q181 404 159 376 Q137 348 125 312 Q113 276 113 238 Q113 199 125.5 165 Q138 131 160 105.5 Q182 80 212.5 65 Q243 50 279 50 Q326 50 364 76 Q343 103 331.5 137.5 Q320 172 320 211 Z M748 57 Q702 27 651.5 7 Q601 -13 538 -12 Q455 -10 398 36 Q366 16 326.5 2 Q287 -12 243 -12 Q198 -11 158 6 Q118 23 88.5 53 Q59 83 41.5 124 Q24 165 24 214 Q24 283 58.5 345.5 Q93 408 157 445 Q195 466 235 482.5 Q275 499 320 499 Q355 499 391 484 Q427 469 458 446 Q476 459 497 470 Q525 484 553 491.5 Q581 499 612 499 Q646 499 675.5 491 Q705 483 726.5 467 Q748 451 759.5 428.5 Q771 406 771 376 Q771 338 752 309.5 Q733 281 701 261 L671 243 Q630 218 564.5 206 Q499 194 415 192 Q423 129 468 88.5 Q513 48 586 48 Q628 48 663 61 Q698 74 734 96 L748 57 Z M587 439 Q549 439 516.5 422 Q484 405 460.5 377.5 Q437 350 423.5 314.5 Q410 279 410 242 Q488 243 549 249.5 Q610 256 648 280 Q667 292 678.5 313.5 Q690 335 690 359 Q690 398 662.5 418.5 Q635 439 587 439 Z " />
<glyph glyph-name="Racute" unicode="&#x154;" horiz-adv-x="560" d="M116 689 L98 728 L329 728 Q369 728 403.5 713 Q438 698 463.5 672.5 Q489 647 503 612 Q517 577 517 537 Q517 480 488.5 428.5 Q460 377 408 346 L389 334 Q358 314 317 314 L538 0 L425 0 L223 298 L150 298 L108 0 L19 0 L116 689 Z M299 359 Q327 359 353 371 Q385 393 405 430 Q425 467 425 508 Q425 541 414.5 569 Q404 597 385 617.5 Q366 638 339.5 650 Q313 662 282 662 L201 662 L159 359 L299 359 Z M286 793 L412 952 L473 928 L326 775 L286 793 Z " />
<glyph glyph-name="racute" unicode="&#x155;" horiz-adv-x="343" d="M91 438 L75 476 L184 499 L174 428 Q185 440 200.5 451.5 Q216 463 230 470 L245 479 Q281 499 325 499 Q354 499 374 487 L344 412 L322 422 Q308 429 294.5 431.5 Q281 434 267 435 Q242 435 216 422 Q187 404 166 372 L114 0 L29 0 L91 438 Z M161 560 L287 718 L348 694 L201 542 L161 560 Z " />
<glyph glyph-name="Rcommaaccent" unicode="&#x156;" horiz-adv-x="554" d="M116 689 L98 728 L329 728 Q369 728 403.5 713 Q438 698 463.5 672.5 Q489 647 503 612 Q517 577 517 537 Q517 480 488.5 428.5 Q460 377 408 346 L389 334 Q358 314 317 314 L538 0 L425 0 L223 298 L150 298 L108 0 L19 0 L116 689 Z M299 359 Q327 359 353 371 Q385 393 405 430 Q425 467 425 508 Q425 541 414.5 569 Q404 597 385 617.5 Q366 638 339.5 650 Q313 662 282 662 L201 662 L159 359 L299 359 Z M158 -223 Q178 -197 191.5 -173 Q205 -149 214 -120 Q193 -113 193 -88 Q193 -66 208 -54.5 Q223 -43 239 -43 Q259 -43 267.5 -55 Q276 -67 276 -84 Q276 -114 257 -156 Q238 -198 196 -237 L158 -223 Z " />
<glyph glyph-name="rcommaaccent" unicode="&#x157;" horiz-adv-x="343" d="M91 438 L75 476 L184 499 L174 428 Q185 440 200.5 451.5 Q216 463 230 470 L245 479 Q281 499 325 499 Q354 499 374 487 L344 412 L322 422 Q308 429 294.5 431.5 Q281 434 267 435 Q242 435 216 422 Q187 404 166 372 L114 0 L29 0 L91 438 Z M-4 -223 Q16 -197 29.5 -173 Q43 -149 52 -120 Q31 -113 31 -88 Q31 -66 46 -54.5 Q61 -43 77 -43 Q97 -43 105.5 -55 Q114 -67 114 -84 Q114 -114 95 -156 Q76 -198 34 -237 L-4 -223 Z " />
<glyph glyph-name="Rcaron" unicode="&#x158;" horiz-adv-x="554" d="M116 689 L98 728 L329 728 Q369 728 403.5 713 Q438 698 463.5 672.5 Q489 647 503 612 Q517 577 517 537 Q517 480 488.5 428.5 Q460 377 408 346 L389 334 Q358 314 317 314 L538 0 L425 0 L223 298 L150 298 L108 0 L19 0 L116 689 Z M299 359 Q327 359 353 371 Q385 393 405 430 Q425 467 425 508 Q425 541 414.5 569 Q404 597 385 617.5 Q366 638 339.5 650 Q313 662 282 662 L201 662 L159 359 L299 359 Z M218 912 L258 936 L344 840 L459 936 L491 912 L351 779 L321 779 L218 912 Z " />
<glyph glyph-name="rcaron" unicode="&#x159;" horiz-adv-x="343" d="M91 438 L75 476 L184 499 L174 428 Q185 440 200.5 451.5 Q216 463 230 470 L245 479 Q281 499 325 499 Q354 499 374 487 L344 412 L322 422 Q308 429 294.5 431.5 Q281 434 267 435 Q242 435 216 422 Q187 404 166 372 L114 0 L29 0 L91 438 Z M96 679 L136 703 L222 607 L337 703 L368 679 L229 546 L199 546 L96 679 Z " />
<glyph glyph-name="Sacute" unicode="&#x15a;" horiz-adv-x="501" d="M280 6 Q259 -4 235.5 -10 Q212 -16 188 -16 Q134 -16 83 4.5 Q32 25 -9 66 L32 142 Q67 104 116 76 Q165 48 225 48 Q252 48 277 59 Q309 79 330 114.5 Q351 150 351 196 Q351 230 339 254 Q327 278 308 294.5 Q289 311 264 322.5 Q239 334 214 345 Q186 357 159 371 Q132 385 111 404.5 Q90 424 77 451.5 Q64 479 64 518 Q64 583 96 631 Q128 679 179 704 L222 723 Q264 744 311 744 Q359 744 404 724 Q449 704 489 669 L448 591 Q433 607 413.5 623 Q394 639 371 652 Q348 665 322.5 672.5 Q297 680 269 680 Q244 680 224 670 Q196 651 177 618.5 Q158 586 158 546 Q158 515 169 493 Q180 471 198 455.5 Q216 440 238.5 429 Q261 418 285 408 Q315 395 344 380.5 Q373 366 396 345 Q419 324 433 294.5 Q447 265 447 223 Q447 154 412 103 Q377 52 323 26 L280 6 Z M256 793 L382 952 L443 928 L296 775 L256 793 Z " />
<glyph glyph-name="sacute" unicode="&#x15b;" horiz-adv-x="380" d="M208 3 Q175 -11 144 -11 Q108 -11 74 2.5 Q40 16 11 43 L47 111 Q70 88 103.5 68 Q137 48 176 48 Q207 49 226.5 71.5 Q246 94 246 129 Q246 152 237.5 167 Q229 182 215.5 192.5 Q202 203 184.5 210.5 Q167 218 148 226 Q130 233 113.5 242.5 Q97 252 84 265 Q71 278 63 296.5 Q55 315 55 341 Q55 383 76 415 Q97 447 132 465 L165 480 Q182 487 200 492.5 Q218 498 238 498 Q270 498 300 484.5 Q330 471 356 449 L321 384 Q301 404 270.5 421.5 Q240 439 206 439 Q192 439 179 434 Q161 426 151 405.5 Q141 385 141 362 Q141 343 148.5 329.5 Q156 316 169 306 Q182 296 198 289 Q214 282 231 275 Q250 267 268.5 257 Q287 247 301 233 Q315 219 323.5 200 Q332 181 332 154 Q332 104 306 70.5 Q280 37 241 19 L208 3 Z M179 560 L305 718 L366 694 L219 542 L179 560 Z " />
<glyph glyph-name="Scircumflex" unicode="&#x15c;" horiz-adv-x="501" d="M280 6 Q259 -4 235.5 -10 Q212 -16 188 -16 Q134 -16 83 4.5 Q32 25 -9 66 L32 142 Q67 104 116 76 Q165 48 225 48 Q252 48 277 59 Q309 79 330 114.5 Q351 150 351 196 Q351 230 339 254 Q327 278 308 294.5 Q289 311 264 322.5 Q239 334 214 345 Q186 357 159 371 Q132 385 111 404.5 Q90 424 77 451.5 Q64 479 64 518 Q64 583 96 631 Q128 679 179 704 L222 723 Q264 744 311 744 Q359 744 404 724 Q449 704 489 669 L448 591 Q433 607 413.5 623 Q394 639 371 652 Q348 665 322.5 672.5 Q297 680 269 680 Q244 680 224 670 Q196 651 177 618.5 Q158 586 158 546 Q158 515 169 493 Q180 471 198 455.5 Q216 440 238.5 429 Q261 418 285 408 Q315 395 344 380.5 Q373 366 396 345 Q419 324 433 294.5 Q447 265 447 223 Q447 154 412 103 Q377 52 323 26 L280 6 Z M176 804 L317 937 L346 937 L448 803 L409 779 L323 875 L208 780 L176 804 Z " />
<glyph glyph-name="scircumflex" unicode="&#x15d;" horiz-adv-x="380" d="M208 3 Q175 -11 144 -11 Q108 -11 74 2.5 Q40 16 11 43 L47 111 Q70 88 103.5 68 Q137 48 176 48 Q207 49 226.5 71.5 Q246 94 246 129 Q246 152 237.5 167 Q229 182 215.5 192.5 Q202 203 184.5 210.5 Q167 218 148 226 Q130 233 113.5 242.5 Q97 252 84 265 Q71 278 63 296.5 Q55 315 55 341 Q55 383 76 415 Q97 447 132 465 L165 480 Q182 487 200 492.5 Q218 498 238 498 Q270 498 300 484.5 Q330 471 356 449 L321 384 Q301 404 270.5 421.5 Q240 439 206 439 Q192 439 179 434 Q161 426 151 405.5 Q141 385 141 362 Q141 343 148.5 329.5 Q156 316 169 306 Q182 296 198 289 Q214 282 231 275 Q250 267 268.5 257 Q287 247 301 233 Q315 219 323.5 200 Q332 181 332 154 Q332 104 306 70.5 Q280 37 241 19 L208 3 Z M99 571 L240 704 L269 704 L371 570 L331 546 L246 642 L131 546 L99 571 Z " />
<glyph glyph-name="Scedilla" unicode="&#x15e;" horiz-adv-x="501" d="M80 -148 Q100 -155 119.5 -160 Q139 -165 161 -165 Q187 -165 208 -154 Q229 -143 229 -112 Q229 -99 222.5 -91 Q216 -83 206 -79 Q196 -75 184 -73.5 Q172 -72 161 -71 L173 -15 Q123 -12 76 8 Q29 28 -9 66 L32 142 Q67 104 116 76 Q165 48 225 48 Q252 48 277 59 Q309 79 330 114.5 Q351 150 351 196 Q351 230 339 254 Q327 278 308 294.5 Q289 311 264 322.5 Q239 334 214 345 Q186 357 159 371 Q132 385 111 404.5 Q90 424 77 451.5 Q64 479 64 518 Q64 583 96 631 Q128 679 179 704 L222 723 Q264 744 311 744 Q359 744 404 724 Q449 704 489 669 L448 591 Q433 607 413.5 623 Q394 639 371 652 Q348 665 322.5 672.5 Q297 680 269 680 Q244 680 224 670 Q196 651 177 618.5 Q158 586 158 546 Q158 515 169 493 Q180 471 198 455.5 Q216 440 238.5 429 Q261 418 285 408 Q315 395 344 380.5 Q373 366 396 345 Q419 324 433 294.5 Q447 265 447 223 Q447 154 412 103 Q377 52 323 26 L280 6 Q244 -11 205 -14 L199 -41 Q234 -45 259.5 -61 Q285 -77 285 -110 Q285 -135 275.5 -153 Q266 -171 250 -183 Q234 -195 213.5 -200.5 Q193 -206 171 -206 Q145 -206 120.5 -198.5 Q96 -191 73 -180 L80 -148 Z " />
<glyph glyph-name="scedilla" unicode="&#x15f;" horiz-adv-x="379" d="M35 -148 Q55 -155 75 -160 Q95 -165 116 -165 Q142 -165 163 -154 Q184 -143 184 -112 Q184 -99 177.5 -91 Q171 -83 161 -79 Q151 -75 139 -73.5 Q127 -72 116 -71 L129 -10 Q98 -8 67.5 5 Q37 18 11 43 L47 111 Q70 88 103.5 68 Q137 48 176 48 Q207 49 226.5 71.5 Q246 94 246 129 Q246 152 237.5 167 Q229 182 215.5 192.5 Q202 203 184.5 210.5 Q167 218 148 226 Q130 233 113.5 242.5 Q97 252 84 265 Q71 278 63 296.5 Q55 315 55 341 Q55 383 76 415 Q97 447 132 465 L165 480 Q182 487 200 492.5 Q218 498 238 498 Q270 498 300 484.5 Q330 471 356 449 L321 384 Q301 404 270.5 421.5 Q240 439 206 439 Q192 439 179 434 Q161 426 151 405.5 Q141 385 141 362 Q141 343 148.5 329.5 Q156 316 169 306 Q182 296 198 289 Q214 282 231 275 Q250 267 268.5 257 Q287 247 301 233 Q315 219 323.5 200 Q332 181 332 154 Q332 104 306 70.5 Q280 37 241 19 L208 3 Q196 -2 184.5 -4.5 Q173 -7 161 -9 L154 -41 Q189 -45 214.5 -61 Q240 -77 240 -110 Q240 -135 230.5 -153 Q221 -171 205 -183 Q189 -195 168.5 -200.5 Q148 -206 126 -206 Q100 -206 75.5 -198.5 Q51 -191 28 -180 L35 -148 Z " />
<glyph glyph-name="Scaron" unicode="&#x160;" horiz-adv-x="501" d="M280 6 Q259 -4 235.5 -10 Q212 -16 188 -16 Q134 -16 83 4.5 Q32 25 -9 66 L32 142 Q67 104 116 76 Q165 48 225 48 Q252 48 277 59 Q309 79 330 114.5 Q351 150 351 196 Q351 230 339 254 Q327 278 308 294.5 Q289 311 264 322.5 Q239 334 214 345 Q186 357 159 371 Q132 385 111 404.5 Q90 424 77 451.5 Q64 479 64 518 Q64 583 96 631 Q128 679 179 704 L222 723 Q264 744 311 744 Q359 744 404 724 Q449 704 489 669 L448 591 Q433 607 413.5 623 Q394 639 371 652 Q348 665 322.5 672.5 Q297 680 269 680 Q244 680 224 670 Q196 651 177 618.5 Q158 586 158 546 Q158 515 169 493 Q180 471 198 455.5 Q216 440 238.5 429 Q261 418 285 408 Q315 395 344 380.5 Q373 366 396 345 Q419 324 433 294.5 Q447 265 447 223 Q447 154 412 103 Q377 52 323 26 L280 6 Z M191 912 L231 936 L317 840 L432 936 L464 912 L324 779 L294 779 L191 912 Z " />
<glyph glyph-name="scaron" unicode="&#x161;" horiz-adv-x="380" d="M208 3 Q175 -11 144 -11 Q108 -11 74 2.5 Q40 16 11 43 L47 111 Q70 88 103.5 68 Q137 48 176 48 Q207 49 226.5 71.5 Q246 94 246 129 Q246 152 237.5 167 Q229 182 215.5 192.5 Q202 203 184.5 210.5 Q167 218 148 226 Q130 233 113.5 242.5 Q97 252 84 265 Q71 278 63 296.5 Q55 315 55 341 Q55 383 76 415 Q97 447 132 465 L165 480 Q182 487 200 492.5 Q218 498 238 498 Q270 498 300 484.5 Q330 471 356 449 L321 384 Q301 404 270.5 421.5 Q240 439 206 439 Q192 439 179 434 Q161 426 151 405.5 Q141 385 141 362 Q141 343 148.5 329.5 Q156 316 169 306 Q182 296 198 289 Q214 282 231 275 Q250 267 268.5 257 Q287 247 301 233 Q315 219 323.5 200 Q332 181 332 154 Q332 104 306 70.5 Q280 37 241 19 L208 3 Z M114 679 L154 703 L240 607 L355 703 L386 679 L247 546 L217 546 L114 679 Z " />
<glyph glyph-name="Tcommaaccent" unicode="&#x162;" horiz-adv-x="552" d="M273 661 L53 661 L88 728 L593 728 L558 661 L363 661 L270 0 L180 0 L273 661 Z M146 -223 Q166 -197 179.5 -173 Q193 -149 202 -120 Q181 -113 181 -88 Q181 -66 196 -54.5 Q211 -43 227 -43 Q247 -43 255.5 -55 Q264 -67 264 -84 Q264 -114 245 -156 Q226 -198 184 -237 L146 -223 Z " />
<glyph glyph-name="tcommaaccent" unicode="&#x163;" horiz-adv-x="317" d="M196 -4 Q136 -4 101.5 28.5 Q67 61 67 113 Q67 119 67.5 124.5 Q68 130 69 136 L111 426 L11 426 L42 487 L119 487 L138 623 L228 658 L204 487 L331 487 L322 426 L195 426 L158 159 Q157 154 157 150 Q157 146 157 142 Q157 106 181.5 81.5 Q206 57 253 57 L272 57 L241 -4 L196 -4 Z M31 -223 Q51 -197 64.5 -173 Q78 -149 87 -120 Q66 -113 66 -88 Q66 -66 81 -54.5 Q96 -43 112 -43 Q132 -43 140.5 -55 Q149 -67 149 -84 Q149 -114 130 -156 Q111 -198 69 -237 L31 -223 Z " />
<glyph glyph-name="Tcaron" unicode="&#x164;" horiz-adv-x="552" d="M273 661 L53 661 L88 728 L593 728 L558 661 L363 661 L270 0 L180 0 L273 661 Z M216 912 L256 936 L342 840 L457 936 L489 912 L349 779 L319 779 L216 912 Z " />
<glyph glyph-name="tcaron" unicode="&#x165;" horiz-adv-x="317" d="M196 -4 Q136 -4 101.5 28.5 Q67 61 67 113 Q67 119 67.5 124.5 Q68 130 69 136 L111 426 L11 426 L42 487 L119 487 L138 623 L228 658 L204 487 L331 487 L322 426 L195 426 L158 159 Q157 154 157 150 Q157 146 157 142 Q157 106 181.5 81.5 Q206 57 253 57 L272 57 L241 -4 L196 -4 Z M250 562 Q268 587 281.5 611 Q295 635 304 664 Q294 668 289 676.5 Q284 685 284 696 Q284 719 298.5 730 Q313 741 327 741 Q345 741 354 729.5 Q363 718 363 701 Q363 671 343.5 628.5 Q324 586 284 547 L250 562 Z " />
<glyph glyph-name="Tbar" unicode="&#x166;" horiz-adv-x="552" d="M228 347 L95 347 L114 403 L237 403 L273 661 L53 661 L88 728 L593 728 L558 661 L363 661 L326 403 L461 403 L443 347 L318 347 L270 0 L180 0 L228 347 Z " />
<glyph glyph-name="tbar" unicode="&#x167;" horiz-adv-x="317" d="M195 -4 Q135 -4 100.5 28.5 Q66 61 66 113 Q66 119 66.5 124.5 Q67 130 68 136 L87 272 L-3 272 L12 317 L93 317 L110 426 L10 426 L41 487 L118 487 L137 623 L227 658 L203 487 L330 487 L321 426 L194 426 L178 317 L287 317 L272 272 L172 272 L157 159 Q156 154 156 150 Q156 146 156 142 Q156 106 180.5 81.5 Q205 57 252 57 L271 57 L240 -4 L195 -4 Z " />
<glyph glyph-name="Utilde" unicode="&#x168;" horiz-adv-x="656" d="M423 17 Q357 -16 279 -16 Q232 -16 190 -0.5 Q148 15 116.5 44 Q85 73 66 114.5 Q47 156 47 207 Q47 215 47 222.5 Q47 230 49 240 L113 689 L95 728 L207 728 L142 259 Q140 251 140 244 Q140 237 140 230 Q140 194 152.5 161 Q165 128 188 103 Q211 78 245 63.5 Q279 49 322 49 Q361 49 392 61 Q423 73 459 94 L542 689 L526 728 L638 728 L547 83 Q527 71 505 58.5 Q483 46 466 38 L423 17 Z M247 810 Q261 840 286 862.5 Q311 885 343 885 Q358 885 371.5 879.5 Q385 874 398.5 868 Q412 862 425 856.5 Q438 851 453 851 Q470 851 483 863 Q496 875 504 890 L541 876 Q528 845 502.5 822 Q477 799 444 799 Q430 799 417 804.5 Q404 810 390.5 816 Q377 822 363 827.5 Q349 833 334 833 Q317 833 305 822 Q293 811 285 796 L247 810 Z " />
<glyph glyph-name="utilde" unicode="&#x169;" horiz-adv-x="525" d="M353 65 Q340 54 324.5 43.5 Q309 33 297 25 L283 17 Q228 -12 176 -12 Q115 -12 79.5 25 Q44 62 44 125 Q44 131 44.5 137.5 Q45 144 46 151 L87 438 L71 476 L180 499 L134 174 Q133 169 133 163.5 Q133 158 133 152 Q133 104 160.5 77 Q188 50 235 50 Q271 50 301.5 67.5 Q332 85 358 111 L404 438 L388 476 L497 499 L427 0 L344 0 L353 65 Z M165 576 Q179 606 203.5 628.5 Q228 651 261 651 Q276 651 289.5 646 Q303 641 316 634.5 Q329 628 342.5 623 Q356 618 370 618 Q388 618 400.5 629.5 Q413 641 421 657 L459 642 Q446 611 420.5 588.5 Q395 566 362 566 Q348 566 335 571 Q322 576 308.5 582.5 Q295 589 281 594 Q267 599 252 599 Q235 599 223 588 Q211 577 203 562 L165 576 Z " />
<glyph glyph-name="Umacron" unicode="&#x16a;" horiz-adv-x="656" d="M423 17 Q357 -16 279 -16 Q232 -16 190 -0.5 Q148 15 116.5 44 Q85 73 66 114.5 Q47 156 47 207 Q47 215 47 222.5 Q47 230 49 240 L113 689 L95 728 L207 728 L142 259 Q140 251 140 244 Q140 237 140 230 Q140 194 152.5 161 Q165 128 188 103 Q211 78 245 63.5 Q279 49 322 49 Q361 49 392 61 Q423 73 459 94 L542 689 L526 728 L638 728 L547 83 Q527 71 505 58.5 Q483 46 466 38 L423 17 Z M259 858 L535 858 L528 806 L251 806 L259 858 Z " />
<glyph glyph-name="umacron" unicode="&#x16b;" horiz-adv-x="525" d="M353 65 Q340 54 324.5 43.5 Q309 33 297 25 L283 17 Q228 -12 176 -12 Q115 -12 79.5 25 Q44 62 44 125 Q44 131 44.5 137.5 Q45 144 46 151 L87 438 L71 476 L180 499 L134 174 Q133 169 133 163.5 Q133 158 133 152 Q133 104 160.5 77 Q188 50 235 50 Q271 50 301.5 67.5 Q332 85 358 111 L404 438 L388 476 L497 499 L427 0 L344 0 L353 65 Z M177 625 L453 625 L446 573 L169 573 L177 625 Z " />
<glyph glyph-name="Ubreve" unicode="&#x16c;" horiz-adv-x="656" d="M423 17 Q357 -16 279 -16 Q232 -16 190 -0.5 Q148 15 116.5 44 Q85 73 66 114.5 Q47 156 47 207 Q47 215 47 222.5 Q47 230 49 240 L113 689 L95 728 L207 728 L142 259 Q140 251 140 244 Q140 237 140 230 Q140 194 152.5 161 Q165 128 188 103 Q211 78 245 63.5 Q279 49 322 49 Q361 49 392 61 Q423 73 459 94 L542 689 L526 728 L638 728 L547 83 Q527 71 505 58.5 Q483 46 466 38 L423 17 Z M310 904 Q314 869 338.5 855 Q363 841 395 841 Q427 841 455 854.5 Q483 868 497 904 L536 904 Q521 847 481 818.5 Q441 790 387 790 Q333 790 301.5 819 Q270 848 271 904 L310 904 Z " />
<glyph glyph-name="ubreve" unicode="&#x16d;" horiz-adv-x="525" d="M353 65 Q340 54 324.5 43.5 Q309 33 297 25 L283 17 Q228 -12 176 -12 Q115 -12 79.5 25 Q44 62 44 125 Q44 131 44.5 137.5 Q45 144 46 151 L87 438 L71 476 L180 499 L134 174 Q133 169 133 163.5 Q133 158 133 152 Q133 104 160.5 77 Q188 50 235 50 Q271 50 301.5 67.5 Q332 85 358 111 L404 438 L388 476 L497 499 L427 0 L344 0 L353 65 Z M228 670 Q232 635 256 621.5 Q280 608 312 608 Q345 608 373 621.5 Q401 635 415 670 L454 670 Q438 614 398.5 585.5 Q359 557 305 557 Q251 557 219.5 586 Q188 615 189 670 L228 670 Z " />
<glyph glyph-name="Uring" unicode="&#x16e;" horiz-adv-x="656" d="M423 17 Q357 -16 279 -16 Q232 -16 190 -0.5 Q148 15 116.5 44 Q85 73 66 114.5 Q47 156 47 207 Q47 215 47 222.5 Q47 230 49 240 L113 689 L95 728 L207 728 L142 259 Q140 251 140 244 Q140 237 140 230 Q140 194 152.5 161 Q165 128 188 103 Q211 78 245 63.5 Q279 49 322 49 Q361 49 392 61 Q423 73 459 94 L542 689 L526 728 L638 728 L547 83 Q527 71 505 58.5 Q483 46 466 38 L423 17 Z M503 879 Q503 854 493 834 Q483 814 466.5 799.5 Q450 785 428.5 777.5 Q407 770 384 770 Q346 770 319.5 792.5 Q293 815 293 856 Q293 881 303 901 Q313 921 330 935.5 Q347 950 368.5 958 Q390 966 413 966 Q450 966 476.5 942.5 Q503 919 503 879 Z M458 874 Q458 897 443.5 911.5 Q429 926 406 926 Q380 926 359 907.5 Q338 889 338 861 Q338 838 353 824 Q368 810 391 810 Q416 810 437 828 Q458 846 458 874 Z " />
<glyph glyph-name="uring" unicode="&#x16f;" horiz-adv-x="525" d="M353 65 Q340 54 324.5 43.5 Q309 33 297 25 L283 17 Q228 -12 176 -12 Q115 -12 79.5 25 Q44 62 44 125 Q44 131 44.5 137.5 Q45 144 46 151 L87 438 L71 476 L180 499 L134 174 Q133 169 133 163.5 Q133 158 133 152 Q133 104 160.5 77 Q188 50 235 50 Q271 50 301.5 67.5 Q332 85 358 111 L404 438 L388 476 L497 499 L427 0 L344 0 L353 65 Z M421 646 Q421 621 411 600.5 Q401 580 384 566 Q367 552 345.5 544 Q324 536 302 536 Q264 536 237 559 Q210 582 210 622 Q210 647 220.5 667 Q231 687 247.5 701.5 Q264 716 285.5 724 Q307 732 330 732 Q368 732 394.5 708.5 Q421 685 421 646 Z M376 641 Q376 664 361 678 Q346 692 324 692 Q298 692 277 674 Q256 656 256 628 Q256 605 271 590.5 Q286 576 309 576 Q334 576 355 594.5 Q376 613 376 641 Z " />
<glyph glyph-name="Uhungarumlaut" unicode="&#x170;" horiz-adv-x="656" d="M423 17 Q357 -16 279 -16 Q232 -16 190 -0.5 Q148 15 116.5 44 Q85 73 66 114.5 Q47 156 47 207 Q47 215 47 222.5 Q47 230 49 240 L113 689 L95 728 L207 728 L142 259 Q140 251 140 244 Q140 237 140 230 Q140 194 152.5 161 Q165 128 188 103 Q211 78 245 63.5 Q279 49 322 49 Q361 49 392 61 Q423 73 459 94 L542 689 L526 728 L638 728 L547 83 Q527 71 505 58.5 Q483 46 466 38 L423 17 Z M401 793 L527 952 L588 928 L440 775 L401 793 Z M264 793 L390 952 L451 928 L305 775 L264 793 Z " />
<glyph glyph-name="uhungarumlaut" unicode="&#x171;" horiz-adv-x="525" d="M353 65 Q340 54 324.5 43.5 Q309 33 297 25 L283 17 Q228 -12 176 -12 Q115 -12 79.5 25 Q44 62 44 125 Q44 131 44.5 137.5 Q45 144 46 151 L87 438 L71 476 L180 499 L134 174 Q133 169 133 163.5 Q133 158 133 152 Q133 104 160.5 77 Q188 50 235 50 Q271 50 301.5 67.5 Q332 85 358 111 L404 438 L388 476 L497 499 L427 0 L344 0 L353 65 Z M318 560 L444 718 L506 694 L358 542 L318 560 Z M182 560 L308 718 L369 694 L223 542 L182 560 Z " />
<glyph glyph-name="Uogonek" unicode="&#x172;" horiz-adv-x="656" d="M382 -189 Q365 -197 346.5 -201.5 Q328 -206 306 -206 Q271 -206 249.5 -186 Q228 -166 228 -131 Q228 -93 250.5 -65 Q273 -37 303 -14 Q297 -15 291 -15.5 Q285 -16 279 -16 Q232 -16 190 -0.5 Q148 15 116.5 44 Q85 73 66 114.5 Q47 156 47 207 Q47 215 47 222.5 Q47 230 49 240 L113 689 L95 728 L207 728 L142 259 Q140 251 140 244 Q140 237 140 230 Q140 194 152.5 161 Q165 128 188 103 Q211 78 245 63.5 Q279 49 322 49 Q361 49 392 61 Q423 73 459 94 L542 689 L526 728 L638 728 L547 83 Q527 71 505 58.5 Q483 46 466 38 L423 17 Q390 1 357 -6 Q344 -16 330.5 -27.5 Q317 -39 306 -52.5 Q295 -66 288 -81 Q281 -96 281 -114 Q281 -135 293.5 -147.5 Q306 -160 329 -160 Q342 -160 354.5 -157 Q367 -154 378 -149 L382 -189 Z " />
<glyph glyph-name="uogonek" unicode="&#x173;" horiz-adv-x="525" d="M424 -189 Q409 -196 390 -201 Q371 -206 348 -206 Q317 -206 293 -186.5 Q269 -167 269 -131 Q269 -109 277.5 -90 Q286 -71 300 -55 Q314 -39 332 -25.5 Q350 -12 368 0 L344 0 L353 65 Q340 54 324.5 43.5 Q309 33 297 25 L283 17 Q230 -12 176 -12 Q115 -12 79.5 25 Q44 62 44 125 Q44 131 44.5 137.5 Q45 144 46 151 L87 438 L71 476 L180 499 L134 174 Q133 169 133 163.5 Q133 158 133 152 Q133 104 160.5 77 Q188 50 235 50 Q271 50 301.5 67.5 Q332 85 358 111 L404 438 L388 476 L497 499 L427 0 L410 0 Q396 -10 381 -21.5 Q366 -33 353 -47.5 Q340 -62 331.5 -78.5 Q323 -95 323 -114 Q323 -135 335.5 -147.5 Q348 -160 371 -160 Q384 -160 396 -157 Q408 -154 420 -149 L424 -189 Z " />
<glyph glyph-name="Wcircumflex" unicode="&#x174;" horiz-adv-x="946" d="M41 728 L139 728 L304 130 L440 390 L345 728 L443 728 L608 130 L900 689 L892 728 L997 728 L613 0 L549 0 L466 300 L311 0 L245 0 L41 728 Z M399 804 L540 937 L569 937 L671 803 L632 779 L546 875 L431 780 L399 804 Z " />
<glyph glyph-name="wcircumflex" unicode="&#x175;" horiz-adv-x="699" d="M28 487 L120 487 L221 121 L304 280 L246 487 L338 487 L439 121 L611 452 L603 487 L700 487 L443 0 L383 0 L329 195 L227 0 L166 0 L28 487 Z M258 571 L399 704 L428 704 L530 570 L490 546 L405 642 L290 546 L258 571 Z " />
<glyph glyph-name="Ycircumflex" unicode="&#x176;" horiz-adv-x="601" d="M251 291 L48 728 L155 728 L317 373 L537 689 L531 728 L646 728 L340 298 L299 0 L210 0 L251 291 Z M226 804 L367 937 L396 937 L498 803 L459 779 L373 875 L258 780 L226 804 Z " />
<glyph glyph-name="ycircumflex" unicode="&#x177;" horiz-adv-x="468" d="M163 12 L28 487 L120 487 L221 121 L393 452 L385 487 L483 487 L125 -197 L48 -197 L163 12 Z M144 571 L285 704 L314 704 L416 570 L376 546 L291 642 L176 546 L144 571 Z " />
<glyph glyph-name="Ydieresis" unicode="&#x178;" horiz-adv-x="601" d="M251 291 L48 728 L155 728 L317 373 L537 689 L531 728 L646 728 L340 298 L299 0 L210 0 L251 291 Z M500 846 Q500 825 485 811 Q470 797 450 797 Q433 797 421.5 808 Q410 819 410 836 Q410 855 426.5 870.5 Q443 886 462 886 Q479 886 489.5 874 Q500 862 500 846 Z M324 846 Q324 826 308.5 811.5 Q293 797 273 797 Q256 797 245 808 Q234 819 234 836 Q234 855 250 870.5 Q266 886 285 886 Q302 886 313 874 Q324 862 324 846 Z " />
<glyph glyph-name="Zacute" unicode="&#x179;" horiz-adv-x="561" d="M-18 34 L448 661 L71 661 L105 728 L578 728 L573 694 L108 66 L508 66 L474 0 L-22 0 L-18 34 Z M286 793 L412 952 L473 928 L326 775 L286 793 Z " />
<glyph glyph-name="zacute" unicode="&#x17a;" horiz-adv-x="430" d="M-6 31 L307 426 L49 426 L81 487 L428 487 L424 455 L113 62 L388 62 L357 0 L-10 0 L-6 31 Z M205 560 L331 718 L392 694 L245 542 L205 560 Z " />
<glyph glyph-name="Zdotaccent" unicode="&#x17b;" horiz-adv-x="561" d="M-18 34 L448 661 L71 661 L105 728 L578 728 L573 694 L108 66 L508 66 L474 0 L-22 0 L-18 34 Z M393 846 Q393 825 377 810.5 Q361 796 341 796 Q324 796 312.5 807.5 Q301 819 301 836 Q301 856 317.5 871.5 Q334 887 354 887 Q371 887 382 875 Q393 863 393 846 Z " />
<glyph glyph-name="zdotaccent" unicode="&#x17c;" horiz-adv-x="430" d="M-6 31 L307 426 L49 426 L81 487 L428 487 L424 455 L113 62 L388 62 L357 0 L-10 0 L-6 31 Z M312 612 Q312 592 296 577 Q280 562 260 562 Q243 562 231.5 573.5 Q220 585 220 602 Q220 622 236 638 Q252 654 272 654 Q290 654 301 641.5 Q312 629 312 612 Z " />
<glyph glyph-name="Zcaron" unicode="&#x17d;" horiz-adv-x="561" d="M-18 34 L448 661 L71 661 L105 728 L578 728 L573 694 L108 66 L508 66 L474 0 L-22 0 L-18 34 Z M221 912 L261 936 L347 840 L462 936 L494 912 L354 779 L324 779 L221 912 Z " />
<glyph glyph-name="zcaron" unicode="&#x17e;" horiz-adv-x="430" d="M-6 31 L307 426 L49 426 L81 487 L428 487 L424 455 L113 62 L388 62 L357 0 L-10 0 L-6 31 Z M140 679 L180 703 L266 607 L381 703 L412 679 L273 546 L243 546 L140 679 Z " />
<glyph glyph-name="florin" unicode="&#x192;" horiz-adv-x="549" d="M-15 -112 Q-3 -114 15.5 -116.5 Q34 -119 48 -119 Q69 -119 88.5 -116 Q108 -113 124 -105 Q153 -82 165 -45 Q177 -8 185 38 L256 426 L146 426 L146 487 L268 487 L283 563 Q292 610 314 643.5 Q336 677 364 694 L383 704 Q392 709 407 714 Q422 719 438.5 722.5 Q455 726 471 728 Q487 730 498 730 Q521 730 538 727 L538 666 Q533 666 518.5 667 Q504 668 493 668 Q485 668 473 668 Q461 668 448.5 667 Q436 666 424.5 665 Q413 664 407 663 Q390 647 379 620 Q368 593 361 559 L348 487 L495 487 L495 426 L337 426 L270 52 Q259 -12 235.5 -62.5 Q212 -113 166 -139 L128 -161 Q108 -172 83.5 -178.5 Q59 -185 29 -185 Q19 -185 7.5 -183 Q-4 -181 -15 -178 L-15 -112 Z " />
<glyph glyph-name="Scommaaccent" unicode="&#x218;" horiz-adv-x="501" d="M280 6 Q259 -4 235.5 -10 Q212 -16 188 -16 Q134 -16 83 4.5 Q32 25 -9 66 L32 142 Q67 104 116 76 Q165 48 225 48 Q252 48 277 59 Q309 79 330 114.5 Q351 150 351 196 Q351 230 339 254 Q327 278 308 294.5 Q289 311 264 322.5 Q239 334 214 345 Q186 357 159 371 Q132 385 111 404.5 Q90 424 77 451.5 Q64 479 64 518 Q64 583 96 631 Q128 679 179 704 L222 723 Q264 744 311 744 Q359 744 404 724 Q449 704 489 669 L448 591 Q433 607 413.5 623 Q394 639 371 652 Q348 665 322.5 672.5 Q297 680 269 680 Q244 680 224 670 Q196 651 177 618.5 Q158 586 158 546 Q158 515 169 493 Q180 471 198 455.5 Q216 440 238.5 429 Q261 418 285 408 Q315 395 344 380.5 Q373 366 396 345 Q419 324 433 294.5 Q447 265 447 223 Q447 154 412 103 Q377 52 323 26 L280 6 Z M122 -223 Q142 -197 155.5 -173 Q169 -149 178 -120 Q157 -113 157 -88 Q157 -66 172 -54.5 Q187 -43 203 -43 Q223 -43 231.5 -55 Q240 -67 240 -84 Q240 -114 221 -156 Q202 -198 160 -237 L122 -223 Z " />
<glyph glyph-name="scommaaccent" unicode="&#x219;" horiz-adv-x="380" d="M208 3 Q175 -11 144 -11 Q108 -11 74 2.5 Q40 16 11 43 L47 111 Q70 88 103.5 68 Q137 48 176 48 Q207 49 226.5 71.5 Q246 94 246 129 Q246 152 237.5 167 Q229 182 215.5 192.5 Q202 203 184.5 210.5 Q167 218 148 226 Q130 233 113.5 242.5 Q97 252 84 265 Q71 278 63 296.5 Q55 315 55 341 Q55 383 76 415 Q97 447 132 465 L165 480 Q182 487 200 492.5 Q218 498 238 498 Q270 498 300 484.5 Q330 471 356 449 L321 384 Q301 404 270.5 421.5 Q240 439 206 439 Q192 439 179 434 Q161 426 151 405.5 Q141 385 141 362 Q141 343 148.5 329.5 Q156 316 169 306 Q182 296 198 289 Q214 282 231 275 Q250 267 268.5 257 Q287 247 301 233 Q315 219 323.5 200 Q332 181 332 154 Q332 104 306 70.5 Q280 37 241 19 L208 3 Z M61 -223 Q81 -197 94.5 -173 Q108 -149 117 -120 Q96 -113 96 -88 Q96 -66 111 -54.5 Q126 -43 142 -43 Q162 -43 170.5 -55 Q179 -67 179 -84 Q179 -114 160 -156 Q141 -198 99 -237 L61 -223 Z " />
<glyph glyph-name="uni021A" unicode="&#x21a;" horiz-adv-x="552" d="M273 661 L53 661 L88 728 L593 728 L558 661 L363 661 L270 0 L180 0 L273 661 Z M146 -223 Q166 -197 179.5 -173 Q193 -149 202 -120 Q181 -113 181 -88 Q181 -66 196 -54.5 Q211 -43 227 -43 Q247 -43 255.5 -55 Q264 -67 264 -84 Q264 -114 245 -156 Q226 -198 184 -237 L146 -223 Z " />
<glyph glyph-name="uni021B" unicode="&#x21b;" horiz-adv-x="317" d="M196 -4 Q136 -4 101.5 28.5 Q67 61 67 113 Q67 119 67.5 124.5 Q68 130 69 136 L111 426 L11 426 L42 487 L119 487 L138 623 L228 658 L204 487 L331 487 L322 426 L195 426 L158 159 Q157 154 157 150 Q157 146 157 142 Q157 106 181.5 81.5 Q206 57 253 57 L272 57 L241 -4 L196 -4 Z M31 -223 Q51 -197 64.5 -173 Q78 -149 87 -120 Q66 -113 66 -88 Q66 -66 81 -54.5 Q96 -43 112 -43 Q132 -43 140.5 -55 Q149 -67 149 -84 Q149 -114 130 -156 Q111 -198 69 -237 L31 -223 Z " />
<glyph glyph-name="uni0237" unicode="&#x237;" horiz-adv-x="222" d="M-92 -138 Q-84 -138 -73 -137.5 Q-62 -137 -50.5 -136 Q-39 -135 -29 -133.5 Q-19 -132 -13 -129 Q9 -113 18.5 -92.5 Q28 -72 31 -47 L100 438 L85 476 L193 499 L118 -39 Q112 -76 91 -107.5 Q70 -139 37 -156 L-5 -178 Q-22 -188 -41 -193.5 Q-60 -199 -80 -199 L-90 -199 L-92 -138 Z " />
<glyph glyph-name="circumflex" unicode="&#x2c6;" horiz-adv-x="500" d="M159 571 L300 704 L329 704 L431 570 L391 546 L306 642 L191 546 L159 571 Z " />
<glyph glyph-name="caron" unicode="&#x2c7;" horiz-adv-x="500" d="M174 679 L214 703 L300 607 L415 703 L446 679 L307 546 L277 546 L174 679 Z " />
<glyph glyph-name="uni02C9" unicode="&#x2c9;" horiz-adv-x="500" d="M165 625 L441 625 L434 573 L157 573 L165 625 Z " />
<glyph glyph-name="breve" unicode="&#x2d8;" horiz-adv-x="500" d="M216 670 Q220 635 244 621.5 Q268 608 300 608 Q333 608 361 621.5 Q389 635 403 670 L442 670 Q426 614 386.5 585.5 Q347 557 293 557 Q239 557 207.5 586 Q176 615 177 670 L216 670 Z " />
<glyph glyph-name="dotaccent" unicode="&#x2d9;" horiz-adv-x="500" d="M346 612 Q346 592 330 577 Q314 562 294 562 Q277 562 265.5 573.5 Q254 585 254 602 Q254 622 270 638 Q286 654 306 654 Q324 654 335 641.5 Q346 629 346 612 Z " />
<glyph glyph-name="ring" unicode="&#x2da;" horiz-adv-x="500" d="M409 646 Q409 621 399 600.5 Q389 580 372 566 Q355 552 333.5 544 Q312 536 290 536 Q252 536 225 559 Q198 582 198 622 Q198 647 208.5 667 Q219 687 235.5 701.5 Q252 716 273.5 724 Q295 732 318 732 Q356 732 382.5 708.5 Q409 685 409 646 Z M364 641 Q364 664 349 678 Q334 692 312 692 Q286 692 265 674 Q244 656 244 628 Q244 605 259 590.5 Q274 576 297 576 Q322 576 343 594.5 Q364 613 364 641 Z " />
<glyph glyph-name="ogonek" unicode="&#x2db;" horiz-adv-x="500" d="M257 -189 Q240 -197 221 -201.5 Q202 -206 181 -206 Q146 -206 124 -186 Q102 -166 102 -131 Q102 -109 110.5 -90 Q119 -71 133 -55 Q147 -39 165 -25.5 Q183 -12 201 0 L243 0 Q229 -10 213.5 -21.5 Q198 -33 185.5 -47.5 Q173 -62 164.5 -78.5 Q156 -95 156 -114 Q156 -135 168.5 -147.5 Q181 -160 204 -160 Q217 -160 229 -157 Q241 -154 252 -149 L257 -189 Z " />
<glyph glyph-name="tilde" unicode="&#x2dc;" horiz-adv-x="500" d="M153 576 Q167 606 191.5 628.5 Q216 651 249 651 Q264 651 277.5 646 Q291 641 304 634.5 Q317 628 330.5 623 Q344 618 358 618 Q376 618 388.5 629.5 Q401 641 409 657 L447 642 Q434 611 408.5 588.5 Q383 566 350 566 Q336 566 323 571 Q310 576 296.5 582.5 Q283 589 269 594 Q255 599 240 599 Q223 599 211 588 Q199 577 191 562 L153 576 Z " />
<glyph glyph-name="hungarumlaut" unicode="&#x2dd;" horiz-adv-x="500" d="M306 560 L432 718 L494 694 L346 542 L306 560 Z M170 560 L296 718 L357 694 L211 542 L170 560 Z " />
<glyph glyph-name="uni0374" unicode="&#x374;" horiz-adv-x="155" d="M41 549 Q64 575 82.5 604.5 Q101 634 109 666 Q101 672 95 681 Q89 690 89 701 Q89 724 103.5 735.5 Q118 747 135 747 Q152 747 165 735.5 Q178 724 178 701 Q178 680 169.5 657.5 Q161 635 146 613.5 Q131 592 110.5 572 Q90 552 67 536 L41 549 Z " />
<glyph glyph-name="uni0375" unicode="&#x375;" horiz-adv-x="155" d="M-52 -117 Q-29 -91 -11 -61 Q7 -31 16 1 Q8 7 2 15.5 Q-4 24 -4 36 Q-4 58 10.5 70 Q25 82 42 82 Q59 82 72 70.5 Q85 59 85 36 Q85 15 76.5 -7.5 Q68 -30 53 -52 Q38 -74 17.5 -93.5 Q-3 -113 -26 -129 L-52 -117 Z " />
<glyph glyph-name="uni037E" unicode="&#x37e;" horiz-adv-x="280" d="M-4 -133 Q22 -104 42.5 -69.5 Q63 -35 73 1 Q62 8 55 18 Q48 28 48 42 Q48 68 66 82.5 Q84 97 105 97 Q126 97 141 83.5 Q156 70 156 42 Q156 18 146.5 -8 Q137 -34 119.5 -59 Q102 -84 79 -107 Q56 -130 29 -148 L-4 -133 Z M208 410 Q208 383 187.5 369 Q167 355 146 355 Q127 355 113.5 367.5 Q100 380 100 401 Q100 428 120.5 442 Q141 456 162 456 Q182 456 195 444 Q208 432 208 410 Z " />
<glyph glyph-name="tonos" unicode="&#x384;" horiz-adv-x="500" d="M253 546 L270 728 L334 728 L299 546 L253 546 Z " />
<glyph glyph-name="dieresistonos" unicode="&#x385;" horiz-adv-x="500" d="M439 611 Q439 591 424.5 577 Q410 563 391 563 Q375 563 365 574 Q355 585 355 601 Q355 620 370 634.5 Q385 649 403 649 Q419 649 429 637.5 Q439 626 439 611 Z M246 611 Q246 591 231.5 577 Q217 563 198 563 Q182 563 172 574 Q162 585 162 601 Q162 620 177 634.5 Q192 649 210 649 Q226 649 236 637.5 Q246 626 246 611 Z M272 546 L289 728 L347 728 L312 546 L272 546 Z " />
<glyph glyph-name="Alphatonos" unicode="&#x386;" horiz-adv-x="678" d="M335 689 L322 728 L420 728 L640 0 L543 0 L472 240 L164 240 L55 39 L63 0 L-42 0 L335 689 Z M451 305 L362 607 L200 305 L451 305 Z M59 546 L76 728 L140 728 L105 546 L59 546 Z " />
<glyph glyph-name="anoteleia" unicode="&#x387;" horiz-adv-x="280" d="M186 257 Q186 231 166 217 Q146 203 124 203 Q105 203 92 215.5 Q79 228 79 249 Q79 275 99 289.5 Q119 304 140 304 Q160 304 173 291.5 Q186 279 186 257 Z " />
<glyph glyph-name="Epsilontonos" unicode="&#x388;" horiz-adv-x="633" d="M227 689 L209 728 L383 728 L642 728 L608 661 L312 661 L277 410 L588 410 L553 344 L267 344 L229 67 L579 67 L550 0 L130 0 L227 689 Z M59 546 L76 728 L140 728 L105 546 L59 546 Z " />
<glyph glyph-name="Etatonos" unicode="&#x389;" horiz-adv-x="779" d="M227 689 L209 728 L321 728 L277 412 L627 412 L666 689 L649 728 L761 728 L659 0 L569 0 L617 343 L267 343 L219 0 L130 0 L227 689 Z M59 546 L76 728 L140 728 L105 546 L59 546 Z " />
<glyph glyph-name="Iotatonos" unicode="&#x38a;" horiz-adv-x="350" d="M232 689 L214 728 L326 728 L224 0 L135 0 L232 689 Z M59 546 L76 728 L140 728 L105 546 L59 546 Z " />
<glyph glyph-name="Omicrontonos" unicode="&#x38c;" horiz-adv-x="878" d="M583 22 Q547 5 506.5 -5 Q466 -15 424 -15 Q354 -15 294 12 Q234 39 189.5 86 Q145 133 119.5 196.5 Q94 260 94 333 Q94 392 110.5 445 Q127 498 156.5 543 Q186 588 227 624 Q268 660 316 685 L358 705 Q434 743 516 743 Q588 743 648.5 716 Q709 689 753.5 641.5 Q798 594 823 530.5 Q848 467 848 394 Q848 335 831.5 281.5 Q815 228 785.5 182.5 Q756 137 715.5 101.5 Q675 66 627 42 L583 22 Z M583 73 Q621 94 652.5 125.5 Q684 157 706.5 196 Q729 235 741.5 280 Q754 325 754 373 Q754 430 735 485.5 Q716 541 679.5 584 Q643 627 591 653.5 Q539 680 473 680 Q444 680 414.5 674 Q385 668 359 654 Q321 633 289.5 601.5 Q258 570 235.5 531 Q213 492 200.5 447 Q188 402 188 354 Q188 297 207.5 241.5 Q227 186 263 143 Q299 100 351 73.5 Q403 47 469 47 Q498 47 527.5 53 Q557 59 583 73 Z M59 546 L76 728 L140 728 L105 546 L59 546 Z " />
<glyph glyph-name="Upsilontonos" unicode="&#x38e;" horiz-adv-x="712" d="M362 291 L159 728 L266 728 L428 373 L648 689 L642 728 L757 728 L451 298 L410 0 L321 0 L362 291 Z M59 546 L76 728 L140 728 L105 546 L59 546 Z " />
<glyph glyph-name="Omegatonos" unicode="&#x38f;" horiz-adv-x="872" d="M492 0 L497 35 Q549 74 594 118.5 Q639 163 672.5 212 Q706 261 725 315 Q744 369 744 427 Q744 481 725 527.5 Q706 574 673 608 Q640 642 595 661 Q550 680 497 680 Q463 680 431.5 676 Q400 672 373 656 Q301 613 260 536.5 Q219 460 219 363 Q219 271 258.5 187 Q298 103 364 35 L359 0 L89 0 L74 69 L257 69 Q230 95 206 129 Q182 163 165 202 Q148 241 138 283.5 Q128 326 128 369 Q128 421 142 468 Q156 515 182 556 Q208 597 244 630.5 Q280 664 325 688 L366 708 Q406 730 449.5 737 Q493 744 541 744 Q604 744 658.5 721 Q713 698 752.5 658.5 Q792 619 814.5 565 Q837 511 837 448 Q837 337 776 240 Q715 143 612 69 L797 69 L762 0 L492 0 Z M59 546 L76 728 L140 728 L105 546 L59 546 Z " />
<glyph glyph-name="iotadieresistonos" unicode="&#x390;" horiz-adv-x="213" d="M294 611 Q294 591 279.5 577 Q265 563 246 563 Q230 563 220 574 Q210 585 210 601 Q210 620 225 634.5 Q240 649 258 649 Q274 649 284 637.5 Q294 626 294 611 Z M101 611 Q101 591 86.5 577 Q72 563 53 563 Q37 563 27 574 Q17 585 17 601 Q17 620 32 634.5 Q47 649 65 649 Q81 649 91 637.5 Q101 626 101 611 Z M127 546 L144 728 L202 728 L167 546 L127 546 Z M90 432 L74 469 L184 499 L114 0 L29 0 L90 432 Z " />
<glyph glyph-name="Alpha" unicode="&#x391;" horiz-adv-x="678" d="M335 689 L322 728 L420 728 L640 0 L543 0 L472 240 L164 240 L55 39 L63 0 L-42 0 L335 689 Z M451 305 L362 607 L200 305 L451 305 Z " />
<glyph glyph-name="Beta" unicode="&#x392;" horiz-adv-x="549" d="M116 689 L98 728 L327 728 Q363 728 393.5 715.5 Q424 703 446 681.5 Q468 660 480.5 630 Q493 600 493 565 Q493 519 470.5 475 Q448 431 405 405 L390 396 Q383 392 377 391 Q429 376 462 332.5 Q495 289 495 228 Q495 174 467.5 127 Q440 80 391 49 L349 27 Q305 0 247 0 L19 0 L116 689 Z M295 409 Q323 407 343 420 Q369 437 386 467 Q403 497 403 531 Q403 559 394 583 Q385 607 368.5 625 Q352 643 330 653 Q308 663 282 663 L200 663 L164 409 L295 409 Z M289 65 Q316 65 340 78 Q368 100 385.5 133.5 Q403 167 403 206 Q403 235 393 261 Q383 287 365 306 Q347 325 322.5 336 Q298 347 270 347 L156 347 L116 65 L289 65 Z " />
<glyph glyph-name="Gamma" unicode="&#x393;" horiz-adv-x="494" d="M116 689 L98 728 L534 728 L500 661 L201 661 L108 0 L19 0 L116 689 Z " />
<glyph glyph-name="increment" unicode="&#x394;" horiz-adv-x="678" d="M-17 46 L335 689 L323 728 L420 728 L626 46 L619 0 L-24 0 L-17 46 Z M71 67 L522 67 L362 607 L71 67 Z " />
<glyph glyph-name="Epsilon" unicode="&#x395;" horiz-adv-x="522" d="M116 689 L98 728 L272 728 L531 728 L497 661 L201 661 L166 410 L477 410 L442 344 L156 344 L118 67 L468 67 L439 0 L19 0 L116 689 Z " />
<glyph glyph-name="Zeta" unicode="&#x396;" horiz-adv-x="561" d="M-18 34 L448 661 L71 661 L105 728 L578 728 L573 694 L108 66 L508 66 L474 0 L-22 0 L-18 34 Z " />
<glyph glyph-name="Eta" unicode="&#x397;" horiz-adv-x="669" d="M116 689 L98 728 L210 728 L166 412 L516 412 L555 689 L538 728 L650 728 L548 0 L458 0 L506 343 L156 343 L108 0 L19 0 L116 689 Z " />
<glyph glyph-name="Theta" unicode="&#x398;" horiz-adv-x="811" d="M517 22 Q481 5 440.5 -5 Q400 -15 358 -15 Q288 -15 228 12 Q168 39 123.5 86 Q79 133 53.5 196.5 Q28 260 28 333 Q28 392 44.5 445 Q61 498 90.5 543 Q120 588 161 624 Q202 660 250 685 L292 705 Q368 743 450 743 Q522 743 582.5 716 Q643 689 687.5 641.5 Q732 594 757 530.5 Q782 467 782 394 Q782 335 765.5 281.5 Q749 228 719.5 182.5 Q690 137 649.5 101.5 Q609 66 561 42 L517 22 Z M517 73 Q555 94 586.5 125.5 Q618 157 640.5 196 Q663 235 675.5 280 Q688 325 688 373 Q688 430 669 485.5 Q650 541 613.5 584 Q577 627 525 653.5 Q473 680 407 680 Q378 680 348.5 674 Q319 668 293 654 Q255 633 223.5 601.5 Q192 570 169.5 531 Q147 492 134.5 447 Q122 402 122 354 Q122 297 141.5 241.5 Q161 186 197 143 Q233 100 285 73.5 Q337 47 403 47 Q432 47 461.5 53 Q491 59 517 73 Z M233 412 L609 412 L577 343 L200 343 L233 412 Z " />
<glyph glyph-name="Iota" unicode="&#x399;" horiz-adv-x="239" d="M121 689 L103 728 L215 728 L113 0 L24 0 L121 689 Z " />
<glyph glyph-name="Kappa" unicode="&#x39a;" horiz-adv-x="596" d="M116 689 L98 728 L210 728 L160 367 L173 380 L495 689 L493 728 L626 728 L288 404 Q365 315 443.5 213.5 Q522 112 578 0 L468 0 Q418 95 348 184.5 Q278 274 210 351 L150 300 L108 0 L19 0 L116 689 Z " />
<glyph glyph-name="Lambda" unicode="&#x39b;" horiz-adv-x="678" d="M335 689 L322 728 L420 728 L640 0 L543 0 L362 607 L55 39 L63 0 L-42 0 L335 689 Z " />
<glyph glyph-name="Mu" unicode="&#x39c;" horiz-adv-x="832" d="M119 683 L93 728 L202 728 L416 349 L735 728 L809 728 L718 0 L629 0 L703 588 L410 242 L368 242 L174 586 L83 0 L12 0 L119 683 Z " />
<glyph glyph-name="Nu" unicode="&#x39d;" horiz-adv-x="704" d="M119 683 L93 728 L204 728 L538 145 L602 677 Q602 682 600.5 689.5 Q599 697 596.5 704.5 Q594 712 591 718.5 Q588 725 586 728 L680 728 L589 0 L512 0 L177 585 L83 0 L12 0 L119 683 Z " />
<glyph glyph-name="Xi" unicode="&#x39e;" horiz-adv-x="529" d="M82 661 L117 728 L550 728 L516 661 L82 661 Z M14 67 L467 67 L432 0 L-21 0 L14 67 Z M47 344 L82 410 L496 410 L461 344 L47 344 Z " />
<glyph glyph-name="Omicron" unicode="&#x39f;" horiz-adv-x="811" d="M517 22 Q481 5 440.5 -5 Q400 -15 358 -15 Q288 -15 228 12 Q168 39 123.5 86 Q79 133 53.5 196.5 Q28 260 28 333 Q28 392 44.5 445 Q61 498 90.5 543 Q120 588 161 624 Q202 660 250 685 L292 705 Q368 743 450 743 Q522 743 582.5 716 Q643 689 687.5 641.5 Q732 594 757 530.5 Q782 467 782 394 Q782 335 765.5 281.5 Q749 228 719.5 182.5 Q690 137 649.5 101.5 Q609 66 561 42 L517 22 Z M517 73 Q555 94 586.5 125.5 Q618 157 640.5 196 Q663 235 675.5 280 Q688 325 688 373 Q688 430 669 485.5 Q650 541 613.5 584 Q577 627 525 653.5 Q473 680 407 680 Q378 680 348.5 674 Q319 668 293 654 Q255 633 223.5 601.5 Q192 570 169.5 531 Q147 492 134.5 447 Q122 402 122 354 Q122 297 141.5 241.5 Q161 186 197 143 Q233 100 285 73.5 Q337 47 403 47 Q432 47 461.5 53 Q491 59 517 73 Z " />
<glyph glyph-name="Pi" unicode="&#x3a0;" horiz-adv-x="669" d="M116 689 L98 728 L650 728 L548 0 L458 0 L551 661 L201 661 L108 0 L19 0 L116 689 Z " />
<glyph glyph-name="Rho" unicode="&#x3a1;" horiz-adv-x="547" d="M116 689 L98 728 L328 728 Q369 728 405 711.5 Q441 695 468 666.5 Q495 638 511 600 Q527 562 527 519 Q527 456 494.5 405 Q462 354 410 325 L369 302 Q343 288 314.5 280 Q286 272 254 272 L147 272 L108 0 L67 0 L19 0 L116 689 Z M297 337 Q314 337 330.5 340.5 Q347 344 361 354 Q397 379 416.5 417 Q436 455 436 497 Q436 528 424.5 557.5 Q413 587 392.5 610 Q372 633 344 647.5 Q316 662 283 662 L201 662 L156 337 L297 337 Z " />
<glyph glyph-name="Sigma" unicode="&#x3a3;" horiz-adv-x="543" d="M78 728 L564 728 L531 661 L197 661 L336 385 L91 67 L480 67 L447 0 L-24 0 L-19 34 L238 368 L73 694 L78 728 Z " />
<glyph glyph-name="Tau" unicode="&#x3a4;" horiz-adv-x="552" d="M273 661 L53 661 L88 728 L593 728 L558 661 L363 661 L270 0 L180 0 L273 661 Z " />
<glyph glyph-name="Upsilon" unicode="&#x3a5;" horiz-adv-x="601" d="M251 291 L48 728 L155 728 L317 373 L537 689 L531 728 L646 728 L340 298 L299 0 L210 0 L251 291 Z " />
<glyph glyph-name="Phi" unicode="&#x3a6;" horiz-adv-x="834" d="M336 96 L305 96 Q251 96 200 111.5 Q149 127 110 158 Q71 189 47.5 235 Q24 281 24 341 Q24 407 52 458 Q80 509 128 548 Q156 571 182.5 587 Q209 603 241 614 Q273 625 319 630 Q365 635 412 636 L419 690 L402 728 L512 728 L500 637 L529 637 Q583 637 634 621.5 Q685 606 724 575 Q763 544 786.5 498 Q810 452 810 391 Q810 326 782.5 274.5 Q755 223 707 184 Q678 161 651.5 145.5 Q625 130 594 119 Q562 107 516.5 102 Q471 97 424 96 L410 0 L322 0 L336 96 Z M534 161 Q551 161 568.5 164.5 Q586 168 601 175 Q626 185 647.5 205 Q669 225 685 251 Q701 277 709.5 307.5 Q718 338 718 369 Q718 399 709 428 Q700 457 683 482 Q666 507 642 526 Q618 545 587 556 Q561 565 540.5 568 Q520 571 491 572 L433 161 L534 161 Z M403 571 L299 571 Q283 570 266 567 Q249 564 234 557 Q208 546 187 526.5 Q166 507 150 481 Q134 455 125.5 425 Q117 395 117 364 Q117 334 126 305 Q135 276 151.5 251 Q168 226 192.5 206.5 Q217 187 248 177 Q273 168 294 165 Q315 162 345 161 L403 571 Z " />
<glyph glyph-name="Chi" unicode="&#x3a7;" horiz-adv-x="605" d="M253 376 L63 728 L170 728 L324 440 L516 689 L512 728 L633 728 L359 379 L564 0 L456 0 L288 314 L43 0 L-42 0 L253 376 Z " />
<glyph glyph-name="Psi" unicode="&#x3a8;" horiz-adv-x="830" d="M350 183 L319 183 Q267 183 218.5 198.5 Q170 214 134.5 246 Q99 278 81.5 326.5 Q64 375 73 442 L107 689 L90 728 L202 728 L164 464 Q159 428 164 396 Q169 364 182 337.5 Q195 311 215.5 292 Q236 273 262 264 Q284 256 308.5 252.5 Q333 249 359 248 L421 689 L404 728 L515 728 L448 248 L524 248 Q540 249 555.5 251.5 Q571 254 585 261 Q606 271 625 289 Q644 307 659 331 Q674 355 684.5 382.5 Q695 410 700 439 L735 689 L718 728 L829 728 L792 465 Q784 404 762.5 355.5 Q741 307 699 272 Q672 249 646 233 Q620 217 591 206 Q560 194 527 189 Q494 184 452 183 L439 183 L413 0 L324 0 L350 183 Z " />
<glyph glyph-name="Omega" unicode="&#x3a9;" horiz-adv-x="801" d="M421 0 L426 35 Q478 74 523 118.5 Q568 163 601.5 212 Q635 261 654 315 Q673 369 673 427 Q673 481 654 527.5 Q635 574 602 608 Q569 642 524 661 Q479 680 426 680 Q392 680 360.5 676 Q329 672 302 656 Q230 613 189 536.5 Q148 460 148 363 Q148 271 187.5 187 Q227 103 293 35 L288 0 L18 0 L3 69 L186 69 Q159 95 135 129 Q111 163 94 202 Q77 241 67 283.5 Q57 326 57 369 Q57 421 71 468 Q85 515 111 556 Q137 597 173 630.5 Q209 664 254 688 L295 708 Q335 730 378.5 737 Q422 744 470 744 Q533 744 587.5 721 Q642 698 681.5 658.5 Q721 619 743.5 565 Q766 511 766 448 Q766 337 705 240 Q644 143 541 69 L726 69 L691 0 L421 0 Z " />
<glyph glyph-name="Iotadieresis" unicode="&#x3aa;" horiz-adv-x="239" d="M121 689 L103 728 L215 728 L113 0 L24 0 L121 689 Z M319 846 Q319 825 304 811 Q289 797 269 797 Q252 797 240.5 808 Q229 819 229 836 Q229 855 245.5 870.5 Q262 886 281 886 Q298 886 308.5 874 Q319 862 319 846 Z M143 846 Q143 826 127.5 811.5 Q112 797 92 797 Q75 797 64 808 Q53 819 53 836 Q53 855 69 870.5 Q85 886 104 886 Q121 886 132 874 Q143 862 143 846 Z " />
<glyph glyph-name="Upsilondieresis" unicode="&#x3ab;" horiz-adv-x="601" d="M251 291 L48 728 L155 728 L317 373 L537 689 L531 728 L646 728 L340 298 L299 0 L210 0 L251 291 Z M506 846 Q506 825 491 811 Q476 797 456 797 Q439 797 427.5 808 Q416 819 416 836 Q416 855 432.5 870.5 Q449 886 468 886 Q485 886 495.5 874 Q506 862 506 846 Z M330 846 Q330 826 314.5 811.5 Q299 797 279 797 Q262 797 251 808 Q240 819 240 836 Q240 855 256 870.5 Q272 886 291 886 Q308 886 319 874 Q330 862 330 846 Z " />
<glyph glyph-name="alphatonos" unicode="&#x3ac;" horiz-adv-x="549" d="M373 34 Q368 30 359.5 26 Q351 22 344 17 L330 11 Q286 -12 235 -12 Q189 -12 150.5 6.5 Q112 25 84.5 56.5 Q57 88 41.5 129.5 Q26 171 26 218 Q26 301 67.5 362 Q109 423 172 454 L213 475 Q261 498 314 498 Q349 498 383 486.5 Q417 475 445 449 Q447 447 448 446 Q449 445 451 443 L462 486 L521 498 L452 0 L369 0 L373 34 Z M418 366 Q397 395 362 417 Q327 439 279 439 Q263 439 247 436 Q231 433 217 425 Q170 397 142.5 346.5 Q115 296 115 239 Q115 204 126.5 170 Q138 136 159.5 109 Q181 82 213 65 Q245 48 286 48 Q336 48 378 81 L418 366 Z M284 546 L301 728 L365 728 L330 546 L284 546 Z " />
<glyph glyph-name="epsilontonos" unicode="&#x3ad;" horiz-adv-x="398" d="M164 478 Q204 499 245 499 Q281 499 312.5 486.5 Q344 474 373 446 L346 391 Q320 416 286 430 Q252 444 215 444 Q183 444 161 423 Q139 402 139 365 Q139 331 159.5 305.5 Q180 280 220 280 L262 280 L237 222 L189 222 Q172 222 157 215.5 Q142 209 130.5 198.5 Q119 188 112 173 Q105 158 105 142 Q105 101 133 76 Q161 51 203 51 Q235 51 266 59.5 Q297 68 324 84 L334 37 Q293 14 253.5 1.5 Q214 -11 169 -11 Q140 -11 112 -3 Q84 5 62.5 21 Q41 37 28 61 Q15 85 15 117 Q15 165 45 196.5 Q75 228 119 247 Q87 263 74 290 Q61 317 61 352 Q61 393 83 422 Q105 451 137 466 L164 478 Z M204 546 L221 728 L285 728 L250 546 L204 546 Z " />
<glyph glyph-name="etatonos" unicode="&#x3ae;" horiz-adv-x="527" d="M90 435 L75 475 L183 499 L172 422 Q185 433 200 443 Q215 453 228 461 L243 470 Q298 499 349 499 Q380 499 406.5 488.5 Q433 478 451 458 Q469 438 477.5 408.5 Q486 379 481 342 L405 -197 L320 -197 L392 316 Q400 376 370 407 Q340 438 290 438 Q274 438 256 434 Q238 430 220 420 Q207 412 194 400.5 Q181 389 167 375 L114 0 L29 0 L90 435 Z M270 546 L287 728 L351 728 L316 546 L270 546 Z " />
<glyph glyph-name="iotatonos" unicode="&#x3af;" horiz-adv-x="263" d="M90 432 L74 469 L184 499 L114 0 L29 0 L90 432 Z M105 546 L122 728 L186 728 L151 546 L105 546 Z " />
<glyph glyph-name="upsilondieresistonos" unicode="&#x3b0;" horiz-adv-x="525" d="M456 611 Q456 591 441.5 577 Q427 563 408 563 Q392 563 382 574 Q372 585 372 601 Q372 620 387 634.5 Q402 649 420 649 Q436 649 446 637.5 Q456 626 456 611 Z M263 611 Q263 591 248.5 577 Q234 563 215 563 Q199 563 189 574 Q179 585 179 601 Q179 620 194 634.5 Q209 649 227 649 Q243 649 253 637.5 Q263 626 263 611 Z M289 546 L306 728 L364 728 L329 546 L289 546 Z M437 70 Q424 62 402 51 Q380 40 337 19 Q307 3 272.5 -4 Q238 -11 200 -11 Q162 -11 131.5 1.5 Q101 14 80.5 35 Q60 56 50.5 85 Q41 114 46 147 L87 441 L71 478 L180 499 L134 171 Q131 146 138 124 Q145 102 161 86 Q177 70 200 60.5 Q223 51 251 51 Q279 51 303 59.5 Q327 68 353 82 L404 438 L388 476 L497 499 L437 70 Z " />
<glyph glyph-name="alpha" unicode="&#x3b1;" horiz-adv-x="549" d="M373 34 Q368 30 359.5 26 Q351 22 344 17 L330 11 Q286 -12 235 -12 Q189 -12 150.5 6.5 Q112 25 84.5 56.5 Q57 88 41.5 129.5 Q26 171 26 218 Q26 301 67.5 362 Q109 423 172 454 L213 475 Q261 498 314 498 Q349 498 383 486.5 Q417 475 445 449 Q447 447 448 446 Q449 445 451 443 L462 486 L521 498 L452 0 L369 0 L373 34 Z M418 366 Q397 395 362 417 Q327 439 279 439 Q263 439 247 436 Q231 433 217 425 Q170 397 142.5 346.5 Q115 296 115 239 Q115 204 126.5 170 Q138 136 159.5 109 Q181 82 213 65 Q245 48 286 48 Q336 48 378 81 L418 366 Z " />
<glyph glyph-name="beta" unicode="&#x3b2;" horiz-adv-x="524" d="M99 499 Q104 532 110 561.5 Q116 591 127 616.5 Q138 642 156 662.5 Q174 683 202 699 L241 720 Q264 733 289.5 740 Q315 747 341 747 Q377 747 408 733.5 Q439 720 462 696.5 Q485 673 498.5 642 Q512 611 512 576 Q512 508 476 463 Q440 418 383 392 Q439 368 469.5 324 Q500 280 500 223 Q500 160 471.5 112 Q443 64 389 34 L349 12 Q299 -14 240 -16 Q203 -16 170 2 Q137 20 119 46 L85 -197 L2 -197 L99 499 Z M275 408 L305 408 Q329 408 351.5 420 Q374 432 391.5 452.5 Q409 473 419.5 500 Q430 527 430 557 Q430 586 419.5 610 Q409 634 391.5 650.5 Q374 667 350.5 676 Q327 685 301 685 Q274 685 254.5 671 Q235 657 221.5 635 Q208 613 199.5 587.5 Q191 562 188 538 L141 207 Q136 174 145 144.5 Q154 115 173 93 Q192 71 219.5 58 Q247 45 279 45 Q307 45 331.5 59.5 Q356 74 373.5 97 Q391 120 401 149 Q411 178 411 207 Q411 273 370.5 310 Q330 347 267 347 L275 408 Z " />
<glyph glyph-name="gamma" unicode="&#x3b3;" horiz-adv-x="468" d="M158 30 L29 487 L121 487 L222 121 L394 452 L386 487 L484 487 L243 28 L210 -197 L125 -197 L158 30 Z " />
<glyph glyph-name="delta" unicode="&#x3b4;" horiz-adv-x="565" d="M537 270 Q537 228 526 191 Q515 154 495.5 124 Q476 94 449 70.5 Q422 47 391 32 L351 14 Q325 2 298.5 -5 Q272 -12 243 -12 Q197 -12 157 5.5 Q117 23 87.5 54 Q58 85 41 127 Q24 169 24 217 Q24 255 35 290 Q46 325 65 354 Q84 383 110.5 406.5 Q137 430 168 445 L206 463 Q249 483 293 483 Q337 483 375 461 Q324 524 265.5 582 Q207 640 142 696 L147 728 L562 728 L529 666 L273 666 Q321 622 368 576.5 Q415 531 452.5 482 Q490 433 513.5 380.5 Q537 328 537 270 Z M347 59 Q392 88 420.5 136 Q449 184 449 244 Q449 281 436.5 315.5 Q424 350 401.5 376.5 Q379 403 346.5 419 Q314 435 275 435 Q259 435 245 432.5 Q231 430 217 422 Q194 409 175 389 Q156 369 142.5 345 Q129 321 122 293.5 Q115 266 115 238 Q115 205 125.5 171 Q136 137 157 109.5 Q178 82 209.5 65 Q241 48 283 48 Q300 48 316 50.5 Q332 53 347 59 Z " />
<glyph glyph-name="epsilon" unicode="&#x3b5;" horiz-adv-x="389" d="M164 478 Q204 499 245 499 Q281 499 312.5 486.5 Q344 474 373 446 L346 391 Q320 416 286 430 Q252 444 215 444 Q183 444 161 423 Q139 402 139 365 Q139 331 159.5 305.5 Q180 280 220 280 L262 280 L237 222 L189 222 Q172 222 157 215.5 Q142 209 130.5 198.5 Q119 188 112 173 Q105 158 105 142 Q105 101 133 76 Q161 51 203 51 Q235 51 266 59.5 Q297 68 324 84 L334 37 Q293 14 253.5 1.5 Q214 -11 169 -11 Q140 -11 112 -3 Q84 5 62.5 21 Q41 37 28 61 Q15 85 15 117 Q15 165 45 196.5 Q75 228 119 247 Q87 263 74 290 Q61 317 61 352 Q61 393 83 422 Q105 451 137 466 L164 478 Z " />
<glyph glyph-name="zeta" unicode="&#x3b6;" horiz-adv-x="457" d="M118 728 L508 728 L503 690 Q461 654 415.5 615.5 Q370 577 326 536 Q282 495 242.5 452.5 Q203 410 173.5 368 Q144 326 126.5 284 Q109 242 109 203 Q109 171 119.5 143.5 Q130 116 150 96 Q170 76 198 65 Q226 54 261 54 Q305 54 342.5 57 Q380 60 425 66 L401 -107 L321 -107 L336 -1 Q302 -6 274 -8.5 Q246 -11 217 -11 Q172 -11 135.5 3 Q99 17 72.5 41.5 Q46 66 31.5 100.5 Q17 135 17 176 Q17 246 54 314 Q91 382 147.5 444.5 Q204 507 269.5 563 Q335 619 392 666 L86 666 L118 728 Z " />
<glyph glyph-name="eta" unicode="&#x3b7;" horiz-adv-x="527" d="M90 435 L75 475 L183 499 L172 422 Q185 433 200 443 Q215 453 228 461 L243 470 Q298 499 349 499 Q380 499 406.5 488.5 Q433 478 451 458 Q469 438 477.5 408.5 Q486 379 481 342 L405 -197 L320 -197 L392 316 Q400 376 370 407 Q340 438 290 438 Q274 438 256 434 Q238 430 220 420 Q207 412 194 400.5 Q181 389 167 375 L114 0 L29 0 L90 435 Z " />
<glyph glyph-name="theta" unicode="&#x3b8;" horiz-adv-x="537" d="M308 5 Q291 -5 270.5 -10.5 Q250 -16 228 -16 Q172 -16 136.5 11 Q101 38 80 81 Q59 124 51 177 Q43 230 43 282 Q43 336 51.5 393 Q60 450 77.5 503 Q95 556 121.5 601 Q148 646 185 676 Q207 694 234 708 L262 722 Q280 732 300 737.5 Q320 743 343 743 Q400 743 435.5 716 Q471 689 491 646 Q511 603 518.5 550 Q526 497 527 445 Q527 384 516.5 320 Q506 256 484 198.5 Q462 141 428 95 Q394 49 348 24 L308 5 Z M317 67 Q343 85 363.5 115.5 Q384 146 399 184 Q414 222 423 264.5 Q432 307 437 349 L131 349 Q130 333 129.5 318.5 Q129 304 129 289 Q129 256 133.5 214 Q138 172 152 134.5 Q166 97 192.5 71 Q219 45 263 45 Q278 45 292 51.5 Q306 58 317 67 Z M257 661 Q232 643 212.5 615 Q193 587 178.5 553.5 Q164 520 154.5 483 Q145 446 139 409 L442 409 L442 445 Q441 478 436.5 519 Q432 560 418 596 Q404 632 377.5 657 Q351 682 308 682 Q294 682 281 675.5 Q268 669 257 661 Z " />
<glyph glyph-name="iota" unicode="&#x3b9;" horiz-adv-x="213" d="M90 432 L74 469 L184 499 L114 0 L29 0 L90 432 Z " />
<glyph glyph-name="kappa" unicode="&#x3ba;" horiz-adv-x="468" d="M92 453 L77 487 L182 487 L149 255 L169 272 L358 453 L352 487 L476 487 L256 276 Q310 215 360.5 146 Q411 77 449 0 L348 0 Q316 61 273.5 119.5 Q231 178 186 229 L141 196 L114 0 L29 0 L92 453 Z " />
<glyph glyph-name="lambda" unicode="&#x3bb;" horiz-adv-x="468" d="M146 728 L233 728 L425 0 L334 0 L241 366 L61 36 L66 0 L-31 0 L217 457 L146 728 Z " />
<glyph glyph-name="mu" unicode="&#x3bc;" horiz-adv-x="525" d="M89 432 L73 469 L183 499 L137 170 Q133 141 139 118.5 Q145 96 159 81 Q173 66 193 58 Q213 50 238 50 Q254 50 271 54 Q288 58 307 68 Q336 84 361 112 L406 432 L390 469 L501 499 L431 0 L347 0 L356 65 Q331 43 285 17 Q232 -11 188 -11 Q166 -11 147.5 -4 Q129 3 115 14 L86 -197 L0 -197 L89 432 Z " />
<glyph glyph-name="nu" unicode="&#x3bd;" horiz-adv-x="468" d="M172 487 L264 487 L365 121 L537 452 L529 487 L627 487 L371 0 L310 0 L172 487 Z " />
<glyph glyph-name="xi" unicode="&#x3be;" horiz-adv-x="465" d="M358 345 L261 345 Q218 345 188 330 Q154 309 133 271.5 Q112 234 112 190 Q112 162 121 137.5 Q130 113 148 94.5 Q166 76 192.5 65 Q219 54 255 54 Q339 54 428 66 L404 -107 L324 -107 L339 -1 Q307 -6 275 -8.5 Q243 -11 211 -11 Q166 -11 130.5 2 Q95 15 70.5 38.5 Q46 62 33 93.5 Q20 125 20 163 Q20 224 52 272.5 Q84 321 135 350 Q146 355 159 361 Q172 367 183 372 Q141 388 116 425 Q91 462 91 508 Q91 556 117.5 597 Q144 638 190 666 L100 666 L132 728 L512 728 L480 666 L292 666 Q268 665 247.5 651.5 Q227 638 212 618 Q197 598 189 573.5 Q181 549 181 527 Q181 498 190.5 476 Q200 454 216 439 Q232 424 253 416 Q274 408 297 407 L389 407 L358 345 Z " />
<glyph glyph-name="omicron" unicode="&#x3bf;" horiz-adv-x="565" d="M367 20 Q338 6 307 -3 Q276 -12 243 -12 Q198 -12 158 5 Q118 22 88.5 52 Q59 82 41.5 123.5 Q24 165 24 214 Q24 283 58.5 345.5 Q93 408 157 445 L196 467 Q254 499 320 499 Q365 499 405 482 Q445 465 474.5 434.5 Q504 404 521 362 Q538 320 538 271 Q538 202 504.5 141 Q471 80 408 42 L367 20 Z M360 67 Q401 99 426 146.5 Q451 194 451 248 Q451 288 438 322.5 Q425 357 401.5 382.5 Q378 408 346 423 Q314 438 276 438 Q256 438 238.5 434 Q221 430 204 419 Q161 391 137.5 341 Q114 291 114 238 Q114 199 127 164.5 Q140 130 162.5 104.5 Q185 79 216.5 64.5 Q248 50 286 50 Q324 50 360 67 Z " />
<glyph glyph-name="pi" unicode="&#x3c0;" horiz-adv-x="514" d="M93 453 L77 487 L484 487 L416 0 L330 0 L390 425 L173 425 L114 0 L28 0 L93 453 Z " />
<glyph glyph-name="rho" unicode="&#x3c1;" horiz-adv-x="549" d="M90 432 L196 475 Q226 488 256 493.5 Q286 499 313 499 Q360 499 398.5 480.5 Q437 462 465 430.5 Q493 399 508 357 Q523 315 523 268 Q523 193 484.5 129 Q446 65 376 31 L336 13 Q311 1 286.5 -5.5 Q262 -12 236 -12 Q173 -12 119 34 L86 -197 L1 -197 L90 432 Z M131 119 Q155 87 190.5 67.5 Q226 48 268 48 Q279 48 289 50 Q299 52 309 54 Q336 62 359.5 81.5 Q383 101 399.5 127 Q416 153 425.5 184 Q435 215 435 247 Q435 284 423 319 Q411 354 389.5 380.5 Q368 407 338.5 423 Q309 439 274 439 Q246 439 220 429.5 Q194 420 171 404 L131 119 Z " />
<glyph glyph-name="sigma1" unicode="&#x3c2;" horiz-adv-x="463" d="M424 395 Q395 414 361 426 Q327 438 284 438 Q266 438 249 435 Q232 432 217 424 Q171 399 142.5 349.5 Q114 300 114 243 Q114 206 126.5 171.5 Q139 137 163 110 Q187 83 221.5 67 Q256 51 300 51 Q330 51 358 56 Q386 61 415 68 L390 -107 L310 -107 L326 0 Q308 -5 289.5 -8 Q271 -11 252 -11 Q204 -11 162.5 6.5 Q121 24 90 55 Q59 86 41.5 128.5 Q24 171 24 221 Q24 260 35 295 Q46 330 65.5 360 Q85 390 112.5 414 Q140 438 172 454 L214 473 Q240 485 267 492 Q294 499 323 499 Q396 499 459 460 L424 395 Z " />
<glyph glyph-name="sigma" unicode="&#x3c3;" horiz-adv-x="575" d="M367 20 Q338 6 307 -3 Q276 -12 243 -12 Q198 -12 158 5 Q118 22 88.5 52 Q59 82 41.5 123.5 Q24 165 24 214 Q24 283 58.5 345.5 Q93 408 157 445 L196 467 Q254 499 320 499 Q338 499 355.5 495.5 Q373 492 390 487 L580 487 L572 429 L471 429 Q503 401 520.5 360.5 Q538 320 538 271 Q538 202 504.5 141 Q471 80 408 42 L367 20 Z M360 67 Q401 99 426 146.5 Q451 194 451 248 Q451 288 438 322.5 Q425 357 401.5 382.5 Q378 408 346 423 Q314 438 276 438 Q256 438 238.5 434 Q221 430 204 419 Q161 391 137.5 341 Q114 291 114 238 Q114 199 127 164.5 Q140 130 162.5 104.5 Q185 79 216.5 64.5 Q248 50 286 50 Q324 50 360 67 Z " />
<glyph glyph-name="tau" unicode="&#x3c4;" horiz-adv-x="406" d="M185 425 L33 425 L66 487 L432 487 L400 425 L270 425 L211 0 L126 0 L185 425 Z " />
<glyph glyph-name="upsilon" unicode="&#x3c5;" horiz-adv-x="525" d="M437 70 Q424 62 402 51 Q380 40 337 19 Q307 3 272.5 -4 Q238 -11 200 -11 Q162 -11 131.5 1.5 Q101 14 80.5 35 Q60 56 50.5 85 Q41 114 46 147 L87 441 L71 478 L180 499 L134 171 Q131 146 138 124 Q145 102 161 86 Q177 70 200 60.5 Q223 51 251 51 Q279 51 303 59.5 Q327 68 353 82 L404 438 L388 476 L497 499 L437 70 Z " />
<glyph glyph-name="phi" unicode="&#x3c6;" horiz-adv-x="702" d="M110 228 Q110 148 154 99 Q198 50 280 50 L337 465 L428 491 Q444 496 459.5 497.5 Q475 499 492 499 Q534 499 568 480.5 Q602 462 626 431.5 Q650 401 663.5 360.5 Q677 320 677 277 Q677 196 640 131.5 Q603 67 534 34 L492 14 Q459 0 425.5 -4.5 Q392 -9 356 -10 L330 -197 L246 -197 L272 -10 Q221 -10 175.5 4 Q130 18 96.5 45.5 Q63 73 43.5 114 Q24 155 24 208 Q24 259 39.5 304.5 Q55 350 83 387.5 Q111 425 150.5 454.5 Q190 484 237 505 L253 460 Q223 443 197 418 Q171 393 151.5 362.5 Q132 332 121 298 Q110 264 110 228 Z M462 439 Q450 439 439 438 Q428 437 418 435 L364 50 Q393 50 428 52 Q463 54 486 66 Q537 95 564 147.5 Q591 200 591 261 Q591 291 583.5 322.5 Q576 354 560.5 379.5 Q545 405 520.5 421.5 Q496 438 462 439 Z " />
<glyph glyph-name="chi" unicode="&#x3c7;" horiz-adv-x="453" d="M169 158 L46 487 L139 487 L233 229 L374 452 L370 487 L476 487 L263 159 L397 -197 L302 -197 L199 86 L15 -197 L-61 -197 L169 158 Z " />
<glyph glyph-name="psi" unicode="&#x3c8;" horiz-adv-x="691" d="M267 -11 L259 -11 Q216 -11 175 1.5 Q134 14 103.5 40 Q73 66 57.5 106 Q42 146 50 201 L83 441 L67 477 L175 499 L135 217 Q127 161 151 117.5 Q175 74 221 60 Q238 53 251.5 51.5 Q265 50 276 49 L364 681 L349 718 L456 740 L359 49 L396 49 Q408 50 421.5 52.5 Q435 55 448 60 Q466 67 481.5 81.5 Q497 96 510 114 Q523 132 531.5 153.5 Q540 175 544 197 L578 441 L562 477 L670 499 L631 220 Q623 170 605.5 130 Q588 90 550 61 Q526 42 503.5 29.5 Q481 17 456 7 Q430 -3 409.5 -7 Q389 -11 362 -11 L350 -11 L325 -197 L241 -197 L267 -11 Z " />
<glyph glyph-name="omega" unicode="&#x3c9;" horiz-adv-x="704" d="M510 498 Q550 486 581 463 Q612 440 633 409.5 Q654 379 665 343 Q676 307 676 268 Q676 194 652.5 137 Q629 80 577 42 L541 19 Q520 3 494.5 -4.5 Q469 -12 446 -12 Q412 -12 383 8 Q354 28 327 56 Q312 44 296 32 Q280 20 263 10.5 Q246 1 227.5 -5.5 Q209 -12 188 -12 Q154 -12 124 2.5 Q94 17 71 44 Q48 71 34.5 109 Q21 147 21 193 Q21 252 38.5 302.5 Q56 353 87.5 392 Q119 431 162 458 Q205 485 255 497 L269 447 Q232 437 202.5 415 Q173 393 152 362.5 Q131 332 120 295 Q109 258 109 218 Q109 180 118 149 Q127 118 142.5 96 Q158 74 179 62 Q200 50 224 50 Q241 50 259 60 Q277 70 293 87 L326 325 L408 325 L377 98 Q394 75 416 62.5 Q438 50 464 50 Q479 50 494 54.5 Q509 59 521 69 Q556 99 573.5 148.5 Q591 198 591 249 Q591 321 563 372 Q535 423 484 443 L510 498 Z " />
<glyph glyph-name="iotadieresis" unicode="&#x3ca;" horiz-adv-x="213" d="M288 612 Q288 592 273 577.5 Q258 563 238 563 Q221 563 209.5 574 Q198 585 198 602 Q198 622 214 637 Q230 652 250 652 Q267 652 277.5 640 Q288 628 288 612 Z M112 612 Q112 592 96.5 577.5 Q81 563 61 563 Q44 563 33 574 Q22 585 22 602 Q22 622 38 637 Q54 652 73 652 Q90 652 101 640 Q112 628 112 612 Z M90 432 L74 469 L184 499 L114 0 L29 0 L90 432 Z " />
</font>
</svg>
