<?xml version="1.0" encoding="UTF-8"?>
<svg xmlns="http://www.w3.org/2000/svg" xmlns:xlink="http://www.w3.org/1999/xlink" version="1.2" >
<font id="Brewery No 2 Light">
<font-face  font-family="Brewery No 2" units-per-em="1000" ascent="768" descent="-232" font-style="normal" font-weight="300" font-stretch="normal" cap-height="728" x-height="480" underline-position="-141" underline-thickness="31" />
<missing-glyph  horiz-adv-x="485" d="M210 174 L263 174 L263 111 L210 111 L210 174 Z M211 238 Q211 263 213.5 281 Q216 299 222.5 313.5 Q229 328 240 341 Q251 354 268 369 Q298 397 306 414.5 Q314 432 314 449 Q314 483 292.5 506 Q271 529 242 529 Q213 529 191.5 508.5 Q170 488 165 439 Q153 441 141 443 Q129 445 117 447 Q124 516 159 546.5 Q194 577 245 577 Q297 577 330 543.5 Q363 510 363 453 Q363 422 351 397.5 Q339 373 303 340 Q284 323 274.5 312 Q265 301 261 289.5 Q257 278 257 262.5 Q257 247 257 222 L211 222 L211 238 Z M438 47 L438 632 L47 632 L47 47 L438 47 Z M0 680 L485 680 L485 0 L0 0 L0 680 Z " />
<glyph glyph-name="space" unicode="&#x20;" horiz-adv-x="273" d="" />
<glyph glyph-name="exclam" unicode="&#x21;" horiz-adv-x="275" d="M113 728 L162 728 L159 185 L116 185 L113 728 Z M169 34 Q169 17 158.5 8 Q148 -1 135 -1 Q123 -1 114 7 Q105 15 105 27 Q105 44 116 53 Q127 62 140 62 Q152 62 160.5 54 Q169 46 169 34 Z " />
<glyph glyph-name="quotedbl" unicode="&#x22;" horiz-adv-x="389" d="M230 728 L277 728 L270 481 L236 481 L230 728 Z M113 728 L161 728 L153 481 L119 481 L113 728 Z " />
<glyph glyph-name="numbersign" unicode="&#x23;" horiz-adv-x="545" d="M117 246 L-8 246 L-8 279 L125 279 L171 448 L45 448 L45 482 L179 482 L245 728 L285 728 L219 482 L387 482 L453 728 L492 728 L427 482 L552 482 L552 448 L418 448 L373 280 L498 280 L498 246 L363 246 L298 0 L259 0 L325 246 L156 246 L89 0 L51 0 L117 246 Z M333 279 L379 448 L209 448 L164 279 L333 279 Z " />
<glyph glyph-name="dollar" unicode="&#x24;" horiz-adv-x="545" d="M364 11 Q329 -8 293 -14 L293 -76 L253 -76 L253 -16 Q202 -14 153.5 2.5 Q105 19 67 52 L85 99 Q119 64 162 45 Q205 26 253 21 L253 358 Q219 368 187 381 Q155 394 129.5 415 Q104 436 88.5 467 Q73 498 73 545 Q73 595 97 638 Q121 681 165 706 L188 719 Q203 728 219.5 733.5 Q236 739 253 742 L253 804 L293 804 L293 744 Q338 742 381.5 725.5 Q425 709 460 680 L442 634 Q412 664 373.5 682 Q335 700 293 705 L293 395 Q328 384 362.5 370.5 Q397 357 424 335.5 Q451 314 468 281 Q485 248 485 197 Q485 143 459.5 96 Q434 49 386 23 L364 11 Z M436 182 Q436 222 424.5 249 Q413 276 393 294 Q373 312 347 324 Q321 336 293 345 L293 20 Q325 23 351.5 37 Q378 51 396.5 73 Q415 95 425.5 123 Q436 151 436 182 Z M121 559 Q121 523 131 498 Q141 473 159 456 Q177 439 201 427.5 Q225 416 253 407 L253 706 Q223 704 198.5 691.5 Q174 679 156.5 659 Q139 639 130 613 Q121 587 121 559 Z " />
<glyph glyph-name="percent" unicode="&#x25;" horiz-adv-x="786" d="M234 340 Q208 325 171 325 Q130 325 102 342.5 Q74 360 56.5 388.5 Q39 417 31.5 453.5 Q24 490 24 528 Q24 558 28.5 587 Q33 616 42.5 641 Q52 666 68 686 Q84 706 107 718 L127 729 Q155 743 190 743 Q231 743 259.5 725.5 Q288 708 305.5 679.5 Q323 651 331 614.5 Q339 578 339 539 Q339 509 334.5 480.5 Q330 452 319.5 427 Q309 402 293 382.5 Q277 363 254 351 L234 340 Z M294 528 Q294 562 288 595 Q282 628 267.5 654 Q253 680 229.5 696 Q206 712 172 712 Q159 712 149 708.5 Q139 705 130 700 Q113 688 101.5 670.5 Q90 653 82.5 632 Q75 611 72 587 Q69 563 69 539 Q69 505 75 472 Q81 439 95.5 413.5 Q110 388 133 372 Q156 356 190 356 Q203 356 213.5 360 Q224 364 234 370 Q267 391 280.5 435.5 Q294 480 294 528 Z M586 764 L621 764 L199 -36 L165 -36 L586 764 Z M658 6 Q632 -9 595 -9 Q554 -9 526 8.5 Q498 26 480.5 54.5 Q463 83 455.5 119.5 Q448 156 448 194 Q448 224 452.5 253 Q457 282 466.5 307 Q476 332 492 352 Q508 372 531 384 L551 395 Q579 409 614 409 Q655 409 683.5 391.5 Q712 374 729.5 345.5 Q747 317 755 280.5 Q763 244 763 205 Q763 175 758.5 146.5 Q754 118 743.5 93 Q733 68 717 48.5 Q701 29 678 17 L658 6 Z M718 194 Q718 228 712 261 Q706 294 691.5 320 Q677 346 653.5 362 Q630 378 596 378 Q583 378 573 374.5 Q563 371 554 366 Q537 354 525.5 336.5 Q514 319 506.5 298 Q499 277 496 253 Q493 229 493 205 Q493 171 499 138 Q505 105 519.5 79.5 Q534 54 557 38 Q580 22 614 22 Q627 22 637.5 26 Q648 30 658 36 Q691 57 704.5 101.5 Q718 146 718 194 Z " />
<glyph glyph-name="ampersand" unicode="&#x26;" horiz-adv-x="688" d="M619 -7 Q594 64 555 123 Q532 101 504 79 Q476 57 448 40 Q398 10 354.5 -3 Q311 -16 264 -16 Q224 -16 187 -3.5 Q150 9 121.5 32 Q93 55 75.5 87 Q58 119 58 159 Q58 203 75.5 238.5 Q93 274 121.5 304 Q150 334 184.5 359 Q219 384 254 407 Q202 448 168 490 Q134 532 134 586 Q134 620 147.5 649 Q161 678 184 699 Q207 720 237.5 732 Q268 744 303 744 Q331 744 358 733.5 Q385 723 405 703.5 Q425 684 437.5 657.5 Q450 631 450 599 Q450 570 438.5 546 Q427 522 408.5 500 Q390 478 365.5 458.5 Q341 439 314 421 Q344 398 377.5 372.5 Q411 347 445 318.5 Q479 290 512 256.5 Q545 223 574 184 Q591 202 608 224.5 Q625 247 640 267 L662 246 Q646 223 628.5 202 Q611 181 591 158 Q611 129 628 95 Q645 61 665 13 L619 -7 Z M294 436 Q312 449 331.5 464.5 Q351 480 367.5 498.5 Q384 517 394.5 538.5 Q405 560 405 586 Q405 613 395.5 636 Q386 659 369.5 675 Q353 691 330.5 700 Q308 709 283 709 Q266 709 253.5 705.5 Q241 702 229 696 Q206 679 193 655.5 Q180 632 180 600 Q180 552 212 513.5 Q244 475 294 436 Z M539 147 Q510 189 476.5 223.5 Q443 258 408.5 287.5 Q374 317 340 342.5 Q306 368 275 392 Q243 370 213 347 Q183 324 159 297.5 Q135 271 120.5 240 Q106 209 106 172 Q106 137 121.5 108.5 Q137 80 162 60 Q187 40 219.5 29 Q252 18 285 18 Q360 18 422.5 53.5 Q485 89 539 147 Z " />
<glyph glyph-name="quotesingle" unicode="&#x27;" horiz-adv-x="273" d="M113 728 L161 728 L153 481 L119 481 L113 728 Z " />
<glyph glyph-name="parenleft" unicode="&#x28;" horiz-adv-x="296" d="M281 722 Q243 675 214 621.5 Q185 568 165 510 Q145 452 135 392 Q125 332 125 272 Q125 212 135 151 Q145 90 164.5 31.5 Q184 -27 213 -81 Q242 -135 281 -181 Q273 -186 264.5 -192 Q256 -198 248 -203 Q207 -157 175.5 -101.5 Q144 -46 123 13.5 Q102 73 91 135.5 Q80 198 80 260 Q80 364 110 463 Q140 562 195 650 Q209 673 226 693.5 Q243 714 262 734 L281 722 Z " />
<glyph glyph-name="parenright" unicode="&#x29;" horiz-adv-x="296" d="M16 -191 Q54 -144 83 -90.5 Q112 -37 132 21 Q152 79 162 139 Q172 199 172 259 Q172 319 162 380 Q152 441 132.5 499.5 Q113 558 84 612 Q55 666 16 712 Q24 717 32.5 723 Q41 729 49 734 Q90 687 121.5 632 Q153 577 174 517.5 Q195 458 206 395 Q217 332 217 271 Q217 167 187 68 Q157 -31 102 -119 Q88 -142 71 -162.5 Q54 -183 35 -203 L16 -191 Z " />
<glyph glyph-name="asterisk" unicode="&#x2a;" horiz-adv-x="502" d="M123 390 L224 530 L56 589 L71 619 L236 564 L236 740 L270 740 L270 564 L437 619 L450 589 L281 530 L384 390 L357 371 L252 510 L150 371 L123 390 Z " />
<glyph glyph-name="plus" unicode="&#x2b;" horiz-adv-x="556" d="M257 229 L28 229 L28 271 L257 271 L257 500 L299 500 L299 271 L528 271 L528 229 L299 229 L299 0 L257 0 L257 229 Z " />
<glyph glyph-name="comma" unicode="&#x2c;" horiz-adv-x="273" d="M71 -136 Q94 -107 108.5 -72 Q123 -37 125 1 Q105 8 105 30 Q105 44 114 53 Q123 62 136 62 Q153 62 161 50 Q169 38 169 20 Q169 -28 147 -70.5 Q125 -113 91 -145 L71 -136 Z " />
<glyph glyph-name="hyphen" unicode="&#x2d;" horiz-adv-x="327" d="M34 267 L295 267 L295 231 L34 231 L34 267 Z " />
<glyph glyph-name="period" unicode="&#x2e;" horiz-adv-x="273" d="M169 34 Q169 17 158.5 8 Q148 -1 135 -1 Q123 -1 114 7 Q105 15 105 27 Q105 44 116 53 Q127 62 140 62 Q152 62 160.5 54 Q169 46 169 34 Z " />
<glyph glyph-name="slash" unicode="&#x2f;" horiz-adv-x="370" d="M340 744 L374 744 L30 -16 L-2 -16 L340 744 Z " />
<glyph glyph-name="zero" unicode="0" horiz-adv-x="545" d="M364 10 Q320 -16 262 -16 Q196 -16 150.5 16 Q105 48 77 100 Q49 152 36.5 219 Q24 286 24 357 Q24 411 31.5 464 Q39 517 55 563.5 Q71 610 97 646.5 Q123 683 160 705 L182 718 Q225 744 284 744 Q350 744 395.5 712 Q441 680 468.5 627.5 Q496 575 508.5 507.5 Q521 440 521 370 Q521 315 513.5 262 Q506 209 490 163 Q474 117 448 80.5 Q422 44 385 22 L364 10 Z M473 357 Q473 422 462.5 485 Q452 548 427 597.5 Q402 647 362 677 Q322 707 262 707 Q240 707 221 701.5 Q202 696 185 686 Q154 665 133 631.5 Q112 598 99 556 Q86 514 80 466.5 Q74 419 74 370 Q74 304 84.5 241.5 Q95 179 119.5 129.5 Q144 80 184 50 Q224 20 283 20 Q306 20 325.5 26 Q345 32 362 41 Q393 62 414 95.5 Q435 129 448 171 Q461 213 467 260.5 Q473 308 473 357 Z " />
<glyph glyph-name="one" unicode="1" horiz-adv-x="545" d="M312 671 L94 538 L74 572 L336 728 L361 728 L361 0 L312 0 L312 671 Z " />
<glyph glyph-name="two" unicode="2" horiz-adv-x="545" d="M57 21 L328 315 Q376 367 405.5 419 Q435 471 435 530 Q435 572 420.5 604.5 Q406 637 381 660 Q356 683 321 695 Q286 707 246 707 Q194 707 152.5 685.5 Q111 664 69 629 L55 653 Q71 666 91.5 680 Q112 694 138 708 Q202 744 269 744 Q313 744 352.5 730.5 Q392 717 421.5 691.5 Q451 666 468.5 629 Q486 592 486 545 Q486 480 454.5 421 Q423 362 371 307 L116 37 L492 40 L477 0 L57 0 L57 21 Z " />
<glyph glyph-name="three" unicode="3" horiz-adv-x="545" d="M367 16 Q341 1 310.5 -7.5 Q280 -16 247 -16 Q197 -16 149.5 1.5 Q102 19 60 61 L78 107 Q123 59 169.5 39 Q216 19 265 19 Q291 20 315 24.5 Q339 29 359 42 Q397 65 416.5 102.5 Q436 140 436 184 Q436 221 422 253.5 Q408 286 384 310 Q360 334 328 347.5 Q296 361 259 361 L202 361 L213 395 L280 395 Q311 395 337 407 Q363 419 381.5 439.5 Q400 460 410.5 487.5 Q421 515 421 545 Q421 582 406.5 612 Q392 642 368 663 Q344 684 313 695.5 Q282 707 248 707 Q200 707 161.5 687.5 Q123 668 85 636 L71 660 Q84 671 100.5 682.5 Q117 694 144 710 Q176 728 208 736 Q240 744 271 744 Q312 744 348 731 Q384 718 411 693.5 Q438 669 453.5 635 Q469 601 469 559 Q469 495 434 452 Q399 409 345 383 Q375 374 401 356.5 Q427 339 445.5 314.5 Q464 290 474.5 259.5 Q485 229 485 195 Q485 138 458.5 95.5 Q432 53 389 28 L367 16 Z " />
<glyph glyph-name="four" unicode="4" horiz-adv-x="545" d="M399 171 L14 171 L14 194 L397 728 L447 728 L71 209 L71 208 L399 208 L399 427 L447 427 L447 208 L529 208 L529 172 L447 172 L447 0 L399 0 L399 171 Z " />
<glyph glyph-name="five" unicode="5" horiz-adv-x="545" d="M375 16 Q320 -16 254 -16 Q194 -16 140.5 2 Q87 20 44 52 L63 99 Q109 54 161.5 37 Q214 20 274 20 Q300 20 324.5 25.5 Q349 31 369 43 Q411 69 435.5 114.5 Q460 160 460 214 Q460 257 444 295 Q428 333 400.5 361 Q373 389 335.5 405.5 Q298 422 256 422 Q211 422 166 408.5 Q121 395 83 369 L61 377 L115 728 L496 728 L482 688 L148 688 L105 406 Q151 432 193 444.5 Q235 457 279 457 Q328 457 370 439 Q412 421 443 389.5 Q474 358 492 316.5 Q510 275 510 227 Q510 161 478.5 109.5 Q447 58 396 29 L375 16 Z " />
<glyph glyph-name="six" unicode="6" horiz-adv-x="545" d="M381 16 Q355 1 325 -7.5 Q295 -16 263 -16 Q214 -16 171.5 2 Q129 20 97.5 51.5 Q66 83 48 124.5 Q30 166 30 214 Q30 253 43 295 Q56 337 76 375 Q118 456 183.5 546.5 Q249 637 334 728 L386 728 Q317 653 256 572 Q195 491 144 405 Q175 428 209.5 442.5 Q244 457 285 457 Q334 457 376.5 439 Q419 421 450 389.5 Q481 358 499 316.5 Q517 275 517 227 Q517 163 486 110 Q455 57 403 28 L381 16 Z M80 227 Q80 184 96 146.5 Q112 109 139.5 81 Q167 53 204 37 Q241 21 284 21 Q309 21 332 26 Q355 31 375 43 Q418 69 443 114.5 Q468 160 468 214 Q468 257 452.5 295 Q437 333 409.5 361 Q382 389 344.5 405 Q307 421 263 421 Q238 421 214.5 415 Q191 409 171 398 Q129 371 104.5 326 Q80 281 80 227 Z " />
<glyph glyph-name="seven" unicode="7" horiz-adv-x="545" d="M452 691 L42 688 L55 728 L499 728 L499 706 L190 0 L141 0 L452 691 Z " />
<glyph glyph-name="eight" unicode="8" horiz-adv-x="545" d="M366 11 Q321 -16 261 -16 Q219 -16 182 -0.5 Q145 15 117.5 41.5 Q90 68 74 104.5 Q58 141 58 183 Q58 238 84.5 282.5 Q111 327 155 352 Q167 359 179 365 Q191 371 198 374 Q171 383 148 399.5 Q125 416 108.5 438.5 Q92 461 82.5 488.5 Q73 516 73 546 Q73 597 98 639.5 Q123 682 165 705 L187 718 Q209 730 233 737 Q257 744 283 744 Q322 744 356.5 729.5 Q391 715 416.5 690 Q442 665 457 631.5 Q472 598 472 559 Q472 508 448 467.5 Q424 427 382 402 Q374 397 365 392.5 Q356 388 347 383 Q377 374 403 356.5 Q429 339 447.5 314 Q466 289 476.5 259 Q487 229 487 195 Q487 139 460 94.5 Q433 50 388 24 L366 11 Z M424 548 Q424 587 410 617 Q396 647 373 667.5 Q350 688 320.5 698.5 Q291 709 261 709 Q228 709 202 694.5 Q176 680 158 657.5 Q140 635 131 608 Q122 581 122 556 Q122 513 137.5 482.5 Q153 452 177 433 Q201 414 229 405 Q257 396 283 396 Q312 396 338 408 Q364 420 383 440.5 Q402 461 413 488.5 Q424 516 424 548 Z M437 183 Q437 220 423.5 252 Q410 284 386.5 308 Q363 332 330.5 345.5 Q298 359 261 359 Q219 359 184 340 Q149 317 128.5 279.5 Q108 242 108 197 Q108 162 121 130 Q134 98 157 73.5 Q180 49 212.5 34.5 Q245 20 283 20 Q305 20 324.5 25.5 Q344 31 361 41 Q396 64 416.5 101 Q437 138 437 183 Z " />
<glyph glyph-name="nine" unicode="9" horiz-adv-x="545" d="M161 0 Q230 75 291 156 Q352 237 403 323 Q372 300 337.5 285.5 Q303 271 262 271 Q213 271 170.5 289 Q128 307 97 338.5 Q66 370 48 411.5 Q30 453 30 501 Q30 565 61 618 Q92 671 144 700 L166 712 Q192 727 222 735.5 Q252 744 284 744 Q333 744 375.5 726 Q418 708 449.5 676.5 Q481 645 499 603.5 Q517 562 517 514 Q517 475 504 433 Q491 391 471 353 Q429 272 363.5 181.5 Q298 91 213 0 L161 0 Z M467 501 Q467 544 451 581.5 Q435 619 407.5 647 Q380 675 343 691 Q306 707 263 707 Q238 707 215 702 Q192 697 172 685 Q129 659 104 613.5 Q79 568 79 514 Q79 471 94.5 433 Q110 395 137.5 367 Q165 339 202.5 323 Q240 307 284 307 Q309 307 332.5 313 Q356 319 376 330 Q418 357 442.5 402 Q467 447 467 501 Z " />
<glyph glyph-name="colon" unicode="&#x3a;" horiz-adv-x="273" d="M169 34 Q169 17 158.5 8 Q148 -1 135 -1 Q123 -1 114 7 Q105 15 105 27 Q105 44 116 53 Q127 62 140 62 Q152 62 160.5 54 Q169 46 169 34 Z M169 409 Q169 392 158.5 383 Q148 374 135 374 Q123 374 114 382 Q105 390 105 402 Q105 419 116 428 Q127 437 140 437 Q152 437 160.5 429 Q169 421 169 409 Z " />
<glyph glyph-name="semicolon" unicode="&#x3b;" horiz-adv-x="273" d="M71 -136 Q94 -107 108.5 -72 Q123 -37 125 1 Q105 8 105 30 Q105 44 114 53 Q123 62 136 62 Q153 62 161 50 Q169 38 169 20 Q169 -28 147 -70.5 Q125 -113 91 -145 L71 -136 Z M169 409 Q169 392 158.5 383 Q148 374 135 374 Q123 374 114 382 Q105 390 105 402 Q105 419 116 428 Q127 437 140 437 Q152 437 160.5 429 Q169 421 169 409 Z " />
<glyph glyph-name="less" unicode="&#x3c;" horiz-adv-x="556" d="M29 229 L29 271 L527 504 L527 459 L79 250 L527 41 L527 -4 L29 229 Z " />
<glyph glyph-name="equal" unicode="&#x3d;" horiz-adv-x="556" d="M28 354 L528 354 L528 312 L28 312 L28 354 Z M28 188 L528 188 L528 146 L28 146 L28 188 Z " />
<glyph glyph-name="greater" unicode="&#x3e;" horiz-adv-x="556" d="M29 41 L477 250 L29 459 L29 504 L527 271 L527 229 L29 -4 L29 41 Z " />
<glyph glyph-name="question" unicode="&#x3f;" horiz-adv-x="485" d="M220 280 Q220 318 237 342 Q254 366 278 386 Q296 401 316.5 415 Q337 429 353.5 446.5 Q370 464 381 487.5 Q392 511 392 545 Q392 579 379 608.5 Q366 638 344 660 Q322 682 292.5 694.5 Q263 707 230 707 Q199 707 168.5 700.5 Q138 694 109 677 Q95 668 82 657.5 Q69 647 58 636 L44 658 Q54 669 70.5 680.5 Q87 692 111 707 Q141 724 177 734 Q213 744 252 744 Q291 744 325.5 729.5 Q360 715 385.5 690.5 Q411 666 426 632.5 Q441 599 441 560 Q441 523 429 497 Q417 471 399 451.5 Q381 432 359.5 416.5 Q338 401 318 385 Q296 366 281 344 Q266 322 266 290 L266 185 L220 185 L220 280 Z M275 34 Q275 17 264.5 8 Q254 -1 241 -1 Q229 -1 220 7 Q211 15 211 27 Q211 44 222 53 Q233 62 246 62 Q258 62 266.5 54 Q275 46 275 34 Z " />
<glyph glyph-name="at" unicode="&#x40;" horiz-adv-x="844" d="M768 130 Q738 97 700.5 70 Q663 43 620 24.5 Q577 6 529.5 -4.5 Q482 -15 434 -15 Q353 -15 282 14 Q211 43 158 94 Q105 145 74.5 213 Q44 281 44 359 Q44 439 76.5 509 Q109 579 164.5 631 Q220 683 294 713 Q368 743 450 743 Q525 743 589.5 718.5 Q654 694 700.5 650 Q747 606 773.5 544.5 Q800 483 800 410 Q800 361 784.5 315 Q769 269 740 233 Q711 197 670 175 Q629 153 578 153 Q546 153 526 172.5 Q506 192 506 234 Q474 198 434.5 176.5 Q395 155 344 155 Q309 155 283.5 167 Q258 179 240.5 200 Q223 221 214.5 248 Q206 275 206 305 Q206 355 224 405 Q242 455 275.5 495.5 Q309 536 356 561 Q403 586 462 586 Q500 586 531.5 565 Q563 544 577 511 L594 570 L637 570 L570 330 Q563 305 554.5 276.5 Q546 248 546 231 Q546 190 586 190 Q630 190 662 208 Q694 226 715 255.5 Q736 285 746.5 323 Q757 361 757 400 Q757 467 733 523.5 Q709 580 666 620.5 Q623 661 563.5 683.5 Q504 706 434 706 Q360 706 296.5 680 Q233 654 186.5 608.5 Q140 563 113.5 501.5 Q87 440 87 368 Q87 296 115.5 233 Q144 170 193.5 123 Q243 76 309 48.5 Q375 21 450 21 Q546 21 614 56.5 Q682 92 741 157 L768 130 Z M356 190 Q383 190 409 202 Q435 214 458 235 Q481 256 498.5 283.5 Q516 311 526 341 Q534 367 541.5 393 Q549 419 557 447 Q557 468 550.5 487 Q544 506 531 520.5 Q518 535 498.5 543.5 Q479 552 454 552 Q410 552 373.5 529 Q337 506 311 470.5 Q285 435 270.5 392 Q256 349 256 309 Q256 258 280 224 Q304 190 356 190 Z " />
<glyph glyph-name="A" unicode="A" horiz-adv-x="675" d="M312 704 L301 728 L354 728 L677 0 L625 0 L503 275 L164 275 L52 24 L58 0 L-2 0 L312 704 Z M487 311 L332 659 L180 311 L487 311 Z " />
<glyph glyph-name="B" unicode="B" horiz-adv-x="533" d="M73 704 L59 728 L278 728 Q315 728 348 714.5 Q381 701 405.5 677 Q430 653 444 620.5 Q458 588 458 551 Q458 503 435 463.5 Q412 424 374 402 L358 393 Q354 391 350 389.5 Q346 388 342 386 Q373 379 400 362 Q427 345 446 321 Q465 297 476 267 Q487 237 487 203 Q487 150 461 107 Q435 64 392 38 L370 26 Q349 12 324 6 Q299 0 271 0 L73 0 L73 704 Z M291 36 Q329 36 363 52 Q397 76 417.5 112 Q438 148 438 192 Q438 226 424.5 257 Q411 288 388 311 Q365 334 334.5 347.5 Q304 361 269 361 L122 361 L122 36 L291 36 Z M270 396 Q289 395 305 398 Q321 401 337 409 Q366 426 386 458 Q406 490 409 530 Q409 564 397 593.5 Q385 623 364 645 Q343 667 314.5 679.5 Q286 692 254 692 L122 692 L122 396 L270 396 Z " />
<glyph glyph-name="C" unicode="C" horiz-adv-x="674" d="M635 44 Q621 36 611 30 Q568 5 518 -5.5 Q468 -16 408 -16 Q330 -16 261.5 13.5 Q193 43 142 93.5 Q91 144 61.5 212 Q32 280 32 357 Q32 409 45.5 457 Q59 505 83.5 546.5 Q108 588 142.5 622 Q177 656 219 680 L241 693 Q284 717 331 730.5 Q378 744 429 744 Q487 744 536 732.5 Q585 721 630 699 L613 654 Q568 680 519 693.5 Q470 707 410 707 Q365 707 323.5 697 Q282 687 246 666 Q171 621 126.5 542.5 Q82 464 82 370 Q82 298 109.5 234.5 Q137 171 184 123 Q231 75 295 47.5 Q359 20 431 20 Q491 20 539.5 33 Q588 46 632 70 L635 44 Z " />
<glyph glyph-name="D" unicode="D" horiz-adv-x="695" d="M73 704 L59 728 L305 728 Q380 728 445.5 700 Q511 672 559.5 623 Q608 574 636 509 Q664 444 664 370 Q664 270 616 189 Q568 108 487 60 L465 48 Q424 25 378.5 12.5 Q333 0 283 0 L73 0 L73 704 Z M303 36 Q346 36 385.5 45.5 Q425 55 459 75 Q531 118 573.5 193 Q616 268 616 357 Q616 426 590 487 Q564 548 518.5 593 Q473 638 412 664.5 Q351 691 281 691 L122 691 L122 36 L303 36 Z " />
<glyph glyph-name="E" unicode="E" horiz-adv-x="518" d="M73 704 L59 728 L472 728 L458 691 L122 691 L122 396 L462 396 L448 359 L122 359 L122 37 L482 37 L468 0 L73 0 L73 704 Z " />
<glyph glyph-name="F" unicode="F" horiz-adv-x="504" d="M73 704 L59 728 L464 728 L450 691 L122 691 L122 368 L444 368 L430 331 L122 331 L122 0 L73 0 L73 704 Z " />
<glyph glyph-name="G" unicode="G" horiz-adv-x="773" d="M647 45 Q595 16 536.5 0 Q478 -16 408 -16 Q330 -16 261.5 13.5 Q193 43 142 93.5 Q91 144 61.5 212 Q32 280 32 357 Q32 409 45.5 457 Q59 505 83.5 546.5 Q108 588 142.5 622 Q177 656 219 680 L241 693 Q284 717 331 730.5 Q378 744 429 744 Q508 744 570.5 723.5 Q633 703 688 663 L671 618 Q617 660 554 683.5 Q491 707 410 707 Q365 707 323.5 697 Q282 687 246 666 Q171 621 126.5 542.5 Q82 464 82 370 Q82 298 109.5 234.5 Q137 171 184 123 Q231 75 295 47.5 Q359 20 431 20 Q492 20 542.5 33 Q593 46 638 71 Q646 76 654.5 81.5 Q663 87 671 93 L671 307 L380 307 L394 344 L720 344 L720 91 Q708 83 695 75 Q682 67 669 59 L647 45 Z " />
<glyph glyph-name="H" unicode="H" horiz-adv-x="674" d="M73 704 L59 728 L122 728 L122 397 L552 397 L552 704 L538 728 L601 728 L601 0 L552 0 L552 358 L122 358 L122 0 L73 0 L73 704 Z " />
<glyph glyph-name="I" unicode="I" horiz-adv-x="205" d="M78 704 L64 728 L127 728 L127 0 L78 0 L78 704 Z " />
<glyph glyph-name="J" unicode="J" horiz-adv-x="242" d="M-47 -108 L-21 -108 Q-2 -108 15.5 -103.5 Q33 -99 49 -92 Q82 -69 101.5 -33.5 Q121 2 121 45 L121 704 L106 728 L170 728 L170 112 Q170 73 166.5 41 Q163 9 153 -17.5 Q143 -44 125 -65.5 Q107 -87 77 -105 L55 -118 Q11 -145 -43 -145 L-47 -108 Z " />
<glyph glyph-name="K" unicode="K" horiz-adv-x="591" d="M73 704 L59 728 L122 728 L122 349 L133 359 L478 704 L480 728 L555 728 L230 403 Q328 315 422.5 214 Q517 113 589 0 L525 0 Q459 100 371.5 195 Q284 290 194 370 L122 300 L122 0 L73 0 L73 704 Z " />
<glyph glyph-name="L" unicode="L" horiz-adv-x="463" d="M73 704 L59 728 L122 728 L122 36 L454 36 L440 0 L73 0 L73 704 Z " />
<glyph glyph-name="M" unicode="M" horiz-adv-x="850" d="M73 700 L50 728 L111 728 L426 318 L740 728 L777 728 L777 0 L728 0 L728 649 L431 262 L407 262 L112 647 L112 0 L73 0 L73 700 Z " />
<glyph glyph-name="N" unicode="N" horiz-adv-x="720" d="M73 700 L50 728 L113 728 L608 84 L608 704 L594 728 L647 728 L647 0 L609 0 L112 647 L112 0 L73 0 L73 700 Z " />
<glyph glyph-name="O" unicode="O" horiz-adv-x="835" d="M596 34 Q554 11 507 -2.5 Q460 -16 408 -16 Q329 -16 260.5 13.5 Q192 43 141 93.5 Q90 144 61 212 Q32 280 32 357 Q32 409 45.5 456.5 Q59 504 83.5 545.5 Q108 587 142 621.5 Q176 656 218 681 L239 693 Q282 718 329.5 731 Q377 744 429 744 Q507 744 575.5 714.5 Q644 685 695 634 Q746 583 775 515 Q804 447 804 370 Q804 318 790.5 270 Q777 222 753 180 Q729 138 695 104 Q661 70 619 46 L596 34 Z M591 61 Q628 83 658 114.5 Q688 146 709.5 184 Q731 222 742.5 266 Q754 310 754 357 Q754 429 727 493 Q700 557 653 604.5 Q606 652 543 679.5 Q480 707 408 707 Q363 707 321.5 697.5 Q280 688 244 666 Q207 644 177 612.5 Q147 581 126 542.5 Q105 504 93.5 460.5 Q82 417 82 370 Q82 298 109 234 Q136 170 183 122.5 Q230 75 293 47.5 Q356 20 429 20 Q474 20 515 29.5 Q556 39 591 61 Z " />
<glyph glyph-name="P" unicode="P" horiz-adv-x="537" d="M73 704 L59 728 L286 728 Q332 728 371.5 710.5 Q411 693 440.5 663.5 Q470 634 487 594.5 Q504 555 504 511 Q504 451 475 402 Q446 353 398 326 L376 313 Q350 299 322 291 Q294 283 263 283 L122 283 L122 0 L73 0 L73 704 Z M284 319 Q308 319 329.5 324 Q351 329 371 341 Q411 365 434 406.5 Q457 448 457 499 Q457 538 441.5 573 Q426 608 399.5 634.5 Q373 661 337.5 676 Q302 691 262 691 L122 691 L122 319 L284 319 Z " />
<glyph glyph-name="Q" unicode="Q" horiz-adv-x="855" d="M810 -13 Q759 -13 716.5 7 Q674 27 636 57 L612 43 L596 34 Q554 11 507 -2.5 Q460 -16 408 -16 Q329 -16 260.5 13.5 Q192 43 141 93.5 Q90 144 61 212 Q32 280 32 357 Q32 409 45.5 456.5 Q59 504 83.5 545.5 Q108 587 142 621.5 Q176 656 218 681 L239 693 Q282 718 329.5 731 Q377 744 429 744 Q507 744 575.5 714.5 Q644 685 695 634 Q746 583 775 515 Q804 447 804 370 Q804 284 768.5 210 Q733 136 673 85 Q708 59 745 41 Q782 23 824 21 L810 -13 Z M614 76 Q576 107 540.5 139.5 Q505 172 465.5 198.5 Q426 225 380 242 Q334 259 276 259 Q250 259 219.5 253.5 Q189 248 158 238 L168 272 Q202 283 235 288.5 Q268 294 297 294 Q357 294 404.5 277 Q452 260 492.5 233 Q533 206 570 173 Q607 140 646 108 Q697 154 725.5 219 Q754 284 754 357 Q754 429 727 493 Q700 557 653 604.5 Q606 652 543 679.5 Q480 707 408 707 Q363 707 321.5 697.5 Q280 688 244 666 Q207 644 177 612.5 Q147 581 126 542.5 Q105 504 93.5 460.5 Q82 417 82 370 Q82 298 109 234 Q136 170 183 122.5 Q230 75 293 47.5 Q356 20 429 20 Q473 20 513 30 Q553 40 588 60 L614 76 Z " />
<glyph glyph-name="R" unicode="R" horiz-adv-x="540" d="M73 704 L59 728 L285 728 Q328 728 366 712 Q404 696 432 668 Q460 640 476 602.5 Q492 565 492 523 Q492 466 464 420.5 Q436 375 390 348 L373 337 Q332 312 274 312 L542 0 L480 0 L218 307 L122 307 L122 0 L73 0 L73 704 Z M282 343 Q321 342 357 357 Q393 379 416 416.5 Q439 454 443 502 Q443 541 429.5 575.5 Q416 610 391.5 635.5 Q367 661 334 676 Q301 691 262 691 L122 691 L122 343 L282 343 Z " />
<glyph glyph-name="S" unicode="S" horiz-adv-x="493" d="M337 11 Q311 -3 286 -9.5 Q261 -16 232 -16 Q180 -16 130 1 Q80 18 40 52 L58 99 Q97 60 147.5 40 Q198 20 253 20 Q288 20 317 33 Q346 46 366.5 68.5 Q387 91 398 120.5 Q409 150 409 182 Q409 227 394.5 255.5 Q380 284 356.5 302.5 Q333 321 302.5 332.5 Q272 344 239 354 Q204 365 169.5 377.5 Q135 390 107.5 411 Q80 432 63 464 Q46 496 46 545 Q46 595 70 638 Q94 681 138 706 L161 719 Q204 744 256 744 Q304 744 350 727.5 Q396 711 433 680 L415 634 Q380 669 333.5 688 Q287 707 236 707 Q204 707 177.5 695 Q151 683 132.5 662.5 Q114 642 104 615 Q94 588 94 559 Q94 517 107.5 490.5 Q121 464 144.5 446 Q168 428 198.5 417 Q229 406 262 396 Q298 385 333 372 Q368 359 395.5 337 Q423 315 440.5 281.5 Q458 248 458 197 Q458 143 432.5 96 Q407 49 359 23 L337 11 Z " />
<glyph glyph-name="T" unicode="T" horiz-adv-x="543" d="M247 691 L9 691 L23 728 L534 728 L520 691 L296 691 L296 0 L247 0 L247 691 Z " />
<glyph glyph-name="U" unicode="U" horiz-adv-x="661" d="M481 24 Q446 4 407.5 -6 Q369 -16 317 -16 Q266 -16 221 2.5 Q176 21 142.5 53 Q109 85 89.5 128 Q70 171 70 220 L70 704 L56 728 L119 728 L119 235 Q119 191 136.5 151.5 Q154 112 184 83 Q214 54 254 37 Q294 20 340 20 Q382 20 414.5 27.5 Q447 35 476 52 Q492 60 507 70.5 Q522 81 539 93 L539 704 L525 728 L588 728 L588 92 Q565 75 544.5 61.5 Q524 48 504 37 L481 24 Z " />
<glyph glyph-name="V" unicode="V" horiz-adv-x="638" d="M-4 728 L49 728 L325 73 L591 704 L585 728 L642 728 L336 0 L302 0 L-4 728 Z " />
<glyph glyph-name="W" unicode="W" horiz-adv-x="948" d="M-4 728 L49 728 L325 73 L454 379 L307 728 L360 728 L635 73 L901 704 L895 728 L952 728 L646 0 L613 0 L474 330 L336 0 L302 0 L-4 728 Z " />
<glyph glyph-name="X" unicode="X" horiz-adv-x="591" d="M267 375 L21 728 L78 728 L299 412 L501 704 L501 728 L565 728 L322 380 L587 0 L529 0 L290 342 L52 0 L5 0 L267 375 Z " />
<glyph glyph-name="Y" unicode="Y" horiz-adv-x="590" d="M274 292 L5 728 L65 728 L305 340 L528 704 L525 728 L586 728 L322 301 L322 0 L274 0 L274 292 Z " />
<glyph glyph-name="Z" unicode="Z" horiz-adv-x="556" d="M18 19 L465 691 L35 691 L49 728 L532 728 L532 708 L85 36 L538 36 L524 0 L18 0 L18 19 Z " />
<glyph glyph-name="bracketleft" unicode="&#x5b;" horiz-adv-x="330" d="M129 728 L313 728 L313 696 L174 696 L174 -163 L313 -163 L313 -195 L129 -195 L129 728 Z " />
<glyph glyph-name="backslash" unicode="&#x5c;" horiz-adv-x="370" d="M-3 744 L31 744 L373 -16 L341 -16 L-3 744 Z " />
<glyph glyph-name="bracketright" unicode="&#x5d;" horiz-adv-x="330" d="M17 -163 L157 -163 L157 696 L17 696 L17 728 L201 728 L201 -195 L17 -195 L17 -163 Z " />
<glyph glyph-name="asciicircum" unicode="&#x5e;" horiz-adv-x="556" d="M258 703 L298 703 L525 418 L476 418 L278 659 L80 418 L31 418 L258 703 Z " />
<glyph glyph-name="underscore" unicode="&#x5f;" horiz-adv-x="500" d="M0 -107 L500 -107 L500 -135 L0 -135 L0 -107 Z " />
<glyph glyph-name="grave" unicode="&#x60;" horiz-adv-x="500" d="M147 692 L186 706 L293 551 L266 540 L147 692 Z " />
<glyph glyph-name="a" unicode="a" horiz-adv-x="467" d="M428 -4 Q380 -4 361.5 13 Q343 30 340 70 Q328 56 309.5 42.5 Q291 29 277 21 L263 12 Q221 -12 179 -12 Q150 -12 123.5 -3 Q97 6 77 22.5 Q57 39 45 63.5 Q33 88 33 119 Q33 165 53 196 Q73 227 107 247 L129 259 Q167 282 221 291 Q275 300 336 302 Q336 313 336 323.5 Q336 334 335 348 Q332 403 299.5 430 Q267 457 214 457 Q178 457 145.5 448 Q113 439 88 425 L79 447 Q87 452 102 459 Q129 471 163.5 481.5 Q198 492 239 492 Q269 492 295 484 Q321 476 341 459.5 Q361 443 372.5 418 Q384 393 384 360 L384 105 Q384 85 387 70.5 Q390 56 397.5 47 Q405 38 418.5 33.5 Q432 29 454 29 L457 29 L443 -4 L428 -4 Z M336 272 Q277 270 224 263.5 Q171 257 129 234 Q106 217 93 192 Q80 167 80 131 Q80 105 90.5 84.5 Q101 64 118.5 50 Q136 36 160 28.5 Q184 21 211 21 Q225 21 242 27.5 Q259 34 276 45.5 Q293 57 309 72.5 Q325 88 336 106 L336 272 Z " />
<glyph glyph-name="b" unicode="b" horiz-adv-x="551" d="M67 692 L53 716 L115 736 L115 432 Q153 458 192 475 Q231 492 278 492 Q307 492 334 486 Q374 477 408.5 454.5 Q443 432 468 400.5 Q493 369 507.5 329.5 Q522 290 522 246 Q522 190 500.5 142.5 Q479 95 441 62 Q418 41 393 26.5 Q368 12 344 3.5 Q320 -5 298 -8.5 Q276 -12 258 -12 Q201 -12 156 9.5 Q111 31 67 61 L67 692 Z M115 90 Q145 59 186 41 Q227 23 275 23 Q301 23 327 29 Q360 37 387.5 56.5 Q415 76 434 103.5 Q453 131 463.5 164 Q474 197 474 233 Q474 279 456.5 320 Q439 361 409 391.5 Q379 422 339 439.5 Q299 457 253 457 Q211 457 179 444 Q147 431 115 399 L115 90 Z " />
<glyph glyph-name="c" unicode="c" horiz-adv-x="471" d="M432 31 Q397 11 359.5 -0.5 Q322 -12 278 -12 Q226 -12 180.5 7 Q135 26 101.5 59.5 Q68 93 48.5 137.5 Q29 182 29 233 Q29 302 62.5 357.5 Q96 413 151 445 L173 458 Q201 474 233 483 Q265 492 298 492 Q336 492 368 484.5 Q400 477 429 463 L413 422 Q356 457 279 457 Q252 457 226.5 451.5 Q201 446 180 433 Q132 405 105 355.5 Q78 306 78 246 Q78 200 95.5 159.5 Q113 119 143 88.5 Q173 58 213.5 40.5 Q254 23 300 23 Q334 23 365.5 30 Q397 37 432 54 L432 31 Z " />
<glyph glyph-name="d" unicode="d" horiz-adv-x="550" d="M437 48 L406 28 L391 20 Q336 -12 272 -12 Q222 -12 177.5 7 Q133 26 100 59 Q67 92 48 136.5 Q29 181 29 233 Q29 303 62.5 358.5 Q96 414 151 446 L172 459 Q198 475 229.5 483.5 Q261 492 293 492 Q335 492 371 479 Q407 466 436 443 L436 692 L423 716 L484 736 L484 0 L437 0 L437 48 Z M436 387 Q406 419 365 438 Q324 457 276 457 Q250 457 224.5 452 Q199 447 179 433 Q133 404 105.5 354.5 Q78 305 78 246 Q78 199 95.5 158.5 Q113 118 143 88 Q173 58 213 40.5 Q253 23 298 23 Q336 23 371.5 36.5 Q407 50 436 79 L436 387 Z " />
<glyph glyph-name="e" unicode="e" horiz-adv-x="538" d="M488 74 Q479 66 459 51.5 Q439 37 411 23 Q383 9 348.5 -1.5 Q314 -12 277 -12 Q226 -12 180.5 7 Q135 26 101.5 59 Q68 92 48.5 136.5 Q29 181 29 233 Q29 305 62.5 360.5 Q96 416 150 448 L171 460 Q224 492 286 492 Q330 492 370.5 474.5 Q411 457 441.5 426.5 Q472 396 490 355 Q508 314 508 267 L508 248 L77 248 Q76 203 93 162 Q110 121 140.5 90 Q171 59 212 40.5 Q253 22 299 22 Q327 22 347 24.5 Q367 27 385.5 34.5 Q404 42 424.5 57 Q445 72 474 96 L488 74 Z M462 280 Q459 318 442 350.5 Q425 383 399 406.5 Q373 430 338.5 443.5 Q304 457 266 457 Q242 457 219 452 Q196 447 176 435 Q137 411 111.5 370.5 Q86 330 80 280 L462 280 Z " />
<glyph glyph-name="f" unicode="f" horiz-adv-x="293" d="M93 445 L-3 445 L10 480 L93 480 L93 554 Q93 578 95 600 Q97 622 103.5 641 Q110 660 123 675.5 Q136 691 157 703 L180 716 Q201 727 223 731.5 Q245 736 275 736 L285 700 Q260 700 235 699.5 Q210 699 185 688 Q156 668 148.5 640.5 Q141 613 141 571 L141 480 L279 480 L279 445 L141 445 L141 0 L93 0 L93 445 Z " />
<glyph glyph-name="g" unicode="g" horiz-adv-x="450" d="M340 -170 Q316 -185 282.5 -192.5 Q249 -200 210 -200 Q160 -200 125 -189 Q90 -178 68.5 -160.5 Q47 -143 37 -121 Q27 -99 27 -77 Q27 -53 36 -34 Q45 -15 66 2.5 Q87 20 122 37.5 Q157 55 208 75 Q200 82 194 90.5 Q188 99 188 111 Q188 127 201 139.5 Q214 152 234 165 Q227 163 218 163 Q209 163 200 163 Q134 170 97 202.5 Q60 235 49 287 Q47 295 46 303.5 Q45 312 45 320 Q45 366 67 400 Q89 434 124 457 L145 469 Q164 480 185 486 Q206 492 229 492 Q246 492 261 489 Q274 486 290 480 L428 480 L428 447 L335 447 Q361 427 376.5 397 Q392 367 392 332 Q392 297 377 267 Q362 237 337 215 Q316 196 297 183 Q278 170 263.5 160 Q249 150 240 142 Q231 134 231 125 Q231 112 242.5 103 Q254 94 272.5 87 Q291 80 313 72.5 Q335 65 356 54.5 Q377 44 394 29 Q411 14 420 -9 Q427 -28 427 -49 Q427 -84 409.5 -112 Q392 -140 362 -158 L340 -170 Z M230 62 Q172 37 130 14 Q88 -9 77 -37 Q75 -44 73.5 -50 Q72 -56 72 -64 Q72 -82 80.5 -100.5 Q89 -119 108.5 -133.5 Q128 -148 158 -157.5 Q188 -167 232 -167 Q253 -167 271 -164 Q355 -154 375 -96 Q380 -79 380 -65 Q380 -32 365.5 -12 Q351 8 328.5 21 Q306 34 279.5 42.5 Q253 51 230 62 Z M346 319 Q346 348 335.5 374 Q325 400 306 419 Q287 438 262 449 Q237 460 208 460 Q192 460 177.5 456 Q163 452 149 445 Q107 414 94 367 Q90 352 90 333 Q90 304 101 278.5 Q112 253 131 234.5 Q150 216 175.5 204.5 Q201 193 230 193 Q245 193 259.5 197 Q274 201 287 208 Q314 226 330 256 Q346 286 346 319 Z " />
<glyph glyph-name="h" unicode="h" horiz-adv-x="519" d="M67 692 L53 716 L115 736 L115 408 Q127 420 143.5 432 Q160 444 173 452 L188 461 Q243 492 300 492 Q332 492 361 481.5 Q390 471 412 451 Q434 431 447 401.5 Q460 372 460 335 L460 0 L412 0 L412 321 Q412 354 401 379.5 Q390 405 371 422 Q352 439 326.5 448 Q301 457 273 457 Q251 457 228.5 452 Q206 447 183 434 Q166 424 149 408.5 Q132 393 115 374 L115 0 L67 0 L67 692 Z " />
<glyph glyph-name="i" unicode="i" horiz-adv-x="181" d="M88 572 Q74 572 65.5 580.5 Q57 589 57 602 Q57 616 67.5 625 Q78 634 92 634 Q104 634 113 625.5 Q122 617 122 603 Q122 589 111.5 580.5 Q101 572 88 572 Z M67 448 L53 472 L115 492 L115 0 L67 0 L67 448 Z " />
<glyph glyph-name="j" unicode="j" horiz-adv-x="191" d="M132 603 Q132 589 121.5 580.5 Q111 572 97 572 Q85 572 75.5 580.5 Q66 589 66 602 Q66 616 76.5 625 Q87 634 101 634 Q114 634 123 625.5 Q132 617 132 603 Z M-39 -164 Q-26 -164 -3 -162 Q20 -160 31 -153 Q58 -138 67.5 -108.5 Q77 -79 77 -50 L77 448 L63 472 L125 492 L125 -15 Q125 -41 123 -63 Q121 -85 114 -104.5 Q107 -124 94 -140 Q81 -156 59 -168 Q33 -182 12.5 -190.5 Q-8 -199 -35 -199 L-39 -164 Z " />
<glyph glyph-name="k" unicode="k" horiz-adv-x="437" d="M67 692 L53 716 L115 736 L115 243 L126 252 L335 459 L332 480 L406 480 L197 273 Q266 213 328.5 145 Q391 77 441 0 L380 0 Q336 66 280 127 Q224 188 162 242 L115 198 L115 0 L67 0 L67 692 Z " />
<glyph glyph-name="l" unicode="l" horiz-adv-x="181" d="M67 692 L53 716 L115 736 L115 0 L67 0 L67 692 Z " />
<glyph glyph-name="m" unicode="m" horiz-adv-x="749" d="M67 448 L53 472 L115 492 L115 413 Q125 425 138.5 439 Q152 453 170.5 465 Q189 477 213 484.5 Q237 492 269 492 Q290 492 310 486 Q339 477 361 456.5 Q383 436 393 406 Q420 444 464.5 468 Q509 492 555 492 Q582 492 606.5 483 Q631 474 649.5 456.5 Q668 439 679 414.5 Q690 390 690 359 L690 0 L641 0 L641 345 Q641 396 609 426.5 Q577 457 530 457 Q488 457 456.5 435 Q425 413 403 375 L403 0 L355 0 L355 345 Q355 370 346 391 Q337 412 322 426.5 Q307 441 286.5 449 Q266 457 242 457 Q199 457 168 434 Q137 411 114 375 L114 0 L67 0 L67 448 Z " />
<glyph glyph-name="n" unicode="n" horiz-adv-x="519" d="M67 448 L53 475 L115 492 L115 407 Q127 420 142.5 431.5 Q158 443 172 451 L187 461 Q246 492 300 492 Q332 492 361 481.5 Q390 471 412 451 Q434 431 447 401.5 Q460 372 460 335 L460 0 L412 0 L412 321 Q412 354 401 379.5 Q390 405 371 422 Q352 439 326.5 448 Q301 457 273 457 Q222 457 185 434 Q148 411 115 374 L115 0 L67 0 L67 448 Z " />
<glyph glyph-name="o" unicode="o" horiz-adv-x="573" d="M401 21 Q373 5 341 -3.5 Q309 -12 275 -12 Q225 -12 180 6.5 Q135 25 101.5 58 Q68 91 48.5 136 Q29 181 29 233 Q29 303 62.5 358.5 Q96 414 151 446 L172 459 Q200 475 231.5 483.5 Q263 492 297 492 Q348 492 393 473 Q438 454 471.5 421 Q505 388 524.5 343 Q544 298 544 246 Q544 177 510.5 121 Q477 65 423 33 L401 21 Z M396 46 Q442 76 469.5 125.5 Q497 175 497 233 Q497 279 479.5 320 Q462 361 432 391.5 Q402 422 361.5 439.5 Q321 457 275 457 Q249 457 224.5 452 Q200 447 178 433 Q131 405 104.5 355 Q78 305 78 246 Q78 200 95 159.5 Q112 119 141.5 88.5 Q171 58 211 40.5 Q251 23 297 23 Q324 23 348.5 29 Q373 35 396 46 Z " />
<glyph glyph-name="p" unicode="p" horiz-adv-x="551" d="M67 448 L53 472 L115 492 L115 431 Q147 459 191.5 475.5 Q236 492 278 492 Q291 492 303 490.5 Q315 489 327 487 Q369 478 404.5 456.5 Q440 435 466 403.5 Q492 372 507 331.5 Q522 291 522 246 Q522 176 488.5 120.5 Q455 65 400 33 L379 20 Q324 -12 258 -12 Q217 -12 180.5 0.5 Q144 13 115 36 L115 -198 L67 -198 L67 448 Z M115 91 Q145 59 186 41 Q227 23 275 23 Q301 23 327 29 Q360 37 387.5 56.5 Q415 76 434 103.5 Q453 131 463.5 164 Q474 197 474 233 Q474 279 456.5 320 Q439 361 409 391.5 Q379 422 339 439.5 Q299 457 253 457 Q211 457 179 444 Q147 431 115 399 L115 91 Z " />
<glyph glyph-name="q" unicode="q" horiz-adv-x="550" d="M436 47 Q406 21 361 4.5 Q316 -12 272 -12 Q259 -12 247 -10.5 Q235 -9 223 -7 Q181 1 145.5 22.5 Q110 44 84 75.5 Q58 107 43.5 147.5 Q29 188 29 233 Q29 303 62.5 358.5 Q96 414 151 446 L172 459 Q198 475 229.5 483.5 Q261 492 293 492 Q333 492 375 479 Q417 466 442 441 L447 479 L484 492 L484 -198 L436 -198 L436 47 Z M436 387 Q406 419 365 438 Q324 457 276 457 Q262 457 249 456 Q236 455 224 452 Q197 446 179 433 Q133 404 105.5 354.5 Q78 305 78 246 Q78 199 95.5 158.5 Q113 118 143 88 Q173 58 213 40.5 Q253 23 298 23 Q380 23 436 79 L436 387 Z " />
<glyph glyph-name="r" unicode="r" horiz-adv-x="323" d="M67 448 L53 472 L115 492 L115 413 Q125 427 140.5 440.5 Q156 454 170 462 L185 471 Q204 482 225.5 487 Q247 492 271 492 Q302 492 325 480 L311 439 L296 445 Q269 456 243 456 Q225 456 208.5 451.5 Q192 447 175 439 Q139 414 115 373 L115 0 L67 0 L67 448 Z " />
<glyph glyph-name="s" unicode="s" horiz-adv-x="363" d="M241 6 Q208 -12 171 -12 Q137 -12 104.5 -1 Q72 10 46 31 L63 74 Q89 51 121.5 36.5 Q154 22 189 22 Q231 22 256.5 50 Q282 78 282 118 Q282 148 272 167 Q262 186 245 198 Q228 210 206.5 217.5 Q185 225 162 232 Q140 239 119 247 Q98 255 81.5 268.5 Q65 282 55 302.5 Q45 323 45 355 Q45 388 61 416.5 Q77 445 106 462 L128 474 Q142 482 158.5 487 Q175 492 193 492 Q225 492 254 481.5 Q283 471 306 454 L290 412 Q266 432 238 444.5 Q210 457 178 457 Q168 457 155.5 455 Q143 453 134 448 Q114 438 102.5 415 Q91 392 91 368 Q91 341 101 323.5 Q111 306 126.5 295 Q142 284 161.5 277 Q181 270 201 264 Q226 256 249 247.5 Q272 239 290 224.5 Q308 210 318.5 188 Q329 166 329 133 Q329 97 312 66 Q295 35 263 18 L241 6 Z " />
<glyph glyph-name="t" unicode="t" horiz-adv-x="293" d="M227 -4 Q183 -4 156 10 Q129 24 114 47.5 Q99 71 93.5 102 Q88 133 88 168 L88 445 L-8 445 L5 480 L88 480 L88 629 L136 649 L136 480 L274 480 L274 445 L136 445 L136 142 Q136 119 144.5 98.5 Q153 78 168.5 63 Q184 48 205 39 Q226 30 252 30 L277 30 L264 -4 L227 -4 Z " />
<glyph glyph-name="u" unicode="u" horiz-adv-x="519" d="M406 72 Q394 59 378 47 Q362 35 349 27 L334 18 Q277 -12 221 -12 Q189 -12 160 -1.5 Q131 9 109 28.5 Q87 48 74.5 77 Q62 106 62 144 L62 448 L48 472 L110 492 L110 157 Q110 125 121 100 Q132 75 150.5 58 Q169 41 194 32 Q219 23 248 23 Q293 23 338 46 Q355 57 372 71.5 Q389 86 405 106 L405 448 L392 472 L453 492 L453 0 L406 0 L406 72 Z " />
<glyph glyph-name="v" unicode="v" horiz-adv-x="444" d="M4 480 L56 480 L228 71 L389 456 L384 480 L440 480 L239 0 L206 0 L4 480 Z " />
<glyph glyph-name="w" unicode="w" horiz-adv-x="648" d="M4 480 L56 480 L228 71 L305 253 L209 480 L261 480 L433 71 L594 456 L589 480 L644 480 L443 0 L411 0 L325 204 L239 0 L206 0 L4 480 Z " />
<glyph glyph-name="x" unicode="x" horiz-adv-x="441" d="M192 247 L19 480 L76 480 L222 284 L351 456 L350 480 L415 480 L245 251 L432 0 L374 0 L215 216 L54 0 L8 0 L192 247 Z " />
<glyph glyph-name="y" unicode="y" horiz-adv-x="445" d="M203 9 L4 480 L57 480 L229 71 L391 456 L386 480 L441 480 L157 -198 L113 -198 L203 9 Z " />
<glyph glyph-name="z" unicode="z" horiz-adv-x="417" d="M21 18 L328 445 L31 445 L45 480 L393 480 L393 460 L89 35 L401 35 L387 0 L21 0 L21 18 Z " />
<glyph glyph-name="braceleft" unicode="&#x7b;" horiz-adv-x="350" d="M285 -195 Q222 -195 184.5 -162 Q147 -129 147 -66 L147 99 Q147 126 144.5 147.5 Q142 169 133 187 Q124 205 107.5 220.5 Q91 236 64 251 L64 282 Q91 297 107.5 312 Q124 327 133 345 Q142 363 144.5 385 Q147 407 147 434 L147 599 Q147 661 184.5 694.5 Q222 728 285 728 L285 696 Q235 696 213 665 Q191 634 191 589 L191 425 Q191 394 186.5 371 Q182 348 172 330 Q162 312 145.5 297 Q129 282 104 268 L104 265 Q129 250 145.5 235.5 Q162 221 172 202.5 Q182 184 186.5 161 Q191 138 191 107 L191 -56 Q191 -101 213 -132 Q235 -163 285 -163 L285 -195 Z " />
<glyph glyph-name="bar" unicode="&#x7c;" horiz-adv-x="500" d="M229 800 L271 800 L271 -200 L229 -200 L229 800 Z " />
<glyph glyph-name="braceright" unicode="&#x7d;" horiz-adv-x="350" d="M64 -163 Q115 -163 137 -132 Q159 -101 159 -56 L159 107 Q159 138 163 161 Q167 184 177 202.5 Q187 221 203.5 235.5 Q220 250 245 265 L245 268 Q220 282 203.5 297 Q187 312 177 330 Q167 348 163 371 Q159 394 159 425 L159 589 Q159 634 137 665 Q115 696 64 696 L64 728 Q128 728 165.5 694.5 Q203 661 203 599 L203 434 Q203 407 205.5 385 Q208 363 216.5 345 Q225 327 241.5 312 Q258 297 285 282 L285 251 Q258 236 241.5 220.5 Q225 205 216.5 187 Q208 169 205.5 147.5 Q203 126 203 99 L203 -66 Q203 -129 165.5 -162 Q128 -195 64 -195 L64 -163 Z " />
<glyph glyph-name="asciitilde" unicode="&#x7e;" horiz-adv-x="556" d="M24 188 Q29 209 39 231 Q49 253 64.5 270 Q80 287 100 298 Q120 309 144 309 Q173 309 206 297.5 Q239 286 273.5 271.5 Q308 257 343.5 245.5 Q379 234 414 234 Q431 234 445 240.5 Q459 247 470 258 Q481 269 488.5 283 Q496 297 500 312 L532 312 Q527 291 516.5 269 Q506 247 491 230 Q476 213 456.5 202 Q437 191 412 191 Q384 191 351 202.5 Q318 214 282.5 228.5 Q247 243 211.5 254.5 Q176 266 142 266 Q125 266 111.5 259.5 Q98 253 87 242 Q76 231 68 217 Q60 203 56 188 L24 188 Z " />
<glyph glyph-name="uni00A0" unicode="&#xa0;" d="" />
<glyph glyph-name="exclamdown" unicode="&#xa1;" horiz-adv-x="275" d="M115 307 L158 307 L161 -236 L112 -236 L115 307 Z M169 465 Q169 448 158.5 439 Q148 430 135 430 Q123 430 114 438 Q105 446 105 458 Q105 475 116 484 Q127 493 140 493 Q152 493 160.5 485 Q169 477 169 465 Z " />
<glyph glyph-name="cent" unicode="&#xa2;" horiz-adv-x="545" d="M290 239 Q240 241 196.5 261 Q153 281 121 314 Q89 347 71 390.5 Q53 434 53 484 Q53 553 86.5 608.5 Q120 664 175 696 L197 709 Q241 734 290 740 L290 804 L330 804 L330 743 Q365 742 395 735 Q425 728 453 714 L437 673 Q390 701 330 707 L330 274 Q362 275 392 282 Q422 289 456 305 L456 282 Q426 265 395.5 254.5 Q365 244 330 240 L330 178 L290 178 L290 239 Z M102 497 Q102 455 116.5 417.5 Q131 380 156.5 351 Q182 322 216 302 Q250 282 290 276 L290 708 Q266 706 244 700.5 Q222 695 204 684 Q156 656 129 606.5 Q102 557 102 497 Z " />
<glyph glyph-name="sterling" unicode="&#xa3;" horiz-adv-x="545" d="M37 14 L52 22 Q57 26 60.5 27.5 Q64 29 69 32 Q111 60 135 103.5 Q159 147 159 200 Q159 226 153 250 Q147 274 137 297 L61 297 L61 330 L123 330 Q111 355 98 379.5 Q85 404 74.5 428.5 Q64 453 57 477.5 Q50 502 50 527 Q50 584 77.5 630 Q105 676 151 703 L173 716 Q196 729 222.5 736.5 Q249 744 278 744 Q346 744 394.5 720 Q443 696 486 661 L458 623 Q416 660 369 684 Q322 708 257 708 Q237 708 216 704 Q195 700 177 689 Q162 681 148 665 Q134 649 122.5 629 Q111 609 104.5 586 Q98 563 98 540 Q98 514 106 488 Q114 462 125.5 435.5 Q137 409 151 383 Q165 357 177 330 L411 330 L411 297 L189 297 Q197 276 202 255 Q207 234 206 212 Q205 159 182 115 Q159 71 121 43 Q135 46 150.5 48.5 Q166 51 184 51 Q208 51 228 46.5 Q248 42 266.5 36 Q285 30 304.5 25.5 Q324 21 348 21 Q373 21 394 28.5 Q415 36 433.5 48.5 Q452 61 469 78 Q486 95 503 114 L522 93 Q504 71 481.5 50.5 Q459 30 420 7 Q380 -16 328 -16 Q302 -16 281.5 -11 Q261 -6 241 0 Q221 6 200 11 Q179 16 153 16 Q138 16 126 14.5 Q114 13 102 10 Q90 7 76.5 2.5 Q63 -2 46 -7 L37 14 Z " />
<glyph glyph-name="currency" unicode="&#xa4;" horiz-adv-x="545" d="M57 152 L113 210 Q91 236 78 270 Q65 304 65 342 Q65 380 78 414.5 Q91 449 113 475 L57 531 L83 559 L140 502 Q167 525 201 537.5 Q235 550 273 550 Q311 550 345 537.5 Q379 525 406 502 L464 559 L489 532 L432 475 Q455 448 467.5 414 Q480 380 480 342 Q480 304 467.5 270 Q455 236 432 210 L489 152 L464 126 L406 183 Q379 160 345 147.5 Q311 135 273 135 Q235 135 201 147.5 Q167 160 140 183 L83 126 L57 152 Z M444 342 Q444 378 430.5 409 Q417 440 394 463.5 Q371 487 340 500.5 Q309 514 273 514 Q237 514 206 500.5 Q175 487 151.5 463.5 Q128 440 114.5 409 Q101 378 101 342 Q101 306 114.5 275 Q128 244 151.5 221 Q175 198 206 184.5 Q237 171 273 171 Q309 171 340 184.5 Q371 198 394 221 Q417 244 430.5 275 Q444 306 444 342 Z " />
<glyph glyph-name="yen" unicode="&#xa5;" horiz-adv-x="545" d="M252 264 L52 264 L52 301 L252 301 L185 416 L52 416 L52 453 L164 453 L4 728 L61 728 L281 350 L484 704 L481 728 L542 728 L385 453 L498 453 L498 416 L365 416 L300 301 L498 301 L498 264 L300 264 L300 0 L252 0 L252 264 Z " />
<glyph glyph-name="brokenbar" unicode="&#xa6;" horiz-adv-x="500" d="M229 762 L271 762 L271 428 L229 428 L229 762 Z M229 261 L271 261 L271 -72 L229 -72 L229 261 Z " />
<glyph glyph-name="section" unicode="&#xa7;" horiz-adv-x="545" d="M338 -114 Q321 -122 301.5 -128 Q282 -134 262 -134 Q211 -134 172 -116.5 Q133 -99 105 -73 L129 -34 Q161 -66 201 -82.5 Q241 -99 284 -99 Q307 -99 327 -89 Q347 -79 362 -62.5 Q377 -46 385.5 -24 Q394 -2 394 22 Q394 54 384.5 75 Q375 96 357 110 Q339 124 314.5 133.5 Q290 143 260 152 Q228 162 194.5 173 Q161 184 134 201.5 Q107 219 89.5 245.5 Q72 272 72 313 Q72 337 80.5 359 Q89 381 102.5 400 Q116 419 132.5 434 Q149 449 166 460 Q138 483 123 511 Q108 539 108 573 Q108 617 128 654 Q148 691 184 711 L209 725 Q243 742 285 744 Q336 744 375 726.5 Q414 709 442 683 L418 646 Q387 676 348 692.5 Q309 709 264 709 Q240 709 219.5 699 Q199 689 184.5 672.5 Q170 656 161.5 634.5 Q153 613 153 589 Q153 557 164 535.5 Q175 514 193.5 499.5 Q212 485 236 475 Q260 465 286 457 Q318 447 352 437 Q386 427 413.5 410.5 Q441 394 459 367 Q477 340 477 297 Q477 250 448 211 Q419 172 379 149 Q405 133 422.5 105.5 Q440 78 440 37 Q440 2 422 -37 Q404 -76 363 -101 L338 -114 Z M430 286 Q430 332 404.5 356 Q379 380 342 394 Q305 408 264 417.5 Q223 427 192 445 Q162 424 139.5 393 Q117 362 117 324 Q117 280 142.5 255.5 Q168 231 205 216 Q242 201 283 190.5 Q324 180 354 164 Q382 182 406 212 Q430 242 430 286 Z " />
<glyph glyph-name="dieresis" unicode="&#xa8;" horiz-adv-x="500" d="M366 597 Q366 583 356.5 574 Q347 565 334 565 Q320 565 311 574 Q302 583 302 597 Q302 609 311.5 619 Q321 629 334 629 Q347 629 356.5 619 Q366 609 366 597 Z M198 597 Q198 583 188.5 574 Q179 565 166 565 Q152 565 143 574 Q134 583 134 597 Q134 609 143.5 619 Q153 629 166 629 Q179 629 188.5 619 Q198 609 198 597 Z " />
<glyph glyph-name="copyright" unicode="&#xa9;" horiz-adv-x="852" d="M608 35 Q522 -15 420 -15 Q342 -15 273.5 14 Q205 43 154 94 Q103 145 73.5 213 Q44 281 44 359 Q44 411 57.5 459.5 Q71 508 95.5 550 Q120 592 154.5 626.5 Q189 661 231 685 L247 694 Q289 717 336 730.5 Q383 744 434 744 Q512 744 580.5 714.5 Q649 685 699.5 634 Q750 583 779.5 514.5 Q809 446 809 368 Q809 316 795.5 268 Q782 220 758 178 Q734 136 699.5 102 Q665 68 623 43 L608 35 Z M767 359 Q767 431 739.5 494.5 Q712 558 665 605 Q618 652 555 679.5 Q492 707 420 707 Q327 707 252 664 Q177 619 132 541.5 Q87 464 87 368 Q87 296 114 233 Q141 170 188.5 122.5 Q236 75 299 48 Q362 21 434 21 Q479 21 521.5 31.5 Q564 42 601 63 Q638 85 669 116.5 Q700 148 721.5 186 Q743 224 755 268 Q767 312 767 359 Z M594 193 Q588 189 582 186 Q576 183 570 180 Q544 166 514.5 160.5 Q485 155 450 155 Q403 155 362 171 Q321 187 290.5 215 Q260 243 242.5 279.5 Q225 316 225 358 Q225 415 255.5 461.5 Q286 508 336 534 L357 545 Q382 558 410 565.5 Q438 573 469 573 Q504 573 532.5 567 Q561 561 587 550 L573 509 Q547 523 517 531.5 Q487 540 451 540 Q427 540 404.5 536 Q382 532 362 521 Q320 498 295.5 457.5 Q271 417 271 370 Q271 332 286.5 299 Q302 266 329 241.5 Q356 217 392.5 202.5 Q429 188 471 188 Q506 188 534.5 195 Q563 202 590 216 L594 193 Z " />
<glyph glyph-name="ordfeminine" unicode="&#xaa;" horiz-adv-x="313" d="M276 434 Q247 434 234 443.5 Q221 453 218 476 Q210 468 199 460.5 Q188 453 179 448 L170 443 Q144 429 118 429 Q80 429 53 449.5 Q26 470 26 508 Q26 535 38.5 554 Q51 573 72 584 L92 595 Q115 608 146.5 613 Q178 618 213 620 L213 644 Q211 674 191 688.5 Q171 703 141 703 Q118 703 98 697.5 Q78 692 62 684 L54 702 Q64 709 74 713 Q92 721 115 727.5 Q138 734 164 734 Q202 734 229.5 714.5 Q257 695 257 653 L257 507 Q257 484 265.5 473.5 Q274 463 300 463 L302 463 L290 434 L276 434 Z M214 595 Q180 594 150 590.5 Q120 587 95 575 Q82 566 74.5 552.5 Q67 539 68 520 Q69 491 91.5 474.5 Q114 458 146 458 Q161 458 181 470.5 Q201 483 214 501 L214 595 Z M26 377 L298 377 L298 346 L26 346 L26 377 Z " />
<glyph glyph-name="guillemotleft" unicode="&#xab;" horiz-adv-x="355" d="M166 233 L304 431 L322 422 L222 246 L324 66 L302 54 L166 233 Z M32 233 L169 431 L188 422 L88 246 L189 66 L168 54 L32 233 Z " />
<glyph glyph-name="logicalnot" unicode="&#xac;" horiz-adv-x="556" d="M485 250 L28 250 L28 291 L528 291 L528 76 L485 76 L485 250 Z " />
<glyph glyph-name="uni00AD" unicode="&#xad;" horiz-adv-x="327" d="M34 267 L295 267 L295 231 L34 231 L34 267 Z " />
<glyph glyph-name="registered" unicode="&#xae;" horiz-adv-x="852" d="M608 35 Q522 -15 420 -15 Q342 -15 273.5 14 Q205 43 154 94 Q103 145 73.5 213 Q44 281 44 359 Q44 411 57.5 459.5 Q71 508 95.5 550 Q120 592 154.5 626.5 Q189 661 231 685 L247 694 Q289 717 336 730.5 Q383 744 434 744 Q512 744 580.5 714.5 Q649 685 699.5 634 Q750 583 779.5 514.5 Q809 446 809 368 Q809 316 795.5 268 Q782 220 758 178 Q734 136 699.5 102 Q665 68 623 43 L608 35 Z M767 359 Q767 431 739.5 494.5 Q712 558 665 605 Q618 652 555 679.5 Q492 707 420 707 Q327 707 252 664 Q177 619 132 541.5 Q87 464 87 368 Q87 296 114 233 Q141 170 188.5 122.5 Q236 75 299 48 Q362 21 434 21 Q479 21 521.5 31.5 Q564 42 601 63 Q638 85 669 116.5 Q700 148 721.5 186 Q743 224 755 268 Q767 312 767 359 Z M303 545 L291 564 L441 564 Q467 564 490 555 Q513 546 530 531 Q547 516 557 495.5 Q567 475 567 451 Q567 420 550.5 394.5 Q534 369 506 354 Q487 343 473.5 340 Q460 337 445 336 L600 164 L544 164 L397 329 L348 329 L348 164 L303 164 L303 545 Z M439 360 Q450 359 459 361 Q468 363 477 367 Q496 378 507.5 395.5 Q519 413 521 436 Q521 476 492.5 504 Q464 532 419 532 L348 532 L348 360 L439 360 Z " />
<glyph glyph-name="overscore" unicode="&#xaf;" horiz-adv-x="500" d="M116 609 L385 609 L385 572 L116 572 L116 609 Z " />
<glyph glyph-name="degree" unicode="&#xb0;" horiz-adv-x="395" d="M261 455 Q228 436 188 436 Q158 436 132 447 Q106 458 86.5 477.5 Q67 497 56 523 Q45 549 45 579 Q45 619 64.5 652 Q84 685 116 703 L137 715 Q171 735 209 735 Q239 735 265 724 Q291 713 310.5 693.5 Q330 674 341 648 Q352 622 352 592 Q352 551 333 519 Q314 487 282 467 L261 455 Z M209 468 Q253 467 282.5 498.5 Q312 530 312 579 Q312 599 303.5 621 Q295 643 279 661 Q263 679 240 691 Q217 703 188 703 Q164 703 145.5 694 Q127 685 113.5 669.5 Q100 654 93 634 Q86 614 86 592 Q86 571 94 549.5 Q102 528 118 510 Q134 492 156.5 480 Q179 468 209 468 Z " />
<glyph glyph-name="plusminus" unicode="&#xb1;" horiz-adv-x="556" d="M257 281 L28 281 L28 323 L257 323 L257 508 L299 508 L299 323 L528 323 L528 281 L299 281 L299 96 L257 96 L257 281 Z M28 33 L528 33 L528 -8 L28 -8 L28 33 Z " />
<glyph glyph-name="uni00B2" unicode="&#xb2;" horiz-adv-x="362" d="M43 466 L205 620 Q235 649 253 677 Q271 705 271 737 Q271 779 240 802.5 Q209 826 161 826 Q129 826 104.5 814.5 Q80 803 54 784 L41 805 Q52 813 65.5 821 Q79 829 96 837 Q139 857 181 857 Q209 857 233.5 849.5 Q258 842 276.5 828 Q295 814 306 793.5 Q317 773 317 747 Q317 710 297.5 677.5 Q278 645 245 615 L98 479 L324 481 L310 448 L43 448 L43 466 Z " />
<glyph glyph-name="uni00B3" unicode="&#xb3;" horiz-adv-x="362" d="M238 457 Q221 449 202 444 Q183 439 162 439 Q98 439 45 480 L61 518 Q90 492 119.5 480 Q149 468 179 468 Q193 469 206.5 471.5 Q220 474 231 480 Q252 491 262.5 510 Q273 529 273 550 Q273 569 265 585.5 Q257 602 243 614 Q229 626 210 633 Q191 640 169 640 L133 640 Q135 648 136 651 Q137 654 137.5 656 Q138 658 139 660.5 Q140 663 142 671 L188 671 Q221 671 242 692.5 Q263 714 263 742 Q263 761 254.5 777 Q246 793 232 803.5 Q218 814 200 820 Q182 826 162 826 Q133 826 109.5 816 Q86 806 63 789 L53 810 Q61 816 72.5 823 Q84 830 101 839 Q143 857 183 857 Q208 857 231 849.5 Q254 842 270.5 828.5 Q287 815 297 796.5 Q307 778 307 755 Q307 721 286 698 Q265 675 234 661 Q270 650 293.5 623 Q317 596 317 559 Q317 529 301 505.5 Q285 482 258 468 L238 457 Z " />
<glyph glyph-name="acute" unicode="&#xb4;" horiz-adv-x="500" d="M207 551 L314 706 L353 692 L234 540 L207 551 Z " />
<glyph glyph-name="mu" unicode="&#xb5;" horiz-adv-x="519" d="M67 448 L53 472 L115 492 L115 157 Q115 125 125.5 100 Q136 75 155 58 Q174 41 198.5 32 Q223 23 252 23 Q297 23 342 46 Q359 57 376 71.5 Q393 86 410 106 L410 448 L397 472 L458 492 L458 0 L410 0 L410 72 Q387 48 338 18 Q309 2 280.5 -5 Q252 -12 223 -12 Q191 -12 164 -3 Q137 6 115 22 L115 -198 L67 -198 L67 448 Z " />
<glyph glyph-name="paragraph" unicode="&#xb6;" horiz-adv-x="545" d="M211 332 Q173 334 140.5 349.5 Q108 365 84.5 390.5 Q61 416 47.5 449.5 Q34 483 34 522 Q34 577 58 623 Q82 669 124 693 L147 705 Q166 716 187.5 722 Q209 728 233 728 L503 728 L489 693 L428 693 L428 -114 L385 -114 L385 693 L255 693 L255 -114 L211 -114 L211 332 Z M211 688 Q193 688 177.5 684 Q162 680 148 673 Q116 651 98 615.5 Q80 580 80 535 Q80 504 89 476 Q98 448 115.5 426 Q133 404 157 390.5 Q181 377 211 375 L211 688 Z " />
<glyph glyph-name="middot" unicode="&#xb7;" horiz-adv-x="273" d="M169 246 Q169 229 158.5 220 Q148 211 135 211 Q123 211 114 219 Q105 227 105 239 Q105 256 116 265 Q127 274 140 274 Q152 274 160.5 266 Q169 258 169 246 Z " />
<glyph glyph-name="cedilla" unicode="&#xb8;" horiz-adv-x="500" d="M154 -154 Q175 -162 197.5 -167.5 Q220 -173 243 -173 Q269 -173 289.5 -160.5 Q310 -148 310 -118 Q310 -102 301.5 -92 Q293 -82 280 -76.5 Q267 -71 252 -69 Q237 -67 224 -66 L230 2 L254 2 L250 -45 Q269 -47 286.5 -51.5 Q304 -56 317.5 -65 Q331 -74 339 -87.5 Q347 -101 347 -119 Q347 -163 318 -182.5 Q289 -202 250 -202 Q224 -202 200 -195 Q176 -188 153 -178 L154 -154 Z " />
<glyph glyph-name="uni00B9" unicode="&#xb9;" horiz-adv-x="362" d="M198 801 L70 732 L53 760 L220 849 L242 849 L242 448 L198 448 L198 801 Z " />
<glyph glyph-name="ordmasculine" unicode="&#xba;" horiz-adv-x="376" d="M258 449 Q221 429 178 429 Q147 429 119 440 Q91 451 70 470.5 Q49 490 36.5 516.5 Q24 543 24 575 Q24 618 44.5 650.5 Q65 683 100 703 L119 714 Q154 734 198 734 Q230 734 258 723 Q286 712 307 692 Q328 672 340.5 645 Q353 618 353 587 Q353 545 332.5 512 Q312 479 278 460 L258 449 Z M198 460 Q221 460 241.5 468.5 Q262 477 277 492.5 Q292 508 301 529 Q310 550 310 575 Q310 602 300 625 Q290 648 272 665.5 Q254 683 230 693 Q206 703 178 703 Q131 703 99.5 670 Q68 637 68 587 Q68 561 78 537.5 Q88 514 105.5 497 Q123 480 147 470 Q171 460 198 460 Z M44 377 L333 377 L333 346 L44 346 L44 377 Z " />
<glyph glyph-name="guillemotright" unicode="&#xbb;" horiz-adv-x="355" d="M168 57 L268 233 L166 413 L188 425 L324 247 L186 48 L168 57 Z M34 57 L134 233 L33 413 L54 425 L189 247 L52 48 L34 57 Z " />
<glyph glyph-name="onequarter" unicode="&#xbc;" horiz-adv-x="786" d="M198 687 L70 618 L53 646 L220 735 L242 735 L242 334 L198 334 L198 687 Z M586 764 L621 764 L199 -36 L165 -36 L586 764 Z M674 92 L441 92 L441 109 L673 401 L718 401 L491 123 L674 123 L674 235 L718 235 L718 123 L767 123 L767 92 L718 92 L718 0 L674 0 L674 92 Z " />
<glyph glyph-name="onehalf" unicode="&#xbd;" horiz-adv-x="786" d="M198 687 L70 618 L53 646 L220 735 L242 735 L242 334 L198 334 L198 687 Z M586 764 L621 764 L199 -36 L165 -36 L586 764 Z M467 18 L629 172 Q659 201 677 229 Q695 257 695 289 Q695 331 664 354.5 Q633 378 585 378 Q553 378 528.5 366.5 Q504 355 478 336 L465 357 Q476 365 489.5 373 Q503 381 520 389 Q563 409 605 409 Q633 409 657.5 401.5 Q682 394 700.5 380 Q719 366 730 345.5 Q741 325 741 299 Q741 262 721.5 229.5 Q702 197 669 167 L522 31 L748 33 L734 0 L467 0 L467 18 Z " />
<glyph glyph-name="threequarters" unicode="&#xbe;" horiz-adv-x="786" d="M238 343 Q221 335 202 330 Q183 325 162 325 Q98 325 45 366 L61 404 Q90 378 119.5 366 Q149 354 179 354 Q193 355 206.5 357.5 Q220 360 231 366 Q252 377 262.5 396 Q273 415 273 436 Q273 455 265 471.5 Q257 488 243 500 Q229 512 210 519 Q191 526 169 526 L133 526 L142 557 L188 557 Q221 557 242 578.5 Q263 600 263 628 Q263 647 254.5 663 Q246 679 232 689.5 Q218 700 200 706 Q182 712 162 712 Q133 712 109.5 702 Q86 692 63 675 L53 696 Q61 702 72.5 709 Q84 716 101 725 Q143 743 183 743 Q208 743 231 735.5 Q254 728 270.5 714.5 Q287 701 297 682.5 Q307 664 307 641 Q307 607 286 584 Q265 561 234 547 Q270 536 293.5 509 Q317 482 317 445 Q317 415 301 391.5 Q285 368 258 354 L238 343 Z M586 764 L621 764 L199 -36 L165 -36 L586 764 Z M674 92 L441 92 L441 109 L673 401 L718 401 L491 123 L674 123 L674 235 L718 235 L718 123 L767 123 L767 92 L718 92 L718 0 L674 0 L674 92 Z " />
<glyph glyph-name="questiondown" unicode="&#xbf;" horiz-adv-x="485" d="M441 -166 Q431 -177 414.5 -188.5 Q398 -200 374 -215 Q344 -232 308 -242 Q272 -252 233 -252 Q194 -252 159.5 -237.5 Q125 -223 99.5 -198.5 Q74 -174 59 -140.5 Q44 -107 44 -68 Q44 -31 56 -5 Q68 21 86 40.5 Q104 60 125.5 75.5 Q147 91 167 107 Q189 126 204 148 Q219 170 219 202 L219 307 L265 307 L265 212 Q265 174 248 150 Q231 126 207 106 Q189 91 168.5 77 Q148 63 131.5 45.5 Q115 28 104 4.5 Q93 -19 93 -53 Q93 -87 106 -116.5 Q119 -146 141 -168 Q163 -190 192.5 -202.5 Q222 -215 255 -215 Q286 -215 316.5 -208.5 Q347 -202 376 -185 Q390 -176 403 -165.5 Q416 -155 427 -144 L441 -166 Z M210 458 Q210 475 220.5 484 Q231 493 244 493 Q256 493 265 485 Q274 477 274 465 Q274 448 263 439 Q252 430 239 430 Q227 430 218.5 438 Q210 446 210 458 Z " />
<glyph glyph-name="Agrave" unicode="&#xc0;" horiz-adv-x="675" d="M312 704 L301 728 L354 728 L677 0 L625 0 L503 275 L164 275 L52 24 L58 0 L-2 0 L312 704 Z M487 311 L332 659 L180 311 L487 311 Z M234 932 L273 946 L380 791 L353 780 L234 932 Z " />
<glyph glyph-name="Aacute" unicode="&#xc1;" horiz-adv-x="675" d="M312 704 L301 728 L354 728 L677 0 L625 0 L503 275 L164 275 L52 24 L58 0 L-2 0 L312 704 Z M487 311 L332 659 L180 311 L487 311 Z M294 791 L401 946 L440 932 L321 780 L294 791 Z " />
<glyph glyph-name="Acircumflex" unicode="&#xc2;" horiz-adv-x="675" d="M312 704 L301 728 L354 728 L677 0 L625 0 L503 275 L164 275 L52 24 L58 0 L-2 0 L312 704 Z M487 311 L332 659 L180 311 L487 311 Z M212 797 L327 928 L347 928 L462 796 L433 785 L337 888 L239 785 L212 797 Z " />
<glyph glyph-name="Atilde" unicode="&#xc3;" horiz-adv-x="675" d="M312 704 L301 728 L354 728 L677 0 L625 0 L503 275 L164 275 L52 24 L58 0 L-2 0 L312 704 Z M487 311 L332 659 L180 311 L487 311 Z M204 810 Q211 836 230 854 Q249 872 277 872 Q292 872 307 867 Q322 862 336.5 856 Q351 850 365.5 845 Q380 840 395 840 Q413 840 425 850.5 Q437 861 443 877 L469 868 Q463 841 441.5 823.5 Q420 806 393 806 Q379 806 365.5 811 Q352 816 337.5 822 Q323 828 307.5 833 Q292 838 276 838 Q259 838 248.5 828 Q238 818 232 803 L204 810 Z " />
<glyph glyph-name="Adieresis" unicode="&#xc4;" horiz-adv-x="675" d="M312 704 L301 728 L354 728 L677 0 L625 0 L503 275 L164 275 L52 24 L58 0 L-2 0 L312 704 Z M487 311 L332 659 L180 311 L487 311 Z M453 837 Q453 823 443.5 814 Q434 805 421 805 Q407 805 398 814 Q389 823 389 837 Q389 849 398.5 859 Q408 869 421 869 Q434 869 443.5 859 Q453 849 453 837 Z M285 837 Q285 823 275.5 814 Q266 805 253 805 Q239 805 230 814 Q221 823 221 837 Q221 849 230.5 859 Q240 869 253 869 Q266 869 275.5 859 Q285 849 285 837 Z " />
<glyph glyph-name="Aring" unicode="&#xc5;" horiz-adv-x="675" d="M312 704 L301 728 L354 728 L677 0 L625 0 L503 275 L164 275 L52 24 L58 0 L-2 0 L312 704 Z M487 311 L332 659 L180 311 L487 311 Z M431 866 Q431 826 403 801 Q375 776 337 776 Q318 776 301 782.5 Q284 789 271 801 Q258 813 250.5 829.5 Q243 846 243 866 Q243 885 250.5 901.5 Q258 918 271 930 Q284 942 301 948.5 Q318 955 337 955 Q356 955 373 948.5 Q390 942 403 930 Q416 918 423.5 901.5 Q431 885 431 866 Z M400 866 Q400 892 381.5 909.5 Q363 927 337 927 Q311 927 292.5 909.5 Q274 892 274 866 Q274 840 292.5 822 Q311 804 337 804 Q363 804 381.5 822 Q400 840 400 866 Z " />
<glyph glyph-name="AE" unicode="&#xc6;" horiz-adv-x="964" d="M506 728 L918 728 L904 691 L568 691 L568 396 L908 396 L894 359 L568 359 L568 37 L928 37 L914 0 L519 0 L519 275 L236 275 L60 25 L60 0 L-7 0 L506 728 Z M519 311 L519 679 L261 311 L519 311 Z " />
<glyph glyph-name="Ccedilla" unicode="&#xc7;" horiz-adv-x="674" d="M313 -154 Q334 -162 356.5 -167.5 Q379 -173 402 -173 Q428 -173 448.5 -160.5 Q469 -148 469 -118 Q469 -102 460.5 -92 Q452 -82 439 -76.5 Q426 -71 411 -69 Q396 -67 383 -66 L387 -15 Q313 -11 248 19.5 Q183 50 135 100.5 Q87 151 59.5 217 Q32 283 32 357 Q32 409 45.5 457 Q59 505 83.5 546.5 Q108 588 142.5 622 Q177 656 219 680 L241 693 Q284 717 331 730.5 Q378 744 429 744 Q487 744 536 732.5 Q585 721 630 699 L613 654 Q568 680 519 693.5 Q470 707 410 707 Q365 707 323.5 697 Q282 687 246 666 Q171 621 126.5 542.5 Q82 464 82 370 Q82 298 109.5 234.5 Q137 171 184 123 Q231 75 295 47.5 Q359 20 431 20 Q491 20 539.5 33 Q588 46 632 70 L635 44 Q621 36 611 30 Q569 6 519.5 -4.5 Q470 -15 411 -16 L409 -45 Q428 -47 445.5 -51.5 Q463 -56 476.5 -65 Q490 -74 498 -87.5 Q506 -101 506 -119 Q506 -163 477 -182.5 Q448 -202 409 -202 Q383 -202 359 -195 Q335 -188 312 -178 L313 -154 Z " />
<glyph glyph-name="Egrave" unicode="&#xc8;" horiz-adv-x="518" d="M73 704 L59 728 L472 728 L458 691 L122 691 L122 396 L462 396 L448 359 L122 359 L122 37 L482 37 L468 0 L73 0 L73 704 Z M166 932 L205 946 L312 791 L285 780 L166 932 Z " />
<glyph glyph-name="Eacute" unicode="&#xc9;" horiz-adv-x="518" d="M73 704 L59 728 L472 728 L458 691 L122 691 L122 396 L462 396 L448 359 L122 359 L122 37 L482 37 L468 0 L73 0 L73 704 Z M226 791 L333 946 L372 932 L253 780 L226 791 Z " />
<glyph glyph-name="Ecircumflex" unicode="&#xca;" horiz-adv-x="518" d="M73 704 L59 728 L472 728 L458 691 L122 691 L122 396 L462 396 L448 359 L122 359 L122 37 L482 37 L468 0 L73 0 L73 704 Z M144 797 L259 928 L279 928 L394 796 L365 785 L269 888 L171 785 L144 797 Z " />
<glyph glyph-name="Edieresis" unicode="&#xcb;" horiz-adv-x="518" d="M73 704 L59 728 L472 728 L458 691 L122 691 L122 396 L462 396 L448 359 L122 359 L122 37 L482 37 L468 0 L73 0 L73 704 Z M385 837 Q385 823 375.5 814 Q366 805 353 805 Q339 805 330 814 Q321 823 321 837 Q321 849 330.5 859 Q340 869 353 869 Q366 869 375.5 859 Q385 849 385 837 Z M217 837 Q217 823 207.5 814 Q198 805 185 805 Q171 805 162 814 Q153 823 153 837 Q153 849 162.5 859 Q172 869 185 869 Q198 869 207.5 859 Q217 849 217 837 Z " />
<glyph glyph-name="Igrave" unicode="&#xcc;" horiz-adv-x="205" d="M78 704 L64 728 L127 728 L127 0 L78 0 L78 704 Z M-1 932 L38 946 L145 791 L118 780 L-1 932 Z " />
<glyph glyph-name="Iacute" unicode="&#xcd;" horiz-adv-x="205" d="M78 704 L64 728 L127 728 L127 0 L78 0 L78 704 Z M59 791 L166 946 L205 932 L86 780 L59 791 Z " />
<glyph glyph-name="Icircumflex" unicode="&#xce;" horiz-adv-x="205" d="M78 704 L64 728 L127 728 L127 0 L78 0 L78 704 Z M-23 797 L92 928 L112 928 L227 796 L198 785 L102 888 L4 785 L-23 797 Z " />
<glyph glyph-name="Idieresis" unicode="&#xcf;" horiz-adv-x="205" d="M78 704 L64 728 L127 728 L127 0 L78 0 L78 704 Z M218 837 Q218 823 208.5 814 Q199 805 186 805 Q172 805 163 814 Q154 823 154 837 Q154 849 163.5 859 Q173 869 186 869 Q199 869 208.5 859 Q218 849 218 837 Z M50 837 Q50 823 40.5 814 Q31 805 18 805 Q4 805 -5 814 Q-14 823 -14 837 Q-14 849 -4.5 859 Q5 869 18 869 Q31 869 40.5 859 Q50 849 50 837 Z " />
<glyph glyph-name="Eth" unicode="&#xd0;" horiz-adv-x="705" d="M83 361 L-5 361 L3 393 L83 393 L83 704 L69 728 L315 728 Q390 728 455.5 700 Q521 672 569.5 623 Q618 574 646 509 Q674 444 674 370 Q674 320 661 274.5 Q648 229 625 189.5 Q602 150 569.5 117 Q537 84 497 60 L475 48 Q435 25 389.5 12.5 Q344 0 294 0 L83 0 L83 361 Z M313 36 Q356 36 395.5 45.5 Q435 55 469 75 Q541 118 583.5 193 Q626 268 626 357 Q626 426 599.5 487 Q573 548 527.5 593 Q482 638 421 664.5 Q360 691 291 691 L132 691 L132 393 L338 393 L332 361 L132 361 L132 36 L313 36 Z " />
<glyph glyph-name="Ntilde" unicode="&#xd1;" horiz-adv-x="720" d="M73 700 L50 728 L113 728 L608 84 L608 704 L594 728 L647 728 L647 0 L609 0 L112 647 L112 0 L73 0 L73 700 Z M227 810 Q234 836 253 854 Q272 872 300 872 Q315 872 330 867 Q345 862 359.5 856 Q374 850 388.5 845 Q403 840 418 840 Q436 840 448 850.5 Q460 861 466 877 L492 868 Q486 841 464.5 823.5 Q443 806 416 806 Q402 806 388.5 811 Q375 816 360.5 822 Q346 828 330.5 833 Q315 838 299 838 Q282 838 271.5 828 Q261 818 255 803 L227 810 Z " />
<glyph glyph-name="Ograve" unicode="&#xd2;" horiz-adv-x="835" d="M596 34 Q554 11 507 -2.5 Q460 -16 408 -16 Q329 -16 260.5 13.5 Q192 43 141 93.5 Q90 144 61 212 Q32 280 32 357 Q32 409 45.5 456.5 Q59 504 83.5 545.5 Q108 587 142 621.5 Q176 656 218 681 L239 693 Q282 718 329.5 731 Q377 744 429 744 Q507 744 575.5 714.5 Q644 685 695 634 Q746 583 775 515 Q804 447 804 370 Q804 318 790.5 270 Q777 222 753 180 Q729 138 695 104 Q661 70 619 46 L596 34 Z M591 61 Q628 83 658 114.5 Q688 146 709.5 184 Q731 222 742.5 266 Q754 310 754 357 Q754 429 727 493 Q700 557 653 604.5 Q606 652 543 679.5 Q480 707 408 707 Q363 707 321.5 697.5 Q280 688 244 666 Q207 644 177 612.5 Q147 581 126 542.5 Q105 504 93.5 460.5 Q82 417 82 370 Q82 298 109 234 Q136 170 183 122.5 Q230 75 293 47.5 Q356 20 429 20 Q474 20 515 29.5 Q556 39 591 61 Z M314 932 L353 946 L460 791 L433 780 L314 932 Z " />
<glyph glyph-name="Oacute" unicode="&#xd3;" horiz-adv-x="835" d="M596 34 Q554 11 507 -2.5 Q460 -16 408 -16 Q329 -16 260.5 13.5 Q192 43 141 93.5 Q90 144 61 212 Q32 280 32 357 Q32 409 45.5 456.5 Q59 504 83.5 545.5 Q108 587 142 621.5 Q176 656 218 681 L239 693 Q282 718 329.5 731 Q377 744 429 744 Q507 744 575.5 714.5 Q644 685 695 634 Q746 583 775 515 Q804 447 804 370 Q804 318 790.5 270 Q777 222 753 180 Q729 138 695 104 Q661 70 619 46 L596 34 Z M591 61 Q628 83 658 114.5 Q688 146 709.5 184 Q731 222 742.5 266 Q754 310 754 357 Q754 429 727 493 Q700 557 653 604.5 Q606 652 543 679.5 Q480 707 408 707 Q363 707 321.5 697.5 Q280 688 244 666 Q207 644 177 612.5 Q147 581 126 542.5 Q105 504 93.5 460.5 Q82 417 82 370 Q82 298 109 234 Q136 170 183 122.5 Q230 75 293 47.5 Q356 20 429 20 Q474 20 515 29.5 Q556 39 591 61 Z M374 791 L481 946 L520 932 L401 780 L374 791 Z " />
<glyph glyph-name="Ocircumflex" unicode="&#xd4;" horiz-adv-x="835" d="M596 34 Q554 11 507 -2.5 Q460 -16 408 -16 Q329 -16 260.5 13.5 Q192 43 141 93.5 Q90 144 61 212 Q32 280 32 357 Q32 409 45.5 456.5 Q59 504 83.5 545.5 Q108 587 142 621.5 Q176 656 218 681 L239 693 Q282 718 329.5 731 Q377 744 429 744 Q507 744 575.5 714.5 Q644 685 695 634 Q746 583 775 515 Q804 447 804 370 Q804 318 790.5 270 Q777 222 753 180 Q729 138 695 104 Q661 70 619 46 L596 34 Z M591 61 Q628 83 658 114.5 Q688 146 709.5 184 Q731 222 742.5 266 Q754 310 754 357 Q754 429 727 493 Q700 557 653 604.5 Q606 652 543 679.5 Q480 707 408 707 Q363 707 321.5 697.5 Q280 688 244 666 Q207 644 177 612.5 Q147 581 126 542.5 Q105 504 93.5 460.5 Q82 417 82 370 Q82 298 109 234 Q136 170 183 122.5 Q230 75 293 47.5 Q356 20 429 20 Q474 20 515 29.5 Q556 39 591 61 Z M292 797 L407 928 L427 928 L542 796 L513 785 L417 888 L319 785 L292 797 Z " />
<glyph glyph-name="Otilde" unicode="&#xd5;" horiz-adv-x="835" d="M596 34 Q554 11 507 -2.5 Q460 -16 408 -16 Q329 -16 260.5 13.5 Q192 43 141 93.5 Q90 144 61 212 Q32 280 32 357 Q32 409 45.5 456.5 Q59 504 83.5 545.5 Q108 587 142 621.5 Q176 656 218 681 L239 693 Q282 718 329.5 731 Q377 744 429 744 Q507 744 575.5 714.5 Q644 685 695 634 Q746 583 775 515 Q804 447 804 370 Q804 318 790.5 270 Q777 222 753 180 Q729 138 695 104 Q661 70 619 46 L596 34 Z M591 61 Q628 83 658 114.5 Q688 146 709.5 184 Q731 222 742.5 266 Q754 310 754 357 Q754 429 727 493 Q700 557 653 604.5 Q606 652 543 679.5 Q480 707 408 707 Q363 707 321.5 697.5 Q280 688 244 666 Q207 644 177 612.5 Q147 581 126 542.5 Q105 504 93.5 460.5 Q82 417 82 370 Q82 298 109 234 Q136 170 183 122.5 Q230 75 293 47.5 Q356 20 429 20 Q474 20 515 29.5 Q556 39 591 61 Z M284 810 Q291 836 310 854 Q329 872 357 872 Q372 872 387 867 Q402 862 416.5 856 Q431 850 445.5 845 Q460 840 475 840 Q493 840 505 850.5 Q517 861 523 877 L549 868 Q543 841 521.5 823.5 Q500 806 473 806 Q459 806 445.5 811 Q432 816 417.5 822 Q403 828 387.5 833 Q372 838 356 838 Q339 838 328.5 828 Q318 818 312 803 L284 810 Z " />
<glyph glyph-name="Odieresis" unicode="&#xd6;" horiz-adv-x="835" d="M596 34 Q554 11 507 -2.5 Q460 -16 408 -16 Q329 -16 260.5 13.5 Q192 43 141 93.5 Q90 144 61 212 Q32 280 32 357 Q32 409 45.5 456.5 Q59 504 83.5 545.5 Q108 587 142 621.5 Q176 656 218 681 L239 693 Q282 718 329.5 731 Q377 744 429 744 Q507 744 575.5 714.5 Q644 685 695 634 Q746 583 775 515 Q804 447 804 370 Q804 318 790.5 270 Q777 222 753 180 Q729 138 695 104 Q661 70 619 46 L596 34 Z M591 61 Q628 83 658 114.5 Q688 146 709.5 184 Q731 222 742.5 266 Q754 310 754 357 Q754 429 727 493 Q700 557 653 604.5 Q606 652 543 679.5 Q480 707 408 707 Q363 707 321.5 697.5 Q280 688 244 666 Q207 644 177 612.5 Q147 581 126 542.5 Q105 504 93.5 460.5 Q82 417 82 370 Q82 298 109 234 Q136 170 183 122.5 Q230 75 293 47.5 Q356 20 429 20 Q474 20 515 29.5 Q556 39 591 61 Z M533 837 Q533 823 523.5 814 Q514 805 501 805 Q487 805 478 814 Q469 823 469 837 Q469 849 478.5 859 Q488 869 501 869 Q514 869 523.5 859 Q533 849 533 837 Z M365 837 Q365 823 355.5 814 Q346 805 333 805 Q319 805 310 814 Q301 823 301 837 Q301 849 310.5 859 Q320 869 333 869 Q346 869 355.5 859 Q365 849 365 837 Z " />
<glyph glyph-name="multiply" unicode="&#xd7;" horiz-adv-x="556" d="M59 60 L250 250 L59 439 L88 469 L278 278 L468 469 L497 440 L306 250 L497 60 L468 31 L278 222 L88 31 L59 60 Z " />
<glyph glyph-name="Oslash" unicode="&#xd8;" horiz-adv-x="835" d="M60 -35 L158 80 Q101 131 68 202 Q35 273 35 357 Q35 409 48.5 456.5 Q62 504 86.5 545.5 Q111 587 145 621.5 Q179 656 220 681 L243 693 Q285 718 332.5 731 Q380 744 432 744 Q497 744 553.5 724 Q610 704 658 667 L733 754 L747 771 L774 751 L684 646 Q741 595 773.5 524.5 Q806 454 806 370 Q806 318 792.5 270.5 Q779 223 755 181.5 Q731 140 696.5 105.5 Q662 71 620 46 L599 34 Q516 -16 410 -16 Q346 -16 289 3.5 Q232 23 185 60 L84 -57 L60 -35 Z M214 97 Q259 60 314 40 Q369 20 432 20 Q476 20 517 29.5 Q558 39 594 61 Q631 83 661.5 114.5 Q692 146 713 184 Q734 222 745.5 266 Q757 310 757 357 Q757 432 729.5 495.5 Q702 559 653 607 L214 97 Z M627 629 Q583 667 528 687 Q473 707 410 707 Q365 707 323.5 697.5 Q282 688 247 666 Q209 644 179 612.5 Q149 581 128 542.5 Q107 504 95.5 460.5 Q84 417 84 370 Q84 295 112 231 Q140 167 189 120 L627 629 Z " />
<glyph glyph-name="Ugrave" unicode="&#xd9;" horiz-adv-x="661" d="M481 24 Q446 4 407.5 -6 Q369 -16 317 -16 Q266 -16 221 2.5 Q176 21 142.5 53 Q109 85 89.5 128 Q70 171 70 220 L70 704 L56 728 L119 728 L119 235 Q119 191 136.5 151.5 Q154 112 184 83 Q214 54 254 37 Q294 20 340 20 Q382 20 414.5 27.5 Q447 35 476 52 Q492 60 507 70.5 Q522 81 539 93 L539 704 L525 728 L588 728 L588 92 Q565 75 544.5 61.5 Q524 48 504 37 L481 24 Z M227 932 L266 946 L373 791 L346 780 L227 932 Z " />
<glyph glyph-name="Uacute" unicode="&#xda;" horiz-adv-x="661" d="M481 24 Q446 4 407.5 -6 Q369 -16 317 -16 Q266 -16 221 2.5 Q176 21 142.5 53 Q109 85 89.5 128 Q70 171 70 220 L70 704 L56 728 L119 728 L119 235 Q119 191 136.5 151.5 Q154 112 184 83 Q214 54 254 37 Q294 20 340 20 Q382 20 414.5 27.5 Q447 35 476 52 Q492 60 507 70.5 Q522 81 539 93 L539 704 L525 728 L588 728 L588 92 Q565 75 544.5 61.5 Q524 48 504 37 L481 24 Z M287 791 L394 946 L433 932 L314 780 L287 791 Z " />
<glyph glyph-name="Ucircumflex" unicode="&#xdb;" horiz-adv-x="661" d="M481 24 Q446 4 407.5 -6 Q369 -16 317 -16 Q266 -16 221 2.5 Q176 21 142.5 53 Q109 85 89.5 128 Q70 171 70 220 L70 704 L56 728 L119 728 L119 235 Q119 191 136.5 151.5 Q154 112 184 83 Q214 54 254 37 Q294 20 340 20 Q382 20 414.5 27.5 Q447 35 476 52 Q492 60 507 70.5 Q522 81 539 93 L539 704 L525 728 L588 728 L588 92 Q565 75 544.5 61.5 Q524 48 504 37 L481 24 Z M205 797 L320 928 L340 928 L455 796 L426 785 L330 888 L232 785 L205 797 Z " />
<glyph glyph-name="Udieresis" unicode="&#xdc;" horiz-adv-x="661" d="M481 24 Q446 4 407.5 -6 Q369 -16 317 -16 Q266 -16 221 2.5 Q176 21 142.5 53 Q109 85 89.5 128 Q70 171 70 220 L70 704 L56 728 L119 728 L119 235 Q119 191 136.5 151.5 Q154 112 184 83 Q214 54 254 37 Q294 20 340 20 Q382 20 414.5 27.5 Q447 35 476 52 Q492 60 507 70.5 Q522 81 539 93 L539 704 L525 728 L588 728 L588 92 Q565 75 544.5 61.5 Q524 48 504 37 L481 24 Z M446 837 Q446 823 436.5 814 Q427 805 414 805 Q400 805 391 814 Q382 823 382 837 Q382 849 391.5 859 Q401 869 414 869 Q427 869 436.5 859 Q446 849 446 837 Z M278 837 Q278 823 268.5 814 Q259 805 246 805 Q232 805 223 814 Q214 823 214 837 Q214 849 223.5 859 Q233 869 246 869 Q259 869 268.5 859 Q278 849 278 837 Z " />
<glyph glyph-name="Yacute" unicode="&#xdd;" horiz-adv-x="590" d="M274 292 L5 728 L65 728 L305 340 L528 704 L525 728 L586 728 L322 301 L322 0 L274 0 L274 292 Z M252 791 L359 946 L398 932 L279 780 L252 791 Z " />
<glyph glyph-name="Thorn" unicode="&#xde;" horiz-adv-x="537" d="M73 704 L59 728 L122 728 L122 601 L286 601 Q332 601 371.5 583.5 Q411 566 440.5 536.5 Q470 507 487 467.5 Q504 428 504 384 Q504 324 475 275 Q446 226 398 199 L376 186 Q350 172 322 164 Q294 156 263 156 L122 156 L122 0 L73 0 L73 704 Z M284 192 Q308 192 329.5 197 Q351 202 371 214 Q411 238 434 279.5 Q457 321 457 372 Q457 411 441.5 446 Q426 481 399.5 507.5 Q373 534 337.5 549 Q302 564 262 564 L122 564 L122 192 L284 192 Z " />
<glyph glyph-name="germandbls" unicode="&#xdf;" horiz-adv-x="515" d="M69 445 L-3 445 L10 480 L69 480 L69 528 Q69 556 71 581.5 Q73 607 80.5 629.5 Q88 652 102.5 670.5 Q117 689 142 703 L163 715 Q181 725 201 730.5 Q221 736 242 736 Q270 736 291 729 Q337 715 365 677 Q393 639 393 592 Q393 551 375 526.5 Q357 502 335.5 482.5 Q314 463 296 442.5 Q278 422 278 389 Q278 361 293 345 Q308 329 330.5 317 Q353 305 379.5 294 Q406 283 428.5 265.5 Q451 248 466 220.5 Q481 193 481 149 Q481 107 462.5 75 Q444 43 411 24 L390 12 Q351 -12 296 -12 Q285 -12 274.5 -10.5 Q264 -9 253 -7 Q231 -2 209.5 8 Q188 18 170 35 L187 74 Q216 48 248.5 35.5 Q281 23 315 23 Q366 23 399.5 53 Q433 83 433 137 Q433 176 418 199.5 Q403 223 381 239 Q359 255 332.5 266 Q306 277 284 290.5 Q262 304 247 323.5 Q232 343 232 375 Q232 412 250 433.5 Q268 455 290 474 Q312 493 330 515.5 Q348 538 348 577 Q348 603 338 625 Q328 647 310.5 663.5 Q293 680 270 690 Q247 700 221 700 Q198 700 178.5 691 Q159 682 145 666 Q131 650 123 629.5 Q115 609 115 587 L115 0 L69 0 L69 445 Z " />
<glyph glyph-name="agrave" unicode="&#xe0;" horiz-adv-x="467" d="M428 -4 Q380 -4 361.5 13 Q343 30 340 70 Q328 56 309.5 42.5 Q291 29 277 21 L263 12 Q221 -12 179 -12 Q150 -12 123.5 -3 Q97 6 77 22.5 Q57 39 45 63.5 Q33 88 33 119 Q33 165 53 196 Q73 227 107 247 L129 259 Q167 282 221 291 Q275 300 336 302 Q336 313 336 323.5 Q336 334 335 348 Q332 403 299.5 430 Q267 457 214 457 Q178 457 145.5 448 Q113 439 88 425 L79 447 Q87 452 102 459 Q129 471 163.5 481.5 Q198 492 239 492 Q269 492 295 484 Q321 476 341 459.5 Q361 443 372.5 418 Q384 393 384 360 L384 105 Q384 85 387 70.5 Q390 56 397.5 47 Q405 38 418.5 33.5 Q432 29 454 29 L457 29 L443 -4 L428 -4 Z M336 272 Q277 270 224 263.5 Q171 257 129 234 Q106 217 93 192 Q80 167 80 131 Q80 105 90.5 84.5 Q101 64 118.5 50 Q136 36 160 28.5 Q184 21 211 21 Q225 21 242 27.5 Q259 34 276 45.5 Q293 57 309 72.5 Q325 88 336 106 L336 272 Z M130 692 L169 706 L276 551 L249 540 L130 692 Z " />
<glyph glyph-name="aacute" unicode="&#xe1;" horiz-adv-x="467" d="M428 -4 Q380 -4 361.5 13 Q343 30 340 70 Q328 56 309.5 42.5 Q291 29 277 21 L263 12 Q221 -12 179 -12 Q150 -12 123.5 -3 Q97 6 77 22.5 Q57 39 45 63.5 Q33 88 33 119 Q33 165 53 196 Q73 227 107 247 L129 259 Q167 282 221 291 Q275 300 336 302 Q336 313 336 323.5 Q336 334 335 348 Q332 403 299.5 430 Q267 457 214 457 Q178 457 145.5 448 Q113 439 88 425 L79 447 Q87 452 102 459 Q129 471 163.5 481.5 Q198 492 239 492 Q269 492 295 484 Q321 476 341 459.5 Q361 443 372.5 418 Q384 393 384 360 L384 105 Q384 85 387 70.5 Q390 56 397.5 47 Q405 38 418.5 33.5 Q432 29 454 29 L457 29 L443 -4 L428 -4 Z M336 272 Q277 270 224 263.5 Q171 257 129 234 Q106 217 93 192 Q80 167 80 131 Q80 105 90.5 84.5 Q101 64 118.5 50 Q136 36 160 28.5 Q184 21 211 21 Q225 21 242 27.5 Q259 34 276 45.5 Q293 57 309 72.5 Q325 88 336 106 L336 272 Z M190 551 L297 706 L336 692 L217 540 L190 551 Z " />
<glyph glyph-name="acircumflex" unicode="&#xe2;" horiz-adv-x="467" d="M428 -4 Q380 -4 361.5 13 Q343 30 340 70 Q328 56 309.5 42.5 Q291 29 277 21 L263 12 Q221 -12 179 -12 Q150 -12 123.5 -3 Q97 6 77 22.5 Q57 39 45 63.5 Q33 88 33 119 Q33 165 53 196 Q73 227 107 247 L129 259 Q167 282 221 291 Q275 300 336 302 Q336 313 336 323.5 Q336 334 335 348 Q332 403 299.5 430 Q267 457 214 457 Q178 457 145.5 448 Q113 439 88 425 L79 447 Q87 452 102 459 Q129 471 163.5 481.5 Q198 492 239 492 Q269 492 295 484 Q321 476 341 459.5 Q361 443 372.5 418 Q384 393 384 360 L384 105 Q384 85 387 70.5 Q390 56 397.5 47 Q405 38 418.5 33.5 Q432 29 454 29 L457 29 L443 -4 L428 -4 Z M336 272 Q277 270 224 263.5 Q171 257 129 234 Q106 217 93 192 Q80 167 80 131 Q80 105 90.5 84.5 Q101 64 118.5 50 Q136 36 160 28.5 Q184 21 211 21 Q225 21 242 27.5 Q259 34 276 45.5 Q293 57 309 72.5 Q325 88 336 106 L336 272 Z M108 557 L223 688 L243 688 L358 556 L329 545 L233 648 L135 545 L108 557 Z " />
<glyph glyph-name="atilde" unicode="&#xe3;" horiz-adv-x="467" d="M428 -4 Q380 -4 361.5 13 Q343 30 340 70 Q328 56 309.5 42.5 Q291 29 277 21 L263 12 Q221 -12 179 -12 Q150 -12 123.5 -3 Q97 6 77 22.5 Q57 39 45 63.5 Q33 88 33 119 Q33 165 53 196 Q73 227 107 247 L129 259 Q167 282 221 291 Q275 300 336 302 Q336 313 336 323.5 Q336 334 335 348 Q332 403 299.5 430 Q267 457 214 457 Q178 457 145.5 448 Q113 439 88 425 L79 447 Q87 452 102 459 Q129 471 163.5 481.5 Q198 492 239 492 Q269 492 295 484 Q321 476 341 459.5 Q361 443 372.5 418 Q384 393 384 360 L384 105 Q384 85 387 70.5 Q390 56 397.5 47 Q405 38 418.5 33.5 Q432 29 454 29 L457 29 L443 -4 L428 -4 Z M336 272 Q277 270 224 263.5 Q171 257 129 234 Q106 217 93 192 Q80 167 80 131 Q80 105 90.5 84.5 Q101 64 118.5 50 Q136 36 160 28.5 Q184 21 211 21 Q225 21 242 27.5 Q259 34 276 45.5 Q293 57 309 72.5 Q325 88 336 106 L336 272 Z M100 570 Q107 596 126 614 Q145 632 173 632 Q188 632 203 627 Q218 622 232.5 616 Q247 610 261.5 605 Q276 600 291 600 Q309 600 321 610.5 Q333 621 339 637 L365 628 Q359 601 337.5 583.5 Q316 566 289 566 Q275 566 261.5 571 Q248 576 233.5 582 Q219 588 203.5 593 Q188 598 172 598 Q155 598 144.5 588 Q134 578 128 563 L100 570 Z " />
<glyph glyph-name="adieresis" unicode="&#xe4;" horiz-adv-x="467" d="M428 -4 Q380 -4 361.5 13 Q343 30 340 70 Q328 56 309.5 42.5 Q291 29 277 21 L263 12 Q221 -12 179 -12 Q150 -12 123.5 -3 Q97 6 77 22.5 Q57 39 45 63.5 Q33 88 33 119 Q33 165 53 196 Q73 227 107 247 L129 259 Q167 282 221 291 Q275 300 336 302 Q336 313 336 323.5 Q336 334 335 348 Q332 403 299.5 430 Q267 457 214 457 Q178 457 145.5 448 Q113 439 88 425 L79 447 Q87 452 102 459 Q129 471 163.5 481.5 Q198 492 239 492 Q269 492 295 484 Q321 476 341 459.5 Q361 443 372.5 418 Q384 393 384 360 L384 105 Q384 85 387 70.5 Q390 56 397.5 47 Q405 38 418.5 33.5 Q432 29 454 29 L457 29 L443 -4 L428 -4 Z M336 272 Q277 270 224 263.5 Q171 257 129 234 Q106 217 93 192 Q80 167 80 131 Q80 105 90.5 84.5 Q101 64 118.5 50 Q136 36 160 28.5 Q184 21 211 21 Q225 21 242 27.5 Q259 34 276 45.5 Q293 57 309 72.5 Q325 88 336 106 L336 272 Z M349 597 Q349 583 339.5 574 Q330 565 317 565 Q303 565 294 574 Q285 583 285 597 Q285 609 294.5 619 Q304 629 317 629 Q330 629 339.5 619 Q349 609 349 597 Z M181 597 Q181 583 171.5 574 Q162 565 149 565 Q135 565 126 574 Q117 583 117 597 Q117 609 126.5 619 Q136 629 149 629 Q162 629 171.5 619 Q181 609 181 597 Z " />
<glyph glyph-name="aring" unicode="&#xe5;" horiz-adv-x="467" d="M428 -4 Q380 -4 361.5 13 Q343 30 340 70 Q328 56 309.5 42.5 Q291 29 277 21 L263 12 Q221 -12 179 -12 Q150 -12 123.5 -3 Q97 6 77 22.5 Q57 39 45 63.5 Q33 88 33 119 Q33 165 53 196 Q73 227 107 247 L129 259 Q167 282 221 291 Q275 300 336 302 Q336 313 336 323.5 Q336 334 335 348 Q332 403 299.5 430 Q267 457 214 457 Q178 457 145.5 448 Q113 439 88 425 L79 447 Q87 452 102 459 Q129 471 163.5 481.5 Q198 492 239 492 Q269 492 295 484 Q321 476 341 459.5 Q361 443 372.5 418 Q384 393 384 360 L384 105 Q384 85 387 70.5 Q390 56 397.5 47 Q405 38 418.5 33.5 Q432 29 454 29 L457 29 L443 -4 L428 -4 Z M336 272 Q277 270 224 263.5 Q171 257 129 234 Q106 217 93 192 Q80 167 80 131 Q80 105 90.5 84.5 Q101 64 118.5 50 Q136 36 160 28.5 Q184 21 211 21 Q225 21 242 27.5 Q259 34 276 45.5 Q293 57 309 72.5 Q325 88 336 106 L336 272 Z M327 626 Q327 586 299 561 Q271 536 233 536 Q214 536 197 542.5 Q180 549 167 561 Q154 573 146.5 589.5 Q139 606 139 626 Q139 645 146.5 661.5 Q154 678 167 690 Q180 702 197 708.5 Q214 715 233 715 Q252 715 269 708.5 Q286 702 299 690 Q312 678 319.5 661.5 Q327 645 327 626 Z M296 626 Q296 652 277.5 669.5 Q259 687 233 687 Q207 687 188.5 669.5 Q170 652 170 626 Q170 600 188.5 582 Q207 564 233 564 Q259 564 277.5 582 Q296 600 296 626 Z " />
<glyph glyph-name="ae" unicode="&#xe6;" horiz-adv-x="837" d="M270 12 Q251 1 229 -5.5 Q207 -12 184 -12 Q153 -12 125.5 -3 Q98 6 77.5 22.5 Q57 39 45 63.5 Q33 88 33 119 Q33 164 53 191 Q73 218 105 235 L117 242 Q138 255 164 262 Q190 269 219.5 273 Q249 277 281 278 Q313 279 346 279 Q346 320 342 353 Q338 386 325 409 Q312 432 287 444.5 Q262 457 219 457 Q181 457 145 447.5 Q109 438 88 425 L78 444 Q118 468 160.5 480 Q203 492 244 492 Q311 492 348.5 458 Q386 424 386 362 Q400 391 423.5 415.5 Q447 440 473 455 L488 464 Q534 492 594 492 Q633 492 667.5 478.5 Q702 465 729.5 441 Q757 417 776 383.5 Q795 350 802 309 Q804 301 805.5 282 Q807 263 807 248 L393 248 Q392 201 408 160 Q424 119 453 88.5 Q482 58 521.5 40 Q561 22 607 22 Q630 22 648.5 24.5 Q667 27 685.5 34.5 Q704 42 725.5 56 Q747 70 776 94 L789 74 Q749 37 695.5 12.5 Q642 -12 585 -12 Q516 -12 462 21.5 Q408 55 379 109 Q345 59 292 25 L270 12 Z M365 136 Q346 182 346 249 Q315 248 284.5 247.5 Q254 247 225 245 Q196 243 170.5 237.5 Q145 232 124 222 Q81 190 81 133 Q81 107 91 86.5 Q101 66 118.5 51.5 Q136 37 159.5 29.5 Q183 22 210 22 Q235 22 257.5 31.5 Q280 41 299.5 57 Q319 73 335.5 93.5 Q352 114 365 136 Z M763 280 Q760 318 744 350.5 Q728 383 703.5 406.5 Q679 430 646 443.5 Q613 457 575 457 Q533 457 490 437 Q452 411 426.5 371 Q401 331 395 280 L763 280 Z " />
<glyph glyph-name="ccedilla" unicode="&#xe7;" horiz-adv-x="471" d="M183 -154 Q204 -162 226.5 -167.5 Q249 -173 272 -173 Q298 -173 318.5 -160.5 Q339 -148 339 -118 Q339 -102 330.5 -92 Q322 -82 309 -76.5 Q296 -71 281 -69 Q266 -67 253 -66 L258 -11 Q209 -7 167 13 Q125 33 94.5 66 Q64 99 46.5 141.5 Q29 184 29 233 Q29 302 62.5 357.5 Q96 413 151 445 L173 458 Q201 474 233 483 Q265 492 298 492 Q336 492 368 484.5 Q400 477 429 463 L413 422 Q356 457 279 457 Q252 457 226.5 451.5 Q201 446 180 433 Q132 405 105 355.5 Q78 306 78 246 Q78 200 95.5 159.5 Q113 119 143 88.5 Q173 58 213.5 40.5 Q254 23 300 23 Q334 23 365.5 30 Q397 37 432 54 L432 31 Q398 12 362.5 1 Q327 -10 282 -12 L279 -45 Q298 -47 315.5 -51.5 Q333 -56 346.5 -65 Q360 -74 368 -87.5 Q376 -101 376 -119 Q376 -163 347 -182.5 Q318 -202 279 -202 Q253 -202 229 -195 Q205 -188 182 -178 L183 -154 Z " />
<glyph glyph-name="egrave" unicode="&#xe8;" horiz-adv-x="538" d="M488 74 Q479 66 459 51.5 Q439 37 411 23 Q383 9 348.5 -1.5 Q314 -12 277 -12 Q226 -12 180.5 7 Q135 26 101.5 59 Q68 92 48.5 136.5 Q29 181 29 233 Q29 305 62.5 360.5 Q96 416 150 448 L171 460 Q224 492 286 492 Q330 492 370.5 474.5 Q411 457 441.5 426.5 Q472 396 490 355 Q508 314 508 267 L508 248 L77 248 Q76 203 93 162 Q110 121 140.5 90 Q171 59 212 40.5 Q253 22 299 22 Q327 22 347 24.5 Q367 27 385.5 34.5 Q404 42 424.5 57 Q445 72 474 96 L488 74 Z M462 280 Q459 318 442 350.5 Q425 383 399 406.5 Q373 430 338.5 443.5 Q304 457 266 457 Q242 457 219 452 Q196 447 176 435 Q137 411 111.5 370.5 Q86 330 80 280 L462 280 Z M172 692 L211 706 L318 551 L291 540 L172 692 Z " />
<glyph glyph-name="eacute" unicode="&#xe9;" horiz-adv-x="538" d="M488 74 Q479 66 459 51.5 Q439 37 411 23 Q383 9 348.5 -1.5 Q314 -12 277 -12 Q226 -12 180.5 7 Q135 26 101.5 59 Q68 92 48.5 136.5 Q29 181 29 233 Q29 305 62.5 360.5 Q96 416 150 448 L171 460 Q224 492 286 492 Q330 492 370.5 474.5 Q411 457 441.5 426.5 Q472 396 490 355 Q508 314 508 267 L508 248 L77 248 Q76 203 93 162 Q110 121 140.5 90 Q171 59 212 40.5 Q253 22 299 22 Q327 22 347 24.5 Q367 27 385.5 34.5 Q404 42 424.5 57 Q445 72 474 96 L488 74 Z M462 280 Q459 318 442 350.5 Q425 383 399 406.5 Q373 430 338.5 443.5 Q304 457 266 457 Q242 457 219 452 Q196 447 176 435 Q137 411 111.5 370.5 Q86 330 80 280 L462 280 Z M232 551 L339 706 L378 692 L259 540 L232 551 Z " />
<glyph glyph-name="ecircumflex" unicode="&#xea;" horiz-adv-x="538" d="M488 74 Q479 66 459 51.5 Q439 37 411 23 Q383 9 348.5 -1.5 Q314 -12 277 -12 Q226 -12 180.5 7 Q135 26 101.5 59 Q68 92 48.5 136.5 Q29 181 29 233 Q29 305 62.5 360.5 Q96 416 150 448 L171 460 Q224 492 286 492 Q330 492 370.5 474.5 Q411 457 441.5 426.5 Q472 396 490 355 Q508 314 508 267 L508 248 L77 248 Q76 203 93 162 Q110 121 140.5 90 Q171 59 212 40.5 Q253 22 299 22 Q327 22 347 24.5 Q367 27 385.5 34.5 Q404 42 424.5 57 Q445 72 474 96 L488 74 Z M462 280 Q459 318 442 350.5 Q425 383 399 406.5 Q373 430 338.5 443.5 Q304 457 266 457 Q242 457 219 452 Q196 447 176 435 Q137 411 111.5 370.5 Q86 330 80 280 L462 280 Z M150 557 L265 688 L285 688 L400 556 L371 545 L275 648 L177 545 L150 557 Z " />
<glyph glyph-name="edieresis" unicode="&#xeb;" horiz-adv-x="538" d="M488 74 Q479 66 459 51.5 Q439 37 411 23 Q383 9 348.5 -1.5 Q314 -12 277 -12 Q226 -12 180.5 7 Q135 26 101.5 59 Q68 92 48.5 136.5 Q29 181 29 233 Q29 305 62.5 360.5 Q96 416 150 448 L171 460 Q224 492 286 492 Q330 492 370.5 474.5 Q411 457 441.5 426.5 Q472 396 490 355 Q508 314 508 267 L508 248 L77 248 Q76 203 93 162 Q110 121 140.5 90 Q171 59 212 40.5 Q253 22 299 22 Q327 22 347 24.5 Q367 27 385.5 34.5 Q404 42 424.5 57 Q445 72 474 96 L488 74 Z M462 280 Q459 318 442 350.5 Q425 383 399 406.5 Q373 430 338.5 443.5 Q304 457 266 457 Q242 457 219 452 Q196 447 176 435 Q137 411 111.5 370.5 Q86 330 80 280 L462 280 Z M391 597 Q391 583 381.5 574 Q372 565 359 565 Q345 565 336 574 Q327 583 327 597 Q327 609 336.5 619 Q346 629 359 629 Q372 629 381.5 619 Q391 609 391 597 Z M223 597 Q223 583 213.5 574 Q204 565 191 565 Q177 565 168 574 Q159 583 159 597 Q159 609 168.5 619 Q178 629 191 629 Q204 629 213.5 619 Q223 609 223 597 Z " />
<glyph glyph-name="igrave" unicode="&#xec;" horiz-adv-x="181" d="M67 448 L53 472 L115 492 L115 0 L67 0 L67 448 Z M-13 692 L26 706 L133 551 L106 540 L-13 692 Z " />
<glyph glyph-name="iacute" unicode="&#xed;" horiz-adv-x="181" d="M67 448 L53 472 L115 492 L115 0 L67 0 L67 448 Z M47 551 L154 706 L193 692 L74 540 L47 551 Z " />
<glyph glyph-name="icircumflex" unicode="&#xee;" horiz-adv-x="181" d="M67 448 L53 472 L115 492 L115 0 L67 0 L67 448 Z M-35 557 L80 688 L100 688 L215 556 L186 545 L90 648 L-8 545 L-35 557 Z " />
<glyph glyph-name="idieresis" unicode="&#xef;" horiz-adv-x="181" d="M67 448 L53 472 L115 492 L115 0 L67 0 L67 448 Z M206 597 Q206 583 196.5 574 Q187 565 174 565 Q160 565 151 574 Q142 583 142 597 Q142 609 151.5 619 Q161 629 174 629 Q187 629 196.5 619 Q206 609 206 597 Z M38 597 Q38 583 28.5 574 Q19 565 6 565 Q-8 565 -17 574 Q-26 583 -26 597 Q-26 609 -16.5 619 Q-7 629 6 629 Q19 629 28.5 619 Q38 609 38 597 Z " />
<glyph glyph-name="eth" unicode="&#xf0;" horiz-adv-x="551" d="M386 21 Q333 -12 265 -12 Q217 -12 174 6.5 Q131 25 99 58 Q67 91 48 136 Q29 181 29 233 Q29 301 61 356.5 Q93 412 145 444 L166 457 Q214 487 272 488 Q310 489 345 477 Q380 465 409 443 Q379 490 341 531 Q303 572 261 607 L139 518 L119 539 L239 627 Q211 650 181.5 670 Q152 690 122 709 L157 736 Q217 700 275 652 L389 736 L408 714 L297 633 Q336 599 376.5 556 Q417 513 449 463.5 Q481 414 501.5 359 Q522 304 522 246 Q522 177 490 121 Q458 65 406 33 L386 21 Z M380 46 Q424 76 449.5 126 Q475 176 475 234 Q475 283 458.5 324.5 Q442 366 413.5 395 Q385 424 347 440.5 Q309 457 265 457 Q241 457 217.5 452 Q194 447 173 433 Q129 405 103.5 355 Q78 305 78 246 Q78 200 94 159.5 Q110 119 138.5 88.5 Q167 58 204.5 40.5 Q242 23 286 23 Q312 23 335.5 29 Q359 35 380 46 Z " />
<glyph glyph-name="ntilde" unicode="&#xf1;" horiz-adv-x="519" d="M67 448 L53 475 L115 492 L115 407 Q127 420 142.5 431.5 Q158 443 172 451 L187 461 Q246 492 300 492 Q332 492 361 481.5 Q390 471 412 451 Q434 431 447 401.5 Q460 372 460 335 L460 0 L412 0 L412 321 Q412 354 401 379.5 Q390 405 371 422 Q352 439 326.5 448 Q301 457 273 457 Q222 457 185 434 Q148 411 115 374 L115 0 L67 0 L67 448 Z M126 570 Q133 596 152 614 Q171 632 199 632 Q214 632 229 627 Q244 622 258.5 616 Q273 610 287.5 605 Q302 600 317 600 Q335 600 347 610.5 Q359 621 365 637 L391 628 Q385 601 363.5 583.5 Q342 566 315 566 Q301 566 287.5 571 Q274 576 259.5 582 Q245 588 229.5 593 Q214 598 198 598 Q181 598 170.5 588 Q160 578 154 563 L126 570 Z " />
<glyph glyph-name="ograve" unicode="&#xf2;" horiz-adv-x="573" d="M401 21 Q373 5 341 -3.5 Q309 -12 275 -12 Q225 -12 180 6.5 Q135 25 101.5 58 Q68 91 48.5 136 Q29 181 29 233 Q29 303 62.5 358.5 Q96 414 151 446 L172 459 Q200 475 231.5 483.5 Q263 492 297 492 Q348 492 393 473 Q438 454 471.5 421 Q505 388 524.5 343 Q544 298 544 246 Q544 177 510.5 121 Q477 65 423 33 L401 21 Z M396 46 Q442 76 469.5 125.5 Q497 175 497 233 Q497 279 479.5 320 Q462 361 432 391.5 Q402 422 361.5 439.5 Q321 457 275 457 Q249 457 224.5 452 Q200 447 178 433 Q131 405 104.5 355 Q78 305 78 246 Q78 200 95 159.5 Q112 119 141.5 88.5 Q171 58 211 40.5 Q251 23 297 23 Q324 23 348.5 29 Q373 35 396 46 Z M183 692 L222 706 L329 551 L302 540 L183 692 Z " />
<glyph glyph-name="oacute" unicode="&#xf3;" horiz-adv-x="573" d="M401 21 Q373 5 341 -3.5 Q309 -12 275 -12 Q225 -12 180 6.5 Q135 25 101.5 58 Q68 91 48.5 136 Q29 181 29 233 Q29 303 62.5 358.5 Q96 414 151 446 L172 459 Q200 475 231.5 483.5 Q263 492 297 492 Q348 492 393 473 Q438 454 471.5 421 Q505 388 524.5 343 Q544 298 544 246 Q544 177 510.5 121 Q477 65 423 33 L401 21 Z M396 46 Q442 76 469.5 125.5 Q497 175 497 233 Q497 279 479.5 320 Q462 361 432 391.5 Q402 422 361.5 439.5 Q321 457 275 457 Q249 457 224.5 452 Q200 447 178 433 Q131 405 104.5 355 Q78 305 78 246 Q78 200 95 159.5 Q112 119 141.5 88.5 Q171 58 211 40.5 Q251 23 297 23 Q324 23 348.5 29 Q373 35 396 46 Z M243 551 L350 706 L389 692 L270 540 L243 551 Z " />
<glyph glyph-name="ocircumflex" unicode="&#xf4;" horiz-adv-x="573" d="M401 21 Q373 5 341 -3.5 Q309 -12 275 -12 Q225 -12 180 6.5 Q135 25 101.5 58 Q68 91 48.5 136 Q29 181 29 233 Q29 303 62.5 358.5 Q96 414 151 446 L172 459 Q200 475 231.5 483.5 Q263 492 297 492 Q348 492 393 473 Q438 454 471.5 421 Q505 388 524.5 343 Q544 298 544 246 Q544 177 510.5 121 Q477 65 423 33 L401 21 Z M396 46 Q442 76 469.5 125.5 Q497 175 497 233 Q497 279 479.5 320 Q462 361 432 391.5 Q402 422 361.5 439.5 Q321 457 275 457 Q249 457 224.5 452 Q200 447 178 433 Q131 405 104.5 355 Q78 305 78 246 Q78 200 95 159.5 Q112 119 141.5 88.5 Q171 58 211 40.5 Q251 23 297 23 Q324 23 348.5 29 Q373 35 396 46 Z M161 557 L276 688 L296 688 L411 556 L382 545 L286 648 L188 545 L161 557 Z " />
<glyph glyph-name="otilde" unicode="&#xf5;" horiz-adv-x="573" d="M401 21 Q373 5 341 -3.5 Q309 -12 275 -12 Q225 -12 180 6.5 Q135 25 101.5 58 Q68 91 48.5 136 Q29 181 29 233 Q29 303 62.5 358.5 Q96 414 151 446 L172 459 Q200 475 231.5 483.5 Q263 492 297 492 Q348 492 393 473 Q438 454 471.5 421 Q505 388 524.5 343 Q544 298 544 246 Q544 177 510.5 121 Q477 65 423 33 L401 21 Z M396 46 Q442 76 469.5 125.5 Q497 175 497 233 Q497 279 479.5 320 Q462 361 432 391.5 Q402 422 361.5 439.5 Q321 457 275 457 Q249 457 224.5 452 Q200 447 178 433 Q131 405 104.5 355 Q78 305 78 246 Q78 200 95 159.5 Q112 119 141.5 88.5 Q171 58 211 40.5 Q251 23 297 23 Q324 23 348.5 29 Q373 35 396 46 Z M153 570 Q160 596 179 614 Q198 632 226 632 Q241 632 256 627 Q271 622 285.5 616 Q300 610 314.5 605 Q329 600 344 600 Q362 600 374 610.5 Q386 621 392 637 L418 628 Q412 601 390.5 583.5 Q369 566 342 566 Q328 566 314.5 571 Q301 576 286.5 582 Q272 588 256.5 593 Q241 598 225 598 Q208 598 197.5 588 Q187 578 181 563 L153 570 Z " />
<glyph glyph-name="odieresis" unicode="&#xf6;" horiz-adv-x="573" d="M401 21 Q373 5 341 -3.5 Q309 -12 275 -12 Q225 -12 180 6.5 Q135 25 101.5 58 Q68 91 48.5 136 Q29 181 29 233 Q29 303 62.5 358.5 Q96 414 151 446 L172 459 Q200 475 231.5 483.5 Q263 492 297 492 Q348 492 393 473 Q438 454 471.5 421 Q505 388 524.5 343 Q544 298 544 246 Q544 177 510.5 121 Q477 65 423 33 L401 21 Z M396 46 Q442 76 469.5 125.5 Q497 175 497 233 Q497 279 479.5 320 Q462 361 432 391.5 Q402 422 361.5 439.5 Q321 457 275 457 Q249 457 224.5 452 Q200 447 178 433 Q131 405 104.5 355 Q78 305 78 246 Q78 200 95 159.5 Q112 119 141.5 88.5 Q171 58 211 40.5 Q251 23 297 23 Q324 23 348.5 29 Q373 35 396 46 Z M402 597 Q402 583 392.5 574 Q383 565 370 565 Q356 565 347 574 Q338 583 338 597 Q338 609 347.5 619 Q357 629 370 629 Q383 629 392.5 619 Q402 609 402 597 Z M234 597 Q234 583 224.5 574 Q215 565 202 565 Q188 565 179 574 Q170 583 170 597 Q170 609 179.5 619 Q189 629 202 629 Q215 629 224.5 619 Q234 609 234 597 Z " />
<glyph glyph-name="divide" unicode="&#xf7;" horiz-adv-x="556" d="M316 427 Q316 412 305 400.5 Q294 389 278 389 Q262 389 251 400 Q240 411 240 427 Q240 442 251 453 Q262 464 278 464 Q294 464 305 453 Q316 442 316 427 Z M28 269 L528 269 L528 231 L28 231 L28 269 Z M316 73 Q316 57 305 46 Q294 35 278 35 Q262 35 251 46 Q240 57 240 73 Q240 89 251 100 Q262 111 278 111 Q294 111 305 100 Q316 89 316 73 Z " />
<glyph glyph-name="oslash" unicode="&#xf8;" horiz-adv-x="575" d="M36 -31 L108 53 Q72 88 50.5 133 Q29 178 29 233 Q29 303 62.5 358.5 Q96 414 151 446 L172 459 Q200 475 231.5 483.5 Q263 492 297 492 Q382 492 444 444 L519 531 L546 517 L467 425 Q502 391 523 346 Q544 301 544 246 Q544 177 510.5 121 Q477 65 423 33 L401 21 Q373 5 341 -3.5 Q309 -12 275 -12 Q235 -12 198 0.5 Q161 13 131 35 L61 -46 L36 -31 Z M414 409 Q385 432 350.5 444.5 Q316 457 275 457 Q249 457 224.5 452 Q200 447 178 433 Q131 405 104.5 355 Q78 305 78 246 Q78 201 94.5 160.5 Q111 120 141 91 L414 409 Z M162 71 Q190 48 224 35.5 Q258 23 297 23 Q324 23 348.5 29 Q373 35 396 46 Q442 76 469.5 125.5 Q497 175 497 233 Q497 279 480.5 319 Q464 359 435 388 L162 71 Z " />
<glyph glyph-name="ugrave" unicode="&#xf9;" horiz-adv-x="519" d="M406 72 Q394 59 378 47 Q362 35 349 27 L334 18 Q277 -12 221 -12 Q189 -12 160 -1.5 Q131 9 109 28.5 Q87 48 74.5 77 Q62 106 62 144 L62 448 L48 472 L110 492 L110 157 Q110 125 121 100 Q132 75 150.5 58 Q169 41 194 32 Q219 23 248 23 Q293 23 338 46 Q355 57 372 71.5 Q389 86 405 106 L405 448 L392 472 L453 492 L453 0 L406 0 L406 72 Z M156 692 L195 706 L302 551 L275 540 L156 692 Z " />
<glyph glyph-name="uacute" unicode="&#xfa;" horiz-adv-x="519" d="M406 72 Q394 59 378 47 Q362 35 349 27 L334 18 Q277 -12 221 -12 Q189 -12 160 -1.5 Q131 9 109 28.5 Q87 48 74.5 77 Q62 106 62 144 L62 448 L48 472 L110 492 L110 157 Q110 125 121 100 Q132 75 150.5 58 Q169 41 194 32 Q219 23 248 23 Q293 23 338 46 Q355 57 372 71.5 Q389 86 405 106 L405 448 L392 472 L453 492 L453 0 L406 0 L406 72 Z M216 551 L323 706 L362 692 L243 540 L216 551 Z " />
<glyph glyph-name="ucircumflex" unicode="&#xfb;" horiz-adv-x="519" d="M406 72 Q394 59 378 47 Q362 35 349 27 L334 18 Q277 -12 221 -12 Q189 -12 160 -1.5 Q131 9 109 28.5 Q87 48 74.5 77 Q62 106 62 144 L62 448 L48 472 L110 492 L110 157 Q110 125 121 100 Q132 75 150.5 58 Q169 41 194 32 Q219 23 248 23 Q293 23 338 46 Q355 57 372 71.5 Q389 86 405 106 L405 448 L392 472 L453 492 L453 0 L406 0 L406 72 Z M134 557 L249 688 L269 688 L384 556 L355 545 L259 648 L161 545 L134 557 Z " />
<glyph glyph-name="udieresis" unicode="&#xfc;" horiz-adv-x="519" d="M406 72 Q394 59 378 47 Q362 35 349 27 L334 18 Q277 -12 221 -12 Q189 -12 160 -1.5 Q131 9 109 28.5 Q87 48 74.5 77 Q62 106 62 144 L62 448 L48 472 L110 492 L110 157 Q110 125 121 100 Q132 75 150.5 58 Q169 41 194 32 Q219 23 248 23 Q293 23 338 46 Q355 57 372 71.5 Q389 86 405 106 L405 448 L392 472 L453 492 L453 0 L406 0 L406 72 Z M375 597 Q375 583 365.5 574 Q356 565 343 565 Q329 565 320 574 Q311 583 311 597 Q311 609 320.5 619 Q330 629 343 629 Q356 629 365.5 619 Q375 609 375 597 Z M207 597 Q207 583 197.5 574 Q188 565 175 565 Q161 565 152 574 Q143 583 143 597 Q143 609 152.5 619 Q162 629 175 629 Q188 629 197.5 619 Q207 609 207 597 Z " />
<glyph glyph-name="yacute" unicode="&#xfd;" horiz-adv-x="445" d="M203 9 L4 480 L57 480 L229 71 L391 456 L386 480 L441 480 L157 -198 L113 -198 L203 9 Z M179 551 L286 706 L325 692 L206 540 L179 551 Z " />
<glyph glyph-name="thorn" unicode="&#xfe;" horiz-adv-x="551" d="M67 692 L53 715 L115 735 L115 432 Q147 461 191.5 476.5 Q236 492 278 492 Q307 492 334 486 Q374 477 408.5 454.5 Q443 432 468 400.5 Q493 369 507.5 329.5 Q522 290 522 246 Q522 176 488.5 120.5 Q455 65 400 33 L379 20 Q323 -12 258 -12 Q217 -12 180.5 0.5 Q144 13 115 36 L115 -198 L67 -198 L67 692 Z M115 91 Q145 59 186 41 Q227 23 275 23 Q331 23 373 47 Q420 75 447 124.5 Q474 174 474 233 Q474 279 456.5 320 Q439 361 409 391.5 Q379 422 339 439.5 Q299 457 253 457 Q211 457 179 444 Q147 431 115 399 L115 91 Z " />
<glyph glyph-name="ydieresis" unicode="&#xff;" horiz-adv-x="445" d="M203 9 L4 480 L57 480 L229 71 L391 456 L386 480 L441 480 L157 -198 L113 -198 L203 9 Z M338 597 Q338 583 328.5 574 Q319 565 306 565 Q292 565 283 574 Q274 583 274 597 Q274 609 283.5 619 Q293 629 306 629 Q319 629 328.5 619 Q338 609 338 597 Z M170 597 Q170 583 160.5 574 Q151 565 138 565 Q124 565 115 574 Q106 583 106 597 Q106 609 115.5 619 Q125 629 138 629 Q151 629 160.5 619 Q170 609 170 597 Z " />
<glyph glyph-name="OE" unicode="&#x152;" horiz-adv-x="1021" d="M576 23 Q538 5 496 -5.5 Q454 -16 408 -16 Q329 -16 260.5 13.5 Q192 43 141 93.5 Q90 144 61 212 Q32 280 32 357 Q32 409 45.5 456.5 Q59 504 83.5 545.5 Q108 587 142 621.5 Q176 656 218 681 L239 693 Q282 718 329.5 731 Q377 744 429 744 Q465 744 498.5 740 Q532 736 564 728 L975 728 L961 691 L625 691 L625 396 L965 396 L951 359 L625 359 L625 37 L985 37 L971 0 L576 0 L576 23 Z M576 676 Q539 690 497 698.5 Q455 707 408 707 Q363 707 321.5 697.5 Q280 688 244 666 Q207 644 177 612.5 Q147 581 126 542.5 Q105 504 93.5 460.5 Q82 417 82 370 Q82 298 109 234 Q136 170 183 122.5 Q230 75 293 47.5 Q356 20 429 20 Q469 20 506 27.5 Q543 35 576 52 L576 676 Z " />
<glyph glyph-name="oe" unicode="&#x153;" horiz-adv-x="837" d="M789 74 Q751 36 696.5 11.5 Q642 -13 581 -12 Q539 -12 499.5 3.5 Q460 19 427 47 Q393 21 353.5 4.5 Q314 -12 268 -12 Q219 -12 175.5 6.5 Q132 25 99.5 58 Q67 91 48 136 Q29 181 29 233 Q29 266 37.5 298 Q46 330 61 357.5 Q76 385 97.5 407.5 Q119 430 145 444 L167 459 Q196 475 226.5 483.5 Q257 492 292 492 Q334 492 371.5 477 Q409 462 443 435 Q454 445 467 452 L483 462 Q533 493 593 492 Q634 492 672.5 475.5 Q711 459 741 429.5 Q771 400 789 360 Q807 320 807 273 L807 248 L391 248 L391 239 Q390 194 407.5 154.5 Q425 115 455 86 Q485 57 524.5 40 Q564 23 606 22 Q657 21 696 40 Q735 59 773 96 L789 74 Z M407 71 Q378 101 361 143 Q344 185 344 231 Q344 278 359 322 Q374 366 408 403 Q379 429 343.5 443 Q308 457 267 457 Q223 457 188 439.5 Q153 422 128 392.5 Q103 363 89.5 325 Q76 287 76 246 Q76 200 92.5 159.5 Q109 119 137.5 88.5 Q166 58 204.5 40.5 Q243 23 287 23 Q353 23 407 71 Z M762 280 Q759 318 743 350.5 Q727 383 701.5 406.5 Q676 430 643 443.5 Q610 457 574 457 Q536 457 504.5 443 Q473 429 449.5 405 Q426 381 411.5 349 Q397 317 393 280 L762 280 Z " />
<glyph glyph-name="Scaron" unicode="&#x160;" horiz-adv-x="493" d="M337 11 Q311 -3 286 -9.5 Q261 -16 232 -16 Q180 -16 130 1 Q80 18 40 52 L58 99 Q97 60 147.5 40 Q198 20 253 20 Q288 20 317 33 Q346 46 366.5 68.5 Q387 91 398 120.5 Q409 150 409 182 Q409 227 394.5 255.5 Q380 284 356.5 302.5 Q333 321 302.5 332.5 Q272 344 239 354 Q204 365 169.5 377.5 Q135 390 107.5 411 Q80 432 63 464 Q46 496 46 545 Q46 595 70 638 Q94 681 138 706 L161 719 Q204 744 256 744 Q304 744 350 727.5 Q396 711 433 680 L415 634 Q380 669 333.5 688 Q287 707 236 707 Q204 707 177.5 695 Q151 683 132.5 662.5 Q114 642 104 615 Q94 588 94 559 Q94 517 107.5 490.5 Q121 464 144.5 446 Q168 428 198.5 417 Q229 406 262 396 Q298 385 333 372 Q368 359 395.5 337 Q423 315 440.5 281.5 Q458 248 458 197 Q458 143 432.5 96 Q407 49 359 23 L337 11 Z M121 916 L150 927 L246 824 L344 927 L371 916 L256 785 L235 785 L121 916 Z " />
<glyph glyph-name="scaron" unicode="&#x161;" horiz-adv-x="363" d="M241 6 Q208 -12 171 -12 Q137 -12 104.5 -1 Q72 10 46 31 L63 74 Q89 51 121.5 36.5 Q154 22 189 22 Q231 22 256.5 50 Q282 78 282 118 Q282 148 272 167 Q262 186 245 198 Q228 210 206.5 217.5 Q185 225 162 232 Q140 239 119 247 Q98 255 81.5 268.5 Q65 282 55 302.5 Q45 323 45 355 Q45 388 61 416.5 Q77 445 106 462 L128 474 Q142 482 158.5 487 Q175 492 193 492 Q225 492 254 481.5 Q283 471 306 454 L290 412 Q266 432 238 444.5 Q210 457 178 457 Q168 457 155.5 455 Q143 453 134 448 Q114 438 102.5 415 Q91 392 91 368 Q91 341 101 323.5 Q111 306 126.5 295 Q142 284 161.5 277 Q181 270 201 264 Q226 256 249 247.5 Q272 239 290 224.5 Q308 210 318.5 188 Q329 166 329 133 Q329 97 312 66 Q295 35 263 18 L241 6 Z M56 676 L85 687 L181 584 L279 687 L306 676 L191 545 L170 545 L56 676 Z " />
<glyph glyph-name="Ydieresis" unicode="&#x178;" horiz-adv-x="590" d="M274 292 L5 728 L65 728 L305 340 L528 704 L525 728 L586 728 L322 301 L322 0 L274 0 L274 292 Z M411 837 Q411 823 401.5 814 Q392 805 379 805 Q365 805 356 814 Q347 823 347 837 Q347 849 356.5 859 Q366 869 379 869 Q392 869 401.5 859 Q411 849 411 837 Z M243 837 Q243 823 233.5 814 Q224 805 211 805 Q197 805 188 814 Q179 823 179 837 Q179 849 188.5 859 Q198 869 211 869 Q224 869 233.5 859 Q243 849 243 837 Z " />
<glyph glyph-name="Zcaron" unicode="&#x17d;" horiz-adv-x="556" d="M18 19 L465 691 L35 691 L49 728 L532 728 L532 708 L85 36 L538 36 L524 0 L18 0 L18 19 Z M153 916 L182 927 L278 824 L376 927 L403 916 L288 785 L267 785 L153 916 Z " />
<glyph glyph-name="zcaron" unicode="&#x17e;" horiz-adv-x="417" d="M21 18 L328 445 L31 445 L45 480 L393 480 L393 460 L89 35 L401 35 L387 0 L21 0 L21 18 Z M83 676 L112 687 L208 584 L306 687 L333 676 L218 545 L197 545 L83 676 Z " />
<glyph glyph-name="florin" unicode="&#x192;" horiz-adv-x="545" d="M1 -150 Q9 -152 26 -154 Q43 -156 52 -156 Q101 -156 136 -140 Q172 -115 186.5 -71 Q201 -27 211 27 L287 445 L178 445 L178 480 L294 480 L309 559 Q319 610 341.5 648 Q364 686 393 704 L410 713 Q416 717 428.5 720 Q441 723 455 725 Q469 727 483 728 Q497 729 505 729 Q524 729 538 726 L538 691 Q532 692 518 693 Q504 694 494 694 Q488 694 476.5 693.5 Q465 693 453 692.5 Q441 692 430.5 690.5 Q420 689 416 687 Q393 670 379.5 637 Q366 604 358 562 L342 480 L494 480 L494 445 L336 445 L261 35 Q249 -30 226.5 -80.5 Q204 -131 157 -157 L136 -170 Q116 -181 92 -187 Q68 -193 38 -193 Q30 -193 19.5 -191.5 Q9 -190 1 -187 L1 -150 Z " />
<glyph glyph-name="circumflex" unicode="&#x2c6;" horiz-adv-x="500" d="M125 557 L240 688 L260 688 L375 556 L346 545 L250 648 L152 545 L125 557 Z " />
<glyph glyph-name="tilde" unicode="&#x2dc;" horiz-adv-x="500" d="M117 570 Q124 596 143 614 Q162 632 190 632 Q205 632 220 627 Q235 622 249.5 616 Q264 610 278.5 605 Q293 600 308 600 Q326 600 338 610.5 Q350 621 356 637 L382 628 Q376 601 354.5 583.5 Q333 566 306 566 Q292 566 278.5 571 Q265 576 250.5 582 Q236 588 220.5 593 Q205 598 189 598 Q172 598 161.5 588 Q151 578 145 563 L117 570 Z " />
<glyph glyph-name="endash" unicode="&#x2013;" horiz-adv-x="500" d="M0 267 L500 267 L500 231 L0 231 L0 267 Z " />
<glyph glyph-name="emdash" unicode="&#x2014;" horiz-adv-x="1000" d="M0 267 L1000 267 L1000 231 L0 231 L0 267 Z " />
<glyph glyph-name="quoteleft" unicode="&#x2018;" horiz-adv-x="135" d="M128 729 Q108 703 94.5 671 Q81 639 79 605 Q97 598 97 578 Q97 566 88.5 557.5 Q80 549 69 549 Q54 549 46.5 560 Q39 571 39 588 Q39 631 59 669.5 Q79 708 110 737 L128 729 Z " />
<glyph glyph-name="quoteright" unicode="&#x2019;" horiz-adv-x="135" d="M8 558 Q28 584 41.5 616 Q55 648 57 682 Q39 689 39 708 Q39 721 47.5 729 Q56 737 67 737 Q82 737 89.5 726.5 Q97 716 97 699 Q97 656 77 617 Q57 578 26 549 L8 558 Z " />
<glyph glyph-name="quotesinglbase" unicode="&#x201a;" horiz-adv-x="135" d="M8 -123 Q28 -97 41.5 -65 Q55 -33 57 1 Q39 8 39 27 Q39 40 47.5 48 Q56 56 67 56 Q82 56 89.5 45.5 Q97 35 97 18 Q97 -25 77 -64 Q57 -103 26 -132 L8 -123 Z " />
<glyph glyph-name="quotedblleft" unicode="&#x201c;" horiz-adv-x="246" d="M128 729 Q108 703 94.5 671 Q81 639 79 605 Q97 598 97 578 Q97 566 88.5 557.5 Q80 549 69 549 Q54 549 46.5 560 Q39 571 39 588 Q39 631 59 669.5 Q79 708 110 737 L128 729 Z M239 729 Q219 703 205.5 671 Q192 639 190 605 Q208 598 208 578 Q208 566 199.5 557.5 Q191 549 180 549 Q165 549 157.5 560 Q150 571 150 588 Q150 631 170 669.5 Q190 708 221 737 L239 729 Z " />
<glyph glyph-name="quotedblright" unicode="&#x201d;" horiz-adv-x="246" d="M119 558 Q139 584 152.5 616 Q166 648 168 682 Q150 689 150 708 Q150 721 158.5 729 Q167 737 178 737 Q193 737 200.5 726.5 Q208 716 208 699 Q208 656 188 617 Q168 578 137 549 L119 558 Z M8 558 Q28 584 41.5 616 Q55 648 57 682 Q39 689 39 708 Q39 721 47.5 729 Q56 737 67 737 Q82 737 89.5 726.5 Q97 716 97 699 Q97 656 77 617 Q57 578 26 549 L8 558 Z " />
<glyph glyph-name="quotedblbase" unicode="&#x201e;" horiz-adv-x="246" d="M119 -123 Q139 -97 152.5 -65 Q166 -33 168 1 Q150 8 150 27 Q150 40 158.5 48 Q167 56 178 56 Q193 56 200.5 45.5 Q208 35 208 18 Q208 -25 188 -64 Q168 -103 137 -132 L119 -123 Z M8 -123 Q28 -97 41.5 -65 Q55 -33 57 1 Q39 8 39 27 Q39 40 47.5 48 Q56 56 67 56 Q82 56 89.5 45.5 Q97 35 97 18 Q97 -25 77 -64 Q57 -103 26 -132 L8 -123 Z " />
<glyph glyph-name="dagger" unicode="&#x2020;" horiz-adv-x="545" d="M251 455 L47 455 L47 490 L251 490 L251 728 L294 728 L294 490 L498 490 L498 455 L294 455 L294 -184 L251 -184 L251 455 Z " />
<glyph glyph-name="daggerdbl" unicode="&#x2021;" horiz-adv-x="545" d="M251 54 L47 54 L47 89 L251 89 L251 455 L47 455 L47 490 L251 490 L251 728 L294 728 L294 490 L498 490 L498 455 L294 455 L294 89 L498 89 L498 54 L294 54 L294 -184 L251 -184 L251 54 Z " />
<glyph glyph-name="bullet" unicode="&#x2022;" horiz-adv-x="545" d="M364 327 Q364 289 337.5 262.5 Q311 236 273 236 Q235 236 208.5 262.5 Q182 289 182 327 Q182 365 208.5 391 Q235 417 273 417 Q311 417 337.5 391 Q364 365 364 327 Z " />
<glyph glyph-name="ellipsis" unicode="&#x2026;" horiz-adv-x="1000" d="M865 34 Q865 17 854.5 8 Q844 -1 831 -1 Q819 -1 810 7 Q801 15 801 27 Q801 44 812 53 Q823 62 836 62 Q848 62 856.5 54 Q865 46 865 34 Z M532 34 Q532 17 521.5 8 Q511 -1 498 -1 Q486 -1 477 7 Q468 15 468 27 Q468 44 479 53 Q490 62 503 62 Q515 62 523.5 54 Q532 46 532 34 Z M199 34 Q199 17 188.5 8 Q178 -1 165 -1 Q153 -1 144 7 Q135 15 135 27 Q135 44 146 53 Q157 62 170 62 Q182 62 190.5 54 Q199 46 199 34 Z " />
<glyph glyph-name="perthousand" unicode="&#x2030;" horiz-adv-x="1148" d="M234 340 Q208 325 171 325 Q130 325 102 342.5 Q74 360 56.5 388.5 Q39 417 31.5 453.5 Q24 490 24 528 Q24 558 28.5 587 Q33 616 42.5 641 Q52 666 68 686 Q84 706 107 718 L127 729 Q155 743 190 743 Q231 743 259.5 725.5 Q288 708 305.5 679.5 Q323 651 331 614.5 Q339 578 339 539 Q339 509 334.5 480.5 Q330 452 319.5 427 Q309 402 293 382.5 Q277 363 254 351 L234 340 Z M294 528 Q294 562 288 595 Q282 628 267.5 654 Q253 680 229.5 696 Q206 712 172 712 Q159 712 149 708.5 Q139 705 130 700 Q113 688 101.5 670.5 Q90 653 82.5 632 Q75 611 72 587 Q69 563 69 539 Q69 505 75 472 Q81 439 95.5 413.5 Q110 388 133 372 Q156 356 190 356 Q203 356 213.5 360 Q224 364 234 370 Q267 391 280.5 435.5 Q294 480 294 528 Z M586 764 L621 764 L199 -36 L165 -36 L586 764 Z M658 6 Q632 -9 595 -9 Q554 -9 526 8.5 Q498 26 480.5 54.5 Q463 83 455.5 119.5 Q448 156 448 194 Q448 224 452.5 253 Q457 282 466.5 307 Q476 332 492 352 Q508 372 531 384 L551 395 Q579 409 614 409 Q655 409 683.5 391.5 Q712 374 729.5 345.5 Q747 317 755 280.5 Q763 244 763 205 Q763 175 758.5 146.5 Q754 118 743.5 93 Q733 68 717 48.5 Q701 29 678 17 L658 6 Z M718 194 Q718 228 712 261 Q706 294 691.5 320 Q677 346 653.5 362 Q630 378 596 378 Q583 378 573 374.5 Q563 371 554 366 Q537 354 525.5 336.5 Q514 319 506.5 298 Q499 277 496 253 Q493 229 493 205 Q493 171 499 138 Q505 105 519.5 79.5 Q534 54 557 38 Q580 22 614 22 Q627 22 637.5 26 Q648 30 658 36 Q691 57 704.5 101.5 Q718 146 718 194 Z M1020 6 Q994 -9 957 -9 Q916 -9 888 8.5 Q860 26 842.5 54.5 Q825 83 817.5 119.5 Q810 156 810 194 Q810 224 814.5 253 Q819 282 828.5 307 Q838 332 854 352 Q870 372 893 384 L913 395 Q941 409 976 409 Q1017 409 1045.5 391.5 Q1074 374 1091.5 345.5 Q1109 317 1117 280.5 Q1125 244 1125 205 Q1125 175 1120.5 146.5 Q1116 118 1105.5 93 Q1095 68 1079 48.5 Q1063 29 1040 17 L1020 6 Z M1080 194 Q1080 228 1074 261 Q1068 294 1053.5 320 Q1039 346 1015.5 362 Q992 378 958 378 Q945 378 935 374.5 Q925 371 916 366 Q899 354 887.5 336.5 Q876 319 868.5 298 Q861 277 858 253 Q855 229 855 205 Q855 171 861 138 Q867 105 881.5 79.5 Q896 54 919 38 Q942 22 976 22 Q989 22 999.5 26 Q1010 30 1020 36 Q1053 57 1066.5 101.5 Q1080 146 1080 194 Z " />
<glyph glyph-name="guilsinglleft" unicode="&#x2039;" horiz-adv-x="221" d="M32 233 L169 431 L188 422 L88 246 L189 66 L168 54 L32 233 Z " />
<glyph glyph-name="guilsinglright" unicode="&#x203a;" horiz-adv-x="221" d="M34 57 L134 233 L33 413 L54 425 L189 247 L52 48 L34 57 Z " />
<glyph glyph-name="Euro" unicode="&#x20ac;" horiz-adv-x="545" d="M534 28 Q492 2 454 -7 Q416 -16 367 -16 Q303 -16 255.5 9 Q208 34 175 75 Q142 116 122.5 168.5 Q103 221 95 276 L-9 276 L-9 312 L91 312 Q90 323 89.5 334.5 Q89 346 89 357 Q89 374 90 391 Q91 408 93 425 L-9 425 L-9 462 L98 462 Q110 533 142.5 595 Q175 657 236 697 Q242 701 248 705 Q254 709 260 712 Q291 728 320 736 Q349 744 384 744 Q423 744 459.5 736 Q496 728 531 710 L519 664 Q483 687 445.5 697 Q408 707 365 707 Q326 707 294.5 695 Q263 683 236 656 Q199 619 177.5 568 Q156 517 147 462 L436 462 L436 425 L142 425 Q139 396 139 370 Q139 342 142 312 L403 312 L403 276 L147 276 Q155 228 172.5 182 Q190 136 219 100 Q248 64 288.5 42 Q329 20 384 20 Q424 20 461 28 Q498 36 533 55 L534 28 Z " />
<glyph glyph-name="trademark" unicode="&#x2122;" horiz-adv-x="846" d="M144 695 L4 695 L17 728 L329 728 L316 695 L189 695 L189 328 L144 328 L144 695 Z M375 706 L357 728 L413 728 L591 516 L768 728 L804 728 L804 328 L759 328 L759 658 L595 463 L574 463 L411 658 L411 328 L375 328 L375 706 Z " />
</font>
</svg>
