<?xml version="1.0" encoding="UTF-8"?>
<svg xmlns="http://www.w3.org/2000/svg" xmlns:xlink="http://www.w3.org/1999/xlink" version="1.2" >
<font id="Brewery No 2 Medium">
<font-face  font-family="Brewery No 2" units-per-em="1000" ascent="770" descent="-230" font-style="normal" font-weight="500" font-stretch="normal" cap-height="728" x-height="487" underline-position="-141" underline-thickness="31" />
<missing-glyph  horiz-adv-x="485" d="M210 174 L263 174 L263 111 L210 111 L210 174 Z M211 238 Q211 263 213.5 281 Q216 299 222.5 313.5 Q229 328 240 341 Q251 354 268 369 Q298 397 306 414.5 Q314 432 314 449 Q314 483 292.5 506 Q271 529 242 529 Q213 529 191.5 508.5 Q170 488 165 439 Q153 441 141 443 Q129 445 117 447 Q124 516 159 546.5 Q194 577 245 577 Q297 577 330 543.5 Q363 510 363 453 Q363 422 351 397.5 Q339 373 303 340 Q284 323 274.5 312 Q265 301 261 289.5 Q257 278 257 262.5 Q257 247 257 222 L211 222 L211 238 Z M438 47 L438 632 L47 632 L47 47 L438 47 Z M0 680 L485 680 L485 0 L0 0 L0 680 Z " />
<glyph glyph-name="space" unicode="&#x20;" horiz-adv-x="280" d="" />
<glyph glyph-name="exclam" unicode="&#x21;" horiz-adv-x="289" d="M99 728 L191 728 L184 201 L105 201 L99 728 Z M198 51 Q198 24 180 10 Q162 -4 141 -4 Q120 -4 105 8.5 Q90 21 90 42 Q90 68 108.5 82.5 Q127 97 148 97 Q169 97 183.5 84.5 Q198 72 198 51 Z " />
<glyph glyph-name="quotedbl" unicode="&#x22;" horiz-adv-x="417" d="M243 728 L323 728 L313 470 L252 470 L243 728 Z M97 728 L178 728 L167 470 L107 470 L97 728 Z " />
<glyph glyph-name="numbersign" unicode="&#x23;" horiz-adv-x="560" d="M106 236 L-8 236 L-8 293 L121 293 L160 434 L45 434 L45 492 L174 492 L237 728 L305 728 L242 492 L385 492 L448 728 L515 728 L453 492 L567 492 L567 434 L437 434 L400 294 L514 294 L514 236 L384 236 L321 0 L253 0 L317 236 L174 236 L110 0 L43 0 L106 236 Z M331 293 L370 434 L226 434 L188 293 L331 293 Z " />
<glyph glyph-name="dollar" unicode="&#x24;" horiz-adv-x="560" d="M366 13 Q352 5 337.5 -0.5 Q323 -6 309 -10 L309 -78 L253 -78 L253 -16 Q200 -15 149.5 1 Q99 17 57 50 L88 130 Q162 64 253 52 L253 339 Q252 339 251 340 Q216 351 183 364 Q150 377 123.5 398 Q97 419 81 450.5 Q65 482 65 530 Q65 585 91 628 Q117 671 159 694 L200 718 Q226 732 253 739 L253 806 L309 806 L309 744 Q357 742 401.5 726 Q446 710 484 681 L453 603 Q422 629 385.5 647.5 Q349 666 309 674 L309 410 L317 408 Q351 397 385 383.5 Q419 370 446 348 Q473 326 489.5 293 Q506 260 506 210 Q506 156 480 109 Q454 62 406 35 L366 13 Z M415 183 Q415 213 406.5 235 Q398 257 384 272.5 Q370 288 350.5 299.5 Q331 311 309 320 L309 51 Q333 54 353 66 Q373 78 386.5 96 Q400 114 407.5 136.5 Q415 159 415 183 Z M155 557 Q155 529 162.5 508.5 Q170 488 183 473 Q196 458 214 447.5 Q232 437 253 429 L253 677 Q230 675 212 664 Q194 653 181.5 636.5 Q169 620 162 599 Q155 578 155 557 Z " />
<glyph glyph-name="percent" unicode="&#x25;" horiz-adv-x="805" d="M233 340 Q219 333 203 329 Q187 325 168 325 Q127 325 99 342 Q71 359 53.5 387 Q36 415 28 451 Q20 487 20 525 Q20 555 24.5 583 Q29 611 38.5 636 Q48 661 63.5 680 Q79 699 102 711 L134 728 Q162 743 199 743 Q241 743 269.5 726 Q298 709 316 681 Q334 653 342 616.5 Q350 580 350 542 Q350 513 345.5 484.5 Q341 456 330.5 431.5 Q320 407 304 388 Q288 369 265 357 L233 340 Z M278 525 Q278 556 272.5 586.5 Q267 617 254.5 641 Q242 665 221.5 680 Q201 695 171 695 Q160 695 152.5 690.5 Q145 686 138 681 Q112 658 102 620.5 Q92 583 92 542 Q92 510 97.5 480 Q103 450 115.5 426.5 Q128 403 148.5 388.5 Q169 374 199 374 Q209 374 217 378.5 Q225 383 233 389 Q258 409 268 447 Q278 485 278 525 Z M585 762 L639 762 L220 -34 L167 -34 L585 762 Z M669 6 Q655 -1 639 -5 Q623 -9 604 -9 Q563 -9 535 8 Q507 25 489.5 53 Q472 81 464 117 Q456 153 456 191 Q456 221 460.5 249 Q465 277 474.5 302 Q484 327 499.5 346 Q515 365 538 377 L570 394 Q598 409 635 409 Q677 409 705.5 392 Q734 375 752 347 Q770 319 778 282.5 Q786 246 786 208 Q786 179 781.5 150.5 Q777 122 766.5 97.5 Q756 73 740 54 Q724 35 701 23 L669 6 Z M714 191 Q714 222 708.5 252.5 Q703 283 690.5 307 Q678 331 657.5 346 Q637 361 607 361 Q596 361 588.5 356.5 Q581 352 574 347 Q548 324 538 286.5 Q528 249 528 208 Q528 176 533.5 146 Q539 116 551.5 92.5 Q564 69 584.5 54.5 Q605 40 635 40 Q645 40 653 44.5 Q661 49 669 55 Q694 75 704 113 Q714 151 714 191 Z " />
<glyph glyph-name="ampersand" unicode="&#x26;" horiz-adv-x="693" d="M591 -8 Q569 55 536 109 Q517 92 490.5 72.5 Q464 53 441 39 Q393 10 349 -3 Q305 -16 257 -16 Q215 -16 176.5 -3 Q138 10 109.5 33 Q81 56 64 89 Q47 122 47 161 Q47 203 64 237.5 Q81 272 107.5 300.5 Q134 329 166.5 353 Q199 377 231 398 Q207 417 186.5 437 Q166 457 151 478 Q136 499 127.5 522 Q119 545 119 571 Q119 607 136 639 Q153 671 180.5 694 Q208 717 243 730.5 Q278 744 314 744 Q345 744 373 733 Q401 722 422 702.5 Q443 683 455.5 655.5 Q468 628 468 595 Q468 567 457.5 543 Q447 519 429 498 Q411 477 388 458.5 Q365 440 340 422 Q367 401 397.5 378.5 Q428 356 458.5 330.5 Q489 305 518 276 Q547 247 573 213 Q588 229 604.5 249.5 Q621 270 634 286 L672 250 Q657 230 640.5 210 Q624 190 605 169 Q625 140 641.5 106.5 Q658 73 677 27 L591 -8 Z M302 450 Q316 461 331 474 Q346 487 358 502 Q370 517 378.5 534.5 Q387 552 387 572 Q387 596 378.5 616.5 Q370 637 355.5 651.5 Q341 666 321.5 674.5 Q302 683 281 683 Q267 683 258 680 Q249 677 240 672 Q223 658 213.5 637.5 Q204 617 204 593 Q204 552 232 518 Q260 484 302 450 Z M510 149 Q484 185 454.5 215 Q425 245 394 272 Q363 299 331 323 Q299 347 269 370 Q243 351 219 331.5 Q195 312 176.5 290 Q158 268 146.5 242 Q135 216 135 185 Q135 153 149 127.5 Q163 102 185.5 84 Q208 66 237 56 Q266 46 296 46 Q360 46 412 73.5 Q464 101 510 149 Z " />
<glyph glyph-name="quotesingle" unicode="&#x27;" horiz-adv-x="280" d="M99 728 L181 728 L169 478 L109 478 L99 728 Z " />
<glyph glyph-name="parenleft" unicode="&#x28;" horiz-adv-x="310" d="M298 710 Q261 665 233 612.5 Q205 560 186 504 Q167 448 157 389.5 Q147 331 147 273 Q147 215 156.5 156 Q166 97 185 40 Q204 -17 232.5 -69.5 Q261 -122 298 -167 Q286 -175 274 -184 Q262 -193 250 -202 Q208 -157 174 -104 Q140 -51 116.5 7.5 Q93 66 80 127.5 Q67 189 67 251 Q67 367 105 470.5 Q143 574 210 667 Q232 702 263 733 L298 710 Z " />
<glyph glyph-name="parenright" unicode="&#x29;" horiz-adv-x="310" d="M12 -179 Q49 -134 77 -81.5 Q105 -29 124 27 Q143 83 153 141.5 Q163 200 163 258 Q163 316 153.5 375 Q144 434 125 491 Q106 548 77.5 600.5 Q49 653 12 698 Q24 706 36 715 Q48 724 61 733 Q103 688 136.5 635 Q170 582 193.5 523.5 Q217 465 230 403 Q243 341 243 280 Q243 164 205 60.5 Q167 -43 100 -136 Q78 -171 47 -202 L12 -179 Z " />
<glyph glyph-name="asterisk" unicode="&#x2a;" horiz-adv-x="508" d="M110 383 L207 518 L44 574 L71 627 L226 575 L226 743 L285 743 L285 575 L443 628 L465 574 L303 518 L402 383 L354 352 L254 484 L157 352 L110 383 Z " />
<glyph glyph-name="plus" unicode="&#x2b;" horiz-adv-x="556" d="M245 217 L29 217 L29 283 L245 283 L245 500 L311 500 L311 283 L527 283 L527 217 L311 217 L311 0 L245 0 L245 217 Z " />
<glyph glyph-name="comma" unicode="&#x2c;" horiz-adv-x="280" d="M56 -133 Q79 -104 95 -70 Q111 -36 116 0 Q87 13 87 45 Q87 68 103 82.5 Q119 97 141 97 Q166 97 180 80 Q194 63 194 37 Q194 -18 165.5 -66 Q137 -114 93 -148 L56 -133 Z " />
<glyph glyph-name="hyphen" unicode="&#x2d;" horiz-adv-x="340" d="M32 284 L310 284 L310 221 L32 221 L32 284 Z " />
<glyph glyph-name="period" unicode="&#x2e;" horiz-adv-x="280" d="M194 51 Q194 24 176.5 10 Q159 -4 138 -4 Q117 -4 102 8.5 Q87 21 87 42 Q87 68 105 82.5 Q123 97 145 97 Q165 97 179.5 84.5 Q194 72 194 51 Z " />
<glyph glyph-name="slash" unicode="&#x2f;" horiz-adv-x="401" d="M354 744 L404 744 L46 -16 L-1 -16 L354 744 Z " />
<glyph glyph-name="zero" unicode="0" horiz-adv-x="560" d="M365 11 Q342 -2 316 -9 Q290 -16 260 -16 Q194 -16 148 15.5 Q102 47 73.5 98.5 Q45 150 32.5 216 Q20 282 20 352 Q20 406 27.5 458 Q35 510 51 555 Q67 600 92.5 636 Q118 672 155 694 L195 717 Q217 730 243 737 Q269 744 300 744 Q366 744 412 712.5 Q458 681 486.5 629 Q515 577 527.5 511 Q540 445 540 375 Q540 321 532.5 269 Q525 217 509 171.5 Q493 126 467 90 Q441 54 404 33 L365 11 Z M449 352 Q449 412 440 470.5 Q431 529 409 575 Q387 621 351.5 649 Q316 677 262 677 Q244 677 228.5 670.5 Q213 664 199 654 Q175 634 158.5 603.5 Q142 573 131.5 536 Q121 499 116.5 458 Q112 417 112 375 Q112 313 121.5 255 Q131 197 152.5 151 Q174 105 209.5 77.5 Q245 50 298 50 Q317 50 333 57 Q349 64 363 75 Q387 95 403.5 125 Q420 155 430 191.5 Q440 228 444.5 269 Q449 310 449 352 Z " />
<glyph glyph-name="one" unicode="1" horiz-adv-x="560" d="M297 627 L99 507 L65 564 L341 728 L387 728 L387 0 L297 0 L297 627 Z " />
<glyph glyph-name="two" unicode="2" horiz-adv-x="560" d="M50 37 L306 312 Q354 363 383 412.5 Q412 462 412 520 Q412 557 399 586 Q386 615 363.5 635 Q341 655 310.5 666 Q280 677 245 677 Q194 677 153.5 656 Q113 635 71 603 L47 644 Q67 659 89.5 674.5 Q112 690 140 705 Q210 744 283 744 Q329 744 369.5 730.5 Q410 717 440 691.5 Q470 666 487.5 628.5 Q505 591 505 543 Q505 474 473.5 415.5 Q442 357 387 301 L161 67 L517 71 L491 0 L50 0 L50 37 Z " />
<glyph glyph-name="three" unicode="3" horiz-adv-x="560" d="M369 17 Q343 2 311.5 -7 Q280 -16 245 -16 Q192 -16 145.5 1.5 Q99 19 54 57 L86 137 Q134 89 181.5 68 Q229 47 279 47 Q299 47 318.5 50.5 Q338 54 353 65 Q384 85 399 117.5 Q414 150 414 187 Q414 220 401.5 249 Q389 278 367 299.5 Q345 321 316 333.5 Q287 346 253 346 L195 346 L214 409 L290 409 Q314 409 333.5 419 Q353 429 367.5 446 Q382 463 389.5 485 Q397 507 397 531 Q397 565 384.5 592 Q372 619 350.5 638 Q329 657 301 667 Q273 677 242 677 Q197 677 160 659.5 Q123 642 85 613 L65 656 Q82 668 101 681 Q120 694 149 709 Q184 728 218 736 Q252 744 287 744 Q329 744 365.5 730.5 Q402 717 428.5 692.5 Q455 668 470.5 633.5 Q486 599 486 558 Q486 498 454.5 457 Q423 416 374 390 Q432 370 469 320.5 Q506 271 506 206 Q506 150 480 107.5 Q454 65 409 39 L369 17 Z " />
<glyph glyph-name="four" unicode="4" horiz-adv-x="560" d="M380 164 L11 164 L11 201 L380 728 L468 728 L110 231 L110 230 L380 230 L380 427 L468 427 L468 230 L547 230 L547 164 L468 164 L468 0 L380 0 L380 164 Z " />
<glyph glyph-name="five" unicode="5" horiz-adv-x="560" d="M377 17 Q349 1 316.5 -7.5 Q284 -16 249 -16 Q190 -16 136.5 1.5 Q83 19 38 51 L76 130 Q126 86 178 68 Q230 50 287 50 Q308 50 327.5 54 Q347 58 363 68 Q398 91 417 130 Q436 169 436 215 Q436 254 422 288.5 Q408 323 383.5 349 Q359 375 326 390 Q293 405 255 405 Q215 405 176 393 Q137 381 102 358 L59 370 L114 728 L513 728 L487 657 L174 659 L138 421 Q218 464 295 464 Q344 464 387 446.5 Q430 429 461 398.5 Q492 368 510 326.5 Q528 285 528 237 Q528 172 497.5 120.5 Q467 69 416 40 L377 17 Z " />
<glyph glyph-name="six" unicode="6" horiz-adv-x="560" d="M382 14 Q356 0 325.5 -8 Q295 -16 262 -16 Q212 -16 169 2.5 Q126 21 94 53 Q62 85 43.5 128 Q25 171 25 220 Q25 261 37.5 303.5 Q50 346 71 387 Q112 467 175 553.5 Q238 640 320 728 L413 728 Q347 656 289.5 579.5 Q232 503 184 424 Q210 442 240.5 453 Q271 464 305 464 Q354 464 396.5 446 Q439 428 470 397.5 Q501 367 518.5 325.5 Q536 284 536 237 Q536 173 504.5 119.5 Q473 66 422 37 L382 14 Z M118 238 Q118 199 132 165 Q146 131 171 105.5 Q196 80 230 65.5 Q264 51 303 51 Q322 51 340.5 54.5 Q359 58 373 68 Q408 91 428.5 130.5 Q449 170 449 215 Q449 254 435 288.5 Q421 323 396.5 348.5 Q372 374 337.5 388.5 Q303 403 263 403 Q244 403 225 398.5 Q206 394 190 386 Q157 361 137.5 322.5 Q118 284 118 238 Z " />
<glyph glyph-name="seven" unicode="7" horiz-adv-x="560" d="M431 661 L31 657 L56 728 L519 728 L519 690 L226 0 L136 0 L431 661 Z " />
<glyph glyph-name="eight" unicode="8" horiz-adv-x="560" d="M370 13 Q321 -16 260 -16 Q216 -16 178 -0.5 Q140 15 111.5 42 Q83 69 66.5 105.5 Q50 142 50 184 Q50 238 76 281 Q102 324 145 349 Q156 355 166 360.5 Q176 366 182 369 Q131 387 98 431.5 Q65 476 65 534 Q65 585 90.5 627 Q116 669 158 693 L198 717 Q221 729 246 736.5 Q271 744 299 744 Q340 744 375.5 729.5 Q411 715 437.5 690 Q464 665 479 631 Q494 597 494 558 Q494 508 470.5 468 Q447 428 408 405 Q400 400 393 396.5 Q386 393 378 388 Q407 379 431 361.5 Q455 344 472.5 320.5 Q490 297 500 268 Q510 239 510 207 Q510 151 482.5 106.5 Q455 62 410 36 L370 13 Z M408 534 Q408 567 396 593.5 Q384 620 363.5 639.5 Q343 659 316 669.5 Q289 680 259 680 Q234 680 214 668 Q194 656 180.5 638 Q167 620 160 597.5 Q153 575 153 554 Q153 519 166 492 Q179 465 200 446.5 Q221 428 247 418.5 Q273 409 300 409 Q322 409 341.5 419 Q361 429 376 446 Q391 463 399.5 485.5 Q408 508 408 534 Z M418 185 Q418 218 406 247 Q394 276 372.5 297.5 Q351 319 322 331.5 Q293 344 260 344 Q243 344 227.5 338.5 Q212 333 200 325 Q174 305 158 275 Q142 245 142 209 Q142 177 153.5 148.5 Q165 120 186 98 Q207 76 236 63 Q265 50 299 50 Q317 50 332 56 Q347 62 360 70 Q386 89 402 119 Q418 149 418 185 Z " />
<glyph glyph-name="nine" unicode="9" horiz-adv-x="560" d="M147 0 Q213 72 271 148.5 Q329 225 377 304 Q351 286 320.5 275 Q290 264 256 264 Q206 264 164 281.5 Q122 299 91 330 Q60 361 42.5 402.5 Q25 444 25 491 Q25 555 56.5 608.5 Q88 662 139 691 L179 714 Q205 728 235.5 736 Q266 744 299 744 Q349 744 392 725.5 Q435 707 467 675 Q499 643 517.5 600 Q536 557 536 508 Q536 467 523.5 424.5 Q511 382 490 341 Q450 261 386.5 174.5 Q323 88 241 0 L147 0 Z M443 490 Q443 529 429 563 Q415 597 390 622.5 Q365 648 331 662.5 Q297 677 258 677 Q239 677 220.5 673.5 Q202 670 188 660 Q153 637 132.5 597.5 Q112 558 112 513 Q112 474 126 439.5 Q140 405 164.5 379.5 Q189 354 223 339.5 Q257 325 298 325 Q317 325 336 329.5 Q355 334 371 342 Q404 367 423.5 405.5 Q443 444 443 490 Z " />
<glyph glyph-name="colon" unicode="&#x3a;" horiz-adv-x="280" d="M194 51 Q194 24 176.5 10 Q159 -4 138 -4 Q117 -4 102 8.5 Q87 21 87 42 Q87 68 105 82.5 Q123 97 145 97 Q165 97 179.5 84.5 Q194 72 194 51 Z M194 410 Q194 383 176.5 369 Q159 355 138 355 Q117 355 102 367.5 Q87 380 87 401 Q87 428 105 442 Q123 456 145 456 Q165 456 179.5 443.5 Q194 431 194 410 Z " />
<glyph glyph-name="semicolon" unicode="&#x3b;" horiz-adv-x="280" d="M56 -133 Q79 -104 95 -70 Q111 -36 116 0 Q87 13 87 45 Q87 68 103 82.5 Q119 97 141 97 Q166 97 180 80 Q194 63 194 37 Q194 -18 165.5 -66 Q137 -114 93 -148 L56 -133 Z M194 410 Q194 383 176.5 369 Q159 355 138 355 Q117 355 102 367.5 Q87 380 87 401 Q87 428 105 442 Q123 456 145 456 Q165 456 179.5 443.5 Q194 431 194 410 Z " />
<glyph glyph-name="less" unicode="&#x3c;" horiz-adv-x="556" d="M30 216 L30 284 L526 507 L526 436 L110 250 L526 64 L526 -7 L30 216 Z " />
<glyph glyph-name="equal" unicode="&#x3d;" horiz-adv-x="556" d="M29 372 L527 372 L527 306 L29 306 L29 372 Z M29 194 L527 194 L527 128 L29 128 L29 194 Z " />
<glyph glyph-name="greater" unicode="&#x3e;" horiz-adv-x="556" d="M30 64 L446 250 L30 436 L30 507 L526 284 L526 216 L30 -7 L30 64 Z " />
<glyph glyph-name="question" unicode="&#x3f;" horiz-adv-x="495" d="M205 280 Q205 317 221.5 341 Q238 365 262 385 Q279 399 297.5 412 Q316 425 331.5 441.5 Q347 458 357 480 Q367 502 367 533 Q367 563 355.5 589 Q344 615 324 634.5 Q304 654 277.5 665.5 Q251 677 221 677 Q192 677 163 670.5 Q134 664 107 648 Q92 640 79 630 Q66 620 55 611 L38 654 Q62 675 109 704 Q143 723 181.5 733.5 Q220 744 262 744 Q303 744 338.5 730 Q374 716 400.5 691.5 Q427 667 442 633 Q457 599 457 560 Q457 524 446 498.5 Q435 473 417.5 453 Q400 433 379 417 Q358 401 338 386 Q317 368 302.5 347 Q288 326 288 296 L288 201 L205 201 L205 280 Z M300 51 Q300 24 282 10 Q264 -4 243 -4 Q222 -4 207 8.5 Q192 21 192 42 Q192 68 210.5 82.5 Q229 97 250 97 Q271 97 285.5 84.5 Q300 72 300 51 Z " />
<glyph glyph-name="at" unicode="&#x40;" horiz-adv-x="834" d="M766 129 Q705 63 617 24 Q529 -15 428 -15 Q346 -15 274.5 13.5 Q203 42 150.5 92 Q98 142 67.5 210.5 Q37 279 37 359 Q37 439 69.5 509 Q102 579 158 631 Q214 683 287.5 713 Q361 743 444 743 Q520 743 584.5 718.5 Q649 694 696 650 Q743 606 770 544.5 Q797 483 797 409 Q797 361 781 314.5 Q765 268 735.5 232 Q706 196 663.5 174 Q621 152 568 152 Q537 152 516.5 170.5 Q496 189 494 227 Q463 195 425 174.5 Q387 154 339 154 Q304 154 277.5 166.5 Q251 179 233.5 200 Q216 221 207 249 Q198 277 198 308 Q198 356 216 405.5 Q234 455 267.5 495 Q301 535 348 560.5 Q395 586 454 586 Q492 586 522 567.5 Q552 549 567 519 L582 570 L634 570 L567 329 Q560 305 552 276.5 Q544 248 544 233 Q544 197 579 197 Q620 197 651 214 Q682 231 703 259.5 Q724 288 734.5 324.5 Q745 361 745 400 Q745 466 721.5 521 Q698 576 656 615.5 Q614 655 555.5 677 Q497 699 428 699 Q356 699 294 673.5 Q232 648 186.5 603.5 Q141 559 115 498.5 Q89 438 89 368 Q89 297 116.5 235.5 Q144 174 192 127.5 Q240 81 304.5 54.5 Q369 28 444 28 Q537 28 606 63.5 Q675 99 734 162 L766 129 Z M350 197 Q377 197 402 208.5 Q427 220 449 239.5 Q471 259 487.5 286 Q504 313 514 343 Q522 369 530 397 Q538 425 546 454 Q542 490 517 517.5 Q492 545 446 545 Q404 545 369 522.5 Q334 500 309 465.5 Q284 431 270.5 390 Q257 349 257 311 Q257 261 280.5 229 Q304 197 350 197 Z " />
<glyph glyph-name="A" unicode="A" horiz-adv-x="693" d="M299 689 L281 728 L378 728 L701 0 L604 0 L498 240 L175 240 L86 39 L99 0 L-8 0 L299 689 Z M469 305 L335 607 L204 305 L469 305 Z " />
<glyph glyph-name="B" unicode="B" horiz-adv-x="555" d="M68 689 L45 728 L302 728 Q341 728 375 714 Q409 700 433.5 676 Q458 652 472.5 619.5 Q487 587 487 550 Q487 502 464.5 464 Q442 426 407 405 L392 396 Q382 392 378 391 Q407 383 432 367 Q457 351 475.5 328 Q494 305 504.5 276 Q515 247 515 214 Q515 161 489 118 Q463 75 420 49 L380 27 Q336 0 276 0 L68 0 L68 689 Z M313 65 Q341 65 367 78 Q393 98 408.5 128 Q424 158 424 194 Q424 225 412 253 Q400 281 379.5 302 Q359 323 331.5 335 Q304 347 273 347 L156 347 L156 65 L313 65 Z M292 409 Q321 407 343 420 Q366 435 381 461 Q396 487 398 519 Q398 549 387.5 575 Q377 601 358 620.5 Q339 640 314 651.5 Q289 663 260 663 L156 663 L156 409 L292 409 Z " />
<glyph glyph-name="C" unicode="C" horiz-adv-x="677" d="M647 56 Q623 41 600 29 Q557 5 507.5 -5.5 Q458 -16 400 -16 Q322 -16 254 13 Q186 42 135.5 92 Q85 142 56 209 Q27 276 27 352 Q27 403 40 450 Q53 497 77 538 Q101 579 135 612.5 Q169 646 211 670 L251 693 Q293 717 340.5 730.5 Q388 744 439 744 Q496 744 544.5 732.5 Q593 721 637 700 L607 619 Q562 646 512 661.5 Q462 677 401 677 Q364 677 328.5 669.5 Q293 662 262 644 Q195 602 157 531 Q119 460 119 375 Q119 308 144.5 249 Q170 190 213.5 145.5 Q257 101 316 75.5 Q375 50 442 50 Q501 50 547.5 63 Q594 76 639 101 L647 56 Z " />
<glyph glyph-name="D" unicode="D" horiz-adv-x="704" d="M68 689 L45 728 L321 728 Q396 728 461 700.5 Q526 673 574 625 Q622 577 650 512.5 Q678 448 678 375 Q678 326 665.5 281 Q653 236 630 197 Q607 158 574.5 126 Q542 94 502 70 L462 48 Q422 25 376.5 12.5 Q331 0 281 0 L68 0 L68 689 Z M317 66 Q354 66 389 73 Q424 80 452 97 Q515 137 551 204.5 Q587 272 587 352 Q587 416 563 472 Q539 528 497 570 Q455 612 398.5 636.5 Q342 661 277 661 L157 661 L157 66 L317 66 Z " />
<glyph glyph-name="E" unicode="E" horiz-adv-x="530" d="M68 689 L45 728 L493 728 L468 661 L157 661 L157 410 L483 410 L458 344 L157 344 L157 67 L503 67 L478 0 L68 0 L68 689 Z " />
<glyph glyph-name="F" unicode="F" horiz-adv-x="518" d="M68 689 L45 728 L485 728 L460 661 L157 661 L157 383 L465 383 L440 317 L157 317 L157 0 L68 0 L68 689 Z " />
<glyph glyph-name="G" unicode="G" horiz-adv-x="778" d="M644 48 Q590 18 530.5 1 Q471 -16 400 -16 Q322 -16 254 13 Q186 42 135.5 92 Q85 142 56 209 Q27 276 27 352 Q27 403 40 450 Q53 497 77 538 Q101 579 135 612.5 Q169 646 211 670 L251 693 Q293 717 340.5 730.5 Q388 744 439 744 Q516 744 578 724 Q640 704 694 666 L664 586 Q612 627 548 652 Q484 677 403 677 Q365 677 329 669.5 Q293 662 262 644 Q195 602 157 531 Q119 460 119 375 Q119 308 144 249 Q169 190 213 145.5 Q257 101 315.5 75.5 Q374 50 442 50 Q493 50 534 60 Q575 70 613 89 Q620 93 627 96.5 Q634 100 640 105 L640 294 L371 294 L397 360 L730 360 L730 101 Q719 93 707 86 Q695 79 684 72 L644 48 Z " />
<glyph glyph-name="H" unicode="H" horiz-adv-x="685" d="M68 689 L45 728 L157 728 L157 412 L527 412 L527 689 L505 728 L617 728 L617 0 L527 0 L527 343 L157 343 L157 0 L68 0 L68 689 Z " />
<glyph glyph-name="I" unicode="I" horiz-adv-x="235" d="M73 689 L50 728 L162 728 L162 0 L73 0 L73 689 Z " />
<glyph glyph-name="J" unicode="J" horiz-adv-x="271" d="M-47 -82 L-11 -82 Q7 -82 24 -79 Q41 -76 57 -71 Q83 -50 98.5 -19 Q114 12 114 49 L114 689 L91 728 L204 728 L204 111 Q204 37 184.5 -13.5 Q165 -64 109 -98 L69 -121 Q22 -149 -36 -149 L-47 -82 Z " />
<glyph glyph-name="K" unicode="K" horiz-adv-x="615" d="M68 689 L45 728 L157 728 L157 367 L169 380 L464 689 L457 728 L590 728 L284 404 Q377 315 466 213.5 Q555 112 621 0 L507 0 Q448 95 371 184.5 Q294 274 213 351 L157 300 L157 0 L68 0 L68 689 Z " />
<glyph glyph-name="L" unicode="L" horiz-adv-x="477" d="M68 689 L45 728 L157 728 L157 66 L472 66 L446 0 L68 0 L68 689 Z " />
<glyph glyph-name="M" unicode="M" horiz-adv-x="856" d="M68 683 L34 728 L144 728 L430 349 L715 728 L788 728 L788 0 L699 0 L699 588 L438 242 L397 242 L138 586 L138 0 L68 0 L68 683 Z " />
<glyph glyph-name="N" unicode="N" horiz-adv-x="723" d="M68 683 L34 728 L146 728 L584 145 L584 689 L562 728 L655 728 L655 0 L579 0 L139 585 L139 0 L68 0 L68 683 Z " />
<glyph glyph-name="O" unicode="O" horiz-adv-x="834" d="M585 34 Q544 11 497 -2.5 Q450 -16 398 -16 Q320 -16 252 13 Q184 42 134 92 Q84 142 55.5 209 Q27 276 27 352 Q27 455 77 538 Q127 621 210 671 L249 693 Q291 718 338 731 Q385 744 438 744 Q516 744 583.5 715 Q651 686 701 636 Q751 586 779.5 518.5 Q808 451 808 375 Q808 324 795 277 Q782 230 758 188.5 Q734 147 700.5 113.5 Q667 80 626 56 L585 34 Z M576 83 Q642 124 679 195.5 Q716 267 716 352 Q716 419 691.5 478 Q667 537 624 581.5 Q581 626 523 651.5 Q465 677 398 677 Q360 677 324.5 670.5 Q289 664 259 644 Q193 603 156 531.5 Q119 460 119 375 Q119 308 143.5 249 Q168 190 210.5 145.5 Q253 101 311.5 75.5 Q370 50 438 50 Q476 50 511 56.5 Q546 63 576 83 Z " />
<glyph glyph-name="P" unicode="P" horiz-adv-x="557" d="M68 689 L45 728 L308 728 Q355 728 395.5 711 Q436 694 466 664 Q496 634 513 594.5 Q530 555 530 510 Q530 450 501 401.5 Q472 353 423 325 L383 302 Q357 288 328 280 Q299 272 267 272 L157 272 L157 0 L68 0 L68 689 Z M304 337 Q323 337 340 340.5 Q357 344 372 354 Q404 375 422.5 410 Q441 445 441 488 Q441 524 427 555.5 Q413 587 388.5 610.5 Q364 634 332 648 Q300 662 264 662 L157 662 L157 337 L304 337 Z " />
<glyph glyph-name="Q" unicode="Q" horiz-adv-x="853" d="M803 -14 Q749 -14 706 6 Q663 26 625 56 L601 42 L585 34 Q544 11 497 -2.5 Q450 -16 398 -16 Q320 -16 252 13 Q184 42 134 92 Q84 142 55.5 209 Q27 276 27 352 Q27 455 77 538 Q127 621 210 671 L249 693 Q291 718 338 731 Q385 744 438 744 Q516 744 583.5 715 Q651 686 701 636 Q751 586 779.5 518.5 Q808 451 808 375 Q808 295 776.5 225.5 Q745 156 691 105 Q721 82 755 66.5 Q789 51 827 49 L803 -14 Z M585 92 Q553 119 522 147 Q491 175 456.5 197.5 Q422 220 382.5 234.5 Q343 249 294 249 Q271 249 245 244 Q219 239 192 231 L211 291 Q242 302 272 306.5 Q302 311 330 311 Q381 311 422 296.5 Q463 282 499 259.5 Q535 237 568 209 Q601 181 636 153 Q674 191 695 243 Q716 295 716 352 Q716 419 691.5 478 Q667 537 624 581.5 Q581 626 523 651.5 Q465 677 398 677 Q360 677 324 670 Q288 663 259 644 Q193 603 156 531.5 Q119 460 119 375 Q119 308 143.5 249 Q168 190 210.5 145.5 Q253 101 311.5 75.5 Q370 50 438 50 Q507 50 563 80 L585 92 Z " />
<glyph glyph-name="R" unicode="R" horiz-adv-x="570" d="M68 689 L45 728 L309 728 Q353 728 391.5 712 Q430 696 458.5 668 Q487 640 503 602.5 Q519 565 519 522 Q519 465 491.5 419 Q464 373 419 346 L400 334 Q368 314 325 314 L579 0 L466 0 L231 298 L157 298 L157 0 L68 0 L68 689 Z M304 359 Q335 359 362 371 Q391 391 408.5 422 Q426 453 429 493 Q429 528 416.5 559 Q404 590 382 613 Q360 636 330 649 Q300 662 265 662 L157 662 L157 359 L304 359 Z " />
<glyph glyph-name="S" unicode="S" horiz-adv-x="512" d="M342 13 Q291 -16 232 -16 Q178 -16 126.5 0.5 Q75 17 33 50 L64 130 Q109 91 160 70.5 Q211 50 271 50 Q298 50 320.5 61 Q343 72 358.5 91 Q374 110 382.5 133.5 Q391 157 391 183 Q391 222 377 248 Q363 274 340 291 Q317 308 287 319 Q257 330 226 340 Q192 351 159 364 Q126 377 99.5 398 Q73 419 57 450.5 Q41 482 41 530 Q41 585 67 628 Q93 671 135 694 L176 718 Q222 744 275 744 Q326 744 373 727.5 Q420 711 460 681 L429 603 Q389 638 340.5 658 Q292 678 238 678 Q214 678 194 667.5 Q174 657 160 640 Q146 623 138.5 601 Q131 579 131 557 Q131 519 144.5 495 Q158 471 180.5 455 Q203 439 232 428.5 Q261 418 293 408 Q327 397 361 383.5 Q395 370 422 348 Q449 326 465.5 293 Q482 260 482 210 Q482 156 456 109 Q430 62 382 35 L342 13 Z " />
<glyph glyph-name="T" unicode="T" horiz-adv-x="563" d="M236 661 L6 661 L32 728 L557 728 L531 661 L326 661 L326 0 L236 0 L236 661 Z " />
<glyph glyph-name="U" unicode="U" horiz-adv-x="672" d="M485 28 Q448 7 406 -4.5 Q364 -16 312 -16 Q260 -16 215 2.5 Q170 21 136.5 53 Q103 85 84 128 Q65 171 65 221 L65 689 L42 728 L154 728 L154 247 Q154 207 169.5 171.5 Q185 136 212 109 Q239 82 275.5 66.5 Q312 51 353 51 Q416 51 463 76 Q476 82 488.5 90 Q501 98 514 107 L514 689 L492 728 L604 728 L604 102 Q584 88 563.5 74.5 Q543 61 526 51 L485 28 Z " />
<glyph glyph-name="V" unicode="V" horiz-adv-x="654" d="M-11 728 L87 728 L338 130 L573 689 L561 728 L665 728 L359 0 L295 0 L-11 728 Z " />
<glyph glyph-name="W" unicode="W" horiz-adv-x="969" d="M-11 728 L87 728 L338 130 L447 390 L305 728 L403 728 L653 130 L889 689 L876 728 L981 728 L675 0 L611 0 L485 300 L359 0 L295 0 L-11 728 Z " />
<glyph glyph-name="X" unicode="X" horiz-adv-x="619" d="M256 376 L13 728 L119 728 L319 440 L490 689 L482 728 L603 728 L361 379 L623 0 L516 0 L299 314 L82 0 L-4 0 L256 376 Z " />
<glyph glyph-name="Y" unicode="Y" horiz-adv-x="613" d="M264 291 L-3 728 L104 728 L320 373 L513 689 L502 728 L617 728 L353 298 L353 0 L264 0 L264 291 Z " />
<glyph glyph-name="Z" unicode="Z" horiz-adv-x="572" d="M17 34 L425 661 L29 661 L55 728 L547 728 L547 694 L139 66 L559 66 L533 0 L17 0 L17 34 Z " />
<glyph glyph-name="bracketleft" unicode="&#x5b;" horiz-adv-x="335" d="M102 728 L315 728 L315 674 L181 674 L181 -133 L315 -133 L315 -187 L102 -187 L102 728 Z " />
<glyph glyph-name="backslash" unicode="&#x5c;" horiz-adv-x="401" d="M-2 744 L47 744 L403 -16 L355 -16 L-2 744 Z " />
<glyph glyph-name="bracketright" unicode="&#x5d;" horiz-adv-x="335" d="M19 -133 L154 -133 L154 674 L19 674 L19 728 L233 728 L233 -187 L19 -187 L19 -133 Z " />
<glyph glyph-name="asciicircum" unicode="&#x5e;" horiz-adv-x="556" d="M246 705 L310 705 L523 416 L449 416 L278 635 L107 416 L33 416 L246 705 Z " />
<glyph glyph-name="underscore" unicode="&#x5f;" horiz-adv-x="500" d="M0 -112 L500 -112 L500 -145 L0 -145 L0 -112 Z " />
<glyph glyph-name="grave" unicode="&#x60;" horiz-adv-x="500" d="M134 694 L198 718 L306 560 L263 542 L134 694 Z " />
<glyph glyph-name="a" unicode="a" horiz-adv-x="481" d="M426 -4 Q380 -4 358.5 12 Q337 28 330 65 Q318 53 300.5 40.5 Q283 28 270 20 L256 12 Q215 -12 173 -12 Q144 -12 117.5 -3 Q91 6 71 23 Q51 40 39.5 64.5 Q28 89 28 120 Q28 165 47.5 196 Q67 227 101 247 L140 269 Q174 289 220.5 298.5 Q267 308 321 310 Q321 318 321 326.5 Q321 335 320 346 Q316 393 286 415.5 Q256 438 211 438 Q176 438 143.5 428.5 Q111 419 85 405 L70 442 Q87 453 110 464 Q139 477 176.5 488 Q214 499 257 499 Q288 499 315 491 Q342 483 362.5 466 Q383 449 395 423.5 Q407 398 407 364 L407 125 Q407 87 420 71 Q433 55 474 55 L477 55 L453 -4 L426 -4 Z M322 260 Q273 259 228.5 254 Q184 249 149 230 Q131 216 121 195.5 Q111 175 111 146 Q111 99 145 73 Q179 47 227 47 Q238 47 251 52 Q264 57 277 65 Q290 73 301.5 84.5 Q313 96 322 110 L322 260 Z " />
<glyph glyph-name="b" unicode="b" horiz-adv-x="562" d="M62 673 L40 710 L147 740 L147 444 Q179 465 212.5 480.5 Q246 496 287 498 Q314 500 340 495 Q381 488 417 467.5 Q453 447 479.5 415.5 Q506 384 521.5 343 Q537 302 537 255 Q537 194 513 144.5 Q489 95 447 63 Q399 24 349.5 6 Q300 -12 262 -12 Q204 -12 156.5 11 Q109 34 62 66 L62 673 Z M147 109 Q173 83 207 68 Q241 53 281 51 Q305 49 329 54 Q358 60 380.5 77 Q403 94 419 118 Q435 142 443 171.5 Q451 201 451 232 Q451 275 435 313 Q419 351 392 378.5 Q365 406 329 422 Q293 438 252 438 Q220 438 195.5 428 Q171 418 147 395 L147 109 Z " />
<glyph glyph-name="c" unicode="c" horiz-adv-x="478" d="M447 40 Q408 17 365.5 2.5 Q323 -12 274 -12 Q221 -12 175.5 7 Q130 26 96.5 59 Q63 92 43.5 136.5 Q24 181 24 232 Q24 300 57.5 355.5 Q91 411 146 443 L184 465 Q213 481 245 490 Q277 499 311 499 Q349 499 381 491.5 Q413 484 442 470 L414 399 Q383 419 349.5 428.5 Q316 438 277 438 Q255 438 233.5 433.5 Q212 429 195 418 Q155 393 133.5 349.5 Q112 306 112 255 Q112 213 128 175.5 Q144 138 171.5 110 Q199 82 236 66 Q273 50 315 50 Q348 50 379 56.5 Q410 63 444 80 L447 40 Z " />
<glyph glyph-name="d" unicode="d" horiz-adv-x="561" d="M416 44 L387 26 L373 18 Q323 -12 262 -12 Q214 -12 170.5 6.5 Q127 25 94.5 57.5 Q62 90 43 134.5 Q24 179 24 232 Q24 303 57 358.5 Q90 414 144 445 L182 467 Q235 499 300 499 Q367 499 415 462 L415 673 L394 710 L500 740 L500 0 L416 0 L416 44 Z M415 375 Q387 404 350 421 Q313 438 271 438 Q251 438 230.5 434 Q210 430 194 419 Q156 393 134 349.5 Q112 306 112 255 Q112 211 127.5 173.5 Q143 136 170 108.5 Q197 81 233 65.5 Q269 50 310 50 Q339 50 365.5 59.5 Q392 69 415 91 L415 375 Z " />
<glyph glyph-name="e" unicode="e" horiz-adv-x="541" d="M502 79 Q489 68 466.5 52.5 Q444 37 414.5 22.5 Q385 8 349 -2 Q313 -12 273 -12 Q221 -12 175.5 6.5 Q130 25 96.5 57.5 Q63 90 43.5 134.5 Q24 179 24 232 Q24 304 57 359 Q90 414 143 446 L180 468 Q231 499 295 499 Q341 499 380.5 481 Q420 463 449.5 431.5 Q479 400 496 356.5 Q513 313 513 262 L513 238 L113 238 Q114 199 131 164.5 Q148 130 175 104.5 Q202 79 238 64 Q274 49 314 49 Q340 49 360 51.5 Q380 54 398 61.5 Q416 69 436 82 Q456 95 482 116 L502 79 Z M436 294 Q431 325 416.5 351.5 Q402 378 379.5 397.5 Q357 417 327.5 428 Q298 439 265 439 Q246 439 226.5 435 Q207 431 191 421 Q160 401 139.5 368 Q119 335 114 294 L436 294 Z " />
<glyph glyph-name="f" unicode="f" horiz-adv-x="318" d="M88 426 L-12 426 L12 487 L88 487 L88 554 Q88 607 104.5 643 Q121 679 168 705 L192 718 Q216 732 238 736 Q260 740 299 740 L311 678 Q285 678 258.5 677.5 Q232 677 206 669 Q185 652 179 630 Q173 608 173 576 L173 487 L305 487 L305 426 L173 426 L173 0 L88 0 L88 426 Z " />
<glyph glyph-name="g" unicode="g" horiz-adv-x="468" d="M349 -166 Q321 -183 286.5 -192 Q252 -201 207 -201 Q157 -201 121.5 -190 Q86 -179 63.5 -161.5 Q41 -144 30.5 -121.5 Q20 -99 20 -76 Q20 -51 28.5 -31.5 Q37 -12 57.5 5 Q78 22 111.5 39 Q145 56 195 76 Q189 83 184.5 91 Q180 99 180 110 Q180 124 190.5 136.5 Q201 149 218 161 Q213 160 206 160 Q199 160 191 160 Q127 169 88.5 202.5 Q50 236 42 293 Q39 311 40 326 Q42 371 65.5 402.5 Q89 434 125 457 L156 475 Q174 486 194.5 492 Q215 498 238 499 Q246 499 253 498.5 Q260 498 268 497 Q279 496 288.5 493.5 Q298 491 308 487 L450 487 L450 429 L370 429 Q390 412 401.5 388.5 Q413 365 413 338 Q413 300 396 269.5 Q379 239 350 216 Q332 201 315 189.5 Q298 178 284.5 169.5 Q271 161 263 153.5 Q255 146 255 139 Q255 126 267 117 Q279 108 298 100.5 Q317 93 339.5 85 Q362 77 383 65.5 Q404 54 420.5 37 Q437 20 443 -4 Q448 -22 448 -42 Q446 -76 428.5 -103 Q411 -130 380 -148 L349 -166 Z M224 55 Q179 33 146.5 13.5 Q114 -6 106 -31 Q103 -43 103 -54 Q104 -70 112 -86 Q120 -102 136.5 -115 Q153 -128 179 -136 Q205 -144 241 -145 Q250 -145 259 -145 Q268 -145 276 -143 Q313 -139 333 -125 Q353 -111 360 -86 Q364 -74 364 -58 Q362 -29 348 -11 Q334 7 313.5 18 Q293 29 269 37 Q245 45 224 55 Z M334 315 Q334 340 325 363 Q316 386 300 403.5 Q284 421 263 431.5 Q242 442 217 444 Q191 445 165 434 Q149 423 138 404.5 Q127 386 122 365 Q120 357 120 350 Q120 343 120 335 Q121 311 130 289.5 Q139 268 155 251.5 Q171 235 192 224.5 Q213 214 237 213 Q264 211 288 222 Q308 235 321 261 Q334 287 334 315 Z " />
<glyph glyph-name="h" unicode="h" horiz-adv-x="535" d="M62 673 L40 710 L147 740 L147 423 Q159 434 174.5 445 Q190 456 202 463 L216 471 Q268 499 320 499 Q352 499 381 488.5 Q410 478 432 458 Q454 438 467 408.5 Q480 379 480 342 L480 0 L395 0 L395 316 Q395 346 385 368.5 Q375 391 358 406.5 Q341 422 318.5 430 Q296 438 270 438 Q253 438 235 434 Q217 430 199 420 Q185 412 173 400.5 Q161 389 147 375 L147 0 L62 0 L62 673 Z " />
<glyph glyph-name="i" unicode="i" horiz-adv-x="209" d="M95 566 Q75 566 61.5 578.5 Q48 591 48 611 Q48 634 67.5 647 Q87 660 108 660 Q128 660 141 647 Q154 634 154 614 Q154 591 134.5 578.5 Q115 566 95 566 Z M62 432 L40 469 L147 499 L147 0 L62 0 L62 432 Z " />
<glyph glyph-name="j" unicode="j" horiz-adv-x="218" d="M163 614 Q163 591 143.5 578.5 Q124 566 104 566 Q84 566 70.5 578.5 Q57 591 57 611 Q57 634 76.5 647 Q96 660 117 660 Q137 660 150 647 Q163 634 163 614 Z M-43 -138 Q-26 -138 -2 -136 Q22 -134 36 -129 Q56 -116 63.5 -92.5 Q71 -69 71 -46 L71 432 L50 469 L156 499 L156 -11 Q156 -58 143 -95.5 Q130 -133 90 -156 Q73 -166 58.5 -174 Q44 -182 30 -187.5 Q16 -193 1 -196 Q-14 -199 -33 -199 L-43 -138 Z " />
<glyph glyph-name="k" unicode="k" horiz-adv-x="471" d="M62 673 L40 710 L147 740 L147 255 L164 272 L337 453 L327 487 L449 487 L253 276 Q318 215 376 146 Q434 77 479 0 L371 0 Q334 61 286.5 119 Q239 177 185 228 L147 196 L147 0 L62 0 L62 673 Z " />
<glyph glyph-name="l" unicode="l" horiz-adv-x="209" d="M62 673 L40 710 L147 740 L147 0 L62 0 L62 673 Z " />
<glyph glyph-name="m" unicode="m" horiz-adv-x="765" d="M62 432 L40 469 L146 499 L146 428 Q155 438 167.5 450 Q180 462 196 472 Q212 482 231.5 488.5 Q251 495 275 495 Q300 499 323 495 Q354 488 378 469 Q402 450 414 421 Q443 454 485 476.5 Q527 499 572 499 Q599 499 624 489.5 Q649 480 668 462.5 Q687 445 698.5 420 Q710 395 710 363 L710 0 L625 0 L625 336 Q625 383 595.5 410.5 Q566 438 524 438 Q492 438 469 422 Q446 406 429 377 L429 0 L344 0 L344 336 Q344 383 314.5 410.5 Q285 438 242 438 Q210 438 186.5 420.5 Q163 403 146 377 L146 0 L62 0 L62 432 Z " />
<glyph glyph-name="n" unicode="n" horiz-adv-x="535" d="M62 432 L40 471 L146 499 L146 422 Q157 433 171.5 443 Q186 453 199 461 L213 470 Q266 499 320 499 Q352 499 381 488.5 Q410 478 432 458 Q454 438 467 408.5 Q480 379 480 342 L480 0 L395 0 L395 316 Q395 346 385 368.5 Q375 391 358 406.5 Q341 422 318.5 430 Q296 438 270 438 Q232 438 202.5 420.5 Q173 403 147 375 L147 0 L62 0 L62 432 Z " />
<glyph glyph-name="o" unicode="o" horiz-adv-x="579" d="M396 22 Q339 -12 270 -12 Q220 -12 175.5 6 Q131 24 97.5 56.5 Q64 89 44 134 Q24 179 24 232 Q24 303 57.5 357.5 Q91 412 145 444 L183 466 Q211 482 242.5 490.5 Q274 499 308 499 Q358 499 403 481 Q448 463 481.5 430.5 Q515 398 534.5 353 Q554 308 554 255 Q554 184 521.5 129.5 Q489 75 435 43 L396 22 Z M385 67 Q423 95 445.5 138 Q468 181 468 232 Q468 275 453 312.5 Q438 350 411 378 Q384 406 348 422 Q312 438 270 438 Q249 438 230 434 Q211 430 194 419 Q155 394 133.5 350 Q112 306 112 255 Q112 213 127 175.5 Q142 138 168.5 110 Q195 82 230.5 66 Q266 50 308 50 Q349 50 385 67 Z " />
<glyph glyph-name="p" unicode="p" horiz-adv-x="562" d="M62 432 L40 469 L146 499 L146 442 Q174 465 212 480.5 Q250 496 286 498 Q299 499 311 498.5 Q323 498 335 496 Q377 490 414 469 Q451 448 478 416.5 Q505 385 521 344 Q537 303 537 255 Q537 183 504 128 Q471 73 417 42 L379 19 Q325 -12 262 -12 Q230 -12 200.5 -2 Q171 8 147 25 L147 -197 L62 -197 L62 432 Z M147 110 Q173 84 207 68.5 Q241 53 281 51 Q305 49 329 54 Q357 60 380 77 Q403 94 418.5 118 Q434 142 442.5 171.5 Q451 201 451 232 Q451 275 435 313 Q419 351 392 378.5 Q365 406 329 422 Q293 438 252 438 Q220 438 195.5 428 Q171 418 147 395 L147 110 Z " />
<glyph glyph-name="q" unicode="q" horiz-adv-x="561" d="M415 42 Q388 21 350 6.5 Q312 -8 274 -10 Q262 -11 250 -10.5 Q238 -10 226 -8 Q184 -2 147 18.5 Q110 39 83 70.5 Q56 102 40 143 Q24 184 24 232 Q24 303 57 358 Q90 413 144 445 L182 467 Q208 482 238 490.5 Q268 499 300 499 Q337 499 374.5 487 Q412 475 436 454 L442 482 L500 499 L500 -197 L415 -197 L415 42 Z M415 375 Q389 402 354.5 418.5 Q320 435 281 436 Q268 437 256 436.5 Q244 436 233 434 Q222 432 212.5 428.5 Q203 425 195 419 Q157 393 134.5 349.5 Q112 306 112 255 Q112 213 126.5 176.5 Q141 140 166.5 113 Q192 86 226 70 Q260 54 299 52 Q364 49 415 91 L415 375 Z " />
<glyph glyph-name="r" unicode="r" horiz-adv-x="345" d="M62 432 L40 469 L146 499 L146 428 Q156 440 171.5 452 Q187 464 200 472 L214 480 Q232 491 252 495 Q272 499 295 499 Q326 499 347 487 L326 415 L299 424 Q272 435 244 435 Q230 435 217.5 431.5 Q205 428 192 422 Q164 403 147 372 L147 0 L62 0 L62 432 Z " />
<glyph glyph-name="s" unicode="s" horiz-adv-x="383" d="M248 8 Q211 -12 172 -12 Q136 -12 101 -0.5 Q66 11 37 32 L65 104 Q94 81 129 64.5 Q164 48 201 48 Q232 48 250.5 69 Q269 90 269 120 Q269 147 259.5 164 Q250 181 233.5 192 Q217 203 196 210 Q175 217 153 224 Q132 231 111.5 239.5 Q91 248 75 262 Q59 276 49 296.5 Q39 317 39 349 Q39 383 55.5 412 Q72 441 102 458 L133 476 Q150 485 169.5 492 Q189 499 212 499 Q246 499 277 488 Q308 477 334 459 L308 390 Q284 410 252.5 424 Q221 438 189 438 Q181 438 171.5 436.5 Q162 435 155 432 Q140 424 131.5 406.5 Q123 389 123 371 Q124 347 133 332 Q142 317 157 307 Q172 297 191 290.5 Q210 284 230 278 Q254 270 276.5 261 Q299 252 316 237 Q333 222 343.5 200.5 Q354 179 354 146 Q354 104 333 73.5 Q312 43 279 25 L248 8 Z " />
<glyph glyph-name="t" unicode="t" horiz-adv-x="318" d="M244 -4 Q196 -4 165 8.5 Q134 21 116 43 Q98 65 90.5 95.5 Q83 126 83 162 L83 426 L-16 426 L7 487 L83 487 L83 623 L168 658 L168 487 L301 487 L301 426 L168 426 L168 159 Q168 117 198 87 Q228 57 282 57 L304 57 L280 -4 L244 -4 Z " />
<glyph glyph-name="u" unicode="u" horiz-adv-x="535" d="M391 65 Q380 54 364.5 43.5 Q349 33 338 25 L324 17 Q271 -12 217 -12 Q185 -12 156 -1.5 Q127 9 105 29 Q83 49 70 78 Q57 107 57 145 L57 432 L36 469 L143 499 L143 170 Q143 112 179 81 Q215 50 267 50 Q304 50 339 67 Q351 75 364 86.5 Q377 98 389 112 L389 432 L368 469 L474 499 L474 0 L391 0 L391 65 Z " />
<glyph glyph-name="v" unicode="v" horiz-adv-x="468" d="M-1 487 L91 487 L244 121 L383 452 L371 487 L469 487 L265 0 L204 0 L-1 487 Z " />
<glyph glyph-name="w" unicode="w" horiz-adv-x="692" d="M-1 487 L91 487 L244 121 L311 280 L224 487 L316 487 L470 121 L608 452 L596 487 L693 487 L489 0 L429 0 L347 195 L265 0 L204 0 L-1 487 Z " />
<glyph glyph-name="x" unicode="x" horiz-adv-x="472" d="M184 251 L11 487 L114 487 L244 311 L349 452 L340 487 L455 487 L284 254 L470 0 L367 0 L225 195 L81 0 L1 0 L184 251 Z " />
<glyph glyph-name="y" unicode="y" horiz-adv-x="470" d="M200 12 L-1 487 L92 487 L246 121 L386 452 L374 487 L471 487 L184 -197 L108 -197 L200 12 Z " />
<glyph glyph-name="z" unicode="z" horiz-adv-x="436" d="M19 31 L297 426 L27 426 L51 487 L411 487 L411 455 L135 62 L424 62 L400 0 L19 0 L19 31 Z " />
<glyph glyph-name="braceleft" unicode="&#x7b;" horiz-adv-x="390" d="M314 -187 Q279 -187 249 -177.5 Q219 -168 197.5 -150.5 Q176 -133 163.5 -107.5 Q151 -82 151 -50 L151 107 Q151 133 149 153 Q147 173 139 188.5 Q131 204 116 217.5 Q101 231 75 244 L75 297 Q101 310 116 323 Q131 336 139 352 Q147 368 149 387.5 Q151 407 151 433 L151 590 Q151 622 163.5 647.5 Q176 673 197.5 691 Q219 709 249 718.5 Q279 728 314 728 L314 673 Q266 673 248 645 Q230 617 230 575 L230 427 Q230 368 209 333.5 Q188 299 140 272 L140 269 Q164 255 181 240 Q198 225 209 207 Q220 189 225 166 Q230 143 230 113 L230 -35 Q230 -76 248 -104.5 Q266 -133 314 -133 L314 -187 Z " />
<glyph glyph-name="bar" unicode="&#x7c;" horiz-adv-x="500" d="M214 800 L286 800 L286 -200 L214 -200 L214 800 Z " />
<glyph glyph-name="braceright" unicode="&#x7d;" horiz-adv-x="390" d="M75 -133 Q123 -133 141.5 -104.5 Q160 -76 160 -35 L160 113 Q160 143 165 166 Q170 189 180.5 207 Q191 225 208 240 Q225 255 249 269 L249 272 Q201 299 180.5 333.5 Q160 368 160 427 L160 575 Q160 617 141.5 645 Q123 673 75 673 L75 728 Q110 728 140 718.5 Q170 709 191.5 691 Q213 673 225.5 647.5 Q238 622 238 590 L238 433 Q238 407 240 387.5 Q242 368 250 352 Q258 336 273 323 Q288 310 314 297 L314 244 Q288 231 273 217.5 Q258 204 250 188.5 Q242 173 240 153 Q238 133 238 107 L238 -50 Q238 -82 225.5 -107.5 Q213 -133 191.5 -150.5 Q170 -168 140 -177.5 Q110 -187 75 -187 L75 -133 Z " />
<glyph glyph-name="asciitilde" unicode="&#x7e;" horiz-adv-x="556" d="M21 179 Q25 203 35 228 Q45 253 61 273.5 Q77 294 99 307 Q121 320 148 320 Q178 320 210 308.5 Q242 297 275.5 283.5 Q309 270 343 259 Q377 248 410 248 Q442 248 461.5 270.5 Q481 293 489 321 L535 321 Q530 297 520.5 272 Q511 247 495 226.5 Q479 206 457.5 193 Q436 180 408 180 Q380 180 347.5 191 Q315 202 280.5 215.5 Q246 229 211.5 240.5 Q177 252 145 252 Q114 252 94 230 Q74 208 67 179 L21 179 Z " />
<glyph glyph-name="uni00A0" unicode="&#xa0;" d="" />
<glyph glyph-name="exclamdown" unicode="&#xa1;" horiz-adv-x="289" d="M104 295 L183 295 L189 -232 L98 -232 L104 295 Z M198 454 Q198 428 180 414 Q162 400 141 400 Q120 400 105 412.5 Q90 425 90 446 Q90 472 108.5 486 Q127 500 148 500 Q169 500 183.5 488 Q198 476 198 454 Z " />
<glyph glyph-name="cent" unicode="&#xa2;" horiz-adv-x="560" d="M293 232 Q242 234 198 253.5 Q154 273 122 306 Q90 339 71.5 382.5 Q53 426 53 475 Q53 543 86 598.5 Q119 654 174 686 L213 709 Q231 719 251 726.5 Q271 734 293 738 L293 806 L349 806 L349 743 Q384 742 413 735 Q442 728 470 714 L443 642 Q398 670 349 677 L349 293 Q380 294 410 301 Q440 308 472 323 L475 283 Q445 265 414 252.5 Q383 240 349 235 L349 169 L293 169 L293 232 Z M140 498 Q140 462 151.5 429.5 Q163 397 183.5 371 Q204 345 232 326.5 Q260 308 293 299 L293 681 Q253 679 224 662 Q184 636 162 592.5 Q140 549 140 498 Z " />
<glyph glyph-name="sterling" unicode="&#xa3;" horiz-adv-x="560" d="M33 31 L53 42 Q61 48 65 49.5 Q69 51 75 56 Q111 82 131 120.5 Q151 159 151 207 Q151 230 146 251 Q141 272 132 293 L50 293 L50 344 L108 344 Q87 388 66.5 430 Q46 472 46 517 Q46 574 73 619.5 Q100 665 147 692 L187 715 Q210 728 237 736 Q264 744 294 744 Q360 744 410 721.5 Q460 699 504 666 L461 596 Q418 631 370 655.5 Q322 680 259 681 Q244 681 228 678 Q212 675 198 667 Q186 659 174.5 645.5 Q163 632 154.5 615 Q146 598 140.5 579 Q135 560 135 541 Q135 516 142.5 491.5 Q150 467 161 442.5 Q172 418 185 393.5 Q198 369 210 344 L425 344 L425 293 L225 293 Q230 275 234 257 Q238 239 236 221 Q234 174 213 136 Q192 98 159 72 Q184 78 217 78 Q238 78 256 74 Q274 70 291 64.5 Q308 59 325.5 55 Q343 51 364 51 Q387 51 406.5 58 Q426 65 443.5 76.5 Q461 88 477 103 Q493 118 509 135 L538 95 Q518 73 493.5 53 Q469 33 431 10 Q411 -1 386.5 -8 Q362 -15 333 -15 Q309 -15 287.5 -10.5 Q266 -6 245 0 Q224 6 202 10.5 Q180 15 156 15 Q142 15 130.5 13.5 Q119 12 107 9.5 Q95 7 80.5 2.5 Q66 -2 47 -8 L33 31 Z " />
<glyph glyph-name="currency" unicode="&#xa4;" horiz-adv-x="560" d="M61 162 L115 218 Q95 243 84 275 Q73 307 73 342 Q73 378 84 410 Q95 442 115 467 L61 522 L100 562 L155 507 Q209 549 280 549 Q352 549 406 507 L462 562 L499 522 L444 467 Q464 441 475.5 409.5 Q487 378 487 342 Q487 307 475.5 275 Q464 243 444 218 L499 162 L462 123 L406 178 Q380 158 348 146.5 Q316 135 280 135 Q245 135 213 146.5 Q181 158 155 178 L100 123 L61 162 Z M433 342 Q433 374 421 402 Q409 430 388.5 451 Q368 472 340 484 Q312 496 280 496 Q248 496 220.5 484 Q193 472 172 451 Q151 430 139 402 Q127 374 127 342 Q127 310 139 282 Q151 254 172 233.5 Q193 213 220.5 201 Q248 189 280 189 Q312 189 340 201 Q368 213 388.5 233.5 Q409 254 421 282 Q433 310 433 342 Z " />
<glyph glyph-name="yen" unicode="&#xa5;" horiz-adv-x="560" d="M238 234 L47 234 L47 298 L238 298 L179 401 L47 401 L47 466 L145 466 L-3 728 L99 728 L293 386 L463 689 L452 728 L564 728 L418 466 L514 466 L514 401 L384 401 L327 298 L514 298 L514 234 L327 234 L327 0 L238 0 L238 234 Z " />
<glyph glyph-name="brokenbar" unicode="&#xa6;" horiz-adv-x="500" d="M214 753 L286 753 L286 419 L214 419 L214 753 Z M214 252 L286 252 L286 -81 L214 -81 L214 252 Z " />
<glyph glyph-name="section" unicode="&#xa7;" horiz-adv-x="560" d="M348 -106 Q328 -117 306.5 -124.5 Q285 -132 259 -132 Q209 -132 169 -115.5 Q129 -99 98 -73 L135 -4 Q168 -36 209.5 -53.5 Q251 -71 295 -71 Q313 -71 328 -62.5 Q343 -54 354 -40.5 Q365 -27 371.5 -9 Q378 9 378 27 Q378 55 369 73.5 Q360 92 343.5 105 Q327 118 305 126.5 Q283 135 256 143 Q221 153 186 165.5 Q151 178 123.5 196 Q96 214 79 240.5 Q62 267 62 307 Q62 331 70.5 352 Q79 373 92 391.5 Q105 410 121.5 425.5 Q138 441 154 452 Q101 496 101 560 Q101 604 121 641 Q141 678 179 700 L212 719 Q233 730 254.5 736.5 Q276 743 302 744 Q352 744 391.5 727.5 Q431 711 462 685 L426 618 Q411 631 392 643 Q373 655 352 664 Q331 673 309 677.5 Q287 682 266 682 Q248 682 233 674 Q218 666 207 652.5 Q196 639 189.5 621.5 Q183 604 183 586 Q183 557 193.5 537.5 Q204 518 222 504.5 Q240 491 263.5 481.5 Q287 472 313 464 Q345 453 378.5 442.5 Q412 432 439 415 Q466 398 483 372 Q500 346 500 304 Q500 281 492.5 260 Q485 239 472 220.5 Q459 202 441.5 186.5 Q424 171 405 159 Q429 144 444.5 117 Q460 90 460 52 Q460 14 441 -24.5 Q422 -63 382 -88 L348 -106 Z M417 283 Q417 322 394.5 343 Q372 364 338.5 377 Q305 390 267 399 Q229 408 199 423 Q177 406 160.5 382 Q144 358 144 329 Q144 304 154.5 286 Q165 268 182.5 255.5 Q200 243 223 234.5 Q246 226 270 219 Q294 212 317.5 204.5 Q341 197 360 188 Q381 202 399 225.5 Q417 249 417 283 Z " />
<glyph glyph-name="dieresis" unicode="&#xa8;" horiz-adv-x="500" d="M386 608 Q386 589 372.5 576 Q359 563 341 563 Q322 563 309.5 576 Q297 589 297 608 Q297 625 310.5 638.5 Q324 652 341 652 Q359 652 372.5 638.5 Q386 625 386 608 Z M203 608 Q203 589 190 576 Q177 563 159 563 Q140 563 127 576 Q114 589 114 608 Q114 625 127.5 638.5 Q141 652 159 652 Q177 652 190 638.5 Q203 625 203 608 Z " />
<glyph glyph-name="copyright" unicode="&#xa9;" horiz-adv-x="838" d="M601 36 Q557 11 511 -1.5 Q465 -14 413 -14 Q335 -14 266.5 15 Q198 44 147 94.5 Q96 145 66.5 213 Q37 281 37 359 Q37 411 50.5 459.5 Q64 508 88.5 550 Q113 592 147.5 626.5 Q182 661 224 685 L240 694 Q282 717 329 730.5 Q376 744 427 744 Q505 744 573.5 714.5 Q642 685 692.5 634 Q743 583 772.5 514.5 Q802 446 802 368 Q802 316 788.5 268 Q775 220 751 178 Q727 136 692.5 102 Q658 68 616 44 L601 36 Z M750 359 Q750 429 723.5 491 Q697 553 651 599 Q605 645 544 671.5 Q483 698 413 698 Q368 698 327 687 Q286 676 250 656 Q177 613 133 537.5 Q89 462 89 368 Q89 298 115.5 236.5 Q142 175 188 129.5 Q234 84 295.5 57.5 Q357 31 427 31 Q516 31 589 72 Q662 115 706 190.5 Q750 266 750 359 Z M594 199 Q584 193 575.5 188.5 Q567 184 557 179 Q531 166 501.5 160.5 Q472 155 439 155 Q392 155 351.5 171 Q311 187 281 214 Q251 241 233.5 277.5 Q216 314 216 355 Q216 410 246 456 Q276 502 325 528 L357 546 Q382 559 410 566 Q438 573 470 573 Q504 573 531.5 567.5 Q559 562 585 551 L563 489 Q537 504 506.5 513 Q476 522 439 522 Q420 522 401 519 Q382 516 366 507 Q329 487 309 450.5 Q289 414 289 373 Q289 338 303.5 308 Q318 278 342.5 255 Q367 232 400.5 219 Q434 206 473 206 Q508 206 534.5 213.5 Q561 221 589 235 L594 199 Z " />
<glyph glyph-name="ordfeminine" unicode="&#xaa;" horiz-adv-x="321" d="M274 429 Q246 429 231 438 Q216 447 211 468 Q203 461 192 454.5 Q181 448 173 443 L165 438 Q139 424 113 424 Q75 424 48 445 Q21 466 21 504 Q21 530 33.5 549 Q46 568 67 579 L98 597 Q118 608 145.5 613 Q173 618 204 620 Q204 624 204 628.5 Q204 633 203 638 Q201 663 182.5 674.5 Q164 686 139 686 Q117 686 96.5 680 Q76 674 59 666 L47 694 Q55 699 63 703.5 Q71 708 79 711 Q98 719 122.5 726.5 Q147 734 175 734 Q215 734 243.5 714 Q272 694 272 651 L272 515 Q272 493 280.5 484 Q289 475 313 475 L315 475 L296 429 L274 429 Z M205 584 Q177 583 152 580.5 Q127 578 106 569 Q85 553 86 525 Q87 499 106.5 484 Q126 469 154 469 Q165 469 180 478 Q195 487 205 500 L205 584 Z M21 371 L307 371 L307 326 L21 326 L21 371 Z " />
<glyph glyph-name="guillemotleft" unicode="&#xab;" horiz-adv-x="384" d="M177 232 L325 440 L356 425 L261 255 L360 73 L322 51 L177 232 Z M24 232 L171 440 L202 425 L108 255 L207 73 L169 51 L24 232 Z " />
<glyph glyph-name="logicalnot" unicode="&#xac;" horiz-adv-x="556" d="M460 250 L29 250 L29 315 L527 315 L527 79 L460 79 L460 250 Z " />
<glyph glyph-name="uni00AD" unicode="&#xad;" horiz-adv-x="340" d="M32 284 L310 284 L310 221 L32 221 L32 284 Z " />
<glyph glyph-name="registered" unicode="&#xae;" horiz-adv-x="838" d="M601 36 Q557 11 511 -1.5 Q465 -14 413 -14 Q335 -14 266.5 15 Q198 44 147 94.5 Q96 145 66.5 213 Q37 281 37 359 Q37 411 50.5 459.5 Q64 508 88.5 550 Q113 592 147.5 626.5 Q182 661 224 685 L240 694 Q282 717 329 730.5 Q376 744 427 744 Q505 744 573.5 714.5 Q642 685 692.5 634 Q743 583 772.5 514.5 Q802 446 802 368 Q802 316 788.5 268 Q775 220 751 178 Q727 136 692.5 102 Q658 68 616 44 L601 36 Z M750 359 Q750 429 723.5 491 Q697 553 651 599 Q605 645 544 671.5 Q483 698 413 698 Q368 698 327 687 Q286 676 250 656 Q177 613 133 537.5 Q89 462 89 368 Q89 298 115.5 236.5 Q142 175 188 129.5 Q234 84 295.5 57.5 Q357 31 427 31 Q516 31 589 72 Q662 115 706 190.5 Q750 266 750 359 Z M285 536 L267 564 L441 564 Q468 564 491.5 555 Q515 546 532.5 531 Q550 516 560 495 Q570 474 570 450 Q570 420 554 394 Q538 368 511 353 Q496 345 485.5 342 Q475 339 463 338 L606 164 L522 164 L393 324 L356 324 L356 164 L285 164 L285 536 Z M434 370 Q451 369 464 376 Q478 384 487 398.5 Q496 413 497 431 Q497 466 472 490.5 Q447 515 409 515 L356 515 L356 370 L434 370 Z " />
<glyph glyph-name="overscore" unicode="&#xaf;" horiz-adv-x="500" d="M107 625 L393 625 L393 573 L107 573 L107 625 Z " />
<glyph glyph-name="degree" unicode="&#xb0;" horiz-adv-x="411" d="M263 438 Q231 419 188 419 Q158 419 131 430.5 Q104 442 84 461.5 Q64 481 52.5 507.5 Q41 534 41 565 Q41 607 61 640.5 Q81 674 114 692 L152 714 Q169 724 187.5 729.5 Q206 735 226 735 Q257 735 283.5 723.5 Q310 712 330 692 Q350 672 361.5 645.5 Q373 619 373 588 Q373 546 353.5 513 Q334 480 301 460 L263 438 Z M224 473 Q240 473 254.5 480.5 Q269 488 280 500.5 Q291 513 297 529.5 Q303 546 303 565 Q303 584 295 604.5 Q287 625 272.5 641.5 Q258 658 237 669 Q216 680 190 680 Q172 680 157.5 672 Q143 664 133 651 Q123 638 117.5 621.5 Q112 605 112 588 Q112 568 119.5 548 Q127 528 141.5 511.5 Q156 495 176.5 484 Q197 473 224 473 Z " />
<glyph glyph-name="plusminus" unicode="&#xb1;" horiz-adv-x="556" d="M245 278 L29 278 L29 344 L245 344 L245 515 L311 515 L311 344 L527 344 L527 278 L311 278 L311 109 L245 109 L245 278 Z M29 51 L527 51 L527 -15 L29 -15 L29 51 Z " />
<glyph glyph-name="uni00B2" unicode="&#xb2;" horiz-adv-x="369" d="M37 475 L190 619 Q219 646 237 672.5 Q255 699 255 731 Q255 767 227.5 788 Q200 809 159 809 Q128 809 104 797.5 Q80 786 54 769 L35 800 Q48 809 62.5 818 Q77 827 96 835 Q143 857 189 857 Q218 857 243.5 849.5 Q269 842 287.5 828 Q306 814 317 793 Q328 772 328 745 Q328 707 308.5 674.5 Q289 642 254 611 L126 497 L339 499 L317 448 L37 448 L37 475 Z " />
<glyph glyph-name="uni00B3" unicode="&#xb3;" horiz-adv-x="369" d="M238 458 Q203 439 159 439 Q125 439 96.5 448.5 Q68 458 39 478 L64 536 Q125 484 186 484 Q209 486 226 494 Q242 504 250 519.5 Q258 535 258 552 Q258 586 230.5 609 Q203 632 164 632 L127 632 Q131 647 132 650.5 Q133 654 134 655.5 Q135 657 136 660.5 Q137 664 141 679 L189 679 Q214 679 230 696.5 Q246 714 246 734 Q246 769 219.5 789 Q193 809 157 809 Q129 809 107 799.5 Q85 790 62 776 L47 808 Q58 815 71.5 822.5 Q85 830 103 839 Q126 848 147.5 852.5 Q169 857 192 857 Q218 857 241 849.5 Q264 842 281 828 Q298 814 307.5 795 Q317 776 317 754 Q317 722 298.5 700.5 Q280 679 251 665 Q286 653 307.5 626.5 Q329 600 329 565 Q329 536 313.5 512 Q298 488 270 474 L238 458 Z " />
<glyph glyph-name="acute" unicode="&#xb4;" horiz-adv-x="500" d="M194 560 L302 718 L366 694 L237 542 L194 560 Z " />
<glyph glyph-name="mu" unicode="&#xb5;" horiz-adv-x="535" d="M61 432 L40 469 L146 499 L146 170 Q146 112 182 81 Q218 50 270 50 Q287 50 305 54 Q323 58 341 68 Q369 84 392 112 L392 432 L372 469 L478 499 L478 0 L394 0 L394 65 Q383 54 366.5 42.5 Q350 31 327 17 Q302 3 276.5 -4 Q251 -11 228 -11 Q204 -11 183.5 -4 Q163 3 146 14 L146 -197 L61 -197 L61 432 Z " />
<glyph glyph-name="paragraph" unicode="&#xb6;" horiz-adv-x="565" d="M203 321 Q165 324 132.5 340 Q100 356 76 381.5 Q52 407 38.5 441 Q25 475 25 514 Q25 568 49.5 615 Q74 662 117 686 L156 707 Q175 717 200 722.5 Q225 728 249 728 L537 728 L517 670 L464 670 L464 -112 L391 -112 L391 670 L277 670 L277 -112 L203 -112 L203 321 Z M203 663 Q172 662 148 647 Q122 628 108 598.5 Q94 569 94 533 Q94 479 123 439.5 Q152 400 203 393 L203 663 Z " />
<glyph glyph-name="middot" unicode="&#xb7;" horiz-adv-x="280" d="M194 257 Q194 231 176.5 217 Q159 203 138 203 Q117 203 102 215.5 Q87 228 87 249 Q87 275 105 289.5 Q123 304 145 304 Q165 304 179.5 291.5 Q194 279 194 257 Z " />
<glyph glyph-name="cedilla" unicode="&#xb8;" horiz-adv-x="500" d="M148 -148 Q168 -155 190 -160 Q212 -165 235 -165 Q259 -165 278.5 -155 Q298 -145 298 -116 Q298 -101 290 -92.5 Q282 -84 270.5 -79.5 Q259 -75 245.5 -73.5 Q232 -72 220 -71 L227 1 L259 1 L255 -41 Q274 -43 292 -48 Q310 -53 324 -62.5 Q338 -72 346 -86 Q354 -100 354 -119 Q354 -142 345.5 -158.5 Q337 -175 322.5 -185.5 Q308 -196 289.5 -201 Q271 -206 250 -206 Q223 -206 197 -198.5 Q171 -191 146 -180 L148 -148 Z " />
<glyph glyph-name="uni00B9" unicode="&#xb9;" horiz-adv-x="369" d="M187 775 L72 714 L46 755 L222 849 L257 849 L257 448 L187 448 L187 775 Z " />
<glyph glyph-name="ordmasculine" unicode="&#xba;" horiz-adv-x="379" d="M254 444 Q217 424 174 424 Q143 424 115 434.5 Q87 445 66 464.5 Q45 484 32.5 510.5 Q20 537 20 570 Q20 613 40.5 645 Q61 677 95 697 L125 714 Q162 734 205 734 Q236 734 264 723.5 Q292 713 313 693.5 Q334 674 346.5 647 Q359 620 359 588 Q359 545 338.5 512.5 Q318 480 285 462 L254 444 Z M205 473 Q222 473 237.5 480.5 Q253 488 264.5 501 Q276 514 283 531.5 Q290 549 290 570 Q290 594 281 615 Q272 636 256.5 652 Q241 668 220 677 Q199 686 174 686 Q156 686 140.5 678 Q125 670 114 656.5 Q103 643 96.5 625 Q90 607 90 588 Q90 564 98.5 543 Q107 522 122.5 506.5 Q138 491 159 482 Q180 473 205 473 Z M40 371 L339 371 L339 326 L40 326 L40 371 Z " />
<glyph glyph-name="guillemotright" unicode="&#xbb;" horiz-adv-x="384" d="M182 61 L277 232 L177 414 L216 436 L360 256 L213 47 L182 61 Z M29 61 L123 232 L25 414 L63 436 L207 256 L60 47 L29 61 Z " />
<glyph glyph-name="onequarter" unicode="&#xbc;" horiz-adv-x="805" d="M187 661 L72 600 L46 641 L222 735 L257 735 L257 334 L187 334 L187 661 Z M585 762 L639 762 L220 -34 L167 -34 L585 762 Z M672 87 L450 87 L450 114 L673 401 L742 401 L527 136 L672 136 L672 228 L742 235 L742 136 L789 136 L789 87 L742 87 L742 0 L672 0 L672 87 Z " />
<glyph glyph-name="onehalf" unicode="&#xbd;" horiz-adv-x="805" d="M187 661 L72 600 L46 641 L222 735 L257 735 L257 334 L187 334 L187 661 Z M585 762 L639 762 L220 -34 L167 -34 L585 762 Z M473 27 L626 171 Q655 198 673 224.5 Q691 251 691 283 Q691 319 663.5 340 Q636 361 595 361 Q564 361 540 349.5 Q516 338 490 321 L471 352 Q484 361 498.5 370 Q513 379 532 387 Q579 409 625 409 Q654 409 679.5 401.5 Q705 394 723.5 380 Q742 366 753 345 Q764 324 764 297 Q764 259 744.5 226.5 Q725 194 690 163 L562 49 L775 51 L753 0 L473 0 L473 27 Z " />
<glyph glyph-name="threequarters" unicode="&#xbe;" horiz-adv-x="805" d="M238 344 Q203 325 159 325 Q125 325 96.5 334.5 Q68 344 39 364 L64 422 Q125 370 186 370 Q209 372 226 380 Q242 390 250 405.5 Q258 421 258 438 Q258 472 230.5 495 Q203 518 164 518 L127 518 L141 565 L189 565 Q214 565 230 582.5 Q246 600 246 620 Q246 655 219.5 675 Q193 695 157 695 Q129 695 107 685.5 Q85 676 62 662 L47 694 Q58 701 71.5 708.5 Q85 716 103 725 Q126 734 147.5 738.5 Q169 743 192 743 Q218 743 241 735.5 Q264 728 281 714 Q298 700 307.5 681 Q317 662 317 640 Q317 608 298.5 586.5 Q280 565 251 551 Q286 539 307.5 512.5 Q329 486 329 451 Q329 422 313.5 398 Q298 374 270 360 L238 344 Z M585 762 L639 762 L220 -34 L167 -34 L585 762 Z M672 87 L450 87 L450 114 L673 401 L742 401 L527 136 L672 136 L672 228 L742 235 L742 136 L789 136 L789 87 L742 87 L742 0 L672 0 L672 87 Z " />
<glyph glyph-name="questiondown" unicode="&#xbf;" horiz-adv-x="495" d="M457 -157 Q444 -169 426.5 -181 Q409 -193 386 -207 Q352 -226 313.5 -236.5 Q275 -247 233 -247 Q192 -247 156.5 -233 Q121 -219 94.5 -194.5 Q68 -170 53 -136 Q38 -102 38 -63 Q38 -27 49 -1.5 Q60 24 77.5 44 Q95 64 116 80 Q137 96 157 111 Q178 128 193 149.5 Q208 171 208 200 L208 295 L290 295 L290 216 Q290 179 273.5 155 Q257 131 234 111 Q217 97 198 84 Q179 71 163.5 54.5 Q148 38 138 16 Q128 -6 128 -37 Q128 -67 139.5 -93 Q151 -119 171 -138.5 Q191 -158 217.5 -169.5 Q244 -181 274 -181 Q303 -181 332 -174.5 Q361 -168 389 -152 Q403 -143 416 -133 Q429 -123 440 -114 L457 -157 Z M195 446 Q195 472 213 486 Q231 500 252 500 Q273 500 288 487.5 Q303 475 303 454 Q303 428 284.5 414 Q266 400 245 400 Q224 400 209.5 412.5 Q195 425 195 446 Z " />
<glyph glyph-name="Agrave" unicode="&#xc0;" horiz-adv-x="693" d="M299 689 L281 728 L378 728 L701 0 L604 0 L498 240 L175 240 L86 39 L99 0 L-8 0 L299 689 Z M469 305 L335 607 L204 305 L469 305 Z M230 928 L294 952 L402 793 L359 775 L230 928 Z " />
<glyph glyph-name="Aacute" unicode="&#xc1;" horiz-adv-x="693" d="M299 689 L281 728 L378 728 L701 0 L604 0 L498 240 L175 240 L86 39 L99 0 L-8 0 L299 689 Z M469 305 L335 607 L204 305 L469 305 Z M290 793 L398 952 L462 928 L333 775 L290 793 Z " />
<glyph glyph-name="Acircumflex" unicode="&#xc2;" horiz-adv-x="693" d="M299 689 L281 728 L378 728 L701 0 L604 0 L498 240 L175 240 L86 39 L99 0 L-8 0 L299 689 Z M469 305 L335 607 L204 305 L469 305 Z M206 804 L332 937 L361 937 L486 803 L449 779 L346 875 L241 780 L206 804 Z " />
<glyph glyph-name="Atilde" unicode="&#xc3;" horiz-adv-x="693" d="M299 689 L281 728 L378 728 L701 0 L604 0 L498 240 L175 240 L86 39 L99 0 L-8 0 L299 689 Z M469 305 L335 607 L204 305 L469 305 Z M199 810 Q208 840 230.5 862.5 Q253 885 286 885 Q302 885 317 879.5 Q332 874 346.5 868 Q361 862 375.5 856.5 Q390 851 405 851 Q423 851 435 863 Q447 875 453 890 L492 876 Q484 845 460.5 822 Q437 799 404 799 Q389 799 374.5 804.5 Q360 810 345 816 Q330 822 315 827.5 Q300 833 284 833 Q266 833 255.5 822 Q245 811 239 796 L199 810 Z " />
<glyph glyph-name="Adieresis" unicode="&#xc4;" horiz-adv-x="693" d="M299 689 L281 728 L378 728 L701 0 L604 0 L498 240 L175 240 L86 39 L99 0 L-8 0 L299 689 Z M469 305 L335 607 L204 305 L469 305 Z M482 841 Q482 822 468.5 809.5 Q455 797 437 797 Q418 797 405.5 809.5 Q393 822 393 841 Q393 858 406.5 872 Q420 886 437 886 Q455 886 468.5 872 Q482 858 482 841 Z M299 841 Q299 822 286 809.5 Q273 797 255 797 Q236 797 223 810 Q210 823 210 841 Q210 858 223.5 872 Q237 886 255 886 Q273 886 286 872 Q299 858 299 841 Z " />
<glyph glyph-name="Aring" unicode="&#xc5;" horiz-adv-x="693" d="M299 689 L281 728 L378 728 L701 0 L604 0 L498 240 L175 240 L86 39 L99 0 L-8 0 L299 689 Z M469 305 L335 607 L204 305 L469 305 Z M454 868 Q454 845 445 827 Q436 809 421 796 Q406 783 386.5 776.5 Q367 770 346 770 Q325 770 305.5 776.5 Q286 783 271 796 Q256 809 247 827 Q238 845 238 868 Q238 890 247 908 Q256 926 271 939 Q286 952 305.5 959 Q325 966 346 966 Q367 966 386.5 959 Q406 952 421 939 Q436 926 445 908 Q454 890 454 868 Z M408 868 Q408 894 389.5 910 Q371 926 346 926 Q321 926 302.5 910 Q284 894 284 868 Q284 842 302.5 826 Q321 810 346 810 Q371 810 389.5 826 Q408 842 408 868 Z " />
<glyph glyph-name="AE" unicode="&#xc6;" horiz-adv-x="979" d="M495 728 L941 728 L916 661 L606 661 L606 410 L931 410 L906 344 L606 344 L606 67 L951 67 L926 0 L516 0 L516 240 L239 240 L100 41 L100 0 L-15 0 L495 728 Z M516 305 L516 638 L284 305 L516 305 Z " />
<glyph glyph-name="Ccedilla" unicode="&#xc7;" horiz-adv-x="677" d="M307 -148 Q328 -155 349.5 -160 Q371 -165 394 -165 Q418 -165 438 -155 Q458 -145 458 -116 Q458 -101 450 -93 Q442 -85 430 -80.5 Q418 -76 404.5 -74 Q391 -72 380 -71 L384 -15 Q309 -12 244 18 Q179 48 130.5 97.5 Q82 147 54.5 212.5 Q27 278 27 352 Q27 403 40 450 Q53 497 77 538 Q101 579 135 612.5 Q169 646 211 670 L251 693 Q293 717 340.5 730.5 Q388 744 439 744 Q496 744 544.5 732.5 Q593 721 637 700 L607 619 Q562 646 512 661.5 Q462 677 401 677 Q364 677 328.5 669.5 Q293 662 262 644 Q195 602 157 531 Q119 460 119 375 Q119 308 144.5 249 Q170 190 213.5 145.5 Q257 101 316 75.5 Q375 50 442 50 Q501 50 547.5 63 Q594 76 639 101 L647 56 Q623 41 600 29 Q560 7 514.5 -3 Q469 -13 416 -15 L414 -41 Q433 -43 451 -48 Q469 -53 483 -62.5 Q497 -72 505 -86 Q513 -100 513 -119 Q513 -142 504.5 -158.5 Q496 -175 482 -185.5 Q468 -196 449 -201 Q430 -206 409 -206 Q382 -206 356 -198.5 Q330 -191 305 -180 L307 -148 Z " />
<glyph glyph-name="Egrave" unicode="&#xc8;" horiz-adv-x="530" d="M68 689 L45 728 L493 728 L468 661 L157 661 L157 410 L483 410 L458 344 L157 344 L157 67 L503 67 L478 0 L68 0 L68 689 Z M159 928 L223 952 L331 793 L288 775 L159 928 Z " />
<glyph glyph-name="Eacute" unicode="&#xc9;" horiz-adv-x="530" d="M68 689 L45 728 L493 728 L468 661 L157 661 L157 410 L483 410 L458 344 L157 344 L157 67 L503 67 L478 0 L68 0 L68 689 Z M219 793 L327 952 L391 928 L262 775 L219 793 Z " />
<glyph glyph-name="Ecircumflex" unicode="&#xca;" horiz-adv-x="530" d="M68 689 L45 728 L493 728 L468 661 L157 661 L157 410 L483 410 L458 344 L157 344 L157 67 L503 67 L478 0 L68 0 L68 689 Z M135 804 L261 937 L290 937 L415 803 L378 779 L275 875 L170 780 L135 804 Z " />
<glyph glyph-name="Edieresis" unicode="&#xcb;" horiz-adv-x="530" d="M68 689 L45 728 L493 728 L468 661 L157 661 L157 410 L483 410 L458 344 L157 344 L157 67 L503 67 L478 0 L68 0 L68 689 Z M411 841 Q411 822 397.5 809.5 Q384 797 366 797 Q347 797 334.5 809.5 Q322 822 322 841 Q322 858 335.5 872 Q349 886 366 886 Q384 886 397.5 872 Q411 858 411 841 Z M228 841 Q228 822 215 809.5 Q202 797 184 797 Q165 797 152 810 Q139 823 139 841 Q139 858 152.5 872 Q166 886 184 886 Q202 886 215 872 Q228 858 228 841 Z " />
<glyph glyph-name="Igrave" unicode="&#xcc;" horiz-adv-x="235" d="M73 689 L50 728 L162 728 L162 0 L73 0 L73 689 Z M1 928 L65 952 L173 793 L130 775 L1 928 Z " />
<glyph glyph-name="Iacute" unicode="&#xcd;" horiz-adv-x="235" d="M73 689 L50 728 L162 728 L162 0 L73 0 L73 689 Z M61 793 L169 952 L233 928 L104 775 L61 793 Z " />
<glyph glyph-name="Icircumflex" unicode="&#xce;" horiz-adv-x="235" d="M73 689 L50 728 L162 728 L162 0 L73 0 L73 689 Z M-23 804 L103 937 L132 937 L257 803 L220 779 L117 875 L12 780 L-23 804 Z " />
<glyph glyph-name="Idieresis" unicode="&#xcf;" horiz-adv-x="235" d="M73 689 L50 728 L162 728 L162 0 L73 0 L73 689 Z M253 841 Q253 822 239.5 809.5 Q226 797 208 797 Q189 797 176.5 809.5 Q164 822 164 841 Q164 858 177.5 872 Q191 886 208 886 Q226 886 239.5 872 Q253 858 253 841 Z M70 841 Q70 822 57 809.5 Q44 797 26 797 Q7 797 -6 810 Q-19 823 -19 841 Q-19 858 -5.5 872 Q8 886 26 886 Q44 886 57 872 Q70 858 70 841 Z " />
<glyph glyph-name="Eth" unicode="&#xd0;" horiz-adv-x="714" d="M78 347 L-10 347 L2 403 L78 403 L78 689 L55 728 L331 728 Q406 728 471 700.5 Q536 673 584.5 625 Q633 577 660.5 512.5 Q688 448 688 375 Q688 277 640 197.5 Q592 118 513 70 L473 48 Q433 25 387.5 12.5 Q342 0 292 0 L78 0 L78 347 Z M327 66 Q364 66 398.5 73 Q433 80 462 97 Q525 136 561.5 204 Q598 272 598 352 Q598 416 573.5 472 Q549 528 507 570 Q465 612 408.5 636.5 Q352 661 287 661 L167 661 L167 403 L362 403 L352 347 L167 347 L167 66 L327 66 Z " />
<glyph glyph-name="Ntilde" unicode="&#xd1;" horiz-adv-x="723" d="M68 683 L34 728 L146 728 L584 145 L584 689 L562 728 L655 728 L655 0 L579 0 L139 585 L139 0 L68 0 L68 683 Z M214 810 Q223 840 245.5 862.5 Q268 885 301 885 Q317 885 332 879.5 Q347 874 361.5 868 Q376 862 390.5 856.5 Q405 851 420 851 Q438 851 450 863 Q462 875 468 890 L507 876 Q499 845 475.5 822 Q452 799 419 799 Q404 799 389.5 804.5 Q375 810 360 816 Q345 822 330 827.5 Q315 833 299 833 Q281 833 270.5 822 Q260 811 254 796 L214 810 Z " />
<glyph glyph-name="Ograve" unicode="&#xd2;" horiz-adv-x="834" d="M585 34 Q544 11 497 -2.5 Q450 -16 398 -16 Q320 -16 252 13 Q184 42 134 92 Q84 142 55.5 209 Q27 276 27 352 Q27 455 77 538 Q127 621 210 671 L249 693 Q291 718 338 731 Q385 744 438 744 Q516 744 583.5 715 Q651 686 701 636 Q751 586 779.5 518.5 Q808 451 808 375 Q808 324 795 277 Q782 230 758 188.5 Q734 147 700.5 113.5 Q667 80 626 56 L585 34 Z M576 83 Q642 124 679 195.5 Q716 267 716 352 Q716 419 691.5 478 Q667 537 624 581.5 Q581 626 523 651.5 Q465 677 398 677 Q360 677 324.5 670.5 Q289 664 259 644 Q193 603 156 531.5 Q119 460 119 375 Q119 308 143.5 249 Q168 190 210.5 145.5 Q253 101 311.5 75.5 Q370 50 438 50 Q476 50 511 56.5 Q546 63 576 83 Z M301 928 L365 952 L473 793 L430 775 L301 928 Z " />
<glyph glyph-name="Oacute" unicode="&#xd3;" horiz-adv-x="834" d="M585 34 Q544 11 497 -2.5 Q450 -16 398 -16 Q320 -16 252 13 Q184 42 134 92 Q84 142 55.5 209 Q27 276 27 352 Q27 455 77 538 Q127 621 210 671 L249 693 Q291 718 338 731 Q385 744 438 744 Q516 744 583.5 715 Q651 686 701 636 Q751 586 779.5 518.5 Q808 451 808 375 Q808 324 795 277 Q782 230 758 188.5 Q734 147 700.5 113.5 Q667 80 626 56 L585 34 Z M576 83 Q642 124 679 195.5 Q716 267 716 352 Q716 419 691.5 478 Q667 537 624 581.5 Q581 626 523 651.5 Q465 677 398 677 Q360 677 324.5 670.5 Q289 664 259 644 Q193 603 156 531.5 Q119 460 119 375 Q119 308 143.5 249 Q168 190 210.5 145.5 Q253 101 311.5 75.5 Q370 50 438 50 Q476 50 511 56.5 Q546 63 576 83 Z M361 793 L469 952 L533 928 L404 775 L361 793 Z " />
<glyph glyph-name="Ocircumflex" unicode="&#xd4;" horiz-adv-x="834" d="M585 34 Q544 11 497 -2.5 Q450 -16 398 -16 Q320 -16 252 13 Q184 42 134 92 Q84 142 55.5 209 Q27 276 27 352 Q27 455 77 538 Q127 621 210 671 L249 693 Q291 718 338 731 Q385 744 438 744 Q516 744 583.5 715 Q651 686 701 636 Q751 586 779.5 518.5 Q808 451 808 375 Q808 324 795 277 Q782 230 758 188.5 Q734 147 700.5 113.5 Q667 80 626 56 L585 34 Z M576 83 Q642 124 679 195.5 Q716 267 716 352 Q716 419 691.5 478 Q667 537 624 581.5 Q581 626 523 651.5 Q465 677 398 677 Q360 677 324.5 670.5 Q289 664 259 644 Q193 603 156 531.5 Q119 460 119 375 Q119 308 143.5 249 Q168 190 210.5 145.5 Q253 101 311.5 75.5 Q370 50 438 50 Q476 50 511 56.5 Q546 63 576 83 Z M277 804 L403 937 L432 937 L557 803 L520 779 L417 875 L312 780 L277 804 Z " />
<glyph glyph-name="Otilde" unicode="&#xd5;" horiz-adv-x="834" d="M585 34 Q544 11 497 -2.5 Q450 -16 398 -16 Q320 -16 252 13 Q184 42 134 92 Q84 142 55.5 209 Q27 276 27 352 Q27 455 77 538 Q127 621 210 671 L249 693 Q291 718 338 731 Q385 744 438 744 Q516 744 583.5 715 Q651 686 701 636 Q751 586 779.5 518.5 Q808 451 808 375 Q808 324 795 277 Q782 230 758 188.5 Q734 147 700.5 113.5 Q667 80 626 56 L585 34 Z M576 83 Q642 124 679 195.5 Q716 267 716 352 Q716 419 691.5 478 Q667 537 624 581.5 Q581 626 523 651.5 Q465 677 398 677 Q360 677 324.5 670.5 Q289 664 259 644 Q193 603 156 531.5 Q119 460 119 375 Q119 308 143.5 249 Q168 190 210.5 145.5 Q253 101 311.5 75.5 Q370 50 438 50 Q476 50 511 56.5 Q546 63 576 83 Z M270 810 Q279 840 301.5 862.5 Q324 885 357 885 Q373 885 388 879.5 Q403 874 417.5 868 Q432 862 446.5 856.5 Q461 851 476 851 Q494 851 506 863 Q518 875 524 890 L563 876 Q555 845 531.5 822 Q508 799 475 799 Q460 799 445.5 804.5 Q431 810 416 816 Q401 822 386 827.5 Q371 833 355 833 Q337 833 326.5 822 Q316 811 310 796 L270 810 Z " />
<glyph glyph-name="Odieresis" unicode="&#xd6;" horiz-adv-x="834" d="M585 34 Q544 11 497 -2.5 Q450 -16 398 -16 Q320 -16 252 13 Q184 42 134 92 Q84 142 55.5 209 Q27 276 27 352 Q27 455 77 538 Q127 621 210 671 L249 693 Q291 718 338 731 Q385 744 438 744 Q516 744 583.5 715 Q651 686 701 636 Q751 586 779.5 518.5 Q808 451 808 375 Q808 324 795 277 Q782 230 758 188.5 Q734 147 700.5 113.5 Q667 80 626 56 L585 34 Z M576 83 Q642 124 679 195.5 Q716 267 716 352 Q716 419 691.5 478 Q667 537 624 581.5 Q581 626 523 651.5 Q465 677 398 677 Q360 677 324.5 670.5 Q289 664 259 644 Q193 603 156 531.5 Q119 460 119 375 Q119 308 143.5 249 Q168 190 210.5 145.5 Q253 101 311.5 75.5 Q370 50 438 50 Q476 50 511 56.5 Q546 63 576 83 Z M553 841 Q553 822 539.5 809.5 Q526 797 508 797 Q489 797 476.5 809.5 Q464 822 464 841 Q464 858 477.5 872 Q491 886 508 886 Q526 886 539.5 872 Q553 858 553 841 Z M370 841 Q370 822 357 809.5 Q344 797 326 797 Q307 797 294 810 Q281 823 281 841 Q281 858 294.5 872 Q308 886 326 886 Q344 886 357 872 Q370 858 370 841 Z " />
<glyph glyph-name="multiply" unicode="&#xd7;" horiz-adv-x="556" d="M51 68 L233 250 L51 431 L96 477 L278 295 L460 477 L505 432 L323 250 L505 68 L460 23 L278 205 L96 23 L51 68 Z " />
<glyph glyph-name="Oslash" unicode="&#xd8;" horiz-adv-x="834" d="M64 -29 L152 77 Q95 128 62 198.5 Q29 269 29 352 Q29 455 79 538 Q129 621 211 671 L252 693 Q335 744 440 744 Q497 744 547 727.5 Q597 711 640 681 L708 763 L720 778 L767 745 L688 649 Q745 598 777.5 528.5 Q810 459 810 375 Q810 272 760 189 Q710 106 627 56 L588 34 Q505 -16 400 -16 Q343 -16 292.5 0 Q242 16 200 46 L109 -64 L64 -29 Z M250 113 Q289 83 337.5 66.5 Q386 50 440 50 Q477 50 512 56.5 Q547 63 578 83 Q644 124 681.5 195.5 Q719 267 719 352 Q719 418 696 474 Q673 530 632 573 L250 113 Z M589 613 Q551 644 502.5 660.5 Q454 677 400 677 Q362 677 326.5 670.5 Q291 664 261 644 Q195 603 157.5 531.5 Q120 460 120 375 Q120 310 143 253 Q166 196 208 154 L589 613 Z " />
<glyph glyph-name="Ugrave" unicode="&#xd9;" horiz-adv-x="672" d="M485 28 Q448 7 406 -4.5 Q364 -16 312 -16 Q260 -16 215 2.5 Q170 21 136.5 53 Q103 85 84 128 Q65 171 65 221 L65 689 L42 728 L154 728 L154 247 Q154 207 169.5 171.5 Q185 136 212 109 Q239 82 275.5 66.5 Q312 51 353 51 Q416 51 463 76 Q476 82 488.5 90 Q501 98 514 107 L514 689 L492 728 L604 728 L604 102 Q584 88 563.5 74.5 Q543 61 526 51 L485 28 Z M219 928 L283 952 L391 793 L348 775 L219 928 Z " />
<glyph glyph-name="Uacute" unicode="&#xda;" horiz-adv-x="672" d="M485 28 Q448 7 406 -4.5 Q364 -16 312 -16 Q260 -16 215 2.5 Q170 21 136.5 53 Q103 85 84 128 Q65 171 65 221 L65 689 L42 728 L154 728 L154 247 Q154 207 169.5 171.5 Q185 136 212 109 Q239 82 275.5 66.5 Q312 51 353 51 Q416 51 463 76 Q476 82 488.5 90 Q501 98 514 107 L514 689 L492 728 L604 728 L604 102 Q584 88 563.5 74.5 Q543 61 526 51 L485 28 Z M279 793 L387 952 L451 928 L322 775 L279 793 Z " />
<glyph glyph-name="Ucircumflex" unicode="&#xdb;" horiz-adv-x="672" d="M485 28 Q448 7 406 -4.5 Q364 -16 312 -16 Q260 -16 215 2.5 Q170 21 136.5 53 Q103 85 84 128 Q65 171 65 221 L65 689 L42 728 L154 728 L154 247 Q154 207 169.5 171.5 Q185 136 212 109 Q239 82 275.5 66.5 Q312 51 353 51 Q416 51 463 76 Q476 82 488.5 90 Q501 98 514 107 L514 689 L492 728 L604 728 L604 102 Q584 88 563.5 74.5 Q543 61 526 51 L485 28 Z M195 804 L321 937 L350 937 L475 803 L438 779 L335 875 L230 780 L195 804 Z " />
<glyph glyph-name="Udieresis" unicode="&#xdc;" horiz-adv-x="672" d="M485 28 Q448 7 406 -4.5 Q364 -16 312 -16 Q260 -16 215 2.5 Q170 21 136.5 53 Q103 85 84 128 Q65 171 65 221 L65 689 L42 728 L154 728 L154 247 Q154 207 169.5 171.5 Q185 136 212 109 Q239 82 275.5 66.5 Q312 51 353 51 Q416 51 463 76 Q476 82 488.5 90 Q501 98 514 107 L514 689 L492 728 L604 728 L604 102 Q584 88 563.5 74.5 Q543 61 526 51 L485 28 Z M471 841 Q471 822 457.5 809.5 Q444 797 426 797 Q407 797 394.5 809.5 Q382 822 382 841 Q382 858 395.5 872 Q409 886 426 886 Q444 886 457.5 872 Q471 858 471 841 Z M288 841 Q288 822 275 809.5 Q262 797 244 797 Q225 797 212 810 Q199 823 199 841 Q199 858 212.5 872 Q226 886 244 886 Q262 886 275 872 Q288 858 288 841 Z " />
<glyph glyph-name="Yacute" unicode="&#xdd;" horiz-adv-x="613" d="M264 291 L-3 728 L104 728 L320 373 L513 689 L502 728 L617 728 L353 298 L353 0 L264 0 L264 291 Z M250 793 L358 952 L422 928 L293 775 L250 793 Z " />
<glyph glyph-name="Thorn" unicode="&#xde;" horiz-adv-x="557" d="M68 689 L45 728 L157 728 L157 607 L308 607 Q355 607 395.5 589.5 Q436 572 466 542.5 Q496 513 513 473.5 Q530 434 530 389 Q530 329 501 280.5 Q472 232 423 204 L383 181 Q330 150 267 150 L157 150 L157 0 L68 0 L68 689 Z M304 215 Q344 215 372 233 Q404 254 422.5 289 Q441 324 441 366 Q441 402 427 434 Q413 466 388.5 489.5 Q364 513 332 527 Q300 541 264 541 L157 541 L157 215 L304 215 Z " />
<glyph glyph-name="germandbls" unicode="&#xdf;" horiz-adv-x="538" d="M63 426 L-12 426 L12 487 L63 487 L63 533 Q63 589 79 631.5 Q95 674 144 700 L175 718 Q192 727 211 732.5 Q230 738 250 739 Q276 741 297 735 Q326 730 349 716 Q372 702 388.5 682.5 Q405 663 413.5 640 Q422 617 422 593 Q422 553 406.5 528.5 Q391 504 373 484.5 Q355 465 339.5 445.5 Q324 426 324 396 Q324 371 337.5 355.5 Q351 340 372 328 Q393 316 416.5 304 Q440 292 461 275 Q482 258 495.5 231.5 Q509 205 509 164 Q509 121 489.5 87.5 Q470 54 435 34 L397 13 Q361 -9 311 -11 Q291 -11 270 -8 Q249 -5 226.5 4 Q204 13 187 30 L219 94 Q245 71 274 60.5 Q303 50 333 50 Q371 52 397 75.5 Q423 99 423 141 Q423 176 410 198.5 Q397 221 377 236.5 Q357 252 334 263 Q311 274 291 288 Q271 302 258 321 Q245 340 245 370 Q245 393 252.5 409.5 Q260 426 270.5 439.5 Q281 453 294 465 Q307 477 317.5 491 Q328 505 335.5 523 Q343 541 343 566 Q343 589 333.5 609 Q324 629 307.5 644 Q291 659 270 668 Q249 677 225 678 Q207 678 192.5 669 Q178 660 167.5 645.5 Q157 631 151.5 612.5 Q146 594 146 575 L146 0 L63 0 L63 426 Z " />
<glyph glyph-name="agrave" unicode="&#xe0;" horiz-adv-x="481" d="M426 -4 Q380 -4 358.5 12 Q337 28 330 65 Q318 53 300.5 40.5 Q283 28 270 20 L256 12 Q215 -12 173 -12 Q144 -12 117.5 -3 Q91 6 71 23 Q51 40 39.5 64.5 Q28 89 28 120 Q28 165 47.5 196 Q67 227 101 247 L140 269 Q174 289 220.5 298.5 Q267 308 321 310 Q321 318 321 326.5 Q321 335 320 346 Q316 393 286 415.5 Q256 438 211 438 Q176 438 143.5 428.5 Q111 419 85 405 L70 442 Q87 453 110 464 Q139 477 176.5 488 Q214 499 257 499 Q288 499 315 491 Q342 483 362.5 466 Q383 449 395 423.5 Q407 398 407 364 L407 125 Q407 87 420 71 Q433 55 474 55 L477 55 L453 -4 L426 -4 Z M322 260 Q273 259 228.5 254 Q184 249 149 230 Q131 216 121 195.5 Q111 175 111 146 Q111 99 145 73 Q179 47 227 47 Q238 47 251 52 Q264 57 277 65 Q290 73 301.5 84.5 Q313 96 322 110 L322 260 Z M124 694 L188 718 L296 560 L253 542 L124 694 Z " />
<glyph glyph-name="aacute" unicode="&#xe1;" horiz-adv-x="481" d="M426 -4 Q380 -4 358.5 12 Q337 28 330 65 Q318 53 300.5 40.5 Q283 28 270 20 L256 12 Q215 -12 173 -12 Q144 -12 117.5 -3 Q91 6 71 23 Q51 40 39.5 64.5 Q28 89 28 120 Q28 165 47.5 196 Q67 227 101 247 L140 269 Q174 289 220.5 298.5 Q267 308 321 310 Q321 318 321 326.5 Q321 335 320 346 Q316 393 286 415.5 Q256 438 211 438 Q176 438 143.5 428.5 Q111 419 85 405 L70 442 Q87 453 110 464 Q139 477 176.5 488 Q214 499 257 499 Q288 499 315 491 Q342 483 362.5 466 Q383 449 395 423.5 Q407 398 407 364 L407 125 Q407 87 420 71 Q433 55 474 55 L477 55 L453 -4 L426 -4 Z M322 260 Q273 259 228.5 254 Q184 249 149 230 Q131 216 121 195.5 Q111 175 111 146 Q111 99 145 73 Q179 47 227 47 Q238 47 251 52 Q264 57 277 65 Q290 73 301.5 84.5 Q313 96 322 110 L322 260 Z M184 560 L292 718 L356 694 L227 542 L184 560 Z " />
<glyph glyph-name="acircumflex" unicode="&#xe2;" horiz-adv-x="481" d="M426 -4 Q380 -4 358.5 12 Q337 28 330 65 Q318 53 300.5 40.5 Q283 28 270 20 L256 12 Q215 -12 173 -12 Q144 -12 117.5 -3 Q91 6 71 23 Q51 40 39.5 64.5 Q28 89 28 120 Q28 165 47.5 196 Q67 227 101 247 L140 269 Q174 289 220.5 298.5 Q267 308 321 310 Q321 318 321 326.5 Q321 335 320 346 Q316 393 286 415.5 Q256 438 211 438 Q176 438 143.5 428.5 Q111 419 85 405 L70 442 Q87 453 110 464 Q139 477 176.5 488 Q214 499 257 499 Q288 499 315 491 Q342 483 362.5 466 Q383 449 395 423.5 Q407 398 407 364 L407 125 Q407 87 420 71 Q433 55 474 55 L477 55 L453 -4 L426 -4 Z M322 260 Q273 259 228.5 254 Q184 249 149 230 Q131 216 121 195.5 Q111 175 111 146 Q111 99 145 73 Q179 47 227 47 Q238 47 251 52 Q264 57 277 65 Q290 73 301.5 84.5 Q313 96 322 110 L322 260 Z M100 571 L226 704 L255 704 L380 570 L343 546 L240 642 L135 546 L100 571 Z " />
<glyph glyph-name="atilde" unicode="&#xe3;" horiz-adv-x="481" d="M426 -4 Q380 -4 358.5 12 Q337 28 330 65 Q318 53 300.5 40.5 Q283 28 270 20 L256 12 Q215 -12 173 -12 Q144 -12 117.5 -3 Q91 6 71 23 Q51 40 39.5 64.5 Q28 89 28 120 Q28 165 47.5 196 Q67 227 101 247 L140 269 Q174 289 220.5 298.5 Q267 308 321 310 Q321 318 321 326.5 Q321 335 320 346 Q316 393 286 415.5 Q256 438 211 438 Q176 438 143.5 428.5 Q111 419 85 405 L70 442 Q87 453 110 464 Q139 477 176.5 488 Q214 499 257 499 Q288 499 315 491 Q342 483 362.5 466 Q383 449 395 423.5 Q407 398 407 364 L407 125 Q407 87 420 71 Q433 55 474 55 L477 55 L453 -4 L426 -4 Z M322 260 Q273 259 228.5 254 Q184 249 149 230 Q131 216 121 195.5 Q111 175 111 146 Q111 99 145 73 Q179 47 227 47 Q238 47 251 52 Q264 57 277 65 Q290 73 301.5 84.5 Q313 96 322 110 L322 260 Z M93 576 Q102 606 124.5 628.5 Q147 651 180 651 Q196 651 211 646 Q226 641 240.5 634.5 Q255 628 269.5 623 Q284 618 299 618 Q317 618 329 629.5 Q341 641 347 657 L386 642 Q378 611 354.5 588.5 Q331 566 298 566 Q283 566 268.5 571 Q254 576 239 582.5 Q224 589 209 594 Q194 599 178 599 Q160 599 149.5 588 Q139 577 133 562 L93 576 Z " />
<glyph glyph-name="adieresis" unicode="&#xe4;" horiz-adv-x="481" d="M426 -4 Q380 -4 358.5 12 Q337 28 330 65 Q318 53 300.5 40.5 Q283 28 270 20 L256 12 Q215 -12 173 -12 Q144 -12 117.5 -3 Q91 6 71 23 Q51 40 39.5 64.5 Q28 89 28 120 Q28 165 47.5 196 Q67 227 101 247 L140 269 Q174 289 220.5 298.5 Q267 308 321 310 Q321 318 321 326.5 Q321 335 320 346 Q316 393 286 415.5 Q256 438 211 438 Q176 438 143.5 428.5 Q111 419 85 405 L70 442 Q87 453 110 464 Q139 477 176.5 488 Q214 499 257 499 Q288 499 315 491 Q342 483 362.5 466 Q383 449 395 423.5 Q407 398 407 364 L407 125 Q407 87 420 71 Q433 55 474 55 L477 55 L453 -4 L426 -4 Z M322 260 Q273 259 228.5 254 Q184 249 149 230 Q131 216 121 195.5 Q111 175 111 146 Q111 99 145 73 Q179 47 227 47 Q238 47 251 52 Q264 57 277 65 Q290 73 301.5 84.5 Q313 96 322 110 L322 260 Z M376 608 Q376 589 362.5 576 Q349 563 331 563 Q312 563 299.5 576 Q287 589 287 608 Q287 625 300.5 638.5 Q314 652 331 652 Q349 652 362.5 638.5 Q376 625 376 608 Z M193 608 Q193 589 180 576 Q167 563 149 563 Q130 563 117 576 Q104 589 104 608 Q104 625 117.5 638.5 Q131 652 149 652 Q167 652 180 638.5 Q193 625 193 608 Z " />
<glyph glyph-name="aring" unicode="&#xe5;" horiz-adv-x="481" d="M426 -4 Q380 -4 358.5 12 Q337 28 330 65 Q318 53 300.5 40.5 Q283 28 270 20 L256 12 Q215 -12 173 -12 Q144 -12 117.5 -3 Q91 6 71 23 Q51 40 39.5 64.5 Q28 89 28 120 Q28 165 47.5 196 Q67 227 101 247 L140 269 Q174 289 220.5 298.5 Q267 308 321 310 Q321 318 321 326.5 Q321 335 320 346 Q316 393 286 415.5 Q256 438 211 438 Q176 438 143.5 428.5 Q111 419 85 405 L70 442 Q87 453 110 464 Q139 477 176.5 488 Q214 499 257 499 Q288 499 315 491 Q342 483 362.5 466 Q383 449 395 423.5 Q407 398 407 364 L407 125 Q407 87 420 71 Q433 55 474 55 L477 55 L453 -4 L426 -4 Z M322 260 Q273 259 228.5 254 Q184 249 149 230 Q131 216 121 195.5 Q111 175 111 146 Q111 99 145 73 Q179 47 227 47 Q238 47 251 52 Q264 57 277 65 Q290 73 301.5 84.5 Q313 96 322 110 L322 260 Z M348 634 Q348 611 339 593 Q330 575 315 562.5 Q300 550 280.5 543 Q261 536 240 536 Q219 536 199.5 543 Q180 550 165 562.5 Q150 575 141 593 Q132 611 132 634 Q132 656 141 674 Q150 692 165 705 Q180 718 199.5 725 Q219 732 240 732 Q261 732 280.5 725 Q300 718 315 705 Q330 692 339 674 Q348 656 348 634 Z M302 635 Q302 660 283.5 676 Q265 692 240 692 Q215 692 196.5 676 Q178 660 178 635 Q178 609 196.5 592.5 Q215 576 240 576 Q265 576 283.5 592.5 Q302 609 302 635 Z " />
<glyph glyph-name="ae" unicode="&#xe6;" horiz-adv-x="832" d="M265 13 Q224 -12 177 -12 Q146 -12 119 -3 Q92 6 71.5 23 Q51 40 39.5 64.5 Q28 89 28 120 Q28 164 47 191.5 Q66 219 98 236 L114 246 Q157 272 211.5 280.5 Q266 289 332 291 Q332 326 327 353.5 Q322 381 309.5 399.5 Q297 418 274 428 Q251 438 215 438 Q178 438 143 428.5 Q108 419 85 405 L69 439 Q115 467 163 483 Q211 499 262 499 Q322 499 359.5 470 Q397 441 401 388 Q412 410 431 429 Q450 448 471 461 L488 470 Q534 499 595 499 Q635 499 669.5 485 Q704 471 731 445.5 Q758 420 775.5 385.5 Q793 351 799 309 Q801 297 802.5 276.5 Q804 256 804 238 L418 238 Q419 199 434.5 164.5 Q450 130 476 104.5 Q502 79 537 64 Q572 49 612 49 Q635 49 653.5 51.5 Q672 54 690 61.5 Q708 69 728.5 81.5 Q749 94 775 114 L794 79 Q752 41 693 14.5 Q634 -12 572 -12 Q506 -12 453 18 Q400 48 371 99 Q336 56 289 26 L265 13 Z M349 138 Q341 158 336.5 186 Q332 214 332 244 Q280 242 230.5 240 Q181 238 145 221 Q112 194 112 147 Q112 101 146 74.5 Q180 48 228 48 Q247 48 264.5 55.5 Q282 63 297 76 Q312 89 325 105 Q338 121 349 138 Z M729 294 Q724 325 710 351.5 Q696 378 674.5 397.5 Q653 417 625 427.5 Q597 438 565 438 Q529 438 495 423 Q465 401 444.5 368 Q424 335 418 294 L729 294 Z " />
<glyph glyph-name="ccedilla" unicode="&#xe7;" horiz-adv-x="478" d="M179 -148 Q200 -155 222 -160 Q244 -165 267 -165 Q290 -165 310 -155 Q330 -145 330 -116 Q330 -101 322 -92.5 Q314 -84 302 -79.5 Q290 -75 276.5 -73.5 Q263 -72 252 -71 L257 -11 Q207 -8 164.5 12 Q122 32 91 64.5 Q60 97 42 140 Q24 183 24 232 Q24 300 57.5 355.5 Q91 411 146 443 L184 465 Q213 481 245 490 Q277 499 311 499 Q349 499 381 491.5 Q413 484 442 470 L414 399 Q383 419 349.5 428.5 Q316 438 277 438 Q255 438 233.5 433.5 Q212 429 195 418 Q155 393 133.5 349.5 Q112 306 112 255 Q112 213 128 175.5 Q144 138 171.5 110 Q199 82 236 66 Q273 50 315 50 Q348 50 379 56.5 Q410 63 444 80 L447 40 Q412 19 374.5 6 Q337 -7 289 -11 L286 -41 Q326 -45 356 -63 Q386 -81 386 -119 Q386 -142 377.5 -158.5 Q369 -175 354.5 -185.5 Q340 -196 321.5 -201 Q303 -206 282 -206 Q254 -206 228.5 -198.5 Q203 -191 177 -180 L179 -148 Z " />
<glyph glyph-name="egrave" unicode="&#xe8;" horiz-adv-x="541" d="M502 79 Q489 68 466.5 52.5 Q444 37 414.5 22.5 Q385 8 349 -2 Q313 -12 273 -12 Q221 -12 175.5 6.5 Q130 25 96.5 57.5 Q63 90 43.5 134.5 Q24 179 24 232 Q24 304 57 359 Q90 414 143 446 L180 468 Q231 499 295 499 Q341 499 380.5 481 Q420 463 449.5 431.5 Q479 400 496 356.5 Q513 313 513 262 L513 238 L113 238 Q114 199 131 164.5 Q148 130 175 104.5 Q202 79 238 64 Q274 49 314 49 Q340 49 360 51.5 Q380 54 398 61.5 Q416 69 436 82 Q456 95 482 116 L502 79 Z M436 294 Q431 325 416.5 351.5 Q402 378 379.5 397.5 Q357 417 327.5 428 Q298 439 265 439 Q246 439 226.5 435 Q207 431 191 421 Q160 401 139.5 368 Q119 335 114 294 L436 294 Z M161 694 L225 718 L333 560 L290 542 L161 694 Z " />
<glyph glyph-name="eacute" unicode="&#xe9;" horiz-adv-x="541" d="M502 79 Q489 68 466.5 52.5 Q444 37 414.5 22.5 Q385 8 349 -2 Q313 -12 273 -12 Q221 -12 175.5 6.5 Q130 25 96.5 57.5 Q63 90 43.5 134.5 Q24 179 24 232 Q24 304 57 359 Q90 414 143 446 L180 468 Q231 499 295 499 Q341 499 380.5 481 Q420 463 449.5 431.5 Q479 400 496 356.5 Q513 313 513 262 L513 238 L113 238 Q114 199 131 164.5 Q148 130 175 104.5 Q202 79 238 64 Q274 49 314 49 Q340 49 360 51.5 Q380 54 398 61.5 Q416 69 436 82 Q456 95 482 116 L502 79 Z M436 294 Q431 325 416.5 351.5 Q402 378 379.5 397.5 Q357 417 327.5 428 Q298 439 265 439 Q246 439 226.5 435 Q207 431 191 421 Q160 401 139.5 368 Q119 335 114 294 L436 294 Z M221 560 L329 718 L393 694 L264 542 L221 560 Z " />
<glyph glyph-name="ecircumflex" unicode="&#xea;" horiz-adv-x="541" d="M502 79 Q489 68 466.5 52.5 Q444 37 414.5 22.5 Q385 8 349 -2 Q313 -12 273 -12 Q221 -12 175.5 6.5 Q130 25 96.5 57.5 Q63 90 43.5 134.5 Q24 179 24 232 Q24 304 57 359 Q90 414 143 446 L180 468 Q231 499 295 499 Q341 499 380.5 481 Q420 463 449.5 431.5 Q479 400 496 356.5 Q513 313 513 262 L513 238 L113 238 Q114 199 131 164.5 Q148 130 175 104.5 Q202 79 238 64 Q274 49 314 49 Q340 49 360 51.5 Q380 54 398 61.5 Q416 69 436 82 Q456 95 482 116 L502 79 Z M436 294 Q431 325 416.5 351.5 Q402 378 379.5 397.5 Q357 417 327.5 428 Q298 439 265 439 Q246 439 226.5 435 Q207 431 191 421 Q160 401 139.5 368 Q119 335 114 294 L436 294 Z M137 571 L263 704 L292 704 L417 570 L380 546 L277 642 L172 546 L137 571 Z " />
<glyph glyph-name="edieresis" unicode="&#xeb;" horiz-adv-x="541" d="M502 79 Q489 68 466.5 52.5 Q444 37 414.5 22.5 Q385 8 349 -2 Q313 -12 273 -12 Q221 -12 175.5 6.5 Q130 25 96.5 57.5 Q63 90 43.5 134.5 Q24 179 24 232 Q24 304 57 359 Q90 414 143 446 L180 468 Q231 499 295 499 Q341 499 380.5 481 Q420 463 449.5 431.5 Q479 400 496 356.5 Q513 313 513 262 L513 238 L113 238 Q114 199 131 164.5 Q148 130 175 104.5 Q202 79 238 64 Q274 49 314 49 Q340 49 360 51.5 Q380 54 398 61.5 Q416 69 436 82 Q456 95 482 116 L502 79 Z M436 294 Q431 325 416.5 351.5 Q402 378 379.5 397.5 Q357 417 327.5 428 Q298 439 265 439 Q246 439 226.5 435 Q207 431 191 421 Q160 401 139.5 368 Q119 335 114 294 L436 294 Z M413 608 Q413 589 399.5 576 Q386 563 368 563 Q349 563 336.5 576 Q324 589 324 608 Q324 625 337.5 638.5 Q351 652 368 652 Q386 652 399.5 638.5 Q413 625 413 608 Z M230 608 Q230 589 217 576 Q204 563 186 563 Q167 563 154 576 Q141 589 141 608 Q141 625 154.5 638.5 Q168 652 186 652 Q204 652 217 638.5 Q230 625 230 608 Z " />
<glyph glyph-name="igrave" unicode="&#xec;" horiz-adv-x="209" d="M62 432 L40 469 L147 499 L147 0 L62 0 L62 432 Z M-12 694 L52 718 L160 560 L117 542 L-12 694 Z " />
<glyph glyph-name="iacute" unicode="&#xed;" horiz-adv-x="209" d="M62 432 L40 469 L147 499 L147 0 L62 0 L62 432 Z M48 560 L156 718 L220 694 L91 542 L48 560 Z " />
<glyph glyph-name="icircumflex" unicode="&#xee;" horiz-adv-x="209" d="M62 432 L40 469 L147 499 L147 0 L62 0 L62 432 Z M-36 571 L90 704 L119 704 L244 570 L207 546 L104 642 L-1 546 L-36 571 Z " />
<glyph glyph-name="idieresis" unicode="&#xef;" horiz-adv-x="209" d="M62 432 L40 469 L147 499 L147 0 L62 0 L62 432 Z M240 608 Q240 589 226.5 576 Q213 563 195 563 Q176 563 163.5 576 Q151 589 151 608 Q151 625 164.5 638.5 Q178 652 195 652 Q213 652 226.5 638.5 Q240 625 240 608 Z M57 608 Q57 589 44 576 Q31 563 13 563 Q-6 563 -19 576 Q-32 589 -32 608 Q-32 625 -18.5 638.5 Q-5 652 13 652 Q31 652 44 638.5 Q57 625 57 608 Z " />
<glyph glyph-name="eth" unicode="&#xf0;" horiz-adv-x="556" d="M380 22 Q327 -12 259 -12 Q212 -12 169.5 6 Q127 24 94.5 56.5 Q62 89 43 134 Q24 179 24 232 Q24 298 55 352.5 Q86 407 137 439 L172 460 Q216 486 267 488 Q295 488 322 479.5 Q349 471 371 454 Q347 491 316 523.5 Q285 556 251 585 L136 503 L108 534 L217 613 Q191 634 164.5 653 Q138 672 110 689 L176 735 Q205 718 232 698.5 Q259 679 285 658 L392 735 L420 703 L317 630 Q356 596 394 554.5 Q432 513 463 465.5 Q494 418 513 365 Q532 312 532 255 Q532 184 500 129.5 Q468 75 417 43 L380 22 Z M369 67 Q404 95 425.5 138.5 Q447 182 447 233 Q447 278 432.5 315.5 Q418 353 393 380 Q368 407 334 422.5 Q300 438 260 438 Q241 438 222.5 434 Q204 430 188 419 Q152 393 131.5 349.5 Q111 306 111 255 Q111 213 125 175.5 Q139 138 164 110 Q189 82 223 66 Q257 50 296 50 Q335 50 369 67 Z " />
<glyph glyph-name="ntilde" unicode="&#xf1;" horiz-adv-x="535" d="M62 432 L40 471 L146 499 L146 422 Q157 433 171.5 443 Q186 453 199 461 L213 470 Q266 499 320 499 Q352 499 381 488.5 Q410 478 432 458 Q454 438 467 408.5 Q480 379 480 342 L480 0 L395 0 L395 316 Q395 346 385 368.5 Q375 391 358 406.5 Q341 422 318.5 430 Q296 438 270 438 Q232 438 202.5 420.5 Q173 403 147 375 L147 0 L62 0 L62 432 Z M120 576 Q129 606 151.5 628.5 Q174 651 207 651 Q223 651 238 646 Q253 641 267.5 634.5 Q282 628 296.5 623 Q311 618 326 618 Q344 618 356 629.5 Q368 641 374 657 L413 642 Q405 611 381.5 588.5 Q358 566 325 566 Q310 566 295.5 571 Q281 576 266 582.5 Q251 589 236 594 Q221 599 205 599 Q187 599 176.5 588 Q166 577 160 562 L120 576 Z " />
<glyph glyph-name="ograve" unicode="&#xf2;" horiz-adv-x="579" d="M396 22 Q339 -12 270 -12 Q220 -12 175.5 6 Q131 24 97.5 56.5 Q64 89 44 134 Q24 179 24 232 Q24 303 57.5 357.5 Q91 412 145 444 L183 466 Q211 482 242.5 490.5 Q274 499 308 499 Q358 499 403 481 Q448 463 481.5 430.5 Q515 398 534.5 353 Q554 308 554 255 Q554 184 521.5 129.5 Q489 75 435 43 L396 22 Z M385 67 Q423 95 445.5 138 Q468 181 468 232 Q468 275 453 312.5 Q438 350 411 378 Q384 406 348 422 Q312 438 270 438 Q249 438 230 434 Q211 430 194 419 Q155 394 133.5 350 Q112 306 112 255 Q112 213 127 175.5 Q142 138 168.5 110 Q195 82 230.5 66 Q266 50 308 50 Q349 50 385 67 Z M173 694 L237 718 L345 560 L302 542 L173 694 Z " />
<glyph glyph-name="oacute" unicode="&#xf3;" horiz-adv-x="579" d="M396 22 Q339 -12 270 -12 Q220 -12 175.5 6 Q131 24 97.5 56.5 Q64 89 44 134 Q24 179 24 232 Q24 303 57.5 357.5 Q91 412 145 444 L183 466 Q211 482 242.5 490.5 Q274 499 308 499 Q358 499 403 481 Q448 463 481.5 430.5 Q515 398 534.5 353 Q554 308 554 255 Q554 184 521.5 129.5 Q489 75 435 43 L396 22 Z M385 67 Q423 95 445.5 138 Q468 181 468 232 Q468 275 453 312.5 Q438 350 411 378 Q384 406 348 422 Q312 438 270 438 Q249 438 230 434 Q211 430 194 419 Q155 394 133.5 350 Q112 306 112 255 Q112 213 127 175.5 Q142 138 168.5 110 Q195 82 230.5 66 Q266 50 308 50 Q349 50 385 67 Z M233 560 L341 718 L405 694 L276 542 L233 560 Z " />
<glyph glyph-name="ocircumflex" unicode="&#xf4;" horiz-adv-x="579" d="M396 22 Q339 -12 270 -12 Q220 -12 175.5 6 Q131 24 97.5 56.5 Q64 89 44 134 Q24 179 24 232 Q24 303 57.5 357.5 Q91 412 145 444 L183 466 Q211 482 242.5 490.5 Q274 499 308 499 Q358 499 403 481 Q448 463 481.5 430.5 Q515 398 534.5 353 Q554 308 554 255 Q554 184 521.5 129.5 Q489 75 435 43 L396 22 Z M385 67 Q423 95 445.5 138 Q468 181 468 232 Q468 275 453 312.5 Q438 350 411 378 Q384 406 348 422 Q312 438 270 438 Q249 438 230 434 Q211 430 194 419 Q155 394 133.5 350 Q112 306 112 255 Q112 213 127 175.5 Q142 138 168.5 110 Q195 82 230.5 66 Q266 50 308 50 Q349 50 385 67 Z M149 571 L275 704 L304 704 L429 570 L392 546 L289 642 L184 546 L149 571 Z " />
<glyph glyph-name="otilde" unicode="&#xf5;" horiz-adv-x="579" d="M396 22 Q339 -12 270 -12 Q220 -12 175.5 6 Q131 24 97.5 56.5 Q64 89 44 134 Q24 179 24 232 Q24 303 57.5 357.5 Q91 412 145 444 L183 466 Q211 482 242.5 490.5 Q274 499 308 499 Q358 499 403 481 Q448 463 481.5 430.5 Q515 398 534.5 353 Q554 308 554 255 Q554 184 521.5 129.5 Q489 75 435 43 L396 22 Z M385 67 Q423 95 445.5 138 Q468 181 468 232 Q468 275 453 312.5 Q438 350 411 378 Q384 406 348 422 Q312 438 270 438 Q249 438 230 434 Q211 430 194 419 Q155 394 133.5 350 Q112 306 112 255 Q112 213 127 175.5 Q142 138 168.5 110 Q195 82 230.5 66 Q266 50 308 50 Q349 50 385 67 Z M142 576 Q151 606 173.5 628.5 Q196 651 229 651 Q245 651 260 646 Q275 641 289.5 634.5 Q304 628 318.5 623 Q333 618 348 618 Q366 618 378 629.5 Q390 641 396 657 L435 642 Q427 611 403.5 588.5 Q380 566 347 566 Q332 566 317.5 571 Q303 576 288 582.5 Q273 589 258 594 Q243 599 227 599 Q209 599 198.5 588 Q188 577 182 562 L142 576 Z " />
<glyph glyph-name="odieresis" unicode="&#xf6;" horiz-adv-x="579" d="M396 22 Q339 -12 270 -12 Q220 -12 175.5 6 Q131 24 97.5 56.5 Q64 89 44 134 Q24 179 24 232 Q24 303 57.5 357.5 Q91 412 145 444 L183 466 Q211 482 242.5 490.5 Q274 499 308 499 Q358 499 403 481 Q448 463 481.5 430.5 Q515 398 534.5 353 Q554 308 554 255 Q554 184 521.5 129.5 Q489 75 435 43 L396 22 Z M385 67 Q423 95 445.5 138 Q468 181 468 232 Q468 275 453 312.5 Q438 350 411 378 Q384 406 348 422 Q312 438 270 438 Q249 438 230 434 Q211 430 194 419 Q155 394 133.5 350 Q112 306 112 255 Q112 213 127 175.5 Q142 138 168.5 110 Q195 82 230.5 66 Q266 50 308 50 Q349 50 385 67 Z M425 608 Q425 589 411.5 576 Q398 563 380 563 Q361 563 348.5 576 Q336 589 336 608 Q336 625 349.5 638.5 Q363 652 380 652 Q398 652 411.5 638.5 Q425 625 425 608 Z M242 608 Q242 589 229 576 Q216 563 198 563 Q179 563 166 576 Q153 589 153 608 Q153 625 166.5 638.5 Q180 652 198 652 Q216 652 229 638.5 Q242 625 242 608 Z " />
<glyph glyph-name="divide" unicode="&#xf7;" horiz-adv-x="556" d="M327 428 Q327 408 312.5 393 Q298 378 278 378 Q257 378 243 392.5 Q229 407 229 428 Q229 448 243.5 462.5 Q258 477 278 477 Q298 477 312.5 462.5 Q327 448 327 428 Z M29 279 L527 279 L527 221 L29 221 L29 279 Z M327 72 Q327 52 312.5 37.5 Q298 23 278 23 Q257 23 243 37.5 Q229 52 229 72 Q229 93 243.5 107.5 Q258 122 278 122 Q298 122 312.5 107.5 Q327 93 327 72 Z " />
<glyph glyph-name="oslash" unicode="&#xf8;" horiz-adv-x="580" d="M38 -30 L105 51 Q68 85 46 130.5 Q24 176 24 232 Q24 303 57.5 357.5 Q91 412 145 444 L183 466 Q211 482 242.5 490.5 Q274 499 308 499 Q382 499 437 461 L507 546 L547 522 L476 435 Q511 402 532.5 356 Q554 310 554 255 Q554 184 521.5 129.5 Q489 75 435 43 L396 22 Q339 -12 270 -12 Q235 -12 202.5 -1.5 Q170 9 143 26 L76 -55 L38 -30 Z M389 398 Q364 417 334.5 427.5 Q305 438 270 438 Q248 438 229 434 Q210 430 193 419 Q155 393 133.5 349.5 Q112 306 112 255 Q112 217 124.5 183.5 Q137 150 161 125 L389 398 Z M192 90 Q216 71 245 60.5 Q274 50 308 50 Q329 50 348.5 54.5 Q368 59 386 67 Q424 95 446 138 Q468 181 468 232 Q468 270 455.5 303.5 Q443 337 420 362 L192 90 Z " />
<glyph glyph-name="ugrave" unicode="&#xf9;" horiz-adv-x="535" d="M391 65 Q380 54 364.5 43.5 Q349 33 338 25 L324 17 Q271 -12 217 -12 Q185 -12 156 -1.5 Q127 9 105 29 Q83 49 70 78 Q57 107 57 145 L57 432 L36 469 L143 499 L143 170 Q143 112 179 81 Q215 50 267 50 Q304 50 339 67 Q351 75 364 86.5 Q377 98 389 112 L389 432 L368 469 L474 499 L474 0 L391 0 L391 65 Z M151 694 L215 718 L323 560 L280 542 L151 694 Z " />
<glyph glyph-name="uacute" unicode="&#xfa;" horiz-adv-x="535" d="M391 65 Q380 54 364.5 43.5 Q349 33 338 25 L324 17 Q271 -12 217 -12 Q185 -12 156 -1.5 Q127 9 105 29 Q83 49 70 78 Q57 107 57 145 L57 432 L36 469 L143 499 L143 170 Q143 112 179 81 Q215 50 267 50 Q304 50 339 67 Q351 75 364 86.5 Q377 98 389 112 L389 432 L368 469 L474 499 L474 0 L391 0 L391 65 Z M211 560 L319 718 L383 694 L254 542 L211 560 Z " />
<glyph glyph-name="ucircumflex" unicode="&#xfb;" horiz-adv-x="535" d="M391 65 Q380 54 364.5 43.5 Q349 33 338 25 L324 17 Q271 -12 217 -12 Q185 -12 156 -1.5 Q127 9 105 29 Q83 49 70 78 Q57 107 57 145 L57 432 L36 469 L143 499 L143 170 Q143 112 179 81 Q215 50 267 50 Q304 50 339 67 Q351 75 364 86.5 Q377 98 389 112 L389 432 L368 469 L474 499 L474 0 L391 0 L391 65 Z M127 571 L253 704 L282 704 L407 570 L370 546 L267 642 L162 546 L127 571 Z " />
<glyph glyph-name="udieresis" unicode="&#xfc;" horiz-adv-x="535" d="M391 65 Q380 54 364.5 43.5 Q349 33 338 25 L324 17 Q271 -12 217 -12 Q185 -12 156 -1.5 Q127 9 105 29 Q83 49 70 78 Q57 107 57 145 L57 432 L36 469 L143 499 L143 170 Q143 112 179 81 Q215 50 267 50 Q304 50 339 67 Q351 75 364 86.5 Q377 98 389 112 L389 432 L368 469 L474 499 L474 0 L391 0 L391 65 Z M403 608 Q403 589 389.5 576 Q376 563 358 563 Q339 563 326.5 576 Q314 589 314 608 Q314 625 327.5 638.5 Q341 652 358 652 Q376 652 389.5 638.5 Q403 625 403 608 Z M220 608 Q220 589 207 576 Q194 563 176 563 Q157 563 144 576 Q131 589 131 608 Q131 625 144.5 638.5 Q158 652 176 652 Q194 652 207 638.5 Q220 625 220 608 Z " />
<glyph glyph-name="yacute" unicode="&#xfd;" horiz-adv-x="470" d="M200 12 L-1 487 L92 487 L246 121 L386 452 L374 487 L471 487 L184 -197 L108 -197 L200 12 Z M179 560 L287 718 L351 694 L222 542 L179 560 Z " />
<glyph glyph-name="thorn" unicode="&#xfe;" horiz-adv-x="562" d="M62 671 L40 707 L147 737 L147 444 Q173 466 208 478.5 Q243 491 275 493 Q308 499 340 495 Q381 488 417 467.5 Q453 447 479.5 415.5 Q506 384 521.5 343 Q537 302 537 255 Q537 183 504 128 Q471 73 417 42 L379 19 Q323 -12 262 -12 Q230 -12 200.5 -2 Q171 8 147 25 L147 -197 L62 -197 L62 671 Z M147 110 Q174 82 211 66 Q248 50 290 50 Q311 50 331 54 Q351 58 368 68 Q407 93 429 137 Q451 181 451 232 Q451 275 435 313 Q419 351 392 378.5 Q365 406 329 422 Q293 438 252 438 Q220 438 195.5 428 Q171 418 147 395 L147 110 Z " />
<glyph glyph-name="ydieresis" unicode="&#xff;" horiz-adv-x="470" d="M200 12 L-1 487 L92 487 L246 121 L386 452 L374 487 L471 487 L184 -197 L108 -197 L200 12 Z M371 608 Q371 589 357.5 576 Q344 563 326 563 Q307 563 294.5 576 Q282 589 282 608 Q282 625 295.5 638.5 Q309 652 326 652 Q344 652 357.5 638.5 Q371 625 371 608 Z M188 608 Q188 589 175 576 Q162 563 144 563 Q125 563 112 576 Q99 589 99 608 Q99 625 112.5 638.5 Q126 652 144 652 Q162 652 175 638.5 Q188 625 188 608 Z " />
<glyph glyph-name="OE" unicode="&#x152;" horiz-adv-x="1021" d="M558 20 Q522 3 482 -6.5 Q442 -16 398 -16 Q320 -16 252 13 Q184 42 134 92 Q84 142 55.5 209 Q27 276 27 352 Q27 455 77 538 Q127 621 210 671 L249 693 Q291 718 338 731 Q385 744 438 744 Q471 744 503 740 Q535 736 564 728 L983 728 L958 661 L648 661 L648 410 L973 410 L948 344 L648 344 L648 67 L993 67 L968 0 L558 0 L558 20 Z M558 645 Q523 660 483 668.5 Q443 677 398 677 Q360 677 324 670 Q288 663 259 644 Q193 603 156 531.5 Q119 460 119 375 Q119 308 143.5 249 Q168 190 210.5 145.5 Q253 101 311.5 75.5 Q370 50 438 50 Q470 50 500.5 55 Q531 60 558 74 L558 645 Z " />
<glyph glyph-name="oe" unicode="&#x153;" horiz-adv-x="832" d="M794 79 Q753 40 695 14 Q637 -12 569 -12 Q530 -12 490.5 2.5 Q451 17 417 43 Q383 19 345.5 3.5 Q308 -12 263 -12 Q215 -12 171.5 6 Q128 24 95 56.5 Q62 89 43 134 Q24 179 24 232 Q24 305 58 361 Q92 417 147 446 L177 466 Q204 481 235.5 490 Q267 499 302 499 Q380 499 450 446 Q460 455 471 460 L484 469 Q509 484 536 492 Q563 500 595 499 Q637 499 675 482.5 Q713 466 741.5 436.5 Q770 407 787 365.5 Q804 324 804 274 L804 238 L417 238 L418 229 Q420 191 436.5 158 Q453 125 479.5 101 Q506 77 540 63 Q574 49 611 49 Q659 48 696.5 65 Q734 82 772 116 L794 79 Z M384 86 Q360 115 345 152 Q330 189 330 230 Q330 273 343.5 314.5 Q357 356 386 391 Q362 412 330 425 Q298 438 262 438 Q226 438 197.5 422 Q169 406 149.5 380 Q130 354 119.5 321.5 Q109 289 109 255 Q109 213 123 176 Q137 139 162 111 Q187 83 221 66.5 Q255 50 294 50 Q343 50 384 86 Z M728 294 Q724 325 709.5 351.5 Q695 378 673.5 397 Q652 416 624 427 Q596 438 564 438 Q532 438 506.5 426.5 Q481 415 462.5 395.5 Q444 376 432.5 350 Q421 324 417 294 L728 294 Z " />
<glyph glyph-name="Scaron" unicode="&#x160;" horiz-adv-x="512" d="M342 13 Q291 -16 232 -16 Q178 -16 126.5 0.5 Q75 17 33 50 L64 130 Q109 91 160 70.5 Q211 50 271 50 Q298 50 320.5 61 Q343 72 358.5 91 Q374 110 382.5 133.5 Q391 157 391 183 Q391 222 377 248 Q363 274 340 291 Q317 308 287 319 Q257 330 226 340 Q192 351 159 364 Q126 377 99.5 398 Q73 419 57 450.5 Q41 482 41 530 Q41 585 67 628 Q93 671 135 694 L176 718 Q222 744 275 744 Q326 744 373 727.5 Q420 711 460 681 L429 603 Q389 638 340.5 658 Q292 678 238 678 Q214 678 194 667.5 Q174 657 160 640 Q146 623 138.5 601 Q131 579 131 557 Q131 519 144.5 495 Q158 471 180.5 455 Q203 439 232 428.5 Q261 418 293 408 Q327 397 361 383.5 Q395 370 422 348 Q449 326 465.5 293 Q482 260 482 210 Q482 156 456 109 Q430 62 382 35 L342 13 Z M115 912 L152 936 L255 840 L360 936 L395 912 L270 779 L240 779 L115 912 Z " />
<glyph glyph-name="scaron" unicode="&#x161;" horiz-adv-x="383" d="M248 8 Q211 -12 172 -12 Q136 -12 101 -0.5 Q66 11 37 32 L65 104 Q94 81 129 64.5 Q164 48 201 48 Q232 48 250.5 69 Q269 90 269 120 Q269 147 259.5 164 Q250 181 233.5 192 Q217 203 196 210 Q175 217 153 224 Q132 231 111.5 239.5 Q91 248 75 262 Q59 276 49 296.5 Q39 317 39 349 Q39 383 55.5 412 Q72 441 102 458 L133 476 Q150 485 169.5 492 Q189 499 212 499 Q246 499 277 488 Q308 477 334 459 L308 390 Q284 410 252.5 424 Q221 438 189 438 Q181 438 171.5 436.5 Q162 435 155 432 Q140 424 131.5 406.5 Q123 389 123 371 Q124 347 133 332 Q142 317 157 307 Q172 297 191 290.5 Q210 284 230 278 Q254 270 276.5 261 Q299 252 316 237 Q333 222 343.5 200.5 Q354 179 354 146 Q354 104 333 73.5 Q312 43 279 25 L248 8 Z M51 679 L88 703 L191 607 L296 703 L331 679 L206 546 L176 546 L51 679 Z " />
<glyph glyph-name="Ydieresis" unicode="&#x178;" horiz-adv-x="613" d="M264 291 L-3 728 L104 728 L320 373 L513 689 L502 728 L617 728 L353 298 L353 0 L264 0 L264 291 Z M442 841 Q442 822 428.5 809.5 Q415 797 397 797 Q378 797 365.5 809.5 Q353 822 353 841 Q353 858 366.5 872 Q380 886 397 886 Q415 886 428.5 872 Q442 858 442 841 Z M259 841 Q259 822 246 809.5 Q233 797 215 797 Q196 797 183 810 Q170 823 170 841 Q170 858 183.5 872 Q197 886 215 886 Q233 886 246 872 Q259 858 259 841 Z " />
<glyph glyph-name="Zcaron" unicode="&#x17d;" horiz-adv-x="572" d="M17 34 L425 661 L29 661 L55 728 L547 728 L547 694 L139 66 L559 66 L533 0 L17 0 L17 34 Z M146 912 L183 936 L286 840 L391 936 L426 912 L301 779 L271 779 L146 912 Z " />
<glyph glyph-name="zcaron" unicode="&#x17e;" horiz-adv-x="436" d="M19 31 L297 426 L27 426 L51 487 L411 487 L411 455 L135 62 L424 62 L400 0 L19 0 L19 31 Z M78 679 L115 703 L218 607 L323 703 L358 679 L233 546 L203 546 L78 679 Z " />
<glyph glyph-name="florin" unicode="&#x192;" horiz-adv-x="560" d="M1 -112 Q13 -114 31.5 -116.5 Q50 -119 64 -119 Q85 -119 104.5 -116 Q124 -113 140 -105 Q169 -82 181 -45 Q193 -8 201 38 L272 426 L162 426 L162 487 L284 487 L299 563 Q308 610 330 643.5 Q352 677 380 694 L399 704 Q408 709 423 714 Q438 719 454.5 722.5 Q471 726 487 728 Q503 730 514 730 Q537 730 554 727 L554 666 Q549 666 534.5 667 Q520 668 509 668 Q501 668 489 668 Q477 668 464.5 667 Q452 666 440.5 665 Q429 664 423 663 Q406 647 395 620 Q384 593 377 559 L364 487 L511 487 L511 426 L353 426 L286 52 Q275 -12 251.5 -62.5 Q228 -113 182 -139 L144 -161 Q124 -172 99.5 -178.5 Q75 -185 45 -185 Q35 -185 23.5 -183 Q12 -181 1 -178 L1 -112 Z " />
<glyph glyph-name="circumflex" unicode="&#x2c6;" horiz-adv-x="500" d="M110 571 L236 704 L265 704 L390 570 L353 546 L250 642 L145 546 L110 571 Z " />
<glyph glyph-name="tilde" unicode="&#x2dc;" horiz-adv-x="500" d="M103 576 Q112 606 134.5 628.5 Q157 651 190 651 Q206 651 221 646 Q236 641 250.5 634.5 Q265 628 279.5 623 Q294 618 309 618 Q327 618 339 629.5 Q351 641 357 657 L396 642 Q388 611 364.5 588.5 Q341 566 308 566 Q293 566 278.5 571 Q264 576 249 582.5 Q234 589 219 594 Q204 599 188 599 Q170 599 159.5 588 Q149 577 143 562 L103 576 Z " />
<glyph glyph-name="endash" unicode="&#x2013;" horiz-adv-x="500" d="M0 284 L500 284 L500 221 L0 221 L0 284 Z " />
<glyph glyph-name="emdash" unicode="&#x2014;" horiz-adv-x="1000" d="M0 284 L1000 284 L1000 221 L0 221 L0 284 Z " />
<glyph glyph-name="quoteleft" unicode="&#x2018;" horiz-adv-x="156" d="M151 734 Q131 708 117 678.5 Q103 649 99 617 Q109 612 115.5 602 Q122 592 122 579 Q122 559 110 547 Q98 535 79 535 Q58 535 46 550 Q34 565 34 587 Q34 635 59.5 676 Q85 717 122 747 L151 734 Z " />
<glyph glyph-name="quoteright" unicode="&#x2019;" horiz-adv-x="156" d="M6 549 Q26 575 40 604.5 Q54 634 58 666 Q48 671 41 681 Q34 691 34 703 Q34 723 46.5 735 Q59 747 78 747 Q99 747 110.5 732.5 Q122 718 122 696 Q122 648 97 606.5 Q72 565 35 535 L6 549 Z " />
<glyph glyph-name="quotesinglbase" unicode="&#x201a;" horiz-adv-x="156" d="M6 -117 Q26 -91 40 -61.5 Q54 -32 58 0 Q48 5 41 15 Q34 25 34 38 Q34 58 46.5 70 Q59 82 78 82 Q99 82 110.5 67 Q122 52 122 31 Q122 -17 97 -59 Q72 -101 35 -130 L6 -117 Z " />
<glyph glyph-name="quotedblleft" unicode="&#x201c;" horiz-adv-x="290" d="M151 734 Q131 708 117 678.5 Q103 649 99 617 Q109 612 115.5 602 Q122 592 122 579 Q122 559 110 547 Q98 535 79 535 Q58 535 46 550 Q34 565 34 587 Q34 635 59.5 676 Q85 717 122 747 L151 734 Z M285 734 Q265 708 251 678.5 Q237 649 233 617 Q243 612 249.5 602 Q256 592 256 579 Q256 559 244 547 Q232 535 213 535 Q192 535 180 550 Q168 565 168 587 Q168 635 193.5 676 Q219 717 256 747 L285 734 Z " />
<glyph glyph-name="quotedblright" unicode="&#x201d;" horiz-adv-x="290" d="M140 549 Q160 575 173.5 604.5 Q187 634 192 666 Q182 671 175 681 Q168 691 168 703 Q168 723 180.5 735 Q193 747 212 747 Q233 747 244.5 732.5 Q256 718 256 696 Q256 648 231 606.5 Q206 565 169 535 L140 549 Z M6 549 Q26 575 40 604.5 Q54 634 58 666 Q48 671 41 681 Q34 691 34 703 Q34 723 46.5 735 Q59 747 78 747 Q99 747 110.5 732.5 Q122 718 122 696 Q122 648 97 606.5 Q72 565 35 535 L6 549 Z " />
<glyph glyph-name="quotedblbase" unicode="&#x201e;" horiz-adv-x="290" d="M140 -117 Q160 -91 173.5 -61.5 Q187 -32 192 0 Q182 5 175 15 Q168 25 168 38 Q168 58 180.5 70 Q193 82 212 82 Q233 82 244.5 67 Q256 52 256 31 Q256 -17 231 -59 Q206 -101 169 -130 L140 -117 Z M6 -117 Q26 -91 40 -61.5 Q54 -32 58 0 Q48 5 41 15 Q34 25 34 38 Q34 58 46.5 70 Q59 82 78 82 Q99 82 110.5 67 Q122 52 122 31 Q122 -17 97 -59 Q72 -101 35 -130 L6 -117 Z " />
<glyph glyph-name="dagger" unicode="&#x2020;" horiz-adv-x="560" d="M243 442 L54 442 L54 504 L243 504 L243 728 L316 728 L316 504 L505 504 L505 442 L316 442 L316 -184 L243 -184 L243 442 Z " />
<glyph glyph-name="daggerdbl" unicode="&#x2021;" horiz-adv-x="560" d="M243 40 L54 40 L54 102 L243 102 L243 442 L54 442 L54 504 L243 504 L243 728 L316 728 L316 504 L505 504 L505 442 L316 442 L316 102 L505 102 L505 40 L316 40 L316 -184 L243 -184 L243 40 Z " />
<glyph glyph-name="bullet" unicode="&#x2022;" horiz-adv-x="560" d="M397 332 Q397 308 388 286.5 Q379 265 363 249 Q347 233 325.5 224 Q304 215 280 215 Q256 215 234.5 224 Q213 233 197.5 249 Q182 265 172.5 286.5 Q163 308 163 332 Q163 356 172.5 377 Q182 398 197.5 414 Q213 430 234.5 439 Q256 448 280 448 Q304 448 325.5 439 Q347 430 363 414 Q379 398 388 377 Q397 356 397 332 Z " />
<glyph glyph-name="ellipsis" unicode="&#x2026;" horiz-adv-x="1000" d="M887 51 Q887 24 869 10 Q851 -4 830 -4 Q809 -4 794 8.5 Q779 21 779 42 Q779 68 797.5 82.5 Q816 97 837 97 Q858 97 872.5 84.5 Q887 72 887 51 Z M554 51 Q554 24 536 10 Q518 -4 497 -4 Q476 -4 461 8.5 Q446 21 446 42 Q446 68 464.5 82.5 Q483 97 504 97 Q525 97 539.5 84.5 Q554 72 554 51 Z M221 51 Q221 24 203 10 Q185 -4 164 -4 Q143 -4 128 8.5 Q113 21 113 42 Q113 68 131.5 82.5 Q150 97 171 97 Q192 97 206.5 84.5 Q221 72 221 51 Z " />
<glyph glyph-name="perthousand" unicode="&#x2030;" horiz-adv-x="1173" d="M233 340 Q219 333 203 329 Q187 325 168 325 Q127 325 99 342 Q71 359 53.5 387 Q36 415 28 451 Q20 487 20 525 Q20 555 24.5 583 Q29 611 38.5 636 Q48 661 63.5 680 Q79 699 102 711 L134 728 Q162 743 199 743 Q241 743 269.5 726 Q298 709 316 681 Q334 653 342 616.5 Q350 580 350 542 Q350 513 345.5 484.5 Q341 456 330.5 431.5 Q320 407 304 388 Q288 369 265 357 L233 340 Z M278 525 Q278 556 272.5 586.5 Q267 617 254.5 641 Q242 665 221.5 680 Q201 695 171 695 Q160 695 152.5 690.5 Q145 686 138 681 Q112 658 102 620.5 Q92 583 92 542 Q92 510 97.5 480 Q103 450 115.5 426.5 Q128 403 148.5 388.5 Q169 374 199 374 Q209 374 217 378.5 Q225 383 233 389 Q258 409 268 447 Q278 485 278 525 Z M585 762 L639 762 L220 -34 L167 -34 L585 762 Z M669 6 Q655 -1 639 -5 Q623 -9 604 -9 Q563 -9 535 8 Q507 25 489.5 53 Q472 81 464 117 Q456 153 456 191 Q456 221 460.5 249 Q465 277 474.5 302 Q484 327 499.5 346 Q515 365 538 377 L570 394 Q598 409 635 409 Q677 409 705.5 392 Q734 375 752 347 Q770 319 778 282.5 Q786 246 786 208 Q786 179 781.5 150.5 Q777 122 766.5 97.5 Q756 73 740 54 Q724 35 701 23 L669 6 Z M714 191 Q714 222 708.5 252.5 Q703 283 690.5 307 Q678 331 657.5 346 Q637 361 607 361 Q596 361 588.5 356.5 Q581 352 574 347 Q548 324 538 286.5 Q528 249 528 208 Q528 176 533.5 146 Q539 116 551.5 92.5 Q564 69 584.5 54.5 Q605 40 635 40 Q645 40 653 44.5 Q661 49 669 55 Q694 75 704 113 Q714 151 714 191 Z M1038 6 Q1024 -1 1008 -5 Q992 -9 973 -9 Q932 -9 904 8 Q876 25 858.5 53 Q841 81 833 117 Q825 153 825 191 Q825 221 829.5 249 Q834 277 843.5 302 Q853 327 868.5 346 Q884 365 907 377 L939 394 Q967 409 1004 409 Q1046 409 1074.5 392 Q1103 375 1121 347 Q1139 319 1147 282.5 Q1155 246 1155 208 Q1155 179 1150.5 150.5 Q1146 122 1135.5 97.5 Q1125 73 1109 54 Q1093 35 1070 23 L1038 6 Z M1083 191 Q1083 222 1077.5 252.5 Q1072 283 1059.5 307 Q1047 331 1026.5 346 Q1006 361 976 361 Q965 361 957.5 356.5 Q950 352 943 347 Q917 324 907 286.5 Q897 249 897 208 Q897 176 902.5 146 Q908 116 920.5 92.5 Q933 69 953.5 54.5 Q974 40 1004 40 Q1014 40 1022 44.5 Q1030 49 1038 55 Q1063 75 1073 113 Q1083 151 1083 191 Z " />
<glyph glyph-name="guilsinglleft" unicode="&#x2039;" horiz-adv-x="231" d="M24 232 L171 440 L202 425 L108 255 L207 73 L169 51 L24 232 Z " />
<glyph glyph-name="guilsinglright" unicode="&#x203a;" horiz-adv-x="231" d="M29 61 L123 232 L25 414 L63 436 L207 256 L60 47 L29 61 Z " />
<glyph glyph-name="Euro" unicode="&#x20ac;" horiz-adv-x="560" d="M550 39 Q505 10 463 -3 Q421 -16 363 -16 Q299 -16 251.5 7.5 Q204 31 170.5 70 Q137 109 117 159.5 Q97 210 88 264 L-9 264 L-9 317 L82 317 Q81 326 81 334.5 Q81 343 81 352 Q81 369 82 385.5 Q83 402 85 419 L-9 419 L-9 473 L95 473 Q108 538 139.5 594 Q171 650 227 687 Q236 692 248 699.5 Q260 707 269 711 Q300 727 330 735.5 Q360 744 395 744 Q474 744 543 710 L520 628 Q482 654 444 665.5 Q406 677 359 677 Q296 677 254 632 Q225 601 207.5 559.5 Q190 518 182 473 L449 473 L449 419 L175 419 Q174 408 173.5 397 Q173 386 173 375 Q173 348 176 317 L410 317 L410 264 L186 264 Q194 223 210 184.5 Q226 146 251.5 116 Q277 86 312.5 68 Q348 50 395 50 Q437 50 473.5 58.5 Q510 67 545 86 L550 39 Z " />
<glyph glyph-name="trademark" unicode="&#x2122;" horiz-adv-x="868" d="M137 677 L2 677 L23 728 L344 728 L323 677 L208 677 L208 328 L137 328 L137 677 Z M390 696 L365 728 L452 728 L611 534 L770 728 L829 728 L829 328 L758 328 L758 622 L618 451 L586 451 L446 622 L446 328 L390 328 L390 696 Z " />
</font>
</svg>
