<?xml version="1.0" encoding="UTF-8"?>
<svg xmlns="http://www.w3.org/2000/svg" xmlns:xlink="http://www.w3.org/1999/xlink" version="1.2" >
<font id="Brewery No 2 Regular">
<font-face  font-family="Brewery No 2" units-per-em="1000" ascent="770" descent="-230" font-style="normal" font-weight="400" font-stretch="normal" cap-height="728" x-height="484" underline-position="-141" underline-thickness="31" />
<missing-glyph  horiz-adv-x="485" d="M210 174 L263 174 L263 111 L210 111 L210 174 Z M211 238 Q211 263 213.5 281 Q216 299 222.5 313.5 Q229 328 240 341 Q251 354 268 369 Q298 397 306 414.5 Q314 432 314 449 Q314 483 292.5 506 Q271 529 242 529 Q213 529 191.5 508.5 Q170 488 165 439 Q153 441 141 443 Q129 445 117 447 Q124 516 159 546.5 Q194 577 245 577 Q297 577 330 543.5 Q363 510 363 453 Q363 422 351 397.5 Q339 373 303 340 Q284 323 274.5 312 Q265 301 261 289.5 Q257 278 257 262.5 Q257 247 257 222 L211 222 L211 238 Z M438 47 L438 632 L47 632 L47 47 L438 47 Z M0 680 L485 680 L485 0 L0 0 L0 680 Z " />
<glyph glyph-name="space" unicode="&#x20;" horiz-adv-x="277" d="" />
<glyph glyph-name="exclam" unicode="&#x21;" horiz-adv-x="283" d="M105 728 L179 728 L174 195 L110 195 L105 728 Z M186 44 Q186 21 171 9 Q156 -3 139 -3 Q122 -3 109 8 Q96 19 96 36 Q96 59 111.5 71 Q127 83 145 83 Q162 83 174 72 Q186 61 186 44 Z " />
<glyph glyph-name="quotedbl" unicode="&#x22;" horiz-adv-x="406" d="M237 728 L304 728 L295 474 L246 474 L237 728 Z M103 728 L171 728 L161 474 L112 474 L103 728 Z " />
<glyph glyph-name="numbersign" unicode="&#x23;" horiz-adv-x="554" d="M111 240 L-8 240 L-8 287 L123 287 L164 440 L45 440 L45 488 L176 488 L240 728 L297 728 L233 488 L386 488 L450 728 L506 728 L442 488 L561 488 L561 440 L429 440 L389 288 L507 288 L507 240 L375 240 L312 0 L256 0 L320 240 L167 240 L101 0 L46 0 L111 240 Z M332 287 L374 440 L219 440 L178 287 L332 287 Z " />
<glyph glyph-name="dollar" unicode="&#x24;" horiz-adv-x="554" d="M365 12 Q336 -5 302 -11 L302 -77 L253 -77 L253 -16 Q201 -15 151.5 2 Q102 19 61 51 L87 117 Q159 49 253 39 L253 347 Q219 357 186 370.5 Q153 384 126.5 405 Q100 426 84 457.5 Q68 489 68 536 Q68 589 93.5 632 Q119 675 161 699 L195 718 Q221 734 253 740 L253 805 L302 805 L302 744 Q349 742 393 726 Q437 710 474 681 L448 615 Q385 673 302 687 L302 404 Q303 403 306 403 Q341 392 375.5 378.5 Q410 365 437 343.5 Q464 322 481 288.5 Q498 255 498 205 Q498 151 472 104 Q446 57 398 30 L365 12 Z M424 182 Q424 216 414.5 240 Q405 264 388.5 281.5 Q372 299 349.5 310.5 Q327 322 302 331 L302 37 Q330 40 352.5 53 Q375 66 391 85.5 Q407 105 415.5 130 Q424 155 424 182 Z M141 558 Q141 527 149.5 504.5 Q158 482 173 466.5 Q188 451 208.5 440 Q229 429 253 420 L253 689 Q227 687 206.5 675.5 Q186 664 171.5 646 Q157 628 149 605 Q141 582 141 558 Z " />
<glyph glyph-name="percent" unicode="&#x25;" horiz-adv-x="797" d="M234 340 Q207 325 169 325 Q128 325 100 342 Q72 359 54.5 387.5 Q37 416 29 452 Q21 488 21 526 Q21 556 25.5 584.5 Q30 613 40 637.5 Q50 662 65.5 682 Q81 702 104 714 L131 729 Q161 743 195 743 Q237 743 265.5 726 Q294 709 311.5 680.5 Q329 652 337 615.5 Q345 579 345 541 Q345 512 340.5 483.5 Q336 455 325.5 430.5 Q315 406 299 386.5 Q283 367 260 355 L234 340 Z M284 526 Q284 559 278.5 590.5 Q273 622 260 646.5 Q247 671 225 686.5 Q203 702 171 702 Q160 702 151.5 698 Q143 694 135 689 Q106 666 94.5 625.5 Q83 585 83 541 Q83 508 88.5 476.5 Q94 445 107 420.5 Q120 396 141.5 381 Q163 366 195 366 Q206 366 215.5 370.5 Q225 375 234 381 Q262 402 273 442.5 Q284 483 284 526 Z M585 763 L631 763 L211 -35 L166 -35 L585 763 Z M665 6 Q638 -9 600 -9 Q559 -9 531 8 Q503 25 485.5 53.5 Q468 82 460 118 Q452 154 452 192 Q452 222 456.5 250.5 Q461 279 471 303.5 Q481 328 496.5 348 Q512 368 535 380 L562 395 Q592 409 626 409 Q668 409 696.5 392 Q725 375 742.5 346.5 Q760 318 768 281.5 Q776 245 776 207 Q776 178 771.5 149.5 Q767 121 756.5 96.5 Q746 72 730 52.5 Q714 33 691 21 L665 6 Z M715 192 Q715 225 709.5 256.5 Q704 288 691 312.5 Q678 337 656 352.5 Q634 368 602 368 Q591 368 582.5 364 Q574 360 566 355 Q537 332 525.5 291.5 Q514 251 514 207 Q514 174 519.5 142.5 Q525 111 538 86.5 Q551 62 572.5 47 Q594 32 626 32 Q637 32 646.5 36.5 Q656 41 665 47 Q693 68 704 108.5 Q715 149 715 192 Z " />
<glyph glyph-name="ampersand" unicode="&#x26;" horiz-adv-x="691" d="M602 -7 Q591 26 576 56.5 Q561 87 544 115 Q524 96 496.5 75.5 Q469 55 444 40 Q395 11 351.5 -2.5 Q308 -16 260 -16 Q219 -16 181 -3.5 Q143 9 114.5 32.5 Q86 56 69 88.5 Q52 121 52 160 Q52 203 69 238 Q86 273 113 302 Q140 331 173.5 355.5 Q207 380 240 402 Q215 422 194 442 Q173 462 157.5 483 Q142 504 133.5 527.5 Q125 551 125 577 Q125 612 140.5 642.5 Q156 673 182 695.5 Q208 718 241 731 Q274 744 310 744 Q340 744 367 733 Q394 722 415 702.5 Q436 683 448.5 656 Q461 629 461 597 Q461 569 450 544.5 Q439 520 420.5 498.5 Q402 477 378 458 Q354 439 329 421 Q357 399 389 375.5 Q421 352 453 325 Q485 298 516 267.5 Q547 237 574 201 Q589 218 606 239.5 Q623 261 637 278 L668 249 Q652 227 635.5 206.5 Q619 186 599 165 Q619 136 635.5 102 Q652 68 672 21 L602 -7 Z M299 444 Q314 456 331 470 Q348 484 362 500.5 Q376 517 385 536 Q394 555 394 578 Q394 603 385 624.5 Q376 646 361 661.5 Q346 677 325.5 685.5 Q305 694 282 694 Q267 694 256.5 690.5 Q246 687 236 682 Q216 666 205 644.5 Q194 623 194 596 Q194 552 224 516 Q254 480 299 444 Z M522 148 Q495 186 464 218.5 Q433 251 400.5 278.5 Q368 306 335 331 Q302 356 271 379 Q243 359 216.5 338 Q190 317 169 293 Q148 269 135.5 241 Q123 213 123 179 Q123 146 137.5 119 Q152 92 176 73.5 Q200 55 230 44.5 Q260 34 291 34 Q360 34 416 65 Q472 96 522 148 Z " />
<glyph glyph-name="quotesingle" unicode="&#x27;" horiz-adv-x="277" d="M105 728 L173 728 L163 479 L113 479 L105 728 Z " />
<glyph glyph-name="parenleft" unicode="&#x28;" horiz-adv-x="304" d="M291 715 Q216 622 177 506.5 Q138 391 138 272 Q138 213 147.5 153.5 Q157 94 176.5 36.5 Q196 -21 224.5 -74.5 Q253 -128 291 -173 Q280 -180 270 -187.5 Q260 -195 249 -202 Q208 -157 175 -103 Q142 -49 119.5 10 Q97 69 85 131 Q73 193 73 255 Q73 366 107.5 467.5 Q142 569 204 660 Q230 700 263 733 L291 715 Z " />
<glyph glyph-name="parenright" unicode="&#x29;" horiz-adv-x="304" d="M14 -184 Q89 -91 128 24.5 Q167 140 167 259 Q167 317 157 377 Q147 437 128 494.5 Q109 552 80 605.5 Q51 659 14 704 Q25 711 35 718.5 Q45 726 56 733 Q97 688 130 634 Q163 580 185.5 521 Q208 462 220 399.5 Q232 337 232 276 Q232 165 197.5 63.5 Q163 -38 101 -129 Q75 -169 42 -202 L14 -184 Z " />
<glyph glyph-name="asterisk" unicode="&#x2a;" horiz-adv-x="505" d="M115 386 L214 523 L49 580 L71 624 L230 571 L230 742 L279 742 L279 570 L441 624 L459 580 L294 523 L395 386 L355 360 L253 494 L154 360 L115 386 Z " />
<glyph glyph-name="plus" unicode="&#x2b;" horiz-adv-x="556" d="M250 222 L28 222 L28 278 L250 278 L250 500 L306 500 L306 278 L528 278 L528 222 L306 222 L306 0 L250 0 L250 222 Z " />
<glyph glyph-name="comma" unicode="&#x2c;" horiz-adv-x="277" d="M62 -134 Q85 -105 100.5 -70.5 Q116 -36 120 1 Q94 11 94 39 Q94 58 107.5 70.5 Q121 83 139 83 Q161 83 172.5 68 Q184 53 184 30 Q184 -22 158 -68 Q132 -114 92 -147 L62 -134 Z " />
<glyph glyph-name="hyphen" unicode="&#x2d;" horiz-adv-x="335" d="M33 277 L304 277 L304 225 L33 225 L33 277 Z " />
<glyph glyph-name="period" unicode="&#x2e;" horiz-adv-x="277" d="M184 44 Q184 21 169 9 Q154 -3 137 -3 Q120 -3 107 8 Q94 19 94 36 Q94 59 109.5 71 Q125 83 143 83 Q160 83 172 72 Q184 61 184 44 Z " />
<glyph glyph-name="slash" unicode="&#x2f;" horiz-adv-x="388" d="M348 744 L391 744 L40 -16 L-2 -16 L348 744 Z " />
<glyph glyph-name="zero" unicode="0" horiz-adv-x="554" d="M364 10 Q320 -16 261 -16 Q195 -16 149 15.5 Q103 47 74.5 99 Q46 151 33.5 217.5 Q21 284 21 354 Q21 408 28.5 460.5 Q36 513 52.5 558.5 Q69 604 94.5 640.5 Q120 677 157 698 L190 718 Q233 744 293 744 Q359 744 405 712 Q451 680 479 628 Q507 576 519.5 509.5 Q532 443 532 373 Q532 319 524.5 266.5 Q517 214 501 168 Q485 122 459 86 Q433 50 396 29 L364 10 Z M459 354 Q459 416 449 476.5 Q439 537 416 584.5 Q393 632 355.5 661 Q318 690 262 690 Q242 690 225.5 683.5 Q209 677 193 667 Q166 647 147.5 615 Q129 583 117.5 544 Q106 505 101 461.5 Q96 418 96 373 Q96 310 106 250 Q116 190 139 142.5 Q162 95 199.5 66.5 Q237 38 292 38 Q312 38 330 44.5 Q348 51 362 61 Q389 81 407.5 112.5 Q426 144 437.5 183 Q449 222 454 265.5 Q459 309 459 354 Z " />
<glyph glyph-name="one" unicode="1" horiz-adv-x="554" d="M303 645 L97 520 L69 567 L339 728 L376 728 L376 0 L303 0 L303 645 Z " />
<glyph glyph-name="two" unicode="2" horiz-adv-x="554" d="M53 31 L315 313 Q363 364 392.5 415 Q422 466 422 524 Q422 563 408.5 594 Q395 625 371 646 Q347 667 314.5 678.5 Q282 690 245 690 Q194 690 153 669 Q112 648 70 614 L50 648 Q68 662 90.5 677 Q113 692 139 706 Q207 744 277 744 Q322 744 362 730.5 Q402 717 432 691.5 Q462 666 479.5 629 Q497 592 497 544 Q497 477 466 418 Q435 359 381 303 L143 55 L507 58 L485 0 L53 0 L53 31 Z " />
<glyph glyph-name="three" unicode="3" horiz-adv-x="554" d="M368 16 Q342 1 311 -7.5 Q280 -16 246 -16 Q194 -16 147 1.5 Q100 19 56 59 L83 125 Q130 77 177 56 Q224 35 273 35 Q296 36 317 40 Q338 44 355 56 Q390 77 406.5 111.5 Q423 146 423 186 Q423 221 410 251 Q397 281 374.5 303.5 Q352 326 321.5 339 Q291 352 256 352 L198 352 L213 403 L286 403 Q313 403 335.5 414 Q358 425 373.5 443.5 Q389 462 398 486 Q407 510 407 537 Q407 572 393.5 600.5 Q380 629 357.5 649 Q335 669 306 679.5 Q277 690 245 690 Q198 690 160.5 671.5 Q123 653 85 622 L67 658 Q82 669 100.5 681.5 Q119 694 147 710 Q181 728 214 736 Q247 744 280 744 Q322 744 358 730.5 Q394 717 421 692.5 Q448 668 463.5 634 Q479 600 479 558 Q479 496 446 454.5 Q413 413 362 387 Q392 378 416.5 360 Q441 342 459 318 Q477 294 487 264 Q497 234 497 201 Q497 145 471 102.5 Q445 60 401 35 L368 16 Z " />
<glyph glyph-name="four" unicode="4" horiz-adv-x="554" d="M388 167 L12 167 L12 198 L387 728 L460 728 L94 222 L94 221 L388 221 L388 427 L460 427 L460 221 L539 221 L539 167 L460 167 L460 0 L388 0 L388 167 Z " />
<glyph glyph-name="five" unicode="5" horiz-adv-x="554" d="M376 17 Q320 -16 251 -16 Q191 -16 138 1.5 Q85 19 40 51 L71 117 Q119 73 171.5 55.5 Q224 38 282 38 Q305 38 326.5 42.5 Q348 47 365 58 Q403 82 424.5 123.5 Q446 165 446 215 Q446 255 431 291 Q416 327 390 354 Q364 381 329.5 396.5 Q295 412 255 412 Q213 412 171.5 399 Q130 386 94 362 L60 373 L114 728 L506 728 L485 670 L163 671 L124 415 Q167 438 207 449.5 Q247 461 289 461 Q338 461 380.5 443.5 Q423 426 454 395 Q485 364 503 322.5 Q521 281 521 233 Q521 168 490 116.5 Q459 65 408 36 L376 17 Z " />
<glyph glyph-name="six" unicode="6" horiz-adv-x="554" d="M381 15 Q328 -16 262 -16 Q213 -16 170 2.5 Q127 21 95.5 52.5 Q64 84 45.5 126.5 Q27 169 27 217 Q27 258 40 300 Q53 342 73 382 Q115 462 178.5 550 Q242 638 326 728 L402 728 Q335 655 276 576.5 Q217 498 168 416 Q196 436 228 448.5 Q260 461 297 461 Q346 461 388.5 443 Q431 425 462 394 Q493 363 510.5 321.5 Q528 280 528 233 Q528 169 497 115.5 Q466 62 414 33 L381 15 Z M102 233 Q102 193 117 157.5 Q132 122 158 95.5 Q184 69 219 53.5 Q254 38 295 38 Q317 38 337 42.5 Q357 47 374 58 Q412 83 434.5 124 Q457 165 457 215 Q457 256 442.5 291.5 Q428 327 402 353.5 Q376 380 340.5 395 Q305 410 263 410 Q220 410 182 391 Q146 365 124 324 Q102 283 102 233 Z " />
<glyph glyph-name="seven" unicode="7" horiz-adv-x="554" d="M440 673 L35 670 L56 728 L511 728 L511 696 L211 0 L138 0 L440 673 Z " />
<glyph glyph-name="eight" unicode="8" horiz-adv-x="554" d="M368 12 Q320 -16 260 -16 Q217 -16 179 -0.5 Q141 15 113 42 Q85 69 69 105.5 Q53 142 53 184 Q53 238 79.5 281.5 Q106 325 149 350 Q160 357 171 362.5 Q182 368 189 371 Q135 389 101.5 434.5 Q68 480 68 539 Q68 590 93.5 632.5 Q119 675 161 698 L193 717 Q216 730 240.5 737 Q265 744 293 744 Q333 744 368 729.5 Q403 715 429 690 Q455 665 470 631 Q485 597 485 558 Q485 508 461.5 468 Q438 428 397 404 Q389 399 381 395 Q373 391 365 386 Q425 368 462.5 318 Q500 268 500 202 Q500 146 473 101.5 Q446 57 401 31 L368 12 Z M414 540 Q414 575 401 603.5 Q388 632 367 651.5 Q346 671 318 681.5 Q290 692 260 692 Q231 692 209 679 Q187 666 172 646 Q157 626 149 601.5 Q141 577 141 555 Q141 516 155 488 Q169 460 191 441 Q213 422 240 413 Q267 404 293 404 Q318 404 340 414.5 Q362 425 378.5 443.5 Q395 462 404.5 487 Q414 512 414 540 Z M426 184 Q426 219 413.5 249 Q401 279 378.5 301.5 Q356 324 325.5 337 Q295 350 260 350 Q241 350 224 344.5 Q207 339 193 331 Q164 310 146 276.5 Q128 243 128 204 Q128 171 140.5 141 Q153 111 174.5 88 Q196 65 226.5 51.5 Q257 38 293 38 Q312 38 329 43.5 Q346 49 361 58 Q390 78 408 111 Q426 144 426 184 Z " />
<glyph glyph-name="nine" unicode="9" horiz-adv-x="554" d="M153 0 Q220 73 279 151.5 Q338 230 388 312 Q359 292 327 279.5 Q295 267 259 267 Q209 267 167 285 Q125 303 93.5 334 Q62 365 44.5 406.5 Q27 448 27 495 Q27 559 58 612.5 Q89 666 141 695 L174 713 Q227 744 293 744 Q342 744 385 725.5 Q428 707 460 675.5 Q492 644 510 601.5 Q528 559 528 511 Q528 470 515.5 428 Q503 386 482 346 Q441 266 377 178 Q313 90 229 0 L153 0 Z M453 495 Q453 535 438 570.5 Q423 606 397 632.5 Q371 659 336 674.5 Q301 690 260 690 Q239 690 218.5 685.5 Q198 681 181 670 Q143 645 121 604 Q99 563 99 513 Q99 472 113.5 436.5 Q128 401 153.5 374.5 Q179 348 214.5 333 Q250 318 292 318 Q335 318 373 337 Q410 363 431.5 404 Q453 445 453 495 Z " />
<glyph glyph-name="colon" unicode="&#x3a;" horiz-adv-x="277" d="M184 44 Q184 21 169 9 Q154 -3 137 -3 Q120 -3 107 8 Q94 19 94 36 Q94 59 109.5 71 Q125 83 143 83 Q160 83 172 72 Q184 61 184 44 Z M184 409 Q184 386 169 374.5 Q154 363 137 363 Q120 363 107 374 Q94 385 94 402 Q94 424 109.5 436 Q125 448 143 448 Q160 448 172 437.5 Q184 427 184 409 Z " />
<glyph glyph-name="semicolon" unicode="&#x3b;" horiz-adv-x="277" d="M62 -134 Q85 -105 100.5 -70.5 Q116 -36 120 1 Q94 11 94 39 Q94 58 107.5 70.5 Q121 83 139 83 Q161 83 172.5 68 Q184 53 184 30 Q184 -22 158 -68 Q132 -114 92 -147 L62 -134 Z M184 409 Q184 386 169 374.5 Q154 363 137 363 Q120 363 107 374 Q94 385 94 402 Q94 424 109.5 436 Q125 448 143 448 Q160 448 172 437.5 Q184 427 184 409 Z " />
<glyph glyph-name="less" unicode="&#x3c;" horiz-adv-x="556" d="M29 222 L29 278 L527 506 L527 445 L97 250 L527 55 L527 -6 L29 222 Z " />
<glyph glyph-name="equal" unicode="&#x3d;" horiz-adv-x="556" d="M28 365 L528 365 L528 308 L28 308 L28 365 Z M28 192 L528 192 L528 135 L28 135 L28 192 Z " />
<glyph glyph-name="greater" unicode="&#x3e;" horiz-adv-x="556" d="M29 55 L459 250 L29 445 L29 506 L527 278 L527 222 L29 -6 L29 55 Z " />
<glyph glyph-name="question" unicode="&#x3f;" horiz-adv-x="491" d="M211 280 Q211 318 228 342 Q245 366 268 386 Q286 400 305 413.5 Q324 427 340 444 Q356 461 366.5 483.5 Q377 506 377 538 Q377 569 365 597 Q353 625 332.5 645.5 Q312 666 284 678 Q256 690 225 690 Q195 690 165.5 683.5 Q136 677 108 660 Q93 651 80 641 Q67 631 56 621 L40 656 Q63 676 110 705 Q142 723 179.5 733.5 Q217 744 258 744 Q298 744 333 730 Q368 716 394.5 691 Q421 666 436 632.5 Q451 599 451 560 Q451 524 439.5 498 Q428 472 410.5 452 Q393 432 371.5 416.5 Q350 401 330 385 Q308 367 293.5 346 Q279 325 279 294 L279 195 L211 195 L211 280 Z M290 44 Q290 21 275 9 Q260 -3 242 -3 Q225 -3 212.5 8 Q200 19 200 36 Q200 59 215.5 71 Q231 83 248 83 Q265 83 277.5 72 Q290 61 290 44 Z " />
<glyph glyph-name="at" unicode="&#x40;" horiz-adv-x="838" d="M767 130 Q737 97 699 70 Q661 43 618 24.5 Q575 6 527 -4.5 Q479 -15 430 -15 Q349 -15 277.5 14 Q206 43 153.5 93 Q101 143 70.5 211.5 Q40 280 40 359 Q40 439 72.5 509 Q105 579 160.5 631 Q216 683 290 713 Q364 743 446 743 Q522 743 586.5 718.5 Q651 694 698 650 Q745 606 771.5 544.5 Q798 483 798 410 Q798 361 782 315 Q766 269 737 233 Q708 197 666 175 Q624 153 572 153 Q541 153 520.5 171.5 Q500 190 499 230 Q468 196 429 175.5 Q390 155 341 155 Q306 155 280 167.5 Q254 180 236.5 201 Q219 222 210 249.5 Q201 277 201 307 Q201 356 219 405.5 Q237 455 270.5 495 Q304 535 351 560.5 Q398 586 457 586 Q495 586 526 566.5 Q557 547 571 516 L587 570 L635 570 L568 329 Q561 305 553 276.5 Q545 248 545 232 Q545 194 582 194 Q624 194 655.5 211.5 Q687 229 708 258 Q729 287 739.5 324 Q750 361 750 400 Q750 467 726 522.5 Q702 578 659.5 618 Q617 658 558.5 680 Q500 702 430 702 Q357 702 294.5 676 Q232 650 186 605 Q140 560 114 499 Q88 438 88 368 Q88 297 116 234.5 Q144 172 192.5 125.5 Q241 79 306 52 Q371 25 446 25 Q540 25 609 60.5 Q678 96 737 160 L767 130 Z M353 194 Q379 194 404.5 205.5 Q430 217 452.5 237.5 Q475 258 492 285 Q509 312 519 342 Q527 368 534.5 395.5 Q542 423 550 451 Q549 470 542 487.5 Q535 505 522.5 518.5 Q510 532 491.5 540 Q473 548 449 548 Q406 548 370.5 525.5 Q335 503 310 468 Q285 433 271 391 Q257 349 257 310 Q257 259 280.5 226.5 Q304 194 353 194 Z " />
<glyph glyph-name="A" unicode="A" horiz-adv-x="686" d="M304 695 L289 728 L368 728 L691 0 L613 0 L500 254 L171 254 L72 33 L82 0 L-6 0 L304 695 Z M477 307 L334 628 L194 307 L477 307 Z " />
<glyph glyph-name="B" unicode="B" horiz-adv-x="546" d="M70 695 L51 728 L292 728 Q331 728 364 714 Q397 700 422 676 Q447 652 461 619.5 Q475 587 475 550 Q475 502 452.5 463.5 Q430 425 393 404 L378 395 Q374 393 370.5 392 Q367 391 363 389 Q393 381 419 365 Q445 349 464 325.5 Q483 302 493.5 272.5 Q504 243 504 210 Q504 157 478 114 Q452 71 408 45 L376 26 Q354 12 328.5 6 Q303 0 274 0 L70 0 L70 695 Z M304 53 Q337 53 365 67 Q394 89 412 121.5 Q430 154 430 193 Q430 226 417.5 255 Q405 284 383.5 305.5 Q362 327 333 340 Q304 353 271 353 L142 353 L142 53 L304 53 Z M283 404 Q300 403 313.5 405.5 Q327 408 341 416 Q366 431 383 460 Q400 489 402 524 Q402 555 390.5 583 Q379 611 359.5 631 Q340 651 313.5 663 Q287 675 257 675 L142 675 L142 404 L283 404 Z " />
<glyph glyph-name="C" unicode="C" horiz-adv-x="676" d="M642 51 Q631 45 622.5 39.5 Q614 34 604 29 Q561 5 511.5 -5.5 Q462 -16 403 -16 Q325 -16 257 13.5 Q189 43 138.5 93 Q88 143 58.5 210.5 Q29 278 29 354 Q29 405 42.5 452.5 Q56 500 80 541.5 Q104 583 138 616.5 Q172 650 214 674 L247 693 Q289 717 336.5 730.5 Q384 744 435 744 Q492 744 541 732.5 Q590 721 634 700 L609 634 Q565 660 515 675 Q465 690 405 690 Q365 690 326.5 681.5 Q288 673 255 653 Q220 632 192 602 Q164 572 144.5 536 Q125 500 114.5 458.5 Q104 417 104 373 Q104 304 130 243 Q156 182 201.5 136.5 Q247 91 308 64.5 Q369 38 438 38 Q497 38 544 51 Q591 64 636 89 L642 51 Z " />
<glyph glyph-name="D" unicode="D" horiz-adv-x="700" d="M70 695 L51 728 L315 728 Q390 728 455 700 Q520 672 568 624 Q616 576 644 511 Q672 446 672 373 Q672 274 624 194 Q576 114 496 66 L463 48 Q423 25 377.5 12.5 Q332 0 282 0 L70 0 L70 695 Z M311 54 Q350 54 387 62 Q424 70 455 88 Q522 129 560.5 199.5 Q599 270 599 354 Q599 420 574 478 Q549 536 505.5 579.5 Q462 623 403.5 648.5 Q345 674 278 674 L143 674 L143 54 L311 54 Z " />
<glyph glyph-name="E" unicode="E" horiz-adv-x="525" d="M70 695 L51 728 L484 728 L464 674 L143 674 L143 404 L474 404 L454 350 L143 350 L143 54 L494 54 L474 0 L70 0 L70 695 Z " />
<glyph glyph-name="F" unicode="F" horiz-adv-x="512" d="M70 695 L51 728 L477 728 L456 674 L143 674 L143 377 L457 377 L436 323 L143 323 L143 0 L70 0 L70 695 Z " />
<glyph glyph-name="G" unicode="G" horiz-adv-x="776" d="M645 47 Q592 18 533 1 Q474 -16 403 -16 Q325 -16 257 13.5 Q189 43 138.5 93 Q88 143 58.5 210.5 Q29 278 29 354 Q29 405 42.5 452.5 Q56 500 80 541.5 Q104 583 138 616.5 Q172 650 214 674 L247 693 Q289 717 336.5 730.5 Q384 744 435 744 Q513 744 575 723.5 Q637 703 692 665 L667 599 Q614 640 550.5 665 Q487 690 406 690 Q365 690 326.5 681.5 Q288 673 255 653 Q220 632 192 602 Q164 572 144.5 536 Q125 500 114.5 458.5 Q104 417 104 373 Q104 304 130 243 Q156 182 201 136.5 Q246 91 307 64.5 Q368 38 438 38 Q492 38 537 49 Q582 60 623 81 Q631 86 638.5 90.5 Q646 95 653 100 L653 299 L375 299 L396 354 L726 354 L726 97 Q715 89 702.5 81.5 Q690 74 678 66 L645 47 Z " />
<glyph glyph-name="H" unicode="H" horiz-adv-x="680" d="M70 695 L51 728 L143 728 L143 406 L537 406 L537 695 L518 728 L610 728 L610 0 L537 0 L537 349 L143 349 L143 0 L70 0 L70 695 Z " />
<glyph glyph-name="I" unicode="I" horiz-adv-x="223" d="M75 695 L56 728 L148 728 L148 0 L75 0 L75 695 Z " />
<glyph glyph-name="J" unicode="J" horiz-adv-x="259" d="M-47 -93 L-15 -93 Q3 -93 20.5 -89 Q38 -85 54 -79 Q83 -57 100 -24.5 Q117 8 117 47 L117 695 L97 728 L190 728 L190 111 Q190 36 171.5 -15.5 Q153 -67 96 -101 L63 -120 Q41 -133 15.5 -140.5 Q-10 -148 -39 -148 L-47 -93 Z " />
<glyph glyph-name="K" unicode="K" horiz-adv-x="605" d="M70 695 L51 728 L143 728 L143 360 L155 371 L470 695 L466 728 L576 728 L262 403 Q357 315 448 214 Q539 113 608 0 L514 0 Q452 97 371 189 Q290 281 205 359 L143 300 L143 0 L70 0 L70 695 Z " />
<glyph glyph-name="L" unicode="L" horiz-adv-x="471" d="M70 695 L51 728 L143 728 L143 54 L465 54 L444 0 L70 0 L70 695 Z " />
<glyph glyph-name="M" unicode="M" horiz-adv-x="854" d="M70 690 L41 728 L131 728 L428 336 L725 728 L784 728 L784 0 L711 0 L711 613 L435 250 L401 250 L127 611 L127 0 L70 0 L70 690 Z " />
<glyph glyph-name="N" unicode="N" horiz-adv-x="722" d="M70 690 L40 728 L132 728 L594 120 L594 695 L575 728 L652 728 L652 0 L591 0 L128 610 L128 0 L70 0 L70 690 Z " />
<glyph glyph-name="O" unicode="O" horiz-adv-x="835" d="M590 34 Q548 11 501 -2.5 Q454 -16 402 -16 Q324 -16 255.5 13 Q187 42 137 92.5 Q87 143 58 210 Q29 277 29 354 Q29 405 42.5 452.5 Q56 500 80 541 Q104 582 138 616 Q172 650 213 675 L245 693 Q287 718 334.5 731 Q382 744 434 744 Q512 744 580.5 715 Q649 686 699 635.5 Q749 585 778 517.5 Q807 450 807 373 Q807 322 793.5 274 Q780 226 756 185 Q732 144 698 110 Q664 76 623 52 L590 34 Z M582 74 Q616 95 644 125 Q672 155 691.5 191 Q711 227 721.5 268.5 Q732 310 732 354 Q732 423 706.5 484.5 Q681 546 636 591.5 Q591 637 531 663.5 Q471 690 402 690 Q361 690 323 681.5 Q285 673 253 653 Q218 632 190.5 602 Q163 572 144 536 Q125 500 114.5 458.5 Q104 417 104 373 Q104 304 129.5 243 Q155 182 199.5 136.5 Q244 91 304 64.5 Q364 38 434 38 Q475 38 512.5 46 Q550 54 582 74 Z " />
<glyph glyph-name="P" unicode="P" horiz-adv-x="549" d="M70 695 L51 728 L299 728 Q345 728 385.5 710.5 Q426 693 455.5 663.5 Q485 634 502 594.5 Q519 555 519 511 Q519 451 490 402 Q461 353 413 326 L380 307 Q327 276 266 276 L143 276 L143 0 L70 0 L70 695 Z M296 329 Q339 329 372 349 Q407 371 427 409 Q447 447 447 492 Q447 529 432.5 562.5 Q418 596 392.5 620.5 Q367 645 333.5 659.5 Q300 674 263 674 L143 674 L143 329 L296 329 Z " />
<glyph glyph-name="Q" unicode="Q" horiz-adv-x="854" d="M806 -13 Q754 -13 710.5 7 Q667 27 629 57 L606 43 L590 34 Q548 11 501 -2.5 Q454 -16 402 -16 Q324 -16 255.5 13 Q187 42 137 92.5 Q87 143 58 210 Q29 277 29 354 Q29 405 42.5 452.5 Q56 500 80 541 Q104 582 138 616 Q172 650 213 675 L245 693 Q287 718 334.5 731 Q382 744 434 744 Q512 744 580.5 715 Q649 686 699 635.5 Q749 585 778 517.5 Q807 450 807 373 Q807 290 773.5 219 Q740 148 683 97 Q715 73 750.5 56.5 Q786 40 826 37 L806 -13 Z M597 86 Q563 114 530 144 Q497 174 460.5 198 Q424 222 381.5 237.5 Q339 253 287 253 Q262 253 234.5 248 Q207 243 178 234 L193 283 Q225 294 256.5 299 Q288 304 317 304 Q371 304 415 288.5 Q459 273 496.5 248.5 Q534 224 569 194 Q604 164 640 134 Q683 176 707.5 233 Q732 290 732 354 Q732 423 706.5 484.5 Q681 546 636 591.5 Q591 637 531 663.5 Q471 690 402 690 Q361 690 323 681.5 Q285 673 253 653 Q218 632 190.5 602 Q163 572 144 536 Q125 500 114.5 458.5 Q104 417 104 373 Q104 304 129.5 243 Q155 182 199.5 136.5 Q244 91 304 64.5 Q364 38 434 38 Q472 38 507.5 46.5 Q543 55 573 72 L597 86 Z " />
<glyph glyph-name="R" unicode="R" horiz-adv-x="557" d="M70 695 L51 728 L299 728 Q343 728 381 712 Q419 696 447.5 668 Q476 640 492 602.5 Q508 565 508 522 Q508 465 480.5 419.5 Q453 374 407 347 L389 335 Q354 313 304 313 L564 0 L472 0 L226 302 L143 302 L143 0 L70 0 L70 695 Z M295 353 Q312 352 328.5 355.5 Q345 359 360 365 Q392 386 411.5 419.5 Q431 453 435 497 Q435 534 422 566 Q409 598 386 622 Q363 646 332 660 Q301 674 264 674 L143 674 L143 353 L295 353 Z " />
<glyph glyph-name="S" unicode="S" horiz-adv-x="504" d="M340 12 Q288 -16 232 -16 Q179 -16 128.5 1 Q78 18 36 51 L61 117 Q104 78 155 57.5 Q206 37 264 37 Q294 37 319 49 Q344 61 361.5 81.5 Q379 102 388.5 128 Q398 154 398 182 Q398 224 384 251 Q370 278 347 295.5 Q324 313 294 324.5 Q264 336 232 346 Q197 357 163 370 Q129 383 102.5 404 Q76 425 59.5 456.5 Q43 488 43 536 Q43 589 68.5 632 Q94 675 136 699 L170 718 Q213 744 267 744 Q317 744 364 727.5 Q411 711 449 681 L423 615 Q385 650 337.5 670 Q290 690 237 690 Q210 690 187.5 679 Q165 668 149 649.5 Q133 631 124.5 607 Q116 583 116 558 Q116 519 129.5 493.5 Q143 468 166 451.5 Q189 435 218.5 424 Q248 413 281 403 Q316 392 350 378.5 Q384 365 411 343.5 Q438 322 455 288.5 Q472 255 472 205 Q472 151 446.5 104 Q421 57 372 30 L340 12 Z " />
<glyph glyph-name="T" unicode="T" horiz-adv-x="555" d="M241 673 L7 673 L28 728 L547 728 L527 673 L314 673 L314 0 L241 0 L241 673 Z " />
<glyph glyph-name="U" unicode="U" horiz-adv-x="667" d="M484 26 Q447 6 406.5 -5 Q366 -16 314 -16 Q262 -16 217 2.5 Q172 21 138.5 53 Q105 85 86 128 Q67 171 67 220 L67 695 L48 728 L140 728 L140 242 Q140 200 156.5 163 Q173 126 201 98.5 Q229 71 267 55 Q305 39 348 39 Q384 39 413 45.5 Q442 52 468 66 Q482 73 496 82 Q510 91 524 101 L524 695 L505 728 L597 728 L597 98 Q576 83 555.5 69.5 Q535 56 517 45 L484 26 Z " />
<glyph glyph-name="V" unicode="V" horiz-adv-x="647" d="M-8 728 L71 728 L333 107 L581 695 L571 728 L656 728 L350 0 L298 0 L-8 728 Z " />
<glyph glyph-name="W" unicode="W" horiz-adv-x="961" d="M-8 728 L71 728 L333 107 L450 385 L306 728 L385 728 L646 107 L894 695 L884 728 L969 728 L663 0 L612 0 L480 312 L350 0 L298 0 L-8 728 Z " />
<glyph glyph-name="X" unicode="X" horiz-adv-x="607" d="M261 375 L16 728 L102 728 L311 428 L495 695 L490 728 L587 728 L345 380 L608 0 L521 0 L295 326 L70 0 L0 0 L261 375 Z " />
<glyph glyph-name="Y" unicode="Y" horiz-adv-x="604" d="M268 292 L0 728 L88 728 L314 360 L519 695 L511 728 L604 728 L341 299 L341 0 L268 0 L268 292 Z " />
<glyph glyph-name="Z" unicode="Z" horiz-adv-x="565" d="M18 28 L441 673 L32 673 L52 728 L541 728 L541 700 L117 54 L550 54 L529 0 L18 0 L18 28 Z " />
<glyph glyph-name="bracketleft" unicode="&#x5b;" horiz-adv-x="333" d="M113 728 L314 728 L314 683 L178 683 L178 -145 L314 -145 L314 -190 L113 -190 L113 728 Z " />
<glyph glyph-name="backslash" unicode="&#x5c;" horiz-adv-x="388" d="M-2 744 L41 744 L391 -16 L349 -16 L-2 744 Z " />
<glyph glyph-name="bracketright" unicode="&#x5d;" horiz-adv-x="333" d="M18 -145 L155 -145 L155 683 L18 683 L18 728 L220 728 L220 -190 L18 -190 L18 -145 Z " />
<glyph glyph-name="asciicircum" unicode="&#x5e;" horiz-adv-x="556" d="M251 704 L305 704 L524 417 L460 417 L278 645 L96 417 L32 417 L251 704 Z " />
<glyph glyph-name="underscore" unicode="&#x5f;" horiz-adv-x="500" d="M0 -110 L500 -110 L500 -141 L0 -141 L0 -110 Z " />
<glyph glyph-name="grave" unicode="&#x60;" horiz-adv-x="500" d="M139 693 L193 713 L301 556 L264 541 L139 693 Z " />
<glyph glyph-name="a" unicode="a" horiz-adv-x="475" d="M427 -4 Q380 -4 359.5 12.5 Q339 29 334 67 Q322 54 304.5 41.5 Q287 29 273 21 L259 12 Q217 -12 175 -12 Q146 -12 119.5 -3 Q93 6 73 22.5 Q53 39 41.5 63.5 Q30 88 30 120 Q30 165 49.5 196 Q69 227 103 247 L135 265 Q171 286 220.5 295.5 Q270 305 327 307 Q327 316 327 325.5 Q327 335 326 347 Q323 398 291.5 422 Q260 446 212 446 Q177 446 144.5 436.5 Q112 427 86 413 L74 444 Q89 453 107 462 Q135 475 171.5 485.5 Q208 496 250 496 Q280 496 307 488 Q334 480 354 463.5 Q374 447 386 421.5 Q398 396 398 362 L398 117 Q398 79 411 61.5 Q424 44 466 44 L469 44 L449 -4 L427 -4 Z M328 265 Q275 263 227 257.5 Q179 252 141 232 Q121 216 109.5 194 Q98 172 98 140 Q98 91 134 63.5 Q170 36 221 36 Q233 36 247.5 41.5 Q262 47 276.5 57 Q291 67 304.5 80 Q318 93 328 108 L328 265 Z " />
<glyph glyph-name="b" unicode="b" horiz-adv-x="557" d="M64 681 L46 712 L134 739 L134 439 Q169 462 204.5 478 Q240 494 283 495 Q297 496 310.5 495 Q324 494 338 491 Q378 483 413.5 461.5 Q449 440 475 408.5 Q501 377 516 337 Q531 297 531 251 Q531 192 507.5 143.5 Q484 95 445 63 Q397 22 347 5 Q297 -12 260 -12 Q203 -12 156 10 Q109 32 64 64 L64 681 Z M134 101 Q161 73 198 56.5 Q235 40 278 39 Q291 39 303.5 40.5 Q316 42 328 44 Q359 51 383.5 69 Q408 87 425 112.5 Q442 138 451 168.5 Q460 199 460 232 Q460 277 443.5 316 Q427 355 399 384 Q371 413 333 429.5 Q295 446 252 446 Q216 446 188.5 434.5 Q161 423 134 396 L134 101 Z " />
<glyph glyph-name="c" unicode="c" horiz-adv-x="475" d="M441 36 Q403 14 363 1 Q323 -12 276 -12 Q223 -12 177.5 7 Q132 26 98.5 59 Q65 92 45.5 136.5 Q26 181 26 232 Q26 301 59.5 356.5 Q93 412 148 444 L180 462 Q208 478 240 487 Q272 496 306 496 Q344 496 375.5 488.5 Q407 481 437 467 L414 408 Q384 427 350.5 436.5 Q317 446 278 446 Q254 446 231 441 Q208 436 189 424 Q146 398 122 352 Q98 306 98 251 Q98 207 114.5 168.5 Q131 130 160 101 Q189 72 227 55.5 Q265 39 309 39 Q342 39 373 46 Q404 53 439 69 L441 36 Z " />
<glyph glyph-name="d" unicode="d" horiz-adv-x="557" d="M425 46 L395 27 L380 19 Q327 -12 266 -12 Q217 -12 173.5 6.5 Q130 25 97 58 Q64 91 45 135.5 Q26 180 26 232 Q26 303 59.5 358.5 Q93 414 147 445 L178 464 Q204 480 234.5 488 Q265 496 297 496 Q333 496 365.5 485 Q398 474 423 454 L423 681 L406 712 L493 739 L493 0 L425 0 L425 46 Z M423 380 Q395 410 356.5 428 Q318 446 273 446 Q250 446 227.5 441 Q205 436 188 425 Q146 398 122 351.5 Q98 305 98 251 Q98 206 114.5 167 Q131 128 159 99.5 Q187 71 224.5 55 Q262 39 305 39 Q337 39 367.5 50 Q398 61 423 86 L423 380 Z " />
<glyph glyph-name="e" unicode="e" horiz-adv-x="540" d="M496 77 Q485 67 463.5 52 Q442 37 413 22.5 Q384 8 348.5 -2 Q313 -12 274 -12 Q223 -12 177.5 6.5 Q132 25 98.5 58 Q65 91 45.5 135.5 Q26 180 26 232 Q26 304 59 359.5 Q92 415 146 447 L176 465 Q229 496 291 496 Q336 496 376 478.5 Q416 461 446 429.5 Q476 398 493.5 355.5 Q511 313 511 264 L511 242 L98 242 Q98 200 115 163 Q132 126 160.5 98.5 Q189 71 227 54.5 Q265 38 308 38 Q335 38 355 40.5 Q375 43 393.5 50.5 Q412 58 432 71.5 Q452 85 479 108 L496 77 Z M447 288 Q443 322 427.5 351 Q412 380 388 401 Q364 422 332.5 434 Q301 446 266 446 Q244 446 223 442 Q202 438 185 427 Q150 405 128 369 Q106 333 100 288 L447 288 Z " />
<glyph glyph-name="f" unicode="f" horiz-adv-x="308" d="M90 434 L-8 434 L11 484 L90 484 L90 554 Q90 605 104.5 642 Q119 679 163 704 L187 717 Q210 730 232 734.5 Q254 739 289 739 L300 687 Q274 687 248.5 686.5 Q223 686 197 677 Q173 659 166.5 634.5 Q160 610 160 574 L160 484 L295 484 L295 434 L160 434 L160 0 L90 0 L90 434 Z " />
<glyph glyph-name="g" unicode="g" horiz-adv-x="461" d="M345 -168 Q292 -201 208 -201 Q158 -201 123 -190 Q88 -179 65.5 -161.5 Q43 -144 33 -121.5 Q23 -99 23 -76 Q23 -51 32 -32 Q41 -13 61.5 4.5 Q82 22 116 39 Q150 56 201 76 Q193 83 188 91.5 Q183 100 183 111 Q183 125 194.5 137.5 Q206 150 225 163 Q219 161 211 161 Q203 161 195 161 Q130 169 92 202.5 Q54 236 45 290 Q42 306 42 323 Q44 369 66.5 401.5 Q89 434 125 457 L151 472 Q170 483 190.5 489 Q211 495 234 496 Q242 496 249.5 495.5 Q257 495 265 494 Q284 491 301 484 L441 484 L441 437 L355 437 Q378 418 391.5 392 Q405 366 405 336 Q405 298 388.5 268 Q372 238 345 216 Q326 199 308 187 Q290 175 276 166 Q262 157 253.5 149 Q245 141 245 133 Q245 120 257 111 Q269 102 287.5 94.5 Q306 87 328.5 79.5 Q351 72 372 61 Q393 50 410 34 Q427 18 434 -6 Q436 -14 438 -24 Q440 -34 439 -45 Q438 -80 420.5 -107 Q403 -134 373 -152 L345 -168 Z M227 58 Q176 35 140 14 Q104 -7 94 -33 Q92 -40 91 -45.5 Q90 -51 90 -58 Q90 -75 98.5 -92 Q107 -109 125 -122.5 Q143 -136 170.5 -145 Q198 -154 237 -154 Q247 -154 256.5 -153.5 Q266 -153 274 -152 Q313 -147 335.5 -131.5 Q358 -116 366 -90 Q371 -74 370 -61 Q369 -30 355 -11.5 Q341 7 319.5 19 Q298 31 273.5 39.5 Q249 48 227 58 Z M339 316 Q339 343 329.5 367.5 Q320 392 303 410 Q286 428 263 438.5 Q240 449 213 450 Q199 451 185 447.5 Q171 444 158 439 Q122 412 111 366 Q109 358 108.5 350 Q108 342 108 334 Q108 308 118 285 Q128 262 145.5 244.5 Q163 227 185.5 216.5 Q208 206 234 205 Q248 204 261.5 207.5 Q275 211 288 216 Q311 231 325 259 Q339 287 339 316 Z " />
<glyph glyph-name="h" unicode="h" horiz-adv-x="529" d="M64 681 L46 712 L134 739 L134 417 Q146 428 162 439.5 Q178 451 190 458 L205 467 Q231 482 258.5 489 Q286 496 312 496 Q344 496 373 485.5 Q402 475 424 455 Q446 435 459 405.5 Q472 376 472 339 L472 0 L402 0 L402 318 Q402 349 391.5 373 Q381 397 363.5 413 Q346 429 322 437.5 Q298 446 271 446 Q231 446 192 426 Q178 418 163.5 404.5 Q149 391 134 375 L134 0 L64 0 L64 681 Z " />
<glyph glyph-name="i" unicode="i" horiz-adv-x="197" d="M92 568 Q75 568 63.5 579 Q52 590 52 607 Q52 627 67.5 638 Q83 649 102 649 Q118 649 129.5 638 Q141 627 141 609 Q141 589 125 578.5 Q109 568 92 568 Z M64 439 L46 470 L134 496 L134 0 L64 0 L64 439 Z " />
<glyph glyph-name="j" unicode="j" horiz-adv-x="207" d="M151 609 Q151 589 135 578.5 Q119 568 101 568 Q84 568 72.5 579 Q61 590 61 607 Q61 627 76.5 638 Q92 649 110 649 Q127 649 139 638 Q151 627 151 609 Z M-41 -149 Q-34 -149 -23.5 -148.5 Q-13 -148 -2.5 -147 Q8 -146 18 -144 Q28 -142 34 -139 Q57 -125 65.5 -99 Q74 -73 74 -48 L74 439 L55 470 L144 496 L144 -12 Q144 -62 131.5 -99.5 Q119 -137 77 -161 Q46 -178 23 -188.5 Q0 -199 -34 -199 L-41 -149 Z " />
<glyph glyph-name="k" unicode="k" horiz-adv-x="457" d="M64 681 L46 712 L134 739 L134 250 L148 264 L336 456 L329 484 L432 484 L230 275 Q296 214 356 145.5 Q416 77 463 0 L375 0 Q335 63 284 122 Q233 181 176 234 L134 197 L134 0 L64 0 L64 681 Z " />
<glyph glyph-name="l" unicode="l" horiz-adv-x="197" d="M64 681 L46 712 L134 739 L134 0 L64 0 L64 681 Z " />
<glyph glyph-name="m" unicode="m" horiz-adv-x="759" d="M64 439 L46 470 L133 496 L133 422 Q142 433 155 446 Q168 459 185.5 469.5 Q203 480 224.5 487 Q246 494 273 494 Q295 497 318 491 Q348 483 371 463.5 Q394 444 405 415 Q434 450 477 473 Q520 496 565 496 Q592 496 617 487 Q642 478 661 460.5 Q680 443 691 418 Q702 393 702 361 L702 0 L631 0 L631 340 Q631 388 601 417 Q571 446 527 446 Q491 446 464 427 Q437 408 418 376 L418 0 L349 0 L349 340 Q349 364 340.5 383.5 Q332 403 317.5 417 Q303 431 283.5 438.5 Q264 446 242 446 Q205 446 178.5 426.5 Q152 407 133 376 L133 0 L64 0 L64 439 Z " />
<glyph glyph-name="n" unicode="n" horiz-adv-x="529" d="M64 439 L46 473 L133 496 L133 416 Q145 427 160 438 Q175 449 188 457 L202 466 Q257 496 312 496 Q344 496 373 485.5 Q402 475 424 455 Q446 435 459 405.5 Q472 376 472 339 L472 0 L402 0 L402 318 Q402 349 391.5 373 Q381 397 363.5 413 Q346 429 322 437.5 Q298 446 271 446 Q228 446 195.5 426.5 Q163 407 134 375 L134 0 L64 0 L64 439 Z " />
<glyph glyph-name="o" unicode="o" horiz-adv-x="576" d="M398 21 Q370 5 338 -3.5 Q306 -12 272 -12 Q222 -12 177.5 6.5 Q133 25 99 57.5 Q65 90 45.5 134.5 Q26 179 26 232 Q26 303 59.5 358 Q93 413 147 445 L178 463 Q206 479 238 487.5 Q270 496 304 496 Q354 496 399 477.5 Q444 459 477.5 426.5 Q511 394 530.5 349 Q550 304 550 251 Q550 181 517 126 Q484 71 430 39 L398 21 Z M390 58 Q431 87 455.5 132.5 Q480 178 480 232 Q480 276 464 315 Q448 354 419.5 383 Q391 412 353 429 Q315 446 272 446 Q249 446 227.5 441.5 Q206 437 187 425 Q145 399 121.5 352 Q98 305 98 251 Q98 207 114 168.5 Q130 130 157.5 101 Q185 72 222.5 55.5 Q260 39 304 39 Q349 39 390 58 Z " />
<glyph glyph-name="p" unicode="p" horiz-adv-x="557" d="M64 439 L46 470 L133 496 L133 438 Q162 463 203 478.5 Q244 494 283 495 Q308 496 332 492 Q374 485 410 464 Q446 443 473 411.5 Q500 380 515.5 339 Q531 298 531 251 Q531 180 497.5 125 Q464 70 410 38 L379 20 Q353 4 322.5 -4 Q292 -12 260 -12 Q225 -12 192.5 -1 Q160 10 134 30 L134 -197 L64 -197 L64 439 Z M134 102 Q161 73 198 57 Q235 41 278 40 Q291 39 303.5 40.5 Q316 42 328 44 Q359 51 383.5 69 Q408 87 425 112.5 Q442 138 451 168.5 Q460 199 460 232 Q460 277 443.5 316 Q427 355 399 384 Q371 413 333 429.5 Q295 446 252 446 Q216 446 188.5 434.5 Q161 423 134 396 L134 102 Z " />
<glyph glyph-name="q" unicode="q" horiz-adv-x="557" d="M423 44 Q395 21 354 5.5 Q313 -10 273 -11 Q249 -11 225 -8 Q183 -1 146.5 20 Q110 41 83.5 72.5 Q57 104 41.5 144.5 Q26 185 26 232 Q26 303 59.5 358.5 Q93 414 147 445 L178 464 Q204 479 234.5 487.5 Q265 496 297 496 Q335 496 374.5 483.5 Q414 471 439 448 L444 481 L493 496 L493 -197 L423 -197 L423 44 Z M423 380 Q396 409 359 426.5 Q322 444 279 445 Q266 445 253.5 444.5 Q241 444 229 441 Q205 436 188 425 Q146 398 122 351.5 Q98 305 98 251 Q98 207 114 169 Q130 131 157 102.5 Q184 74 220.5 57.5 Q257 41 298 40 Q371 39 423 86 L423 380 Z " />
<glyph glyph-name="r" unicode="r" horiz-adv-x="336" d="M64 439 L46 470 L133 496 L133 422 Q144 434 159 447 Q174 460 188 468 L202 476 Q220 487 241 491.5 Q262 496 285 496 Q315 496 338 484 L320 425 L298 433 Q285 438 271.5 440.5 Q258 443 244 443 Q215 443 185 429 Q171 418 158 404 Q145 390 134 373 L134 0 L64 0 L64 439 Z " />
<glyph glyph-name="s" unicode="s" horiz-adv-x="375" d="M245 7 Q211 -12 171 -12 Q136 -12 102.5 -1 Q69 10 41 32 L64 92 Q92 69 126 53.5 Q160 38 196 38 Q231 38 253 61.5 Q275 85 275 119 Q275 147 265 165 Q255 183 238.5 194.5 Q222 206 200.5 213 Q179 220 157 227 Q136 234 115 242.5 Q94 251 77.5 264.5 Q61 278 51 299 Q41 320 41 351 Q41 385 57.5 414 Q74 443 104 460 L131 475 Q147 484 165.5 490 Q184 496 204 496 Q237 496 267.5 485 Q298 474 323 457 L301 399 Q277 419 246.5 432.5 Q216 446 184 446 Q176 446 165 444 Q154 442 146 438 Q129 430 119.5 410 Q110 390 110 370 Q110 345 119.5 328.5 Q129 312 144.5 301.5 Q160 291 179 284.5 Q198 278 218 272 Q242 264 265 255 Q288 246 305.5 232 Q323 218 333.5 196 Q344 174 344 141 Q344 101 324.5 70.5 Q305 40 272 22 L245 7 Z " />
<glyph glyph-name="t" unicode="t" horiz-adv-x="308" d="M237 -4 Q191 -4 161.5 9 Q132 22 115 44.5 Q98 67 91.5 98 Q85 129 85 165 L85 434 L-13 434 L6 484 L85 484 L85 625 L155 654 L155 484 L290 484 L290 434 L155 434 L155 152 Q155 108 186 77 Q217 46 270 46 L293 46 L274 -4 L237 -4 Z " />
<glyph glyph-name="u" unicode="u" horiz-adv-x="529" d="M397 68 Q386 56 370.5 45 Q355 34 343 26 L328 18 Q274 -12 219 -12 Q187 -12 158 -1.5 Q129 9 107 28.5 Q85 48 72 77 Q59 106 59 144 L59 439 L41 470 L129 496 L129 165 Q129 135 139.5 111.5 Q150 88 167.5 72 Q185 56 208.5 47.5 Q232 39 259 39 Q299 39 338 59 Q352 68 366.5 80.5 Q381 93 395 110 L395 439 L378 470 L465 496 L465 0 L397 0 L397 68 Z " />
<glyph glyph-name="v" unicode="v" horiz-adv-x="458" d="M1 484 L76 484 L238 101 L385 453 L376 484 L457 484 L254 0 L205 0 L1 484 Z " />
<glyph glyph-name="w" unicode="w" horiz-adv-x="674" d="M1 484 L76 484 L238 101 L309 269 L218 484 L293 484 L455 101 L602 453 L593 484 L673 484 L470 0 L422 0 L338 199 L254 0 L205 0 L1 484 Z " />
<glyph glyph-name="x" unicode="x" horiz-adv-x="459" d="M187 249 L14 484 L98 484 L235 300 L350 453 L344 484 L439 484 L268 253 L455 0 L370 0 L221 204 L70 0 L4 0 L187 249 Z " />
<glyph glyph-name="y" unicode="y" horiz-adv-x="460" d="M201 11 L1 484 L77 484 L239 101 L388 453 L379 484 L459 484 L173 -197 L110 -197 L201 11 Z " />
<glyph glyph-name="z" unicode="z" horiz-adv-x="428" d="M20 26 L310 434 L28 434 L48 484 L404 484 L404 457 L116 51 L415 51 L395 0 L20 0 L20 26 Z " />
<glyph glyph-name="braceleft" unicode="&#x7b;" horiz-adv-x="374" d="M302 -190 Q235 -190 192.5 -155 Q150 -120 150 -56 L150 104 Q150 131 147.5 151.5 Q145 172 136.5 188.5 Q128 205 112.5 219 Q97 233 70 247 L70 291 Q97 304 112.5 318.5 Q128 333 136.5 349.5 Q145 366 147.5 386.5 Q150 407 150 434 L150 594 Q150 657 192.5 692.5 Q235 728 302 728 L302 683 Q253 683 233.5 653.5 Q214 624 214 581 L214 426 Q214 396 209 373 Q204 350 193.5 332 Q183 314 166 299 Q149 284 125 270 L125 267 Q149 253 166 238 Q183 223 193.5 205 Q204 187 209 164 Q214 141 214 110 L214 -43 Q214 -86 233.5 -115.5 Q253 -145 302 -145 L302 -190 Z " />
<glyph glyph-name="bar" unicode="&#x7c;" horiz-adv-x="500" d="M220 800 L280 800 L280 -200 L220 -200 L220 800 Z " />
<glyph glyph-name="braceright" unicode="&#x7d;" horiz-adv-x="374" d="M70 -145 Q119 -145 139 -115.5 Q159 -86 159 -43 L159 110 Q159 141 163.5 164 Q168 187 178.5 205 Q189 223 206 238 Q223 253 247 267 L247 270 Q223 284 206 299 Q189 314 178.5 332 Q168 350 163.5 373 Q159 396 159 426 L159 581 Q159 624 139 653.5 Q119 683 70 683 L70 728 Q139 728 181.5 692.5 Q224 657 224 594 L224 434 Q224 407 226.5 386.5 Q229 366 237 349.5 Q245 333 260.5 318.5 Q276 304 302 291 L302 247 Q276 233 260.5 219 Q245 205 237 188.5 Q229 172 226.5 151.5 Q224 131 224 104 L224 -56 Q224 -120 181.5 -155 Q139 -190 70 -190 L70 -145 Z " />
<glyph glyph-name="asciitilde" unicode="&#x7e;" horiz-adv-x="556" d="M22 183 Q26 205 36 229 Q46 253 62 272 Q78 291 99 303.5 Q120 316 146 316 Q176 316 208.5 304.5 Q241 293 275 279 Q309 265 343.5 253.5 Q378 242 412 242 Q445 242 465.5 265 Q486 288 494 317 L534 317 Q529 294 519 271 Q509 248 493.5 228.5 Q478 209 457.5 197 Q437 185 410 185 Q382 185 349 196.5 Q316 208 281.5 221.5 Q247 235 212 246.5 Q177 258 144 258 Q112 258 91 235 Q70 212 62 183 L22 183 Z " />
<glyph glyph-name="uni00A0" unicode="&#xa0;" d="" />
<glyph glyph-name="exclamdown" unicode="&#xa1;" horiz-adv-x="283" d="M109 300 L173 300 L178 -233 L104 -233 L109 300 Z M186 459 Q186 436 171 424 Q156 412 139 412 Q122 412 109 423 Q96 434 96 451 Q96 474 111.5 485.5 Q127 497 145 497 Q162 497 174 486.5 Q186 476 186 459 Z " />
<glyph glyph-name="cent" unicode="&#xa2;" horiz-adv-x="554" d="M292 235 Q241 237 197.5 256.5 Q154 276 122 309 Q90 342 71.5 385.5 Q53 429 53 479 Q53 547 86.5 602.5 Q120 658 175 690 L206 709 Q226 720 247.5 727.5 Q269 735 292 739 L292 805 L341 805 L341 743 Q376 742 405.5 735 Q435 728 463 714 L440 655 Q397 682 341 690 L341 285 Q373 286 403 293 Q433 300 466 316 L467 283 Q437 266 406.5 254 Q376 242 341 237 L341 173 L292 173 L292 235 Z M124 498 Q124 460 136.5 425 Q149 390 171.5 362.5 Q194 335 225 315.5 Q256 296 292 289 L292 692 Q271 690 252 685.5 Q233 681 216 671 Q172 645 148 598.5 Q124 552 124 498 Z " />
<glyph glyph-name="sterling" unicode="&#xa3;" horiz-adv-x="554" d="M34 24 L53 34 Q59 39 63 40.5 Q67 42 72 46 Q110 73 132 113.5 Q154 154 154 204 Q154 228 148.5 250.5 Q143 273 134 295 L55 295 L55 338 L114 338 Q103 361 91.5 384 Q80 407 70 429.5 Q60 452 54 475 Q48 498 48 521 Q48 578 75 623.5 Q102 669 148 696 L181 716 Q204 729 231 736.5 Q258 744 288 744 Q354 744 403 721 Q452 698 496 664 L460 607 Q417 643 369 667 Q321 691 258 692 Q241 692 223 688.5 Q205 685 190 676 Q176 668 163.5 653.5 Q151 639 141.5 621 Q132 603 126 582.5 Q120 562 120 541 Q120 515 127.5 490 Q135 465 146.5 440 Q158 415 171 389.5 Q184 364 196 338 L419 338 L419 295 L210 295 Q217 275 221 256 Q225 237 224 217 Q222 168 200.5 127 Q179 86 144 60 Q158 63 172 65 Q186 67 203 67 Q226 67 244.5 62.5 Q263 58 281 53 Q299 48 317.5 43.5 Q336 39 358 39 Q382 39 401.5 46 Q421 53 439 65 Q457 77 473.5 93 Q490 109 507 127 L531 94 Q512 72 488.5 52 Q465 32 427 9 Q407 -2 382.5 -9 Q358 -16 331 -16 Q306 -16 285 -11 Q264 -6 243.5 0 Q223 6 201.5 11 Q180 16 155 16 Q141 16 129 14.5 Q117 13 105 10 Q93 7 79 3 Q65 -1 47 -7 L34 24 Z " />
<glyph glyph-name="currency" unicode="&#xa4;" horiz-adv-x="554" d="M59 158 L114 215 Q94 241 82 273.5 Q70 306 70 342 Q70 379 82 411.5 Q94 444 114 470 L59 526 L93 561 L149 505 Q175 526 207.5 538 Q240 550 277 550 Q314 550 347 538 Q380 526 406 505 L463 561 L495 526 L439 470 Q460 444 472 411.5 Q484 379 484 342 Q484 306 472 273.5 Q460 241 439 215 L495 158 L463 124 L406 180 Q380 159 347 147 Q314 135 277 135 Q240 135 207.5 147 Q175 159 149 180 L93 124 L59 158 Z M438 342 Q438 375 425.5 404.5 Q413 434 391 456 Q369 478 339.5 490.5 Q310 503 277 503 Q244 503 214.5 490.5 Q185 478 163 456 Q141 434 128.5 404.5 Q116 375 116 342 Q116 309 128.5 279.5 Q141 250 163 228.5 Q185 207 214.5 194.5 Q244 182 277 182 Q310 182 339.5 194.5 Q369 207 391 228.5 Q413 250 425.5 279.5 Q438 309 438 342 Z " />
<glyph glyph-name="yen" unicode="&#xa5;" horiz-adv-x="554" d="M244 246 L49 246 L49 299 L244 299 L182 407 L49 407 L49 460 L153 460 L0 728 L83 728 L288 371 L471 695 L464 728 L555 728 L404 460 L507 460 L507 407 L376 407 L316 299 L507 299 L507 246 L316 246 L316 0 L244 0 L244 246 Z " />
<glyph glyph-name="brokenbar" unicode="&#xa6;" horiz-adv-x="500" d="M220 757 L280 757 L280 423 L220 423 L220 757 Z M220 256 L280 256 L280 -77 L220 -77 L220 256 Z " />
<glyph glyph-name="section" unicode="&#xa7;" horiz-adv-x="554" d="M344 -109 Q325 -119 304 -126 Q283 -133 260 -133 Q209 -133 169.5 -116 Q130 -99 101 -73 L133 -16 Q165 -48 206 -65 Q247 -82 290 -82 Q310 -82 327 -73 Q344 -64 357 -49 Q370 -34 377 -15 Q384 4 384 25 Q384 55 374.5 74.5 Q365 94 348.5 107 Q332 120 308.5 129 Q285 138 257 147 Q223 157 189 168.5 Q155 180 127.5 198 Q100 216 83 242.5 Q66 269 66 310 Q66 333 74.5 354.5 Q83 376 96 395 Q109 414 125.5 429 Q142 444 159 455 Q104 501 104 565 Q104 609 124 646 Q144 683 181 704 L211 721 Q231 732 251 737.5 Q271 743 295 744 Q346 744 385.5 727 Q425 710 454 684 L423 629 Q393 658 351 675.5 Q309 693 265 693 Q245 693 227.5 684.5 Q210 676 197.5 661 Q185 646 178 627 Q171 608 171 587 Q171 557 182 536.5 Q193 516 211 502 Q229 488 252.5 478.5 Q276 469 302 461 Q334 451 367.5 440.5 Q401 430 428.5 413 Q456 396 473.5 369.5 Q491 343 491 301 Q491 255 462 216.5 Q433 178 394 155 Q419 139 435.5 112 Q452 85 452 46 Q452 10 433.5 -29 Q415 -68 374 -93 L344 -109 Z M422 284 Q422 326 398 348.5 Q374 371 339.5 384 Q305 397 266 406.5 Q227 416 196 432 Q171 414 152 386.5 Q133 359 133 327 Q133 286 157 263.5 Q181 241 216 227 Q251 213 289.5 203 Q328 193 358 178 Q381 194 401.5 220 Q422 246 422 284 Z " />
<glyph glyph-name="dieresis" unicode="&#xa8;" horiz-adv-x="500" d="M378 603 Q378 586 366 575 Q354 564 338 564 Q321 564 310 575 Q299 586 299 603 Q299 618 310.5 630.5 Q322 643 338 643 Q354 643 366 631 Q378 619 378 603 Z M201 603 Q201 586 189.5 575 Q178 564 162 564 Q145 564 133.5 575 Q122 586 122 603 Q122 618 134 630.5 Q146 643 162 643 Q178 643 189.5 631 Q201 619 201 603 Z " />
<glyph glyph-name="copyright" unicode="&#xa9;" horiz-adv-x="844" d="M604 35 Q560 10 514 -2.5 Q468 -15 416 -15 Q338 -15 269.5 14 Q201 43 150 94 Q99 145 69.5 213 Q40 281 40 359 Q40 411 53.5 459.5 Q67 508 91.5 550 Q116 592 150.5 626.5 Q185 661 227 685 L243 694 Q285 717 332 730.5 Q379 744 430 744 Q508 744 576.5 714.5 Q645 685 695.5 634 Q746 583 775.5 514.5 Q805 446 805 368 Q805 316 791.5 268 Q778 220 754 178 Q730 136 695.5 102 Q661 68 619 43 L604 35 Z M757 359 Q757 430 730 492.5 Q703 555 657 601.5 Q611 648 548.5 675 Q486 702 416 702 Q325 702 251 659 Q177 615 132.5 538.5 Q88 462 88 368 Q88 297 115 235 Q142 173 188.5 126.5 Q235 80 297 53.5 Q359 27 430 27 Q521 27 594 68 Q668 113 712.5 189 Q757 265 757 359 Z M594 197 Q586 192 578 188 Q570 184 562 180 Q536 166 507 160.5 Q478 155 443 155 Q396 155 355.5 171 Q315 187 285 214.5 Q255 242 237.5 278.5 Q220 315 220 356 Q220 412 250 458.5 Q280 505 329 531 L357 545 Q382 558 410 565.5 Q438 573 469 573 Q504 573 532 567 Q560 561 586 550 L567 497 Q541 512 511 521 Q481 530 444 530 Q423 530 402.5 526 Q382 522 365 513 Q326 491 304 453 Q282 415 282 372 Q282 336 297 304.5 Q312 273 337.5 249.5 Q363 226 397.5 212.5 Q432 199 472 199 Q507 199 534.5 206 Q562 213 589 227 L594 197 Z " />
<glyph glyph-name="ordfeminine" unicode="&#xaa;" horiz-adv-x="318" d="M275 431 Q246 431 232 440.5 Q218 450 214 471 Q206 464 195 457 Q184 450 176 445 L167 440 Q141 426 115 426 Q77 426 50 446.5 Q23 467 23 505 Q23 532 35.5 551 Q48 570 69 581 L96 596 Q116 608 145.5 613 Q175 618 208 620 Q208 625 208 630 Q208 635 207 641 Q205 667 186 680 Q167 693 140 693 Q117 693 97 687.5 Q77 682 60 673 L50 697 Q63 706 77 712 Q96 720 119.5 727 Q143 734 171 734 Q210 734 238 714 Q266 694 266 652 L266 512 Q266 489 274 479.5 Q282 470 308 470 L309 470 L294 431 L275 431 Z M209 588 Q179 588 152 585 Q125 582 102 572 Q78 554 79 523 Q80 495 100.5 479.5 Q121 464 151 464 Q164 464 181 474.5 Q198 485 209 501 L209 588 Z M23 374 L303 374 L303 334 L23 334 L23 374 Z " />
<glyph glyph-name="guillemotleft" unicode="&#xab;" horiz-adv-x="372" d="M173 232 L316 436 L342 424 L245 251 L346 70 L314 52 L173 232 Z M27 232 L170 436 L196 424 L100 251 L199 70 L168 52 L27 232 Z " />
<glyph glyph-name="logicalnot" unicode="&#xac;" horiz-adv-x="556" d="M470 250 L28 250 L28 305 L528 305 L528 78 L470 78 L470 250 Z " />
<glyph glyph-name="uni00AD" unicode="&#xad;" horiz-adv-x="335" d="M33 277 L304 277 L304 225 L33 225 L33 277 Z " />
<glyph glyph-name="registered" unicode="&#xae;" horiz-adv-x="844" d="M604 35 Q560 10 514 -2.5 Q468 -15 416 -15 Q338 -15 269.5 14 Q201 43 150 94 Q99 145 69.5 213 Q40 281 40 359 Q40 411 53.5 459.5 Q67 508 91.5 550 Q116 592 150.5 626.5 Q185 661 227 685 L243 694 Q285 717 332 730.5 Q379 744 430 744 Q508 744 576.5 714.5 Q645 685 695.5 634 Q746 583 775.5 514.5 Q805 446 805 368 Q805 316 791.5 268 Q778 220 754 178 Q730 136 695.5 102 Q661 68 619 43 L604 35 Z M757 359 Q757 430 730 492.5 Q703 555 657 601.5 Q611 648 548.5 675 Q486 702 416 702 Q325 702 251 659 Q177 615 132.5 538.5 Q88 462 88 368 Q88 297 115 235 Q142 173 188.5 126.5 Q235 80 297 53.5 Q359 27 430 27 Q521 27 594 68 Q668 113 712.5 189 Q757 265 757 359 Z M292 540 L277 564 L441 564 Q468 564 491 555 Q514 546 531.5 531 Q549 516 559 495.5 Q569 475 569 451 Q569 420 552.5 394.5 Q536 369 509 353 Q492 344 480.5 341 Q469 338 456 337 L603 164 L531 164 L395 326 L353 326 L353 164 L292 164 L292 540 Z M436 366 Q454 365 469 372 Q504 393 507 433 Q507 470 480.5 496 Q454 522 413 522 L353 522 L353 366 L436 366 Z " />
<glyph glyph-name="overscore" unicode="&#xaf;" horiz-adv-x="500" d="M111 618 L390 618 L390 572 L111 572 L111 618 Z " />
<glyph glyph-name="degree" unicode="&#xb0;" horiz-adv-x="405" d="M262 445 Q227 426 188 426 Q158 426 131.5 437.5 Q105 449 85.5 468.5 Q66 488 54.5 514.5 Q43 541 43 571 Q43 612 62.5 645 Q82 678 115 697 L146 715 Q180 735 219 735 Q249 735 275.5 723.5 Q302 712 321.5 692.5 Q341 673 352.5 646.5 Q364 620 364 590 Q364 548 345 515.5 Q326 483 293 463 L262 445 Z M218 471 Q256 470 281.5 499 Q307 528 307 571 Q307 590 299 611 Q291 632 276 649 Q261 666 239 677.5 Q217 689 189 689 Q169 689 152.5 680.5 Q136 672 124.5 658 Q113 644 107 626.5 Q101 609 101 590 Q101 570 108.5 549 Q116 528 131 510.5 Q146 493 168 482 Q190 471 218 471 Z " />
<glyph glyph-name="plusminus" unicode="&#xb1;" horiz-adv-x="556" d="M250 279 L28 279 L28 335 L250 335 L250 512 L306 512 L306 335 L528 335 L528 279 L306 279 L306 104 L250 104 L250 279 Z M28 44 L528 44 L528 -12 L28 -12 L28 44 Z " />
<glyph glyph-name="uni00B2" unicode="&#xb2;" horiz-adv-x="366" d="M40 471 L196 619 Q226 647 244 674.5 Q262 702 262 734 Q262 772 232.5 794 Q203 816 160 816 Q128 816 104 804.5 Q80 793 54 775 L37 802 Q49 810 63.5 819 Q78 828 96 836 Q139 857 186 857 Q214 857 239 849.5 Q264 842 283 828 Q302 814 313 793.5 Q324 773 324 746 Q324 708 304.5 675.5 Q285 643 250 613 L114 490 L333 492 L314 448 L40 448 L40 471 Z " />
<glyph glyph-name="uni00B3" unicode="&#xb3;" horiz-adv-x="366" d="M238 457 Q221 449 202 444 Q183 439 160 439 Q97 439 42 479 L63 529 Q94 502 123.5 490 Q153 478 183 478 Q196 479 207 481 Q218 483 228 488 Q246 499 255 515.5 Q264 532 264 551 Q264 587 236 611 Q208 635 166 635 L130 635 Q133 647 134 650.5 Q135 654 135.5 655.5 Q136 657 137 660.5 Q138 664 141 676 L189 676 Q217 676 235 695 Q253 714 253 737 Q253 774 225 795 Q197 816 159 816 Q130 816 107.5 806 Q85 796 62 781 L50 809 Q60 816 72 823 Q84 830 102 839 Q147 857 188 857 Q214 857 237 849.5 Q260 842 277 828.5 Q294 815 303.5 796 Q313 777 313 755 Q313 722 293 700 Q273 678 244 663 Q279 652 301.5 625 Q324 598 324 563 Q324 533 308 509.5 Q292 486 265 472 L238 457 Z " />
<glyph glyph-name="acute" unicode="&#xb4;" horiz-adv-x="500" d="M199 556 L307 713 L361 693 L236 541 L199 556 Z " />
<glyph glyph-name="mu" unicode="&#xb5;" horiz-adv-x="529" d="M64 439 L45 470 L134 496 L134 165 Q134 104 171.5 71.5 Q209 39 263 39 Q302 39 342 59 Q356 68 371 80.5 Q386 93 400 110 L400 439 L382 470 L470 496 L470 0 L400 0 L400 68 Q378 45 332 18 Q305 3 278 -4 Q251 -11 226 -11 Q199 -11 175.5 -3.5 Q152 4 134 17 L134 -197 L64 -197 L64 439 Z " />
<glyph glyph-name="paragraph" unicode="&#xb6;" horiz-adv-x="557" d="M206 326 Q168 329 135.5 344.5 Q103 360 79.5 385.5 Q56 411 42.5 444.5 Q29 478 29 517 Q29 572 53 618.5 Q77 665 120 689 L152 706 Q171 717 194.5 722.5 Q218 728 242 728 L523 728 L506 679 L449 679 L449 -113 L388 -113 L388 679 L268 679 L268 -113 L206 -113 L206 326 Z M206 673 Q189 673 175 668.5 Q161 664 148 657 Q120 637 104 605 Q88 573 88 534 Q88 505 96.5 479.5 Q105 454 120 434 Q135 414 157 401.5 Q179 389 206 386 L206 673 Z " />
<glyph glyph-name="middot" unicode="&#xb7;" horiz-adv-x="277" d="M184 253 Q184 230 169 218 Q154 206 137 206 Q120 206 107 217 Q94 228 94 245 Q94 268 109.5 279.5 Q125 291 143 291 Q160 291 172 280.5 Q184 270 184 253 Z " />
<glyph glyph-name="cedilla" unicode="&#xb8;" horiz-adv-x="500" d="M150 -150 Q171 -158 193 -163 Q215 -168 238 -168 Q263 -168 283 -157 Q303 -146 303 -117 Q303 -101 295 -92 Q287 -83 274.5 -78.5 Q262 -74 248 -72 Q234 -70 222 -69 L228 2 L257 2 L253 -43 Q272 -45 290 -50 Q308 -55 321.5 -64 Q335 -73 343 -86.5 Q351 -100 351 -119 Q351 -164 321 -184 Q291 -204 250 -204 Q224 -204 198.5 -197 Q173 -190 149 -179 L150 -150 Z " />
<glyph glyph-name="uni00B9" unicode="&#xb9;" horiz-adv-x="366" d="M191 786 L71 721 L49 757 L221 849 L251 849 L251 448 L191 448 L191 786 Z " />
<glyph glyph-name="ordmasculine" unicode="&#xba;" horiz-adv-x="378" d="M255 446 Q218 426 175 426 Q144 426 116 436.5 Q88 447 67 466.5 Q46 486 33.5 513 Q21 540 21 572 Q21 615 42 647.5 Q63 680 97 699 L123 714 Q158 734 202 734 Q233 734 261.5 723 Q290 712 311 692.5 Q332 673 344.5 646 Q357 619 357 587 Q357 545 336.5 512.5 Q316 480 282 461 L255 446 Z M202 467 Q221 467 238.5 475 Q256 483 269.5 497.5 Q283 512 290.5 531 Q298 550 298 572 Q298 597 288.5 619 Q279 641 262.5 657.5 Q246 674 223.5 683.5 Q201 693 175 693 Q155 693 138 684.5 Q121 676 108 661.5 Q95 647 88 628 Q81 609 81 587 Q81 562 90 540.5 Q99 519 115.5 502.5 Q132 486 154 476.5 Q176 467 202 467 Z M41 374 L337 374 L337 334 L41 334 L41 374 Z " />
<glyph glyph-name="guillemotright" unicode="&#xbb;" horiz-adv-x="372" d="M176 60 L273 233 L173 413 L205 431 L346 252 L202 47 L176 60 Z M31 60 L128 233 L28 413 L59 431 L199 252 L57 47 L31 60 Z " />
<glyph glyph-name="onequarter" unicode="&#xbc;" horiz-adv-x="797" d="M191 672 L71 607 L49 643 L221 735 L251 735 L251 334 L191 334 L191 672 Z M585 763 L631 763 L211 -35 L166 -35 L585 763 Z M673 89 L446 89 L446 112 L673 401 L732 401 L512 130 L673 130 L673 231 L732 235 L732 130 L780 130 L780 89 L732 89 L732 0 L673 0 L673 89 Z " />
<glyph glyph-name="onehalf" unicode="&#xbd;" horiz-adv-x="797" d="M191 672 L71 607 L49 643 L221 735 L251 735 L251 334 L191 334 L191 672 Z M585 763 L631 763 L211 -35 L166 -35 L585 763 Z M471 23 L627 171 Q657 199 675 226.5 Q693 254 693 286 Q693 324 663.5 346 Q634 368 591 368 Q559 368 535 356.5 Q511 345 485 327 L468 354 Q480 362 494.5 371 Q509 380 527 388 Q570 409 617 409 Q645 409 670 401.5 Q695 394 714 380 Q733 366 744 345.5 Q755 325 755 298 Q755 260 735.5 227.5 Q716 195 681 165 L545 42 L764 44 L745 0 L471 0 L471 23 Z " />
<glyph glyph-name="threequarters" unicode="&#xbe;" horiz-adv-x="797" d="M238 343 Q221 335 202 330 Q183 325 160 325 Q97 325 42 365 L63 415 Q94 388 123.5 376 Q153 364 183 364 Q196 365 207 367 Q218 369 228 374 Q246 385 255 401.5 Q264 418 264 437 Q264 473 236 497 Q208 521 166 521 L130 521 L141 562 L189 562 Q217 562 235 581 Q253 600 253 623 Q253 660 225 681 Q197 702 159 702 Q130 702 107.5 692 Q85 682 62 667 L50 695 Q60 702 72 709 Q84 716 102 725 Q147 743 188 743 Q214 743 237 735.5 Q260 728 277 714.5 Q294 701 303.5 682 Q313 663 313 641 Q313 608 293 586 Q273 564 244 549 Q279 538 301.5 511 Q324 484 324 449 Q324 419 308 395.5 Q292 372 265 358 L238 343 Z M585 763 L631 763 L211 -35 L166 -35 L585 763 Z M673 89 L446 89 L446 112 L673 401 L732 401 L512 130 L673 130 L673 231 L732 235 L732 130 L780 130 L780 89 L732 89 L732 0 L673 0 L673 89 Z " />
<glyph glyph-name="questiondown" unicode="&#xbf;" horiz-adv-x="491" d="M451 -161 Q439 -172 421.5 -184 Q404 -196 381 -210 Q349 -229 311.5 -239 Q274 -249 233 -249 Q193 -249 158 -235 Q123 -221 96.5 -196 Q70 -171 55 -137.5 Q40 -104 40 -65 Q40 -29 51.5 -3 Q63 23 80.5 42.5 Q98 62 119.5 78 Q141 94 161 109 Q183 127 197.5 148.5 Q212 170 212 201 L212 300 L280 300 L280 215 Q280 177 263 153 Q246 129 223 109 Q205 95 186 81.5 Q167 68 151 51 Q135 34 124.5 11.5 Q114 -11 114 -43 Q114 -75 126 -102.5 Q138 -130 158.5 -150.5 Q179 -171 206.5 -183 Q234 -195 266 -195 Q296 -195 325.5 -188.5 Q355 -182 383 -165 Q398 -157 411 -146.5 Q424 -136 435 -126 L451 -161 Z M201 451 Q201 474 216 485.5 Q231 497 249 497 Q266 497 278.5 486.5 Q291 476 291 459 Q291 436 275.5 424 Q260 412 243 412 Q226 412 213.5 423 Q201 434 201 451 Z " />
<glyph glyph-name="Agrave" unicode="&#xc0;" horiz-adv-x="686" d="M304 695 L289 728 L368 728 L691 0 L613 0 L500 254 L171 254 L72 33 L82 0 L-6 0 L304 695 Z M477 307 L334 628 L194 307 L477 307 Z M231 930 L285 949 L393 792 L356 777 L231 930 Z " />
<glyph glyph-name="Aacute" unicode="&#xc1;" horiz-adv-x="686" d="M304 695 L289 728 L368 728 L691 0 L613 0 L500 254 L171 254 L72 33 L82 0 L-6 0 L304 695 Z M477 307 L334 628 L194 307 L477 307 Z M291 792 L399 949 L453 930 L328 777 L291 792 Z " />
<glyph glyph-name="Acircumflex" unicode="&#xc2;" horiz-adv-x="686" d="M304 695 L289 728 L368 728 L691 0 L613 0 L500 254 L171 254 L72 33 L82 0 L-6 0 L304 695 Z M477 307 L334 628 L194 307 L477 307 Z M208 801 L329 933 L355 933 L476 800 L442 782 L342 881 L240 782 L208 801 Z " />
<glyph glyph-name="Atilde" unicode="&#xc3;" horiz-adv-x="686" d="M304 695 L289 728 L368 728 L691 0 L613 0 L500 254 L171 254 L72 33 L82 0 L-6 0 L304 695 Z M477 307 L334 628 L194 307 L477 307 Z M201 810 Q209 838 230 858.5 Q251 879 282 879 Q297 879 312 874 Q327 869 341.5 863 Q356 857 371 852 Q386 847 401 847 Q419 847 430.5 858 Q442 869 448 885 L482 873 Q475 844 452.5 823 Q430 802 399 802 Q385 802 371 807 Q357 812 342 818.5 Q327 825 311.5 830 Q296 835 280 835 Q263 835 252.5 824.5 Q242 814 236 799 L201 810 Z " />
<glyph glyph-name="Adieresis" unicode="&#xc4;" horiz-adv-x="686" d="M304 695 L289 728 L368 728 L691 0 L613 0 L500 254 L171 254 L72 33 L82 0 L-6 0 L304 695 Z M477 307 L334 628 L194 307 L477 307 Z M470 840 Q470 823 458 811.5 Q446 800 430 800 Q413 800 402 811.5 Q391 823 391 840 Q391 855 402.5 867 Q414 879 430 879 Q446 879 458 867 Q470 855 470 840 Z M293 840 Q293 823 281.5 811.5 Q270 800 254 800 Q237 800 225.5 811.5 Q214 823 214 840 Q214 855 226 867 Q238 879 254 879 Q270 879 281.5 867 Q293 855 293 840 Z " />
<glyph glyph-name="Aring" unicode="&#xc5;" horiz-adv-x="686" d="M304 695 L289 728 L368 728 L691 0 L613 0 L500 254 L171 254 L72 33 L82 0 L-6 0 L304 695 Z M477 307 L334 628 L194 307 L477 307 Z M444 867 Q444 846 435.5 828.5 Q427 811 413 798.5 Q399 786 380.5 779 Q362 772 342 772 Q321 772 302.5 779 Q284 786 270 798.5 Q256 811 248 828.5 Q240 846 240 867 Q240 888 248 905.5 Q256 923 270 935 Q284 947 302.5 954 Q321 961 342 961 Q363 961 381.5 954 Q400 947 414 935 Q428 923 436 905.5 Q444 888 444 867 Z M404 867 Q404 893 385.5 909.5 Q367 926 342 926 Q317 926 298.5 909.5 Q280 893 280 867 Q280 841 298.5 824 Q317 807 342 807 Q367 807 385.5 824 Q404 841 404 867 Z " />
<glyph glyph-name="AE" unicode="&#xc6;" horiz-adv-x="973" d="M500 728 L932 728 L911 674 L590 674 L590 404 L922 404 L901 350 L590 350 L590 54 L942 54 L921 0 L517 0 L517 254 L238 254 L83 34 L83 0 L-12 0 L500 728 Z M517 307 L517 655 L275 307 L517 307 Z " />
<glyph glyph-name="Ccedilla" unicode="&#xc7;" horiz-adv-x="676" d="M309 -150 Q330 -158 352 -163 Q374 -168 397 -168 Q423 -168 442.5 -157 Q462 -146 462 -117 Q462 -102 454 -93 Q446 -84 433.5 -79 Q421 -74 407 -72 Q393 -70 381 -69 L385 -15 Q310 -12 245 18.5 Q180 49 132 99 Q84 149 56.5 214.5 Q29 280 29 354 Q29 405 42.5 452.5 Q56 500 80 541.5 Q104 583 138 616.5 Q172 650 214 674 L247 693 Q289 717 336.5 730.5 Q384 744 435 744 Q492 744 541 732.5 Q590 721 634 700 L609 634 Q565 660 515 675 Q465 690 405 690 Q365 690 326.5 681.5 Q288 673 255 653 Q220 632 192 602 Q164 572 144.5 536 Q125 500 114.5 458.5 Q104 417 104 373 Q104 304 130 243 Q156 182 201.5 136.5 Q247 91 308 64.5 Q369 38 438 38 Q497 38 544 51 Q591 64 636 89 L642 51 Q631 45 622.5 39.5 Q614 34 604 29 Q563 6 516 -4 Q469 -14 414 -15 L412 -43 Q431 -45 449 -50 Q467 -55 480.5 -64 Q494 -73 502 -86.5 Q510 -100 510 -119 Q510 -164 480 -184 Q450 -204 409 -204 Q383 -204 357.5 -197 Q332 -190 308 -179 L309 -150 Z " />
<glyph glyph-name="Egrave" unicode="&#xc8;" horiz-adv-x="525" d="M70 695 L51 728 L484 728 L464 674 L143 674 L143 404 L474 404 L454 350 L143 350 L143 54 L494 54 L474 0 L70 0 L70 695 Z M162 930 L216 949 L324 792 L287 777 L162 930 Z " />
<glyph glyph-name="Eacute" unicode="&#xc9;" horiz-adv-x="525" d="M70 695 L51 728 L484 728 L464 674 L143 674 L143 404 L474 404 L454 350 L143 350 L143 54 L494 54 L474 0 L70 0 L70 695 Z M222 792 L330 949 L384 930 L259 777 L222 792 Z " />
<glyph glyph-name="Ecircumflex" unicode="&#xca;" horiz-adv-x="525" d="M70 695 L51 728 L484 728 L464 674 L143 674 L143 404 L474 404 L454 350 L143 350 L143 54 L494 54 L474 0 L70 0 L70 695 Z M139 801 L260 933 L286 933 L407 800 L373 782 L273 881 L171 782 L139 801 Z " />
<glyph glyph-name="Edieresis" unicode="&#xcb;" horiz-adv-x="525" d="M70 695 L51 728 L484 728 L464 674 L143 674 L143 404 L474 404 L454 350 L143 350 L143 54 L494 54 L474 0 L70 0 L70 695 Z M401 840 Q401 823 389 811.5 Q377 800 361 800 Q344 800 333 811.5 Q322 823 322 840 Q322 855 333.5 867 Q345 879 361 879 Q377 879 389 867 Q401 855 401 840 Z M224 840 Q224 823 212.5 811.5 Q201 800 185 800 Q168 800 156.5 811.5 Q145 823 145 840 Q145 855 157 867 Q169 879 185 879 Q201 879 212.5 867 Q224 855 224 840 Z " />
<glyph glyph-name="Igrave" unicode="&#xcc;" horiz-adv-x="223" d="M75 695 L56 728 L148 728 L148 0 L75 0 L75 695 Z M0 930 L54 949 L162 792 L125 777 L0 930 Z " />
<glyph glyph-name="Iacute" unicode="&#xcd;" horiz-adv-x="223" d="M75 695 L56 728 L148 728 L148 0 L75 0 L75 695 Z M60 792 L168 949 L222 930 L97 777 L60 792 Z " />
<glyph glyph-name="Icircumflex" unicode="&#xce;" horiz-adv-x="223" d="M75 695 L56 728 L148 728 L148 0 L75 0 L75 695 Z M-23 801 L98 933 L124 933 L245 800 L211 782 L111 881 L9 782 L-23 801 Z " />
<glyph glyph-name="Idieresis" unicode="&#xcf;" horiz-adv-x="223" d="M75 695 L56 728 L148 728 L148 0 L75 0 L75 695 Z M239 840 Q239 823 227 811.5 Q215 800 199 800 Q182 800 171 811.5 Q160 823 160 840 Q160 855 171.5 867 Q183 879 199 879 Q215 879 227 867 Q239 855 239 840 Z M62 840 Q62 823 50.5 811.5 Q39 800 23 800 Q6 800 -5.5 811.5 Q-17 823 -17 840 Q-17 855 -5 867 Q7 879 23 879 Q39 879 50.5 867 Q62 855 62 840 Z " />
<glyph glyph-name="Eth" unicode="&#xd0;" horiz-adv-x="710" d="M80 353 L-8 353 L2 399 L80 399 L80 695 L61 728 L325 728 Q400 728 465 700 Q530 672 578 624 Q626 576 654 511 Q682 446 682 373 Q682 274 634 194 Q586 114 506 66 L474 48 Q434 25 388.5 12.5 Q343 0 293 0 L80 0 L80 353 Z M321 54 Q360 54 397 61.5 Q434 69 465 88 Q532 129 570.5 199.5 Q609 270 609 354 Q609 420 584 478 Q559 536 515.5 579.5 Q472 623 414 648.5 Q356 674 289 674 L153 674 L153 399 L352 399 L344 353 L153 353 L153 54 L321 54 Z " />
<glyph glyph-name="Ntilde" unicode="&#xd1;" horiz-adv-x="722" d="M70 690 L40 728 L132 728 L594 120 L594 695 L575 728 L652 728 L652 0 L591 0 L128 610 L128 0 L70 0 L70 690 Z M220 810 Q228 838 249 858.5 Q270 879 301 879 Q316 879 331 874 Q346 869 360.5 863 Q375 857 390 852 Q405 847 420 847 Q438 847 449.5 858 Q461 869 467 885 L501 873 Q494 844 471.5 823 Q449 802 418 802 Q404 802 390 807 Q376 812 361 818.5 Q346 825 330.5 830 Q315 835 299 835 Q282 835 271.5 824.5 Q261 814 255 799 L220 810 Z " />
<glyph glyph-name="Ograve" unicode="&#xd2;" horiz-adv-x="835" d="M590 34 Q548 11 501 -2.5 Q454 -16 402 -16 Q324 -16 255.5 13 Q187 42 137 92.5 Q87 143 58 210 Q29 277 29 354 Q29 405 42.5 452.5 Q56 500 80 541 Q104 582 138 616 Q172 650 213 675 L245 693 Q287 718 334.5 731 Q382 744 434 744 Q512 744 580.5 715 Q649 686 699 635.5 Q749 585 778 517.5 Q807 450 807 373 Q807 322 793.5 274 Q780 226 756 185 Q732 144 698 110 Q664 76 623 52 L590 34 Z M582 74 Q616 95 644 125 Q672 155 691.5 191 Q711 227 721.5 268.5 Q732 310 732 354 Q732 423 706.5 484.5 Q681 546 636 591.5 Q591 637 531 663.5 Q471 690 402 690 Q361 690 323 681.5 Q285 673 253 653 Q218 632 190.5 602 Q163 572 144 536 Q125 500 114.5 458.5 Q104 417 104 373 Q104 304 129.5 243 Q155 182 199.5 136.5 Q244 91 304 64.5 Q364 38 434 38 Q475 38 512.5 46 Q550 54 582 74 Z M306 930 L360 949 L468 792 L431 777 L306 930 Z " />
<glyph glyph-name="Oacute" unicode="&#xd3;" horiz-adv-x="835" d="M590 34 Q548 11 501 -2.5 Q454 -16 402 -16 Q324 -16 255.5 13 Q187 42 137 92.5 Q87 143 58 210 Q29 277 29 354 Q29 405 42.5 452.5 Q56 500 80 541 Q104 582 138 616 Q172 650 213 675 L245 693 Q287 718 334.5 731 Q382 744 434 744 Q512 744 580.5 715 Q649 686 699 635.5 Q749 585 778 517.5 Q807 450 807 373 Q807 322 793.5 274 Q780 226 756 185 Q732 144 698 110 Q664 76 623 52 L590 34 Z M582 74 Q616 95 644 125 Q672 155 691.5 191 Q711 227 721.5 268.5 Q732 310 732 354 Q732 423 706.5 484.5 Q681 546 636 591.5 Q591 637 531 663.5 Q471 690 402 690 Q361 690 323 681.5 Q285 673 253 653 Q218 632 190.5 602 Q163 572 144 536 Q125 500 114.5 458.5 Q104 417 104 373 Q104 304 129.5 243 Q155 182 199.5 136.5 Q244 91 304 64.5 Q364 38 434 38 Q475 38 512.5 46 Q550 54 582 74 Z M366 792 L474 949 L528 930 L403 777 L366 792 Z " />
<glyph glyph-name="Ocircumflex" unicode="&#xd4;" horiz-adv-x="835" d="M590 34 Q548 11 501 -2.5 Q454 -16 402 -16 Q324 -16 255.5 13 Q187 42 137 92.5 Q87 143 58 210 Q29 277 29 354 Q29 405 42.5 452.5 Q56 500 80 541 Q104 582 138 616 Q172 650 213 675 L245 693 Q287 718 334.5 731 Q382 744 434 744 Q512 744 580.5 715 Q649 686 699 635.5 Q749 585 778 517.5 Q807 450 807 373 Q807 322 793.5 274 Q780 226 756 185 Q732 144 698 110 Q664 76 623 52 L590 34 Z M582 74 Q616 95 644 125 Q672 155 691.5 191 Q711 227 721.5 268.5 Q732 310 732 354 Q732 423 706.5 484.5 Q681 546 636 591.5 Q591 637 531 663.5 Q471 690 402 690 Q361 690 323 681.5 Q285 673 253 653 Q218 632 190.5 602 Q163 572 144 536 Q125 500 114.5 458.5 Q104 417 104 373 Q104 304 129.5 243 Q155 182 199.5 136.5 Q244 91 304 64.5 Q364 38 434 38 Q475 38 512.5 46 Q550 54 582 74 Z M283 801 L404 933 L430 933 L551 800 L517 782 L417 881 L315 782 L283 801 Z " />
<glyph glyph-name="Otilde" unicode="&#xd5;" horiz-adv-x="835" d="M590 34 Q548 11 501 -2.5 Q454 -16 402 -16 Q324 -16 255.5 13 Q187 42 137 92.5 Q87 143 58 210 Q29 277 29 354 Q29 405 42.5 452.5 Q56 500 80 541 Q104 582 138 616 Q172 650 213 675 L245 693 Q287 718 334.5 731 Q382 744 434 744 Q512 744 580.5 715 Q649 686 699 635.5 Q749 585 778 517.5 Q807 450 807 373 Q807 322 793.5 274 Q780 226 756 185 Q732 144 698 110 Q664 76 623 52 L590 34 Z M582 74 Q616 95 644 125 Q672 155 691.5 191 Q711 227 721.5 268.5 Q732 310 732 354 Q732 423 706.5 484.5 Q681 546 636 591.5 Q591 637 531 663.5 Q471 690 402 690 Q361 690 323 681.5 Q285 673 253 653 Q218 632 190.5 602 Q163 572 144 536 Q125 500 114.5 458.5 Q104 417 104 373 Q104 304 129.5 243 Q155 182 199.5 136.5 Q244 91 304 64.5 Q364 38 434 38 Q475 38 512.5 46 Q550 54 582 74 Z M276 810 Q284 838 305 858.5 Q326 879 357 879 Q372 879 387 874 Q402 869 416.5 863 Q431 857 446 852 Q461 847 476 847 Q494 847 505.5 858 Q517 869 523 885 L557 873 Q550 844 527.5 823 Q505 802 474 802 Q460 802 446 807 Q432 812 417 818.5 Q402 825 386.5 830 Q371 835 355 835 Q338 835 327.5 824.5 Q317 814 311 799 L276 810 Z " />
<glyph glyph-name="Odieresis" unicode="&#xd6;" horiz-adv-x="835" d="M590 34 Q548 11 501 -2.5 Q454 -16 402 -16 Q324 -16 255.5 13 Q187 42 137 92.5 Q87 143 58 210 Q29 277 29 354 Q29 405 42.5 452.5 Q56 500 80 541 Q104 582 138 616 Q172 650 213 675 L245 693 Q287 718 334.5 731 Q382 744 434 744 Q512 744 580.5 715 Q649 686 699 635.5 Q749 585 778 517.5 Q807 450 807 373 Q807 322 793.5 274 Q780 226 756 185 Q732 144 698 110 Q664 76 623 52 L590 34 Z M582 74 Q616 95 644 125 Q672 155 691.5 191 Q711 227 721.5 268.5 Q732 310 732 354 Q732 423 706.5 484.5 Q681 546 636 591.5 Q591 637 531 663.5 Q471 690 402 690 Q361 690 323 681.5 Q285 673 253 653 Q218 632 190.5 602 Q163 572 144 536 Q125 500 114.5 458.5 Q104 417 104 373 Q104 304 129.5 243 Q155 182 199.5 136.5 Q244 91 304 64.5 Q364 38 434 38 Q475 38 512.5 46 Q550 54 582 74 Z M545 840 Q545 823 533 811.5 Q521 800 505 800 Q488 800 477 811.5 Q466 823 466 840 Q466 855 477.5 867 Q489 879 505 879 Q521 879 533 867 Q545 855 545 840 Z M368 840 Q368 823 356.5 811.5 Q345 800 329 800 Q312 800 300.5 811.5 Q289 823 289 840 Q289 855 301 867 Q313 879 329 879 Q345 879 356.5 867 Q368 855 368 840 Z " />
<glyph glyph-name="multiply" unicode="&#xd7;" horiz-adv-x="556" d="M54 65 L240 250 L54 434 L93 474 L278 288 L463 474 L502 435 L316 250 L502 65 L463 26 L278 212 L93 26 L54 65 Z " />
<glyph glyph-name="Oslash" unicode="&#xd8;" horiz-adv-x="835" d="M63 -32 L154 78 Q97 129 64.5 199.5 Q32 270 32 354 Q32 405 45 452.5 Q58 500 82 541 Q106 582 140 616 Q174 650 215 675 L248 693 Q290 718 337 731 Q384 744 437 744 Q497 744 549.5 726 Q602 708 647 675 L718 759 L731 775 L770 747 L686 648 Q743 597 775.5 527 Q808 457 808 373 Q808 322 795 274.5 Q782 227 758 186 Q734 145 700 111 Q666 77 624 52 L592 34 Q510 -16 404 -16 Q344 -16 291 1.5 Q238 19 194 52 L99 -61 L63 -32 Z M235 107 Q277 74 328 56 Q379 38 437 38 Q477 38 514.5 46 Q552 54 584 74 Q654 116 694 190.5 Q734 265 734 354 Q734 423 709.5 482.5 Q685 542 641 587 L235 107 Z M605 619 Q563 653 512.5 671.5 Q462 690 404 690 Q362 690 324.5 681.5 Q287 673 255 653 Q185 611 145 536.5 Q105 462 105 373 Q105 304 130 244.5 Q155 185 200 140 L605 619 Z " />
<glyph glyph-name="Ugrave" unicode="&#xd9;" horiz-adv-x="667" d="M484 26 Q447 6 406.5 -5 Q366 -16 314 -16 Q262 -16 217 2.5 Q172 21 138.5 53 Q105 85 86 128 Q67 171 67 220 L67 695 L48 728 L140 728 L140 242 Q140 200 156.5 163 Q173 126 201 98.5 Q229 71 267 55 Q305 39 348 39 Q384 39 413 45.5 Q442 52 468 66 Q482 73 496 82 Q510 91 524 101 L524 695 L505 728 L597 728 L597 98 Q576 83 555.5 69.5 Q535 56 517 45 L484 26 Z M222 930 L276 949 L384 792 L347 777 L222 930 Z " />
<glyph glyph-name="Uacute" unicode="&#xda;" horiz-adv-x="667" d="M484 26 Q447 6 406.5 -5 Q366 -16 314 -16 Q262 -16 217 2.5 Q172 21 138.5 53 Q105 85 86 128 Q67 171 67 220 L67 695 L48 728 L140 728 L140 242 Q140 200 156.5 163 Q173 126 201 98.5 Q229 71 267 55 Q305 39 348 39 Q384 39 413 45.5 Q442 52 468 66 Q482 73 496 82 Q510 91 524 101 L524 695 L505 728 L597 728 L597 98 Q576 83 555.5 69.5 Q535 56 517 45 L484 26 Z M282 792 L390 949 L444 930 L319 777 L282 792 Z " />
<glyph glyph-name="Ucircumflex" unicode="&#xdb;" horiz-adv-x="667" d="M484 26 Q447 6 406.5 -5 Q366 -16 314 -16 Q262 -16 217 2.5 Q172 21 138.5 53 Q105 85 86 128 Q67 171 67 220 L67 695 L48 728 L140 728 L140 242 Q140 200 156.5 163 Q173 126 201 98.5 Q229 71 267 55 Q305 39 348 39 Q384 39 413 45.5 Q442 52 468 66 Q482 73 496 82 Q510 91 524 101 L524 695 L505 728 L597 728 L597 98 Q576 83 555.5 69.5 Q535 56 517 45 L484 26 Z M199 801 L320 933 L346 933 L467 800 L433 782 L333 881 L231 782 L199 801 Z " />
<glyph glyph-name="Udieresis" unicode="&#xdc;" horiz-adv-x="667" d="M484 26 Q447 6 406.5 -5 Q366 -16 314 -16 Q262 -16 217 2.5 Q172 21 138.5 53 Q105 85 86 128 Q67 171 67 220 L67 695 L48 728 L140 728 L140 242 Q140 200 156.5 163 Q173 126 201 98.5 Q229 71 267 55 Q305 39 348 39 Q384 39 413 45.5 Q442 52 468 66 Q482 73 496 82 Q510 91 524 101 L524 695 L505 728 L597 728 L597 98 Q576 83 555.5 69.5 Q535 56 517 45 L484 26 Z M461 840 Q461 823 449 811.5 Q437 800 421 800 Q404 800 393 811.5 Q382 823 382 840 Q382 855 393.5 867 Q405 879 421 879 Q437 879 449 867 Q461 855 461 840 Z M284 840 Q284 823 272.5 811.5 Q261 800 245 800 Q228 800 216.5 811.5 Q205 823 205 840 Q205 855 217 867 Q229 879 245 879 Q261 879 272.5 867 Q284 855 284 840 Z " />
<glyph glyph-name="Yacute" unicode="&#xdd;" horiz-adv-x="604" d="M268 292 L0 728 L88 728 L314 360 L519 695 L511 728 L604 728 L341 299 L341 0 L268 0 L268 292 Z M251 792 L359 949 L413 930 L288 777 L251 792 Z " />
<glyph glyph-name="Thorn" unicode="&#xde;" horiz-adv-x="549" d="M70 695 L51 728 L143 728 L143 604 L299 604 Q345 604 385.5 587 Q426 570 455.5 540.5 Q485 511 502 471.5 Q519 432 519 387 Q519 327 490 278 Q461 229 413 202 L380 183 Q354 169 325.5 161 Q297 153 266 153 L143 153 L143 0 L70 0 L70 695 Z M296 206 Q317 206 336 210 Q355 214 372 225 Q407 248 427 285.5 Q447 323 447 369 Q447 406 432.5 439 Q418 472 392.5 496.5 Q367 521 333.5 535.5 Q300 550 263 550 L143 550 L143 206 L296 206 Z " />
<glyph glyph-name="germandbls" unicode="&#xdf;" horiz-adv-x="528" d="M65 434 L-8 434 L11 484 L65 484 L65 531 Q65 559 68 584 Q71 609 79.5 630.5 Q88 652 103 670 Q118 688 143 701 L170 717 Q187 726 206.5 731.5 Q226 737 247 738 Q259 738 271.5 737 Q284 736 295 733 Q321 727 342.5 713 Q364 699 379 680.5 Q394 662 402 639.5 Q410 617 410 593 Q410 552 393.5 527.5 Q377 503 357.5 483.5 Q338 464 321.5 444 Q305 424 305 393 Q305 367 319 351 Q333 335 354.5 323 Q376 311 401 300 Q426 289 447.5 271.5 Q469 254 483 227 Q497 200 497 158 Q497 115 478 82.5 Q459 50 425 30 L394 12 Q356 -11 305 -11 Q294 -12 284 -11 Q274 -10 263 -8 Q242 -4 219.5 5.5 Q197 15 180 32 L206 86 Q233 62 263.5 50.5 Q294 39 326 39 Q370 40 398.5 66 Q427 92 427 140 Q427 177 413 199.5 Q399 222 378.5 237.5 Q358 253 333.5 264.5 Q309 276 288.5 289.5 Q268 303 254 322 Q240 341 240 372 Q240 407 256.5 428.5 Q273 450 292.5 468.5 Q312 487 328.5 510 Q345 533 345 571 Q345 595 335 616 Q325 637 308.5 652.5 Q292 668 270 677 Q248 686 223 687 Q203 687 186.5 678 Q170 669 158 654 Q146 639 139.5 619.5 Q133 600 133 580 L133 0 L65 0 L65 434 Z " />
<glyph glyph-name="agrave" unicode="&#xe0;" horiz-adv-x="475" d="M427 -4 Q380 -4 359.5 12.5 Q339 29 334 67 Q322 54 304.5 41.5 Q287 29 273 21 L259 12 Q217 -12 175 -12 Q146 -12 119.5 -3 Q93 6 73 22.5 Q53 39 41.5 63.5 Q30 88 30 120 Q30 165 49.5 196 Q69 227 103 247 L135 265 Q171 286 220.5 295.5 Q270 305 327 307 Q327 316 327 325.5 Q327 335 326 347 Q323 398 291.5 422 Q260 446 212 446 Q177 446 144.5 436.5 Q112 427 86 413 L74 444 Q89 453 107 462 Q135 475 171.5 485.5 Q208 496 250 496 Q280 496 307 488 Q334 480 354 463.5 Q374 447 386 421.5 Q398 396 398 362 L398 117 Q398 79 411 61.5 Q424 44 466 44 L469 44 L449 -4 L427 -4 Z M328 265 Q275 263 227 257.5 Q179 252 141 232 Q121 216 109.5 194 Q98 172 98 140 Q98 91 134 63.5 Q170 36 221 36 Q233 36 247.5 41.5 Q262 47 276.5 57 Q291 67 304.5 80 Q318 93 328 108 L328 265 Z M126 693 L180 713 L288 556 L251 541 L126 693 Z " />
<glyph glyph-name="aacute" unicode="&#xe1;" horiz-adv-x="475" d="M427 -4 Q380 -4 359.5 12.5 Q339 29 334 67 Q322 54 304.5 41.5 Q287 29 273 21 L259 12 Q217 -12 175 -12 Q146 -12 119.5 -3 Q93 6 73 22.5 Q53 39 41.5 63.5 Q30 88 30 120 Q30 165 49.5 196 Q69 227 103 247 L135 265 Q171 286 220.5 295.5 Q270 305 327 307 Q327 316 327 325.5 Q327 335 326 347 Q323 398 291.5 422 Q260 446 212 446 Q177 446 144.5 436.5 Q112 427 86 413 L74 444 Q89 453 107 462 Q135 475 171.5 485.5 Q208 496 250 496 Q280 496 307 488 Q334 480 354 463.5 Q374 447 386 421.5 Q398 396 398 362 L398 117 Q398 79 411 61.5 Q424 44 466 44 L469 44 L449 -4 L427 -4 Z M328 265 Q275 263 227 257.5 Q179 252 141 232 Q121 216 109.5 194 Q98 172 98 140 Q98 91 134 63.5 Q170 36 221 36 Q233 36 247.5 41.5 Q262 47 276.5 57 Q291 67 304.5 80 Q318 93 328 108 L328 265 Z M186 556 L294 713 L348 693 L223 541 L186 556 Z " />
<glyph glyph-name="acircumflex" unicode="&#xe2;" horiz-adv-x="475" d="M427 -4 Q380 -4 359.5 12.5 Q339 29 334 67 Q322 54 304.5 41.5 Q287 29 273 21 L259 12 Q217 -12 175 -12 Q146 -12 119.5 -3 Q93 6 73 22.5 Q53 39 41.5 63.5 Q30 88 30 120 Q30 165 49.5 196 Q69 227 103 247 L135 265 Q171 286 220.5 295.5 Q270 305 327 307 Q327 316 327 325.5 Q327 335 326 347 Q323 398 291.5 422 Q260 446 212 446 Q177 446 144.5 436.5 Q112 427 86 413 L74 444 Q89 453 107 462 Q135 475 171.5 485.5 Q208 496 250 496 Q280 496 307 488 Q334 480 354 463.5 Q374 447 386 421.5 Q398 396 398 362 L398 117 Q398 79 411 61.5 Q424 44 466 44 L469 44 L449 -4 L427 -4 Z M328 265 Q275 263 227 257.5 Q179 252 141 232 Q121 216 109.5 194 Q98 172 98 140 Q98 91 134 63.5 Q170 36 221 36 Q233 36 247.5 41.5 Q262 47 276.5 57 Q291 67 304.5 80 Q318 93 328 108 L328 265 Z M103 565 L224 697 L250 697 L371 564 L337 545 L237 644 L135 546 L103 565 Z " />
<glyph glyph-name="atilde" unicode="&#xe3;" horiz-adv-x="475" d="M427 -4 Q380 -4 359.5 12.5 Q339 29 334 67 Q322 54 304.5 41.5 Q287 29 273 21 L259 12 Q217 -12 175 -12 Q146 -12 119.5 -3 Q93 6 73 22.5 Q53 39 41.5 63.5 Q30 88 30 120 Q30 165 49.5 196 Q69 227 103 247 L135 265 Q171 286 220.5 295.5 Q270 305 327 307 Q327 316 327 325.5 Q327 335 326 347 Q323 398 291.5 422 Q260 446 212 446 Q177 446 144.5 436.5 Q112 427 86 413 L74 444 Q89 453 107 462 Q135 475 171.5 485.5 Q208 496 250 496 Q280 496 307 488 Q334 480 354 463.5 Q374 447 386 421.5 Q398 396 398 362 L398 117 Q398 79 411 61.5 Q424 44 466 44 L469 44 L449 -4 L427 -4 Z M328 265 Q275 263 227 257.5 Q179 252 141 232 Q121 216 109.5 194 Q98 172 98 140 Q98 91 134 63.5 Q170 36 221 36 Q233 36 247.5 41.5 Q262 47 276.5 57 Q291 67 304.5 80 Q318 93 328 108 L328 265 Z M96 574 Q104 602 125 622.5 Q146 643 177 643 Q192 643 207 638 Q222 633 236.5 627 Q251 621 266 616 Q281 611 296 611 Q314 611 325.5 622 Q337 633 343 649 L377 636 Q370 607 347.5 586.5 Q325 566 294 566 Q280 566 266 571 Q252 576 237 582.5 Q222 589 206.5 594 Q191 599 175 599 Q158 599 147.5 588 Q137 577 131 562 L96 574 Z " />
<glyph glyph-name="adieresis" unicode="&#xe4;" horiz-adv-x="475" d="M427 -4 Q380 -4 359.5 12.5 Q339 29 334 67 Q322 54 304.5 41.5 Q287 29 273 21 L259 12 Q217 -12 175 -12 Q146 -12 119.5 -3 Q93 6 73 22.5 Q53 39 41.5 63.5 Q30 88 30 120 Q30 165 49.5 196 Q69 227 103 247 L135 265 Q171 286 220.5 295.5 Q270 305 327 307 Q327 316 327 325.5 Q327 335 326 347 Q323 398 291.5 422 Q260 446 212 446 Q177 446 144.5 436.5 Q112 427 86 413 L74 444 Q89 453 107 462 Q135 475 171.5 485.5 Q208 496 250 496 Q280 496 307 488 Q334 480 354 463.5 Q374 447 386 421.5 Q398 396 398 362 L398 117 Q398 79 411 61.5 Q424 44 466 44 L469 44 L449 -4 L427 -4 Z M328 265 Q275 263 227 257.5 Q179 252 141 232 Q121 216 109.5 194 Q98 172 98 140 Q98 91 134 63.5 Q170 36 221 36 Q233 36 247.5 41.5 Q262 47 276.5 57 Q291 67 304.5 80 Q318 93 328 108 L328 265 Z M365 603 Q365 586 353 575 Q341 564 325 564 Q308 564 297 575 Q286 586 286 603 Q286 618 297.5 630.5 Q309 643 325 643 Q341 643 353 631 Q365 619 365 603 Z M188 603 Q188 586 176.5 575 Q165 564 149 564 Q132 564 120.5 575 Q109 586 109 603 Q109 618 121 630.5 Q133 643 149 643 Q165 643 176.5 631 Q188 619 188 603 Z " />
<glyph glyph-name="aring" unicode="&#xe5;" horiz-adv-x="475" d="M427 -4 Q380 -4 359.5 12.5 Q339 29 334 67 Q322 54 304.5 41.5 Q287 29 273 21 L259 12 Q217 -12 175 -12 Q146 -12 119.5 -3 Q93 6 73 22.5 Q53 39 41.5 63.5 Q30 88 30 120 Q30 165 49.5 196 Q69 227 103 247 L135 265 Q171 286 220.5 295.5 Q270 305 327 307 Q327 316 327 325.5 Q327 335 326 347 Q323 398 291.5 422 Q260 446 212 446 Q177 446 144.5 436.5 Q112 427 86 413 L74 444 Q89 453 107 462 Q135 475 171.5 485.5 Q208 496 250 496 Q280 496 307 488 Q334 480 354 463.5 Q374 447 386 421.5 Q398 396 398 362 L398 117 Q398 79 411 61.5 Q424 44 466 44 L469 44 L449 -4 L427 -4 Z M328 265 Q275 263 227 257.5 Q179 252 141 232 Q121 216 109.5 194 Q98 172 98 140 Q98 91 134 63.5 Q170 36 221 36 Q233 36 247.5 41.5 Q262 47 276.5 57 Q291 67 304.5 80 Q318 93 328 108 L328 265 Z M339 631 Q339 609 330.5 591.5 Q322 574 308 561.5 Q294 549 275.5 542.5 Q257 536 237 536 Q195 536 165 561.5 Q135 587 135 631 Q135 652 143 669.5 Q151 687 165 699 Q179 711 197.5 718 Q216 725 237 725 Q258 725 276.5 718 Q295 711 309 699 Q323 687 331 669.5 Q339 652 339 631 Z M299 631 Q299 657 280.5 673.5 Q262 690 237 690 Q212 690 193.5 673.5 Q175 657 175 631 Q175 605 193.5 588 Q212 571 237 571 Q262 571 280.5 588 Q299 605 299 631 Z " />
<glyph glyph-name="ae" unicode="&#xe6;" horiz-adv-x="834" d="M267 12 Q248 1 225.5 -5.5 Q203 -12 180 -12 Q149 -12 121.5 -3 Q94 6 74 22.5 Q54 39 42 63.5 Q30 88 30 120 Q30 164 49.5 191.5 Q69 219 101 236 L115 244 Q158 270 215 277 Q272 284 338 286 Q338 323 333.5 353 Q329 383 316 403.5 Q303 424 279.5 435 Q256 446 217 446 Q179 446 144 436.5 Q109 427 86 413 L73 441 Q117 467 162 481.5 Q207 496 255 496 Q318 496 355.5 465 Q393 434 395 377 Q408 402 428.5 423 Q449 444 472 458 L488 468 Q535 496 595 496 Q634 496 668.5 482 Q703 468 730 443.5 Q757 419 775.5 384.5 Q794 350 800 309 Q802 298 803.5 278.5 Q805 259 805 242 L408 242 Q408 200 424 162.5 Q440 125 467 97.5 Q494 70 531 54 Q568 38 610 38 Q633 38 651.5 40.5 Q670 43 688 50.5 Q706 58 727 71 Q748 84 775 106 L792 77 Q750 39 693.5 13.5 Q637 -12 577 -12 Q510 -12 456.5 19.5 Q403 51 374 103 Q340 56 290 26 L267 12 Z M356 137 Q347 158 342.5 186.5 Q338 215 338 246 Q281 244 228 241.5 Q175 239 137 222 Q99 192 99 141 Q99 117 108.5 97.5 Q118 78 134.5 64.5 Q151 51 173.5 44 Q196 37 221 37 Q243 37 262.5 45.5 Q282 54 299 68 Q316 82 330 100 Q344 118 356 137 Z M743 288 Q739 322 724 351 Q709 380 686 401 Q663 422 633 434 Q603 446 569 446 Q532 446 493 429 Q459 406 436.5 369.5 Q414 333 409 288 L743 288 Z " />
<glyph glyph-name="ccedilla" unicode="&#xe7;" horiz-adv-x="475" d="M181 -150 Q202 -158 224 -163 Q246 -168 269 -168 Q294 -168 314 -157 Q334 -146 334 -117 Q334 -101 325.5 -92 Q317 -83 305 -78.5 Q293 -74 278.5 -72 Q264 -70 252 -69 L258 -11 Q208 -8 166 12.5 Q124 33 92.5 65.5 Q61 98 43.5 140.5 Q26 183 26 232 Q26 301 59.5 356.5 Q93 412 148 444 L180 462 Q208 478 240 487 Q272 496 306 496 Q344 496 375.5 488.5 Q407 481 437 467 L414 408 Q384 427 350.5 436.5 Q317 446 278 446 Q254 446 231 441 Q208 436 189 424 Q146 398 122 352 Q98 306 98 251 Q98 207 114.5 168.5 Q131 130 160 101 Q189 72 227 55.5 Q265 39 309 39 Q342 39 373 46 Q404 53 439 69 L441 36 Q406 16 369.5 4 Q333 -8 286 -11 L283 -43 Q322 -46 352 -64 Q382 -82 382 -119 Q382 -164 352 -184 Q322 -204 281 -204 Q254 -204 229 -197 Q204 -190 179 -179 L181 -150 Z " />
<glyph glyph-name="egrave" unicode="&#xe8;" horiz-adv-x="540" d="M496 77 Q485 67 463.5 52 Q442 37 413 22.5 Q384 8 348.5 -2 Q313 -12 274 -12 Q223 -12 177.5 6.5 Q132 25 98.5 58 Q65 91 45.5 135.5 Q26 180 26 232 Q26 304 59 359.5 Q92 415 146 447 L176 465 Q229 496 291 496 Q336 496 376 478.5 Q416 461 446 429.5 Q476 398 493.5 355.5 Q511 313 511 264 L511 242 L98 242 Q98 200 115 163 Q132 126 160.5 98.5 Q189 71 227 54.5 Q265 38 308 38 Q335 38 355 40.5 Q375 43 393.5 50.5 Q412 58 432 71.5 Q452 85 479 108 L496 77 Z M447 288 Q443 322 427.5 351 Q412 380 388 401 Q364 422 332.5 434 Q301 446 266 446 Q244 446 223 442 Q202 438 185 427 Q150 405 128 369 Q106 333 100 288 L447 288 Z M165 693 L219 713 L327 556 L290 541 L165 693 Z " />
<glyph glyph-name="eacute" unicode="&#xe9;" horiz-adv-x="540" d="M496 77 Q485 67 463.5 52 Q442 37 413 22.5 Q384 8 348.5 -2 Q313 -12 274 -12 Q223 -12 177.5 6.5 Q132 25 98.5 58 Q65 91 45.5 135.5 Q26 180 26 232 Q26 304 59 359.5 Q92 415 146 447 L176 465 Q229 496 291 496 Q336 496 376 478.5 Q416 461 446 429.5 Q476 398 493.5 355.5 Q511 313 511 264 L511 242 L98 242 Q98 200 115 163 Q132 126 160.5 98.5 Q189 71 227 54.5 Q265 38 308 38 Q335 38 355 40.5 Q375 43 393.5 50.5 Q412 58 432 71.5 Q452 85 479 108 L496 77 Z M447 288 Q443 322 427.5 351 Q412 380 388 401 Q364 422 332.5 434 Q301 446 266 446 Q244 446 223 442 Q202 438 185 427 Q150 405 128 369 Q106 333 100 288 L447 288 Z M225 556 L333 713 L387 693 L262 541 L225 556 Z " />
<glyph glyph-name="ecircumflex" unicode="&#xea;" horiz-adv-x="540" d="M496 77 Q485 67 463.5 52 Q442 37 413 22.5 Q384 8 348.5 -2 Q313 -12 274 -12 Q223 -12 177.5 6.5 Q132 25 98.5 58 Q65 91 45.5 135.5 Q26 180 26 232 Q26 304 59 359.5 Q92 415 146 447 L176 465 Q229 496 291 496 Q336 496 376 478.5 Q416 461 446 429.5 Q476 398 493.5 355.5 Q511 313 511 264 L511 242 L98 242 Q98 200 115 163 Q132 126 160.5 98.5 Q189 71 227 54.5 Q265 38 308 38 Q335 38 355 40.5 Q375 43 393.5 50.5 Q412 58 432 71.5 Q452 85 479 108 L496 77 Z M447 288 Q443 322 427.5 351 Q412 380 388 401 Q364 422 332.5 434 Q301 446 266 446 Q244 446 223 442 Q202 438 185 427 Q150 405 128 369 Q106 333 100 288 L447 288 Z M142 565 L263 697 L289 697 L410 564 L376 545 L276 644 L174 546 L142 565 Z " />
<glyph glyph-name="edieresis" unicode="&#xeb;" horiz-adv-x="540" d="M496 77 Q485 67 463.5 52 Q442 37 413 22.5 Q384 8 348.5 -2 Q313 -12 274 -12 Q223 -12 177.5 6.5 Q132 25 98.5 58 Q65 91 45.5 135.5 Q26 180 26 232 Q26 304 59 359.5 Q92 415 146 447 L176 465 Q229 496 291 496 Q336 496 376 478.5 Q416 461 446 429.5 Q476 398 493.5 355.5 Q511 313 511 264 L511 242 L98 242 Q98 200 115 163 Q132 126 160.5 98.5 Q189 71 227 54.5 Q265 38 308 38 Q335 38 355 40.5 Q375 43 393.5 50.5 Q412 58 432 71.5 Q452 85 479 108 L496 77 Z M447 288 Q443 322 427.5 351 Q412 380 388 401 Q364 422 332.5 434 Q301 446 266 446 Q244 446 223 442 Q202 438 185 427 Q150 405 128 369 Q106 333 100 288 L447 288 Z M404 603 Q404 586 392 575 Q380 564 364 564 Q347 564 336 575 Q325 586 325 603 Q325 618 336.5 630.5 Q348 643 364 643 Q380 643 392 631 Q404 619 404 603 Z M227 603 Q227 586 215.5 575 Q204 564 188 564 Q171 564 159.5 575 Q148 586 148 603 Q148 618 160 630.5 Q172 643 188 643 Q204 643 215.5 631 Q227 619 227 603 Z " />
<glyph glyph-name="igrave" unicode="&#xec;" horiz-adv-x="197" d="M64 439 L46 470 L134 496 L134 0 L64 0 L64 439 Z M-13 693 L41 713 L149 556 L112 541 L-13 693 Z " />
<glyph glyph-name="iacute" unicode="&#xed;" horiz-adv-x="197" d="M64 439 L46 470 L134 496 L134 0 L64 0 L64 439 Z M47 556 L155 713 L209 693 L84 541 L47 556 Z " />
<glyph glyph-name="icircumflex" unicode="&#xee;" horiz-adv-x="197" d="M64 439 L46 470 L134 496 L134 0 L64 0 L64 439 Z M-36 565 L85 697 L111 697 L232 564 L198 545 L98 644 L-4 546 L-36 565 Z " />
<glyph glyph-name="idieresis" unicode="&#xef;" horiz-adv-x="197" d="M64 439 L46 470 L134 496 L134 0 L64 0 L64 439 Z M226 603 Q226 586 214 575 Q202 564 186 564 Q169 564 158 575 Q147 586 147 603 Q147 618 158.5 630.5 Q170 643 186 643 Q202 643 214 631 Q226 619 226 603 Z M49 603 Q49 586 37.5 575 Q26 564 10 564 Q-7 564 -18.5 575 Q-30 586 -30 603 Q-30 618 -18 630.5 Q-6 643 10 643 Q26 643 37.5 631 Q49 619 49 603 Z " />
<glyph glyph-name="eth" unicode="&#xf0;" horiz-adv-x="554" d="M383 21 Q357 5 326 -3.5 Q295 -12 262 -12 Q214 -12 171.5 6.5 Q129 25 96.5 57.5 Q64 90 45 134.5 Q26 179 26 232 Q26 299 57.5 354 Q89 409 140 441 L169 459 Q215 486 269 488 Q301 489 331.5 478.5 Q362 468 387 450 Q360 491 326 527 Q292 563 255 594 L137 509 L112 536 L226 619 Q200 640 172 659.5 Q144 679 115 697 L168 735 Q227 698 281 655 L391 735 L415 707 L309 631 Q348 597 387 555 Q426 513 457.5 464.5 Q489 416 508.5 362 Q528 308 528 251 Q528 181 496 126 Q464 71 412 39 L383 21 Z M373 58 Q412 87 435 133 Q458 179 458 233 Q458 280 443 319 Q428 358 401.5 386.5 Q375 415 339 430.5 Q303 446 262 446 Q241 446 220.5 441 Q200 436 182 425 Q143 398 120 351.5 Q97 305 97 251 Q97 207 112 168.5 Q127 130 153.5 101 Q180 72 215.5 55.5 Q251 39 292 39 Q335 39 373 58 Z " />
<glyph glyph-name="ntilde" unicode="&#xf1;" horiz-adv-x="529" d="M64 439 L46 473 L133 496 L133 416 Q145 427 160 438 Q175 449 188 457 L202 466 Q257 496 312 496 Q344 496 373 485.5 Q402 475 424 455 Q446 435 459 405.5 Q472 376 472 339 L472 0 L402 0 L402 318 Q402 349 391.5 373 Q381 397 363.5 413 Q346 429 322 437.5 Q298 446 271 446 Q228 446 195.5 426.5 Q163 407 134 375 L134 0 L64 0 L64 439 Z M123 574 Q131 602 152 622.5 Q173 643 204 643 Q219 643 234 638 Q249 633 263.5 627 Q278 621 293 616 Q308 611 323 611 Q341 611 352.5 622 Q364 633 370 649 L404 636 Q397 607 374.5 586.5 Q352 566 321 566 Q307 566 293 571 Q279 576 264 582.5 Q249 589 233.5 594 Q218 599 202 599 Q185 599 174.5 588 Q164 577 158 562 L123 574 Z " />
<glyph glyph-name="ograve" unicode="&#xf2;" horiz-adv-x="576" d="M398 21 Q370 5 338 -3.5 Q306 -12 272 -12 Q222 -12 177.5 6.5 Q133 25 99 57.5 Q65 90 45.5 134.5 Q26 179 26 232 Q26 303 59.5 358 Q93 413 147 445 L178 463 Q206 479 238 487.5 Q270 496 304 496 Q354 496 399 477.5 Q444 459 477.5 426.5 Q511 394 530.5 349 Q550 304 550 251 Q550 181 517 126 Q484 71 430 39 L398 21 Z M390 58 Q431 87 455.5 132.5 Q480 178 480 232 Q480 276 464 315 Q448 354 419.5 383 Q391 412 353 429 Q315 446 272 446 Q249 446 227.5 441.5 Q206 437 187 425 Q145 399 121.5 352 Q98 305 98 251 Q98 207 114 168.5 Q130 130 157.5 101 Q185 72 222.5 55.5 Q260 39 304 39 Q349 39 390 58 Z M177 693 L231 713 L339 556 L302 541 L177 693 Z " />
<glyph glyph-name="oacute" unicode="&#xf3;" horiz-adv-x="576" d="M398 21 Q370 5 338 -3.5 Q306 -12 272 -12 Q222 -12 177.5 6.5 Q133 25 99 57.5 Q65 90 45.5 134.5 Q26 179 26 232 Q26 303 59.5 358 Q93 413 147 445 L178 463 Q206 479 238 487.5 Q270 496 304 496 Q354 496 399 477.5 Q444 459 477.5 426.5 Q511 394 530.5 349 Q550 304 550 251 Q550 181 517 126 Q484 71 430 39 L398 21 Z M390 58 Q431 87 455.5 132.5 Q480 178 480 232 Q480 276 464 315 Q448 354 419.5 383 Q391 412 353 429 Q315 446 272 446 Q249 446 227.5 441.5 Q206 437 187 425 Q145 399 121.5 352 Q98 305 98 251 Q98 207 114 168.5 Q130 130 157.5 101 Q185 72 222.5 55.5 Q260 39 304 39 Q349 39 390 58 Z M237 556 L345 713 L399 693 L274 541 L237 556 Z " />
<glyph glyph-name="ocircumflex" unicode="&#xf4;" horiz-adv-x="576" d="M398 21 Q370 5 338 -3.5 Q306 -12 272 -12 Q222 -12 177.5 6.5 Q133 25 99 57.5 Q65 90 45.5 134.5 Q26 179 26 232 Q26 303 59.5 358 Q93 413 147 445 L178 463 Q206 479 238 487.5 Q270 496 304 496 Q354 496 399 477.5 Q444 459 477.5 426.5 Q511 394 530.5 349 Q550 304 550 251 Q550 181 517 126 Q484 71 430 39 L398 21 Z M390 58 Q431 87 455.5 132.5 Q480 178 480 232 Q480 276 464 315 Q448 354 419.5 383 Q391 412 353 429 Q315 446 272 446 Q249 446 227.5 441.5 Q206 437 187 425 Q145 399 121.5 352 Q98 305 98 251 Q98 207 114 168.5 Q130 130 157.5 101 Q185 72 222.5 55.5 Q260 39 304 39 Q349 39 390 58 Z M154 565 L275 697 L301 697 L422 564 L388 545 L288 644 L186 546 L154 565 Z " />
<glyph glyph-name="otilde" unicode="&#xf5;" horiz-adv-x="576" d="M398 21 Q370 5 338 -3.5 Q306 -12 272 -12 Q222 -12 177.5 6.5 Q133 25 99 57.5 Q65 90 45.5 134.5 Q26 179 26 232 Q26 303 59.5 358 Q93 413 147 445 L178 463 Q206 479 238 487.5 Q270 496 304 496 Q354 496 399 477.5 Q444 459 477.5 426.5 Q511 394 530.5 349 Q550 304 550 251 Q550 181 517 126 Q484 71 430 39 L398 21 Z M390 58 Q431 87 455.5 132.5 Q480 178 480 232 Q480 276 464 315 Q448 354 419.5 383 Q391 412 353 429 Q315 446 272 446 Q249 446 227.5 441.5 Q206 437 187 425 Q145 399 121.5 352 Q98 305 98 251 Q98 207 114 168.5 Q130 130 157.5 101 Q185 72 222.5 55.5 Q260 39 304 39 Q349 39 390 58 Z M147 574 Q155 602 176 622.5 Q197 643 228 643 Q243 643 258 638 Q273 633 287.5 627 Q302 621 317 616 Q332 611 347 611 Q365 611 376.5 622 Q388 633 394 649 L428 636 Q421 607 398.5 586.5 Q376 566 345 566 Q331 566 317 571 Q303 576 288 582.5 Q273 589 257.5 594 Q242 599 226 599 Q209 599 198.5 588 Q188 577 182 562 L147 574 Z " />
<glyph glyph-name="odieresis" unicode="&#xf6;" horiz-adv-x="576" d="M398 21 Q370 5 338 -3.5 Q306 -12 272 -12 Q222 -12 177.5 6.5 Q133 25 99 57.5 Q65 90 45.5 134.5 Q26 179 26 232 Q26 303 59.5 358 Q93 413 147 445 L178 463 Q206 479 238 487.5 Q270 496 304 496 Q354 496 399 477.5 Q444 459 477.5 426.5 Q511 394 530.5 349 Q550 304 550 251 Q550 181 517 126 Q484 71 430 39 L398 21 Z M390 58 Q431 87 455.5 132.5 Q480 178 480 232 Q480 276 464 315 Q448 354 419.5 383 Q391 412 353 429 Q315 446 272 446 Q249 446 227.5 441.5 Q206 437 187 425 Q145 399 121.5 352 Q98 305 98 251 Q98 207 114 168.5 Q130 130 157.5 101 Q185 72 222.5 55.5 Q260 39 304 39 Q349 39 390 58 Z M416 603 Q416 586 404 575 Q392 564 376 564 Q359 564 348 575 Q337 586 337 603 Q337 618 348.5 630.5 Q360 643 376 643 Q392 643 404 631 Q416 619 416 603 Z M239 603 Q239 586 227.5 575 Q216 564 200 564 Q183 564 171.5 575 Q160 586 160 603 Q160 618 172 630.5 Q184 643 200 643 Q216 643 227.5 631 Q239 619 239 603 Z " />
<glyph glyph-name="divide" unicode="&#xf7;" horiz-adv-x="556" d="M323 427 Q323 410 310 396.5 Q297 383 278 383 Q259 383 246 396 Q233 409 233 427 Q233 446 246 458.5 Q259 471 278 471 Q296 471 309.5 458 Q323 445 323 427 Z M28 275 L528 275 L528 225 L28 225 L28 275 Z M323 73 Q323 54 310 41 Q297 28 278 28 Q259 28 246 41 Q233 54 233 73 Q233 91 246 104 Q259 117 278 117 Q297 117 310 104 Q323 91 323 73 Z " />
<glyph glyph-name="oslash" unicode="&#xf8;" horiz-adv-x="578" d="M37 -30 L106 52 Q70 86 48 131.5 Q26 177 26 232 Q26 303 59.5 358 Q93 413 147 445 L178 463 Q206 479 238 487.5 Q270 496 304 496 Q381 496 440 454 L512 540 L547 520 L472 431 Q507 397 528.5 351.5 Q550 306 550 251 Q550 181 517 126 Q484 71 430 39 L398 21 Q370 5 338 -3.5 Q306 -12 272 -12 Q235 -12 201 -1 Q167 10 138 30 L70 -51 L37 -30 Z M399 402 Q373 422 341 434 Q309 446 272 446 Q249 446 227.5 441 Q206 436 187 425 Q145 398 121.5 351.5 Q98 305 98 251 Q98 210 112.5 173.5 Q127 137 153 111 L399 402 Z M180 82 Q206 62 237 50.5 Q268 39 304 39 Q327 39 348.5 44.5 Q370 50 390 59 Q432 88 456 133 Q480 178 480 232 Q480 274 465.5 310 Q451 346 426 373 L180 82 Z " />
<glyph glyph-name="ugrave" unicode="&#xf9;" horiz-adv-x="529" d="M397 68 Q386 56 370.5 45 Q355 34 343 26 L328 18 Q274 -12 219 -12 Q187 -12 158 -1.5 Q129 9 107 28.5 Q85 48 72 77 Q59 106 59 144 L59 439 L41 470 L129 496 L129 165 Q129 135 139.5 111.5 Q150 88 167.5 72 Q185 56 208.5 47.5 Q232 39 259 39 Q299 39 338 59 Q352 68 366.5 80.5 Q381 93 395 110 L395 439 L378 470 L465 496 L465 0 L397 0 L397 68 Z M153 693 L207 713 L315 556 L278 541 L153 693 Z " />
<glyph glyph-name="uacute" unicode="&#xfa;" horiz-adv-x="529" d="M397 68 Q386 56 370.5 45 Q355 34 343 26 L328 18 Q274 -12 219 -12 Q187 -12 158 -1.5 Q129 9 107 28.5 Q85 48 72 77 Q59 106 59 144 L59 439 L41 470 L129 496 L129 165 Q129 135 139.5 111.5 Q150 88 167.5 72 Q185 56 208.5 47.5 Q232 39 259 39 Q299 39 338 59 Q352 68 366.5 80.5 Q381 93 395 110 L395 439 L378 470 L465 496 L465 0 L397 0 L397 68 Z M213 556 L321 713 L375 693 L250 541 L213 556 Z " />
<glyph glyph-name="ucircumflex" unicode="&#xfb;" horiz-adv-x="529" d="M397 68 Q386 56 370.5 45 Q355 34 343 26 L328 18 Q274 -12 219 -12 Q187 -12 158 -1.5 Q129 9 107 28.5 Q85 48 72 77 Q59 106 59 144 L59 439 L41 470 L129 496 L129 165 Q129 135 139.5 111.5 Q150 88 167.5 72 Q185 56 208.5 47.5 Q232 39 259 39 Q299 39 338 59 Q352 68 366.5 80.5 Q381 93 395 110 L395 439 L378 470 L465 496 L465 0 L397 0 L397 68 Z M130 565 L251 697 L277 697 L398 564 L364 545 L264 644 L162 546 L130 565 Z " />
<glyph glyph-name="udieresis" unicode="&#xfc;" horiz-adv-x="529" d="M397 68 Q386 56 370.5 45 Q355 34 343 26 L328 18 Q274 -12 219 -12 Q187 -12 158 -1.5 Q129 9 107 28.5 Q85 48 72 77 Q59 106 59 144 L59 439 L41 470 L129 496 L129 165 Q129 135 139.5 111.5 Q150 88 167.5 72 Q185 56 208.5 47.5 Q232 39 259 39 Q299 39 338 59 Q352 68 366.5 80.5 Q381 93 395 110 L395 439 L378 470 L465 496 L465 0 L397 0 L397 68 Z M392 603 Q392 586 380 575 Q368 564 352 564 Q335 564 324 575 Q313 586 313 603 Q313 618 324.5 630.5 Q336 643 352 643 Q368 643 380 631 Q392 619 392 603 Z M215 603 Q215 586 203.5 575 Q192 564 176 564 Q159 564 147.5 575 Q136 586 136 603 Q136 618 148 630.5 Q160 643 176 643 Q192 643 203.5 631 Q215 619 215 603 Z " />
<glyph glyph-name="yacute" unicode="&#xfd;" horiz-adv-x="460" d="M201 11 L1 484 L77 484 L239 101 L388 453 L379 484 L459 484 L173 -197 L110 -197 L201 11 Z M178 556 L286 713 L340 693 L215 541 L178 556 Z " />
<glyph glyph-name="thorn" unicode="&#xfe;" horiz-adv-x="557" d="M64 679 L46 710 L134 736 L134 439 Q163 464 201.5 478 Q240 492 276 492 Q308 497 338 491 Q378 483 413.5 461.5 Q449 440 475 408.5 Q501 377 516 337 Q531 297 531 251 Q531 180 497.5 125 Q464 70 410 38 L379 20 Q324 -12 260 -12 Q225 -12 192.5 -1 Q160 10 134 30 L134 -197 L64 -197 L64 679 Z M134 102 Q163 73 201 56 Q239 39 284 39 Q307 39 329 43.5 Q351 48 370 59 Q412 85 436 131.5 Q460 178 460 232 Q460 277 443.5 316 Q427 355 399 384 Q371 413 333 429.5 Q295 446 252 446 Q216 446 188.5 434.5 Q161 423 134 396 L134 102 Z " />
<glyph glyph-name="ydieresis" unicode="&#xff;" horiz-adv-x="460" d="M201 11 L1 484 L77 484 L239 101 L388 453 L379 484 L459 484 L173 -197 L110 -197 L201 11 Z M357 603 Q357 586 345 575 Q333 564 317 564 Q300 564 289 575 Q278 586 278 603 Q278 618 289.5 630.5 Q301 643 317 643 Q333 643 345 631 Q357 619 357 603 Z M180 603 Q180 586 168.5 575 Q157 564 141 564 Q124 564 112.5 575 Q101 586 101 603 Q101 618 113 630.5 Q125 643 141 643 Q157 643 168.5 631 Q180 619 180 603 Z " />
<glyph glyph-name="OE" unicode="&#x152;" horiz-adv-x="1021" d="M565 21 Q528 4 487.5 -6 Q447 -16 402 -16 Q324 -16 255.5 13 Q187 42 137 92.5 Q87 143 58 210 Q29 277 29 354 Q29 405 42.5 452.5 Q56 500 80 541 Q104 582 138 616 Q172 650 213 675 L245 693 Q287 718 334.5 731 Q382 744 434 744 Q469 744 501.5 740 Q534 736 564 728 L980 728 L959 674 L639 674 L639 404 L970 404 L949 350 L639 350 L639 54 L990 54 L969 0 L565 0 L565 21 Z M565 658 Q530 672 489 681 Q448 690 402 690 Q361 690 323 681.5 Q285 673 253 653 Q218 632 190.5 602 Q163 572 144 536 Q125 500 114.5 458.5 Q104 417 104 373 Q104 304 129.5 243 Q155 182 199.5 136.5 Q244 91 304 64.5 Q364 38 434 38 Q469 38 502.5 44 Q536 50 565 65 L565 658 Z " />
<glyph glyph-name="oe" unicode="&#x153;" horiz-adv-x="834" d="M792 77 Q752 39 695.5 13 Q639 -13 574 -12 Q534 -12 494.5 3 Q455 18 421 45 Q387 20 348.5 4 Q310 -12 265 -12 Q216 -12 172.5 6.5 Q129 25 96.5 57.5 Q64 90 45 134.5 Q26 179 26 232 Q26 303 59 359.5 Q92 416 146 445 L173 463 Q201 478 232 487 Q263 496 298 496 Q378 496 447 441 Q452 446 458 450 Q464 454 469 457 L484 466 Q534 497 594 496 Q636 496 674 479.5 Q712 463 741 433.5 Q770 404 787.5 363 Q805 322 805 274 L805 242 L406 242 L407 233 Q408 192 425 156.5 Q442 121 469.5 94.5 Q497 68 533.5 53 Q570 38 609 38 Q658 37 696.5 55 Q735 73 773 108 L792 77 Z M393 80 Q367 109 351.5 148.5 Q336 188 336 231 Q336 276 349.5 318 Q363 360 395 396 Q369 419 335.5 432.5 Q302 446 264 446 Q225 446 193.5 429.5 Q162 413 140.5 385.5 Q119 358 107 323 Q95 288 95 251 Q95 207 110 168.5 Q125 130 151.5 101.5 Q178 73 214 56 Q250 39 291 39 Q349 39 393 80 Z M742 288 Q738 322 723 351 Q708 380 685 401 Q662 422 632 434 Q602 446 568 446 Q533 446 505.5 433.5 Q478 421 457.5 399.5 Q437 378 424 349.5 Q411 321 407 288 L742 288 Z " />
<glyph glyph-name="Scaron" unicode="&#x160;" horiz-adv-x="504" d="M340 12 Q288 -16 232 -16 Q179 -16 128.5 1 Q78 18 36 51 L61 117 Q104 78 155 57.5 Q206 37 264 37 Q294 37 319 49 Q344 61 361.5 81.5 Q379 102 388.5 128 Q398 154 398 182 Q398 224 384 251 Q370 278 347 295.5 Q324 313 294 324.5 Q264 336 232 346 Q197 357 163 370 Q129 383 102.5 404 Q76 425 59.5 456.5 Q43 488 43 536 Q43 589 68.5 632 Q94 675 136 699 L170 718 Q213 744 267 744 Q317 744 364 727.5 Q411 711 449 681 L423 615 Q385 650 337.5 670 Q290 690 237 690 Q210 690 187.5 679 Q165 668 149 649.5 Q133 631 124.5 607 Q116 583 116 558 Q116 519 129.5 493.5 Q143 468 166 451.5 Q189 435 218.5 424 Q248 413 281 403 Q316 392 350 378.5 Q384 365 411 343.5 Q438 322 455 288.5 Q472 255 472 205 Q472 151 446.5 104 Q421 57 372 30 L340 12 Z M117 914 L151 932 L251 834 L353 932 L385 914 L264 782 L237 782 L117 914 Z " />
<glyph glyph-name="scaron" unicode="&#x161;" horiz-adv-x="375" d="M245 7 Q211 -12 171 -12 Q136 -12 102.5 -1 Q69 10 41 32 L64 92 Q92 69 126 53.5 Q160 38 196 38 Q231 38 253 61.5 Q275 85 275 119 Q275 147 265 165 Q255 183 238.5 194.5 Q222 206 200.5 213 Q179 220 157 227 Q136 234 115 242.5 Q94 251 77.5 264.5 Q61 278 51 299 Q41 320 41 351 Q41 385 57.5 414 Q74 443 104 460 L131 475 Q147 484 165.5 490 Q184 496 204 496 Q237 496 267.5 485 Q298 474 323 457 L301 399 Q277 419 246.5 432.5 Q216 446 184 446 Q176 446 165 444 Q154 442 146 438 Q129 430 119.5 410 Q110 390 110 370 Q110 345 119.5 328.5 Q129 312 144.5 301.5 Q160 291 179 284.5 Q198 278 218 272 Q242 264 265 255 Q288 246 305.5 232 Q323 218 333.5 196 Q344 174 344 141 Q344 101 324.5 70.5 Q305 40 272 22 L245 7 Z M53 678 L87 696 L187 598 L289 696 L321 678 L200 545 L173 545 L53 678 Z " />
<glyph glyph-name="Ydieresis" unicode="&#x178;" horiz-adv-x="604" d="M268 292 L0 728 L88 728 L314 360 L519 695 L511 728 L604 728 L341 299 L341 0 L268 0 L268 292 Z M430 840 Q430 823 418 811.5 Q406 800 390 800 Q373 800 362 811.5 Q351 823 351 840 Q351 855 362.5 867 Q374 879 390 879 Q406 879 418 867 Q430 855 430 840 Z M253 840 Q253 823 241.5 811.5 Q230 800 214 800 Q197 800 185.5 811.5 Q174 823 174 840 Q174 855 186 867 Q198 879 214 879 Q230 879 241.5 867 Q253 855 253 840 Z " />
<glyph glyph-name="Zcaron" unicode="&#x17d;" horiz-adv-x="565" d="M18 28 L441 673 L32 673 L52 728 L541 728 L541 700 L117 54 L550 54 L529 0 L18 0 L18 28 Z M149 914 L183 932 L283 834 L385 932 L417 914 L296 782 L269 782 L149 914 Z " />
<glyph glyph-name="zcaron" unicode="&#x17e;" horiz-adv-x="428" d="M20 26 L310 434 L28 434 L48 484 L404 484 L404 457 L116 51 L415 51 L395 0 L20 0 L20 26 Z M80 678 L114 696 L214 598 L316 696 L348 678 L227 545 L200 545 L80 678 Z " />
<glyph glyph-name="florin" unicode="&#x192;" horiz-adv-x="554" d="M1 -128 Q12 -130 30 -132 Q48 -134 59 -134 Q82 -134 102 -130.5 Q122 -127 139 -119 Q170 -96 183 -55.5 Q196 -15 205 33 L278 434 L169 434 L169 484 L288 484 L303 561 Q313 610 335 645.5 Q357 681 385 698 L403 708 Q411 712 425 716 Q439 720 454.5 723 Q470 726 485 728 Q500 730 510 730 Q521 730 530 729 Q539 728 547 726 L547 676 Q542 677 528 678 Q514 679 503 679 Q496 679 484.5 678.5 Q473 678 460 677.5 Q447 677 436 675.5 Q425 674 420 673 Q400 656 388.5 627 Q377 598 369 560 L355 484 L504 484 L504 434 L346 434 L276 45 Q264 -20 241 -70 Q218 -120 172 -146 L141 -165 Q121 -176 96.5 -182 Q72 -188 42 -188 Q33 -188 22 -186.5 Q11 -185 1 -182 L1 -128 Z " />
<glyph glyph-name="circumflex" unicode="&#x2c6;" horiz-adv-x="500" d="M116 565 L237 697 L263 697 L384 564 L350 545 L250 644 L148 546 L116 565 Z " />
<glyph glyph-name="tilde" unicode="&#x2dc;" horiz-adv-x="500" d="M109 574 Q117 602 138 622.5 Q159 643 190 643 Q205 643 220 638 Q235 633 249.5 627 Q264 621 279 616 Q294 611 309 611 Q327 611 338.5 622 Q350 633 356 649 L390 636 Q383 607 360.5 586.5 Q338 566 307 566 Q293 566 279 571 Q265 576 250 582.5 Q235 589 219.5 594 Q204 599 188 599 Q171 599 160.5 588 Q150 577 144 562 L109 574 Z " />
<glyph glyph-name="endash" unicode="&#x2013;" horiz-adv-x="500" d="M0 277 L500 277 L500 225 L0 225 L0 277 Z " />
<glyph glyph-name="emdash" unicode="&#x2014;" horiz-adv-x="1000" d="M0 277 L1000 277 L1000 225 L0 225 L0 277 Z " />
<glyph glyph-name="quoteleft" unicode="&#x2018;" horiz-adv-x="147" d="M142 732 Q122 706 108 675 Q94 644 91 612 Q100 607 106 598 Q112 589 112 578 Q112 562 101.5 551.5 Q91 541 75 541 Q56 541 46 554 Q36 567 36 587 Q36 633 59 673.5 Q82 714 117 743 L142 732 Z " />
<glyph glyph-name="quoteright" unicode="&#x2019;" horiz-adv-x="147" d="M7 553 Q27 579 41 609.5 Q55 640 58 672 Q36 682 36 705 Q36 722 47 732.5 Q58 743 73 743 Q92 743 102 730 Q112 717 112 697 Q112 652 89 611.5 Q66 571 31 541 L7 553 Z " />
<glyph glyph-name="quotesinglbase" unicode="&#x201a;" horiz-adv-x="147" d="M7 -119 Q27 -93 41 -62.5 Q55 -32 58 1 Q48 5 42 13.5 Q36 22 36 33 Q36 50 47 60.5 Q58 71 73 71 Q92 71 102 58 Q112 45 112 25 Q112 -20 89 -61 Q66 -102 31 -131 L7 -119 Z " />
<glyph glyph-name="quotedblleft" unicode="&#x201c;" horiz-adv-x="272" d="M142 732 Q122 706 108 675 Q94 644 91 612 Q100 607 106 598 Q112 589 112 578 Q112 562 101.5 551.5 Q91 541 75 541 Q56 541 46 554 Q36 567 36 587 Q36 633 59 673.5 Q82 714 117 743 L142 732 Z M266 732 Q246 706 232 675 Q218 644 215 612 Q236 602 236 578 Q236 562 225.5 551.5 Q215 541 199 541 Q181 541 171 554 Q161 567 161 587 Q161 633 184 673.5 Q207 714 241 743 L266 732 Z " />
<glyph glyph-name="quotedblright" unicode="&#x201d;" horiz-adv-x="272" d="M131 553 Q151 579 165 609.5 Q179 640 182 672 Q173 677 167 685.5 Q161 694 161 705 Q161 722 171.5 732.5 Q182 743 198 743 Q217 743 226.5 730 Q236 717 236 697 Q236 652 213.5 611.5 Q191 571 156 541 L131 553 Z M7 553 Q27 579 41 609.5 Q55 640 58 672 Q36 682 36 705 Q36 722 47 732.5 Q58 743 73 743 Q92 743 102 730 Q112 717 112 697 Q112 652 89 611.5 Q66 571 31 541 L7 553 Z " />
<glyph glyph-name="quotedblbase" unicode="&#x201e;" horiz-adv-x="272" d="M131 -119 Q151 -93 165 -62.5 Q179 -32 182 1 Q173 5 167 13.5 Q161 22 161 33 Q161 50 171.5 60.5 Q182 71 198 71 Q217 71 226.5 58 Q236 45 236 25 Q236 -20 213.5 -61 Q191 -102 156 -131 L131 -119 Z M7 -119 Q27 -93 41 -62.5 Q55 -32 58 1 Q48 5 42 13.5 Q36 22 36 33 Q36 50 47 60.5 Q58 71 73 71 Q92 71 102 58 Q112 45 112 25 Q112 -20 89 -61 Q66 -102 31 -131 L7 -119 Z " />
<glyph glyph-name="dagger" unicode="&#x2020;" horiz-adv-x="554" d="M246 447 L51 447 L51 498 L246 498 L246 728 L307 728 L307 498 L502 498 L502 447 L307 447 L307 -184 L246 -184 L246 447 Z " />
<glyph glyph-name="daggerdbl" unicode="&#x2021;" horiz-adv-x="554" d="M246 46 L51 46 L51 97 L246 97 L246 447 L51 447 L51 498 L246 498 L246 728 L307 728 L307 498 L502 498 L502 447 L307 447 L307 97 L502 97 L502 46 L307 46 L307 -184 L246 -184 L246 46 Z " />
<glyph glyph-name="bullet" unicode="&#x2022;" horiz-adv-x="554" d="M383 330 Q383 285 352.5 254.5 Q322 224 277 224 Q255 224 236 232.5 Q217 241 202.5 255 Q188 269 179.5 288.5 Q171 308 171 330 Q171 352 179.5 371 Q188 390 202.5 404 Q217 418 236 426.5 Q255 435 277 435 Q299 435 318.5 426.5 Q338 418 352 404 Q366 390 374.5 371 Q383 352 383 330 Z " />
<glyph glyph-name="ellipsis" unicode="&#x2026;" horiz-adv-x="1000" d="M878 44 Q878 21 863 9 Q848 -3 831 -3 Q813 -3 800.5 8 Q788 19 788 36 Q788 59 803.5 71 Q819 83 837 83 Q854 83 866 72 Q878 61 878 44 Z M545 44 Q545 21 530 9 Q515 -3 498 -3 Q480 -3 467.5 8 Q455 19 455 36 Q455 59 470.5 71 Q486 83 504 83 Q521 83 533 72 Q545 61 545 44 Z M212 44 Q212 21 197 9 Q182 -3 165 -3 Q147 -3 134.5 8 Q122 19 122 36 Q122 59 137.5 71 Q153 83 171 83 Q188 83 200 72 Q212 61 212 44 Z " />
<glyph glyph-name="perthousand" unicode="&#x2030;" horiz-adv-x="1163" d="M234 340 Q207 325 169 325 Q128 325 100 342 Q72 359 54.5 387.5 Q37 416 29 452 Q21 488 21 526 Q21 556 25.5 584.5 Q30 613 40 637.5 Q50 662 65.5 682 Q81 702 104 714 L131 729 Q161 743 195 743 Q237 743 265.5 726 Q294 709 311.5 680.5 Q329 652 337 615.5 Q345 579 345 541 Q345 512 340.5 483.5 Q336 455 325.5 430.5 Q315 406 299 386.5 Q283 367 260 355 L234 340 Z M284 526 Q284 559 278.5 590.5 Q273 622 260 646.5 Q247 671 225 686.5 Q203 702 171 702 Q160 702 151.5 698 Q143 694 135 689 Q106 666 94.5 625.5 Q83 585 83 541 Q83 508 88.5 476.5 Q94 445 107 420.5 Q120 396 141.5 381 Q163 366 195 366 Q206 366 215.5 370.5 Q225 375 234 381 Q262 402 273 442.5 Q284 483 284 526 Z M585 763 L631 763 L211 -35 L166 -35 L585 763 Z M665 6 Q638 -9 600 -9 Q559 -9 531 8 Q503 25 485.5 53.5 Q468 82 460 118 Q452 154 452 192 Q452 222 456.5 250.5 Q461 279 471 303.5 Q481 328 496.5 348 Q512 368 535 380 L562 395 Q592 409 626 409 Q668 409 696.5 392 Q725 375 742.5 346.5 Q760 318 768 281.5 Q776 245 776 207 Q776 178 771.5 149.5 Q767 121 756.5 96.5 Q746 72 730 52.5 Q714 33 691 21 L665 6 Z M715 192 Q715 225 709.5 256.5 Q704 288 691 312.5 Q678 337 656 352.5 Q634 368 602 368 Q591 368 582.5 364 Q574 360 566 355 Q537 332 525.5 291.5 Q514 251 514 207 Q514 174 519.5 142.5 Q525 111 538 86.5 Q551 62 572.5 47 Q594 32 626 32 Q637 32 646.5 36.5 Q656 41 665 47 Q693 68 704 108.5 Q715 149 715 192 Z M1031 6 Q1004 -9 966 -9 Q925 -9 897 8 Q869 25 851.5 53.5 Q834 82 826 118 Q818 154 818 192 Q818 222 822.5 250.5 Q827 279 837 303.5 Q847 328 862.5 348 Q878 368 901 380 L928 395 Q958 409 992 409 Q1034 409 1062.5 392 Q1091 375 1108.5 346.5 Q1126 318 1134 281.5 Q1142 245 1142 207 Q1142 178 1137.5 149.5 Q1133 121 1122.5 96.5 Q1112 72 1096 52.5 Q1080 33 1057 21 L1031 6 Z M1081 192 Q1081 225 1075.5 256.5 Q1070 288 1057 312.5 Q1044 337 1022 352.5 Q1000 368 968 368 Q957 368 948.5 364 Q940 360 932 355 Q903 332 891.5 291.5 Q880 251 880 207 Q880 174 885.5 142.5 Q891 111 904 86.5 Q917 62 938.5 47 Q960 32 992 32 Q1003 32 1012.5 36.5 Q1022 41 1031 47 Q1059 68 1070 108.5 Q1081 149 1081 192 Z " />
<glyph glyph-name="guilsinglleft" unicode="&#x2039;" horiz-adv-x="227" d="M27 232 L170 436 L196 424 L100 251 L199 70 L168 52 L27 232 Z " />
<glyph glyph-name="guilsinglright" unicode="&#x203a;" horiz-adv-x="227" d="M31 60 L128 233 L28 413 L59 431 L199 252 L57 47 L31 60 Z " />
<glyph glyph-name="Euro" unicode="&#x20ac;" horiz-adv-x="554" d="M543 34 Q521 20 500.5 10.5 Q480 1 459 -5 Q438 -11 414.5 -13.5 Q391 -16 364 -16 Q300 -16 252.5 8 Q205 32 172 71.5 Q139 111 119 162.5 Q99 214 91 269 L-9 269 L-9 315 L86 315 Q85 325 84.5 334.5 Q84 344 84 354 Q84 371 85 387.5 Q86 404 88 421 L-9 421 L-9 468 L96 468 Q109 536 141 594.5 Q173 653 231 691 Q239 696 248 702 Q257 708 265 712 Q296 728 325.5 736 Q355 744 390 744 Q430 744 466.5 736 Q503 728 538 710 L519 643 Q482 667 444.5 678.5 Q407 690 361 690 Q294 690 247 642 Q215 609 195.5 563 Q176 517 168 468 L443 468 L443 421 L161 421 Q160 409 159.5 397 Q159 385 159 373 Q159 345 162 315 L407 315 L407 269 L170 269 Q178 225 195 183.5 Q212 142 238.5 110 Q265 78 302.5 58 Q340 38 390 38 Q432 38 468.5 46 Q505 54 540 73 L543 34 Z " />
<glyph glyph-name="trademark" unicode="&#x2122;" horiz-adv-x="859" d="M140 685 L3 685 L20 728 L338 728 L320 685 L200 685 L200 328 L140 328 L140 685 Z M384 700 L362 728 L436 728 L603 527 L769 728 L819 728 L819 328 L759 328 L759 637 L609 456 L581 456 L431 637 L431 328 L384 328 L384 700 Z " />
</font>
</svg>
